999
dxfrw 0.5.10
0
SECTION
2
HEADER
9
$ACADVER
1
AC1021
9
$HANDSEED
5
20000
9
$DWGCODEPAGE
3
ANSI_1252
9
$INSBASE
10
0
20
0
30
0
9
$EXTMIN
10
21.9146864288
20
2.39593782867
30
0
9
$EXTMAX
10
453.76291111
20
129.881973035
30
0
9
$LIMMIN
10
0
20
0
9
$LIMMAX
10
420
20
297
9
$ORTHOMODE
70
0
9
$LTSCALE
40
1
9
$TEXTSTYLE
7
STANDARD
9
$CLAYER
8
bottom plate
9
$DIMASZ
40
2.5
9
$DIMLFAC
40
1
9
$DIMSCALE
40
1
9
$DIMEXO
40
0.625
9
$DIMEXE
40
1.25
9
$DIMTXT
40
2.5
9
$DIMTSZ
40
0
9
$DIMAUNIT
70
0
9
$DIMADEC
70
0
9
$DIMLUNIT
70
2
9
$DIMSTYLE
2
STANDARD
9
$DIMGAP
40
0.625
9
$DIMTIH
70
0
9
$LUNITS
70
2
9
$LUPREC
70
4
9
$AUNITS
70
0
9
$AUPREC
70
2
9
$SPLINESEGS
70
8
9
$GRIDMODE
70
1
9
$SNAPSTYLE
70
0
9
$PINSBASE
10
0
20
0
30
0
9
$PLIMMIN
10
0
20
0
9
$PLIMMAX
10
210
20
297
9
$INSUNITS
70
4
9
$PSVPSCALE
40
1
0
ENDSEC
0
SECTION
2
CLASSES
0
ENDSEC
0
SECTION
2
TABLES
0
TABLE
2
VPORT
5
8
330
0
100
AcDbSymbolTable
70
1
0
VPORT
5
31
330
2
100
AcDbSymbolTableRecord
100
AcDbViewportTableRecord
2
*ACTIVE
70
0
10
0
20
0
11
1
21
1
12
228.460577228
22
87.4253472425
13
0
23
0
14
10
24
10
15
10
25
10
16
0
26
0
36
1
17
0
27
0
37
0
40
217.078786738
41
2.01975683891
42
50
43
0
44
0
50
0
51
0
71
0
72
100
73
1
74
3
75
0
76
1
77
0
78
0
281
0
65
1
110
0
120
0
130
0
111
1
121
0
131
0
112
0
122
1
132
0
79
0
146
0
348
10020
60
7
61
5
292
1
282
1
141
0
142
0
63
250
421
3358443
0
ENDTAB
0
TABLE
2
LTYPE
5
5
330
0
100
AcDbSymbolTable
70
4
0
LTYPE
5
14
330
5
100
AcDbSymbolTableRecord
100
AcDbLinetypeTableRecord
2
ByBlock
70
0
3

72
65
73
0
40
0
0
LTYPE
5
15
330
5
100
AcDbSymbolTableRecord
100
AcDbLinetypeTableRecord
2
ByLayer
70
0
3

72
65
73
0
40
0
0
LTYPE
5
16
330
5
100
AcDbSymbolTableRecord
100
AcDbLinetypeTableRecord
2
Continuous
70
0
3
Solid line
72
65
73
0
40
0
0
LTYPE
5
32
330
5
100
AcDbSymbolTableRecord
100
AcDbLinetypeTableRecord
2
DOT
70
0
3
Dot . . . . . . . . . . . . . . . . . . . . . .
72
65
73
2
40
6.35
49
0
74
0
49
-6.35
74
0
0
LTYPE
5
33
330
5
100
AcDbSymbolTableRecord
100
AcDbLinetypeTableRecord
2
DOT2
70
0
3
Dot (.5x) .....................................
72
65
73
2
40
3.175
49
0
74
0
49
-3.175
74
0
0
LTYPE
5
34
330
5
100
AcDbSymbolTableRecord
100
AcDbLinetypeTableRecord
2
DOTX2
70
0
3
Dot (2x) .  .  .  .  .  .  .  .  .  .  .  .  .
72
65
73
2
40
12.7
49
0
74
0
49
-12.7
74
0
0
LTYPE
5
35
330
5
100
AcDbSymbolTableRecord
100
AcDbLinetypeTableRecord
2
DASHED
70
0
3
Dot . . . . . . . . . . . . . . . . . . . . . .
72
65
73
2
40
19.05
49
12.7
74
0
49
-6.35
74
0
0
LTYPE
5
36
330
5
100
AcDbSymbolTableRecord
100
AcDbLinetypeTableRecord
2
DASHED2
70
0
3
Dashed (.5x) _ _ _ _ _ _ _ _ _ _ _ _ _ _ _ _ _
72
65
73
2
40
9.525
49
6.35
74
0
49
-3.175
74
0
0
LTYPE
5
37
330
5
100
AcDbSymbolTableRecord
100
AcDbLinetypeTableRecord
2
DASHEDX2
70
0
3
Dashed (2x) ____  ____  ____  ____  ____  ___
72
65
73
2
40
38.1
49
25.4
74
0
49
-12.7
74
0
0
LTYPE
5
38
330
5
100
AcDbSymbolTableRecord
100
AcDbLinetypeTableRecord
2
DASHDOT
70
0
3
Dash dot __ . __ . __ . __ . __ . __ . __ . __
72
65
73
4
40
25.4
49
12.7
74
0
49
-6.35
74
0
49
0
74
0
49
-6.35
74
0
0
LTYPE
5
39
330
5
100
AcDbSymbolTableRecord
100
AcDbLinetypeTableRecord
2
DASHDOT2
70
0
3
Dash dot (.5x) _._._._._._._._._._._._._._._.
72
65
73
4
40
12.7
49
6.35
74
0
49
-3.175
74
0
49
0
74
0
49
-3.175
74
0
0
LTYPE
5
3A
330
5
100
AcDbSymbolTableRecord
100
AcDbLinetypeTableRecord
2
DASHDOTX2
70
0
3
Dash dot (2x) ____  .  ____  .  ____  .  ___
72
65
73
4
40
50.8
49
25.4
74
0
49
-12.7
74
0
49
0
74
0
49
-12.7
74
0
0
LTYPE
5
3B
330
5
100
AcDbSymbolTableRecord
100
AcDbLinetypeTableRecord
2
DIVIDE
70
0
3
Divide ____ . . ____ . . ____ . . ____ . . ____
72
65
73
6
40
31.75
49
12.7
74
0
49
-6.35
74
0
49
0
74
0
49
-6.35
74
0
49
0
74
0
49
-6.35
74
0
0
LTYPE
5
3C
330
5
100
AcDbSymbolTableRecord
100
AcDbLinetypeTableRecord
2
DIVIDE2
70
0
3
Divide (.5x) __..__..__..__..__..__..__..__.._
72
65
73
6
40
15.875
49
6.35
74
0
49
-3.175
74
0
49
0
74
0
49
-3.175
74
0
49
0
74
0
49
-3.175
74
0
0
LTYPE
5
3D
330
5
100
AcDbSymbolTableRecord
100
AcDbLinetypeTableRecord
2
DIVIDEX2
70
0
3
Divide (2x) ________  .  .  ________  .  .  _
72
65
73
6
40
63.5
49
25.4
74
0
49
-12.7
74
0
49
0
74
0
49
-12.7
74
0
49
0
74
0
49
-12.7
74
0
0
LTYPE
5
3E
330
5
100
AcDbSymbolTableRecord
100
AcDbLinetypeTableRecord
2
BORDER
70
0
3
Border __ __ . __ __ . __ __ . __ __ . __ __ .
72
65
73
6
40
44.45
49
12.7
74
0
49
-6.35
74
0
49
12.7
74
0
49
-6.35
74
0
49
0
74
0
49
-6.35
74
0
0
LTYPE
5
3F
330
5
100
AcDbSymbolTableRecord
100
AcDbLinetypeTableRecord
2
BORDER2
70
0
3
Border (.5x) __.__.__.__.__.__.__.__.__.__.__.
72
65
73
6
40
22.225
49
6.35
74
0
49
-3.175
74
0
49
6.35
74
0
49
-3.175
74
0
49
0
74
0
49
-3.175
74
0
0
LTYPE
5
40
330
5
100
AcDbSymbolTableRecord
100
AcDbLinetypeTableRecord
2
BORDERX2
70
0
3
Border (2x) ____  ____  .  ____  ____  .  ___
72
65
73
6
40
88.9
49
25.4
74
0
49
-12.7
74
0
49
25.4
74
0
49
-12.7
74
0
49
0
74
0
49
-12.7
74
0
0
LTYPE
5
41
330
5
100
AcDbSymbolTableRecord
100
AcDbLinetypeTableRecord
2
CENTER
70
0
3
Center ____ _ ____ _ ____ _ ____ _ ____ _ ____
72
65
73
4
40
50.8
49
31.75
74
0
49
-6.35
74
0
49
6.35
74
0
49
-6.35
74
0
0
LTYPE
5
42
330
5
100
AcDbSymbolTableRecord
100
AcDbLinetypeTableRecord
2
CENTER2
70
0
3
Center (.5x) ___ _ ___ _ ___ _ ___ _ ___ _ ___
72
65
73
4
40
28.575
49
19.05
74
0
49
-3.175
74
0
49
3.175
74
0
49
-3.175
74
0
0
LTYPE
5
43
330
5
100
AcDbSymbolTableRecord
100
AcDbLinetypeTableRecord
2
CENTERX2
70
0
3
Center (2x) ________  __  ________  __  _____
72
65
73
4
40
101.6
49
63.5
74
0
49
-12.7
74
0
49
12.7
74
0
49
-12.7
74
0
0
ENDTAB
0
TABLE
2
LAYER
5
2
330
0
100
AcDbSymbolTable
70
1
0
LAYER
5
10
330
2
100
AcDbSymbolTableRecord
100
AcDbLayerTableRecord
2
0
70
0
62
7
6
CONTINUOUS
370
0
390
F
0
LAYER
5
44
330
2
100
AcDbSymbolTableRecord
100
AcDbLayerTableRecord
2
Mounting Rails
70
0
62
96
420
32768
6
CONTINUOUS
370
0
390
F
0
LAYER
5
45
330
2
100
AcDbSymbolTableRecord
100
AcDbLayerTableRecord
2
bottom plate
70
0
62
136
420
32896
6
CONTINUOUS
370
-3
390
F
0
LAYER
5
46
330
2
100
AcDbSymbolTableRecord
100
AcDbLayerTableRecord
2
plate mounts
70
0
62
56
420
8421376
6
CONTINUOUS
370
0
390
F
0
LAYER
5
47
330
2
100
AcDbSymbolTableRecord
100
AcDbLayerTableRecord
2
Camera Box
70
0
62
176
420
128
6
CONTINUOUS
370
-3
390
F
0
LAYER
5
48
330
2
100
AcDbSymbolTableRecord
100
AcDbLayerTableRecord
2
Camera Box Holes
70
0
62
5
6
CONTINUOUS
370
0
390
F
0
ENDTAB
0
TABLE
2
STYLE
5
3
330
0
100
AcDbSymbolTable
70
3
0
STYLE
5
49
330
2
100
AcDbSymbolTableRecord
100
AcDbTextStyleTableRecord
2
Standard
70
0
40
0
41
1
50
0
71
0
42
1
3
txt
4

0
ENDTAB
0
TABLE
2
VIEW
5
6
330
0
100
AcDbSymbolTable
70
0
0
ENDTAB
0
TABLE
2
UCS
5
7
330
0
100
AcDbSymbolTable
70
0
0
ENDTAB
0
TABLE
2
APPID
5
9
330
0
100
AcDbSymbolTable
70
1
0
APPID
5
12
330
9
100
AcDbSymbolTableRecord
100
AcDbRegAppTableRecord
2
ACAD
70
0
0
ENDTAB
0
TABLE
2
DIMSTYLE
5
A
330
0
100
AcDbSymbolTable
70
1
100
AcDbDimStyleTable
71
1
0
DIMSTYLE
105
4A
330
A
100
AcDbSymbolTableRecord
100
AcDbDimStyleTableRecord
2
Standard
70
0
40
1
41
2.5
42
0.625
43
0.38
44
1.25
45
0
46
0
47
0
48
0
140
2.5
141
0.09
142
0
143
25.4
144
1
145
0
146
1
147
0.625
148
0
71
0
72
0
73
0
74
1
75
0
76
0
77
0
78
0
79
0
170
0
171
2
172
0
173
0
174
0
175
0
176
0
177
0
178
0
179
0
271
4
272
4
273
2
274
2
275
0
276
0
277
2
278
46
279
0
280
0
281
0
282
0
283
1
284
0
285
0
286
0
288
0
289
3
340
Standard
341

371
-2
372
-2
0
ENDTAB
0
TABLE
2
BLOCK_RECORD
5
1
330
0
100
AcDbSymbolTable
70
2
0
BLOCK_RECORD
5
1F
330
1
100
AcDbSymbolTableRecord
100
AcDbBlockTableRecord
2
*Model_Space
70
0
280
1
281
0
0
BLOCK_RECORD
5
1E
330
1
100
AcDbSymbolTableRecord
100
AcDbBlockTableRecord
2
*Paper_Space
70
0
280
1
281
0
0
ENDTAB
0
ENDSEC
0
SECTION
2
BLOCKS
0
BLOCK
5
20
330
1F
100
AcDbEntity
8
0
100
AcDbBlockBegin
2
*Model_Space
70
0
10
0
20
0
30
0
3
*Model_Space
1

0
ENDBLK
5
21
330
1F
100
AcDbEntity
8
0
100
AcDbBlockEnd
0
BLOCK
5
1C
330
1B
100
AcDbEntity
8
0
100
AcDbBlockBegin
2
*Paper_Space
70
0
10
0
20
0
30
0
3
*Paper_Space
1

0
ENDBLK
5
1D
330
1F
100
AcDbEntity
8
0
100
AcDbBlockEnd
0
ENDSEC
0
SECTION
2
ENTITIES
0
ARC
5
4B
100
AcDbEntity
8
bottom plate
6
ByLayer
62
256
370
-1
100
AcDbCircle
10
99.273156234
20
120.604090631
40
2
100
AcDbArc
50
90
51
180
0
LINE
5
4C
100
AcDbEntity
8
bottom plate
6
ByLayer
62
256
370
-1
100
AcDbLine
10
99.273156234
20
122.604090631
11
151.841698728
21
122.604090631
0
ARC
5
4D
100
AcDbEntity
8
bottom plate
6
ByLayer
62
256
370
-1
100
AcDbCircle
10
151.841698728
20
120.604090631
40
2
100
AcDbArc
50
360
51
90
0
LINE
5
4E
100
AcDbEntity
8
bottom plate
6
ByLayer
62
256
370
-1
100
AcDbLine
10
153.841698728
20
120.604090631
11
153.841698728
21
116.361449944
0
LINE
5
4F
100
AcDbEntity
8
bottom plate
6
ByLayer
62
256
370
-1
100
AcDbLine
10
97.273156234
20
116.361449944
11
97.273156234
21
120.604090631
0
ARC
5
50
100
AcDbEntity
8
bottom plate
6
ByLayer
62
256
370
-1
100
AcDbCircle
10
84.787874859
20
125.675158443
40
4
100
AcDbArc
50
90
51
135
0
ARC
5
51
100
AcDbEntity
8
bottom plate
6
ByLayer
62
256
370
-1
100
AcDbCircle
10
84.787874859
20
6.39593782967
40
4
100
AcDbArc
50
225
51
270
0
LINE
5
52
100
AcDbEntity
8
bottom plate
6
ByLayer
62
256
370
-1
100
AcDbLine
10
166.326980103
20
2.39593782867
11
84.787874859
21
2.39593782867
0
ARC
5
53
100
AcDbEntity
8
bottom plate
6
ByLayer
62
256
370
-1
100
AcDbCircle
10
166.326980103
20
6.39593782967
40
4
100
AcDbArc
50
270
51
315
0
LINE
5
54
100
AcDbEntity
8
bottom plate
6
ByLayer
62
256
370
-1
100
AcDbLine
10
84.787874859
20
129.675158443
11
166.326980103
21
129.675158443
0
ARC
5
55
100
AcDbEntity
8
bottom plate
6
ByLayer
62
256
370
-1
100
AcDbCircle
10
166.326980103
20
125.675158443
40
4
100
AcDbArc
50
45
51
90
0
ARC
5
56
100
AcDbEntity
8
bottom plate
6
ByLayer
62
256
370
-1
100
AcDbCircle
10
151.841698728
20
11.4670056407
40
2
100
AcDbArc
50
270
51
360
0
LINE
5
57
100
AcDbEntity
8
bottom plate
6
ByLayer
62
256
370
-1
100
AcDbLine
10
151.841698728
20
9.46700564167
11
99.273156234
21
9.46700564067
0
ARC
5
58
100
AcDbEntity
8
bottom plate
6
ByLayer
62
256
370
-1
100
AcDbCircle
10
99.273156234
20
11.4670056417
40
2
100
AcDbArc
50
180
51
270
0
LINE
5
59
100
AcDbEntity
8
bottom plate
6
ByLayer
62
256
370
-1
100
AcDbLine
10
97.273156234
20
11.4670056407
11
97.273156234
21
15.7096463277
0
LINE
5
5A
100
AcDbEntity
8
bottom plate
6
ByLayer
62
256
370
-1
100
AcDbLine
10
153.841698728
20
15.7096463287
11
153.841698728
21
11.4670056417
0
LINE
5
5B
100
AcDbEntity
8
bottom plate
6
ByLayer
62
256
370
-1
100
AcDbLine
10
187.924959849
20
109.734032946
11
169.155407227
21
128.503585568
0
LINE
5
5C
100
AcDbEntity
8
bottom plate
6
ByLayer
62
256
370
-1
100
AcDbLine
10
187.924959849
20
22.3370633256
11
169.155407227
21
3.56751070367
0
LINE
5
5D
100
AcDbEntity
8
bottom plate
6
ByLayer
62
256
370
-1
100
AcDbLine
10
63.1898951131
20
109.734032946
11
81.959447735
21
128.503585568
0
LINE
5
5E
100
AcDbEntity
8
bottom plate
6
ByLayer
62
256
370
-1
100
AcDbLine
10
63.1898951131
20
22.3370633256
11
81.959447735
21
3.56751070367
0
ARC
5
5F
100
AcDbEntity
8
bottom plate
6
ByLayer
62
256
370
-1
100
AcDbCircle
10
151.841698728
20
116.361449944
40
2
100
AcDbArc
50
315
51
360
0
LINE
5
60
100
AcDbEntity
8
bottom plate
6
ByLayer
62
256
370
-1
100
AcDbLine
10
140.285349543
20
101.976673633
11
153.255912291
21
114.947236382
0
ARC
5
61
100
AcDbEntity
8
bottom plate
6
ByLayer
62
256
370
-1
100
AcDbCircle
10
138.87113598
20
103.390887196
40
2
100
AcDbArc
50
270
51
315
0
ARC
5
62
100
AcDbEntity
8
bottom plate
6
ByLayer
62
256
370
-1
100
AcDbCircle
10
99.273156234
20
116.361449944
40
2
100
AcDbArc
50
180
51
225
0
LINE
5
63
100
AcDbEntity
8
bottom plate
6
ByLayer
62
256
370
-1
100
AcDbLine
10
97.858942671
20
114.947236382
11
110.829505419
21
101.976673633
0
LINE
5
64
100
AcDbEntity
8
bottom plate
6
ByLayer
62
256
370
-1
100
AcDbLine
10
112.243718983
20
101.390887196
11
138.871135979
21
101.390887196
0
ARC
5
65
100
AcDbEntity
8
bottom plate
6
ByLayer
62
256
370
-1
100
AcDbCircle
10
112.243718982
20
103.390887196
40
2
100
AcDbArc
50
225
51
270
0
ARC
5
66
100
AcDbEntity
8
bottom plate
6
ByLayer
62
256
370
-1
100
AcDbCircle
10
99.273156234
20
15.7096463287
40
2
100
AcDbArc
50
135
51
180
0
LINE
5
67
100
AcDbEntity
8
bottom plate
6
ByLayer
62
256
370
-1
100
AcDbLine
10
110.829505419
20
30.0944226387
11
97.858942671
21
17.1238598907
0
ARC
5
68
100
AcDbEntity
8
bottom plate
6
ByLayer
62
256
370
-1
100
AcDbCircle
10
112.243718982
20
28.6802090767
40
2
100
AcDbArc
50
90
51
135
0
ARC
5
69
100
AcDbEntity
8
bottom plate
6
ByLayer
62
256
370
-1
100
AcDbCircle
10
151.841698728
20
15.7096463277
40
2
100
AcDbArc
50
360
51
45
0
LINE
5
6A
100
AcDbEntity
8
bottom plate
6
ByLayer
62
256
370
-1
100
AcDbLine
10
153.255912291
20
17.1238598907
11
140.285349543
21
30.0944226387
0
LINE
5
6B
100
AcDbEntity
8
bottom plate
6
ByLayer
62
256
370
-1
100
AcDbLine
10
138.87113598
20
30.6802090787
11
112.243718982
21
30.6802090777
0
ARC
5
6C
100
AcDbEntity
8
bottom plate
6
ByLayer
62
256
370
-1
100
AcDbCircle
10
138.87113598
20
28.6802090767
40
2
100
AcDbArc
50
45
51
90
0
LINE
5
6D
100
AcDbEntity
8
bottom plate
6
ByLayer
62
256
370
-1
100
AcDbLine
10
162.43304612
20
106.941675428
11
166.463554773
21
102.911166775
0
LINE
5
6E
100
AcDbEntity
8
bottom plate
6
ByLayer
62
256
370
-1
100
AcDbLine
10
173.039647838
20
117.548277146
11
177.07015649
21
113.517768493
0
CIRCLE
5
6F
100
AcDbEntity
8
bottom plate
6
ByLayer
62
256
370
-1
100
AcDbCircle
10
167.983834352
20
108.461955008
40
1.5
0
LINE
5
70
100
AcDbEntity
8
bottom plate
6
ByLayer
62
256
370
-1
100
AcDbLine
10
166.463554773
20
102.911166775
11
155.856953055
21
92.3045650567
0
LINE
5
71
100
AcDbEntity
8
bottom plate
6
ByLayer
62
256
370
-1
100
AcDbLine
10
162.43304612
20
106.941675428
11
151.826444402
21
96.3350737097
0
LINE
5
72
100
AcDbEntity
8
bottom plate
6
ByLayer
62
256
370
-1
100
AcDbLine
10
177.07015649
20
113.517768493
11
173.534622585
21
109.982234587
0
LINE
5
73
100
AcDbEntity
8
bottom plate
6
ByLayer
62
256
370
-1
100
AcDbLine
10
173.039647838
20
117.548277146
11
169.504113932
21
114.01274324
0
LINE
5
74
100
AcDbEntity
8
bottom plate
6
ByLayer
62
256
370
-1
100
AcDbLine
10
169.504113932
20
114.01274324
11
173.534622585
21
109.982234587
0
LINE
5
75
100
AcDbEntity
8
bottom plate
6
ByLayer
62
256
370
-1
100
AcDbLine
10
151.826444402
20
96.3350737097
11
155.856953055
21
92.3045650567
0
LINE
5
76
100
AcDbEntity
8
bottom plate
6
ByLayer
62
256
370
-1
100
AcDbLine
10
84.651300189
20
102.911166775
11
88.681808842
21
106.941675428
0
LINE
5
77
100
AcDbEntity
8
bottom plate
6
ByLayer
62
256
370
-1
100
AcDbLine
10
74.044698472
20
113.517768493
11
78.075207124
21
117.548277146
0
CIRCLE
5
78
100
AcDbEntity
8
bottom plate
6
ByLayer
62
256
370
-1
100
AcDbCircle
10
83.13102061
20
108.461955008
40
1.5
0
LINE
5
79
100
AcDbEntity
8
bottom plate
6
ByLayer
62
256
370
-1
100
AcDbLine
10
88.681808842
20
106.941675428
11
99.28841056
21
96.3350737097
0
LINE
5
7A
100
AcDbEntity
8
bottom plate
6
ByLayer
62
256
370
-1
100
AcDbLine
10
84.651300189
20
102.911166775
11
95.257901907
21
92.3045650567
0
LINE
5
7B
100
AcDbEntity
8
bottom plate
6
ByLayer
62
256
370
-1
100
AcDbLine
10
78.075207124
20
117.548277146
11
81.61074103
21
114.01274324
0
LINE
5
7C
100
AcDbEntity
8
bottom plate
6
ByLayer
62
256
370
-1
100
AcDbLine
10
74.044698472
20
113.517768493
11
77.580232377
21
109.982234587
0
LINE
5
7D
100
AcDbEntity
8
bottom plate
6
ByLayer
62
256
370
-1
100
AcDbLine
10
77.580232377
20
109.982234587
11
81.61074103
21
114.01274324
0
LINE
5
7E
100
AcDbEntity
8
bottom plate
6
ByLayer
62
256
370
-1
100
AcDbLine
10
95.257901907
20
92.3045650567
11
99.28841056
21
96.3350737097
0
LINE
5
7F
100
AcDbEntity
8
bottom plate
6
ByLayer
62
256
370
-1
100
AcDbLine
10
88.681808842
20
25.1294208457
11
84.651300189
21
29.1599294967
0
LINE
5
80
100
AcDbEntity
8
bottom plate
6
ByLayer
62
256
370
-1
100
AcDbLine
10
78.075207124
20
14.5228191277
11
74.044698472
21
18.5533277797
0
CIRCLE
5
81
100
AcDbEntity
8
bottom plate
6
ByLayer
62
256
370
-1
100
AcDbCircle
10
83.13102061
20
23.6091412647
40
1.5
0
LINE
5
82
100
AcDbEntity
8
bottom plate
6
ByLayer
62
256
370
-1
100
AcDbLine
10
84.651300189
20
29.1599294967
11
95.257901907
21
39.7665312147
0
LINE
5
83
100
AcDbEntity
8
bottom plate
6
ByLayer
62
256
370
-1
100
AcDbLine
10
88.681808842
20
25.1294208457
11
99.28841056
21
35.7360225627
0
LINE
5
84
100
AcDbEntity
8
bottom plate
6
ByLayer
62
256
370
-1
100
AcDbLine
10
74.044698472
20
18.5533277797
11
77.580232377
21
22.0888616857
0
LINE
5
85
100
AcDbEntity
8
bottom plate
6
ByLayer
62
256
370
-1
100
AcDbLine
10
78.075207124
20
14.5228191277
11
81.61074103
21
18.0583530337
0
LINE
5
86
100
AcDbEntity
8
bottom plate
6
ByLayer
62
256
370
-1
100
AcDbLine
10
81.61074103
20
18.0583530337
11
77.580232377
21
22.0888616857
0
LINE
5
87
100
AcDbEntity
8
bottom plate
6
ByLayer
62
256
370
-1
100
AcDbLine
10
99.28841056
20
35.7360225627
11
95.257901907
21
39.7665312147
0
LINE
5
88
100
AcDbEntity
8
bottom plate
6
ByLayer
62
256
370
-1
100
AcDbLine
10
166.463554773
20
29.1599294977
11
162.43304612
21
25.1294208447
0
LINE
5
89
100
AcDbEntity
8
bottom plate
6
ByLayer
62
256
370
-1
100
AcDbLine
10
177.07015649
20
18.5533277797
11
173.039647838
21
14.5228191267
0
CIRCLE
5
8A
100
AcDbEntity
8
bottom plate
6
ByLayer
62
256
370
-1
100
AcDbCircle
10
167.983834352
20
23.6091412647
40
1.5
0
LINE
5
8B
100
AcDbEntity
8
bottom plate
6
ByLayer
62
256
370
-1
100
AcDbLine
10
162.43304612
20
25.1294208447
11
151.826444402
21
35.7360225627
0
LINE
5
8C
100
AcDbEntity
8
bottom plate
6
ByLayer
62
256
370
-1
100
AcDbLine
10
166.463554773
20
29.1599294977
11
155.856953055
21
39.7665312147
0
LINE
5
8D
100
AcDbEntity
8
bottom plate
6
ByLayer
62
256
370
-1
100
AcDbLine
10
173.039647838
20
14.5228191267
11
169.504113932
21
18.0583530327
0
LINE
5
8E
100
AcDbEntity
8
bottom plate
6
ByLayer
62
256
370
-1
100
AcDbLine
10
177.07015649
20
18.5533277797
11
173.534622585
21
22.0888616857
0
LINE
5
8F
100
AcDbEntity
8
bottom plate
6
ByLayer
62
256
370
-1
100
AcDbLine
10
173.534622585
20
22.0888616857
11
169.504113932
21
18.0583530327
0
LINE
5
90
100
AcDbEntity
8
bottom plate
6
ByLayer
62
256
370
-1
100
AcDbLine
10
155.856953055
20
39.7665312147
11
151.826444402
21
35.7360225627
0
CIRCLE
5
91
100
AcDbEntity
8
bottom plate
6
ByLayer
62
256
370
-1
100
AcDbCircle
10
153.488145338
20
26.7911217807
40
1.5
0
CIRCLE
5
92
100
AcDbEntity
8
bottom plate
6
ByLayer
62
256
370
-1
100
AcDbCircle
10
164.801853837
20
38.1048302797
40
1.5
0
CIRCLE
5
93
100
AcDbEntity
8
bottom plate
6
ByLayer
62
256
370
-1
100
AcDbCircle
10
164.801853837
20
93.9662659937
40
1.5
0
CIRCLE
5
94
100
AcDbEntity
8
bottom plate
6
ByLayer
62
256
370
-1
100
AcDbCircle
10
153.488145338
20
105.279974493
40
1.5
0
CIRCLE
5
95
100
AcDbEntity
8
bottom plate
6
ByLayer
62
256
370
-1
100
AcDbCircle
10
97.626709624
20
105.279974493
40
1.5
0
CIRCLE
5
96
100
AcDbEntity
8
bottom plate
6
ByLayer
62
256
370
-1
100
AcDbCircle
10
86.313001125
20
93.9662659937
40
1.5
0
CIRCLE
5
97
100
AcDbEntity
8
bottom plate
6
ByLayer
62
256
370
-1
100
AcDbCircle
10
86.313001125
20
38.1048302797
40
1.5
0
CIRCLE
5
98
100
AcDbEntity
8
bottom plate
6
ByLayer
62
256
370
-1
100
AcDbCircle
10
97.626709624
20
26.7911217807
40
1.5
0
LINE
5
99
100
AcDbEntity
8
bottom plate
6
ByLayer
62
256
370
-1
100
AcDbLine
10
149.197037788
20
91.5355481357
11
139.197037788
21
91.5355481357
0
LINE
5
9A
100
AcDbEntity
8
bottom plate
6
ByLayer
62
256
370
-1
100
AcDbLine
10
149.197037788
20
88.5355481357
11
139.197037788
21
88.5355481357
0
LINE
5
9B
100
AcDbEntity
8
bottom plate
6
ByLayer
62
256
370
-1
100
AcDbLine
10
149.197037788
20
91.5355481357
11
149.197037788
21
88.5355481357
0
LINE
5
9C
100
AcDbEntity
8
bottom plate
6
ByLayer
62
256
370
-1
100
AcDbLine
10
139.197037788
20
91.5355481357
11
139.197037788
21
88.5355481357
0
ARC
5
9D
100
AcDbEntity
8
bottom plate
6
ByLayer
62
256
370
-1
100
AcDbCircle
10
194.996027661
20
116.805100758
40
10
100
AcDbArc
50
225
51
270
0
LINE
5
9E
100
AcDbEntity
8
bottom plate
6
ByLayer
62
256
370
-1
100
AcDbLine
10
149.197037788
20
40.5355481357
11
139.197037788
21
40.5355481357
0
LINE
5
9F
100
AcDbEntity
8
bottom plate
6
ByLayer
62
256
370
-1
100
AcDbLine
10
149.197037788
20
43.5355481357
11
139.197037788
21
43.5355481357
0
LINE
5
A0
100
AcDbEntity
8
bottom plate
6
ByLayer
62
256
370
-1
100
AcDbLine
10
149.197037788
20
40.5355481357
11
149.197037788
21
43.5355481357
0
LINE
5
A1
100
AcDbEntity
8
bottom plate
6
ByLayer
62
256
370
-1
100
AcDbLine
10
139.197037788
20
40.5355481357
11
139.197037788
21
43.5355481357
0
ARC
5
A2
100
AcDbEntity
8
bottom plate
6
ByLayer
62
256
370
-1
100
AcDbCircle
10
194.996027661
20
15.2659955137
40
10
100
AcDbArc
50
90
51
135
0
ARC
5
A3
100
AcDbEntity
8
bottom plate
6
ByLayer
62
256
370
-1
100
AcDbCircle
10
56.1188273013
20
116.805100758
40
10
100
AcDbArc
50
270
51
315
0
ARC
5
A4
100
AcDbEntity
8
bottom plate
6
ByLayer
62
256
370
-1
100
AcDbCircle
10
56.1188273013
20
15.2659955137
40
10
100
AcDbArc
50
45
51
90
0
ARC
5
A5
100
AcDbEntity
8
bottom plate
6
ByLayer
62
256
370
-1
100
AcDbCircle
10
133.489931008
20
50.0355481367
40
1
100
AcDbArc
50
270
51
360
0
LINE
5
A6
100
AcDbEntity
8
bottom plate
6
ByLayer
62
256
370
-1
100
AcDbLine
10
134.489931007
20
50.0355481357
11
134.489931007
21
50.0355481357
0
ARC
5
A7
100
AcDbEntity
8
bottom plate
6
ByLayer
62
256
370
-1
100
AcDbCircle
10
133.489931008
20
50.0355481367
40
1
100
AcDbArc
50
360
51
90
0
LINE
5
A8
100
AcDbEntity
8
bottom plate
6
ByLayer
62
256
370
-1
100
AcDbLine
10
118.632066631
20
50.0355481367
11
118.632066631
21
50.0355481367
0
ARC
5
A9
100
AcDbEntity
8
bottom plate
6
ByLayer
62
256
370
-1
100
AcDbCircle
10
107.624923954
20
50.0355481367
40
1
100
AcDbArc
50
180
51
270
0
ARC
5
AA
100
AcDbEntity
8
bottom plate
6
ByLayer
62
256
370
-1
100
AcDbCircle
10
107.624923954
20
50.0355481367
40
1
100
AcDbArc
50
90
51
180
0
LINE
5
AB
100
AcDbEntity
8
bottom plate
6
ByLayer
62
256
370
-1
100
AcDbLine
10
107.624923954
20
51.0355481367
11
133.489931007
21
51.0355481367
0
LINE
5
AC
100
AcDbEntity
8
bottom plate
6
ByLayer
62
256
370
-1
100
AcDbLine
10
107.624968675
20
49.0355481357
11
133.489931007
21
49.0355481357
0
LINE
5
AD
100
AcDbEntity
8
bottom plate
6
ByLayer
62
256
370
-1
100
AcDbLine
10
111.632066628
20
43.035548129
11
111.632066628
21
43.035548129
0
ARC
5
AE
100
AcDbEntity
8
bottom plate
6
ByLayer
62
256
370
-1
100
AcDbCircle
10
133.489931006
20
43.035548132
40
1
100
AcDbArc
50
269.999999994
51
359.999999994
0
LINE
5
AF
100
AcDbEntity
8
bottom plate
6
ByLayer
62
256
370
-1
100
AcDbLine
10
134.489931005
20
43.0355481309
11
134.489931005
21
43.0355481309
0
ARC
5
B0
100
AcDbEntity
8
bottom plate
6
ByLayer
62
256
370
-1
100
AcDbCircle
10
133.489931006
20
43.035548132
40
1
100
AcDbArc
50
359.999999994
51
89.9999999941
0
LINE
5
B1
100
AcDbEntity
8
bottom plate
6
ByLayer
62
256
370
-1
100
AcDbLine
10
118.632066629
20
43.0355481336
11
118.632066629
21
43.0355481336
0
ARC
5
B2
100
AcDbEntity
8
bottom plate
6
ByLayer
62
256
370
-1
100
AcDbCircle
10
107.624923953
20
43.0355481347
40
1
100
AcDbArc
50
179.999999994
51
269.999999994
0
ARC
5
B3
100
AcDbEntity
8
bottom plate
6
ByLayer
62
256
370
-1
100
AcDbCircle
10
107.624923953
20
43.0355481347
40
1
100
AcDbArc
50
89.9999999941
51
179.999999994
0
LINE
5
B4
100
AcDbEntity
8
bottom plate
6
ByLayer
62
256
370
-1
100
AcDbLine
10
107.624923953
20
44.0355481347
11
133.489931005
21
44.035548132
0
LINE
5
B5
100
AcDbEntity
8
bottom plate
6
ByLayer
62
256
370
-1
100
AcDbLine
10
107.624968674
20
42.0355481337
11
133.489931005
21
42.035548131
0
ARC
5
B6
100
AcDbEntity
8
bottom plate
6
ByLayer
62
256
370
-1
100
AcDbCircle
10
133.489931008
20
82.0355481347
40
1
100
AcDbArc
50
360
51
90
0
LINE
5
B7
100
AcDbEntity
8
bottom plate
6
ByLayer
62
256
370
-1
100
AcDbLine
10
134.489931007
20
82.0355481357
11
134.489931007
21
82.0355481357
0
ARC
5
B8
100
AcDbEntity
8
bottom plate
6
ByLayer
62
256
370
-1
100
AcDbCircle
10
133.489931008
20
82.0355481347
40
1
100
AcDbArc
50
270
51
360
0
LINE
5
B9
100
AcDbEntity
8
bottom plate
6
ByLayer
62
256
370
-1
100
AcDbLine
10
118.632066631
20
82.0355481347
11
118.632066631
21
82.0355481347
0
ARC
5
BA
100
AcDbEntity
8
bottom plate
6
ByLayer
62
256
370
-1
100
AcDbCircle
10
107.624923954
20
82.0355481347
40
1
100
AcDbArc
50
90
51
180
0
ARC
5
BB
100
AcDbEntity
8
bottom plate
6
ByLayer
62
256
370
-1
100
AcDbCircle
10
107.624923954
20
82.0355481347
40
1
100
AcDbArc
50
180
51
270
0
LINE
5
BC
100
AcDbEntity
8
bottom plate
6
ByLayer
62
256
370
-1
100
AcDbLine
10
107.624923954
20
81.0355481347
11
133.489931007
21
81.0355481347
0
LINE
5
BD
100
AcDbEntity
8
bottom plate
6
ByLayer
62
256
370
-1
100
AcDbLine
10
107.624968675
20
83.0355481357
11
133.489931007
21
83.0355481357
0
LINE
5
BE
100
AcDbEntity
8
bottom plate
6
ByLayer
62
256
370
-1
100
AcDbLine
10
111.632066628
20
89.0355481424
11
111.632066628
21
89.0355481424
0
ARC
5
BF
100
AcDbEntity
8
bottom plate
6
ByLayer
62
256
370
-1
100
AcDbCircle
10
133.489931006
20
89.0355481393
40
1
100
AcDbArc
50
5.94198858922e-09
51
90.0000000059
0
LINE
5
C0
100
AcDbEntity
8
bottom plate
6
ByLayer
62
256
370
-1
100
AcDbLine
10
134.489931005
20
89.0355481405
11
134.489931005
21
89.0355481405
0
ARC
5
C1
100
AcDbEntity
8
bottom plate
6
ByLayer
62
256
370
-1
100
AcDbCircle
10
133.489931006
20
89.0355481393
40
1
100
AcDbArc
50
270.000000006
51
5.94198858922e-09
0
LINE
5
C2
100
AcDbEntity
8
bottom plate
6
ByLayer
62
256
370
-1
100
AcDbLine
10
118.632066629
20
89.0355481378
11
118.632066629
21
89.0355481378
0
ARC
5
C3
100
AcDbEntity
8
bottom plate
6
ByLayer
62
256
370
-1
100
AcDbCircle
10
107.624923953
20
89.0355481367
40
1
100
AcDbArc
50
90.0000000059
51
180.000000006
0
ARC
5
C4
100
AcDbEntity
8
bottom plate
6
ByLayer
62
256
370
-1
100
AcDbCircle
10
107.624923953
20
89.0355481367
40
1
100
AcDbArc
50
180.000000006
51
270.000000006
0
LINE
5
C5
100
AcDbEntity
8
bottom plate
6
ByLayer
62
256
370
-1
100
AcDbLine
10
107.624923953
20
88.0355481367
11
133.489931005
21
88.0355481393
0
LINE
5
C6
100
AcDbEntity
8
bottom plate
6
ByLayer
62
256
370
-1
100
AcDbLine
10
107.624968674
20
90.0355481377
11
133.489931005
21
90.0355481403
0
CIRCLE
5
C7
100
AcDbEntity
8
plate mounts
6
ByLayer
62
256
370
-1
100
AcDbCircle
10
134.47916945
20
109.07473309
40
1.5
0
CIRCLE
5
C8
100
AcDbEntity
8
plate mounts
6
ByLayer
62
256
370
-1
100
AcDbCircle
10
118.47916945
20
109.07473309
40
1.5
0
LINE
5
C9
100
AcDbEntity
8
plate mounts
6
ByLayer
62
256
370
-1
100
AcDbLine
10
134.47916945
20
106.07473309
11
118.47916945
21
106.07473309
0
LINE
5
CA
100
AcDbEntity
8
plate mounts
6
ByLayer
62
256
370
-1
100
AcDbLine
10
134.47916945
20
112.07473309
11
118.47916945
21
112.07473309
0
ARC
5
CB
100
AcDbEntity
8
plate mounts
6
ByLayer
62
256
370
-1
100
AcDbCircle
10
134.47916945
20
109.07473309
40
3
100
AcDbArc
50
270
51
90
0
ARC
5
CC
100
AcDbEntity
8
plate mounts
6
ByLayer
62
256
370
-1
100
AcDbCircle
10
118.47916945
20
109.07473309
40
3
100
AcDbArc
50
90
51
270
0
CIRCLE
5
CD
100
AcDbEntity
8
plate mounts
6
ByLayer
62
256
370
-1
100
AcDbCircle
10
134.47916945
20
116.521572463
40
1.5
0
CIRCLE
5
CE
100
AcDbEntity
8
plate mounts
6
ByLayer
62
256
370
-1
100
AcDbCircle
10
118.47916945
20
116.521572463
40
1.5
0
LINE
5
CF
100
AcDbEntity
8
plate mounts
6
ByLayer
62
256
370
-1
100
AcDbLine
10
134.47916945
20
113.521572463
11
118.47916945
21
113.521572463
0
LINE
5
D0
100
AcDbEntity
8
plate mounts
6
ByLayer
62
256
370
-1
100
AcDbLine
10
134.47916945
20
119.521572463
11
118.47916945
21
119.521572463
0
ARC
5
D1
100
AcDbEntity
8
plate mounts
6
ByLayer
62
256
370
-1
100
AcDbCircle
10
134.47916945
20
116.521572463
40
3
100
AcDbArc
50
270
51
90
0
ARC
5
D2
100
AcDbEntity
8
plate mounts
6
ByLayer
62
256
370
-1
100
AcDbCircle
10
118.47916945
20
116.521572463
40
3
100
AcDbArc
50
90
51
270
0
CIRCLE
5
D3
100
AcDbEntity
8
plate mounts
6
ByLayer
62
256
370
-1
100
AcDbCircle
10
134.857696095
20
16.3357048763
40
1.5
0
CIRCLE
5
D4
100
AcDbEntity
8
plate mounts
6
ByLayer
62
256
370
-1
100
AcDbCircle
10
118.857696095
20
16.3357048763
40
1.5
0
LINE
5
D5
100
AcDbEntity
8
plate mounts
6
ByLayer
62
256
370
-1
100
AcDbLine
10
134.857696095
20
13.3357048763
11
118.857696095
21
13.3357048763
0
LINE
5
D6
100
AcDbEntity
8
plate mounts
6
ByLayer
62
256
370
-1
100
AcDbLine
10
134.857696095
20
19.3357048763
11
118.857696095
21
19.3357048763
0
ARC
5
D7
100
AcDbEntity
8
plate mounts
6
ByLayer
62
256
370
-1
100
AcDbCircle
10
134.857696095
20
16.3357048763
40
3
100
AcDbArc
50
270
51
90
0
ARC
5
D8
100
AcDbEntity
8
plate mounts
6
ByLayer
62
256
370
-1
100
AcDbCircle
10
118.857696095
20
16.3357048763
40
3
100
AcDbArc
50
90
51
270
0
CIRCLE
5
D9
100
AcDbEntity
8
plate mounts
6
ByLayer
62
256
370
-1
100
AcDbCircle
10
134.857696095
20
23.7825442493
40
1.5
0
CIRCLE
5
DA
100
AcDbEntity
8
plate mounts
6
ByLayer
62
256
370
-1
100
AcDbCircle
10
118.857696095
20
23.7825442493
40
1.5
0
LINE
5
DB
100
AcDbEntity
8
plate mounts
6
ByLayer
62
256
370
-1
100
AcDbLine
10
134.857696095
20
20.7825442493
11
118.857696095
21
20.7825442493
0
LINE
5
DC
100
AcDbEntity
8
plate mounts
6
ByLayer
62
256
370
-1
100
AcDbLine
10
134.857696095
20
26.7825442497
11
118.857696095
21
26.7825442497
0
ARC
5
DD
100
AcDbEntity
8
plate mounts
6
ByLayer
62
256
370
-1
100
AcDbCircle
10
134.857696095
20
23.7825442493
40
3
100
AcDbArc
50
270
51
90
0
ARC
5
DE
100
AcDbEntity
8
plate mounts
6
ByLayer
62
256
370
-1
100
AcDbCircle
10
118.857696095
20
23.7825442493
40
3
100
AcDbArc
50
90
51
270
0
LINE
5
DF
100
AcDbEntity
8
bottom plate
6
ByLayer
62
256
370
-1
100
AcDbLine
10
193.197037788
20
88.5355481357
11
193.197037788
21
91.5355481357
0
LINE
5
E0
100
AcDbEntity
8
bottom plate
6
ByLayer
62
256
370
-1
100
AcDbLine
10
205.197037788
20
88.5355481357
11
205.197037788
21
91.5355481357
0
LINE
5
E1
100
AcDbEntity
8
bottom plate
6
ByLayer
62
256
370
-1
100
AcDbLine
10
205.197037788
20
88.5355481357
11
193.197037788
21
88.5355481357
0
LINE
5
E2
100
AcDbEntity
8
bottom plate
6
ByLayer
62
256
370
-1
100
AcDbLine
10
193.197037788
20
91.5355481357
11
205.197037788
21
91.5355481357
0
CIRCLE
5
E3
100
AcDbEntity
8
bottom plate
6
ByLayer
62
256
370
-1
100
AcDbCircle
10
199.197037788
20
98.0355481357
40
1.5
0
CIRCLE
5
E4
100
AcDbEntity
8
bottom plate
6
ByLayer
62
256
370
-1
100
AcDbCircle
10
199.197037788
20
82.0355481357
40
1.5
0
ARC
5
E5
100
AcDbEntity
8
bottom plate
6
ByLayer
62
256
370
-1
100
AcDbCircle
10
202.711756414
20
100.805100758
40
6
100
AcDbArc
50
45
51
90
0
LINE
5
E6
100
AcDbEntity
8
bottom plate
6
ByLayer
62
256
370
-1
100
AcDbLine
10
206.954397101
20
105.047741445
11
212.439678475
21
99.5624600706
0
ARC
5
E7
100
AcDbEntity
8
bottom plate
6
ByLayer
62
256
370
-1
100
AcDbCircle
10
208.197037788
20
95.3198193835
40
6
100
AcDbArc
50
0
51
45
0
LINE
5
E8
100
AcDbEntity
8
bottom plate
6
ByLayer
62
256
370
-1
100
AcDbLine
10
193.197037788
20
43.5355481357
11
193.197037788
21
40.5355481357
0
LINE
5
E9
100
AcDbEntity
8
bottom plate
6
ByLayer
62
256
370
-1
100
AcDbLine
10
205.197037788
20
43.5355481357
11
205.197037788
21
40.5355481357
0
LINE
5
EA
100
AcDbEntity
8
bottom plate
6
ByLayer
62
256
370
-1
100
AcDbLine
10
205.197037788
20
43.5355481357
11
193.197037788
21
43.5355481357
0
LINE
5
EB
100
AcDbEntity
8
bottom plate
6
ByLayer
62
256
370
-1
100
AcDbLine
10
193.197037788
20
40.5355481357
11
205.197037788
21
40.5355481357
0
CIRCLE
5
EC
100
AcDbEntity
8
bottom plate
6
ByLayer
62
256
370
-1
100
AcDbCircle
10
199.197037788
20
34.0355481357
40
1.5
0
CIRCLE
5
ED
100
AcDbEntity
8
bottom plate
6
ByLayer
62
256
370
-1
100
AcDbCircle
10
199.197037788
20
50.0355481357
40
1.5
0
ARC
5
EE
100
AcDbEntity
8
bottom plate
6
ByLayer
62
256
370
-1
100
AcDbCircle
10
202.711756414
20
31.2659955137
40
6
100
AcDbArc
50
270
51
315
0
LINE
5
EF
100
AcDbEntity
8
bottom plate
6
ByLayer
62
256
370
-1
100
AcDbLine
10
206.954397101
20
27.0233548266
11
212.439678475
21
32.5086362008
0
ARC
5
F0
100
AcDbEntity
8
bottom plate
6
ByLayer
62
256
370
-1
100
AcDbCircle
10
208.197037788
20
36.7512768879
40
6
100
AcDbArc
50
315
51
0
0
LINE
5
F1
100
AcDbEntity
8
bottom plate
6
ByLayer
62
256
370
-1
100
AcDbLine
10
214.197037788
20
95.3198193835
11
214.197037788
21
36.7512768879
0
ARC
5
F2
100
AcDbEntity
8
bottom plate
6
ByLayer
62
256
370
-1
100
AcDbCircle
10
184.711756414
20
57.0355481367
40
6
100
AcDbArc
50
270
51
315
0
LINE
5
F3
100
AcDbEntity
8
bottom plate
6
ByLayer
62
256
370
-1
100
AcDbLine
10
194.439678475
20
58.2781888238
11
188.954397101
21
52.7929074496
0
ARC
5
F4
100
AcDbEntity
8
bottom plate
6
ByLayer
62
256
370
-1
100
AcDbCircle
10
190.197037788
20
62.5208295109
40
6
100
AcDbArc
50
315
51
0
0
LINE
5
F5
100
AcDbEntity
8
bottom plate
6
ByLayer
62
256
370
-1
100
AcDbLine
10
196.197037788
20
69.5502667625
11
196.197037788
21
62.5208295109
0
ARC
5
F6
100
AcDbEntity
8
bottom plate
6
ByLayer
62
256
370
-1
100
AcDbCircle
10
190.197037788
20
69.5502667625
40
6
100
AcDbArc
50
0
51
45
0
LINE
5
F7
100
AcDbEntity
8
bottom plate
6
ByLayer
62
256
370
-1
100
AcDbLine
10
188.954397101
20
79.2781888238
11
194.439678475
21
73.7929074495
0
ARC
5
F8
100
AcDbEntity
8
bottom plate
6
ByLayer
62
256
370
-1
100
AcDbCircle
10
184.711756414
20
75.0355481367
40
6
100
AcDbArc
50
45
51
90
0
CIRCLE
5
F9
100
AcDbEntity
8
plate mounts
6
ByLayer
62
256
370
-1
100
AcDbCircle
10
177.693119293
20
62.1374290144
40
1.5
0
CIRCLE
5
FA
100
AcDbEntity
8
plate mounts
6
ByLayer
62
256
370
-1
100
AcDbCircle
10
161.693119293
20
62.1374290144
40
1.5
0
LINE
5
FB
100
AcDbEntity
8
plate mounts
6
ByLayer
62
256
370
-1
100
AcDbLine
10
177.693119293
20
59.1374290144
11
161.693119293
21
59.1374290144
0
LINE
5
FC
100
AcDbEntity
8
plate mounts
6
ByLayer
62
256
370
-1
100
AcDbLine
10
177.693119293
20
65.1374290144
11
161.693119293
21
65.1374290144
0
ARC
5
FD
100
AcDbEntity
8
plate mounts
6
ByLayer
62
256
370
-1
100
AcDbCircle
10
177.693119293
20
62.1374290144
40
3
100
AcDbArc
50
270
51
90
0
ARC
5
FE
100
AcDbEntity
8
plate mounts
6
ByLayer
62
256
370
-1
100
AcDbCircle
10
161.693119293
20
62.1374290144
40
3
100
AcDbArc
50
90
51
270
0
CIRCLE
5
FF
100
AcDbEntity
8
plate mounts
6
ByLayer
62
256
370
-1
100
AcDbCircle
10
177.693119293
20
69.5842683874
40
1.5
0
CIRCLE
5
100
100
AcDbEntity
8
plate mounts
6
ByLayer
62
256
370
-1
100
AcDbCircle
10
161.693119293
20
69.5842683874
40
1.5
0
LINE
5
101
100
AcDbEntity
8
plate mounts
6
ByLayer
62
256
370
-1
100
AcDbLine
10
177.693119293
20
66.5842683874
11
161.693119293
21
66.5842683874
0
LINE
5
102
100
AcDbEntity
8
plate mounts
6
ByLayer
62
256
370
-1
100
AcDbLine
10
177.693119293
20
72.5842683877
11
161.693119293
21
72.5842683877
0
ARC
5
103
100
AcDbEntity
8
plate mounts
6
ByLayer
62
256
370
-1
100
AcDbCircle
10
177.693119293
20
69.5842683874
40
3
100
AcDbArc
50
270
51
90
0
ARC
5
104
100
AcDbEntity
8
plate mounts
6
ByLayer
62
256
370
-1
100
AcDbCircle
10
161.693119293
20
69.5842683874
40
3
100
AcDbArc
50
90
51
270
0
LINE
5
105
100
AcDbEntity
8
bottom plate
6
ByLayer
62
256
370
-1
100
AcDbLine
10
194.996027661
20
106.805100758
11
202.711756414
21
106.805100758
0
LINE
5
106
100
AcDbEntity
8
bottom plate
6
ByLayer
62
256
370
-1
100
AcDbLine
10
194.996027661
20
25.2659955137
11
202.711756414
21
25.2659955137
0
ARC
5
107
100
AcDbEntity
8
bottom plate
6
ByLayer
62
256
370
-1
100
AcDbCircle
10
33.399967803
20
100.805100758
40
6
100
AcDbArc
50
90
51
135
0
LINE
5
108
100
AcDbEntity
8
bottom plate
6
ByLayer
62
256
370
-1
100
AcDbLine
10
29.1573271159
20
105.047741445
11
23.6720457416
21
99.5624600706
0
ARC
5
109
100
AcDbEntity
8
bottom plate
6
ByLayer
62
256
370
-1
100
AcDbCircle
10
27.9146864288
20
95.3198193835
40
6
100
AcDbArc
50
135
51
180
0
ARC
5
10A
100
AcDbEntity
8
bottom plate
6
ByLayer
62
256
370
-1
100
AcDbCircle
10
33.399967803
20
31.2659955137
40
6
100
AcDbArc
50
225
51
270
0
LINE
5
10B
100
AcDbEntity
8
bottom plate
6
ByLayer
62
256
370
-1
100
AcDbLine
10
29.1573271159
20
27.0233548266
11
23.6720457416
21
32.5086362008
0
ARC
5
10C
100
AcDbEntity
8
bottom plate
6
ByLayer
62
256
370
-1
100
AcDbCircle
10
27.9146864288
20
36.7512768879
40
6
100
AcDbArc
50
180
51
225
0
LINE
5
10D
100
AcDbEntity
8
bottom plate
6
ByLayer
62
256
370
-1
100
AcDbLine
10
21.9146864288
20
95.3198193835
11
21.9146864288
21
36.7512768879
0
LINE
5
10E
100
AcDbEntity
8
bottom plate
6
ByLayer
62
256
370
-1
100
AcDbLine
10
33.3999682798
20
106.805100758
11
56.1188273013
21
106.805100758
0
LINE
5
10F
100
AcDbEntity
8
bottom plate
6
ByLayer
62
256
370
-1
100
AcDbLine
10
33.399967803
20
25.2659955137
11
56.1188273013
21
25.2659955137
0
LINE
5
110
100
AcDbEntity
8
bottom plate
6
ByLayer
62
256
370
-1
100
AcDbLine
10
67.2694605938
20
50.0355481357
11
67.2694605938
21
50.0355481357
0
LINE
5
111
100
AcDbEntity
8
bottom plate
6
ByLayer
62
256
370
-1
100
AcDbLine
10
51.4115962178
20
50.0355481367
11
51.4115962178
21
50.0355481367
0
LINE
5
112
100
AcDbEntity
8
bottom plate
6
ByLayer
62
256
370
-1
100
AcDbLine
10
44.4115962178
20
43.0355481367
11
44.4115962178
21
43.0355481367
0
ARC
5
113
100
AcDbEntity
8
bottom plate
6
ByLayer
62
256
370
-1
100
AcDbCircle
10
35.4115962178
20
43.0355481367
40
1
100
AcDbArc
50
180
51
270
0
ARC
5
114
100
AcDbEntity
8
bottom plate
6
ByLayer
62
256
370
-1
100
AcDbCircle
10
35.4115962178
20
43.0355481367
40
1
100
AcDbArc
50
90
51
180
0
ARC
5
115
100
AcDbEntity
8
bottom plate
6
ByLayer
62
256
370
-1
100
AcDbCircle
10
71.2623179182
20
43.0355481367
40
1
100
AcDbArc
50
270
51
0
0
ARC
5
116
100
AcDbEntity
8
bottom plate
6
ByLayer
62
256
370
-1
100
AcDbCircle
10
71.2623179182
20
43.0355481367
40
1
100
AcDbArc
50
0
51
90
0
LINE
5
117
100
AcDbEntity
8
bottom plate
6
ByLayer
62
256
370
-1
100
AcDbLine
10
35.4115962178
20
44.0355481367
11
71.2623179182
21
44.0355481367
0
LINE
5
118
100
AcDbEntity
8
bottom plate
6
ByLayer
62
256
370
-1
100
AcDbLine
10
71.2623179182
20
42.0355481367
11
35.4115962178
21
42.0355481367
0
LINE
5
119
100
AcDbEntity
8
bottom plate
6
ByLayer
62
256
370
-1
100
AcDbLine
10
67.2694605946
20
82.0355481406
11
67.2694605946
21
82.0355481406
0
LINE
5
11A
100
AcDbEntity
8
bottom plate
6
ByLayer
62
256
370
-1
100
AcDbLine
10
51.4115962186
20
82.035548138
11
51.4115962186
21
82.035548138
0
LINE
5
11B
100
AcDbEntity
8
bottom plate
6
ByLayer
62
256
370
-1
100
AcDbLine
10
74.2694605938
20
89.0355481403
11
74.2694605938
21
89.0355481403
0
LINE
5
11C
100
AcDbEntity
8
bottom plate
6
ByLayer
62
256
370
-1
100
AcDbLine
10
44.4115962178
20
89.0355481372
11
44.4115962178
21
89.0355481372
0
ARC
5
11D
100
AcDbEntity
8
bottom plate
6
ByLayer
62
256
370
-1
100
AcDbCircle
10
35.4115962178
20
89.0355481363
40
1
100
AcDbArc
50
90.0000000059
51
180.000000006
0
ARC
5
11E
100
AcDbEntity
8
bottom plate
6
ByLayer
62
256
370
-1
100
AcDbCircle
10
35.4115962178
20
89.0355481363
40
1
100
AcDbArc
50
180.000000006
51
270.000000006
0
ARC
5
11F
100
AcDbEntity
8
bottom plate
6
ByLayer
62
256
370
-1
100
AcDbCircle
10
71.2623179182
20
89.03554814
40
1
100
AcDbArc
50
5.94193770035e-09
51
90.0000000059
0
ARC
5
120
100
AcDbEntity
8
bottom plate
6
ByLayer
62
256
370
-1
100
AcDbCircle
10
71.2623179182
20
89.03554814
40
1
100
AcDbArc
50
270.000000006
51
5.94193770035e-09
0
LINE
5
121
100
AcDbEntity
8
bottom plate
6
ByLayer
62
256
370
-1
100
AcDbLine
10
35.4115962179
20
88.0355481363
11
71.2623179183
21
88.03554814
0
LINE
5
122
100
AcDbEntity
8
bottom plate
6
ByLayer
62
256
370
-1
100
AcDbLine
10
71.2623179181
20
90.03554814
11
35.4115962177
21
90.0355481363
0
ARC
5
123
100
AcDbEntity
8
bottom plate
6
ByLayer
62
256
370
-1
100
AcDbCircle
10
71.2623179184
20
50.0355481367
40
1
100
AcDbArc
50
270
51
360
0
ARC
5
124
100
AcDbEntity
8
bottom plate
6
ByLayer
62
256
370
-1
100
AcDbCircle
10
71.2623179184
20
50.0355481367
40
1
100
AcDbArc
50
360
51
90
0
ARC
5
125
100
AcDbEntity
8
bottom plate
6
ByLayer
62
256
370
-1
100
AcDbCircle
10
71.2623179192
20
82.0355481395
40
1
100
AcDbArc
50
5.94198858922e-09
51
90.0000000059
0
ARC
5
126
100
AcDbEntity
8
bottom plate
6
ByLayer
62
256
370
-1
100
AcDbCircle
10
71.2623179192
20
82.0355481395
40
1
100
AcDbArc
50
270.000000006
51
5.94198858922e-09
0
ARC
5
127
100
AcDbEntity
8
bottom plate
6
ByLayer
62
256
370
-1
100
AcDbCircle
10
35.4115962173
20
50.0355481367
40
1
100
AcDbArc
50
180
51
270
0
ARC
5
128
100
AcDbEntity
8
bottom plate
6
ByLayer
62
256
370
-1
100
AcDbCircle
10
35.4115962173
20
50.0355481367
40
1
100
AcDbArc
50
90
51
180
0
ARC
5
129
100
AcDbEntity
8
bottom plate
6
ByLayer
62
256
370
-1
100
AcDbCircle
10
35.411596218
20
82.0355481368
40
1
100
AcDbArc
50
90.0000000059
51
180.000000006
0
ARC
5
12A
100
AcDbEntity
8
bottom plate
6
ByLayer
62
256
370
-1
100
AcDbCircle
10
35.411596218
20
82.0355481368
40
1
100
AcDbArc
50
180.000000006
51
270.000000006
0
LINE
5
12B
100
AcDbEntity
8
bottom plate
6
ByLayer
62
256
370
-1
100
AcDbLine
10
35.4116271848
20
83.0355481373
11
71.2622627459
21
83.035548141
0
LINE
5
12C
100
AcDbEntity
8
bottom plate
6
ByLayer
62
256
370
-1
100
AcDbLine
10
35.4116285078
20
81.0355481363
11
71.262285649
21
81.03554814
0
LINE
5
12D
100
AcDbEntity
8
bottom plate
6
ByLayer
62
256
370
-1
100
AcDbLine
10
35.4115965545
20
51.0355481367
11
71.2623179184
21
51.0355481367
0
LINE
5
12E
100
AcDbEntity
8
bottom plate
6
ByLayer
62
256
370
-1
100
AcDbLine
10
35.4116409422
20
49.0355481357
11
71.2622731973
21
49.0355481357
0
ARC
5
12F
100
AcDbEntity
8
bottom plate
6
ByLayer
62
256
370
-1
100
AcDbCircle
10
159.548742942
20
57.0355481367
40
6
100
AcDbArc
50
225
51
270
0
LINE
5
130
100
AcDbEntity
8
bottom plate
6
ByLayer
62
256
370
-1
100
AcDbLine
10
149.820820881
20
58.2781888238
11
155.306102255
21
52.7929074496
0
ARC
5
131
100
AcDbEntity
8
bottom plate
6
ByLayer
62
256
370
-1
100
AcDbCircle
10
154.063461568
20
62.5208295109
40
6
100
AcDbArc
50
180
51
225
0
LINE
5
132
100
AcDbEntity
8
bottom plate
6
ByLayer
62
256
370
-1
100
AcDbLine
10
148.063461568
20
69.5502667625
11
148.063461568
21
62.5208295109
0
ARC
5
133
100
AcDbEntity
8
bottom plate
6
ByLayer
62
256
370
-1
100
AcDbCircle
10
154.063461568
20
69.5502667625
40
6
100
AcDbArc
50
135
51
180
0
LINE
5
134
100
AcDbEntity
8
bottom plate
6
ByLayer
62
256
370
-1
100
AcDbLine
10
155.306102255
20
79.2781888238
11
149.820820881
21
73.7929074495
0
ARC
5
135
100
AcDbEntity
8
bottom plate
6
ByLayer
62
256
370
-1
100
AcDbCircle
10
159.548742942
20
75.0355481367
40
6
100
AcDbArc
50
90
51
135
0
LINE
5
136
100
AcDbEntity
8
bottom plate
6
ByLayer
62
256
370
-1
100
AcDbLine
10
184.711756414
20
81.0355481367
11
159.548742942
21
81.0355481367
0
LINE
5
137
100
AcDbEntity
8
bottom plate
6
ByLayer
62
256
370
-1
100
AcDbLine
10
159.548742942
20
51.0355481367
11
184.711756414
21
51.0355481367
0
CIRCLE
5
138
100
AcDbEntity
8
Mounting Rails
6
ByLayer
62
256
370
-1
100
AcDbCircle
10
221
20
8
40
1.6
0
ARC
5
139
100
AcDbEntity
8
Mounting Rails
6
ByLayer
62
256
370
-1
100
AcDbCircle
10
221
20
8
40
4
100
AcDbArc
50
90
51
270
0
LINE
5
13A
100
AcDbEntity
8
Mounting Rails
6
ByLayer
62
256
370
-1
100
AcDbLine
10
221
20
12
11
225
21
12
0
CIRCLE
5
13B
100
AcDbEntity
8
Mounting Rails
6
ByLayer
62
256
370
-1
100
AcDbCircle
10
221
20
42
40
1.6
0
ARC
5
13C
100
AcDbEntity
8
Mounting Rails
6
ByLayer
62
256
370
-1
100
AcDbCircle
10
221
20
42
40
4
100
AcDbArc
50
90
51
270
0
LINE
5
13D
100
AcDbEntity
8
Mounting Rails
6
ByLayer
62
256
370
-1
100
AcDbLine
10
221
20
46
11
225
21
46
0
LINE
5
13E
100
AcDbEntity
8
Mounting Rails
6
ByLayer
62
256
370
-1
100
AcDbLine
10
225
20
12
11
225
21
38
0
LINE
5
13F
100
AcDbEntity
8
Mounting Rails
6
ByLayer
62
256
370
-1
100
AcDbLine
10
221
20
38
11
225
21
38
0
LINE
5
140
100
AcDbEntity
8
Mounting Rails
6
ByLayer
62
256
370
-1
100
AcDbLine
10
227
20
61
11
230
21
61
0
LINE
5
141
100
AcDbEntity
8
Mounting Rails
6
ByLayer
62
256
370
-1
100
AcDbLine
10
230
20
61
11
230
21
62.5
0
LINE
5
142
100
AcDbEntity
8
Mounting Rails
6
ByLayer
62
256
370
-1
100
AcDbLine
10
230
20
62.5
11
227
21
62.5
0
LINE
5
143
100
AcDbEntity
8
Mounting Rails
6
ByLayer
62
256
370
-1
100
AcDbLine
10
227
20
62.5
11
227
21
61
0
LINE
5
144
100
AcDbEntity
8
Mounting Rails
6
ByLayer
62
256
370
-1
100
AcDbLine
10
227
20
55
11
230
21
55
0
LINE
5
145
100
AcDbEntity
8
Mounting Rails
6
ByLayer
62
256
370
-1
100
AcDbLine
10
230
20
55
11
230
21
56.5
0
LINE
5
146
100
AcDbEntity
8
Mounting Rails
6
ByLayer
62
256
370
-1
100
AcDbLine
10
230
20
56.5
11
227
21
56.5
0
LINE
5
147
100
AcDbEntity
8
Mounting Rails
6
ByLayer
62
256
370
-1
100
AcDbLine
10
227
20
56.5
11
227
21
55
0
LINE
5
148
100
AcDbEntity
8
Mounting Rails
6
ByLayer
62
256
370
-1
100
AcDbLine
10
265
20
9
11
265
21
6
0
LINE
5
149
100
AcDbEntity
8
Mounting Rails
6
ByLayer
62
256
370
-1
100
AcDbLine
10
265
20
6
11
266.5
21
6
0
LINE
5
14A
100
AcDbEntity
8
Mounting Rails
6
ByLayer
62
256
370
-1
100
AcDbLine
10
266.5
20
6
11
266.5
21
9
0
LINE
5
14B
100
AcDbEntity
8
Mounting Rails
6
ByLayer
62
256
370
-1
100
AcDbLine
10
259
20
9
11
259
21
6
0
LINE
5
14C
100
AcDbEntity
8
Mounting Rails
6
ByLayer
62
256
370
-1
100
AcDbLine
10
259
20
6
11
260.5
21
6
0
LINE
5
14D
100
AcDbEntity
8
Mounting Rails
6
ByLayer
62
256
370
-1
100
AcDbLine
10
260.5
20
6
11
260.5
21
9
0
LINE
5
14E
100
AcDbEntity
8
Mounting Rails
6
ByLayer
62
256
370
-1
100
AcDbLine
10
266.5
20
9
11
265
21
9
0
LINE
5
14F
100
AcDbEntity
8
Mounting Rails
6
ByLayer
62
256
370
-1
100
AcDbLine
10
260.5
20
9
11
259
21
9
0
LINE
5
150
100
AcDbEntity
8
Mounting Rails
6
ByLayer
62
256
370
-1
100
AcDbLine
10
227
20
49
11
230
21
49
0
LINE
5
151
100
AcDbEntity
8
Mounting Rails
6
ByLayer
62
256
370
-1
100
AcDbLine
10
230
20
49
11
230
21
50.5
0
LINE
5
152
100
AcDbEntity
8
Mounting Rails
6
ByLayer
62
256
370
-1
100
AcDbLine
10
230
20
50.5
11
227
21
50.5
0
LINE
5
153
100
AcDbEntity
8
Mounting Rails
6
ByLayer
62
256
370
-1
100
AcDbLine
10
227
20
50.5
11
227
21
49
0
LINE
5
154
100
AcDbEntity
8
Mounting Rails
6
ByLayer
62
256
370
-1
100
AcDbLine
10
227
20
43
11
230
21
43
0
LINE
5
155
100
AcDbEntity
8
Mounting Rails
6
ByLayer
62
256
370
-1
100
AcDbLine
10
230
20
43
11
230
21
44.5
0
LINE
5
156
100
AcDbEntity
8
Mounting Rails
6
ByLayer
62
256
370
-1
100
AcDbLine
10
230
20
44.5
11
227
21
44.5
0
LINE
5
157
100
AcDbEntity
8
Mounting Rails
6
ByLayer
62
256
370
-1
100
AcDbLine
10
227
20
44.5
11
227
21
43
0
LINE
5
158
100
AcDbEntity
8
Mounting Rails
6
ByLayer
62
256
370
-1
100
AcDbLine
10
227
20
37
11
230
21
37
0
LINE
5
159
100
AcDbEntity
8
Mounting Rails
6
ByLayer
62
256
370
-1
100
AcDbLine
10
230
20
37
11
230
21
38.5
0
LINE
5
15A
100
AcDbEntity
8
Mounting Rails
6
ByLayer
62
256
370
-1
100
AcDbLine
10
230
20
38.5
11
227
21
38.5
0
LINE
5
15B
100
AcDbEntity
8
Mounting Rails
6
ByLayer
62
256
370
-1
100
AcDbLine
10
227
20
38.5
11
227
21
37
0
LINE
5
15C
100
AcDbEntity
8
Mounting Rails
6
ByLayer
62
256
370
-1
100
AcDbLine
10
227
20
31
11
230
21
31
0
LINE
5
15D
100
AcDbEntity
8
Mounting Rails
6
ByLayer
62
256
370
-1
100
AcDbLine
10
230
20
31
11
230
21
32.5
0
LINE
5
15E
100
AcDbEntity
8
Mounting Rails
6
ByLayer
62
256
370
-1
100
AcDbLine
10
230
20
32.5
11
227
21
32.5
0
LINE
5
15F
100
AcDbEntity
8
Mounting Rails
6
ByLayer
62
256
370
-1
100
AcDbLine
10
227
20
32.5
11
227
21
31
0
LINE
5
160
100
AcDbEntity
8
Mounting Rails
6
ByLayer
62
256
370
-1
100
AcDbLine
10
253
20
9
11
253
21
6
0
LINE
5
161
100
AcDbEntity
8
Mounting Rails
6
ByLayer
62
256
370
-1
100
AcDbLine
10
253
20
6
11
254.5
21
6
0
LINE
5
162
100
AcDbEntity
8
Mounting Rails
6
ByLayer
62
256
370
-1
100
AcDbLine
10
254.5
20
6
11
254.5
21
9
0
LINE
5
163
100
AcDbEntity
8
Mounting Rails
6
ByLayer
62
256
370
-1
100
AcDbLine
10
247
20
9
11
247
21
6
0
LINE
5
164
100
AcDbEntity
8
Mounting Rails
6
ByLayer
62
256
370
-1
100
AcDbLine
10
247
20
6
11
248.5
21
6
0
LINE
5
165
100
AcDbEntity
8
Mounting Rails
6
ByLayer
62
256
370
-1
100
AcDbLine
10
248.5
20
6
11
248.5
21
9
0
LINE
5
166
100
AcDbEntity
8
Mounting Rails
6
ByLayer
62
256
370
-1
100
AcDbLine
10
254.5
20
9
11
253
21
9
0
LINE
5
167
100
AcDbEntity
8
Mounting Rails
6
ByLayer
62
256
370
-1
100
AcDbLine
10
248.5
20
9
11
247
21
9
0
LINE
5
168
100
AcDbEntity
8
Mounting Rails
6
ByLayer
62
256
370
-1
100
AcDbLine
10
225
20
67
11
225
21
46
0
LINE
5
169
100
AcDbEntity
8
Mounting Rails
6
ByLayer
62
256
370
-1
100
AcDbLine
10
232
20
67
11
232
21
11
0
ARC
5
16A
100
AcDbEntity
8
Mounting Rails
6
ByLayer
62
256
370
-1
100
AcDbCircle
10
228
20
67
40
3
100
AcDbArc
50
90
51
180
0
LINE
5
16B
100
AcDbEntity
8
Mounting Rails
6
ByLayer
62
256
370
-1
100
AcDbLine
10
228
20
70
11
229
21
70
0
ARC
5
16C
100
AcDbEntity
8
Mounting Rails
6
ByLayer
62
256
370
-1
100
AcDbCircle
10
229
20
67
40
3
100
AcDbArc
50
0
51
90
0
CIRCLE
5
16D
100
AcDbEntity
8
Mounting Rails
6
ByLayer
62
256
370
-1
100
AcDbCircle
10
344
20
8
40
1.6
0
ARC
5
16E
100
AcDbEntity
8
Mounting Rails
6
ByLayer
62
256
370
-1
100
AcDbCircle
10
344
20
8
40
4
100
AcDbArc
50
270
51
90
0
LINE
5
16F
100
AcDbEntity
8
Mounting Rails
6
ByLayer
62
256
370
-1
100
AcDbLine
10
344
20
12
11
340
21
12
0
CIRCLE
5
170
100
AcDbEntity
8
Mounting Rails
6
ByLayer
62
256
370
-1
100
AcDbCircle
10
344
20
42
40
1.6
0
ARC
5
171
100
AcDbEntity
8
Mounting Rails
6
ByLayer
62
256
370
-1
100
AcDbCircle
10
344
20
42
40
4
100
AcDbArc
50
270
51
90
0
LINE
5
172
100
AcDbEntity
8
Mounting Rails
6
ByLayer
62
256
370
-1
100
AcDbLine
10
344
20
46
11
340
21
46
0
LINE
5
173
100
AcDbEntity
8
Mounting Rails
6
ByLayer
62
256
370
-1
100
AcDbLine
10
340
20
12
11
340
21
38
0
LINE
5
174
100
AcDbEntity
8
Mounting Rails
6
ByLayer
62
256
370
-1
100
AcDbLine
10
344
20
38
11
340
21
38
0
LINE
5
175
100
AcDbEntity
8
Mounting Rails
6
ByLayer
62
256
370
-1
100
AcDbLine
10
338
20
61
11
335
21
61
0
LINE
5
176
100
AcDbEntity
8
Mounting Rails
6
ByLayer
62
256
370
-1
100
AcDbLine
10
335
20
61
11
335
21
62.5
0
LINE
5
177
100
AcDbEntity
8
Mounting Rails
6
ByLayer
62
256
370
-1
100
AcDbLine
10
335
20
62.5
11
338
21
62.5
0
LINE
5
178
100
AcDbEntity
8
Mounting Rails
6
ByLayer
62
256
370
-1
100
AcDbLine
10
338
20
62.5
11
338
21
61
0
LINE
5
179
100
AcDbEntity
8
Mounting Rails
6
ByLayer
62
256
370
-1
100
AcDbLine
10
338
20
55
11
335
21
55
0
LINE
5
17A
100
AcDbEntity
8
Mounting Rails
6
ByLayer
62
256
370
-1
100
AcDbLine
10
335
20
55
11
335
21
56.5
0
LINE
5
17B
100
AcDbEntity
8
Mounting Rails
6
ByLayer
62
256
370
-1
100
AcDbLine
10
335
20
56.5
11
338
21
56.5
0
LINE
5
17C
100
AcDbEntity
8
Mounting Rails
6
ByLayer
62
256
370
-1
100
AcDbLine
10
338
20
56.5
11
338
21
55
0
LINE
5
17D
100
AcDbEntity
8
Mounting Rails
6
ByLayer
62
256
370
-1
100
AcDbLine
10
300
20
9
11
300
21
6
0
LINE
5
17E
100
AcDbEntity
8
Mounting Rails
6
ByLayer
62
256
370
-1
100
AcDbLine
10
300
20
6
11
298.5
21
6
0
LINE
5
17F
100
AcDbEntity
8
Mounting Rails
6
ByLayer
62
256
370
-1
100
AcDbLine
10
298.5
20
6
11
298.5
21
9
0
LINE
5
180
100
AcDbEntity
8
Mounting Rails
6
ByLayer
62
256
370
-1
100
AcDbLine
10
306
20
9
11
306
21
6
0
LINE
5
181
100
AcDbEntity
8
Mounting Rails
6
ByLayer
62
256
370
-1
100
AcDbLine
10
306
20
6
11
304.5
21
6
0
LINE
5
182
100
AcDbEntity
8
Mounting Rails
6
ByLayer
62
256
370
-1
100
AcDbLine
10
304.5
20
6
11
304.5
21
9
0
LINE
5
183
100
AcDbEntity
8
Mounting Rails
6
ByLayer
62
256
370
-1
100
AcDbLine
10
298.5
20
9
11
300
21
9
0
LINE
5
184
100
AcDbEntity
8
Mounting Rails
6
ByLayer
62
256
370
-1
100
AcDbLine
10
304.5
20
9
11
306
21
9
0
LINE
5
185
100
AcDbEntity
8
Mounting Rails
6
ByLayer
62
256
370
-1
100
AcDbLine
10
338
20
49
11
335
21
49
0
LINE
5
186
100
AcDbEntity
8
Mounting Rails
6
ByLayer
62
256
370
-1
100
AcDbLine
10
335
20
49
11
335
21
50.5
0
LINE
5
187
100
AcDbEntity
8
Mounting Rails
6
ByLayer
62
256
370
-1
100
AcDbLine
10
335
20
50.5
11
338
21
50.5
0
LINE
5
188
100
AcDbEntity
8
Mounting Rails
6
ByLayer
62
256
370
-1
100
AcDbLine
10
338
20
50.5
11
338
21
49
0
LINE
5
189
100
AcDbEntity
8
Mounting Rails
6
ByLayer
62
256
370
-1
100
AcDbLine
10
338
20
43
11
335
21
43
0
LINE
5
18A
100
AcDbEntity
8
Mounting Rails
6
ByLayer
62
256
370
-1
100
AcDbLine
10
335
20
43
11
335
21
44.5
0
LINE
5
18B
100
AcDbEntity
8
Mounting Rails
6
ByLayer
62
256
370
-1
100
AcDbLine
10
335
20
44.5
11
338
21
44.5
0
LINE
5
18C
100
AcDbEntity
8
Mounting Rails
6
ByLayer
62
256
370
-1
100
AcDbLine
10
338
20
44.5
11
338
21
43
0
LINE
5
18D
100
AcDbEntity
8
Mounting Rails
6
ByLayer
62
256
370
-1
100
AcDbLine
10
338
20
37
11
335
21
37
0
LINE
5
18E
100
AcDbEntity
8
Mounting Rails
6
ByLayer
62
256
370
-1
100
AcDbLine
10
335
20
37
11
335
21
38.5
0
LINE
5
18F
100
AcDbEntity
8
Mounting Rails
6
ByLayer
62
256
370
-1
100
AcDbLine
10
335
20
38.5
11
338
21
38.5
0
LINE
5
190
100
AcDbEntity
8
Mounting Rails
6
ByLayer
62
256
370
-1
100
AcDbLine
10
338
20
38.5
11
338
21
37
0
LINE
5
191
100
AcDbEntity
8
Mounting Rails
6
ByLayer
62
256
370
-1
100
AcDbLine
10
338
20
31
11
335
21
31
0
LINE
5
192
100
AcDbEntity
8
Mounting Rails
6
ByLayer
62
256
370
-1
100
AcDbLine
10
335
20
31
11
335
21
32.5
0
LINE
5
193
100
AcDbEntity
8
Mounting Rails
6
ByLayer
62
256
370
-1
100
AcDbLine
10
335
20
32.5
11
338
21
32.5
0
LINE
5
194
100
AcDbEntity
8
Mounting Rails
6
ByLayer
62
256
370
-1
100
AcDbLine
10
338
20
32.5
11
338
21
31
0
LINE
5
195
100
AcDbEntity
8
Mounting Rails
6
ByLayer
62
256
370
-1
100
AcDbLine
10
312
20
9
11
312
21
6
0
LINE
5
196
100
AcDbEntity
8
Mounting Rails
6
ByLayer
62
256
370
-1
100
AcDbLine
10
312
20
6
11
310.5
21
6
0
LINE
5
197
100
AcDbEntity
8
Mounting Rails
6
ByLayer
62
256
370
-1
100
AcDbLine
10
310.5
20
6
11
310.5
21
9
0
LINE
5
198
100
AcDbEntity
8
Mounting Rails
6
ByLayer
62
256
370
-1
100
AcDbLine
10
318
20
9
11
318
21
6
0
LINE
5
199
100
AcDbEntity
8
Mounting Rails
6
ByLayer
62
256
370
-1
100
AcDbLine
10
318
20
6
11
316.5
21
6
0
LINE
5
19A
100
AcDbEntity
8
Mounting Rails
6
ByLayer
62
256
370
-1
100
AcDbLine
10
316.5
20
6
11
316.5
21
9
0
LINE
5
19B
100
AcDbEntity
8
Mounting Rails
6
ByLayer
62
256
370
-1
100
AcDbLine
10
310.5
20
9
11
312
21
9
0
LINE
5
19C
100
AcDbEntity
8
Mounting Rails
6
ByLayer
62
256
370
-1
100
AcDbLine
10
316.5
20
9
11
318
21
9
0
LINE
5
19D
100
AcDbEntity
8
Mounting Rails
6
ByLayer
62
256
370
-1
100
AcDbLine
10
333
20
67.000942851
11
333
21
11
0
LINE
5
19E
100
AcDbEntity
8
Mounting Rails
6
ByLayer
62
256
370
-1
100
AcDbLine
10
340
20
67.000942851
11
340
21
46
0
ARC
5
19F
100
AcDbEntity
8
Mounting Rails
6
ByLayer
62
256
370
-1
100
AcDbCircle
10
337
20
67.000942851
40
3
100
AcDbArc
50
0
51
90
0
LINE
5
1A0
100
AcDbEntity
8
Mounting Rails
6
ByLayer
62
256
370
-1
100
AcDbLine
10
337
20
70.000942851
11
336
21
70.000942851
0
ARC
5
1A1
100
AcDbEntity
8
Mounting Rails
6
ByLayer
62
256
370
-1
100
AcDbCircle
10
336
20
67.000942851
40
3
100
AcDbArc
50
90
51
180
0
LINE
5
1A2
100
AcDbEntity
8
Mounting Rails
6
ByLayer
62
256
370
-1
100
AcDbLine
10
232
20
11
11
271
21
11
0
LINE
5
1A3
100
AcDbEntity
8
Mounting Rails
6
ByLayer
62
256
370
-1
100
AcDbLine
10
221
20
4
11
271
21
4
0
LINE
5
1A4
100
AcDbEntity
8
Mounting Rails
6
ByLayer
62
256
370
-1
100
AcDbLine
10
333
20
11
11
294
21
11
0
LINE
5
1A5
100
AcDbEntity
8
Mounting Rails
6
ByLayer
62
256
370
-1
100
AcDbLine
10
344
20
4
11
294
21
4
0
ARC
5
1A6
100
AcDbEntity
8
Mounting Rails
6
ByLayer
62
256
370
-1
100
AcDbCircle
10
294
20
8
40
3
100
AcDbArc
50
90
51
180
0
LINE
5
1A7
100
AcDbEntity
8
Mounting Rails
6
ByLayer
62
256
370
-1
100
AcDbLine
10
291
20
8
11
291
21
7
0
ARC
5
1A8
100
AcDbEntity
8
Mounting Rails
6
ByLayer
62
256
370
-1
100
AcDbCircle
10
294
20
7
40
3
100
AcDbArc
50
180
51
270
0
ARC
5
1A9
100
AcDbEntity
8
Mounting Rails
6
ByLayer
62
256
370
-1
100
AcDbCircle
10
271
20
8
40
3
100
AcDbArc
50
0
51
90
0
LINE
5
1AA
100
AcDbEntity
8
Mounting Rails
6
ByLayer
62
256
370
-1
100
AcDbLine
10
274
20
8
11
274
21
7
0
ARC
5
1AB
100
AcDbEntity
8
Mounting Rails
6
ByLayer
62
256
370
-1
100
AcDbCircle
10
271
20
7
40
3
100
AcDbArc
50
270
51
0
0
LINE
5
1AC
100
AcDbEntity
8
Camera Box
6
ByLayer
62
176
420
128
370
-1
100
AcDbLine
10
285.452181104
20
23.5822503428
11
285.452181104
21
31.5822503428
0
LINE
5
1AD
100
AcDbEntity
8
Camera Box
6
ByLayer
62
176
420
128
370
-1
100
AcDbLine
10
285.452181104
20
39.5822503428
11
285.452181104
21
47.5822503428
0
LINE
5
1AE
100
AcDbEntity
8
Camera Box
6
ByLayer
62
176
420
128
370
-1
100
AcDbLine
10
285.452181104
20
55.5822503428
11
285.452181104
21
63.5822503428
0
LINE
5
1AF
100
AcDbEntity
8
Camera Box
6
ByLayer
62
176
420
128
370
-1
100
AcDbLine
10
285.452181104
20
71.5822503428
11
285.452181104
21
79.3322503428
0
LINE
5
1B0
100
AcDbEntity
8
Camera Box
6
ByLayer
62
176
420
128
370
-1
100
AcDbLine
10
288.452181104
20
16.0822503428
11
288.452181104
21
23.5822503428
0
LINE
5
1B1
100
AcDbEntity
8
Camera Box
6
ByLayer
62
176
420
128
370
-1
100
AcDbLine
10
288.452181104
20
31.5822503428
11
288.452181104
21
39.5822503428
0
LINE
5
1B2
100
AcDbEntity
8
Camera Box
6
ByLayer
62
176
420
128
370
-1
100
AcDbLine
10
288.452181104
20
47.5822503428
11
288.452181104
21
55.5822503428
0
LINE
5
1B3
100
AcDbEntity
8
Camera Box
6
ByLayer
62
176
420
128
370
-1
100
AcDbLine
10
288.452181104
20
63.5822503428
11
288.452181104
21
71.5822503428
0
LINE
5
1B4
100
AcDbEntity
8
Camera Box
6
ByLayer
62
176
420
128
370
-1
100
AcDbLine
10
288.452181104
20
79.5822503428
11
288.452181104
21
87.0822503428
0
LINE
5
1B5
100
AcDbEntity
8
Camera Box
6
ByLayer
62
176
420
128
370
-1
100
AcDbLine
10
285.452181104
20
23.5822503428
11
288.452181104
21
23.5822503428
0
LINE
5
1B6
100
AcDbEntity
8
Camera Box
6
ByLayer
62
176
420
128
370
-1
100
AcDbLine
10
285.452181104
20
31.5822503428
11
288.452181104
21
31.5822503428
0
LINE
5
1B7
100
AcDbEntity
8
Camera Box
6
ByLayer
62
176
420
128
370
-1
100
AcDbLine
10
285.452181104
20
39.5822503428
11
288.452181104
21
39.5822503428
0
LINE
5
1B8
100
AcDbEntity
8
Camera Box
6
ByLayer
62
176
420
128
370
-1
100
AcDbLine
10
285.452181104
20
47.5822503428
11
288.452181104
21
47.5822503428
0
LINE
5
1B9
100
AcDbEntity
8
Camera Box
6
ByLayer
62
176
420
128
370
-1
100
AcDbLine
10
285.452181104
20
55.5822503428
11
288.452181104
21
55.5822503428
0
LINE
5
1BA
100
AcDbEntity
8
Camera Box
6
ByLayer
62
176
420
128
370
-1
100
AcDbLine
10
285.452181104
20
63.5822503428
11
288.452181104
21
63.5822503428
0
LINE
5
1BB
100
AcDbEntity
8
Camera Box
6
ByLayer
62
176
420
128
370
-1
100
AcDbLine
10
285.452181104
20
71.5822503428
11
288.452181104
21
71.5822503428
0
LINE
5
1BC
100
AcDbEntity
8
Camera Box
6
ByLayer
62
176
420
128
370
-1
100
AcDbLine
10
285.452181104
20
79.5822503428
11
288.452181104
21
79.5822503428
0
LINE
5
1BD
100
AcDbEntity
8
Camera Box
6
ByLayer
62
176
420
128
370
-1
100
AcDbLine
10
288.452181104
20
87.0822503428
11
280.452181104
21
87.0822503428
0
LINE
5
1BE
100
AcDbEntity
8
Camera Box
6
ByLayer
62
176
420
128
370
-1
100
AcDbLine
10
272.452181104
20
87.0822503428
11
264.452181104
21
87.0822503428
0
LINE
5
1BF
100
AcDbEntity
8
Camera Box
6
ByLayer
62
176
420
128
370
-1
100
AcDbLine
10
256.452181104
20
87.0822503428
11
248.452181104
21
87.0822503428
0
LINE
5
1C0
100
AcDbEntity
8
Camera Box
6
ByLayer
62
176
420
128
370
-1
100
AcDbLine
10
280.452181104
20
84.0822503428
11
272.452181104
21
84.0822503428
0
LINE
5
1C1
100
AcDbEntity
8
Camera Box
6
ByLayer
62
176
420
128
370
-1
100
AcDbLine
10
256.452181104
20
84.0822503428
11
264.452181104
21
84.0822503428
0
LINE
5
1C2
100
AcDbEntity
8
Camera Box
6
ByLayer
62
176
420
128
370
-1
100
AcDbLine
10
256.452181104
20
84.0822503428
11
256.452181104
21
87.0822503428
0
LINE
5
1C3
100
AcDbEntity
8
Camera Box
6
ByLayer
62
176
420
128
370
-1
100
AcDbLine
10
248.452181104
20
84.0822503428
11
248.452181104
21
87.0822503428
0
LINE
5
1C4
100
AcDbEntity
8
Camera Box
6
ByLayer
62
176
420
128
370
-1
100
AcDbLine
10
264.452181104
20
84.0822503428
11
264.452181104
21
87.0822503428
0
LINE
5
1C5
100
AcDbEntity
8
Camera Box
6
ByLayer
62
176
420
128
370
-1
100
AcDbLine
10
272.452181104
20
84.0822503428
11
272.452181104
21
87.0822503428
0
LINE
5
1C6
100
AcDbEntity
8
Camera Box
6
ByLayer
62
176
420
128
370
-1
100
AcDbLine
10
280.452181104
20
84.0822503428
11
280.452181104
21
87.0822503428
0
LINE
5
1C7
100
AcDbEntity
8
Camera Box
6
ByLayer
62
176
420
128
370
-1
100
AcDbLine
10
288.452181104
20
16.0822503428
11
280.452181104
21
16.0822503428
0
LINE
5
1C8
100
AcDbEntity
8
Camera Box
6
ByLayer
62
176
420
128
370
-1
100
AcDbLine
10
272.452181104
20
16.0822503428
11
264.452181104
21
16.0822503428
0
LINE
5
1C9
100
AcDbEntity
8
Camera Box
6
ByLayer
62
176
420
128
370
-1
100
AcDbLine
10
256.452181104
20
16.0822503428
11
248.452181104
21
16.0822503428
0
LINE
5
1CA
100
AcDbEntity
8
Camera Box
6
ByLayer
62
176
420
128
370
-1
100
AcDbLine
10
280.452181104
20
19.0822503428
11
272.452181104
21
19.0822503428
0
LINE
5
1CB
100
AcDbEntity
8
Camera Box
6
ByLayer
62
176
420
128
370
-1
100
AcDbLine
10
256.452181104
20
19.0822503428
11
264.452181104
21
19.0822503428
0
LINE
5
1CC
100
AcDbEntity
8
Camera Box
6
ByLayer
62
176
420
128
370
-1
100
AcDbLine
10
256.452181104
20
19.0822503428
11
256.452181104
21
16.0822503428
0
LINE
5
1CD
100
AcDbEntity
8
Camera Box
6
ByLayer
62
176
420
128
370
-1
100
AcDbLine
10
248.452181104
20
19.0822503428
11
248.452181104
21
16.0822503428
0
LINE
5
1CE
100
AcDbEntity
8
Camera Box
6
ByLayer
62
176
420
128
370
-1
100
AcDbLine
10
264.452181104
20
19.0822503428
11
264.452181104
21
16.0822503428
0
LINE
5
1CF
100
AcDbEntity
8
Camera Box
6
ByLayer
62
176
420
128
370
-1
100
AcDbLine
10
272.452181104
20
19.0822503428
11
272.452181104
21
16.0822503428
0
LINE
5
1D0
100
AcDbEntity
8
Camera Box
6
ByLayer
62
176
420
128
370
-1
100
AcDbLine
10
280.452181104
20
19.0822503428
11
280.452181104
21
16.0822503428
0
LINE
5
1D1
100
AcDbEntity
8
Camera Box
6
ByLayer
62
176
420
128
370
-1
100
AcDbLine
10
237.452181104
20
84.0822503428
11
237.452181104
21
19.0822503428
0
LINE
5
1D2
100
AcDbEntity
8
Camera Box
6
ByLayer
62
176
420
128
370
-1
100
AcDbLine
10
237.452181104
20
84.0822503428
11
248.452181104
21
84.0822503428
0
LINE
5
1D3
100
AcDbEntity
8
Camera Box
6
ByLayer
62
176
420
128
370
-1
100
AcDbLine
10
237.452181104
20
19.0822503428
11
248.452181104
21
19.0822503428
0
LINE
5
1D4
100
AcDbEntity
8
Camera Box
6
ByLayer
62
176
420
128
370
-1
100
AcDbLine
10
293.763358612
20
23.5822503428
11
293.763358612
21
16.0822503428
0
LINE
5
1D5
100
AcDbEntity
8
Camera Box
6
ByLayer
62
176
420
128
370
-1
100
AcDbLine
10
293.763358612
20
39.5822503428
11
293.763358612
21
31.5822503428
0
LINE
5
1D6
100
AcDbEntity
8
Camera Box
6
ByLayer
62
176
420
128
370
-1
100
AcDbLine
10
293.763358612
20
55.5822503428
11
293.763358612
21
47.5822503428
0
LINE
5
1D7
100
AcDbEntity
8
Camera Box
6
ByLayer
62
176
420
128
370
-1
100
AcDbLine
10
293.763358612
20
71.5822503428
11
293.763358612
21
63.5822503428
0
LINE
5
1D8
100
AcDbEntity
8
Camera Box
6
ByLayer
62
176
420
128
370
-1
100
AcDbLine
10
293.763358612
20
87.0822503428
11
293.763358612
21
84.0822503428
0
LINE
5
1D9
100
AcDbEntity
8
Camera Box
6
ByLayer
62
176
420
128
370
-1
100
AcDbLine
10
293.763358612
20
84.0822503428
11
293.763358612
21
79.3322503428
0
LINE
5
1DA
100
AcDbEntity
8
Camera Box
6
ByLayer
62
176
420
128
370
-1
100
AcDbLine
10
290.763358612
20
23.5822503428
11
290.763358612
21
31.5822503428
0
LINE
5
1DB
100
AcDbEntity
8
Camera Box
6
ByLayer
62
176
420
128
370
-1
100
AcDbLine
10
290.763358612
20
39.5822503428
11
290.763358612
21
47.5822503428
0
LINE
5
1DC
100
AcDbEntity
8
Camera Box
6
ByLayer
62
176
420
128
370
-1
100
AcDbLine
10
290.763358612
20
55.5822503428
11
290.763358612
21
63.5822503428
0
LINE
5
1DD
100
AcDbEntity
8
Camera Box
6
ByLayer
62
176
420
128
370
-1
100
AcDbLine
10
290.763358612
20
71.5822503428
11
290.763358612
21
79.5822503428
0
LINE
5
1DE
100
AcDbEntity
8
Camera Box
6
ByLayer
62
176
420
128
370
-1
100
AcDbLine
10
290.763358612
20
23.5822503428
11
293.763358612
21
23.5822503428
0
LINE
5
1DF
100
AcDbEntity
8
Camera Box
6
ByLayer
62
176
420
128
370
-1
100
AcDbLine
10
290.763358612
20
31.5822503428
11
293.763358612
21
31.5822503428
0
LINE
5
1E0
100
AcDbEntity
8
Camera Box
6
ByLayer
62
176
420
128
370
-1
100
AcDbLine
10
290.763358612
20
39.5822503428
11
293.763358612
21
39.5822503428
0
LINE
5
1E1
100
AcDbEntity
8
Camera Box
6
ByLayer
62
176
420
128
370
-1
100
AcDbLine
10
290.763358612
20
47.5822503428
11
293.763358612
21
47.5822503428
0
LINE
5
1E2
100
AcDbEntity
8
Camera Box
6
ByLayer
62
176
420
128
370
-1
100
AcDbLine
10
290.763358612
20
55.5822503428
11
293.763358612
21
55.5822503428
0
LINE
5
1E3
100
AcDbEntity
8
Camera Box
6
ByLayer
62
176
420
128
370
-1
100
AcDbLine
10
290.763358612
20
63.5822503428
11
293.763358612
21
63.5822503428
0
LINE
5
1E4
100
AcDbEntity
8
Camera Box
6
ByLayer
62
176
420
128
370
-1
100
AcDbLine
10
290.763358612
20
71.5822503428
11
293.763358612
21
71.5822503428
0
LINE
5
1E5
100
AcDbEntity
8
Camera Box
6
ByLayer
62
176
420
128
370
-1
100
AcDbLine
10
290.763358612
20
79.5822503428
11
293.763358612
21
79.5822503428
0
LINE
5
1E6
100
AcDbEntity
8
Camera Box
6
ByLayer
62
176
420
128
370
-1
100
AcDbLine
10
301.763358612
20
87.0822503428
11
293.763358612
21
87.0822503428
0
LINE
5
1E7
100
AcDbEntity
8
Camera Box
6
ByLayer
62
176
420
128
370
-1
100
AcDbLine
10
309.763358612
20
84.0822503428
11
301.763358612
21
84.0822503428
0
LINE
5
1E8
100
AcDbEntity
8
Camera Box
6
ByLayer
62
176
420
128
370
-1
100
AcDbLine
10
301.763358612
20
87.0822503428
11
301.763358612
21
84.0822503428
0
LINE
5
1E9
100
AcDbEntity
8
Camera Box
6
ByLayer
62
176
420
128
370
-1
100
AcDbLine
10
309.763358612
20
87.0822503428
11
309.763358612
21
84.0822503428
0
LINE
5
1EA
100
AcDbEntity
8
Camera Box
6
ByLayer
62
176
420
128
370
-1
100
AcDbLine
10
301.763358612
20
16.0822503428
11
293.763358612
21
16.0822503428
0
LINE
5
1EB
100
AcDbEntity
8
Camera Box
6
ByLayer
62
176
420
128
370
-1
100
AcDbLine
10
309.763358612
20
19.0822503428
11
301.763358612
21
19.0822503428
0
LINE
5
1EC
100
AcDbEntity
8
Camera Box
6
ByLayer
62
176
420
128
370
-1
100
AcDbLine
10
301.763358612
20
16.0822503428
11
301.763358612
21
19.0822503428
0
LINE
5
1ED
100
AcDbEntity
8
Camera Box
6
ByLayer
62
176
420
128
370
-1
100
AcDbLine
10
309.763358612
20
16.0822503428
11
309.763358612
21
19.0822503428
0
LINE
5
1EE
100
AcDbEntity
8
Camera Box
6
ByLayer
62
176
420
128
370
-1
100
AcDbLine
10
317.763358612
20
87.0822503428
11
317.763358612
21
84.0822503428
0
LINE
5
1EF
100
AcDbEntity
8
Camera Box
6
ByLayer
62
176
420
128
370
-1
100
AcDbLine
10
317.763358612
20
16.0822503428
11
317.763358612
21
19.0822503428
0
LINE
5
1F0
100
AcDbEntity
8
Camera Box
6
ByLayer
62
176
420
128
370
-1
100
AcDbLine
10
317.763358612
20
19.0822503428
11
328.763358612
21
19.0822503428
0
LINE
5
1F1
100
AcDbEntity
8
Camera Box
6
ByLayer
62
176
420
128
370
-1
100
AcDbLine
10
317.763358612
20
84.0822503428
11
328.763358612
21
84.0822503428
0
LINE
5
1F2
100
AcDbEntity
8
Camera Box
6
ByLayer
62
176
420
128
370
-1
100
AcDbLine
10
328.763358612
20
19.0822503428
11
328.763358612
21
84.0822503428
0
LINE
5
1F3
100
AcDbEntity
8
Camera Box
6
ByLayer
62
176
420
128
370
-1
100
AcDbLine
10
309.763358612
20
16.0822503428
11
317.763358612
21
16.0822503428
0
LINE
5
1F4
100
AcDbEntity
8
Camera Box
6
ByLayer
62
176
420
128
370
-1
100
AcDbLine
10
309.763358612
20
87.0822503428
11
317.763358612
21
87.0822503428
0
CIRCLE
5
1F5
100
AcDbEntity
8
Camera Box Holes
6
ByLayer
62
256
370
-1
100
AcDbCircle
10
248.452181104
20
28.5822503448
40
3
0
CIRCLE
5
1F6
100
AcDbEntity
8
Camera Box Holes
6
ByLayer
62
256
370
-1
100
AcDbCircle
10
260.452181104
20
28.5822503448
40
3
0
CIRCLE
5
1F7
100
AcDbEntity
8
Camera Box Holes
6
ByLayer
62
256
370
-1
100
AcDbCircle
10
272.452181104
20
28.5822503448
40
3
0
CIRCLE
5
1F8
100
AcDbEntity
8
Camera Box Holes
6
ByLayer
62
256
370
-1
100
AcDbCircle
10
248.452181104
20
74.5822503428
40
3
0
CIRCLE
5
1F9
100
AcDbEntity
8
Camera Box Holes
6
ByLayer
62
256
370
-1
100
AcDbCircle
10
260.452181104
20
74.5822503428
40
3
0
CIRCLE
5
1FA
100
AcDbEntity
8
Camera Box Holes
6
ByLayer
62
256
370
-1
100
AcDbCircle
10
272.452181104
20
74.5822503428
40
3
0
ARC
5
1FB
100
AcDbEntity
8
Camera Box Holes
6
ByLayer
62
256
370
-1
100
AcDbCircle
10
241.812570797
20
37.6533181558
40
1
100
AcDbArc
50
180
51
270
0
LINE
5
1FC
100
AcDbEntity
8
Camera Box Holes
6
ByLayer
62
256
370
-1
100
AcDbLine
10
241.812570797
20
36.6533181558
11
241.812570797
21
36.6533181558
0
ARC
5
1FD
100
AcDbEntity
8
Camera Box Holes
6
ByLayer
62
256
370
-1
100
AcDbCircle
10
241.812570797
20
37.6533181558
40
1
100
AcDbArc
50
270
51
360
0
LINE
5
1FE
100
AcDbEntity
8
Camera Box Holes
6
ByLayer
62
256
370
-1
100
AcDbLine
10
240.812570798
20
65.5111825328
11
240.812570796
21
37.6533181558
0
ARC
5
1FF
100
AcDbEntity
8
Camera Box Holes
6
ByLayer
62
256
370
-1
100
AcDbCircle
10
241.812570797
20
65.5111825328
40
1
100
AcDbArc
50
90
51
180
0
LINE
5
200
100
AcDbEntity
8
Camera Box Holes
6
ByLayer
62
256
370
-1
100
AcDbLine
10
241.812570797
20
66.5111825308
11
241.812570797
21
66.5111825308
0
LINE
5
201
100
AcDbEntity
8
Camera Box Holes
6
ByLayer
62
256
370
-1
100
AcDbLine
10
242.812570797
20
65.5111825328
11
242.812570797
21
37.6533181558
0
ARC
5
202
100
AcDbEntity
8
Camera Box Holes
6
ByLayer
62
256
370
-1
100
AcDbCircle
10
241.812570797
20
65.5111825328
40
1
100
AcDbArc
50
360
51
90
0
ARC
5
203
100
AcDbEntity
8
Camera Box Holes
6
ByLayer
62
256
370
-1
100
AcDbCircle
10
324.763358612
20
37.6533181558
40
1
100
AcDbArc
50
180
51
270
0
LINE
5
204
100
AcDbEntity
8
Camera Box Holes
6
ByLayer
62
256
370
-1
100
AcDbLine
10
324.763358612
20
36.6533181558
11
324.763358612
21
36.6533181558
0
ARC
5
205
100
AcDbEntity
8
Camera Box Holes
6
ByLayer
62
256
370
-1
100
AcDbCircle
10
324.763358612
20
37.6533181558
40
1
100
AcDbArc
50
270
51
360
0
LINE
5
206
100
AcDbEntity
8
Camera Box Holes
6
ByLayer
62
256
370
-1
100
AcDbLine
10
323.763358613
20
65.5111825328
11
323.763358611
21
37.6533181558
0
ARC
5
207
100
AcDbEntity
8
Camera Box Holes
6
ByLayer
62
256
370
-1
100
AcDbCircle
10
324.763358612
20
65.5111825328
40
1
100
AcDbArc
50
90
51
180
0
LINE
5
208
100
AcDbEntity
8
Camera Box Holes
6
ByLayer
62
256
370
-1
100
AcDbLine
10
324.763358612
20
66.5111825308
11
324.763358612
21
66.5111825308
0
LINE
5
209
100
AcDbEntity
8
Camera Box Holes
6
ByLayer
62
256
370
-1
100
AcDbLine
10
325.763358612
20
65.5111825328
11
325.763358612
21
37.6533181558
0
ARC
5
20A
100
AcDbEntity
8
Camera Box Holes
6
ByLayer
62
256
370
-1
100
AcDbCircle
10
324.763358612
20
65.5111825328
40
1
100
AcDbArc
50
360
51
90
0
CIRCLE
5
20B
100
AcDbEntity
8
Camera Box Holes
6
ByLayer
62
256
370
-1
100
AcDbCircle
10
302.988644174
20
28.5822503448
40
3
0
CIRCLE
5
20C
100
AcDbEntity
8
Camera Box Holes
6
ByLayer
62
256
370
-1
100
AcDbCircle
10
314.988644174
20
28.5822503448
40
3
0
CIRCLE
5
20D
100
AcDbEntity
8
Camera Box Holes
6
ByLayer
62
256
370
-1
100
AcDbCircle
10
302.988644174
20
74.5822503428
40
3
0
CIRCLE
5
20E
100
AcDbEntity
8
Camera Box Holes
6
ByLayer
62
256
370
-1
100
AcDbCircle
10
314.988644174
20
74.5822503428
40
3
0
LINE
5
20F
100
AcDbEntity
8
Camera Box
6
ByLayer
62
176
420
128
370
-1
100
AcDbLine
10
229.117309491
20
110.881973035
11
226.117309491
21
110.881973035
0
LINE
5
210
100
AcDbEntity
8
Camera Box
6
ByLayer
62
176
420
128
370
-1
100
AcDbLine
10
229.117309491
20
118.881973035
11
226.117309491
21
118.881973035
0
LINE
5
211
100
AcDbEntity
8
Camera Box
6
ByLayer
62
176
420
128
370
-1
100
AcDbLine
10
226.117309491
20
118.881973035
11
226.117309491
21
110.881973035
0
LINE
5
212
100
AcDbEntity
8
Camera Box
6
ByLayer
62
176
420
128
370
-1
100
AcDbLine
10
266.117309491
20
129.881973035
11
266.117309491
21
126.881973035
0
LINE
5
213
100
AcDbEntity
8
Camera Box
6
ByLayer
62
176
420
128
370
-1
100
AcDbLine
10
258.117309491
20
129.881973035
11
258.117309491
21
126.881973035
0
LINE
5
214
100
AcDbEntity
8
Camera Box
6
ByLayer
62
176
420
128
370
-1
100
AcDbLine
10
250.117309491
20
129.881973035
11
250.117309491
21
126.881973035
0
LINE
5
215
100
AcDbEntity
8
Camera Box
6
ByLayer
62
176
420
128
370
-1
100
AcDbLine
10
242.117309491
20
129.881973035
11
242.117309491
21
126.881973035
0
LINE
5
216
100
AcDbEntity
8
Camera Box
6
ByLayer
62
176
420
128
370
-1
100
AcDbLine
10
234.117309491
20
129.881973035
11
234.117309491
21
126.881973035
0
LINE
5
217
100
AcDbEntity
8
Camera Box
6
ByLayer
62
176
420
128
370
-1
100
AcDbLine
10
258.117309491
20
129.881973035
11
250.117309491
21
129.881973035
0
LINE
5
218
100
AcDbEntity
8
Camera Box
6
ByLayer
62
176
420
128
370
-1
100
AcDbLine
10
242.117309491
20
129.881973035
11
234.117309491
21
129.881973035
0
LINE
5
219
100
AcDbEntity
8
Camera Box
6
ByLayer
62
176
420
128
370
-1
100
AcDbLine
10
234.117309491
20
126.881973035
11
229.117309491
21
126.881973035
0
LINE
5
21A
100
AcDbEntity
8
Camera Box
6
ByLayer
62
176
420
128
370
-1
100
AcDbLine
10
266.117309491
20
126.881973035
11
258.117309491
21
126.881973035
0
LINE
5
21B
100
AcDbEntity
8
Camera Box
6
ByLayer
62
176
420
128
370
-1
100
AcDbLine
10
250.117309491
20
126.881973035
11
242.117309491
21
126.881973035
0
LINE
5
21C
100
AcDbEntity
8
Camera Box
6
ByLayer
62
176
420
128
370
-1
100
AcDbLine
10
229.117309491
20
126.881973035
11
229.117309491
21
118.881973035
0
LINE
5
21D
100
AcDbEntity
8
Camera Box
6
ByLayer
62
176
420
128
370
-1
100
AcDbLine
10
277.117309491
20
126.881973035
11
277.117309491
21
129.881973035
0
LINE
5
21E
100
AcDbEntity
8
Camera Box
6
ByLayer
62
176
420
128
370
-1
100
AcDbLine
10
277.117309491
20
129.881973035
11
266.117309491
21
129.881973035
0
LINE
5
21F
100
AcDbEntity
8
Camera Box
6
ByLayer
62
176
420
128
370
-1
100
AcDbLine
10
229.117309491
20
102.881973035
11
226.117309491
21
102.881973035
0
LINE
5
220
100
AcDbEntity
8
Camera Box
6
ByLayer
62
176
420
128
370
-1
100
AcDbLine
10
229.117309491
20
91.8819730354
11
226.117309491
21
91.8819730354
0
LINE
5
221
100
AcDbEntity
8
Camera Box
6
ByLayer
62
176
420
128
370
-1
100
AcDbLine
10
277.117309491
20
126.881973035
11
229.117309491
21
91.8819730354
0
LINE
5
222
100
AcDbEntity
8
Camera Box
6
ByLayer
62
176
420
128
370
-1
100
AcDbLine
10
226.117309491
20
91.8819730354
11
226.117309491
21
102.881973035
0
LINE
5
223
100
AcDbEntity
8
Camera Box
6
ByLayer
62
176
420
128
370
-1
100
AcDbLine
10
229.117309491
20
102.881973035
11
229.117309491
21
110.881973035
0
LINE
5
224
100
AcDbEntity
8
Camera Box
6
ByLayer
62
176
420
128
370
-1
100
AcDbLine
10
286.524085226
20
110.46656563
11
289.524085226
21
110.46656563
0
LINE
5
225
100
AcDbEntity
8
Camera Box
6
ByLayer
62
176
420
128
370
-1
100
AcDbLine
10
286.524085226
20
102.46656563
11
289.524085226
21
102.46656563
0
LINE
5
226
100
AcDbEntity
8
Camera Box
6
ByLayer
62
176
420
128
370
-1
100
AcDbLine
10
289.524085226
20
102.46656563
11
289.524085226
21
110.46656563
0
LINE
5
227
100
AcDbEntity
8
Camera Box
6
ByLayer
62
176
420
128
370
-1
100
AcDbLine
10
249.524085226
20
91.4665656304
11
249.524085226
21
94.4665656304
0
LINE
5
228
100
AcDbEntity
8
Camera Box
6
ByLayer
62
176
420
128
370
-1
100
AcDbLine
10
257.524085226
20
91.4665656304
11
257.524085226
21
94.4665656304
0
LINE
5
229
100
AcDbEntity
8
Camera Box
6
ByLayer
62
176
420
128
370
-1
100
AcDbLine
10
265.524085226
20
91.4665656304
11
265.524085226
21
94.4665656304
0
LINE
5
22A
100
AcDbEntity
8
Camera Box
6
ByLayer
62
176
420
128
370
-1
100
AcDbLine
10
273.524085226
20
91.4665656304
11
273.524085226
21
94.4665656304
0
LINE
5
22B
100
AcDbEntity
8
Camera Box
6
ByLayer
62
176
420
128
370
-1
100
AcDbLine
10
281.524085226
20
91.4665656304
11
281.524085226
21
94.4665656304
0
LINE
5
22C
100
AcDbEntity
8
Camera Box
6
ByLayer
62
176
420
128
370
-1
100
AcDbLine
10
257.524085226
20
91.4665656304
11
265.524085226
21
91.4665656304
0
LINE
5
22D
100
AcDbEntity
8
Camera Box
6
ByLayer
62
176
420
128
370
-1
100
AcDbLine
10
273.524085226
20
91.4665656304
11
281.524085226
21
91.4665656304
0
LINE
5
22E
100
AcDbEntity
8
Camera Box
6
ByLayer
62
176
420
128
370
-1
100
AcDbLine
10
281.524085226
20
94.4665656304
11
286.524085226
21
94.4665656304
0
LINE
5
22F
100
AcDbEntity
8
Camera Box
6
ByLayer
62
176
420
128
370
-1
100
AcDbLine
10
249.524085226
20
94.4665656304
11
257.524085226
21
94.4665656304
0
LINE
5
230
100
AcDbEntity
8
Camera Box
6
ByLayer
62
176
420
128
370
-1
100
AcDbLine
10
265.524085226
20
94.4665656304
11
273.524085226
21
94.4665656304
0
LINE
5
231
100
AcDbEntity
8
Camera Box
6
ByLayer
62
176
420
128
370
-1
100
AcDbLine
10
286.524085226
20
94.4665656304
11
286.524085226
21
102.46656563
0
LINE
5
232
100
AcDbEntity
8
Camera Box
6
ByLayer
62
176
420
128
370
-1
100
AcDbLine
10
238.524085226
20
94.4665656304
11
238.524085226
21
91.4665656304
0
LINE
5
233
100
AcDbEntity
8
Camera Box
6
ByLayer
62
176
420
128
370
-1
100
AcDbLine
10
238.524085226
20
91.4665656304
11
249.524085226
21
91.4665656304
0
LINE
5
234
100
AcDbEntity
8
Camera Box
6
ByLayer
62
176
420
128
370
-1
100
AcDbLine
10
286.524085226
20
118.46656563
11
289.524085226
21
118.46656563
0
LINE
5
235
100
AcDbEntity
8
Camera Box
6
ByLayer
62
176
420
128
370
-1
100
AcDbLine
10
286.524085226
20
129.46656563
11
289.524085226
21
129.46656563
0
LINE
5
236
100
AcDbEntity
8
Camera Box
6
ByLayer
62
176
420
128
370
-1
100
AcDbLine
10
238.524085226
20
94.4665656304
11
286.524085226
21
129.46656563
0
LINE
5
237
100
AcDbEntity
8
Camera Box
6
ByLayer
62
176
420
128
370
-1
100
AcDbLine
10
289.524085226
20
129.46656563
11
289.524085226
21
118.46656563
0
LINE
5
238
100
AcDbEntity
8
Camera Box
6
ByLayer
62
176
420
128
370
-1
100
AcDbLine
10
286.524085226
20
118.46656563
11
286.524085226
21
110.46656563
0
CIRCLE
5
239
100
AcDbEntity
8
Mounting Rails
6
ByLayer
62
256
370
-1
100
AcDbCircle
10
438.33606186
20
16.9776256251
40
1.6
0
ARC
5
23A
100
AcDbEntity
8
Mounting Rails
6
ByLayer
62
256
370
-1
100
AcDbCircle
10
438.33606186
20
16.9776256251
40
4
100
AcDbArc
50
270
51
90
0
LINE
5
23B
100
AcDbEntity
8
Mounting Rails
6
ByLayer
62
256
370
-1
100
AcDbLine
10
414.33606186
20
7.17762562513
11
420.33606186
21
7.17762562513
0
LINE
5
23C
100
AcDbEntity
8
Mounting Rails
6
ByLayer
62
256
370
-1
100
AcDbLine
10
414.33606186
20
10.6776256251
11
420.33606186
21
10.6776256251
0
LINE
5
23D
100
AcDbEntity
8
Mounting Rails
6
ByLayer
62
256
370
-1
100
AcDbLine
10
414.33606186
20
10.6776256251
11
414.33606186
21
7.17762562513
0
LINE
5
23E
100
AcDbEntity
8
Mounting Rails
6
ByLayer
62
256
370
-1
100
AcDbLine
10
420.33606186
20
10.6776256251
11
420.33606186
21
7.17762562513
0
ARC
5
23F
100
AcDbEntity
8
Mounting Rails
6
ByLayer
62
256
370
-1
100
AcDbCircle
10
414.33606186
20
7.17762562513
40
3
100
AcDbArc
50
180
51
270
0
LINE
5
240
100
AcDbEntity
8
Mounting Rails
6
ByLayer
62
256
370
-1
100
AcDbLine
10
414.33606186
20
4.17762562513
11
420.33606186
21
4.17762562513
0
ARC
5
241
100
AcDbEntity
8
Mounting Rails
6
ByLayer
62
256
370
-1
100
AcDbCircle
10
420.33606186
20
7.17762562513
40
3
100
AcDbArc
50
270
51
360
0
LINE
5
242
100
AcDbEntity
8
Mounting Rails
6
ByLayer
62
256
370
-1
100
AcDbLine
10
423.33606186
20
12.9776256251
11
423.33606186
21
7.17762562513
0
LINE
5
243
100
AcDbEntity
8
Mounting Rails
6
ByLayer
62
256
370
-1
100
AcDbLine
10
411.33606186
20
12.9776256251
11
411.33606186
21
7.17762562513
0
LINE
5
244
100
AcDbEntity
8
Mounting Rails
6
ByLayer
62
256
370
-1
100
AcDbLine
10
423.33606186
20
12.9776256251
11
438.33606186
21
12.9776256251
0
ARC
5
245
100
AcDbEntity
8
Mounting Rails
6
ByLayer
62
256
370
-1
100
AcDbCircle
10
438.33606186
20
50.9776256251
40
1.5
100
AcDbArc
50
90
51
270
0
ARC
5
246
100
AcDbEntity
8
Mounting Rails
6
ByLayer
62
256
370
-1
100
AcDbCircle
10
438.33606186
20
16.9776256251
40
30.1
100
AcDbArc
50
70.5785920665
51
90
0
ARC
5
247
100
AcDbEntity
8
Mounting Rails
6
ByLayer
62
256
370
-1
100
AcDbCircle
10
438.33606186
20
16.9776256251
40
32.5
100
AcDbArc
50
70.5785920665
51
90
0
ARC
5
248
100
AcDbEntity
8
Mounting Rails
6
ByLayer
62
256
370
-1
100
AcDbCircle
10
438.33606186
20
16.9776256251
40
35.5
100
AcDbArc
50
70.5785920665
51
90
0
ARC
5
249
100
AcDbEntity
8
Mounting Rails
6
ByLayer
62
256
370
-1
100
AcDbCircle
10
438.33606186
20
16.9776256251
40
37.9
100
AcDbArc
50
70.5785920665
51
90
0
ARC
5
24A
100
AcDbEntity
8
Mounting Rails
6
ByLayer
62
256
370
-1
100
AcDbCircle
10
449.641521995
20
49.0429740737
40
3.9
100
AcDbArc
50
250.578592066
51
70.5785920665
0
ARC
5
24B
100
AcDbEntity
8
Mounting Rails
6
ByLayer
62
256
370
-1
100
AcDbCircle
10
449.641521995
20
49.0429740737
40
1.5
100
AcDbArc
50
250.578592066
51
70.5785920665
0
ARC
5
24C
100
AcDbEntity
8
Mounting Rails
6
ByLayer
62
256
370
-1
100
AcDbCircle
10
435.33606186
20
23.9776256251
40
3
100
AcDbArc
50
180
51
270
0
LINE
5
24D
100
AcDbEntity
8
Mounting Rails
6
ByLayer
62
256
370
-1
100
AcDbLine
10
432.33606186
20
23.9776256251
11
432.33606186
21
44.0776256251
0
LINE
5
24E
100
AcDbEntity
8
Mounting Rails
6
ByLayer
62
256
370
-1
100
AcDbLine
10
438.33606186
20
47.0776256251
11
435.33606186
21
47.0776256251
0
ARC
5
24F
100
AcDbEntity
8
Mounting Rails
6
ByLayer
62
256
370
-1
100
AcDbCircle
10
435.33606186
20
44.0776256251
40
3
100
AcDbArc
50
90
51
180
0
LINE
5
250
100
AcDbEntity
8
Mounting Rails
6
ByLayer
62
256
370
-1
100
AcDbLine
10
438.33606186
20
20.9776256251
11
435.33606186
21
20.9776256251
0
ARC
5
251
100
AcDbEntity
8
Mounting Rails
6
ByLayer
62
256
370
-1
100
AcDbCircle
10
421.33606186
20
23.9776256251
40
3
100
AcDbArc
50
270
51
0
0
LINE
5
252
100
AcDbEntity
8
Mounting Rails
6
ByLayer
62
256
370
-1
100
AcDbLine
10
421.33606186
20
20.9776256251
11
405.571090703
21
20.9776256251
0
ARC
5
253
100
AcDbEntity
8
Mounting Rails
6
ByLayer
62
256
370
-1
100
AcDbCircle
10
405.571090703
20
22.4776256251
40
1.5
100
AcDbArc
50
135
51
270
0
LINE
5
254
100
AcDbEntity
8
Mounting Rails
6
ByLayer
62
256
370
-1
100
AcDbLine
10
424.33606186
20
23.9776256251
11
424.33606186
21
39.7425967826
0
LINE
5
255
100
AcDbEntity
8
Mounting Rails
6
ByLayer
62
256
370
-1
100
AcDbLine
10
421.775401688
20
40.8032569543
11
404.510430531
21
23.5382857969
0
ARC
5
256
100
AcDbEntity
8
Mounting Rails
6
ByLayer
62
256
370
-1
100
AcDbCircle
10
422.83606186
20
39.7425967826
40
1.5
100
AcDbArc
50
0
51
135
0
LINE
5
257
100
AcDbEntity
8
Mounting Rails
6
ByLayer
62
256
370
-1
100
AcDbLine
10
438.33606186
20
54.8776256251
11
426.400022891
21
54.8776256251
0
ARC
5
258
100
AcDbEntity
8
Mounting Rails
6
ByLayer
62
256
370
-1
100
AcDbCircle
10
426.400022891
20
50.3776256251
40
4.5
100
AcDbArc
50
90
51
135
0
LINE
5
259
100
AcDbEntity
8
Mounting Rails
6
ByLayer
62
256
370
-1
100
AcDbLine
10
423.218042375
20
53.5596061404
11
391.954081345
21
22.2956451098
0
ARC
5
25A
100
AcDbEntity
8
Mounting Rails
6
ByLayer
62
256
370
-1
100
AcDbCircle
10
388.772100829
20
25.4776256251
40
4.5
100
AcDbArc
50
270
51
315
0
LINE
5
25B
100
AcDbEntity
8
Mounting Rails
6
ByLayer
62
256
370
-1
100
AcDbLine
10
352.33606186
20
9.97762562513
11
357.33606186
21
9.97762562513
0
LINE
5
25C
100
AcDbEntity
8
Mounting Rails
6
ByLayer
62
256
370
-1
100
AcDbLine
10
352.33606186
20
9.97762562513
11
352.33606186
21
9.97762562513
0
ARC
5
25D
100
AcDbEntity
8
Mounting Rails
6
ByLayer
62
256
370
-1
100
AcDbCircle
10
356.33606186
20
9.97762562513
40
4
100
AcDbArc
50
180
51
270
0
LINE
5
25E
100
AcDbEntity
8
Mounting Rails
6
ByLayer
62
256
370
-1
100
AcDbLine
10
356.33606186
20
5.97762562513
11
358.33606186
21
5.97762562513
0
ARC
5
25F
100
AcDbEntity
8
Mounting Rails
6
ByLayer
62
256
370
-1
100
AcDbCircle
10
358.33606186
20
9.97762562513
40
4
100
AcDbArc
50
270
51
0
0
LINE
5
260
100
AcDbEntity
8
Mounting Rails
6
ByLayer
62
256
370
-1
100
AcDbLine
10
362.33606186
20
12.9776256251
11
362.33606186
21
9.97762562513
0
ARC
5
261
100
AcDbEntity
8
Mounting Rails
6
ByLayer
62
256
370
-1
100
AcDbCircle
10
360.33606186
20
17.9776256251
40
3
100
AcDbArc
50
90
51
180
0
LINE
5
262
100
AcDbEntity
8
Mounting Rails
6
ByLayer
62
256
370
-1
100
AcDbLine
10
357.33606186
20
17.9776231019
11
357.33606186
21
9.97762562513
0
LINE
5
263
100
AcDbEntity
8
Mounting Rails
6
ByLayer
62
256
370
-1
100
AcDbLine
10
388.772100829
20
20.9776256251
11
360.33606186
21
20.9776256251
0
LINE
5
264
100
AcDbEntity
8
Mounting Rails
6
ByLayer
62
256
370
-1
100
AcDbLine
10
362.33606186
20
12.9776256251
11
411.33606186
21
12.9776256251
0
CIRCLE
5
265
100
AcDbEntity
8
Mounting Rails
6
ByLayer
62
256
370
-1
100
AcDbCircle
10
367.76291111
20
63.2504340318
40
1.6
0
ARC
5
266
100
AcDbEntity
8
Mounting Rails
6
ByLayer
62
256
370
-1
100
AcDbCircle
10
367.76291111
20
63.2504340318
40
4
100
AcDbArc
50
90
51
270
0
LINE
5
267
100
AcDbEntity
8
Mounting Rails
6
ByLayer
62
256
370
-1
100
AcDbLine
10
391.76291111
20
73.0504340318
11
385.76291111
21
73.0504340318
0
LINE
5
268
100
AcDbEntity
8
Mounting Rails
6
ByLayer
62
256
370
-1
100
AcDbLine
10
391.76291111
20
69.5504340318
11
385.76291111
21
69.5504340318
0
LINE
5
269
100
AcDbEntity
8
Mounting Rails
6
ByLayer
62
256
370
-1
100
AcDbLine
10
391.76291111
20
69.5504340318
11
391.76291111
21
73.0504340318
0
LINE
5
26A
100
AcDbEntity
8
Mounting Rails
6
ByLayer
62
256
370
-1
100
AcDbLine
10
385.76291111
20
69.5504340318
11
385.76291111
21
73.0504340318
0
ARC
5
26B
100
AcDbEntity
8
Mounting Rails
6
ByLayer
62
256
370
-1
100
AcDbCircle
10
391.76291111
20
73.0504340318
40
3
100
AcDbArc
50
360
51
90
0
LINE
5
26C
100
AcDbEntity
8
Mounting Rails
6
ByLayer
62
256
370
-1
100
AcDbLine
10
391.76291111
20
76.0504340318
11
385.76291111
21
76.0504340318
0
ARC
5
26D
100
AcDbEntity
8
Mounting Rails
6
ByLayer
62
256
370
-1
100
AcDbCircle
10
385.76291111
20
73.0504340318
40
3
100
AcDbArc
50
90
51
180
0
LINE
5
26E
100
AcDbEntity
8
Mounting Rails
6
ByLayer
62
256
370
-1
100
AcDbLine
10
382.76291111
20
67.2504340318
11
382.76291111
21
73.0504340318
0
LINE
5
26F
100
AcDbEntity
8
Mounting Rails
6
ByLayer
62
256
370
-1
100
AcDbLine
10
394.76291111
20
67.2504340318
11
394.76291111
21
73.0504340318
0
LINE
5
270
100
AcDbEntity
8
Mounting Rails
6
ByLayer
62
256
370
-1
100
AcDbLine
10
382.76291111
20
67.2504340318
11
367.76291111
21
67.2504340318
0
ARC
5
271
100
AcDbEntity
8
Mounting Rails
6
ByLayer
62
256
370
-1
100
AcDbCircle
10
367.76291111
20
29.2504340318
40
1.5
100
AcDbArc
50
270
51
90
0
ARC
5
272
100
AcDbEntity
8
Mounting Rails
6
ByLayer
62
256
370
-1
100
AcDbCircle
10
367.76291111
20
63.2504340318
40
30.1
100
AcDbArc
50
250.578592066
51
270
0
ARC
5
273
100
AcDbEntity
8
Mounting Rails
6
ByLayer
62
256
370
-1
100
AcDbCircle
10
367.76291111
20
63.2504340318
40
32.5
100
AcDbArc
50
250.578592066
51
270
0
ARC
5
274
100
AcDbEntity
8
Mounting Rails
6
ByLayer
62
256
370
-1
100
AcDbCircle
10
367.76291111
20
63.2504340318
40
35.5
100
AcDbArc
50
250.578592066
51
270
0
ARC
5
275
100
AcDbEntity
8
Mounting Rails
6
ByLayer
62
256
370
-1
100
AcDbCircle
10
367.76291111
20
63.2504340318
40
37.9
100
AcDbArc
50
250.578592066
51
270
0
ARC
5
276
100
AcDbEntity
8
Mounting Rails
6
ByLayer
62
256
370
-1
100
AcDbCircle
10
356.457450975
20
31.1850855828
40
3.9
100
AcDbArc
50
70.5785920665
51
250.578592066
0
ARC
5
277
100
AcDbEntity
8
Mounting Rails
6
ByLayer
62
256
370
-1
100
AcDbCircle
10
356.457450975
20
31.1850855828
40
1.5
100
AcDbArc
50
70.5785920665
51
250.578592066
0
ARC
5
278
100
AcDbEntity
8
Mounting Rails
6
ByLayer
62
256
370
-1
100
AcDbCircle
10
370.76291111
20
56.2504340318
40
3
100
AcDbArc
50
360
51
90
0
LINE
5
279
100
AcDbEntity
8
Mounting Rails
6
ByLayer
62
256
370
-1
100
AcDbLine
10
373.76291111
20
56.2504340318
11
373.76291111
21
36.1504340318
0
LINE
5
27A
100
AcDbEntity
8
Mounting Rails
6
ByLayer
62
256
370
-1
100
AcDbLine
10
367.76291111
20
33.1504340318
11
370.76291111
21
33.1504340318
0
ARC
5
27B
100
AcDbEntity
8
Mounting Rails
6
ByLayer
62
256
370
-1
100
AcDbCircle
10
370.76291111
20
36.1504340318
40
3
100
AcDbArc
50
270
51
360
0
LINE
5
27C
100
AcDbEntity
8
Mounting Rails
6
ByLayer
62
256
370
-1
100
AcDbLine
10
367.76291111
20
59.2504340318
11
370.76291111
21
59.2504340318
0
ARC
5
27D
100
AcDbEntity
8
Mounting Rails
6
ByLayer
62
256
370
-1
100
AcDbCircle
10
384.76291111
20
56.2504340318
40
3
100
AcDbArc
50
90
51
180
0
LINE
5
27E
100
AcDbEntity
8
Mounting Rails
6
ByLayer
62
256
370
-1
100
AcDbLine
10
384.76291111
20
59.2504340318
11
400.527882267
21
59.2504340318
0
ARC
5
27F
100
AcDbEntity
8
Mounting Rails
6
ByLayer
62
256
370
-1
100
AcDbCircle
10
400.527882267
20
57.7504340318
40
1.5
100
AcDbArc
50
315
51
90
0
LINE
5
280
100
AcDbEntity
8
Mounting Rails
6
ByLayer
62
256
370
-1
100
AcDbLine
10
381.76291111
20
56.2504340318
11
381.76291111
21
40.4854628748
0
LINE
5
281
100
AcDbEntity
8
Mounting Rails
6
ByLayer
62
256
370
-1
100
AcDbLine
10
384.323571282
20
39.4248027028
11
401.588542439
21
56.6897738598
0
ARC
5
282
100
AcDbEntity
8
Mounting Rails
6
ByLayer
62
256
370
-1
100
AcDbCircle
10
383.26291111
20
40.4854628748
40
1.5
100
AcDbArc
50
180
51
315
0
LINE
5
283
100
AcDbEntity
8
Mounting Rails
6
ByLayer
62
256
370
-1
100
AcDbLine
10
367.76291111
20
25.3504340318
11
379.698950079
21
25.3504340318
0
ARC
5
284
100
AcDbEntity
8
Mounting Rails
6
ByLayer
62
256
370
-1
100
AcDbCircle
10
379.698950079
20
29.8504340318
40
4.5
100
AcDbArc
50
270
51
315
0
LINE
5
285
100
AcDbEntity
8
Mounting Rails
6
ByLayer
62
256
370
-1
100
AcDbLine
10
382.880930595
20
26.6684535168
11
414.144891625
21
57.9324145468
0
ARC
5
286
100
AcDbEntity
8
Mounting Rails
6
ByLayer
62
256
370
-1
100
AcDbCircle
10
417.326872141
20
54.7504340318
40
4.5
100
AcDbArc
50
90
51
135
0
LINE
5
287
100
AcDbEntity
8
Mounting Rails
6
ByLayer
62
256
370
-1
100
AcDbLine
10
453.76291111
20
70.2504340318
11
448.76291111
21
70.2504340318
0
LINE
5
288
100
AcDbEntity
8
Mounting Rails
6
ByLayer
62
256
370
-1
100
AcDbLine
10
453.76291111
20
70.2504340318
11
453.76291111
21
70.2504340318
0
ARC
5
289
100
AcDbEntity
8
Mounting Rails
6
ByLayer
62
256
370
-1
100
AcDbCircle
10
449.76291111
20
70.2504340318
40
4
100
AcDbArc
50
360
51
90
0
LINE
5
28A
100
AcDbEntity
8
Mounting Rails
6
ByLayer
62
256
370
-1
100
AcDbLine
10
449.76291111
20
74.2504340318
11
447.76291111
21
74.2504340318
0
ARC
5
28B
100
AcDbEntity
8
Mounting Rails
6
ByLayer
62
256
370
-1
100
AcDbCircle
10
447.76291111
20
70.2504340318
40
4
100
AcDbArc
50
90
51
180
0
LINE
5
28C
100
AcDbEntity
8
Mounting Rails
6
ByLayer
62
256
370
-1
100
AcDbLine
10
443.76291111
20
67.2504340318
11
443.76291111
21
70.2504340318
0
ARC
5
28D
100
AcDbEntity
8
Mounting Rails
6
ByLayer
62
256
370
-1
100
AcDbCircle
10
445.76291111
20
62.2504340318
40
3
100
AcDbArc
50
270
51
360
0
LINE
5
28E
100
AcDbEntity
8
Mounting Rails
6
ByLayer
62
256
370
-1
100
AcDbLine
10
448.76291111
20
62.2504365548
11
448.76291111
21
70.2504340318
0
LINE
5
28F
100
AcDbEntity
8
Mounting Rails
6
ByLayer
62
256
370
-1
100
AcDbLine
10
443.76291111
20
67.2504340318
11
394.76291111
21
67.2504340318
0
LINE
5
290
100
AcDbEntity
8
Mounting Rails
6
ByLayer
62
256
370
-1
100
AcDbLine
10
417.326872141
20
59.2504340318
11
445.762905715
21
59.2504340318
0
ENDSEC
0
SECTION
2
OBJECTS
0
DICTIONARY
5
C
330
0
100
AcDbDictionary
281
1
3
ACAD_GROUP
350
D
0
DICTIONARY
5
D
330
C
100
AcDbDictionary
281
1
0
ENDSEC
0
EOF
