999
dxfrw 0.5.10
0
SECTION
2
HEADER
9
$ACADVER
1
AC1021
9
$HANDSEED
5
20000
9
$DWGCODEPAGE
3
ANSI_1252
9
$INSBASE
10
0
20
0
30
0
9
$EXTMIN
10
1.91468642884
20
2.39593782867
30
0
9
$EXTMAX
10
410.049500572
20
129.675158443
30
0
9
$LIMMIN
10
0
20
0
9
$LIMMAX
10
420
20
297
9
$ORTHOMODE
70
0
9
$LTSCALE
40
1
9
$TEXTSTYLE
7
STANDARD
9
$CLAYER
8
Mounting Rails
9
$DIMASZ
40
2.5
9
$DIMLFAC
40
1
9
$DIMSCALE
40
1
9
$DIMEXO
40
0.625
9
$DIMEXE
40
1.25
9
$DIMTXT
40
2.5
9
$DIMTSZ
40
0
9
$DIMAUNIT
70
0
9
$DIMADEC
70
0
9
$DIMLUNIT
70
2
9
$DIMSTYLE
2
STANDARD
9
$DIMGAP
40
0.625
9
$DIMTIH
70
0
9
$LUNITS
70
2
9
$LUPREC
70
4
9
$AUNITS
70
0
9
$AUPREC
70
2
9
$SPLINESEGS
70
8
9
$GRIDMODE
70
1
9
$SNAPSTYLE
70
0
9
$PINSBASE
10
0
20
0
30
0
9
$PLIMMIN
10
0
20
0
9
$PLIMMAX
10
210
20
297
9
$INSUNITS
70
4
9
$PSVPSCALE
40
1
0
ENDSEC
0
SECTION
2
CLASSES
0
ENDSEC
0
SECTION
2
TABLES
0
TABLE
2
VPORT
5
8
330
0
100
AcDbSymbolTable
70
1
0
VPORT
5
31
330
2
100
AcDbSymbolTableRecord
100
AcDbViewportTableRecord
2
*ACTIVE
70
0
10
0
20
0
11
1
21
1
12
206.561737486
22
84.3395471548
13
0
23
0
14
10
24
10
15
10
25
10
16
0
26
0
36
1
17
0
27
0
37
0
40
205.158676628
41
2.01975683891
42
50
43
0
44
0
50
0
51
0
71
0
72
100
73
1
74
3
75
0
76
1
77
0
78
0
281
0
65
1
110
0
120
0
130
0
111
1
121
0
131
0
112
0
122
1
132
0
79
0
146
0
348
10020
60
7
61
5
292
1
282
1
141
0
142
0
63
250
421
3358443
0
ENDTAB
0
TABLE
2
LTYPE
5
5
330
0
100
AcDbSymbolTable
70
4
0
LTYPE
5
14
330
5
100
AcDbSymbolTableRecord
100
AcDbLinetypeTableRecord
2
ByBlock
70
0
3

72
65
73
0
40
0
0
LTYPE
5
15
330
5
100
AcDbSymbolTableRecord
100
AcDbLinetypeTableRecord
2
ByLayer
70
0
3

72
65
73
0
40
0
0
LTYPE
5
16
330
5
100
AcDbSymbolTableRecord
100
AcDbLinetypeTableRecord
2
Continuous
70
0
3
Solid line
72
65
73
0
40
0
0
LTYPE
5
32
330
5
100
AcDbSymbolTableRecord
100
AcDbLinetypeTableRecord
2
DOT
70
0
3
Dot . . . . . . . . . . . . . . . . . . . . . .
72
65
73
2
40
6.35
49
0
74
0
49
-6.35
74
0
0
LTYPE
5
33
330
5
100
AcDbSymbolTableRecord
100
AcDbLinetypeTableRecord
2
DOT2
70
0
3
Dot (.5x) .....................................
72
65
73
2
40
3.175
49
0
74
0
49
-3.175
74
0
0
LTYPE
5
34
330
5
100
AcDbSymbolTableRecord
100
AcDbLinetypeTableRecord
2
DOTX2
70
0
3
Dot (2x) .  .  .  .  .  .  .  .  .  .  .  .  .
72
65
73
2
40
12.7
49
0
74
0
49
-12.7
74
0
0
LTYPE
5
35
330
5
100
AcDbSymbolTableRecord
100
AcDbLinetypeTableRecord
2
DASHED
70
0
3
Dot . . . . . . . . . . . . . . . . . . . . . .
72
65
73
2
40
19.05
49
12.7
74
0
49
-6.35
74
0
0
LTYPE
5
36
330
5
100
AcDbSymbolTableRecord
100
AcDbLinetypeTableRecord
2
DASHED2
70
0
3
Dashed (.5x) _ _ _ _ _ _ _ _ _ _ _ _ _ _ _ _ _
72
65
73
2
40
9.525
49
6.35
74
0
49
-3.175
74
0
0
LTYPE
5
37
330
5
100
AcDbSymbolTableRecord
100
AcDbLinetypeTableRecord
2
DASHEDX2
70
0
3
Dashed (2x) ____  ____  ____  ____  ____  ___
72
65
73
2
40
38.1
49
25.4
74
0
49
-12.7
74
0
0
LTYPE
5
38
330
5
100
AcDbSymbolTableRecord
100
AcDbLinetypeTableRecord
2
DASHDOT
70
0
3
Dash dot __ . __ . __ . __ . __ . __ . __ . __
72
65
73
4
40
25.4
49
12.7
74
0
49
-6.35
74
0
49
0
74
0
49
-6.35
74
0
0
LTYPE
5
39
330
5
100
AcDbSymbolTableRecord
100
AcDbLinetypeTableRecord
2
DASHDOT2
70
0
3
Dash dot (.5x) _._._._._._._._._._._._._._._.
72
65
73
4
40
12.7
49
6.35
74
0
49
-3.175
74
0
49
0
74
0
49
-3.175
74
0
0
LTYPE
5
3A
330
5
100
AcDbSymbolTableRecord
100
AcDbLinetypeTableRecord
2
DASHDOTX2
70
0
3
Dash dot (2x) ____  .  ____  .  ____  .  ___
72
65
73
4
40
50.8
49
25.4
74
0
49
-12.7
74
0
49
0
74
0
49
-12.7
74
0
0
LTYPE
5
3B
330
5
100
AcDbSymbolTableRecord
100
AcDbLinetypeTableRecord
2
DIVIDE
70
0
3
Divide ____ . . ____ . . ____ . . ____ . . ____
72
65
73
6
40
31.75
49
12.7
74
0
49
-6.35
74
0
49
0
74
0
49
-6.35
74
0
49
0
74
0
49
-6.35
74
0
0
LTYPE
5
3C
330
5
100
AcDbSymbolTableRecord
100
AcDbLinetypeTableRecord
2
DIVIDE2
70
0
3
Divide (.5x) __..__..__..__..__..__..__..__.._
72
65
73
6
40
15.875
49
6.35
74
0
49
-3.175
74
0
49
0
74
0
49
-3.175
74
0
49
0
74
0
49
-3.175
74
0
0
LTYPE
5
3D
330
5
100
AcDbSymbolTableRecord
100
AcDbLinetypeTableRecord
2
DIVIDEX2
70
0
3
Divide (2x) ________  .  .  ________  .  .  _
72
65
73
6
40
63.5
49
25.4
74
0
49
-12.7
74
0
49
0
74
0
49
-12.7
74
0
49
0
74
0
49
-12.7
74
0
0
LTYPE
5
3E
330
5
100
AcDbSymbolTableRecord
100
AcDbLinetypeTableRecord
2
BORDER
70
0
3
Border __ __ . __ __ . __ __ . __ __ . __ __ .
72
65
73
6
40
44.45
49
12.7
74
0
49
-6.35
74
0
49
12.7
74
0
49
-6.35
74
0
49
0
74
0
49
-6.35
74
0
0
LTYPE
5
3F
330
5
100
AcDbSymbolTableRecord
100
AcDbLinetypeTableRecord
2
BORDER2
70
0
3
Border (.5x) __.__.__.__.__.__.__.__.__.__.__.
72
65
73
6
40
22.225
49
6.35
74
0
49
-3.175
74
0
49
6.35
74
0
49
-3.175
74
0
49
0
74
0
49
-3.175
74
0
0
LTYPE
5
40
330
5
100
AcDbSymbolTableRecord
100
AcDbLinetypeTableRecord
2
BORDERX2
70
0
3
Border (2x) ____  ____  .  ____  ____  .  ___
72
65
73
6
40
88.9
49
25.4
74
0
49
-12.7
74
0
49
25.4
74
0
49
-12.7
74
0
49
0
74
0
49
-12.7
74
0
0
LTYPE
5
41
330
5
100
AcDbSymbolTableRecord
100
AcDbLinetypeTableRecord
2
CENTER
70
0
3
Center ____ _ ____ _ ____ _ ____ _ ____ _ ____
72
65
73
4
40
50.8
49
31.75
74
0
49
-6.35
74
0
49
6.35
74
0
49
-6.35
74
0
0
LTYPE
5
42
330
5
100
AcDbSymbolTableRecord
100
AcDbLinetypeTableRecord
2
CENTER2
70
0
3
Center (.5x) ___ _ ___ _ ___ _ ___ _ ___ _ ___
72
65
73
4
40
28.575
49
19.05
74
0
49
-3.175
74
0
49
3.175
74
0
49
-3.175
74
0
0
LTYPE
5
43
330
5
100
AcDbSymbolTableRecord
100
AcDbLinetypeTableRecord
2
CENTERX2
70
0
3
Center (2x) ________  __  ________  __  _____
72
65
73
4
40
101.6
49
63.5
74
0
49
-12.7
74
0
49
12.7
74
0
49
-12.7
74
0
0
ENDTAB
0
TABLE
2
LAYER
5
2
330
0
100
AcDbSymbolTable
70
1
0
LAYER
5
10
330
2
100
AcDbSymbolTableRecord
100
AcDbLayerTableRecord
2
0
70
0
62
7
6
CONTINUOUS
370
0
390
F
0
LAYER
5
44
330
2
100
AcDbSymbolTableRecord
100
AcDbLayerTableRecord
2
Mounting Rails
70
0
62
96
420
32768
6
CONTINUOUS
370
0
390
F
0
LAYER
5
45
330
2
100
AcDbSymbolTableRecord
100
AcDbLayerTableRecord
2
bottom plate
70
0
62
136
420
32896
6
CONTINUOUS
370
-3
390
F
0
LAYER
5
46
330
2
100
AcDbSymbolTableRecord
100
AcDbLayerTableRecord
2
plate mounts
70
0
62
56
420
8421376
6
CONTINUOUS
370
0
390
F
0
LAYER
5
47
330
2
100
AcDbSymbolTableRecord
100
AcDbLayerTableRecord
2
Camera Box
70
0
62
176
420
128
6
CONTINUOUS
370
-3
390
F
0
ENDTAB
0
TABLE
2
STYLE
5
3
330
0
100
AcDbSymbolTable
70
3
0
STYLE
5
48
330
2
100
AcDbSymbolTableRecord
100
AcDbTextStyleTableRecord
2
Standard
70
0
40
0
41
1
50
0
71
0
42
1
3
txt
4

0
ENDTAB
0
TABLE
2
VIEW
5
6
330
0
100
AcDbSymbolTable
70
0
0
ENDTAB
0
TABLE
2
UCS
5
7
330
0
100
AcDbSymbolTable
70
0
0
ENDTAB
0
TABLE
2
APPID
5
9
330
0
100
AcDbSymbolTable
70
1
0
APPID
5
12
330
9
100
AcDbSymbolTableRecord
100
AcDbRegAppTableRecord
2
ACAD
70
0
0
ENDTAB
0
TABLE
2
DIMSTYLE
5
A
330
0
100
AcDbSymbolTable
70
1
100
AcDbDimStyleTable
71
1
0
DIMSTYLE
105
49
330
A
100
AcDbSymbolTableRecord
100
AcDbDimStyleTableRecord
2
Standard
70
0
40
1
41
2.5
42
0.625
43
0.38
44
1.25
45
0
46
0
47
0
48
0
140
2.5
141
0.09
142
0
143
25.4
144
1
145
0
146
1
147
0.625
148
0
71
0
72
0
73
0
74
1
75
0
76
0
77
0
78
0
79
0
170
0
171
2
172
0
173
0
174
0
175
0
176
0
177
0
178
0
179
0
271
4
272
4
273
2
274
2
275
0
276
0
277
2
278
46
279
0
280
0
281
0
282
0
283
1
284
0
285
0
286
0
288
0
289
3
340
Standard
341

371
-2
372
-2
0
ENDTAB
0
TABLE
2
BLOCK_RECORD
5
1
330
0
100
AcDbSymbolTable
70
2
0
BLOCK_RECORD
5
1F
330
1
100
AcDbSymbolTableRecord
100
AcDbBlockTableRecord
2
*Model_Space
70
0
280
1
281
0
0
BLOCK_RECORD
5
1E
330
1
100
AcDbSymbolTableRecord
100
AcDbBlockTableRecord
2
*Paper_Space
70
0
280
1
281
0
0
ENDTAB
0
ENDSEC
0
SECTION
2
BLOCKS
0
BLOCK
5
20
330
1F
100
AcDbEntity
8
0
100
AcDbBlockBegin
2
*Model_Space
70
0
10
0
20
0
30
0
3
*Model_Space
1

0
ENDBLK
5
21
330
1F
100
AcDbEntity
8
0
100
AcDbBlockEnd
0
BLOCK
5
1C
330
1B
100
AcDbEntity
8
0
100
AcDbBlockBegin
2
*Paper_Space
70
0
10
0
20
0
30
0
3
*Paper_Space
1

0
ENDBLK
5
1D
330
1F
100
AcDbEntity
8
0
100
AcDbBlockEnd
0
ENDSEC
0
SECTION
2
ENTITIES
0
ARC
5
4A
100
AcDbEntity
8
bottom plate
6
ByLayer
62
256
370
-1
100
AcDbCircle
10
99.273156234
20
120.604090631
40
2
100
AcDbArc
50
90
51
180
0
LINE
5
4B
100
AcDbEntity
8
bottom plate
6
ByLayer
62
256
370
-1
100
AcDbLine
10
99.273156234
20
122.604090631
11
151.841698728
21
122.604090631
0
ARC
5
4C
100
AcDbEntity
8
bottom plate
6
ByLayer
62
256
370
-1
100
AcDbCircle
10
151.841698728
20
120.604090631
40
2
100
AcDbArc
50
360
51
90
0
LINE
5
4D
100
AcDbEntity
8
bottom plate
6
ByLayer
62
256
370
-1
100
AcDbLine
10
153.841698728
20
120.604090631
11
153.841698728
21
116.361449944
0
LINE
5
4E
100
AcDbEntity
8
bottom plate
6
ByLayer
62
256
370
-1
100
AcDbLine
10
97.273156234
20
116.361449944
11
97.273156234
21
120.604090631
0
ARC
5
4F
100
AcDbEntity
8
bottom plate
6
ByLayer
62
256
370
-1
100
AcDbCircle
10
84.787874859
20
125.675158443
40
4
100
AcDbArc
50
90
51
135
0
ARC
5
50
100
AcDbEntity
8
bottom plate
6
ByLayer
62
256
370
-1
100
AcDbCircle
10
84.787874859
20
6.39593782967
40
4
100
AcDbArc
50
225
51
270
0
LINE
5
51
100
AcDbEntity
8
bottom plate
6
ByLayer
62
256
370
-1
100
AcDbLine
10
166.326980103
20
2.39593782867
11
84.787874859
21
2.39593782867
0
ARC
5
52
100
AcDbEntity
8
bottom plate
6
ByLayer
62
256
370
-1
100
AcDbCircle
10
166.326980103
20
6.39593782967
40
4
100
AcDbArc
50
270
51
315
0
LINE
5
53
100
AcDbEntity
8
bottom plate
6
ByLayer
62
256
370
-1
100
AcDbLine
10
84.787874859
20
129.675158443
11
166.326980103
21
129.675158443
0
ARC
5
54
100
AcDbEntity
8
bottom plate
6
ByLayer
62
256
370
-1
100
AcDbCircle
10
166.326980103
20
125.675158443
40
4
100
AcDbArc
50
45
51
90
0
ARC
5
55
100
AcDbEntity
8
bottom plate
6
ByLayer
62
256
370
-1
100
AcDbCircle
10
151.841698728
20
11.4670056407
40
2
100
AcDbArc
50
270
51
360
0
LINE
5
56
100
AcDbEntity
8
bottom plate
6
ByLayer
62
256
370
-1
100
AcDbLine
10
151.841698728
20
9.46700564167
11
99.273156234
21
9.46700564067
0
ARC
5
57
100
AcDbEntity
8
bottom plate
6
ByLayer
62
256
370
-1
100
AcDbCircle
10
99.273156234
20
11.4670056417
40
2
100
AcDbArc
50
180
51
270
0
LINE
5
58
100
AcDbEntity
8
bottom plate
6
ByLayer
62
256
370
-1
100
AcDbLine
10
97.273156234
20
11.4670056407
11
97.273156234
21
15.7096463277
0
LINE
5
59
100
AcDbEntity
8
bottom plate
6
ByLayer
62
256
370
-1
100
AcDbLine
10
153.841698728
20
15.7096463287
11
153.841698728
21
11.4670056417
0
LINE
5
5A
100
AcDbEntity
8
bottom plate
6
ByLayer
62
256
370
-1
100
AcDbLine
10
187.924959849
20
109.734032946
11
169.155407227
21
128.503585568
0
LINE
5
5B
100
AcDbEntity
8
bottom plate
6
ByLayer
62
256
370
-1
100
AcDbLine
10
187.924959849
20
22.3370633256
11
169.155407227
21
3.56751070367
0
LINE
5
5C
100
AcDbEntity
8
bottom plate
6
ByLayer
62
256
370
-1
100
AcDbLine
10
63.1898951131
20
109.734032946
11
81.959447735
21
128.503585568
0
LINE
5
5D
100
AcDbEntity
8
bottom plate
6
ByLayer
62
256
370
-1
100
AcDbLine
10
63.1898951131
20
22.3370633256
11
81.959447735
21
3.56751070367
0
ARC
5
5E
100
AcDbEntity
8
bottom plate
6
ByLayer
62
256
370
-1
100
AcDbCircle
10
151.841698728
20
116.361449944
40
2
100
AcDbArc
50
315
51
360
0
LINE
5
5F
100
AcDbEntity
8
bottom plate
6
ByLayer
62
256
370
-1
100
AcDbLine
10
140.285349543
20
101.976673633
11
153.255912291
21
114.947236382
0
ARC
5
60
100
AcDbEntity
8
bottom plate
6
ByLayer
62
256
370
-1
100
AcDbCircle
10
138.87113598
20
103.390887196
40
2
100
AcDbArc
50
270
51
315
0
ARC
5
61
100
AcDbEntity
8
bottom plate
6
ByLayer
62
256
370
-1
100
AcDbCircle
10
99.273156234
20
116.361449944
40
2
100
AcDbArc
50
180
51
225
0
LINE
5
62
100
AcDbEntity
8
bottom plate
6
ByLayer
62
256
370
-1
100
AcDbLine
10
97.858942671
20
114.947236382
11
110.829505419
21
101.976673633
0
LINE
5
63
100
AcDbEntity
8
bottom plate
6
ByLayer
62
256
370
-1
100
AcDbLine
10
112.243718983
20
101.390887196
11
138.871135979
21
101.390887196
0
ARC
5
64
100
AcDbEntity
8
bottom plate
6
ByLayer
62
256
370
-1
100
AcDbCircle
10
112.243718982
20
103.390887196
40
2
100
AcDbArc
50
225
51
270
0
ARC
5
65
100
AcDbEntity
8
bottom plate
6
ByLayer
62
256
370
-1
100
AcDbCircle
10
99.273156234
20
15.7096463287
40
2
100
AcDbArc
50
135
51
180
0
LINE
5
66
100
AcDbEntity
8
bottom plate
6
ByLayer
62
256
370
-1
100
AcDbLine
10
110.829505419
20
30.0944226387
11
97.858942671
21
17.1238598907
0
ARC
5
67
100
AcDbEntity
8
bottom plate
6
ByLayer
62
256
370
-1
100
AcDbCircle
10
112.243718982
20
28.6802090767
40
2
100
AcDbArc
50
90
51
135
0
ARC
5
68
100
AcDbEntity
8
bottom plate
6
ByLayer
62
256
370
-1
100
AcDbCircle
10
151.841698728
20
15.7096463277
40
2
100
AcDbArc
50
360
51
45
0
LINE
5
69
100
AcDbEntity
8
bottom plate
6
ByLayer
62
256
370
-1
100
AcDbLine
10
153.255912291
20
17.1238598907
11
140.285349543
21
30.0944226387
0
LINE
5
6A
100
AcDbEntity
8
bottom plate
6
ByLayer
62
256
370
-1
100
AcDbLine
10
138.87113598
20
30.6802090787
11
112.243718982
21
30.6802090777
0
ARC
5
6B
100
AcDbEntity
8
bottom plate
6
ByLayer
62
256
370
-1
100
AcDbCircle
10
138.87113598
20
28.6802090767
40
2
100
AcDbArc
50
45
51
90
0
LINE
5
6C
100
AcDbEntity
8
bottom plate
6
ByLayer
62
256
370
-1
100
AcDbLine
10
162.43304612
20
106.941675428
11
166.463554773
21
102.911166775
0
LINE
5
6D
100
AcDbEntity
8
bottom plate
6
ByLayer
62
256
370
-1
100
AcDbLine
10
173.039647838
20
117.548277146
11
177.07015649
21
113.517768493
0
CIRCLE
5
6E
100
AcDbEntity
8
bottom plate
6
ByLayer
62
256
370
-1
100
AcDbCircle
10
167.983834352
20
108.461955008
40
1.5
0
LINE
5
6F
100
AcDbEntity
8
bottom plate
6
ByLayer
62
256
370
-1
100
AcDbLine
10
166.463554773
20
102.911166775
11
155.856953055
21
92.3045650567
0
LINE
5
70
100
AcDbEntity
8
bottom plate
6
ByLayer
62
256
370
-1
100
AcDbLine
10
162.43304612
20
106.941675428
11
151.826444402
21
96.3350737097
0
LINE
5
71
100
AcDbEntity
8
bottom plate
6
ByLayer
62
256
370
-1
100
AcDbLine
10
177.07015649
20
113.517768493
11
173.534622585
21
109.982234587
0
LINE
5
72
100
AcDbEntity
8
bottom plate
6
ByLayer
62
256
370
-1
100
AcDbLine
10
173.039647838
20
117.548277146
11
169.504113932
21
114.01274324
0
LINE
5
73
100
AcDbEntity
8
bottom plate
6
ByLayer
62
256
370
-1
100
AcDbLine
10
169.504113932
20
114.01274324
11
173.534622585
21
109.982234587
0
LINE
5
74
100
AcDbEntity
8
bottom plate
6
ByLayer
62
256
370
-1
100
AcDbLine
10
151.826444402
20
96.3350737097
11
155.856953055
21
92.3045650567
0
LINE
5
75
100
AcDbEntity
8
bottom plate
6
ByLayer
62
256
370
-1
100
AcDbLine
10
84.651300189
20
102.911166775
11
88.681808842
21
106.941675428
0
LINE
5
76
100
AcDbEntity
8
bottom plate
6
ByLayer
62
256
370
-1
100
AcDbLine
10
74.044698472
20
113.517768493
11
78.075207124
21
117.548277146
0
CIRCLE
5
77
100
AcDbEntity
8
bottom plate
6
ByLayer
62
256
370
-1
100
AcDbCircle
10
83.13102061
20
108.461955008
40
1.5
0
LINE
5
78
100
AcDbEntity
8
bottom plate
6
ByLayer
62
256
370
-1
100
AcDbLine
10
88.681808842
20
106.941675428
11
99.28841056
21
96.3350737097
0
LINE
5
79
100
AcDbEntity
8
bottom plate
6
ByLayer
62
256
370
-1
100
AcDbLine
10
84.651300189
20
102.911166775
11
95.257901907
21
92.3045650567
0
LINE
5
7A
100
AcDbEntity
8
bottom plate
6
ByLayer
62
256
370
-1
100
AcDbLine
10
78.075207124
20
117.548277146
11
81.61074103
21
114.01274324
0
LINE
5
7B
100
AcDbEntity
8
bottom plate
6
ByLayer
62
256
370
-1
100
AcDbLine
10
74.044698472
20
113.517768493
11
77.580232377
21
109.982234587
0
LINE
5
7C
100
AcDbEntity
8
bottom plate
6
ByLayer
62
256
370
-1
100
AcDbLine
10
77.580232377
20
109.982234587
11
81.61074103
21
114.01274324
0
LINE
5
7D
100
AcDbEntity
8
bottom plate
6
ByLayer
62
256
370
-1
100
AcDbLine
10
95.257901907
20
92.3045650567
11
99.28841056
21
96.3350737097
0
LINE
5
7E
100
AcDbEntity
8
bottom plate
6
ByLayer
62
256
370
-1
100
AcDbLine
10
88.681808842
20
25.1294208457
11
84.651300189
21
29.1599294967
0
LINE
5
7F
100
AcDbEntity
8
bottom plate
6
ByLayer
62
256
370
-1
100
AcDbLine
10
78.075207124
20
14.5228191277
11
74.044698472
21
18.5533277797
0
CIRCLE
5
80
100
AcDbEntity
8
bottom plate
6
ByLayer
62
256
370
-1
100
AcDbCircle
10
83.13102061
20
23.6091412647
40
1.5
0
LINE
5
81
100
AcDbEntity
8
bottom plate
6
ByLayer
62
256
370
-1
100
AcDbLine
10
84.651300189
20
29.1599294967
11
95.257901907
21
39.7665312147
0
LINE
5
82
100
AcDbEntity
8
bottom plate
6
ByLayer
62
256
370
-1
100
AcDbLine
10
88.681808842
20
25.1294208457
11
99.28841056
21
35.7360225627
0
LINE
5
83
100
AcDbEntity
8
bottom plate
6
ByLayer
62
256
370
-1
100
AcDbLine
10
74.044698472
20
18.5533277797
11
77.580232377
21
22.0888616857
0
LINE
5
84
100
AcDbEntity
8
bottom plate
6
ByLayer
62
256
370
-1
100
AcDbLine
10
78.075207124
20
14.5228191277
11
81.61074103
21
18.0583530337
0
LINE
5
85
100
AcDbEntity
8
bottom plate
6
ByLayer
62
256
370
-1
100
AcDbLine
10
81.61074103
20
18.0583530337
11
77.580232377
21
22.0888616857
0
LINE
5
86
100
AcDbEntity
8
bottom plate
6
ByLayer
62
256
370
-1
100
AcDbLine
10
99.28841056
20
35.7360225627
11
95.257901907
21
39.7665312147
0
LINE
5
87
100
AcDbEntity
8
bottom plate
6
ByLayer
62
256
370
-1
100
AcDbLine
10
166.463554773
20
29.1599294977
11
162.43304612
21
25.1294208447
0
LINE
5
88
100
AcDbEntity
8
bottom plate
6
ByLayer
62
256
370
-1
100
AcDbLine
10
177.07015649
20
18.5533277797
11
173.039647838
21
14.5228191267
0
CIRCLE
5
89
100
AcDbEntity
8
bottom plate
6
ByLayer
62
256
370
-1
100
AcDbCircle
10
167.983834352
20
23.6091412647
40
1.5
0
LINE
5
8A
100
AcDbEntity
8
bottom plate
6
ByLayer
62
256
370
-1
100
AcDbLine
10
162.43304612
20
25.1294208447
11
151.826444402
21
35.7360225627
0
LINE
5
8B
100
AcDbEntity
8
bottom plate
6
ByLayer
62
256
370
-1
100
AcDbLine
10
166.463554773
20
29.1599294977
11
155.856953055
21
39.7665312147
0
LINE
5
8C
100
AcDbEntity
8
bottom plate
6
ByLayer
62
256
370
-1
100
AcDbLine
10
173.039647838
20
14.5228191267
11
169.504113932
21
18.0583530327
0
LINE
5
8D
100
AcDbEntity
8
bottom plate
6
ByLayer
62
256
370
-1
100
AcDbLine
10
177.07015649
20
18.5533277797
11
173.534622585
21
22.0888616857
0
LINE
5
8E
100
AcDbEntity
8
bottom plate
6
ByLayer
62
256
370
-1
100
AcDbLine
10
173.534622585
20
22.0888616857
11
169.504113932
21
18.0583530327
0
LINE
5
8F
100
AcDbEntity
8
bottom plate
6
ByLayer
62
256
370
-1
100
AcDbLine
10
155.856953055
20
39.7665312147
11
151.826444402
21
35.7360225627
0
CIRCLE
5
90
100
AcDbEntity
8
bottom plate
6
ByLayer
62
256
370
-1
100
AcDbCircle
10
153.488145338
20
26.7911217807
40
1.5
0
CIRCLE
5
91
100
AcDbEntity
8
bottom plate
6
ByLayer
62
256
370
-1
100
AcDbCircle
10
164.801853837
20
38.1048302797
40
1.5
0
CIRCLE
5
92
100
AcDbEntity
8
bottom plate
6
ByLayer
62
256
370
-1
100
AcDbCircle
10
164.801853837
20
93.9662659937
40
1.5
0
CIRCLE
5
93
100
AcDbEntity
8
bottom plate
6
ByLayer
62
256
370
-1
100
AcDbCircle
10
153.488145338
20
105.279974493
40
1.5
0
CIRCLE
5
94
100
AcDbEntity
8
bottom plate
6
ByLayer
62
256
370
-1
100
AcDbCircle
10
97.626709624
20
105.279974493
40
1.5
0
CIRCLE
5
95
100
AcDbEntity
8
bottom plate
6
ByLayer
62
256
370
-1
100
AcDbCircle
10
86.313001125
20
93.9662659937
40
1.5
0
CIRCLE
5
96
100
AcDbEntity
8
bottom plate
6
ByLayer
62
256
370
-1
100
AcDbCircle
10
86.313001125
20
38.1048302797
40
1.5
0
CIRCLE
5
97
100
AcDbEntity
8
bottom plate
6
ByLayer
62
256
370
-1
100
AcDbCircle
10
97.626709624
20
26.7911217807
40
1.5
0
LINE
5
98
100
AcDbEntity
8
bottom plate
6
ByLayer
62
256
370
-1
100
AcDbLine
10
149.197037788
20
91.5355481357
11
139.197037788
21
91.5355481357
0
LINE
5
99
100
AcDbEntity
8
bottom plate
6
ByLayer
62
256
370
-1
100
AcDbLine
10
149.197037788
20
88.5355481357
11
139.197037788
21
88.5355481357
0
LINE
5
9A
100
AcDbEntity
8
bottom plate
6
ByLayer
62
256
370
-1
100
AcDbLine
10
149.197037788
20
91.5355481357
11
149.197037788
21
88.5355481357
0
LINE
5
9B
100
AcDbEntity
8
bottom plate
6
ByLayer
62
256
370
-1
100
AcDbLine
10
139.197037788
20
91.5355481357
11
139.197037788
21
88.5355481357
0
LINE
5
9C
100
AcDbEntity
8
bottom plate
6
ByLayer
62
256
370
-1
100
AcDbLine
10
213.197037788
20
88.5355481357
11
213.197037788
21
91.5355481357
0
LINE
5
9D
100
AcDbEntity
8
bottom plate
6
ByLayer
62
256
370
-1
100
AcDbLine
10
225.197037788
20
88.5355481357
11
225.197037788
21
91.5355481357
0
LINE
5
9E
100
AcDbEntity
8
bottom plate
6
ByLayer
62
256
370
-1
100
AcDbLine
10
225.197037788
20
88.5355481357
11
213.197037788
21
88.5355481357
0
LINE
5
9F
100
AcDbEntity
8
bottom plate
6
ByLayer
62
256
370
-1
100
AcDbLine
10
213.197037788
20
91.5355481357
11
225.197037788
21
91.5355481357
0
LINE
5
A0
100
AcDbEntity
8
bottom plate
6
ByLayer
62
256
370
-1
100
AcDbLine
10
188.197037788
20
91.5355481357
11
188.197037788
21
88.5355481357
0
LINE
5
A1
100
AcDbEntity
8
bottom plate
6
ByLayer
62
256
370
-1
100
AcDbLine
10
198.197037788
20
91.5355481357
11
198.197037788
21
88.5355481357
0
LINE
5
A2
100
AcDbEntity
8
bottom plate
6
ByLayer
62
256
370
-1
100
AcDbLine
10
198.197037788
20
91.5355481357
11
188.197037788
21
91.5355481357
0
LINE
5
A3
100
AcDbEntity
8
bottom plate
6
ByLayer
62
256
370
-1
100
AcDbLine
10
198.197037788
20
88.5355481357
11
188.197037788
21
88.5355481357
0
CIRCLE
5
A4
100
AcDbEntity
8
bottom plate
6
ByLayer
62
256
370
-1
100
AcDbCircle
10
219.197037788
20
98.0355481357
40
1.5
0
CIRCLE
5
A5
100
AcDbEntity
8
bottom plate
6
ByLayer
62
256
370
-1
100
AcDbCircle
10
219.197037788
20
82.0355481357
40
1.5
0
ARC
5
A6
100
AcDbEntity
8
bottom plate
6
ByLayer
62
256
370
-1
100
AcDbCircle
10
194.996027661
20
116.805100758
40
10
100
AcDbArc
50
225
51
270
0
LINE
5
A7
100
AcDbEntity
8
bottom plate
6
ByLayer
62
256
370
-1
100
AcDbLine
10
222.711756414
20
106.805100758
11
194.996027661
21
106.805100758
0
ARC
5
A8
100
AcDbEntity
8
bottom plate
6
ByLayer
62
256
370
-1
100
AcDbCircle
10
222.711756414
20
100.805100758
40
6
100
AcDbArc
50
45
51
90
0
LINE
5
A9
100
AcDbEntity
8
bottom plate
6
ByLayer
62
256
370
-1
100
AcDbLine
10
226.954397101
20
105.047741445
11
232.439678475
21
99.5624600706
0
ARC
5
AA
100
AcDbEntity
8
bottom plate
6
ByLayer
62
256
370
-1
100
AcDbCircle
10
228.197037788
20
95.3198193835
40
6
100
AcDbArc
50
0
51
45
0
LINE
5
AB
100
AcDbEntity
8
bottom plate
6
ByLayer
62
256
370
-1
100
AcDbLine
10
149.197037788
20
40.5355481357
11
139.197037788
21
40.5355481357
0
LINE
5
AC
100
AcDbEntity
8
bottom plate
6
ByLayer
62
256
370
-1
100
AcDbLine
10
149.197037788
20
43.5355481357
11
139.197037788
21
43.5355481357
0
LINE
5
AD
100
AcDbEntity
8
bottom plate
6
ByLayer
62
256
370
-1
100
AcDbLine
10
149.197037788
20
40.5355481357
11
149.197037788
21
43.5355481357
0
LINE
5
AE
100
AcDbEntity
8
bottom plate
6
ByLayer
62
256
370
-1
100
AcDbLine
10
139.197037788
20
40.5355481357
11
139.197037788
21
43.5355481357
0
LINE
5
AF
100
AcDbEntity
8
bottom plate
6
ByLayer
62
256
370
-1
100
AcDbLine
10
213.197037788
20
43.5355481357
11
213.197037788
21
40.5355481357
0
LINE
5
B0
100
AcDbEntity
8
bottom plate
6
ByLayer
62
256
370
-1
100
AcDbLine
10
225.197037788
20
43.5355481357
11
225.197037788
21
40.5355481357
0
LINE
5
B1
100
AcDbEntity
8
bottom plate
6
ByLayer
62
256
370
-1
100
AcDbLine
10
225.197037788
20
43.5355481357
11
213.197037788
21
43.5355481357
0
LINE
5
B2
100
AcDbEntity
8
bottom plate
6
ByLayer
62
256
370
-1
100
AcDbLine
10
213.197037788
20
40.5355481357
11
225.197037788
21
40.5355481357
0
LINE
5
B3
100
AcDbEntity
8
bottom plate
6
ByLayer
62
256
370
-1
100
AcDbLine
10
188.197037788
20
40.5355481357
11
188.197037788
21
43.5355481357
0
LINE
5
B4
100
AcDbEntity
8
bottom plate
6
ByLayer
62
256
370
-1
100
AcDbLine
10
198.197037788
20
40.5355481357
11
198.197037788
21
43.5355481357
0
LINE
5
B5
100
AcDbEntity
8
bottom plate
6
ByLayer
62
256
370
-1
100
AcDbLine
10
198.197037788
20
40.5355481357
11
188.197037788
21
40.5355481357
0
LINE
5
B6
100
AcDbEntity
8
bottom plate
6
ByLayer
62
256
370
-1
100
AcDbLine
10
198.197037788
20
43.5355481357
11
188.197037788
21
43.5355481357
0
CIRCLE
5
B7
100
AcDbEntity
8
bottom plate
6
ByLayer
62
256
370
-1
100
AcDbCircle
10
219.197037788
20
34.0355481357
40
1.5
0
CIRCLE
5
B8
100
AcDbEntity
8
bottom plate
6
ByLayer
62
256
370
-1
100
AcDbCircle
10
219.197037788
20
50.0355481357
40
1.5
0
ARC
5
B9
100
AcDbEntity
8
bottom plate
6
ByLayer
62
256
370
-1
100
AcDbCircle
10
194.996027661
20
15.2659955137
40
10
100
AcDbArc
50
90
51
135
0
LINE
5
BA
100
AcDbEntity
8
bottom plate
6
ByLayer
62
256
370
-1
100
AcDbLine
10
222.711756414
20
25.2659955137
11
194.996027661
21
25.2659955137
0
ARC
5
BB
100
AcDbEntity
8
bottom plate
6
ByLayer
62
256
370
-1
100
AcDbCircle
10
222.711756414
20
31.2659955137
40
6
100
AcDbArc
50
270
51
315
0
LINE
5
BC
100
AcDbEntity
8
bottom plate
6
ByLayer
62
256
370
-1
100
AcDbLine
10
226.954397101
20
27.0233548266
11
232.439678475
21
32.5086362008
0
ARC
5
BD
100
AcDbEntity
8
bottom plate
6
ByLayer
62
256
370
-1
100
AcDbCircle
10
228.197037788
20
36.7512768879
40
6
100
AcDbArc
50
315
51
0
0
LINE
5
BE
100
AcDbEntity
8
bottom plate
6
ByLayer
62
256
370
-1
100
AcDbLine
10
234.197037788
20
95.3198193835
11
234.197037788
21
36.7512768879
0
ARC
5
BF
100
AcDbEntity
8
bottom plate
6
ByLayer
62
256
370
-1
100
AcDbCircle
10
56.1188273013
20
116.805100758
40
10
100
AcDbArc
50
270
51
315
0
ARC
5
C0
100
AcDbEntity
8
bottom plate
6
ByLayer
62
256
370
-1
100
AcDbCircle
10
56.1188273013
20
15.2659955137
40
10
100
AcDbArc
50
45
51
90
0
ARC
5
C1
100
AcDbEntity
8
bottom plate
6
ByLayer
62
256
370
-1
100
AcDbCircle
10
13.399967803
20
100.805100758
40
6
100
AcDbArc
50
90
51
135
0
LINE
5
C2
100
AcDbEntity
8
bottom plate
6
ByLayer
62
256
370
-1
100
AcDbLine
10
9.15732711594
20
105.047741445
11
3.67204574164
21
99.5624600706
0
ARC
5
C3
100
AcDbEntity
8
bottom plate
6
ByLayer
62
256
370
-1
100
AcDbCircle
10
7.91468642884
20
95.3198193835
40
6
100
AcDbArc
50
135
51
180
0
ARC
5
C4
100
AcDbEntity
8
bottom plate
6
ByLayer
62
256
370
-1
100
AcDbCircle
10
13.399967803
20
31.2659955137
40
6
100
AcDbArc
50
225
51
270
0
LINE
5
C5
100
AcDbEntity
8
bottom plate
6
ByLayer
62
256
370
-1
100
AcDbLine
10
9.15732711594
20
27.0233548266
11
3.67204574164
21
32.5086362008
0
ARC
5
C6
100
AcDbEntity
8
bottom plate
6
ByLayer
62
256
370
-1
100
AcDbCircle
10
7.91468642884
20
36.7512768879
40
6
100
AcDbArc
50
180
51
225
0
LINE
5
C7
100
AcDbEntity
8
bottom plate
6
ByLayer
62
256
370
-1
100
AcDbLine
10
1.91468642884
20
95.3198193835
11
1.91468642884
21
36.7512768879
0
LINE
5
C8
100
AcDbEntity
8
bottom plate
6
ByLayer
62
256
370
-1
100
AcDbLine
10
13.399967803
20
106.805100758
11
56.1188273013
21
106.805100758
0
LINE
5
C9
100
AcDbEntity
8
bottom plate
6
ByLayer
62
256
370
-1
100
AcDbLine
10
13.399967803
20
25.2659955137
11
56.1188273013
21
25.2659955137
0
ARC
5
CA
100
AcDbEntity
8
bottom plate
6
ByLayer
62
256
370
-1
100
AcDbCircle
10
48.4899310078
20
50.0355481367
40
1
100
AcDbArc
50
270
51
360
0
LINE
5
CB
100
AcDbEntity
8
bottom plate
6
ByLayer
62
256
370
-1
100
AcDbLine
10
49.4899310068
20
50.0355481357
11
49.4899310068
21
50.0355481357
0
ARC
5
CC
100
AcDbEntity
8
bottom plate
6
ByLayer
62
256
370
-1
100
AcDbCircle
10
48.4899310078
20
50.0355481367
40
1
100
AcDbArc
50
360
51
90
0
LINE
5
CD
100
AcDbEntity
8
bottom plate
6
ByLayer
62
256
370
-1
100
AcDbLine
10
33.6320666308
20
50.0355481367
11
33.6320666308
21
50.0355481367
0
LINE
5
CE
100
AcDbEntity
8
bottom plate
6
ByLayer
62
256
370
-1
100
AcDbLine
10
56.4899310068
20
43.0355481367
11
56.4899310068
21
43.0355481367
0
LINE
5
CF
100
AcDbEntity
8
bottom plate
6
ByLayer
62
256
370
-1
100
AcDbLine
10
26.6320666308
20
43.0355481367
11
26.6320666308
21
43.0355481367
0
ARC
5
D0
100
AcDbEntity
8
bottom plate
6
ByLayer
62
256
370
-1
100
AcDbCircle
10
19.557427481
20
59.1066159477
40
1
100
AcDbArc
50
180
51
270
0
LINE
5
D1
100
AcDbEntity
8
bottom plate
6
ByLayer
62
256
370
-1
100
AcDbLine
10
19.557427481
20
58.1066159477
11
19.557427481
21
58.1066159477
0
ARC
5
D2
100
AcDbEntity
8
bottom plate
6
ByLayer
62
256
370
-1
100
AcDbCircle
10
19.557427481
20
59.1066159477
40
1
100
AcDbArc
50
270
51
360
0
LINE
5
D3
100
AcDbEntity
8
bottom plate
6
ByLayer
62
256
370
-1
100
AcDbLine
10
18.557427481
20
72.9644803247
11
18.557427481
21
59.1066159477
0
ARC
5
D4
100
AcDbEntity
8
bottom plate
6
ByLayer
62
256
370
-1
100
AcDbCircle
10
19.557427481
20
72.9644803247
40
1
100
AcDbArc
50
90
51
180
0
LINE
5
D5
100
AcDbEntity
8
bottom plate
6
ByLayer
62
256
370
-1
100
AcDbLine
10
19.557427481
20
73.9644803247
11
19.557427481
21
73.9644803247
0
LINE
5
D6
100
AcDbEntity
8
bottom plate
6
ByLayer
62
256
370
-1
100
AcDbLine
10
20.557427481
20
72.9644803247
11
20.557427481
21
59.1066159477
0
ARC
5
D7
100
AcDbEntity
8
bottom plate
6
ByLayer
62
256
370
-1
100
AcDbCircle
10
19.557427481
20
72.9644803247
40
1
100
AcDbArc
50
360
51
90
0
ARC
5
D8
100
AcDbEntity
8
bottom plate
6
ByLayer
62
256
370
-1
100
AcDbCircle
10
12.557427481
20
52.1066159477
40
1
100
AcDbArc
50
180
51
270
0
LINE
5
D9
100
AcDbEntity
8
bottom plate
6
ByLayer
62
256
370
-1
100
AcDbLine
10
12.557427481
20
51.1066159477
11
12.557427481
21
51.1066159477
0
ARC
5
DA
100
AcDbEntity
8
bottom plate
6
ByLayer
62
256
370
-1
100
AcDbCircle
10
12.557427481
20
52.1066159477
40
1
100
AcDbArc
50
270
51
360
0
LINE
5
DB
100
AcDbEntity
8
bottom plate
6
ByLayer
62
256
370
-1
100
AcDbLine
10
11.557427482
20
79.9644803247
11
11.55742748
21
52.1066159477
0
ARC
5
DC
100
AcDbEntity
8
bottom plate
6
ByLayer
62
256
370
-1
100
AcDbCircle
10
12.557427481
20
79.9644803247
40
1
100
AcDbArc
50
90
51
180
0
LINE
5
DD
100
AcDbEntity
8
bottom plate
6
ByLayer
62
256
370
-1
100
AcDbLine
10
12.557427481
20
80.9644803237
11
12.557427481
21
80.9644803237
0
LINE
5
DE
100
AcDbEntity
8
bottom plate
6
ByLayer
62
256
370
-1
100
AcDbLine
10
13.557427481
20
79.9644803247
11
13.557427481
21
52.1066159477
0
ARC
5
DF
100
AcDbEntity
8
bottom plate
6
ByLayer
62
256
370
-1
100
AcDbCircle
10
12.557427481
20
79.9644803247
40
1
100
AcDbArc
50
360
51
90
0
ARC
5
E0
100
AcDbEntity
8
bottom plate
6
ByLayer
62
256
370
-1
100
AcDbCircle
10
51.557427481
20
59.1066159477
40
1
100
AcDbArc
50
270
51
0
0
LINE
5
E1
100
AcDbEntity
8
bottom plate
6
ByLayer
62
256
370
-1
100
AcDbLine
10
51.557427481
20
58.1066159477
11
51.557427481
21
58.1066159477
0
ARC
5
E2
100
AcDbEntity
8
bottom plate
6
ByLayer
62
256
370
-1
100
AcDbCircle
10
51.557427481
20
59.1066159477
40
1
100
AcDbArc
50
180
51
270
0
LINE
5
E3
100
AcDbEntity
8
bottom plate
6
ByLayer
62
256
370
-1
100
AcDbLine
10
52.557427481
20
72.9644803247
11
52.557427481
21
59.1066159477
0
ARC
5
E4
100
AcDbEntity
8
bottom plate
6
ByLayer
62
256
370
-1
100
AcDbCircle
10
51.557427481
20
72.9644803247
40
1
100
AcDbArc
50
0
51
90
0
LINE
5
E5
100
AcDbEntity
8
bottom plate
6
ByLayer
62
256
370
-1
100
AcDbLine
10
51.557427481
20
73.9644803247
11
51.557427481
21
73.9644803247
0
LINE
5
E6
100
AcDbEntity
8
bottom plate
6
ByLayer
62
256
370
-1
100
AcDbLine
10
50.557427481
20
72.9644803247
11
50.557427481
21
59.1066159477
0
ARC
5
E7
100
AcDbEntity
8
bottom plate
6
ByLayer
62
256
370
-1
100
AcDbCircle
10
51.557427481
20
72.9644803247
40
1
100
AcDbArc
50
90
51
180
0
ARC
5
E8
100
AcDbEntity
8
bottom plate
6
ByLayer
62
256
370
-1
100
AcDbCircle
10
58.557427481
20
52.1066159477
40
1
100
AcDbArc
50
270
51
0
0
LINE
5
E9
100
AcDbEntity
8
bottom plate
6
ByLayer
62
256
370
-1
100
AcDbLine
10
58.557427481
20
51.1066159477
11
58.557427481
21
51.1066159477
0
ARC
5
EA
100
AcDbEntity
8
bottom plate
6
ByLayer
62
256
370
-1
100
AcDbCircle
10
58.557427481
20
52.1066159477
40
1
100
AcDbArc
50
180
51
270
0
LINE
5
EB
100
AcDbEntity
8
bottom plate
6
ByLayer
62
256
370
-1
100
AcDbLine
10
59.55742748
20
79.9644803247
11
59.557427482
21
52.1066159477
0
ARC
5
EC
100
AcDbEntity
8
bottom plate
6
ByLayer
62
256
370
-1
100
AcDbCircle
10
58.557427481
20
79.9644803247
40
1
100
AcDbArc
50
0
51
90
0
LINE
5
ED
100
AcDbEntity
8
bottom plate
6
ByLayer
62
256
370
-1
100
AcDbLine
10
58.557427481
20
80.9644803237
11
58.557427481
21
80.9644803237
0
LINE
5
EE
100
AcDbEntity
8
bottom plate
6
ByLayer
62
256
370
-1
100
AcDbLine
10
57.557427481
20
79.9644803247
11
57.557427481
21
52.1066159477
0
ARC
5
EF
100
AcDbEntity
8
bottom plate
6
ByLayer
62
256
370
-1
100
AcDbCircle
10
58.557427481
20
79.9644803247
40
1
100
AcDbArc
50
90
51
180
0
ARC
5
F0
100
AcDbEntity
8
bottom plate
6
ByLayer
62
256
370
-1
100
AcDbCircle
10
17.6320666308
20
43.0355481367
40
1
100
AcDbArc
50
180
51
270
0
ARC
5
F1
100
AcDbEntity
8
bottom plate
6
ByLayer
62
256
370
-1
100
AcDbCircle
10
17.6320666308
20
43.0355481367
40
1
100
AcDbArc
50
90
51
180
0
ARC
5
F2
100
AcDbEntity
8
bottom plate
6
ByLayer
62
256
370
-1
100
AcDbCircle
10
53.4827883312
20
43.0355481367
40
1
100
AcDbArc
50
270
51
0
0
ARC
5
F3
100
AcDbEntity
8
bottom plate
6
ByLayer
62
256
370
-1
100
AcDbCircle
10
53.4827883312
20
43.0355481367
40
1
100
AcDbArc
50
0
51
90
0
LINE
5
F4
100
AcDbEntity
8
bottom plate
6
ByLayer
62
256
370
-1
100
AcDbLine
10
17.6320666308
20
44.0355481367
11
53.4827883312
21
44.0355481367
0
LINE
5
F5
100
AcDbEntity
8
bottom plate
6
ByLayer
62
256
370
-1
100
AcDbLine
10
53.4827883312
20
42.0355481367
11
17.6320666308
21
42.0355481367
0
ARC
5
F6
100
AcDbEntity
8
bottom plate
6
ByLayer
62
256
370
-1
100
AcDbCircle
10
22.6249239542
20
50.0355481367
40
1
100
AcDbArc
50
180
51
270
0
ARC
5
F7
100
AcDbEntity
8
bottom plate
6
ByLayer
62
256
370
-1
100
AcDbCircle
10
22.6249239542
20
50.0355481367
40
1
100
AcDbArc
50
90
51
180
0
LINE
5
F8
100
AcDbEntity
8
bottom plate
6
ByLayer
62
256
370
-1
100
AcDbLine
10
22.6249239542
20
51.0355481367
11
48.4899310068
21
51.0355481367
0
LINE
5
F9
100
AcDbEntity
8
bottom plate
6
ByLayer
62
256
370
-1
100
AcDbLine
10
22.6249686753
20
49.0355481357
11
48.4899310068
21
49.0355481357
0
ARC
5
FA
100
AcDbEntity
8
bottom plate
6
ByLayer
62
256
370
-1
100
AcDbCircle
10
98.4899310079
20
50.0355481367
40
1
100
AcDbArc
50
270
51
360
0
LINE
5
FB
100
AcDbEntity
8
bottom plate
6
ByLayer
62
256
370
-1
100
AcDbLine
10
99.4899310069
20
50.0355481357
11
99.4899310069
21
50.0355481357
0
ARC
5
FC
100
AcDbEntity
8
bottom plate
6
ByLayer
62
256
370
-1
100
AcDbCircle
10
98.4899310079
20
50.0355481367
40
1
100
AcDbArc
50
360
51
90
0
LINE
5
FD
100
AcDbEntity
8
bottom plate
6
ByLayer
62
256
370
-1
100
AcDbLine
10
83.6320666308
20
50.0355481367
11
83.6320666308
21
50.0355481367
0
ARC
5
FE
100
AcDbEntity
8
bottom plate
6
ByLayer
62
256
370
-1
100
AcDbCircle
10
72.6249239542
20
50.0355481367
40
1
100
AcDbArc
50
180
51
270
0
ARC
5
FF
100
AcDbEntity
8
bottom plate
6
ByLayer
62
256
370
-1
100
AcDbCircle
10
72.6249239542
20
50.0355481367
40
1
100
AcDbArc
50
90
51
180
0
LINE
5
100
100
AcDbEntity
8
bottom plate
6
ByLayer
62
256
370
-1
100
AcDbLine
10
72.6249239542
20
51.0355481367
11
98.4899310069
21
51.0355481367
0
LINE
5
101
100
AcDbEntity
8
bottom plate
6
ByLayer
62
256
370
-1
100
AcDbLine
10
72.6249686753
20
49.0355481357
11
98.4899310069
21
49.0355481357
0
ARC
5
102
100
AcDbEntity
8
bottom plate
6
ByLayer
62
256
370
-1
100
AcDbCircle
10
48.4899310062
20
82.0355481395
40
1
100
AcDbArc
50
5.94198858922e-09
51
90.0000000059
0
LINE
5
103
100
AcDbEntity
8
bottom plate
6
ByLayer
62
256
370
-1
100
AcDbLine
10
49.4899310052
20
82.0355481406
11
49.4899310052
21
82.0355481406
0
ARC
5
104
100
AcDbEntity
8
bottom plate
6
ByLayer
62
256
370
-1
100
AcDbCircle
10
48.4899310062
20
82.0355481395
40
1
100
AcDbArc
50
270.000000006
51
5.94198858922e-09
0
LINE
5
105
100
AcDbEntity
8
bottom plate
6
ByLayer
62
256
370
-1
100
AcDbLine
10
33.6320666292
20
82.035548138
11
33.6320666292
21
82.035548138
0
LINE
5
106
100
AcDbEntity
8
bottom plate
6
ByLayer
62
256
370
-1
100
AcDbLine
10
56.4899310044
20
89.0355481403
11
56.4899310044
21
89.0355481403
0
LINE
5
107
100
AcDbEntity
8
bottom plate
6
ByLayer
62
256
370
-1
100
AcDbLine
10
26.6320666284
20
89.0355481372
11
26.6320666284
21
89.0355481372
0
ARC
5
108
100
AcDbEntity
8
bottom plate
6
ByLayer
62
256
370
-1
100
AcDbCircle
10
17.6320666284
20
89.0355481363
40
1
100
AcDbArc
50
90.0000000059
51
180.000000006
0
ARC
5
109
100
AcDbEntity
8
bottom plate
6
ByLayer
62
256
370
-1
100
AcDbCircle
10
17.6320666284
20
89.0355481363
40
1
100
AcDbArc
50
180.000000006
51
270.000000006
0
ARC
5
10A
100
AcDbEntity
8
bottom plate
6
ByLayer
62
256
370
-1
100
AcDbCircle
10
53.4827883288
20
89.03554814
40
1
100
AcDbArc
50
5.94193770035e-09
51
90.0000000059
0
ARC
5
10B
100
AcDbEntity
8
bottom plate
6
ByLayer
62
256
370
-1
100
AcDbCircle
10
53.4827883288
20
89.03554814
40
1
100
AcDbArc
50
270.000000006
51
5.94193770035e-09
0
LINE
5
10C
100
AcDbEntity
8
bottom plate
6
ByLayer
62
256
370
-1
100
AcDbLine
10
17.6320666285
20
88.0355481363
11
53.4827883289
21
88.03554814
0
LINE
5
10D
100
AcDbEntity
8
bottom plate
6
ByLayer
62
256
370
-1
100
AcDbLine
10
53.4827883287
20
90.03554814
11
17.6320666283
21
90.0355481363
0
ARC
5
10E
100
AcDbEntity
8
bottom plate
6
ByLayer
62
256
370
-1
100
AcDbCircle
10
22.6249239525
20
82.0355481368
40
1
100
AcDbArc
50
90.0000000059
51
180.000000006
0
ARC
5
10F
100
AcDbEntity
8
bottom plate
6
ByLayer
62
256
370
-1
100
AcDbCircle
10
22.6249239525
20
82.0355481368
40
1
100
AcDbArc
50
180.000000006
51
270.000000006
0
LINE
5
110
100
AcDbEntity
8
bottom plate
6
ByLayer
62
256
370
-1
100
AcDbLine
10
22.6249239526
20
81.0355481368
11
48.4899310053
21
81.0355481395
0
LINE
5
111
100
AcDbEntity
8
bottom plate
6
ByLayer
62
256
370
-1
100
AcDbLine
10
22.6249686735
20
83.0355481378
11
48.4899310051
21
83.0355481405
0
ARC
5
112
100
AcDbEntity
8
bottom plate
6
ByLayer
62
256
370
-1
100
AcDbCircle
10
98.4899310062
20
82.0355481447
40
1
100
AcDbArc
50
5.94198858922e-09
51
90.0000000059
0
LINE
5
113
100
AcDbEntity
8
bottom plate
6
ByLayer
62
256
370
-1
100
AcDbLine
10
99.4899310052
20
82.0355481458
11
99.4899310052
21
82.0355481458
0
ARC
5
114
100
AcDbEntity
8
bottom plate
6
ByLayer
62
256
370
-1
100
AcDbCircle
10
98.4899310062
20
82.0355481447
40
1
100
AcDbArc
50
270.000000006
51
5.94198858922e-09
0
LINE
5
115
100
AcDbEntity
8
bottom plate
6
ByLayer
62
256
370
-1
100
AcDbLine
10
83.6320666292
20
82.0355481431
11
83.6320666292
21
82.0355481431
0
LINE
5
116
100
AcDbEntity
8
bottom plate
6
ByLayer
62
256
370
-1
100
AcDbLine
10
76.6320666284
20
89.0355481424
11
76.6320666284
21
89.0355481424
0
ARC
5
117
100
AcDbEntity
8
bottom plate
6
ByLayer
62
256
370
-1
100
AcDbCircle
10
72.6249239525
20
82.035548142
40
1
100
AcDbArc
50
90.0000000059
51
180.000000006
0
ARC
5
118
100
AcDbEntity
8
bottom plate
6
ByLayer
62
256
370
-1
100
AcDbCircle
10
72.6249239525
20
82.035548142
40
1
100
AcDbArc
50
180.000000006
51
270.000000006
0
LINE
5
119
100
AcDbEntity
8
bottom plate
6
ByLayer
62
256
370
-1
100
AcDbLine
10
72.6249239526
20
81.035548142
11
98.4899310053
21
81.0355481447
0
LINE
5
11A
100
AcDbEntity
8
bottom plate
6
ByLayer
62
256
370
-1
100
AcDbLine
10
72.6249686735
20
83.035548143
11
98.4899310051
21
83.0355481457
0
ARC
5
11B
100
AcDbEntity
8
bottom plate
6
ByLayer
62
256
370
-1
100
AcDbCircle
10
98.4899310062
20
89.0355481393
40
1
100
AcDbArc
50
5.94198858922e-09
51
90.0000000059
0
LINE
5
11C
100
AcDbEntity
8
bottom plate
6
ByLayer
62
256
370
-1
100
AcDbLine
10
99.4899310052
20
89.0355481405
11
99.4899310052
21
89.0355481405
0
ARC
5
11D
100
AcDbEntity
8
bottom plate
6
ByLayer
62
256
370
-1
100
AcDbCircle
10
98.4899310062
20
89.0355481393
40
1
100
AcDbArc
50
270.000000006
51
5.94198858922e-09
0
LINE
5
11E
100
AcDbEntity
8
bottom plate
6
ByLayer
62
256
370
-1
100
AcDbLine
10
83.6320666292
20
89.0355481378
11
83.6320666292
21
89.0355481378
0
ARC
5
11F
100
AcDbEntity
8
bottom plate
6
ByLayer
62
256
370
-1
100
AcDbCircle
10
72.6249239525
20
89.0355481367
40
1
100
AcDbArc
50
90.0000000059
51
180.000000006
0
ARC
5
120
100
AcDbEntity
8
bottom plate
6
ByLayer
62
256
370
-1
100
AcDbCircle
10
72.6249239525
20
89.0355481367
40
1
100
AcDbArc
50
180.000000006
51
270.000000006
0
LINE
5
121
100
AcDbEntity
8
bottom plate
6
ByLayer
62
256
370
-1
100
AcDbLine
10
72.6249239526
20
88.0355481367
11
98.4899310053
21
88.0355481393
0
LINE
5
122
100
AcDbEntity
8
bottom plate
6
ByLayer
62
256
370
-1
100
AcDbLine
10
72.6249686735
20
90.0355481377
11
98.4899310051
21
90.0355481403
0
LINE
5
123
100
AcDbEntity
8
bottom plate
6
ByLayer
62
256
370
-1
100
AcDbLine
10
76.6320666284
20
43.035548129
11
76.6320666284
21
43.035548129
0
ARC
5
124
100
AcDbEntity
8
bottom plate
6
ByLayer
62
256
370
-1
100
AcDbCircle
10
98.4899310062
20
43.035548132
40
1
100
AcDbArc
50
269.999999994
51
359.999999994
0
LINE
5
125
100
AcDbEntity
8
bottom plate
6
ByLayer
62
256
370
-1
100
AcDbLine
10
99.4899310052
20
43.0355481309
11
99.4899310052
21
43.0355481309
0
ARC
5
126
100
AcDbEntity
8
bottom plate
6
ByLayer
62
256
370
-1
100
AcDbCircle
10
98.4899310062
20
43.035548132
40
1
100
AcDbArc
50
359.999999994
51
89.9999999941
0
LINE
5
127
100
AcDbEntity
8
bottom plate
6
ByLayer
62
256
370
-1
100
AcDbLine
10
83.6320666292
20
43.0355481336
11
83.6320666292
21
43.0355481336
0
ARC
5
128
100
AcDbEntity
8
bottom plate
6
ByLayer
62
256
370
-1
100
AcDbCircle
10
72.6249239525
20
43.0355481347
40
1
100
AcDbArc
50
179.999999994
51
269.999999994
0
ARC
5
129
100
AcDbEntity
8
bottom plate
6
ByLayer
62
256
370
-1
100
AcDbCircle
10
72.6249239525
20
43.0355481347
40
1
100
AcDbArc
50
89.9999999941
51
179.999999994
0
LINE
5
12A
100
AcDbEntity
8
bottom plate
6
ByLayer
62
256
370
-1
100
AcDbLine
10
72.6249239526
20
44.0355481347
11
98.4899310053
21
44.035548132
0
LINE
5
12B
100
AcDbEntity
8
bottom plate
6
ByLayer
62
256
370
-1
100
AcDbLine
10
72.6249686735
20
42.0355481337
11
98.4899310051
21
42.035548131
0
ARC
5
12C
100
AcDbEntity
8
bottom plate
6
ByLayer
62
256
370
-1
100
AcDbCircle
10
133.489931008
20
50.0355481367
40
1
100
AcDbArc
50
270
51
360
0
LINE
5
12D
100
AcDbEntity
8
bottom plate
6
ByLayer
62
256
370
-1
100
AcDbLine
10
134.489931007
20
50.0355481357
11
134.489931007
21
50.0355481357
0
ARC
5
12E
100
AcDbEntity
8
bottom plate
6
ByLayer
62
256
370
-1
100
AcDbCircle
10
133.489931008
20
50.0355481367
40
1
100
AcDbArc
50
360
51
90
0
LINE
5
12F
100
AcDbEntity
8
bottom plate
6
ByLayer
62
256
370
-1
100
AcDbLine
10
118.632066631
20
50.0355481367
11
118.632066631
21
50.0355481367
0
ARC
5
130
100
AcDbEntity
8
bottom plate
6
ByLayer
62
256
370
-1
100
AcDbCircle
10
107.624923954
20
50.0355481367
40
1
100
AcDbArc
50
180
51
270
0
ARC
5
131
100
AcDbEntity
8
bottom plate
6
ByLayer
62
256
370
-1
100
AcDbCircle
10
107.624923954
20
50.0355481367
40
1
100
AcDbArc
50
90
51
180
0
LINE
5
132
100
AcDbEntity
8
bottom plate
6
ByLayer
62
256
370
-1
100
AcDbLine
10
107.624923954
20
51.0355481367
11
133.489931007
21
51.0355481367
0
LINE
5
133
100
AcDbEntity
8
bottom plate
6
ByLayer
62
256
370
-1
100
AcDbLine
10
107.624968675
20
49.0355481357
11
133.489931007
21
49.0355481357
0
LINE
5
134
100
AcDbEntity
8
bottom plate
6
ByLayer
62
256
370
-1
100
AcDbLine
10
111.632066628
20
43.035548129
11
111.632066628
21
43.035548129
0
ARC
5
135
100
AcDbEntity
8
bottom plate
6
ByLayer
62
256
370
-1
100
AcDbCircle
10
133.489931006
20
43.035548132
40
1
100
AcDbArc
50
269.999999994
51
359.999999994
0
LINE
5
136
100
AcDbEntity
8
bottom plate
6
ByLayer
62
256
370
-1
100
AcDbLine
10
134.489931005
20
43.0355481309
11
134.489931005
21
43.0355481309
0
ARC
5
137
100
AcDbEntity
8
bottom plate
6
ByLayer
62
256
370
-1
100
AcDbCircle
10
133.489931006
20
43.035548132
40
1
100
AcDbArc
50
359.999999994
51
89.9999999941
0
LINE
5
138
100
AcDbEntity
8
bottom plate
6
ByLayer
62
256
370
-1
100
AcDbLine
10
118.632066629
20
43.0355481336
11
118.632066629
21
43.0355481336
0
ARC
5
139
100
AcDbEntity
8
bottom plate
6
ByLayer
62
256
370
-1
100
AcDbCircle
10
107.624923953
20
43.0355481347
40
1
100
AcDbArc
50
179.999999994
51
269.999999994
0
ARC
5
13A
100
AcDbEntity
8
bottom plate
6
ByLayer
62
256
370
-1
100
AcDbCircle
10
107.624923953
20
43.0355481347
40
1
100
AcDbArc
50
89.9999999941
51
179.999999994
0
LINE
5
13B
100
AcDbEntity
8
bottom plate
6
ByLayer
62
256
370
-1
100
AcDbLine
10
107.624923953
20
44.0355481347
11
133.489931005
21
44.035548132
0
LINE
5
13C
100
AcDbEntity
8
bottom plate
6
ByLayer
62
256
370
-1
100
AcDbLine
10
107.624968674
20
42.0355481337
11
133.489931005
21
42.035548131
0
ARC
5
13D
100
AcDbEntity
8
bottom plate
6
ByLayer
62
256
370
-1
100
AcDbCircle
10
133.489931008
20
82.0355481347
40
1
100
AcDbArc
50
360
51
90
0
LINE
5
13E
100
AcDbEntity
8
bottom plate
6
ByLayer
62
256
370
-1
100
AcDbLine
10
134.489931007
20
82.0355481357
11
134.489931007
21
82.0355481357
0
ARC
5
13F
100
AcDbEntity
8
bottom plate
6
ByLayer
62
256
370
-1
100
AcDbCircle
10
133.489931008
20
82.0355481347
40
1
100
AcDbArc
50
270
51
360
0
LINE
5
140
100
AcDbEntity
8
bottom plate
6
ByLayer
62
256
370
-1
100
AcDbLine
10
118.632066631
20
82.0355481347
11
118.632066631
21
82.0355481347
0
ARC
5
141
100
AcDbEntity
8
bottom plate
6
ByLayer
62
256
370
-1
100
AcDbCircle
10
107.624923954
20
82.0355481347
40
1
100
AcDbArc
50
90
51
180
0
ARC
5
142
100
AcDbEntity
8
bottom plate
6
ByLayer
62
256
370
-1
100
AcDbCircle
10
107.624923954
20
82.0355481347
40
1
100
AcDbArc
50
180
51
270
0
LINE
5
143
100
AcDbEntity
8
bottom plate
6
ByLayer
62
256
370
-1
100
AcDbLine
10
107.624923954
20
81.0355481347
11
133.489931007
21
81.0355481347
0
LINE
5
144
100
AcDbEntity
8
bottom plate
6
ByLayer
62
256
370
-1
100
AcDbLine
10
107.624968675
20
83.0355481357
11
133.489931007
21
83.0355481357
0
LINE
5
145
100
AcDbEntity
8
bottom plate
6
ByLayer
62
256
370
-1
100
AcDbLine
10
111.632066628
20
89.0355481424
11
111.632066628
21
89.0355481424
0
ARC
5
146
100
AcDbEntity
8
bottom plate
6
ByLayer
62
256
370
-1
100
AcDbCircle
10
133.489931006
20
89.0355481393
40
1
100
AcDbArc
50
5.94198858922e-09
51
90.0000000059
0
LINE
5
147
100
AcDbEntity
8
bottom plate
6
ByLayer
62
256
370
-1
100
AcDbLine
10
134.489931005
20
89.0355481405
11
134.489931005
21
89.0355481405
0
ARC
5
148
100
AcDbEntity
8
bottom plate
6
ByLayer
62
256
370
-1
100
AcDbCircle
10
133.489931006
20
89.0355481393
40
1
100
AcDbArc
50
270.000000006
51
5.94198858922e-09
0
LINE
5
149
100
AcDbEntity
8
bottom plate
6
ByLayer
62
256
370
-1
100
AcDbLine
10
118.632066629
20
89.0355481378
11
118.632066629
21
89.0355481378
0
ARC
5
14A
100
AcDbEntity
8
bottom plate
6
ByLayer
62
256
370
-1
100
AcDbCircle
10
107.624923953
20
89.0355481367
40
1
100
AcDbArc
50
90.0000000059
51
180.000000006
0
ARC
5
14B
100
AcDbEntity
8
bottom plate
6
ByLayer
62
256
370
-1
100
AcDbCircle
10
107.624923953
20
89.0355481367
40
1
100
AcDbArc
50
180.000000006
51
270.000000006
0
LINE
5
14C
100
AcDbEntity
8
bottom plate
6
ByLayer
62
256
370
-1
100
AcDbLine
10
107.624923953
20
88.0355481367
11
133.489931005
21
88.0355481393
0
LINE
5
14D
100
AcDbEntity
8
bottom plate
6
ByLayer
62
256
370
-1
100
AcDbLine
10
107.624968674
20
90.0355481377
11
133.489931005
21
90.0355481403
0
ARC
5
14E
100
AcDbEntity
8
bottom plate
6
ByLayer
62
256
370
-1
100
AcDbCircle
10
172.197037788
20
75.0355481367
40
6
100
AcDbArc
50
90
51
180
0
LINE
5
14F
100
AcDbEntity
8
bottom plate
6
ByLayer
62
256
370
-1
100
AcDbLine
10
166.197037788
20
75.0355481367
11
166.197037788
21
57.0355481367
0
ARC
5
150
100
AcDbEntity
8
bottom plate
6
ByLayer
62
256
370
-1
100
AcDbCircle
10
172.197037788
20
57.0355481367
40
6
100
AcDbArc
50
180
51
270
0
LINE
5
151
100
AcDbEntity
8
bottom plate
6
ByLayer
62
256
370
-1
100
AcDbLine
10
172.197037788
20
51.0355481367
11
204.711756414
21
51.0355481367
0
ARC
5
152
100
AcDbEntity
8
bottom plate
6
ByLayer
62
256
370
-1
100
AcDbCircle
10
204.711756414
20
57.0355481367
40
6
100
AcDbArc
50
270
51
315
0
LINE
5
153
100
AcDbEntity
8
bottom plate
6
ByLayer
62
256
370
-1
100
AcDbLine
10
214.439678475
20
58.2781888238
11
208.954397101
21
52.7929074496
0
ARC
5
154
100
AcDbEntity
8
bottom plate
6
ByLayer
62
256
370
-1
100
AcDbCircle
10
210.197037788
20
62.5208295109
40
6
100
AcDbArc
50
315
51
0
0
LINE
5
155
100
AcDbEntity
8
bottom plate
6
ByLayer
62
256
370
-1
100
AcDbLine
10
216.197037788
20
69.5502667625
11
216.197037788
21
62.5208295109
0
ARC
5
156
100
AcDbEntity
8
bottom plate
6
ByLayer
62
256
370
-1
100
AcDbCircle
10
210.197037788
20
69.5502667625
40
6
100
AcDbArc
50
0
51
45
0
LINE
5
157
100
AcDbEntity
8
bottom plate
6
ByLayer
62
256
370
-1
100
AcDbLine
10
208.954397101
20
79.2781888238
11
214.439678475
21
73.7929074495
0
LINE
5
158
100
AcDbEntity
8
bottom plate
6
ByLayer
62
256
370
-1
100
AcDbLine
10
204.711756414
20
81.0355481367
11
172.197037788
21
81.0355481367
0
ARC
5
159
100
AcDbEntity
8
bottom plate
6
ByLayer
62
256
370
-1
100
AcDbCircle
10
204.711756414
20
75.0355481367
40
6
100
AcDbArc
50
45
51
90
0
CIRCLE
5
15A
100
AcDbEntity
8
plate mounts
6
ByLayer
62
256
370
-1
100
AcDbCircle
10
134.47916945
20
109.07473309
40
1.5
0
CIRCLE
5
15B
100
AcDbEntity
8
plate mounts
6
ByLayer
62
256
370
-1
100
AcDbCircle
10
118.47916945
20
109.07473309
40
1.5
0
LINE
5
15C
100
AcDbEntity
8
plate mounts
6
ByLayer
62
256
370
-1
100
AcDbLine
10
134.47916945
20
106.07473309
11
118.47916945
21
106.07473309
0
LINE
5
15D
100
AcDbEntity
8
plate mounts
6
ByLayer
62
256
370
-1
100
AcDbLine
10
134.47916945
20
112.07473309
11
118.47916945
21
112.07473309
0
ARC
5
15E
100
AcDbEntity
8
plate mounts
6
ByLayer
62
256
370
-1
100
AcDbCircle
10
134.47916945
20
109.07473309
40
3
100
AcDbArc
50
270
51
90
0
ARC
5
15F
100
AcDbEntity
8
plate mounts
6
ByLayer
62
256
370
-1
100
AcDbCircle
10
118.47916945
20
109.07473309
40
3
100
AcDbArc
50
90
51
270
0
CIRCLE
5
160
100
AcDbEntity
8
plate mounts
6
ByLayer
62
256
370
-1
100
AcDbCircle
10
134.47916945
20
116.521572463
40
1.5
0
CIRCLE
5
161
100
AcDbEntity
8
plate mounts
6
ByLayer
62
256
370
-1
100
AcDbCircle
10
118.47916945
20
116.521572463
40
1.5
0
LINE
5
162
100
AcDbEntity
8
plate mounts
6
ByLayer
62
256
370
-1
100
AcDbLine
10
134.47916945
20
113.521572463
11
118.47916945
21
113.521572463
0
LINE
5
163
100
AcDbEntity
8
plate mounts
6
ByLayer
62
256
370
-1
100
AcDbLine
10
134.47916945
20
119.521572463
11
118.47916945
21
119.521572463
0
ARC
5
164
100
AcDbEntity
8
plate mounts
6
ByLayer
62
256
370
-1
100
AcDbCircle
10
134.47916945
20
116.521572463
40
3
100
AcDbArc
50
270
51
90
0
ARC
5
165
100
AcDbEntity
8
plate mounts
6
ByLayer
62
256
370
-1
100
AcDbCircle
10
118.47916945
20
116.521572463
40
3
100
AcDbArc
50
90
51
270
0
CIRCLE
5
166
100
AcDbEntity
8
plate mounts
6
ByLayer
62
256
370
-1
100
AcDbCircle
10
134.857696095
20
16.3357048763
40
1.5
0
CIRCLE
5
167
100
AcDbEntity
8
plate mounts
6
ByLayer
62
256
370
-1
100
AcDbCircle
10
118.857696095
20
16.3357048763
40
1.5
0
LINE
5
168
100
AcDbEntity
8
plate mounts
6
ByLayer
62
256
370
-1
100
AcDbLine
10
134.857696095
20
13.3357048763
11
118.857696095
21
13.3357048763
0
LINE
5
169
100
AcDbEntity
8
plate mounts
6
ByLayer
62
256
370
-1
100
AcDbLine
10
134.857696095
20
19.3357048763
11
118.857696095
21
19.3357048763
0
ARC
5
16A
100
AcDbEntity
8
plate mounts
6
ByLayer
62
256
370
-1
100
AcDbCircle
10
134.857696095
20
16.3357048763
40
3
100
AcDbArc
50
270
51
90
0
ARC
5
16B
100
AcDbEntity
8
plate mounts
6
ByLayer
62
256
370
-1
100
AcDbCircle
10
118.857696095
20
16.3357048763
40
3
100
AcDbArc
50
90
51
270
0
CIRCLE
5
16C
100
AcDbEntity
8
plate mounts
6
ByLayer
62
256
370
-1
100
AcDbCircle
10
134.857696095
20
23.7825442493
40
1.5
0
CIRCLE
5
16D
100
AcDbEntity
8
plate mounts
6
ByLayer
62
256
370
-1
100
AcDbCircle
10
118.857696095
20
23.7825442493
40
1.5
0
LINE
5
16E
100
AcDbEntity
8
plate mounts
6
ByLayer
62
256
370
-1
100
AcDbLine
10
134.857696095
20
20.7825442493
11
118.857696095
21
20.7825442493
0
LINE
5
16F
100
AcDbEntity
8
plate mounts
6
ByLayer
62
256
370
-1
100
AcDbLine
10
134.857696095
20
26.7825442497
11
118.857696095
21
26.7825442497
0
ARC
5
170
100
AcDbEntity
8
plate mounts
6
ByLayer
62
256
370
-1
100
AcDbCircle
10
134.857696095
20
23.7825442493
40
3
100
AcDbArc
50
270
51
90
0
ARC
5
171
100
AcDbEntity
8
plate mounts
6
ByLayer
62
256
370
-1
100
AcDbCircle
10
118.857696095
20
23.7825442493
40
3
100
AcDbArc
50
90
51
270
0
CIRCLE
5
172
100
AcDbEntity
8
plate mounts
6
ByLayer
62
256
370
-1
100
AcDbCircle
10
197.693119293
20
62.1374290144
40
1.5
0
CIRCLE
5
173
100
AcDbEntity
8
plate mounts
6
ByLayer
62
256
370
-1
100
AcDbCircle
10
181.693119293
20
62.1374290144
40
1.5
0
LINE
5
174
100
AcDbEntity
8
plate mounts
6
ByLayer
62
256
370
-1
100
AcDbLine
10
197.693119293
20
59.1374290144
11
181.693119293
21
59.1374290144
0
LINE
5
175
100
AcDbEntity
8
plate mounts
6
ByLayer
62
256
370
-1
100
AcDbLine
10
197.693119293
20
65.1374290144
11
181.693119293
21
65.1374290144
0
ARC
5
176
100
AcDbEntity
8
plate mounts
6
ByLayer
62
256
370
-1
100
AcDbCircle
10
197.693119293
20
62.1374290144
40
3
100
AcDbArc
50
270
51
90
0
ARC
5
177
100
AcDbEntity
8
plate mounts
6
ByLayer
62
256
370
-1
100
AcDbCircle
10
181.693119293
20
62.1374290144
40
3
100
AcDbArc
50
90
51
270
0
CIRCLE
5
178
100
AcDbEntity
8
plate mounts
6
ByLayer
62
256
370
-1
100
AcDbCircle
10
197.693119293
20
69.5842683874
40
1.5
0
CIRCLE
5
179
100
AcDbEntity
8
plate mounts
6
ByLayer
62
256
370
-1
100
AcDbCircle
10
181.693119293
20
69.5842683874
40
1.5
0
LINE
5
17A
100
AcDbEntity
8
plate mounts
6
ByLayer
62
256
370
-1
100
AcDbLine
10
197.693119293
20
66.5842683874
11
181.693119293
21
66.5842683874
0
LINE
5
17B
100
AcDbEntity
8
plate mounts
6
ByLayer
62
256
370
-1
100
AcDbLine
10
197.693119293
20
72.5842683877
11
181.693119293
21
72.5842683877
0
ARC
5
17C
100
AcDbEntity
8
plate mounts
6
ByLayer
62
256
370
-1
100
AcDbCircle
10
197.693119293
20
69.5842683874
40
3
100
AcDbArc
50
270
51
90
0
ARC
5
17D
100
AcDbEntity
8
plate mounts
6
ByLayer
62
256
370
-1
100
AcDbCircle
10
181.693119293
20
69.5842683874
40
3
100
AcDbArc
50
90
51
270
0
CIRCLE
5
17E
100
AcDbEntity
8
Mounting Rails
6
ByLayer
62
256
370
-1
100
AcDbCircle
10
286.470107929
20
6.91288698758
40
1.6
0
ARC
5
17F
100
AcDbEntity
8
Mounting Rails
6
ByLayer
62
256
370
-1
100
AcDbCircle
10
286.470107929
20
6.91288698758
40
4
100
AcDbArc
50
270
51
90
0
CIRCLE
5
180
100
AcDbEntity
8
Mounting Rails
6
ByLayer
62
256
370
-1
100
AcDbCircle
10
243.470107929
20
15.9128869876
40
1.6
0
ARC
5
181
100
AcDbEntity
8
Mounting Rails
6
ByLayer
62
256
370
-1
100
AcDbCircle
10
243.470107929
20
15.9128869876
40
4
100
AcDbArc
50
360
51
180
0
LINE
5
182
100
AcDbEntity
8
Mounting Rails
6
ByLayer
62
256
370
-1
100
AcDbLine
10
184.470107929
20
11.9128869876
11
189.470107929
21
11.9128869876
0
LINE
5
183
100
AcDbEntity
8
Mounting Rails
6
ByLayer
62
256
370
-1
100
AcDbLine
10
194.470107929
20
8.91288698758
11
239.470107929
21
8.91288698758
0
LINE
5
184
100
AcDbEntity
8
Mounting Rails
6
ByLayer
62
256
370
-1
100
AcDbLine
10
286.470107929
20
10.9128869876
11
275.470107929
21
10.9128869876
0
LINE
5
185
100
AcDbEntity
8
Mounting Rails
6
ByLayer
62
256
370
-1
100
AcDbLine
10
266.470107929
20
14.7128869876
11
272.470107929
21
14.7128869876
0
LINE
5
186
100
AcDbEntity
8
Mounting Rails
6
ByLayer
62
256
370
-1
100
AcDbLine
10
266.470107929
20
11.2128869876
11
272.470107929
21
11.2128869876
0
LINE
5
187
100
AcDbEntity
8
Mounting Rails
6
ByLayer
62
256
370
-1
100
AcDbLine
10
266.470107929
20
11.2128869876
11
266.470107929
21
14.7128869876
0
LINE
5
188
100
AcDbEntity
8
Mounting Rails
6
ByLayer
62
256
370
-1
100
AcDbLine
10
272.470107929
20
11.2128869876
11
272.470107929
21
14.7128869876
0
ARC
5
189
100
AcDbEntity
8
Mounting Rails
6
ByLayer
62
256
370
-1
100
AcDbCircle
10
266.470107929
20
14.7128869876
40
3
100
AcDbArc
50
90
51
180
0
LINE
5
18A
100
AcDbEntity
8
Mounting Rails
6
ByLayer
62
256
370
-1
100
AcDbLine
10
266.470107929
20
17.7128869876
11
272.470107929
21
17.7128869876
0
ARC
5
18B
100
AcDbEntity
8
Mounting Rails
6
ByLayer
62
256
370
-1
100
AcDbCircle
10
272.470107929
20
14.7128869876
40
3
100
AcDbArc
50
0
51
90
0
LINE
5
18C
100
AcDbEntity
8
Mounting Rails
6
ByLayer
62
256
370
-1
100
AcDbLine
10
275.470107929
20
10.9128869876
11
275.470107929
21
14.7128869876
0
LINE
5
18D
100
AcDbEntity
8
Mounting Rails
6
ByLayer
62
256
370
-1
100
AcDbLine
10
263.470107929
20
8.91288698758
11
263.470107929
21
14.7128869876
0
LINE
5
18E
100
AcDbEntity
8
Mounting Rails
6
ByLayer
62
256
370
-1
100
AcDbLine
10
239.470107929
20
15.9128869876
11
239.470107929
21
8.91288698758
0
LINE
5
18F
100
AcDbEntity
8
Mounting Rails
6
ByLayer
62
256
370
-1
100
AcDbLine
10
247.470107929
20
15.9128869876
11
247.470107929
21
8.91288698758
0
LINE
5
190
100
AcDbEntity
8
Mounting Rails
6
ByLayer
62
256
370
-1
100
AcDbLine
10
247.470107929
20
8.91288698758
11
263.470107929
21
8.91288698758
0
LINE
5
191
100
AcDbEntity
8
Mounting Rails
6
ByLayer
62
256
370
-1
100
AcDbLine
10
184.470107929
20
11.9128869876
11
184.470107929
21
11.9128869876
0
ARC
5
192
100
AcDbEntity
8
Mounting Rails
6
ByLayer
62
256
370
-1
100
AcDbCircle
10
188.470107929
20
11.9128869876
40
4
100
AcDbArc
50
90
51
180
0
LINE
5
193
100
AcDbEntity
8
Mounting Rails
6
ByLayer
62
256
370
-1
100
AcDbLine
10
194.470107929
20
8.91288698758
11
194.470107929
21
11.9128869876
0
LINE
5
194
100
AcDbEntity
8
Mounting Rails
6
ByLayer
62
256
370
-1
100
AcDbLine
10
188.470107929
20
15.9128869876
11
190.470107929
21
15.9128869876
0
ARC
5
195
100
AcDbEntity
8
Mounting Rails
6
ByLayer
62
256
370
-1
100
AcDbCircle
10
190.470107929
20
11.9128869876
40
4
100
AcDbArc
50
0
51
90
0
LINE
5
196
100
AcDbEntity
8
Mounting Rails
6
ByLayer
62
256
370
-1
100
AcDbLine
10
189.470107929
20
5.91288698758
11
189.470107929
21
11.9128869876
0
LINE
5
197
100
AcDbEntity
8
Mounting Rails
6
ByLayer
62
256
370
-1
100
AcDbLine
10
192.470107929
20
2.91288698758
11
286.470107929
21
2.91288698758
0
ARC
5
198
100
AcDbEntity
8
Mounting Rails
6
ByLayer
62
256
370
-1
100
AcDbCircle
10
192.470107929
20
5.91288698758
40
3
100
AcDbArc
50
180
51
270
0
CIRCLE
5
199
100
AcDbEntity
8
Mounting Rails
6
ByLayer
62
256
370
-1
100
AcDbCircle
10
364.476867334
20
27.999057149
40
1.6
0
ARC
5
19A
100
AcDbEntity
8
Mounting Rails
6
ByLayer
62
256
370
-1
100
AcDbCircle
10
364.476867334
20
27.999057149
40
4
100
AcDbArc
50
270
51
90
0
LINE
5
19B
100
AcDbEntity
8
Mounting Rails
6
ByLayer
62
256
370
-1
100
AcDbLine
10
364.476867334
20
31.999057149
11
360.476867334
21
31.999057149
0
CIRCLE
5
19C
100
AcDbEntity
8
Mounting Rails
6
ByLayer
62
256
370
-1
100
AcDbCircle
10
364.476867334
20
61.999057149
40
1.6
0
ARC
5
19D
100
AcDbEntity
8
Mounting Rails
6
ByLayer
62
256
370
-1
100
AcDbCircle
10
364.476867334
20
61.999057149
40
4
100
AcDbArc
50
270
51
90
0
LINE
5
19E
100
AcDbEntity
8
Mounting Rails
6
ByLayer
62
256
370
-1
100
AcDbLine
10
364.476867334
20
65.999057149
11
360.476867334
21
65.999057149
0
LINE
5
19F
100
AcDbEntity
8
Mounting Rails
6
ByLayer
62
256
370
-1
100
AcDbLine
10
360.476867334
20
31.999057149
11
360.476867334
21
57.999057149
0
LINE
5
1A0
100
AcDbEntity
8
Mounting Rails
6
ByLayer
62
256
370
-1
100
AcDbLine
10
364.476867334
20
57.999057149
11
360.476867334
21
57.999057149
0
LINE
5
1A1
100
AcDbEntity
8
Mounting Rails
6
ByLayer
62
256
370
-1
100
AcDbLine
10
358.476867334
20
80.999057149
11
355.476867334
21
80.999057149
0
LINE
5
1A2
100
AcDbEntity
8
Mounting Rails
6
ByLayer
62
256
370
-1
100
AcDbLine
10
355.476867334
20
80.999057149
11
355.476867334
21
82.499057149
0
LINE
5
1A3
100
AcDbEntity
8
Mounting Rails
6
ByLayer
62
256
370
-1
100
AcDbLine
10
355.476867334
20
82.499057149
11
358.476867334
21
82.499057149
0
LINE
5
1A4
100
AcDbEntity
8
Mounting Rails
6
ByLayer
62
256
370
-1
100
AcDbLine
10
358.476867334
20
82.499057149
11
358.476867334
21
80.999057149
0
LINE
5
1A5
100
AcDbEntity
8
Mounting Rails
6
ByLayer
62
256
370
-1
100
AcDbLine
10
358.476867334
20
74.999057149
11
355.476867334
21
74.999057149
0
LINE
5
1A6
100
AcDbEntity
8
Mounting Rails
6
ByLayer
62
256
370
-1
100
AcDbLine
10
355.476867334
20
74.999057149
11
355.476867334
21
76.499057149
0
LINE
5
1A7
100
AcDbEntity
8
Mounting Rails
6
ByLayer
62
256
370
-1
100
AcDbLine
10
355.476867334
20
76.499057149
11
358.476867334
21
76.499057149
0
LINE
5
1A8
100
AcDbEntity
8
Mounting Rails
6
ByLayer
62
256
370
-1
100
AcDbLine
10
358.476867334
20
76.499057149
11
358.476867334
21
74.999057149
0
LINE
5
1A9
100
AcDbEntity
8
Mounting Rails
6
ByLayer
62
256
370
-1
100
AcDbLine
10
320.476867334
20
28.999057149
11
320.476867334
21
25.999057149
0
LINE
5
1AA
100
AcDbEntity
8
Mounting Rails
6
ByLayer
62
256
370
-1
100
AcDbLine
10
320.476867334
20
25.999057149
11
318.976867334
21
25.999057149
0
LINE
5
1AB
100
AcDbEntity
8
Mounting Rails
6
ByLayer
62
256
370
-1
100
AcDbLine
10
318.976867334
20
25.999057149
11
318.976867334
21
28.999057149
0
LINE
5
1AC
100
AcDbEntity
8
Mounting Rails
6
ByLayer
62
256
370
-1
100
AcDbLine
10
326.476867334
20
28.999057149
11
326.476867334
21
25.999057149
0
LINE
5
1AD
100
AcDbEntity
8
Mounting Rails
6
ByLayer
62
256
370
-1
100
AcDbLine
10
326.476867334
20
25.999057149
11
324.976867334
21
25.999057149
0
LINE
5
1AE
100
AcDbEntity
8
Mounting Rails
6
ByLayer
62
256
370
-1
100
AcDbLine
10
324.976867334
20
25.999057149
11
324.976867334
21
28.999057149
0
LINE
5
1AF
100
AcDbEntity
8
Mounting Rails
6
ByLayer
62
256
370
-1
100
AcDbLine
10
318.976867334
20
28.999057149
11
320.476867334
21
28.999057149
0
LINE
5
1B0
100
AcDbEntity
8
Mounting Rails
6
ByLayer
62
256
370
-1
100
AcDbLine
10
324.976867334
20
28.999057149
11
326.476867334
21
28.999057149
0
LINE
5
1B1
100
AcDbEntity
8
Mounting Rails
6
ByLayer
62
256
370
-1
100
AcDbLine
10
360.476867334
20
95.999057149
11
360.476867334
21
65.999057149
0
ARC
5
1B2
100
AcDbEntity
8
Mounting Rails
6
ByLayer
62
256
370
-1
100
AcDbCircle
10
357.476867334
20
95.999057149
40
3
100
AcDbArc
50
0
51
90
0
LINE
5
1B3
100
AcDbEntity
8
Mounting Rails
6
ByLayer
62
256
370
-1
100
AcDbLine
10
357.476867334
20
98.999057149
11
356.476867334
21
98.999057149
0
LINE
5
1B4
100
AcDbEntity
8
Mounting Rails
6
ByLayer
62
256
370
-1
100
AcDbLine
10
353.476867334
20
95.999057149
11
353.476867334
21
30.999057149
0
ARC
5
1B5
100
AcDbEntity
8
Mounting Rails
6
ByLayer
62
256
370
-1
100
AcDbCircle
10
356.476867334
20
95.999057149
40
3
100
AcDbArc
50
90
51
180
0
LINE
5
1B6
100
AcDbEntity
8
Mounting Rails
6
ByLayer
62
256
370
-1
100
AcDbLine
10
353.476867334
20
30.999057149
11
308.476867334
21
30.999057149
0
ARC
5
1B7
100
AcDbEntity
8
Mounting Rails
6
ByLayer
62
256
370
-1
100
AcDbCircle
10
308.476867334
20
27.999057149
40
3
100
AcDbArc
50
90
51
180
0
LINE
5
1B8
100
AcDbEntity
8
Mounting Rails
6
ByLayer
62
256
370
-1
100
AcDbLine
10
305.476867334
20
27.999057149
11
305.476867334
21
26.999057149
0
LINE
5
1B9
100
AcDbEntity
8
Mounting Rails
6
ByLayer
62
256
370
-1
100
AcDbLine
10
364.476867334
20
23.999057149
11
308.476867334
21
23.999057149
0
ARC
5
1BA
100
AcDbEntity
8
Mounting Rails
6
ByLayer
62
256
370
-1
100
AcDbCircle
10
308.476867334
20
26.999057149
40
3
100
AcDbArc
50
180
51
270
0
LINE
5
1BB
100
AcDbEntity
8
Mounting Rails
6
ByLayer
62
256
370
-1
100
AcDbLine
10
358.476867334
20
68.999057149
11
355.476867334
21
68.999057149
0
LINE
5
1BC
100
AcDbEntity
8
Mounting Rails
6
ByLayer
62
256
370
-1
100
AcDbLine
10
355.476867334
20
68.999057149
11
355.476867334
21
70.499057149
0
LINE
5
1BD
100
AcDbEntity
8
Mounting Rails
6
ByLayer
62
256
370
-1
100
AcDbLine
10
355.476867334
20
70.499057149
11
358.476867334
21
70.499057149
0
LINE
5
1BE
100
AcDbEntity
8
Mounting Rails
6
ByLayer
62
256
370
-1
100
AcDbLine
10
358.476867334
20
70.499057149
11
358.476867334
21
68.999057149
0
LINE
5
1BF
100
AcDbEntity
8
Mounting Rails
6
ByLayer
62
256
370
-1
100
AcDbLine
10
358.476867334
20
62.999057149
11
355.476867334
21
62.999057149
0
LINE
5
1C0
100
AcDbEntity
8
Mounting Rails
6
ByLayer
62
256
370
-1
100
AcDbLine
10
355.476867334
20
62.999057149
11
355.476867334
21
64.499057149
0
LINE
5
1C1
100
AcDbEntity
8
Mounting Rails
6
ByLayer
62
256
370
-1
100
AcDbLine
10
355.476867334
20
64.499057149
11
358.476867334
21
64.499057149
0
LINE
5
1C2
100
AcDbEntity
8
Mounting Rails
6
ByLayer
62
256
370
-1
100
AcDbLine
10
358.476867334
20
64.499057149
11
358.476867334
21
62.999057149
0
LINE
5
1C3
100
AcDbEntity
8
Mounting Rails
6
ByLayer
62
256
370
-1
100
AcDbLine
10
358.476867334
20
56.999057149
11
355.476867334
21
56.999057149
0
LINE
5
1C4
100
AcDbEntity
8
Mounting Rails
6
ByLayer
62
256
370
-1
100
AcDbLine
10
355.476867334
20
56.999057149
11
355.476867334
21
58.499057149
0
LINE
5
1C5
100
AcDbEntity
8
Mounting Rails
6
ByLayer
62
256
370
-1
100
AcDbLine
10
355.476867334
20
58.499057149
11
358.476867334
21
58.499057149
0
LINE
5
1C6
100
AcDbEntity
8
Mounting Rails
6
ByLayer
62
256
370
-1
100
AcDbLine
10
358.476867334
20
58.499057149
11
358.476867334
21
56.999057149
0
LINE
5
1C7
100
AcDbEntity
8
Mounting Rails
6
ByLayer
62
256
370
-1
100
AcDbLine
10
358.476867334
20
50.999057149
11
355.476867334
21
50.999057149
0
LINE
5
1C8
100
AcDbEntity
8
Mounting Rails
6
ByLayer
62
256
370
-1
100
AcDbLine
10
355.476867334
20
50.999057149
11
355.476867334
21
52.499057149
0
LINE
5
1C9
100
AcDbEntity
8
Mounting Rails
6
ByLayer
62
256
370
-1
100
AcDbLine
10
355.476867334
20
52.499057149
11
358.476867334
21
52.499057149
0
LINE
5
1CA
100
AcDbEntity
8
Mounting Rails
6
ByLayer
62
256
370
-1
100
AcDbLine
10
358.476867334
20
52.499057149
11
358.476867334
21
50.999057149
0
LINE
5
1CB
100
AcDbEntity
8
Mounting Rails
6
ByLayer
62
256
370
-1
100
AcDbLine
10
332.476867334
20
28.999057149
11
332.476867334
21
25.999057149
0
LINE
5
1CC
100
AcDbEntity
8
Mounting Rails
6
ByLayer
62
256
370
-1
100
AcDbLine
10
332.476867334
20
25.999057149
11
330.976867334
21
25.999057149
0
LINE
5
1CD
100
AcDbEntity
8
Mounting Rails
6
ByLayer
62
256
370
-1
100
AcDbLine
10
330.976867334
20
25.999057149
11
330.976867334
21
28.999057149
0
LINE
5
1CE
100
AcDbEntity
8
Mounting Rails
6
ByLayer
62
256
370
-1
100
AcDbLine
10
338.476867334
20
28.999057149
11
338.476867334
21
25.999057149
0
LINE
5
1CF
100
AcDbEntity
8
Mounting Rails
6
ByLayer
62
256
370
-1
100
AcDbLine
10
338.476867334
20
25.999057149
11
336.976867334
21
25.999057149
0
LINE
5
1D0
100
AcDbEntity
8
Mounting Rails
6
ByLayer
62
256
370
-1
100
AcDbLine
10
336.976867334
20
25.999057149
11
336.976867334
21
28.999057149
0
LINE
5
1D1
100
AcDbEntity
8
Mounting Rails
6
ByLayer
62
256
370
-1
100
AcDbLine
10
330.976867334
20
28.999057149
11
332.476867334
21
28.999057149
0
LINE
5
1D2
100
AcDbEntity
8
Mounting Rails
6
ByLayer
62
256
370
-1
100
AcDbLine
10
336.976867334
20
28.999057149
11
338.476867334
21
28.999057149
0
CIRCLE
5
1D3
100
AcDbEntity
8
Mounting Rails
6
ByLayer
62
256
370
-1
100
AcDbCircle
10
241.142423759
20
27.7022801111
40
1.6
0
ARC
5
1D4
100
AcDbEntity
8
Mounting Rails
6
ByLayer
62
256
370
-1
100
AcDbCircle
10
241.142423759
20
27.7022801111
40
4
100
AcDbArc
50
90
51
270
0
LINE
5
1D5
100
AcDbEntity
8
Mounting Rails
6
ByLayer
62
256
370
-1
100
AcDbLine
10
241.142423759
20
31.7022801111
11
245.142423759
21
31.7022801111
0
CIRCLE
5
1D6
100
AcDbEntity
8
Mounting Rails
6
ByLayer
62
256
370
-1
100
AcDbCircle
10
241.142423759
20
61.7022801111
40
1.6
0
ARC
5
1D7
100
AcDbEntity
8
Mounting Rails
6
ByLayer
62
256
370
-1
100
AcDbCircle
10
241.142423759
20
61.7022801111
40
4
100
AcDbArc
50
90
51
270
0
LINE
5
1D8
100
AcDbEntity
8
Mounting Rails
6
ByLayer
62
256
370
-1
100
AcDbLine
10
241.142423759
20
65.7022801111
11
245.142423759
21
65.7022801111
0
LINE
5
1D9
100
AcDbEntity
8
Mounting Rails
6
ByLayer
62
256
370
-1
100
AcDbLine
10
245.142423759
20
31.7022801111
11
245.142423759
21
57.7022801111
0
LINE
5
1DA
100
AcDbEntity
8
Mounting Rails
6
ByLayer
62
256
370
-1
100
AcDbLine
10
241.142423759
20
57.7022801111
11
245.142423759
21
57.7022801111
0
LINE
5
1DB
100
AcDbEntity
8
Mounting Rails
6
ByLayer
62
256
370
-1
100
AcDbLine
10
247.142423759
20
80.7022801111
11
250.142423759
21
80.7022801111
0
LINE
5
1DC
100
AcDbEntity
8
Mounting Rails
6
ByLayer
62
256
370
-1
100
AcDbLine
10
250.142423759
20
80.7022801111
11
250.142423759
21
82.2022801111
0
LINE
5
1DD
100
AcDbEntity
8
Mounting Rails
6
ByLayer
62
256
370
-1
100
AcDbLine
10
250.142423759
20
82.2022801111
11
247.142423759
21
82.2022801111
0
LINE
5
1DE
100
AcDbEntity
8
Mounting Rails
6
ByLayer
62
256
370
-1
100
AcDbLine
10
247.142423759
20
82.2022801111
11
247.142423759
21
80.7022801111
0
LINE
5
1DF
100
AcDbEntity
8
Mounting Rails
6
ByLayer
62
256
370
-1
100
AcDbLine
10
247.142423759
20
74.7022801111
11
250.142423759
21
74.7022801111
0
LINE
5
1E0
100
AcDbEntity
8
Mounting Rails
6
ByLayer
62
256
370
-1
100
AcDbLine
10
250.142423759
20
74.7022801111
11
250.142423759
21
76.2022801111
0
LINE
5
1E1
100
AcDbEntity
8
Mounting Rails
6
ByLayer
62
256
370
-1
100
AcDbLine
10
250.142423759
20
76.2022801111
11
247.142423759
21
76.2022801111
0
LINE
5
1E2
100
AcDbEntity
8
Mounting Rails
6
ByLayer
62
256
370
-1
100
AcDbLine
10
247.142423759
20
76.2022801111
11
247.142423759
21
74.7022801111
0
LINE
5
1E3
100
AcDbEntity
8
Mounting Rails
6
ByLayer
62
256
370
-1
100
AcDbLine
10
285.142423759
20
28.7022801111
11
285.142423759
21
25.7022801111
0
LINE
5
1E4
100
AcDbEntity
8
Mounting Rails
6
ByLayer
62
256
370
-1
100
AcDbLine
10
285.142423759
20
25.7022801111
11
286.642423759
21
25.7022801111
0
LINE
5
1E5
100
AcDbEntity
8
Mounting Rails
6
ByLayer
62
256
370
-1
100
AcDbLine
10
286.642423759
20
25.7022801111
11
286.642423759
21
28.7022801111
0
LINE
5
1E6
100
AcDbEntity
8
Mounting Rails
6
ByLayer
62
256
370
-1
100
AcDbLine
10
279.142423759
20
28.7022801111
11
279.142423759
21
25.7022801111
0
LINE
5
1E7
100
AcDbEntity
8
Mounting Rails
6
ByLayer
62
256
370
-1
100
AcDbLine
10
279.142423759
20
25.7022801111
11
280.642423759
21
25.7022801111
0
LINE
5
1E8
100
AcDbEntity
8
Mounting Rails
6
ByLayer
62
256
370
-1
100
AcDbLine
10
280.642423759
20
25.7022801111
11
280.642423759
21
28.7022801111
0
LINE
5
1E9
100
AcDbEntity
8
Mounting Rails
6
ByLayer
62
256
370
-1
100
AcDbLine
10
286.642423759
20
28.7022801111
11
285.142423759
21
28.7022801111
0
LINE
5
1EA
100
AcDbEntity
8
Mounting Rails
6
ByLayer
62
256
370
-1
100
AcDbLine
10
280.642423759
20
28.7022801111
11
279.142423759
21
28.7022801111
0
LINE
5
1EB
100
AcDbEntity
8
Mounting Rails
6
ByLayer
62
256
370
-1
100
AcDbLine
10
245.142423759
20
95.7022801111
11
245.142423759
21
65.7022801111
0
ARC
5
1EC
100
AcDbEntity
8
Mounting Rails
6
ByLayer
62
256
370
-1
100
AcDbCircle
10
248.142423759
20
95.7022801111
40
3
100
AcDbArc
50
90
51
180
0
LINE
5
1ED
100
AcDbEntity
8
Mounting Rails
6
ByLayer
62
256
370
-1
100
AcDbLine
10
248.142423759
20
98.7022801111
11
249.142423759
21
98.7022801111
0
LINE
5
1EE
100
AcDbEntity
8
Mounting Rails
6
ByLayer
62
256
370
-1
100
AcDbLine
10
252.142423759
20
95.7022801111
11
252.142423759
21
30.7022801111
0
ARC
5
1EF
100
AcDbEntity
8
Mounting Rails
6
ByLayer
62
256
370
-1
100
AcDbCircle
10
249.142423759
20
95.7022801111
40
3
100
AcDbArc
50
0
51
90
0
LINE
5
1F0
100
AcDbEntity
8
Mounting Rails
6
ByLayer
62
256
370
-1
100
AcDbLine
10
252.142423759
20
30.7022801111
11
297.142423759
21
30.7022801111
0
ARC
5
1F1
100
AcDbEntity
8
Mounting Rails
6
ByLayer
62
256
370
-1
100
AcDbCircle
10
297.142423759
20
27.7022801111
40
3
100
AcDbArc
50
0
51
90
0
LINE
5
1F2
100
AcDbEntity
8
Mounting Rails
6
ByLayer
62
256
370
-1
100
AcDbLine
10
300.142423759
20
27.7022801111
11
300.142423759
21
26.7022801111
0
LINE
5
1F3
100
AcDbEntity
8
Mounting Rails
6
ByLayer
62
256
370
-1
100
AcDbLine
10
241.142423759
20
23.7022801111
11
297.142423759
21
23.7022801111
0
ARC
5
1F4
100
AcDbEntity
8
Mounting Rails
6
ByLayer
62
256
370
-1
100
AcDbCircle
10
297.142423759
20
26.7022801111
40
3
100
AcDbArc
50
270
51
0
0
LINE
5
1F5
100
AcDbEntity
8
Mounting Rails
6
ByLayer
62
256
370
-1
100
AcDbLine
10
247.142423759
20
68.7022801111
11
250.142423759
21
68.7022801111
0
LINE
5
1F6
100
AcDbEntity
8
Mounting Rails
6
ByLayer
62
256
370
-1
100
AcDbLine
10
250.142423759
20
68.7022801111
11
250.142423759
21
70.2022801111
0
LINE
5
1F7
100
AcDbEntity
8
Mounting Rails
6
ByLayer
62
256
370
-1
100
AcDbLine
10
250.142423759
20
70.2022801111
11
247.142423759
21
70.2022801111
0
LINE
5
1F8
100
AcDbEntity
8
Mounting Rails
6
ByLayer
62
256
370
-1
100
AcDbLine
10
247.142423759
20
70.2022801111
11
247.142423759
21
68.7022801111
0
LINE
5
1F9
100
AcDbEntity
8
Mounting Rails
6
ByLayer
62
256
370
-1
100
AcDbLine
10
247.142423759
20
62.7022801111
11
250.142423759
21
62.7022801111
0
LINE
5
1FA
100
AcDbEntity
8
Mounting Rails
6
ByLayer
62
256
370
-1
100
AcDbLine
10
250.142423759
20
62.7022801111
11
250.142423759
21
64.2022801111
0
LINE
5
1FB
100
AcDbEntity
8
Mounting Rails
6
ByLayer
62
256
370
-1
100
AcDbLine
10
250.142423759
20
64.2022801111
11
247.142423759
21
64.2022801111
0
LINE
5
1FC
100
AcDbEntity
8
Mounting Rails
6
ByLayer
62
256
370
-1
100
AcDbLine
10
247.142423759
20
64.2022801111
11
247.142423759
21
62.7022801111
0
LINE
5
1FD
100
AcDbEntity
8
Mounting Rails
6
ByLayer
62
256
370
-1
100
AcDbLine
10
247.142423759
20
56.7022801111
11
250.142423759
21
56.7022801111
0
LINE
5
1FE
100
AcDbEntity
8
Mounting Rails
6
ByLayer
62
256
370
-1
100
AcDbLine
10
250.142423759
20
56.7022801111
11
250.142423759
21
58.2022801111
0
LINE
5
1FF
100
AcDbEntity
8
Mounting Rails
6
ByLayer
62
256
370
-1
100
AcDbLine
10
250.142423759
20
58.2022801111
11
247.142423759
21
58.2022801111
0
LINE
5
200
100
AcDbEntity
8
Mounting Rails
6
ByLayer
62
256
370
-1
100
AcDbLine
10
247.142423759
20
58.2022801111
11
247.142423759
21
56.7022801111
0
LINE
5
201
100
AcDbEntity
8
Mounting Rails
6
ByLayer
62
256
370
-1
100
AcDbLine
10
247.142423759
20
50.7022801111
11
250.142423759
21
50.7022801111
0
LINE
5
202
100
AcDbEntity
8
Mounting Rails
6
ByLayer
62
256
370
-1
100
AcDbLine
10
250.142423759
20
50.7022801111
11
250.142423759
21
52.2022801111
0
LINE
5
203
100
AcDbEntity
8
Mounting Rails
6
ByLayer
62
256
370
-1
100
AcDbLine
10
250.142423759
20
52.2022801111
11
247.142423759
21
52.2022801111
0
LINE
5
204
100
AcDbEntity
8
Mounting Rails
6
ByLayer
62
256
370
-1
100
AcDbLine
10
247.142423759
20
52.2022801111
11
247.142423759
21
50.7022801111
0
LINE
5
205
100
AcDbEntity
8
Mounting Rails
6
ByLayer
62
256
370
-1
100
AcDbLine
10
273.142423759
20
28.7022801111
11
273.142423759
21
25.7022801111
0
LINE
5
206
100
AcDbEntity
8
Mounting Rails
6
ByLayer
62
256
370
-1
100
AcDbLine
10
273.142423759
20
25.7022801111
11
274.642423759
21
25.7022801111
0
LINE
5
207
100
AcDbEntity
8
Mounting Rails
6
ByLayer
62
256
370
-1
100
AcDbLine
10
274.642423759
20
25.7022801111
11
274.642423759
21
28.7022801111
0
LINE
5
208
100
AcDbEntity
8
Mounting Rails
6
ByLayer
62
256
370
-1
100
AcDbLine
10
267.142423759
20
28.7022801111
11
267.142423759
21
25.7022801111
0
LINE
5
209
100
AcDbEntity
8
Mounting Rails
6
ByLayer
62
256
370
-1
100
AcDbLine
10
267.142423759
20
25.7022801111
11
268.642423759
21
25.7022801111
0
LINE
5
20A
100
AcDbEntity
8
Mounting Rails
6
ByLayer
62
256
370
-1
100
AcDbLine
10
268.642423759
20
25.7022801111
11
268.642423759
21
28.7022801111
0
LINE
5
20B
100
AcDbEntity
8
Mounting Rails
6
ByLayer
62
256
370
-1
100
AcDbLine
10
274.642423759
20
28.7022801111
11
273.142423759
21
28.7022801111
0
LINE
5
20C
100
AcDbEntity
8
Mounting Rails
6
ByLayer
62
256
370
-1
100
AcDbLine
10
268.642423759
20
28.7022801111
11
267.142423759
21
28.7022801111
0
LINE
5
20D
100
AcDbEntity
8
Camera Box
6
ByLayer
62
176
420
128
370
-1
100
AcDbLine
10
306.730149073
20
40.4028091075
11
306.730149073
21
48.4028091075
0
LINE
5
20E
100
AcDbEntity
8
Camera Box
6
ByLayer
62
176
420
128
370
-1
100
AcDbLine
10
306.730149073
20
56.4028091075
11
306.730149073
21
64.4028091075
0
LINE
5
20F
100
AcDbEntity
8
Camera Box
6
ByLayer
62
176
420
128
370
-1
100
AcDbLine
10
306.730149073
20
72.4028091075
11
306.730149073
21
80.4028091075
0
LINE
5
210
100
AcDbEntity
8
Camera Box
6
ByLayer
62
176
420
128
370
-1
100
AcDbLine
10
306.730149073
20
88.4028091075
11
306.730149073
21
96.1528091075
0
LINE
5
211
100
AcDbEntity
8
Camera Box
6
ByLayer
62
176
420
128
370
-1
100
AcDbLine
10
309.730149073
20
32.9028091075
11
309.730149073
21
40.4028091075
0
LINE
5
212
100
AcDbEntity
8
Camera Box
6
ByLayer
62
176
420
128
370
-1
100
AcDbLine
10
309.730149073
20
48.4028091075
11
309.730149073
21
56.4028091075
0
LINE
5
213
100
AcDbEntity
8
Camera Box
6
ByLayer
62
176
420
128
370
-1
100
AcDbLine
10
309.730149073
20
64.4028091075
11
309.730149073
21
72.4028091075
0
LINE
5
214
100
AcDbEntity
8
Camera Box
6
ByLayer
62
176
420
128
370
-1
100
AcDbLine
10
309.730149073
20
80.4028091075
11
309.730149073
21
88.4028091075
0
LINE
5
215
100
AcDbEntity
8
Camera Box
6
ByLayer
62
176
420
128
370
-1
100
AcDbLine
10
309.730149073
20
96.4028091075
11
309.730149073
21
103.902809107
0
LINE
5
216
100
AcDbEntity
8
Camera Box
6
ByLayer
62
176
420
128
370
-1
100
AcDbLine
10
306.730149073
20
40.4028091075
11
309.730149073
21
40.4028091075
0
LINE
5
217
100
AcDbEntity
8
Camera Box
6
ByLayer
62
176
420
128
370
-1
100
AcDbLine
10
306.730149073
20
48.4028091075
11
309.730149073
21
48.4028091075
0
LINE
5
218
100
AcDbEntity
8
Camera Box
6
ByLayer
62
176
420
128
370
-1
100
AcDbLine
10
306.730149073
20
56.4028091075
11
309.730149073
21
56.4028091075
0
LINE
5
219
100
AcDbEntity
8
Camera Box
6
ByLayer
62
176
420
128
370
-1
100
AcDbLine
10
306.730149073
20
64.4028091075
11
309.730149073
21
64.4028091075
0
LINE
5
21A
100
AcDbEntity
8
Camera Box
6
ByLayer
62
176
420
128
370
-1
100
AcDbLine
10
306.730149073
20
72.4028091075
11
309.730149073
21
72.4028091075
0
LINE
5
21B
100
AcDbEntity
8
Camera Box
6
ByLayer
62
176
420
128
370
-1
100
AcDbLine
10
306.730149073
20
80.4028091075
11
309.730149073
21
80.4028091075
0
LINE
5
21C
100
AcDbEntity
8
Camera Box
6
ByLayer
62
176
420
128
370
-1
100
AcDbLine
10
306.730149073
20
88.4028091075
11
309.730149073
21
88.4028091075
0
LINE
5
21D
100
AcDbEntity
8
Camera Box
6
ByLayer
62
176
420
128
370
-1
100
AcDbLine
10
306.730149073
20
96.4028091075
11
309.730149073
21
96.4028091075
0
LINE
5
21E
100
AcDbEntity
8
Camera Box
6
ByLayer
62
176
420
128
370
-1
100
AcDbLine
10
309.730149073
20
103.902809107
11
301.730149073
21
103.902809107
0
LINE
5
21F
100
AcDbEntity
8
Camera Box
6
ByLayer
62
176
420
128
370
-1
100
AcDbLine
10
293.730149073
20
103.902809107
11
285.730149073
21
103.902809107
0
LINE
5
220
100
AcDbEntity
8
Camera Box
6
ByLayer
62
176
420
128
370
-1
100
AcDbLine
10
277.730149073
20
103.902809107
11
269.730149073
21
103.902809107
0
LINE
5
221
100
AcDbEntity
8
Camera Box
6
ByLayer
62
176
420
128
370
-1
100
AcDbLine
10
301.730149073
20
100.902809107
11
293.730149073
21
100.902809107
0
LINE
5
222
100
AcDbEntity
8
Camera Box
6
ByLayer
62
176
420
128
370
-1
100
AcDbLine
10
277.730149073
20
100.902809107
11
285.730149073
21
100.902809107
0
LINE
5
223
100
AcDbEntity
8
Camera Box
6
ByLayer
62
176
420
128
370
-1
100
AcDbLine
10
277.730149073
20
100.902809107
11
277.730149073
21
103.902809107
0
LINE
5
224
100
AcDbEntity
8
Camera Box
6
ByLayer
62
176
420
128
370
-1
100
AcDbLine
10
269.730149073
20
100.902809107
11
269.730149073
21
103.902809107
0
LINE
5
225
100
AcDbEntity
8
Camera Box
6
ByLayer
62
176
420
128
370
-1
100
AcDbLine
10
285.730149073
20
100.902809107
11
285.730149073
21
103.902809107
0
LINE
5
226
100
AcDbEntity
8
Camera Box
6
ByLayer
62
176
420
128
370
-1
100
AcDbLine
10
293.730149073
20
100.902809107
11
293.730149073
21
103.902809107
0
LINE
5
227
100
AcDbEntity
8
Camera Box
6
ByLayer
62
176
420
128
370
-1
100
AcDbLine
10
301.730149073
20
100.902809107
11
301.730149073
21
103.902809107
0
LINE
5
228
100
AcDbEntity
8
Camera Box
6
ByLayer
62
176
420
128
370
-1
100
AcDbLine
10
309.730149073
20
32.9028091075
11
301.730149073
21
32.9028091075
0
LINE
5
229
100
AcDbEntity
8
Camera Box
6
ByLayer
62
176
420
128
370
-1
100
AcDbLine
10
293.730149073
20
32.9028091075
11
285.730149073
21
32.9028091075
0
LINE
5
22A
100
AcDbEntity
8
Camera Box
6
ByLayer
62
176
420
128
370
-1
100
AcDbLine
10
277.730149073
20
32.9028091075
11
269.730149073
21
32.9028091075
0
LINE
5
22B
100
AcDbEntity
8
Camera Box
6
ByLayer
62
176
420
128
370
-1
100
AcDbLine
10
301.730149073
20
35.9028091075
11
293.730149073
21
35.9028091075
0
LINE
5
22C
100
AcDbEntity
8
Camera Box
6
ByLayer
62
176
420
128
370
-1
100
AcDbLine
10
277.730149073
20
35.9028091075
11
285.730149073
21
35.9028091075
0
LINE
5
22D
100
AcDbEntity
8
Camera Box
6
ByLayer
62
176
420
128
370
-1
100
AcDbLine
10
277.730149073
20
35.9028091075
11
277.730149073
21
32.9028091075
0
LINE
5
22E
100
AcDbEntity
8
Camera Box
6
ByLayer
62
176
420
128
370
-1
100
AcDbLine
10
269.730149073
20
35.9028091075
11
269.730149073
21
32.9028091075
0
LINE
5
22F
100
AcDbEntity
8
Camera Box
6
ByLayer
62
176
420
128
370
-1
100
AcDbLine
10
285.730149073
20
35.9028091075
11
285.730149073
21
32.9028091075
0
LINE
5
230
100
AcDbEntity
8
Camera Box
6
ByLayer
62
176
420
128
370
-1
100
AcDbLine
10
293.730149073
20
35.9028091075
11
293.730149073
21
32.9028091075
0
LINE
5
231
100
AcDbEntity
8
Camera Box
6
ByLayer
62
176
420
128
370
-1
100
AcDbLine
10
301.730149073
20
35.9028091075
11
301.730149073
21
32.9028091075
0
CIRCLE
5
232
100
AcDbEntity
8
Camera Box
6
ByLayer
62
176
420
128
370
-1
100
AcDbCircle
10
269.730149073
20
45.4028091085
40
3
0
CIRCLE
5
233
100
AcDbEntity
8
Camera Box
6
ByLayer
62
176
420
128
370
-1
100
AcDbCircle
10
281.730149073
20
45.4028091085
40
3
0
CIRCLE
5
234
100
AcDbEntity
8
Camera Box
6
ByLayer
62
176
420
128
370
-1
100
AcDbCircle
10
293.730149073
20
45.4028091085
40
3
0
CIRCLE
5
235
100
AcDbEntity
8
Camera Box
6
ByLayer
62
176
420
128
370
-1
100
AcDbCircle
10
269.730149073
20
91.4028091065
40
3
0
CIRCLE
5
236
100
AcDbEntity
8
Camera Box
6
ByLayer
62
176
420
128
370
-1
100
AcDbCircle
10
281.730149073
20
91.4028091065
40
3
0
CIRCLE
5
237
100
AcDbEntity
8
Camera Box
6
ByLayer
62
176
420
128
370
-1
100
AcDbCircle
10
293.730149073
20
91.4028091065
40
3
0
LINE
5
238
100
AcDbEntity
8
Camera Box
6
ByLayer
62
176
420
128
370
-1
100
AcDbLine
10
258.730149073
20
100.902809107
11
258.730149073
21
35.9028091075
0
LINE
5
239
100
AcDbEntity
8
Camera Box
6
ByLayer
62
176
420
128
370
-1
100
AcDbLine
10
258.730149073
20
100.902809107
11
258.730149073
21
35.9028091075
0
LINE
5
23A
100
AcDbEntity
8
Camera Box
6
ByLayer
62
176
420
128
370
-1
100
AcDbLine
10
258.730149073
20
100.902809107
11
269.730149073
21
100.902809107
0
LINE
5
23B
100
AcDbEntity
8
Camera Box
6
ByLayer
62
176
420
128
370
-1
100
AcDbLine
10
258.730149073
20
35.9028091075
11
269.730149073
21
35.9028091075
0
ARC
5
23C
100
AcDbEntity
8
Camera Box
6
ByLayer
62
176
420
128
370
-1
100
AcDbCircle
10
263.090538766
20
54.4738769195
40
1
100
AcDbArc
50
180
51
270
0
LINE
5
23D
100
AcDbEntity
8
Camera Box
6
ByLayer
62
176
420
128
370
-1
100
AcDbLine
10
263.090538766
20
53.4738769195
11
263.090538766
21
53.4738769195
0
ARC
5
23E
100
AcDbEntity
8
Camera Box
6
ByLayer
62
176
420
128
370
-1
100
AcDbCircle
10
263.090538766
20
54.4738769195
40
1
100
AcDbArc
50
270
51
360
0
LINE
5
23F
100
AcDbEntity
8
Camera Box
6
ByLayer
62
176
420
128
370
-1
100
AcDbLine
10
262.090538767
20
82.3317412965
11
262.090538765
21
54.4738769195
0
ARC
5
240
100
AcDbEntity
8
Camera Box
6
ByLayer
62
176
420
128
370
-1
100
AcDbCircle
10
263.090538766
20
82.3317412965
40
1
100
AcDbArc
50
90
51
180
0
LINE
5
241
100
AcDbEntity
8
Camera Box
6
ByLayer
62
176
420
128
370
-1
100
AcDbLine
10
263.090538766
20
83.3317412955
11
263.090538766
21
83.3317412955
0
LINE
5
242
100
AcDbEntity
8
Camera Box
6
ByLayer
62
176
420
128
370
-1
100
AcDbLine
10
264.090538766
20
82.3317412965
11
264.090538766
21
54.4738769195
0
ARC
5
243
100
AcDbEntity
8
Camera Box
6
ByLayer
62
176
420
128
370
-1
100
AcDbCircle
10
263.090538766
20
82.3317412965
40
1
100
AcDbArc
50
360
51
90
0
LINE
5
244
100
AcDbEntity
8
Camera Box
6
ByLayer
62
176
420
128
370
-1
100
AcDbLine
10
315.041326581
20
40.4028091075
11
315.041326581
21
32.9028091075
0
LINE
5
245
100
AcDbEntity
8
Camera Box
6
ByLayer
62
176
420
128
370
-1
100
AcDbLine
10
315.041326581
20
56.4028091075
11
315.041326581
21
48.4028091075
0
LINE
5
246
100
AcDbEntity
8
Camera Box
6
ByLayer
62
176
420
128
370
-1
100
AcDbLine
10
315.041326581
20
72.4028091075
11
315.041326581
21
64.4028091075
0
LINE
5
247
100
AcDbEntity
8
Camera Box
6
ByLayer
62
176
420
128
370
-1
100
AcDbLine
10
315.041326581
20
88.4028091075
11
315.041326581
21
80.4028091075
0
LINE
5
248
100
AcDbEntity
8
Camera Box
6
ByLayer
62
176
420
128
370
-1
100
AcDbLine
10
315.041326581
20
103.902809107
11
315.041326581
21
100.902809107
0
LINE
5
249
100
AcDbEntity
8
Camera Box
6
ByLayer
62
176
420
128
370
-1
100
AcDbLine
10
315.041326581
20
100.902809107
11
315.041326581
21
96.1528091075
0
LINE
5
24A
100
AcDbEntity
8
Camera Box
6
ByLayer
62
176
420
128
370
-1
100
AcDbLine
10
312.041326581
20
40.4028091075
11
312.041326581
21
48.4028091075
0
LINE
5
24B
100
AcDbEntity
8
Camera Box
6
ByLayer
62
176
420
128
370
-1
100
AcDbLine
10
312.041326581
20
56.4028091075
11
312.041326581
21
64.4028091075
0
LINE
5
24C
100
AcDbEntity
8
Camera Box
6
ByLayer
62
176
420
128
370
-1
100
AcDbLine
10
312.041326581
20
72.4028091075
11
312.041326581
21
80.4028091075
0
LINE
5
24D
100
AcDbEntity
8
Camera Box
6
ByLayer
62
176
420
128
370
-1
100
AcDbLine
10
312.041326581
20
88.4028091075
11
312.041326581
21
96.4028091075
0
LINE
5
24E
100
AcDbEntity
8
Camera Box
6
ByLayer
62
176
420
128
370
-1
100
AcDbLine
10
312.041326581
20
40.4028091075
11
315.041326581
21
40.4028091075
0
LINE
5
24F
100
AcDbEntity
8
Camera Box
6
ByLayer
62
176
420
128
370
-1
100
AcDbLine
10
312.041326581
20
48.4028091075
11
315.041326581
21
48.4028091075
0
LINE
5
250
100
AcDbEntity
8
Camera Box
6
ByLayer
62
176
420
128
370
-1
100
AcDbLine
10
312.041326581
20
56.4028091075
11
315.041326581
21
56.4028091075
0
LINE
5
251
100
AcDbEntity
8
Camera Box
6
ByLayer
62
176
420
128
370
-1
100
AcDbLine
10
312.041326581
20
64.4028091075
11
315.041326581
21
64.4028091075
0
LINE
5
252
100
AcDbEntity
8
Camera Box
6
ByLayer
62
176
420
128
370
-1
100
AcDbLine
10
312.041326581
20
72.4028091075
11
315.041326581
21
72.4028091075
0
LINE
5
253
100
AcDbEntity
8
Camera Box
6
ByLayer
62
176
420
128
370
-1
100
AcDbLine
10
312.041326581
20
80.4028091075
11
315.041326581
21
80.4028091075
0
LINE
5
254
100
AcDbEntity
8
Camera Box
6
ByLayer
62
176
420
128
370
-1
100
AcDbLine
10
312.041326581
20
88.4028091075
11
315.041326581
21
88.4028091075
0
LINE
5
255
100
AcDbEntity
8
Camera Box
6
ByLayer
62
176
420
128
370
-1
100
AcDbLine
10
312.041326581
20
96.4028091075
11
315.041326581
21
96.4028091075
0
LINE
5
256
100
AcDbEntity
8
Camera Box
6
ByLayer
62
176
420
128
370
-1
100
AcDbLine
10
323.041326581
20
103.902809107
11
315.041326581
21
103.902809107
0
LINE
5
257
100
AcDbEntity
8
Camera Box
6
ByLayer
62
176
420
128
370
-1
100
AcDbLine
10
331.041326581
20
100.902809107
11
323.041326581
21
100.902809107
0
LINE
5
258
100
AcDbEntity
8
Camera Box
6
ByLayer
62
176
420
128
370
-1
100
AcDbLine
10
323.041326581
20
103.902809107
11
323.041326581
21
100.902809107
0
LINE
5
259
100
AcDbEntity
8
Camera Box
6
ByLayer
62
176
420
128
370
-1
100
AcDbLine
10
331.041326581
20
103.902809107
11
331.041326581
21
100.902809107
0
LINE
5
25A
100
AcDbEntity
8
Camera Box
6
ByLayer
62
176
420
128
370
-1
100
AcDbLine
10
323.041326581
20
32.9028091075
11
315.041326581
21
32.9028091075
0
LINE
5
25B
100
AcDbEntity
8
Camera Box
6
ByLayer
62
176
420
128
370
-1
100
AcDbLine
10
331.041326581
20
35.9028091075
11
323.041326581
21
35.9028091075
0
LINE
5
25C
100
AcDbEntity
8
Camera Box
6
ByLayer
62
176
420
128
370
-1
100
AcDbLine
10
323.041326581
20
32.9028091075
11
323.041326581
21
35.9028091075
0
LINE
5
25D
100
AcDbEntity
8
Camera Box
6
ByLayer
62
176
420
128
370
-1
100
AcDbLine
10
331.041326581
20
32.9028091075
11
331.041326581
21
35.9028091075
0
ARC
5
25E
100
AcDbEntity
8
Camera Box
6
ByLayer
62
176
420
128
370
-1
100
AcDbCircle
10
346.041326581
20
54.4738769195
40
1
100
AcDbArc
50
180
51
270
0
LINE
5
25F
100
AcDbEntity
8
Camera Box
6
ByLayer
62
176
420
128
370
-1
100
AcDbLine
10
346.041326581
20
53.4738769195
11
346.041326581
21
53.4738769195
0
ARC
5
260
100
AcDbEntity
8
Camera Box
6
ByLayer
62
176
420
128
370
-1
100
AcDbCircle
10
346.041326581
20
54.4738769195
40
1
100
AcDbArc
50
270
51
360
0
LINE
5
261
100
AcDbEntity
8
Camera Box
6
ByLayer
62
176
420
128
370
-1
100
AcDbLine
10
345.041326582
20
82.3317412965
11
345.04132658
21
54.4738769195
0
ARC
5
262
100
AcDbEntity
8
Camera Box
6
ByLayer
62
176
420
128
370
-1
100
AcDbCircle
10
346.041326581
20
82.3317412965
40
1
100
AcDbArc
50
90
51
180
0
LINE
5
263
100
AcDbEntity
8
Camera Box
6
ByLayer
62
176
420
128
370
-1
100
AcDbLine
10
346.041326581
20
83.3317412955
11
346.041326581
21
83.3317412955
0
LINE
5
264
100
AcDbEntity
8
Camera Box
6
ByLayer
62
176
420
128
370
-1
100
AcDbLine
10
347.041326581
20
82.3317412965
11
347.041326581
21
54.4738769195
0
ARC
5
265
100
AcDbEntity
8
Camera Box
6
ByLayer
62
176
420
128
370
-1
100
AcDbCircle
10
346.041326581
20
82.3317412965
40
1
100
AcDbArc
50
360
51
90
0
LINE
5
266
100
AcDbEntity
8
Camera Box
6
ByLayer
62
176
420
128
370
-1
100
AcDbLine
10
339.041326581
20
103.902809107
11
339.041326581
21
100.902809107
0
LINE
5
267
100
AcDbEntity
8
Camera Box
6
ByLayer
62
176
420
128
370
-1
100
AcDbLine
10
339.041326581
20
32.9028091075
11
339.041326581
21
35.9028091075
0
LINE
5
268
100
AcDbEntity
8
Camera Box
6
ByLayer
62
176
420
128
370
-1
100
AcDbLine
10
339.041326581
20
35.9028091075
11
350.041326581
21
35.9028091075
0
LINE
5
269
100
AcDbEntity
8
Camera Box
6
ByLayer
62
176
420
128
370
-1
100
AcDbLine
10
339.041326581
20
100.902809107
11
350.041326581
21
100.902809107
0
LINE
5
26A
100
AcDbEntity
8
Camera Box
6
ByLayer
62
176
420
128
370
-1
100
AcDbLine
10
350.041326581
20
35.9028091075
11
350.041326581
21
100.902809107
0
LINE
5
26B
100
AcDbEntity
8
Camera Box
6
ByLayer
62
176
420
128
370
-1
100
AcDbLine
10
331.041326581
20
32.9028091075
11
339.041326581
21
32.9028091075
0
LINE
5
26C
100
AcDbEntity
8
Camera Box
6
ByLayer
62
176
420
128
370
-1
100
AcDbLine
10
331.041326581
20
103.902809107
11
339.041326581
21
103.902809107
0
CIRCLE
5
26D
100
AcDbEntity
8
Mounting Rails
6
ByLayer
62
256
370
-1
100
AcDbCircle
10
281.71066555
20
17.3346182522
40
1.6
0
ARC
5
26E
100
AcDbEntity
8
Mounting Rails
6
ByLayer
62
256
370
-1
100
AcDbCircle
10
281.71066555
20
17.3346182522
40
4
100
AcDbArc
50
90
51
270
0
CIRCLE
5
26F
100
AcDbEntity
8
Mounting Rails
6
ByLayer
62
256
370
-1
100
AcDbCircle
10
324.71066555
20
8.33461825217
40
1.6
0
ARC
5
270
100
AcDbEntity
8
Mounting Rails
6
ByLayer
62
256
370
-1
100
AcDbCircle
10
324.71066555
20
8.33461825217
40
4
100
AcDbArc
50
180
51
360
0
LINE
5
271
100
AcDbEntity
8
Mounting Rails
6
ByLayer
62
256
370
-1
100
AcDbLine
10
383.71066555
20
12.3346182522
11
378.71066555
21
12.3346182522
0
LINE
5
272
100
AcDbEntity
8
Mounting Rails
6
ByLayer
62
256
370
-1
100
AcDbLine
10
373.71066555
20
15.3346182522
11
328.71066555
21
15.3346182522
0
LINE
5
273
100
AcDbEntity
8
Mounting Rails
6
ByLayer
62
256
370
-1
100
AcDbLine
10
281.71066555
20
13.3346182522
11
292.71066555
21
13.3346182522
0
LINE
5
274
100
AcDbEntity
8
Mounting Rails
6
ByLayer
62
256
370
-1
100
AcDbLine
10
301.71066555
20
9.53461825217
11
295.71066555
21
9.53461825217
0
LINE
5
275
100
AcDbEntity
8
Mounting Rails
6
ByLayer
62
256
370
-1
100
AcDbLine
10
301.71066555
20
13.0346182522
11
295.71066555
21
13.0346182522
0
LINE
5
276
100
AcDbEntity
8
Mounting Rails
6
ByLayer
62
256
370
-1
100
AcDbLine
10
301.71066555
20
13.0346182522
11
301.71066555
21
9.53461825217
0
LINE
5
277
100
AcDbEntity
8
Mounting Rails
6
ByLayer
62
256
370
-1
100
AcDbLine
10
295.71066555
20
13.0346182522
11
295.71066555
21
9.53461825217
0
ARC
5
278
100
AcDbEntity
8
Mounting Rails
6
ByLayer
62
256
370
-1
100
AcDbCircle
10
301.71066555
20
9.53461825217
40
3
100
AcDbArc
50
270
51
360
0
LINE
5
279
100
AcDbEntity
8
Mounting Rails
6
ByLayer
62
256
370
-1
100
AcDbLine
10
301.71066555
20
6.53461825217
11
295.71066555
21
6.53461825217
0
ARC
5
27A
100
AcDbEntity
8
Mounting Rails
6
ByLayer
62
256
370
-1
100
AcDbCircle
10
295.71066555
20
9.53461825217
40
3
100
AcDbArc
50
180
51
270
0
LINE
5
27B
100
AcDbEntity
8
Mounting Rails
6
ByLayer
62
256
370
-1
100
AcDbLine
10
292.71066555
20
13.3346182522
11
292.71066555
21
9.53461825217
0
LINE
5
27C
100
AcDbEntity
8
Mounting Rails
6
ByLayer
62
256
370
-1
100
AcDbLine
10
304.71066555
20
15.3346182522
11
304.71066555
21
9.53461825217
0
LINE
5
27D
100
AcDbEntity
8
Mounting Rails
6
ByLayer
62
256
370
-1
100
AcDbLine
10
328.71066555
20
8.33461825217
11
328.71066555
21
15.3346182522
0
LINE
5
27E
100
AcDbEntity
8
Mounting Rails
6
ByLayer
62
256
370
-1
100
AcDbLine
10
320.71066555
20
8.33461825217
11
320.71066555
21
15.3346182522
0
LINE
5
27F
100
AcDbEntity
8
Mounting Rails
6
ByLayer
62
256
370
-1
100
AcDbLine
10
320.71066555
20
15.3346182522
11
304.71066555
21
15.3346182522
0
ARC
5
280
100
AcDbEntity
8
Mounting Rails
6
ByLayer
62
256
370
-1
100
AcDbCircle
10
379.71066555
20
12.3346182522
40
4
100
AcDbArc
50
270
51
360
0
LINE
5
281
100
AcDbEntity
8
Mounting Rails
6
ByLayer
62
256
370
-1
100
AcDbLine
10
373.71066555
20
15.3346182522
11
373.71066555
21
12.3346182522
0
LINE
5
282
100
AcDbEntity
8
Mounting Rails
6
ByLayer
62
256
370
-1
100
AcDbLine
10
379.71066555
20
8.33461825217
11
377.71066555
21
8.33461825217
0
ARC
5
283
100
AcDbEntity
8
Mounting Rails
6
ByLayer
62
256
370
-1
100
AcDbCircle
10
377.71066555
20
12.3346182522
40
4
100
AcDbArc
50
180
51
270
0
LINE
5
284
100
AcDbEntity
8
Mounting Rails
6
ByLayer
62
256
370
-1
100
AcDbLine
10
378.71066555
20
18.3346182522
11
378.71066555
21
12.3346182522
0
LINE
5
285
100
AcDbEntity
8
Mounting Rails
6
ByLayer
62
256
370
-1
100
AcDbLine
10
375.71066555
20
21.3346182522
11
281.71066555
21
21.3346182522
0
ARC
5
286
100
AcDbEntity
8
Mounting Rails
6
ByLayer
62
256
370
-1
100
AcDbCircle
10
375.71066555
20
18.3346182522
40
3
100
AcDbArc
50
360
51
90
0
LINE
5
287
100
AcDbEntity
8
Camera Box
6
ByLayer
62
176
420
128
370
-1
100
AcDbLine
10
391.049500572
20
83.2351181545
11
391.049500572
21
86.2351181545
0
LINE
5
288
100
AcDbEntity
8
Camera Box
6
ByLayer
62
176
420
128
370
-1
100
AcDbLine
10
399.049500572
20
83.2351181545
11
399.049500572
21
86.2351181545
0
LINE
5
289
100
AcDbEntity
8
Camera Box
6
ByLayer
62
176
420
128
370
-1
100
AcDbLine
10
399.049500572
20
86.2351181545
11
391.049500572
21
86.2351181545
0
LINE
5
28A
100
AcDbEntity
8
Camera Box
6
ByLayer
62
176
420
128
370
-1
100
AcDbLine
10
410.049500572
20
46.2351181545
11
407.049500572
21
46.2351181545
0
LINE
5
28B
100
AcDbEntity
8
Camera Box
6
ByLayer
62
176
420
128
370
-1
100
AcDbLine
10
410.049500572
20
54.2351181545
11
407.049500572
21
54.2351181545
0
LINE
5
28C
100
AcDbEntity
8
Camera Box
6
ByLayer
62
176
420
128
370
-1
100
AcDbLine
10
410.049500572
20
62.2351181545
11
407.049500572
21
62.2351181545
0
LINE
5
28D
100
AcDbEntity
8
Camera Box
6
ByLayer
62
176
420
128
370
-1
100
AcDbLine
10
410.049500572
20
70.2351181545
11
407.049500572
21
70.2351181545
0
LINE
5
28E
100
AcDbEntity
8
Camera Box
6
ByLayer
62
176
420
128
370
-1
100
AcDbLine
10
410.049500572
20
78.2351181545
11
407.049500572
21
78.2351181545
0
LINE
5
28F
100
AcDbEntity
8
Camera Box
6
ByLayer
62
176
420
128
370
-1
100
AcDbLine
10
410.049500572
20
54.2351181545
11
410.049500572
21
62.2351181545
0
LINE
5
290
100
AcDbEntity
8
Camera Box
6
ByLayer
62
176
420
128
370
-1
100
AcDbLine
10
410.049500572
20
70.2351181545
11
410.049500572
21
78.2351181545
0
LINE
5
291
100
AcDbEntity
8
Camera Box
6
ByLayer
62
176
420
128
370
-1
100
AcDbLine
10
407.049500572
20
78.2351181545
11
407.049500572
21
83.2351181545
0
LINE
5
292
100
AcDbEntity
8
Camera Box
6
ByLayer
62
176
420
128
370
-1
100
AcDbLine
10
407.049500572
20
46.2351181545
11
407.049500572
21
54.2351181545
0
LINE
5
293
100
AcDbEntity
8
Camera Box
6
ByLayer
62
176
420
128
370
-1
100
AcDbLine
10
407.049500572
20
62.2351181545
11
407.049500572
21
70.2351181545
0
LINE
5
294
100
AcDbEntity
8
Camera Box
6
ByLayer
62
176
420
128
370
-1
100
AcDbLine
10
407.049500572
20
83.2351181545
11
399.049500572
21
83.2351181545
0
LINE
5
295
100
AcDbEntity
8
Camera Box
6
ByLayer
62
176
420
128
370
-1
100
AcDbLine
10
407.049500572
20
35.2351181545
11
410.049500572
21
35.2351181545
0
LINE
5
296
100
AcDbEntity
8
Camera Box
6
ByLayer
62
176
420
128
370
-1
100
AcDbLine
10
410.049500572
20
35.2351181545
11
410.049500572
21
46.2351181545
0
LINE
5
297
100
AcDbEntity
8
Camera Box
6
ByLayer
62
176
420
128
370
-1
100
AcDbLine
10
383.049500572
20
83.2351181545
11
383.049500572
21
86.2351181545
0
LINE
5
298
100
AcDbEntity
8
Camera Box
6
ByLayer
62
176
420
128
370
-1
100
AcDbLine
10
372.049500572
20
83.2351181545
11
372.049500572
21
86.2351181545
0
LINE
5
299
100
AcDbEntity
8
Camera Box
6
ByLayer
62
176
420
128
370
-1
100
AcDbLine
10
407.049500572
20
35.2351181545
11
372.049500572
21
83.2351181545
0
LINE
5
29A
100
AcDbEntity
8
Camera Box
6
ByLayer
62
176
420
128
370
-1
100
AcDbLine
10
372.049500572
20
86.2351181545
11
383.049500572
21
86.2351181545
0
LINE
5
29B
100
AcDbEntity
8
Camera Box
6
ByLayer
62
176
420
128
370
-1
100
AcDbLine
10
383.049500572
20
83.2351181545
11
391.049500572
21
83.2351181545
0
LINE
5
29C
100
AcDbEntity
8
Camera Box
6
ByLayer
62
176
420
128
370
-1
100
AcDbLine
10
390.634093167
20
25.8283424195
11
390.634093167
21
22.8283424195
0
LINE
5
29D
100
AcDbEntity
8
Camera Box
6
ByLayer
62
176
420
128
370
-1
100
AcDbLine
10
382.634093167
20
25.8283424195
11
382.634093167
21
22.8283424195
0
LINE
5
29E
100
AcDbEntity
8
Camera Box
6
ByLayer
62
176
420
128
370
-1
100
AcDbLine
10
382.634093167
20
22.8283424195
11
390.634093167
21
22.8283424195
0
LINE
5
29F
100
AcDbEntity
8
Camera Box
6
ByLayer
62
176
420
128
370
-1
100
AcDbLine
10
371.634093167
20
62.8283424195
11
374.634093167
21
62.8283424195
0
LINE
5
2A0
100
AcDbEntity
8
Camera Box
6
ByLayer
62
176
420
128
370
-1
100
AcDbLine
10
371.634093167
20
54.8283424195
11
374.634093167
21
54.8283424195
0
LINE
5
2A1
100
AcDbEntity
8
Camera Box
6
ByLayer
62
176
420
128
370
-1
100
AcDbLine
10
371.634093167
20
46.8283424195
11
374.634093167
21
46.8283424195
0
LINE
5
2A2
100
AcDbEntity
8
Camera Box
6
ByLayer
62
176
420
128
370
-1
100
AcDbLine
10
371.634093167
20
38.8283424195
11
374.634093167
21
38.8283424195
0
LINE
5
2A3
100
AcDbEntity
8
Camera Box
6
ByLayer
62
176
420
128
370
-1
100
AcDbLine
10
371.634093167
20
30.8283424195
11
374.634093167
21
30.8283424195
0
LINE
5
2A4
100
AcDbEntity
8
Camera Box
6
ByLayer
62
176
420
128
370
-1
100
AcDbLine
10
371.634093167
20
54.8283424195
11
371.634093167
21
46.8283424195
0
LINE
5
2A5
100
AcDbEntity
8
Camera Box
6
ByLayer
62
176
420
128
370
-1
100
AcDbLine
10
371.634093167
20
38.8283424195
11
371.634093167
21
30.8283424195
0
LINE
5
2A6
100
AcDbEntity
8
Camera Box
6
ByLayer
62
176
420
128
370
-1
100
AcDbLine
10
374.634093167
20
30.8283424195
11
374.634093167
21
25.8283424195
0
LINE
5
2A7
100
AcDbEntity
8
Camera Box
6
ByLayer
62
176
420
128
370
-1
100
AcDbLine
10
374.634093167
20
62.8283424195
11
374.634093167
21
54.8283424195
0
LINE
5
2A8
100
AcDbEntity
8
Camera Box
6
ByLayer
62
176
420
128
370
-1
100
AcDbLine
10
374.634093167
20
46.8283424195
11
374.634093167
21
38.8283424195
0
LINE
5
2A9
100
AcDbEntity
8
Camera Box
6
ByLayer
62
176
420
128
370
-1
100
AcDbLine
10
374.634093167
20
25.8283424195
11
382.634093167
21
25.8283424195
0
LINE
5
2AA
100
AcDbEntity
8
Camera Box
6
ByLayer
62
176
420
128
370
-1
100
AcDbLine
10
374.634093167
20
73.8283424195
11
371.634093167
21
73.8283424195
0
LINE
5
2AB
100
AcDbEntity
8
Camera Box
6
ByLayer
62
176
420
128
370
-1
100
AcDbLine
10
371.634093167
20
73.8283424195
11
371.634093167
21
62.8283424195
0
LINE
5
2AC
100
AcDbEntity
8
Camera Box
6
ByLayer
62
176
420
128
370
-1
100
AcDbLine
10
398.634093167
20
25.8283424195
11
398.634093167
21
22.8283424195
0
LINE
5
2AD
100
AcDbEntity
8
Camera Box
6
ByLayer
62
176
420
128
370
-1
100
AcDbLine
10
409.634093167
20
25.8283424195
11
409.634093167
21
22.8283424195
0
LINE
5
2AE
100
AcDbEntity
8
Camera Box
6
ByLayer
62
176
420
128
370
-1
100
AcDbLine
10
374.634093167
20
73.8283424195
11
409.634093167
21
25.8283424195
0
LINE
5
2AF
100
AcDbEntity
8
Camera Box
6
ByLayer
62
176
420
128
370
-1
100
AcDbLine
10
409.634093167
20
22.8283424195
11
398.634093167
21
22.8283424195
0
LINE
5
2B0
100
AcDbEntity
8
Camera Box
6
ByLayer
62
176
420
128
370
-1
100
AcDbLine
10
398.634093167
20
25.8283424195
11
390.634093167
21
25.8283424195
0
LINE
5
2B1
100
AcDbEntity
8
Mounting Rails
6
ByLayer
62
256
370
-1
100
AcDbLine
10
196.737453832
20
128.671640977
11
246.476753832
21
128.671640977
0
CIRCLE
5
2B2
100
AcDbEntity
8
Mounting Rails
6
ByLayer
62
256
370
-1
100
AcDbCircle
10
196.737453832
20
124.671640977
40
1.6
0
ARC
5
2B3
100
AcDbEntity
8
Mounting Rails
6
ByLayer
62
256
370
-1
100
AcDbCircle
10
196.737453832
20
124.671640977
40
4
100
AcDbArc
50
90
51
270
0
CIRCLE
5
2B4
100
AcDbEntity
8
Mounting Rails
6
ByLayer
62
256
370
-1
100
AcDbCircle
10
246.476753832
20
124.671640977
40
1.6
0
LINE
5
2B5
100
AcDbEntity
8
Mounting Rails
6
ByLayer
62
256
370
-1
100
AcDbLine
10
196.737453832
20
120.671640977
11
246.476753832
21
120.671640977
0
ARC
5
2B6
100
AcDbEntity
8
Mounting Rails
6
ByLayer
62
256
370
-1
100
AcDbCircle
10
246.476753832
20
124.671640977
40
4
100
AcDbArc
50
270
51
90
0
LINE
5
2B7
100
AcDbEntity
8
Mounting Rails
6
ByLayer
62
256
370
-1
100
AcDbLine
10
196.737453832
20
118.15786648
11
246.476753832
21
118.15786648
0
CIRCLE
5
2B8
100
AcDbEntity
8
Mounting Rails
6
ByLayer
62
256
370
-1
100
AcDbCircle
10
196.737453832
20
114.15786648
40
1.6
0
ARC
5
2B9
100
AcDbEntity
8
Mounting Rails
6
ByLayer
62
256
370
-1
100
AcDbCircle
10
196.737453832
20
114.15786648
40
4
100
AcDbArc
50
90
51
270
0
CIRCLE
5
2BA
100
AcDbEntity
8
Mounting Rails
6
ByLayer
62
256
370
-1
100
AcDbCircle
10
246.476753832
20
114.15786648
40
1.6
0
LINE
5
2BB
100
AcDbEntity
8
Mounting Rails
6
ByLayer
62
256
370
-1
100
AcDbLine
10
196.737453832
20
110.15786648
11
246.476753832
21
110.15786648
0
ARC
5
2BC
100
AcDbEntity
8
Mounting Rails
6
ByLayer
62
256
370
-1
100
AcDbCircle
10
246.476753832
20
114.15786648
40
4
100
AcDbArc
50
270
51
90
0
ENDSEC
0
SECTION
2
OBJECTS
0
DICTIONARY
5
C
330
0
100
AcDbDictionary
281
1
3
ACAD_GROUP
350
D
0
DICTIONARY
5
D
330
C
100
AcDbDictionary
281
1
0
ENDSEC
0
EOF
