999
dxfrw 0.5.10
0
SECTION
2
HEADER
9
$ACADVER
1
AC1021
9
$HANDSEED
5
20000
9
$DWGCODEPAGE
3
ANSI_1252
9
$INSBASE
10
0
20
0
30
0
9
$EXTMIN
10
7.00000057918e-11
20
2.57802536121
30
0
9
$EXTMAX
10
640.841398525
20
325.710678119
30
0
9
$LIMMIN
10
0
20
0
9
$LIMMAX
10
420
20
297
9
$ORTHOMODE
70
0
9
$LTSCALE
40
1
9
$TEXTSTYLE
7
STANDARD
9
$CLAYER
8
motor mounts
9
$DIMASZ
40
2.5
9
$DIMLFAC
40
1
9
$DIMSCALE
40
1
9
$DIMEXO
40
0.625
9
$DIMEXE
40
1.25
9
$DIMTXT
40
2.5
9
$DIMTSZ
40
0
9
$DIMAUNIT
70
0
9
$DIMADEC
70
2
9
$DIMLUNIT
70
2
9
$DIMSTYLE
2
STANDARD
9
$DIMGAP
40
0.625
9
$DIMTIH
70
0
9
$LUNITS
70
2
9
$LUPREC
70
4
9
$AUNITS
70
0
9
$AUPREC
70
2
9
$SPLINESEGS
70
8
9
$GRIDMODE
70
1
9
$SNAPSTYLE
70
0
9
$GRIDUNIT
10
5
20
5
9
$PINSBASE
10
0
20
0
30
0
9
$PLIMMIN
10
0
20
0
9
$PLIMMAX
10
210
20
297
9
$INSUNITS
70
4
9
$PSVPSCALE
40
1
0
ENDSEC
0
SECTION
2
CLASSES
0
ENDSEC
0
SECTION
2
TABLES
0
TABLE
2
VPORT
5
8
330
0
100
AcDbSymbolTable
70
1
0
VPORT
5
31
330
2
100
AcDbSymbolTableRecord
100
AcDbViewportTableRecord
2
*ACTIVE
70
0
10
0
20
0
11
1
21
1
12
328.703905392
22
165.36490772
13
0
23
0
14
10
24
10
15
5
25
5
16
0
26
0
36
1
17
0
27
0
37
0
40
333.262203002
41
2.01975683891
42
50
43
0
44
0
50
0
51
0
71
0
72
100
73
1
74
3
75
0
76
1
77
0
78
0
281
0
65
1
110
0
120
0
130
0
111
1
121
0
131
0
112
0
122
1
132
0
79
0
146
0
348
10020
60
3
61
5
292
1
282
1
141
0
142
0
63
250
421
3358443
0
ENDTAB
0
TABLE
2
LTYPE
5
5
330
0
100
AcDbSymbolTable
70
4
0
LTYPE
5
14
330
5
100
AcDbSymbolTableRecord
100
AcDbLinetypeTableRecord
2
ByBlock
70
0
3

72
65
73
0
40
0
0
LTYPE
5
15
330
5
100
AcDbSymbolTableRecord
100
AcDbLinetypeTableRecord
2
ByLayer
70
0
3

72
65
73
0
40
0
0
LTYPE
5
16
330
5
100
AcDbSymbolTableRecord
100
AcDbLinetypeTableRecord
2
Continuous
70
0
3
Solid line
72
65
73
0
40
0
0
LTYPE
5
32
330
5
100
AcDbSymbolTableRecord
100
AcDbLinetypeTableRecord
2
DOT
70
0
3
Dot . . . . . . . . . . . . . . . . . . . . . .
72
65
73
2
40
6.35
49
0
74
0
49
-6.35
74
0
0
LTYPE
5
33
330
5
100
AcDbSymbolTableRecord
100
AcDbLinetypeTableRecord
2
DOT2
70
0
3
Dot (.5x) .....................................
72
65
73
2
40
3.175
49
0
74
0
49
-3.175
74
0
0
LTYPE
5
34
330
5
100
AcDbSymbolTableRecord
100
AcDbLinetypeTableRecord
2
DOTX2
70
0
3
Dot (2x) .  .  .  .  .  .  .  .  .  .  .  .  .
72
65
73
2
40
12.7
49
0
74
0
49
-12.7
74
0
0
LTYPE
5
35
330
5
100
AcDbSymbolTableRecord
100
AcDbLinetypeTableRecord
2
DASHED
70
0
3
Dot . . . . . . . . . . . . . . . . . . . . . .
72
65
73
2
40
19.05
49
12.7
74
0
49
-6.35
74
0
0
LTYPE
5
36
330
5
100
AcDbSymbolTableRecord
100
AcDbLinetypeTableRecord
2
DASHED2
70
0
3
Dashed (.5x) _ _ _ _ _ _ _ _ _ _ _ _ _ _ _ _ _
72
65
73
2
40
9.525
49
6.35
74
0
49
-3.175
74
0
0
LTYPE
5
37
330
5
100
AcDbSymbolTableRecord
100
AcDbLinetypeTableRecord
2
DASHEDX2
70
0
3
Dashed (2x) ____  ____  ____  ____  ____  ___
72
65
73
2
40
38.1
49
25.4
74
0
49
-12.7
74
0
0
LTYPE
5
38
330
5
100
AcDbSymbolTableRecord
100
AcDbLinetypeTableRecord
2
DASHDOT
70
0
3
Dash dot __ . __ . __ . __ . __ . __ . __ . __
72
65
73
4
40
25.4
49
12.7
74
0
49
-6.35
74
0
49
0
74
0
49
-6.35
74
0
0
LTYPE
5
39
330
5
100
AcDbSymbolTableRecord
100
AcDbLinetypeTableRecord
2
DASHDOT2
70
0
3
Dash dot (.5x) _._._._._._._._._._._._._._._.
72
65
73
4
40
12.7
49
6.35
74
0
49
-3.175
74
0
49
0
74
0
49
-3.175
74
0
0
LTYPE
5
3A
330
5
100
AcDbSymbolTableRecord
100
AcDbLinetypeTableRecord
2
DASHDOTX2
70
0
3
Dash dot (2x) ____  .  ____  .  ____  .  ___
72
65
73
4
40
50.8
49
25.4
74
0
49
-12.7
74
0
49
0
74
0
49
-12.7
74
0
0
LTYPE
5
3B
330
5
100
AcDbSymbolTableRecord
100
AcDbLinetypeTableRecord
2
DIVIDE
70
0
3
Divide ____ . . ____ . . ____ . . ____ . . ____
72
65
73
6
40
31.75
49
12.7
74
0
49
-6.35
74
0
49
0
74
0
49
-6.35
74
0
49
0
74
0
49
-6.35
74
0
0
LTYPE
5
3C
330
5
100
AcDbSymbolTableRecord
100
AcDbLinetypeTableRecord
2
DIVIDE2
70
0
3
Divide (.5x) __..__..__..__..__..__..__..__.._
72
65
73
6
40
15.875
49
6.35
74
0
49
-3.175
74
0
49
0
74
0
49
-3.175
74
0
49
0
74
0
49
-3.175
74
0
0
LTYPE
5
3D
330
5
100
AcDbSymbolTableRecord
100
AcDbLinetypeTableRecord
2
DIVIDEX2
70
0
3
Divide (2x) ________  .  .  ________  .  .  _
72
65
73
6
40
63.5
49
25.4
74
0
49
-12.7
74
0
49
0
74
0
49
-12.7
74
0
49
0
74
0
49
-12.7
74
0
0
LTYPE
5
3E
330
5
100
AcDbSymbolTableRecord
100
AcDbLinetypeTableRecord
2
BORDER
70
0
3
Border __ __ . __ __ . __ __ . __ __ . __ __ .
72
65
73
6
40
44.45
49
12.7
74
0
49
-6.35
74
0
49
12.7
74
0
49
-6.35
74
0
49
0
74
0
49
-6.35
74
0
0
LTYPE
5
3F
330
5
100
AcDbSymbolTableRecord
100
AcDbLinetypeTableRecord
2
BORDER2
70
0
3
Border (.5x) __.__.__.__.__.__.__.__.__.__.__.
72
65
73
6
40
22.225
49
6.35
74
0
49
-3.175
74
0
49
6.35
74
0
49
-3.175
74
0
49
0
74
0
49
-3.175
74
0
0
LTYPE
5
40
330
5
100
AcDbSymbolTableRecord
100
AcDbLinetypeTableRecord
2
BORDERX2
70
0
3
Border (2x) ____  ____  .  ____  ____  .  ___
72
65
73
6
40
88.9
49
25.4
74
0
49
-12.7
74
0
49
25.4
74
0
49
-12.7
74
0
49
0
74
0
49
-12.7
74
0
0
LTYPE
5
41
330
5
100
AcDbSymbolTableRecord
100
AcDbLinetypeTableRecord
2
CENTER
70
0
3
Center ____ _ ____ _ ____ _ ____ _ ____ _ ____
72
65
73
4
40
50.8
49
31.75
74
0
49
-6.35
74
0
49
6.35
74
0
49
-6.35
74
0
0
LTYPE
5
42
330
5
100
AcDbSymbolTableRecord
100
AcDbLinetypeTableRecord
2
CENTER2
70
0
3
Center (.5x) ___ _ ___ _ ___ _ ___ _ ___ _ ___
72
65
73
4
40
28.575
49
19.05
74
0
49
-3.175
74
0
49
3.175
74
0
49
-3.175
74
0
0
LTYPE
5
43
330
5
100
AcDbSymbolTableRecord
100
AcDbLinetypeTableRecord
2
CENTERX2
70
0
3
Center (2x) ________  __  ________  __  _____
72
65
73
4
40
101.6
49
63.5
74
0
49
-12.7
74
0
49
12.7
74
0
49
-12.7
74
0
0
ENDTAB
0
TABLE
2
LAYER
5
2
330
0
100
AcDbSymbolTable
70
1
0
LAYER
5
10
330
2
100
AcDbSymbolTableRecord
100
AcDbLayerTableRecord
2
0
70
0
62
7
6
CONTINUOUS
370
0
390
F
0
LAYER
5
44
330
2
100
AcDbSymbolTableRecord
100
AcDbLayerTableRecord
2
bottom plate
70
0
62
136
420
32896
6
CONTINUOUS
370
-3
390
F
0
LAYER
5
45
330
2
100
AcDbSymbolTableRecord
100
AcDbLayerTableRecord
2
motor mount holes
70
0
62
3
6
CONTINUOUS
370
0
390
F
0
LAYER
5
46
330
2
100
AcDbSymbolTableRecord
100
AcDbLayerTableRecord
2
motor mounts
70
0
62
96
420
32768
6
CONTINUOUS
370
0
390
F
0
LAYER
5
47
330
2
100
AcDbSymbolTableRecord
100
AcDbLayerTableRecord
2
frame
70
0
62
7
6
CONTINUOUS
370
0
390
F
0
LAYER
5
48
330
2
100
AcDbSymbolTableRecord
100
AcDbLayerTableRecord
2
arm support
70
0
62
6
6
CONTINUOUS
370
0
390
F
0
LAYER
5
49
330
2
100
AcDbSymbolTableRecord
100
AcDbLayerTableRecord
2
mark only
70
0
62
253
420
10526884
6
CONTINUOUS
370
0
390
F
0
LAYER
5
4A
330
2
100
AcDbSymbolTableRecord
100
AcDbLayerTableRecord
2
top plate
70
0
62
136
420
32896
6
CONTINUOUS
370
0
390
F
0
LAYER
5
4B
330
2
100
AcDbSymbolTableRecord
100
AcDbLayerTableRecord
2
plate mounts
70
0
62
56
420
8421376
6
CONTINUOUS
370
0
390
F
0
LAYER
5
4C
330
2
100
AcDbSymbolTableRecord
100
AcDbLayerTableRecord
2
plate mount holes
70
0
62
2
6
CONTINUOUS
370
0
390
F
0
ENDTAB
0
TABLE
2
STYLE
5
3
330
0
100
AcDbSymbolTable
70
3
0
STYLE
5
4D
330
2
100
AcDbSymbolTableRecord
100
AcDbTextStyleTableRecord
2
Standard
70
0
40
0
41
1
50
0
71
0
42
1
3
txt
4

0
ENDTAB
0
TABLE
2
VIEW
5
6
330
0
100
AcDbSymbolTable
70
0
0
ENDTAB
0
TABLE
2
UCS
5
7
330
0
100
AcDbSymbolTable
70
0
0
ENDTAB
0
TABLE
2
APPID
5
9
330
0
100
AcDbSymbolTable
70
1
0
APPID
5
12
330
9
100
AcDbSymbolTableRecord
100
AcDbRegAppTableRecord
2
ACAD
70
0
0
ENDTAB
0
TABLE
2
DIMSTYLE
5
A
330
0
100
AcDbSymbolTable
70
1
100
AcDbDimStyleTable
71
1
0
DIMSTYLE
105
4E
330
A
100
AcDbSymbolTableRecord
100
AcDbDimStyleTableRecord
2
Standard
70
0
40
1
41
2.5
42
0.625
43
0.38
44
1.25
45
0
46
0
47
0
48
0
140
2.5
141
0.09
142
0
143
25.4
144
1
145
0
146
1
147
0.625
148
0
71
0
72
0
73
0
74
1
75
0
76
0
77
0
78
0
79
0
170
0
171
2
172
0
173
0
174
0
175
0
176
0
177
0
178
0
179
0
271
4
272
4
273
2
274
2
275
0
276
0
277
2
278
46
279
0
280
0
281
0
282
0
283
1
284
0
285
0
286
0
288
0
289
3
340
Standard
341

371
-2
372
-2
0
ENDTAB
0
TABLE
2
BLOCK_RECORD
5
1
330
0
100
AcDbSymbolTable
70
2
0
BLOCK_RECORD
5
1F
330
1
100
AcDbSymbolTableRecord
100
AcDbBlockTableRecord
2
*Model_Space
70
0
280
1
281
0
0
BLOCK_RECORD
5
1E
330
1
100
AcDbSymbolTableRecord
100
AcDbBlockTableRecord
2
*Paper_Space
70
0
280
1
281
0
0
ENDTAB
0
ENDSEC
0
SECTION
2
BLOCKS
0
BLOCK
5
20
330
1F
100
AcDbEntity
8
0
100
AcDbBlockBegin
2
*Model_Space
70
0
10
0
20
0
30
0
3
*Model_Space
1

0
ENDBLK
5
21
330
1F
100
AcDbEntity
8
0
100
AcDbBlockEnd
0
BLOCK
5
1C
330
1B
100
AcDbEntity
8
0
100
AcDbBlockBegin
2
*Paper_Space
70
0
10
0
20
0
30
0
3
*Paper_Space
1

0
ENDBLK
5
1D
330
1F
100
AcDbEntity
8
0
100
AcDbBlockEnd
0
ENDSEC
0
SECTION
2
ENTITIES
0
LINE
5
4F
100
AcDbEntity
8
top plate
6
ByLayer
62
256
370
-1
100
AcDbLine
10
117.42640687
20
184.289321881
11
145.710678119
21
212.573593129
0
LINE
5
50
100
AcDbEntity
8
top plate
6
ByLayer
62
256
370
-1
100
AcDbLine
10
117.42640687
20
184.289321881
11
32.5735931295
21
184.289321881
0
LINE
5
51
100
AcDbEntity
8
top plate
6
ByLayer
62
256
370
-1
100
AcDbLine
10
4.28932188135
20
212.573593129
11
32.5735931295
21
184.289321881
0
LINE
5
52
100
AcDbEntity
8
top plate
6
ByLayer
62
256
370
-1
100
AcDbLine
10
32.5735931288
20
325.710678119
11
4.28932188135
21
297.426406872
0
LINE
5
53
100
AcDbEntity
8
top plate
6
ByLayer
62
256
370
-1
100
AcDbLine
10
4.28932188135
20
212.573593129
11
4.28932188135
21
297.426406872
0
ARC
5
54
100
AcDbEntity
8
top plate
6
ByLayer
62
256
370
-1
100
AcDbCircle
10
15.3603896936
20
279.284271247
40
4
100
AcDbArc
50
90
51
180
0
LINE
5
55
100
AcDbEntity
8
top plate
6
ByLayer
62
256
370
-1
100
AcDbLine
10
15.3603896929
20
283.284271247
11
16.7746032559
21
283.284271248
0
ARC
5
56
100
AcDbEntity
8
top plate
6
ByLayer
62
256
370
-1
100
AcDbCircle
10
16.7746032559
20
279.284271247
40
4
100
AcDbArc
50
45
51
90
0
LINE
5
57
100
AcDbEntity
8
top plate
6
ByLayer
62
256
370
-1
100
AcDbLine
10
31.4020202539
20
270.313708499
11
19.60303038
21
282.112698373
0
ARC
5
58
100
AcDbEntity
8
top plate
6
ByLayer
62
256
370
-1
100
AcDbCircle
10
28.5735931292
20
267.485281374
40
4
100
AcDbArc
50
360
51
45
0
LINE
5
59
100
AcDbEntity
8
top plate
6
ByLayer
62
256
370
-1
100
AcDbLine
10
32.5735931295
20
242.514718626
11
32.5735931295
21
267.485281374
0
ARC
5
5A
100
AcDbEntity
8
top plate
6
ByLayer
62
256
370
-1
100
AcDbCircle
10
28.5735931292
20
242.514718626
40
4
100
AcDbArc
50
315
51
360
0
LINE
5
5B
100
AcDbEntity
8
top plate
6
ByLayer
62
256
370
-1
100
AcDbLine
10
19.60303038
20
227.887301628
11
31.4020202539
21
239.686291502
0
ARC
5
5C
100
AcDbEntity
8
top plate
6
ByLayer
62
256
370
-1
100
AcDbCircle
10
16.7746032559
20
230.715728753
40
4
100
AcDbArc
50
270
51
315
0
LINE
5
5D
100
AcDbEntity
8
top plate
6
ByLayer
62
256
370
-1
100
AcDbLine
10
16.7746032559
20
226.715728753
11
15.3603896929
21
226.715728754
0
LINE
5
5E
100
AcDbEntity
8
top plate
6
ByLayer
62
256
370
-1
100
AcDbLine
10
11.3603896932
20
279.284271247
11
11.3603896932
21
230.715728753
0
ARC
5
5F
100
AcDbEntity
8
top plate
6
ByLayer
62
256
370
-1
100
AcDbCircle
10
15.3603896936
20
230.715728753
40
4
100
AcDbArc
50
180
51
270
0
ARC
5
60
100
AcDbEntity
8
top plate
6
ByLayer
62
256
370
-1
100
AcDbCircle
10
99.2842712471
20
195.360389694
40
4
100
AcDbArc
50
270
51
360
0
LINE
5
61
100
AcDbEntity
8
top plate
6
ByLayer
62
256
370
-1
100
AcDbLine
10
103.284271247
20
195.360389693
11
103.284271247
21
196.774603256
0
ARC
5
62
100
AcDbEntity
8
top plate
6
ByLayer
62
256
370
-1
100
AcDbCircle
10
99.2842712471
20
196.774603256
40
4
100
AcDbArc
50
360
51
45
0
LINE
5
63
100
AcDbEntity
8
top plate
6
ByLayer
62
256
370
-1
100
AcDbLine
10
90.3137084986
20
211.402020254
11
102.112698373
21
199.60303038
0
ARC
5
64
100
AcDbEntity
8
top plate
6
ByLayer
62
256
370
-1
100
AcDbCircle
10
87.4852813739
20
208.57359313
40
4
100
AcDbArc
50
45
51
90
0
LINE
5
65
100
AcDbEntity
8
top plate
6
ByLayer
62
256
370
-1
100
AcDbLine
10
62.5147186261
20
212.57359313
11
87.4852813739
21
212.57359313
0
ARC
5
66
100
AcDbEntity
8
top plate
6
ByLayer
62
256
370
-1
100
AcDbCircle
10
62.5147186261
20
208.57359313
40
4
100
AcDbArc
50
90
51
135
0
LINE
5
67
100
AcDbEntity
8
top plate
6
ByLayer
62
256
370
-1
100
AcDbLine
10
47.8873016267
20
199.60303038
11
59.6862915014
21
211.402020254
0
ARC
5
68
100
AcDbEntity
8
top plate
6
ByLayer
62
256
370
-1
100
AcDbCircle
10
50.7157287529
20
196.774603256
40
4
100
AcDbArc
50
135
51
180
0
LINE
5
69
100
AcDbEntity
8
top plate
6
ByLayer
62
256
370
-1
100
AcDbLine
10
46.7157287525
20
196.774603256
11
46.7157287532
21
195.360389693
0
LINE
5
6A
100
AcDbEntity
8
top plate
6
ByLayer
62
256
370
-1
100
AcDbLine
10
99.2842712471
20
191.360389694
11
50.7157287529
21
191.360389694
0
ARC
5
6B
100
AcDbEntity
8
top plate
6
ByLayer
62
256
370
-1
100
AcDbCircle
10
50.7157287529
20
195.360389694
40
4
100
AcDbArc
50
180
51
270
0
LINE
5
6C
100
AcDbEntity
8
top plate
6
ByLayer
62
256
370
-1
100
AcDbLine
10
145.710678119
20
212.573593129
11
145.710678119
21
297.426406872
0
LINE
5
6D
100
AcDbEntity
8
top plate
6
ByLayer
62
256
370
-1
100
AcDbLine
10
117.426406871
20
325.710678119
11
145.710678119
21
297.426406872
0
LINE
5
6E
100
AcDbEntity
8
top plate
6
ByLayer
62
256
370
-1
100
AcDbLine
10
117.426406871
20
325.710678119
11
32.5735931288
21
325.710678119
0
ARC
5
6F
100
AcDbEntity
8
top plate
6
ByLayer
62
256
370
-1
100
AcDbCircle
10
50.7157287529
20
314.639610307
40
4
100
AcDbArc
50
90
51
180
0
LINE
5
70
100
AcDbEntity
8
top plate
6
ByLayer
62
256
370
-1
100
AcDbLine
10
46.7157287532
20
314.639610307
11
46.7157287525
21
313.225396744
0
ARC
5
71
100
AcDbEntity
8
top plate
6
ByLayer
62
256
370
-1
100
AcDbCircle
10
50.7157287529
20
313.225396744
40
4
100
AcDbArc
50
180
51
225
0
LINE
5
72
100
AcDbEntity
8
top plate
6
ByLayer
62
256
370
-1
100
AcDbLine
10
59.6862915014
20
298.597979746
11
47.8873016274
21
310.39696962
0
ARC
5
73
100
AcDbEntity
8
top plate
6
ByLayer
62
256
370
-1
100
AcDbCircle
10
62.5147186261
20
301.426406871
40
4
100
AcDbArc
50
225
51
270
0
LINE
5
74
100
AcDbEntity
8
top plate
6
ByLayer
62
256
370
-1
100
AcDbLine
10
87.4852813739
20
297.426406871
11
62.5147186261
21
297.426406871
0
ARC
5
75
100
AcDbEntity
8
top plate
6
ByLayer
62
256
370
-1
100
AcDbCircle
10
87.4852813739
20
301.426406871
40
4
100
AcDbArc
50
270
51
315
0
LINE
5
76
100
AcDbEntity
8
top plate
6
ByLayer
62
256
370
-1
100
AcDbLine
10
102.112698373
20
310.39696962
11
90.3137084986
21
298.597979746
0
ARC
5
77
100
AcDbEntity
8
top plate
6
ByLayer
62
256
370
-1
100
AcDbCircle
10
99.2842712471
20
313.225396744
40
4
100
AcDbArc
50
315
51
360
0
LINE
5
78
100
AcDbEntity
8
top plate
6
ByLayer
62
256
370
-1
100
AcDbLine
10
103.284271247
20
313.225396744
11
103.284271247
21
314.639610307
0
LINE
5
79
100
AcDbEntity
8
top plate
6
ByLayer
62
256
370
-1
100
AcDbLine
10
50.7157287529
20
318.639610307
11
99.2842712471
21
318.639610307
0
ARC
5
7A
100
AcDbEntity
8
top plate
6
ByLayer
62
256
370
-1
100
AcDbCircle
10
99.2842712471
20
314.639610307
40
4
100
AcDbArc
50
360
51
90
0
ARC
5
7B
100
AcDbEntity
8
top plate
6
ByLayer
62
256
370
-1
100
AcDbCircle
10
134.639610306
20
230.715728753
40
4
100
AcDbArc
50
270
51
360
0
LINE
5
7C
100
AcDbEntity
8
top plate
6
ByLayer
62
256
370
-1
100
AcDbLine
10
134.639610307
20
226.715728754
11
133.225396744
21
226.715728753
0
ARC
5
7D
100
AcDbEntity
8
top plate
6
ByLayer
62
256
370
-1
100
AcDbCircle
10
133.225396744
20
230.715728753
40
4
100
AcDbArc
50
225
51
270
0
LINE
5
7E
100
AcDbEntity
8
top plate
6
ByLayer
62
256
370
-1
100
AcDbLine
10
118.597979746
20
239.686291502
11
130.39696962
21
227.887301628
0
ARC
5
7F
100
AcDbEntity
8
top plate
6
ByLayer
62
256
370
-1
100
AcDbCircle
10
121.426406871
20
242.514718626
40
4
100
AcDbArc
50
180
51
225
0
LINE
5
80
100
AcDbEntity
8
top plate
6
ByLayer
62
256
370
-1
100
AcDbLine
10
117.42640687
20
267.485281374
11
117.42640687
21
242.514718626
0
ARC
5
81
100
AcDbEntity
8
top plate
6
ByLayer
62
256
370
-1
100
AcDbCircle
10
121.426406871
20
267.485281374
40
4
100
AcDbArc
50
135
51
180
0
LINE
5
82
100
AcDbEntity
8
top plate
6
ByLayer
62
256
370
-1
100
AcDbLine
10
130.39696962
20
282.112698373
11
118.597979746
21
270.313708499
0
ARC
5
83
100
AcDbEntity
8
top plate
6
ByLayer
62
256
370
-1
100
AcDbCircle
10
133.225396744
20
279.284271247
40
4
100
AcDbArc
50
90
51
135
0
LINE
5
84
100
AcDbEntity
8
top plate
6
ByLayer
62
256
370
-1
100
AcDbLine
10
133.225396744
20
283.284271248
11
134.639610307
21
283.284271247
0
LINE
5
85
100
AcDbEntity
8
top plate
6
ByLayer
62
256
370
-1
100
AcDbLine
10
138.639610307
20
230.715728753
11
138.639610307
21
279.284271247
0
ARC
5
86
100
AcDbEntity
8
top plate
6
ByLayer
62
256
370
-1
100
AcDbCircle
10
134.639610306
20
279.284271247
40
4
100
AcDbArc
50
360
51
90
0
CIRCLE
5
87
100
AcDbEntity
8
top plate
6
ByLayer
62
256
370
-1
100
AcDbCircle
10
128.033008589
20
308.033008589
40
1.5
0
CIRCLE
5
88
100
AcDbEntity
8
top plate
6
ByLayer
62
256
370
-1
100
AcDbCircle
10
21.966991411
20
308.033008589
40
1.5
0
CIRCLE
5
89
100
AcDbEntity
8
top plate
6
ByLayer
62
256
370
-1
100
AcDbCircle
10
21.966991411
20
201.966991411
40
1.5
0
LINE
5
8A
100
AcDbEntity
8
top plate
6
ByLayer
62
256
370
-1
100
AcDbLine
10
126.512729009
20
207.517779644
11
122.482220357
21
203.487270991
0
CIRCLE
5
8B
100
AcDbEntity
8
top plate
6
ByLayer
62
256
370
-1
100
AcDbCircle
10
128.033008589
20
201.966991411
40
1.5
0
CIRCLE
5
8C
100
AcDbEntity
8
top plate
6
ByLayer
62
256
370
-1
100
AcDbCircle
10
106.819805153
20
255
40
1.5
0
CIRCLE
5
8D
100
AcDbEntity
8
top plate
6
ByLayer
62
256
370
-1
100
AcDbCircle
10
75
20
286.819805154
40
1.5
0
CIRCLE
5
8E
100
AcDbEntity
8
top plate
6
ByLayer
62
256
370
-1
100
AcDbCircle
10
43.1801948466
20
255
40
1.5
0
CIRCLE
5
8F
100
AcDbEntity
8
top plate
6
ByLayer
62
256
370
-1
100
AcDbCircle
10
75
20
223.180194847
40
1.5
0
CIRCLE
5
90
100
AcDbEntity
8
top plate
6
ByLayer
62
256
370
-1
100
AcDbCircle
10
97.4999999997
20
232.500000001
40
1.5
0
LINE
5
91
100
AcDbEntity
8
top plate
6
ByLayer
62
256
370
-1
100
AcDbLine
10
122.482220357
20
203.487270991
11
97.3585786435
21
228.610912704
0
LINE
5
92
100
AcDbEntity
8
top plate
6
ByLayer
62
256
370
-1
100
AcDbLine
10
126.512729009
20
207.517779644
11
101.389087296
21
232.641421357
0
LINE
5
93
100
AcDbEntity
8
top plate
6
ByLayer
62
256
370
-1
100
AcDbLine
10
101.389087296
20
232.641421357
11
97.3585786435
21
228.610912704
0
LINE
5
94
100
AcDbEntity
8
top plate
6
ByLayer
62
256
370
-1
100
AcDbLine
10
84.0863221375
20
260.055813485
11
80.0558134848
21
264.086322138
0
LINE
5
95
100
AcDbEntity
8
top plate
6
ByLayer
62
256
370
-1
100
AcDbLine
10
122.482220356
20
306.512729009
11
126.512729009
21
302.482220357
0
CIRCLE
5
96
100
AcDbEntity
8
top plate
6
ByLayer
62
256
370
-1
100
AcDbCircle
10
97.4999999997
20
277.5
40
1.5
0
LINE
5
97
100
AcDbEntity
8
top plate
6
ByLayer
62
256
370
-1
100
AcDbLine
10
126.512729009
20
302.482220357
11
101.389087296
21
277.358578644
0
LINE
5
98
100
AcDbEntity
8
top plate
6
ByLayer
62
256
370
-1
100
AcDbLine
10
122.482220356
20
306.512729009
11
97.3585786435
21
281.389087297
0
LINE
5
99
100
AcDbEntity
8
top plate
6
ByLayer
62
256
370
-1
100
AcDbLine
10
93.6109127032
20
277.641421356
11
97.641421356
21
273.610912704
0
LINE
5
9A
100
AcDbEntity
8
top plate
6
ByLayer
62
256
370
-1
100
AcDbLine
10
97.3585786435
20
281.389087297
11
101.389087296
21
277.358578644
0
LINE
5
9B
100
AcDbEntity
8
top plate
6
ByLayer
62
256
370
-1
100
AcDbLine
10
23.4872709913
20
302.482220356
11
27.5177796433
21
306.51272901
0
CIRCLE
5
9C
100
AcDbEntity
8
top plate
6
ByLayer
62
256
370
-1
100
AcDbCircle
10
52.5000000003
20
277.5
40
1.5
0
LINE
5
9D
100
AcDbEntity
8
top plate
6
ByLayer
62
256
370
-1
100
AcDbLine
10
27.5177796433
20
306.51272901
11
52.6414213565
21
281.389087297
0
LINE
5
9E
100
AcDbEntity
8
top plate
6
ByLayer
62
256
370
-1
100
AcDbLine
10
23.4872709913
20
302.482220356
11
48.6109127038
21
277.358578644
0
LINE
5
9F
100
AcDbEntity
8
top plate
6
ByLayer
62
256
370
-1
100
AcDbLine
10
48.6109127038
20
277.358578644
11
52.6414213565
21
281.389087297
0
LINE
5
A0
100
AcDbEntity
8
top plate
6
ByLayer
62
256
370
-1
100
AcDbLine
10
27.517779644
20
203.487270992
11
23.4872709906
21
207.517779644
0
CIRCLE
5
A1
100
AcDbEntity
8
top plate
6
ByLayer
62
256
370
-1
100
AcDbCircle
10
52.5000000003
20
232.500000001
40
1.5
0
LINE
5
A2
100
AcDbEntity
8
top plate
6
ByLayer
62
256
370
-1
100
AcDbLine
10
23.4872709906
20
207.517779644
11
48.6109127038
21
232.641421357
0
LINE
5
A3
100
AcDbEntity
8
top plate
6
ByLayer
62
256
370
-1
100
AcDbLine
10
27.517779644
20
203.487270992
11
52.6414213565
21
228.610912704
0
LINE
5
A4
100
AcDbEntity
8
top plate
6
ByLayer
62
256
370
-1
100
AcDbLine
10
52.6414213565
20
228.610912704
11
48.6109127038
21
232.641421357
0
LINE
5
A5
100
AcDbEntity
8
top plate
6
ByLayer
62
256
370
-1
100
AcDbLine
10
111.769552622
20
197.017243943
11
111.769552622
21
197.017243943
0
CIRCLE
5
A6
100
AcDbEntity
8
top plate
6
ByLayer
62
256
370
-1
100
AcDbCircle
10
114.597979746
20
204.088311755
40
1.5
0
CIRCLE
5
A7
100
AcDbEntity
8
top plate
6
ByLayer
62
256
370
-1
100
AcDbCircle
10
125.911688245
20
215.402020254
40
1.5
0
CIRCLE
5
A8
100
AcDbEntity
8
top plate
6
ByLayer
62
256
370
-1
100
AcDbCircle
10
125.911688245
20
294.597979747
40
1.5
0
CIRCLE
5
A9
100
AcDbEntity
8
top plate
6
ByLayer
62
256
370
-1
100
AcDbCircle
10
114.597979746
20
305.911688246
40
1.5
0
CIRCLE
5
AA
100
AcDbEntity
8
top plate
6
ByLayer
62
256
370
-1
100
AcDbCircle
10
35.4020202536
20
305.911688246
40
1.5
0
CIRCLE
5
AB
100
AcDbEntity
8
top plate
6
ByLayer
62
256
370
-1
100
AcDbCircle
10
24.0883117546
20
294.597979747
40
1.5
0
CIRCLE
5
AC
100
AcDbEntity
8
top plate
6
ByLayer
62
256
370
-1
100
AcDbCircle
10
24.0883117546
20
215.402020254
40
1.5
0
CIRCLE
5
AD
100
AcDbEntity
8
top plate
6
ByLayer
62
256
370
-1
100
AcDbCircle
10
35.4020202536
20
204.088311755
40
1.5
0
CIRCLE
5
AE
100
AcDbEntity
8
plate mount holes
6
ByLayer
62
256
370
-1
100
AcDbCircle
10
81.9309928095
20
197.910141378
40
1.5
0
CIRCLE
5
AF
100
AcDbEntity
8
plate mount holes
6
ByLayer
62
256
370
-1
100
AcDbCircle
10
65.9309928095
20
197.910141378
40
1.5
0
LINE
5
B0
100
AcDbEntity
8
plate mounts
6
ByLayer
62
256
370
-1
100
AcDbLine
10
81.9309928095
20
194.910141378
11
65.9309928095
21
194.910141378
0
LINE
5
B1
100
AcDbEntity
8
plate mounts
6
ByLayer
62
256
370
-1
100
AcDbLine
10
81.9309928095
20
200.910141378
11
65.9309928095
21
200.910141378
0
ARC
5
B2
100
AcDbEntity
8
plate mounts
6
ByLayer
62
256
370
-1
100
AcDbCircle
10
81.9309928095
20
197.910141378
40
3
100
AcDbArc
50
270
51
90
0
ARC
5
B3
100
AcDbEntity
8
plate mounts
6
ByLayer
62
256
370
-1
100
AcDbCircle
10
65.9309928095
20
197.910141378
40
3
100
AcDbArc
50
90
51
270
0
CIRCLE
5
B4
100
AcDbEntity
8
plate mount holes
6
ByLayer
62
256
370
-1
100
AcDbCircle
10
81.9309928095
20
205.356980751
40
1.5
0
CIRCLE
5
B5
100
AcDbEntity
8
plate mount holes
6
ByLayer
62
256
370
-1
100
AcDbCircle
10
65.9309928095
20
205.356980751
40
1.5
0
LINE
5
B6
100
AcDbEntity
8
plate mounts
6
ByLayer
62
256
370
-1
100
AcDbLine
10
81.9309928095
20
202.356980751
11
65.9309928095
21
202.356980751
0
LINE
5
B7
100
AcDbEntity
8
plate mounts
6
ByLayer
62
256
370
-1
100
AcDbLine
10
81.9309928095
20
208.356980751
11
65.9309928095
21
208.356980751
0
ARC
5
B8
100
AcDbEntity
8
plate mounts
6
ByLayer
62
256
370
-1
100
AcDbCircle
10
81.9309928095
20
205.356980751
40
3
100
AcDbArc
50
270
51
90
0
ARC
5
B9
100
AcDbEntity
8
plate mounts
6
ByLayer
62
256
370
-1
100
AcDbCircle
10
65.9309928095
20
205.356980751
40
3
100
AcDbArc
50
90
51
270
0
CIRCLE
5
BA
100
AcDbEntity
8
plate mount holes
6
ByLayer
62
256
370
-1
100
AcDbCircle
10
68.0690071905
20
312.089858623
40
1.5
0
CIRCLE
5
BB
100
AcDbEntity
8
plate mount holes
6
ByLayer
62
256
370
-1
100
AcDbCircle
10
84.0690071905
20
312.089858623
40
1.5
0
LINE
5
BC
100
AcDbEntity
8
plate mounts
6
ByLayer
62
256
370
-1
100
AcDbLine
10
68.0690071905
20
315.089858623
11
84.0690071905
21
315.089858623
0
LINE
5
BD
100
AcDbEntity
8
plate mounts
6
ByLayer
62
256
370
-1
100
AcDbLine
10
68.0690071905
20
309.089858623
11
84.0690071905
21
309.089858623
0
ARC
5
BE
100
AcDbEntity
8
plate mounts
6
ByLayer
62
256
370
-1
100
AcDbCircle
10
68.0690071905
20
312.089858623
40
3
100
AcDbArc
50
90
51
270
0
ARC
5
BF
100
AcDbEntity
8
plate mounts
6
ByLayer
62
256
370
-1
100
AcDbCircle
10
84.0690071905
20
312.089858623
40
3
100
AcDbArc
50
270
51
90
0
CIRCLE
5
C0
100
AcDbEntity
8
plate mount holes
6
ByLayer
62
256
370
-1
100
AcDbCircle
10
68.0690071905
20
304.64301925
40
1.5
0
CIRCLE
5
C1
100
AcDbEntity
8
plate mount holes
6
ByLayer
62
256
370
-1
100
AcDbCircle
10
84.0690071905
20
304.64301925
40
1.5
0
LINE
5
C2
100
AcDbEntity
8
plate mounts
6
ByLayer
62
256
370
-1
100
AcDbLine
10
68.0690071905
20
307.64301925
11
84.0690071905
21
307.64301925
0
LINE
5
C3
100
AcDbEntity
8
plate mounts
6
ByLayer
62
256
370
-1
100
AcDbLine
10
68.0690071905
20
301.64301925
11
84.0690071905
21
301.64301925
0
ARC
5
C4
100
AcDbEntity
8
plate mounts
6
ByLayer
62
256
370
-1
100
AcDbCircle
10
68.0690071905
20
304.64301925
40
3
100
AcDbArc
50
90
51
270
0
ARC
5
C5
100
AcDbEntity
8
plate mounts
6
ByLayer
62
256
370
-1
100
AcDbCircle
10
84.0690071905
20
304.64301925
40
3
100
AcDbArc
50
270
51
90
0
ARC
5
C6
100
AcDbEntity
8
bottom plate
6
ByLayer
62
256
370
-1
100
AcDbCircle
10
201.071067812
20
277.999999999
40
1
100
AcDbArc
50
90
51
180
0
LINE
5
C7
100
AcDbEntity
8
bottom plate
6
ByLayer
62
256
370
-1
100
AcDbLine
10
200.071067812
20
277.999999999
11
200.071067812
21
277.999999999
0
ARC
5
C8
100
AcDbEntity
8
bottom plate
6
ByLayer
62
256
370
-1
100
AcDbCircle
10
201.071067812
20
277.999999999
40
1
100
AcDbArc
50
180
51
270
0
ARC
5
C9
100
AcDbEntity
8
bottom plate
6
ByLayer
62
256
370
-1
100
AcDbCircle
10
208.071067812
20
270.999999999
40
1
100
AcDbArc
50
90
51
180
0
LINE
5
CA
100
AcDbEntity
8
bottom plate
6
ByLayer
62
256
370
-1
100
AcDbLine
10
207.071067812
20
271
11
207.071067812
21
271
0
ARC
5
CB
100
AcDbEntity
8
bottom plate
6
ByLayer
62
256
370
-1
100
AcDbCircle
10
208.071067812
20
270.999999999
40
1
100
AcDbArc
50
180
51
270
0
LINE
5
CC
100
AcDbEntity
8
bottom plate
6
ByLayer
62
256
370
-1
100
AcDbLine
10
228.928932188
20
278.999999999
11
201.071067812
21
279
0
ARC
5
CD
100
AcDbEntity
8
bottom plate
6
ByLayer
62
256
370
-1
100
AcDbCircle
10
228.928932188
20
277.999999999
40
1
100
AcDbArc
50
360
51
90
0
LINE
5
CE
100
AcDbEntity
8
bottom plate
6
ByLayer
62
256
370
-1
100
AcDbLine
10
229.928932188
20
277.999999999
11
229.928932188
21
277.999999999
0
LINE
5
CF
100
AcDbEntity
8
bottom plate
6
ByLayer
62
256
370
-1
100
AcDbLine
10
228.928932188
20
276.999999999
11
201.071067812
21
276.999999999
0
ARC
5
D0
100
AcDbEntity
8
bottom plate
6
ByLayer
62
256
370
-1
100
AcDbCircle
10
228.928932188
20
277.999999999
40
1
100
AcDbArc
50
270
51
360
0
LINE
5
D1
100
AcDbEntity
8
bottom plate
6
ByLayer
62
256
370
-1
100
AcDbLine
10
221.928932188
20
272
11
208.071067812
21
272
0
ARC
5
D2
100
AcDbEntity
8
bottom plate
6
ByLayer
62
256
370
-1
100
AcDbCircle
10
221.928932188
20
271
40
1
100
AcDbArc
50
360
51
90
0
LINE
5
D3
100
AcDbEntity
8
bottom plate
6
ByLayer
62
256
370
-1
100
AcDbLine
10
222.928932188
20
270.999999999
11
222.928932188
21
270.999999999
0
LINE
5
D4
100
AcDbEntity
8
bottom plate
6
ByLayer
62
256
370
-1
100
AcDbLine
10
221.928932188
20
269.999999999
11
208.071067812
21
269.999999999
0
ARC
5
D5
100
AcDbEntity
8
bottom plate
6
ByLayer
62
256
370
-1
100
AcDbCircle
10
221.928932188
20
271
40
1
100
AcDbArc
50
270
51
360
0
LINE
5
D6
100
AcDbEntity
8
bottom plate
6
ByLayer
62
256
370
-1
100
AcDbLine
10
228.928932188
20
286.071067811
11
201.071067812
21
286.071067812
0
LINE
5
D7
100
AcDbEntity
8
bottom plate
6
ByLayer
62
256
370
-1
100
AcDbLine
10
228.928932188
20
284.071067811
11
201.071067812
21
284.071067811
0
ARC
5
D8
100
AcDbEntity
8
bottom plate
6
ByLayer
62
256
370
-1
100
AcDbCircle
10
194
20
285.071067811
40
1
100
AcDbArc
50
90
51
180
0
ARC
5
D9
100
AcDbEntity
8
bottom plate
6
ByLayer
62
256
370
-1
100
AcDbCircle
10
194
20
285.071067811
40
1
100
AcDbArc
50
180
51
270
0
LINE
5
DA
100
AcDbEntity
8
bottom plate
6
ByLayer
62
256
370
-1
100
AcDbLine
10
201.071067812
20
286.071067812
11
194
21
286.071067812
0
LINE
5
DB
100
AcDbEntity
8
bottom plate
6
ByLayer
62
256
370
-1
100
AcDbLine
10
201.071067812
20
284.071067811
11
194
21
284.071067811
0
ARC
5
DC
100
AcDbEntity
8
bottom plate
6
ByLayer
62
256
370
-1
100
AcDbCircle
10
236
20
285.071067811
40
1
100
AcDbArc
50
360
51
90
0
ARC
5
DD
100
AcDbEntity
8
bottom plate
6
ByLayer
62
256
370
-1
100
AcDbCircle
10
236
20
285.071067811
40
1
100
AcDbArc
50
270
51
360
0
LINE
5
DE
100
AcDbEntity
8
bottom plate
6
ByLayer
62
256
370
-1
100
AcDbLine
10
228.928932188
20
286.071067811
11
236
21
286.071067811
0
LINE
5
DF
100
AcDbEntity
8
bottom plate
6
ByLayer
62
256
370
-1
100
AcDbLine
10
228.928932188
20
284.071067811
11
236
21
284.071067811
0
ARC
5
E0
100
AcDbEntity
8
bottom plate
6
ByLayer
62
256
370
-1
100
AcDbCircle
10
199
20
248.071067811
40
1
100
AcDbArc
50
180
51
270
0
LINE
5
E1
100
AcDbEntity
8
bottom plate
6
ByLayer
62
256
370
-1
100
AcDbLine
10
199
20
247.071067811
11
199
21
247.071067811
0
ARC
5
E2
100
AcDbEntity
8
bottom plate
6
ByLayer
62
256
370
-1
100
AcDbCircle
10
199
20
248.071067811
40
1
100
AcDbArc
50
270
51
360
0
LINE
5
E3
100
AcDbEntity
8
bottom plate
6
ByLayer
62
256
370
-1
100
AcDbLine
10
198
20
261.928932188
11
198
21
248.071067811
0
ARC
5
E4
100
AcDbEntity
8
bottom plate
6
ByLayer
62
256
370
-1
100
AcDbCircle
10
199
20
261.928932188
40
1
100
AcDbArc
50
90
51
180
0
LINE
5
E5
100
AcDbEntity
8
bottom plate
6
ByLayer
62
256
370
-1
100
AcDbLine
10
199
20
262.928932188
11
199
21
262.928932188
0
LINE
5
E6
100
AcDbEntity
8
bottom plate
6
ByLayer
62
256
370
-1
100
AcDbLine
10
200
20
261.928932188
11
200
21
248.071067811
0
ARC
5
E7
100
AcDbEntity
8
bottom plate
6
ByLayer
62
256
370
-1
100
AcDbCircle
10
199
20
261.928932188
40
1
100
AcDbArc
50
360
51
90
0
LINE
5
E8
100
AcDbEntity
8
bottom plate
6
ByLayer
62
256
370
-1
100
AcDbLine
10
183.928932188
20
268.928932187
11
183.928932188
21
241.071067812
0
LINE
5
E9
100
AcDbEntity
8
bottom plate
6
ByLayer
62
256
370
-1
100
AcDbLine
10
185.928932188
20
268.928932188
11
185.928932188
21
241.071067811
0
ARC
5
EA
100
AcDbEntity
8
bottom plate
6
ByLayer
62
256
370
-1
100
AcDbCircle
10
184.928932189
20
234
40
1
100
AcDbArc
50
180
51
270
0
ARC
5
EB
100
AcDbEntity
8
bottom plate
6
ByLayer
62
256
370
-1
100
AcDbCircle
10
184.928932189
20
234
40
1
100
AcDbArc
50
270
51
360
0
LINE
5
EC
100
AcDbEntity
8
bottom plate
6
ByLayer
62
256
370
-1
100
AcDbLine
10
183.928932188
20
241.071067812
11
183.928932188
21
234
0
LINE
5
ED
100
AcDbEntity
8
bottom plate
6
ByLayer
62
256
370
-1
100
AcDbLine
10
185.928932188
20
241.071067811
11
185.928932188
21
233.999999999
0
ARC
5
EE
100
AcDbEntity
8
bottom plate
6
ByLayer
62
256
370
-1
100
AcDbCircle
10
184.928932188
20
276
40
1
100
AcDbArc
50
90
51
180
0
ARC
5
EF
100
AcDbEntity
8
bottom plate
6
ByLayer
62
256
370
-1
100
AcDbCircle
10
184.928932188
20
276
40
1
100
AcDbArc
50
360
51
90
0
LINE
5
F0
100
AcDbEntity
8
bottom plate
6
ByLayer
62
256
370
-1
100
AcDbLine
10
183.928932188
20
268.928932187
11
183.928932188
21
275.999999999
0
LINE
5
F1
100
AcDbEntity
8
bottom plate
6
ByLayer
62
256
370
-1
100
AcDbLine
10
185.928932188
20
268.928932188
11
185.928932188
21
275.999999999
0
ARC
5
F2
100
AcDbEntity
8
bottom plate
6
ByLayer
62
256
370
-1
100
AcDbCircle
10
221.928932189
20
239
40
1
100
AcDbArc
50
270
51
360
0
LINE
5
F3
100
AcDbEntity
8
bottom plate
6
ByLayer
62
256
370
-1
100
AcDbLine
10
222.928932188
20
238.999999999
11
222.928932188
21
238.999999999
0
ARC
5
F4
100
AcDbEntity
8
bottom plate
6
ByLayer
62
256
370
-1
100
AcDbCircle
10
221.928932189
20
239
40
1
100
AcDbArc
50
360
51
90
0
LINE
5
F5
100
AcDbEntity
8
bottom plate
6
ByLayer
62
256
370
-1
100
AcDbLine
10
208.071067812
20
237.999999999
11
221.928932188
21
237.999999999
0
ARC
5
F6
100
AcDbEntity
8
bottom plate
6
ByLayer
62
256
370
-1
100
AcDbCircle
10
208.071067811
20
238.999999999
40
1
100
AcDbArc
50
180
51
270
0
LINE
5
F7
100
AcDbEntity
8
bottom plate
6
ByLayer
62
256
370
-1
100
AcDbLine
10
207.071067812
20
239
11
207.071067812
21
239
0
LINE
5
F8
100
AcDbEntity
8
bottom plate
6
ByLayer
62
256
370
-1
100
AcDbLine
10
208.071067812
20
240
11
221.928932188
21
240
0
ARC
5
F9
100
AcDbEntity
8
bottom plate
6
ByLayer
62
256
370
-1
100
AcDbCircle
10
208.071067811
20
238.999999999
40
1
100
AcDbArc
50
90
51
180
0
LINE
5
FA
100
AcDbEntity
8
bottom plate
6
ByLayer
62
256
370
-1
100
AcDbLine
10
201.071067812
20
223.928932187
11
228.928932188
21
223.928932188
0
LINE
5
FB
100
AcDbEntity
8
bottom plate
6
ByLayer
62
256
370
-1
100
AcDbLine
10
201.071067812
20
225.928932188
11
228.928932188
21
225.928932188
0
ARC
5
FC
100
AcDbEntity
8
bottom plate
6
ByLayer
62
256
370
-1
100
AcDbCircle
10
236
20
224.928932188
40
1
100
AcDbArc
50
270
51
360
0
ARC
5
FD
100
AcDbEntity
8
bottom plate
6
ByLayer
62
256
370
-1
100
AcDbCircle
10
236
20
224.928932188
40
1
100
AcDbArc
50
360
51
90
0
LINE
5
FE
100
AcDbEntity
8
bottom plate
6
ByLayer
62
256
370
-1
100
AcDbLine
10
228.928932188
20
223.928932188
11
235.999999999
21
223.928932187
0
LINE
5
FF
100
AcDbEntity
8
bottom plate
6
ByLayer
62
256
370
-1
100
AcDbLine
10
228.928932188
20
225.928932188
11
236
21
225.928932188
0
ARC
5
100
100
AcDbEntity
8
bottom plate
6
ByLayer
62
256
370
-1
100
AcDbCircle
10
194
20
224.928932188
40
1
100
AcDbArc
50
180
51
270
0
ARC
5
101
100
AcDbEntity
8
bottom plate
6
ByLayer
62
256
370
-1
100
AcDbCircle
10
194
20
224.928932188
40
1
100
AcDbArc
50
90
51
180
0
LINE
5
102
100
AcDbEntity
8
bottom plate
6
ByLayer
62
256
370
-1
100
AcDbLine
10
201.071067812
20
223.928932187
11
194.000000001
21
223.928932188
0
LINE
5
103
100
AcDbEntity
8
bottom plate
6
ByLayer
62
256
370
-1
100
AcDbLine
10
201.071067812
20
225.928932188
11
194
21
225.928932188
0
ARC
5
104
100
AcDbEntity
8
bottom plate
6
ByLayer
62
256
370
-1
100
AcDbCircle
10
231
20
261.928932188
40
1
100
AcDbArc
50
360
51
90
0
LINE
5
105
100
AcDbEntity
8
bottom plate
6
ByLayer
62
256
370
-1
100
AcDbLine
10
231
20
262.928932188
11
231
21
262.928932188
0
ARC
5
106
100
AcDbEntity
8
bottom plate
6
ByLayer
62
256
370
-1
100
AcDbCircle
10
231
20
261.928932188
40
1
100
AcDbArc
50
90
51
180
0
LINE
5
107
100
AcDbEntity
8
bottom plate
6
ByLayer
62
256
370
-1
100
AcDbLine
10
232
20
248.071067811
11
232
21
261.928932188
0
ARC
5
108
100
AcDbEntity
8
bottom plate
6
ByLayer
62
256
370
-1
100
AcDbCircle
10
231
20
248.071067811
40
1
100
AcDbArc
50
270
51
360
0
LINE
5
109
100
AcDbEntity
8
bottom plate
6
ByLayer
62
256
370
-1
100
AcDbLine
10
231
20
247.071067811
11
231
21
247.071067811
0
LINE
5
10A
100
AcDbEntity
8
bottom plate
6
ByLayer
62
256
370
-1
100
AcDbLine
10
230
20
248.071067811
11
230
21
261.928932187
0
ARC
5
10B
100
AcDbEntity
8
bottom plate
6
ByLayer
62
256
370
-1
100
AcDbCircle
10
231
20
248.071067811
40
1
100
AcDbArc
50
180
51
270
0
LINE
5
10C
100
AcDbEntity
8
bottom plate
6
ByLayer
62
256
370
-1
100
AcDbLine
10
246.071067812
20
241.071067812
11
246.071067812
21
268.928932187
0
LINE
5
10D
100
AcDbEntity
8
bottom plate
6
ByLayer
62
256
370
-1
100
AcDbLine
10
244.071067812
20
241.071067811
11
244.071067812
21
268.928932188
0
ARC
5
10E
100
AcDbEntity
8
bottom plate
6
ByLayer
62
256
370
-1
100
AcDbCircle
10
245.071067812
20
275.999999999
40
1
100
AcDbArc
50
360
51
90
0
ARC
5
10F
100
AcDbEntity
8
bottom plate
6
ByLayer
62
256
370
-1
100
AcDbCircle
10
245.071067812
20
275.999999999
40
1
100
AcDbArc
50
90
51
180
0
LINE
5
110
100
AcDbEntity
8
bottom plate
6
ByLayer
62
256
370
-1
100
AcDbLine
10
246.071067812
20
268.928932187
11
246.071067812
21
275.999999999
0
LINE
5
111
100
AcDbEntity
8
bottom plate
6
ByLayer
62
256
370
-1
100
AcDbLine
10
244.071067812
20
268.928932188
11
244.071067812
21
275.999999999
0
ARC
5
112
100
AcDbEntity
8
bottom plate
6
ByLayer
62
256
370
-1
100
AcDbCircle
10
245.071067811
20
233.999999999
40
1
100
AcDbArc
50
270
51
360
0
ARC
5
113
100
AcDbEntity
8
bottom plate
6
ByLayer
62
256
370
-1
100
AcDbCircle
10
245.071067811
20
233.999999999
40
1
100
AcDbArc
50
180
51
270
0
LINE
5
114
100
AcDbEntity
8
bottom plate
6
ByLayer
62
256
370
-1
100
AcDbLine
10
246.071067812
20
241.071067812
11
246.071067812
21
234
0
LINE
5
115
100
AcDbEntity
8
bottom plate
6
ByLayer
62
256
370
-1
100
AcDbLine
10
244.071067812
20
241.071067811
11
244.071067812
21
233.999999999
0
ARC
5
116
100
AcDbEntity
8
bottom plate
6
ByLayer
62
256
370
-1
100
AcDbCircle
10
188.715728753
20
309.568542494
40
2
100
AcDbArc
50
90
51
180
0
LINE
5
117
100
AcDbEntity
8
bottom plate
6
ByLayer
62
256
370
-1
100
AcDbLine
10
188.715728753
20
311.568542494
11
241.284271247
21
311.568542494
0
ARC
5
118
100
AcDbEntity
8
bottom plate
6
ByLayer
62
256
370
-1
100
AcDbCircle
10
241.284271247
20
309.568542494
40
2
100
AcDbArc
50
360
51
90
0
LINE
5
119
100
AcDbEntity
8
bottom plate
6
ByLayer
62
256
370
-1
100
AcDbLine
10
243.284271247
20
309.568542494
11
243.284271247
21
305.325901807
0
ARC
5
11A
100
AcDbEntity
8
bottom plate
6
ByLayer
62
256
370
-1
100
AcDbCircle
10
241.284271247
20
305.325901807
40
2
100
AcDbArc
50
315
51
360
0
LINE
5
11B
100
AcDbEntity
8
bottom plate
6
ByLayer
62
256
370
-1
100
AcDbLine
10
229.727922062
20
290.941125496
11
242.69848481
21
303.911688245
0
ARC
5
11C
100
AcDbEntity
8
bottom plate
6
ByLayer
62
256
370
-1
100
AcDbCircle
10
228.313708499
20
292.355339059
40
2
100
AcDbArc
50
270
51
315
0
LINE
5
11D
100
AcDbEntity
8
bottom plate
6
ByLayer
62
256
370
-1
100
AcDbLine
10
186.715728753
20
305.325901807
11
186.715728753
21
309.568542494
0
ARC
5
11E
100
AcDbEntity
8
bottom plate
6
ByLayer
62
256
370
-1
100
AcDbCircle
10
188.715728753
20
305.325901807
40
2
100
AcDbArc
50
180
51
225
0
LINE
5
11F
100
AcDbEntity
8
bottom plate
6
ByLayer
62
256
370
-1
100
AcDbLine
10
187.30151519
20
303.911688245
11
200.272077938
21
290.941125496
0
LINE
5
120
100
AcDbEntity
8
bottom plate
6
ByLayer
62
256
370
-1
100
AcDbLine
10
201.686291502
20
290.355339059
11
228.313708498
21
290.355339059
0
ARC
5
121
100
AcDbEntity
8
bottom plate
6
ByLayer
62
256
370
-1
100
AcDbCircle
10
201.686291501
20
292.355339059
40
2
100
AcDbArc
50
225
51
270
0
ARC
5
122
100
AcDbEntity
8
bottom plate
6
ByLayer
62
256
370
-1
100
AcDbCircle
10
174.230447378
20
314.639610306
40
4
100
AcDbArc
50
90
51
135
0
LINE
5
123
100
AcDbEntity
8
bottom plate
6
ByLayer
62
256
370
-1
100
AcDbLine
10
171.402020254
20
317.468037431
11
152.531962568
21
298.597979745
0
ARC
5
124
100
AcDbEntity
8
bottom plate
6
ByLayer
62
256
370
-1
100
AcDbCircle
10
155.360389693
20
295.769552621
40
4
100
AcDbArc
50
135
51
180
0
LINE
5
125
100
AcDbEntity
8
bottom plate
6
ByLayer
62
256
370
-1
100
AcDbLine
10
151.360389693
20
214.230447377
11
151.360389693
21
295.769552621
0
ARC
5
126
100
AcDbEntity
8
bottom plate
6
ByLayer
62
256
370
-1
100
AcDbCircle
10
155.360389694
20
214.230447377
40
4
100
AcDbArc
50
180
51
225
0
LINE
5
127
100
AcDbEntity
8
bottom plate
6
ByLayer
62
256
370
-1
100
AcDbLine
10
152.531962568
20
211.402020253
11
171.402020254
21
192.531962567
0
ARC
5
128
100
AcDbEntity
8
bottom plate
6
ByLayer
62
256
370
-1
100
AcDbCircle
10
174.230447378
20
195.360389693
40
4
100
AcDbArc
50
225
51
270
0
LINE
5
129
100
AcDbEntity
8
bottom plate
6
ByLayer
62
256
370
-1
100
AcDbLine
10
255.769552622
20
191.360389692
11
174.230447378
21
191.360389692
0
ARC
5
12A
100
AcDbEntity
8
bottom plate
6
ByLayer
62
256
370
-1
100
AcDbCircle
10
255.769552622
20
195.360389693
40
4
100
AcDbArc
50
270
51
315
0
LINE
5
12B
100
AcDbEntity
8
bottom plate
6
ByLayer
62
256
370
-1
100
AcDbLine
10
258.597979746
20
192.531962567
11
277.468037432
21
211.402020253
0
ARC
5
12C
100
AcDbEntity
8
bottom plate
6
ByLayer
62
256
370
-1
100
AcDbCircle
10
274.639610306
20
214.230447377
40
4
100
AcDbArc
50
315
51
360
0
LINE
5
12D
100
AcDbEntity
8
bottom plate
6
ByLayer
62
256
370
-1
100
AcDbLine
10
278.639610307
20
295.769552621
11
278.639610307
21
214.230447377
0
ARC
5
12E
100
AcDbEntity
8
bottom plate
6
ByLayer
62
256
370
-1
100
AcDbCircle
10
274.639610307
20
295.769552621
40
4
100
AcDbArc
50
360
51
45
0
LINE
5
12F
100
AcDbEntity
8
bottom plate
6
ByLayer
62
256
370
-1
100
AcDbLine
10
277.468037432
20
298.597979745
11
258.597979746
21
317.468037431
0
LINE
5
130
100
AcDbEntity
8
bottom plate
6
ByLayer
62
256
370
-1
100
AcDbLine
10
174.230447378
20
318.639610306
11
255.769552622
21
318.639610306
0
ARC
5
131
100
AcDbEntity
8
bottom plate
6
ByLayer
62
256
370
-1
100
AcDbCircle
10
255.769552622
20
314.639610306
40
4
100
AcDbArc
50
45
51
90
0
ARC
5
132
100
AcDbEntity
8
bottom plate
6
ByLayer
62
256
370
-1
100
AcDbCircle
10
160.431457505
20
228.715728752
40
2
100
AcDbArc
50
180
51
270
0
LINE
5
133
100
AcDbEntity
8
bottom plate
6
ByLayer
62
256
370
-1
100
AcDbLine
10
158.431457505
20
228.715728753
11
158.431457505
21
281.284271247
0
ARC
5
134
100
AcDbEntity
8
bottom plate
6
ByLayer
62
256
370
-1
100
AcDbCircle
10
160.431457505
20
281.284271247
40
2
100
AcDbArc
50
90
51
180
0
LINE
5
135
100
AcDbEntity
8
bottom plate
6
ByLayer
62
256
370
-1
100
AcDbLine
10
160.431457505
20
283.284271247
11
164.674098192
21
283.284271247
0
ARC
5
136
100
AcDbEntity
8
bottom plate
6
ByLayer
62
256
370
-1
100
AcDbCircle
10
164.674098192
20
281.284271247
40
2
100
AcDbArc
50
45
51
90
0
LINE
5
137
100
AcDbEntity
8
bottom plate
6
ByLayer
62
256
370
-1
100
AcDbLine
10
179.058874503
20
269.727922061
11
166.088311755
21
282.698484809
0
ARC
5
138
100
AcDbEntity
8
bottom plate
6
ByLayer
62
256
370
-1
100
AcDbCircle
10
177.64466094
20
268.313708498
40
2
100
AcDbArc
50
360
51
45
0
LINE
5
139
100
AcDbEntity
8
bottom plate
6
ByLayer
62
256
370
-1
100
AcDbLine
10
164.674098192
20
226.715728752
11
160.431457505
21
226.715728753
0
ARC
5
13A
100
AcDbEntity
8
bottom plate
6
ByLayer
62
256
370
-1
100
AcDbCircle
10
164.674098192
20
228.715728752
40
2
100
AcDbArc
50
270
51
315
0
LINE
5
13B
100
AcDbEntity
8
bottom plate
6
ByLayer
62
256
370
-1
100
AcDbLine
10
166.088311755
20
227.30151519
11
179.058874503
21
240.272077938
0
LINE
5
13C
100
AcDbEntity
8
bottom plate
6
ByLayer
62
256
370
-1
100
AcDbLine
10
179.644660941
20
241.6862915
11
179.644660941
21
268.313708498
0
ARC
5
13D
100
AcDbEntity
8
bottom plate
6
ByLayer
62
256
370
-1
100
AcDbCircle
10
177.64466094
20
241.6862915
40
2
100
AcDbArc
50
315
51
360
0
ARC
5
13E
100
AcDbEntity
8
bottom plate
6
ByLayer
62
256
370
-1
100
AcDbCircle
10
241.284271247
20
200.431457504
40
2
100
AcDbArc
50
270
51
360
0
LINE
5
13F
100
AcDbEntity
8
bottom plate
6
ByLayer
62
256
370
-1
100
AcDbLine
10
241.284271247
20
198.431457505
11
188.715728753
21
198.431457504
0
ARC
5
140
100
AcDbEntity
8
bottom plate
6
ByLayer
62
256
370
-1
100
AcDbCircle
10
188.715728753
20
200.431457505
40
2
100
AcDbArc
50
180
51
270
0
LINE
5
141
100
AcDbEntity
8
bottom plate
6
ByLayer
62
256
370
-1
100
AcDbLine
10
186.715728753
20
200.431457504
11
186.715728753
21
204.674098191
0
ARC
5
142
100
AcDbEntity
8
bottom plate
6
ByLayer
62
256
370
-1
100
AcDbCircle
10
188.715728753
20
204.674098192
40
2
100
AcDbArc
50
135
51
180
0
LINE
5
143
100
AcDbEntity
8
bottom plate
6
ByLayer
62
256
370
-1
100
AcDbLine
10
200.272077938
20
219.058874502
11
187.30151519
21
206.088311754
0
ARC
5
144
100
AcDbEntity
8
bottom plate
6
ByLayer
62
256
370
-1
100
AcDbCircle
10
201.686291501
20
217.64466094
40
2
100
AcDbArc
50
90
51
135
0
LINE
5
145
100
AcDbEntity
8
bottom plate
6
ByLayer
62
256
370
-1
100
AcDbLine
10
243.284271247
20
204.674098192
11
243.284271247
21
200.431457505
0
ARC
5
146
100
AcDbEntity
8
bottom plate
6
ByLayer
62
256
370
-1
100
AcDbCircle
10
241.284271247
20
204.674098191
40
2
100
AcDbArc
50
360
51
45
0
LINE
5
147
100
AcDbEntity
8
bottom plate
6
ByLayer
62
256
370
-1
100
AcDbLine
10
242.69848481
20
206.088311754
11
229.727922062
21
219.058874502
0
LINE
5
148
100
AcDbEntity
8
bottom plate
6
ByLayer
62
256
370
-1
100
AcDbLine
10
228.313708499
20
219.644660942
11
201.686291501
21
219.644660941
0
ARC
5
149
100
AcDbEntity
8
bottom plate
6
ByLayer
62
256
370
-1
100
AcDbCircle
10
228.313708499
20
217.64466094
40
2
100
AcDbArc
50
45
51
90
0
ARC
5
14A
100
AcDbEntity
8
bottom plate
6
ByLayer
62
256
370
-1
100
AcDbCircle
10
269.568542495
20
281.284271247
40
2
100
AcDbArc
50
360
51
90
0
LINE
5
14B
100
AcDbEntity
8
bottom plate
6
ByLayer
62
256
370
-1
100
AcDbLine
10
271.568542495
20
281.284271247
11
271.568542495
21
228.715728753
0
ARC
5
14C
100
AcDbEntity
8
bottom plate
6
ByLayer
62
256
370
-1
100
AcDbCircle
10
269.568542495
20
228.715728752
40
2
100
AcDbArc
50
270
51
360
0
LINE
5
14D
100
AcDbEntity
8
bottom plate
6
ByLayer
62
256
370
-1
100
AcDbLine
10
269.568542495
20
226.715728753
11
265.325901808
21
226.715728753
0
ARC
5
14E
100
AcDbEntity
8
bottom plate
6
ByLayer
62
256
370
-1
100
AcDbCircle
10
265.325901808
20
228.715728752
40
2
100
AcDbArc
50
225
51
270
0
LINE
5
14F
100
AcDbEntity
8
bottom plate
6
ByLayer
62
256
370
-1
100
AcDbLine
10
250.941125497
20
240.272077938
11
263.911688245
21
227.30151519
0
ARC
5
150
100
AcDbEntity
8
bottom plate
6
ByLayer
62
256
370
-1
100
AcDbCircle
10
252.35533906
20
241.6862915
40
2
100
AcDbArc
50
180
51
225
0
LINE
5
151
100
AcDbEntity
8
bottom plate
6
ByLayer
62
256
370
-1
100
AcDbLine
10
265.325901808
20
283.284271247
11
269.568542495
21
283.284271247
0
ARC
5
152
100
AcDbEntity
8
bottom plate
6
ByLayer
62
256
370
-1
100
AcDbCircle
10
265.325901808
20
281.284271247
40
2
100
AcDbArc
50
90
51
135
0
LINE
5
153
100
AcDbEntity
8
bottom plate
6
ByLayer
62
256
370
-1
100
AcDbLine
10
263.911688245
20
282.698484809
11
250.941125497
21
269.727922061
0
LINE
5
154
100
AcDbEntity
8
bottom plate
6
ByLayer
62
256
370
-1
100
AcDbLine
10
250.355339059
20
268.313708498
11
250.355339059
21
241.6862915
0
ARC
5
155
100
AcDbEntity
8
bottom plate
6
ByLayer
62
256
370
-1
100
AcDbCircle
10
252.35533906
20
268.313708498
40
2
100
AcDbArc
50
135
51
180
0
ARC
5
156
100
AcDbEntity
8
bottom plate
6
ByLayer
62
256
370
-1
100
AcDbCircle
10
192
20
241.071067811
40
1
100
AcDbArc
50
180
51
270
0
LINE
5
157
100
AcDbEntity
8
bottom plate
6
ByLayer
62
256
370
-1
100
AcDbLine
10
192
20
240.071067811
11
192
21
240.071067811
0
ARC
5
158
100
AcDbEntity
8
bottom plate
6
ByLayer
62
256
370
-1
100
AcDbCircle
10
192
20
241.071067811
40
1
100
AcDbArc
50
270
51
360
0
LINE
5
159
100
AcDbEntity
8
bottom plate
6
ByLayer
62
256
370
-1
100
AcDbLine
10
191.000000001
20
268.928932188
11
190.999999999
21
241.071067811
0
ARC
5
15A
100
AcDbEntity
8
bottom plate
6
ByLayer
62
256
370
-1
100
AcDbCircle
10
192
20
268.928932188
40
1
100
AcDbArc
50
90
51
180
0
LINE
5
15B
100
AcDbEntity
8
bottom plate
6
ByLayer
62
256
370
-1
100
AcDbLine
10
192
20
269.928932187
11
192
21
269.928932187
0
LINE
5
15C
100
AcDbEntity
8
bottom plate
6
ByLayer
62
256
370
-1
100
AcDbLine
10
193
20
268.928932188
11
193
21
241.071067811
0
ARC
5
15D
100
AcDbEntity
8
bottom plate
6
ByLayer
62
256
370
-1
100
AcDbCircle
10
192
20
268.928932188
40
1
100
AcDbArc
50
360
51
90
0
ARC
5
15E
100
AcDbEntity
8
bottom plate
6
ByLayer
62
256
370
-1
100
AcDbCircle
10
228.928932188
20
232
40
1
100
AcDbArc
50
270
51
360
0
LINE
5
15F
100
AcDbEntity
8
bottom plate
6
ByLayer
62
256
370
-1
100
AcDbLine
10
229.928932188
20
232
11
229.928932188
21
232
0
ARC
5
160
100
AcDbEntity
8
bottom plate
6
ByLayer
62
256
370
-1
100
AcDbCircle
10
228.928932188
20
232
40
1
100
AcDbArc
50
360
51
90
0
LINE
5
161
100
AcDbEntity
8
bottom plate
6
ByLayer
62
256
370
-1
100
AcDbLine
10
201.071067812
20
231
11
228.928932188
21
230.999999999
0
ARC
5
162
100
AcDbEntity
8
bottom plate
6
ByLayer
62
256
370
-1
100
AcDbCircle
10
201.071067812
20
232
40
1
100
AcDbArc
50
180
51
270
0
LINE
5
163
100
AcDbEntity
8
bottom plate
6
ByLayer
62
256
370
-1
100
AcDbLine
10
200.071067812
20
232
11
200.071067812
21
232
0
LINE
5
164
100
AcDbEntity
8
bottom plate
6
ByLayer
62
256
370
-1
100
AcDbLine
10
201.071067812
20
233
11
228.928932188
21
232.999999999
0
ARC
5
165
100
AcDbEntity
8
bottom plate
6
ByLayer
62
256
370
-1
100
AcDbCircle
10
201.071067812
20
232
40
1
100
AcDbArc
50
90
51
180
0
ARC
5
166
100
AcDbEntity
8
bottom plate
6
ByLayer
62
256
370
-1
100
AcDbCircle
10
238
20
268.928932188
40
1
100
AcDbArc
50
360
51
90
0
LINE
5
167
100
AcDbEntity
8
bottom plate
6
ByLayer
62
256
370
-1
100
AcDbLine
10
238
20
269.928932187
11
238
21
269.928932187
0
ARC
5
168
100
AcDbEntity
8
bottom plate
6
ByLayer
62
256
370
-1
100
AcDbCircle
10
238
20
268.928932188
40
1
100
AcDbArc
50
90
51
180
0
LINE
5
169
100
AcDbEntity
8
bottom plate
6
ByLayer
62
256
370
-1
100
AcDbLine
10
238.999999999
20
241.071067811
11
239.000000001
21
268.928932188
0
ARC
5
16A
100
AcDbEntity
8
bottom plate
6
ByLayer
62
256
370
-1
100
AcDbCircle
10
238
20
241.071067811
40
1
100
AcDbArc
50
270
51
360
0
LINE
5
16B
100
AcDbEntity
8
bottom plate
6
ByLayer
62
256
370
-1
100
AcDbLine
10
238
20
240.071067812
11
238
21
240.071067812
0
LINE
5
16C
100
AcDbEntity
8
bottom plate
6
ByLayer
62
256
370
-1
100
AcDbLine
10
237
20
241.071067811
11
237
21
268.928932188
0
ARC
5
16D
100
AcDbEntity
8
bottom plate
6
ByLayer
62
256
370
-1
100
AcDbCircle
10
238
20
241.071067811
40
1
100
AcDbArc
50
180
51
270
0
LINE
5
16E
100
AcDbEntity
8
bottom plate
6
ByLayer
62
256
370
-1
100
AcDbLine
10
251.875618639
20
295.906127291
11
255.906127292
21
291.875618638
0
LINE
5
16F
100
AcDbEntity
8
bottom plate
6
ByLayer
62
256
370
-1
100
AcDbLine
10
262.482220357
20
306.512729009
11
266.512729009
21
302.482220356
0
CIRCLE
5
170
100
AcDbEntity
8
bottom plate
6
ByLayer
62
256
370
-1
100
AcDbCircle
10
257.426406871
20
297.426406871
40
1.5
0
LINE
5
171
100
AcDbEntity
8
bottom plate
6
ByLayer
62
256
370
-1
100
AcDbLine
10
255.906127292
20
291.875618638
11
245.299525574
21
281.26901692
0
LINE
5
172
100
AcDbEntity
8
bottom plate
6
ByLayer
62
256
370
-1
100
AcDbLine
10
251.875618639
20
295.906127291
11
241.269016921
21
285.299525573
0
LINE
5
173
100
AcDbEntity
8
bottom plate
6
ByLayer
62
256
370
-1
100
AcDbLine
10
266.512729009
20
302.482220356
11
262.977195104
21
298.94668645
0
LINE
5
174
100
AcDbEntity
8
bottom plate
6
ByLayer
62
256
370
-1
100
AcDbLine
10
262.482220357
20
306.512729009
11
258.946686451
21
302.977195103
0
LINE
5
175
100
AcDbEntity
8
bottom plate
6
ByLayer
62
256
370
-1
100
AcDbLine
10
258.946686451
20
302.977195103
11
262.977195104
21
298.94668645
0
LINE
5
176
100
AcDbEntity
8
bottom plate
6
ByLayer
62
256
370
-1
100
AcDbLine
10
241.269016921
20
285.299525573
11
245.299525574
21
281.26901692
0
LINE
5
177
100
AcDbEntity
8
bottom plate
6
ByLayer
62
256
370
-1
100
AcDbLine
10
174.093872708
20
291.875618638
11
178.124381361
21
295.906127291
0
LINE
5
178
100
AcDbEntity
8
bottom plate
6
ByLayer
62
256
370
-1
100
AcDbLine
10
163.487270991
20
302.482220356
11
167.517779643
21
306.512729009
0
CIRCLE
5
179
100
AcDbEntity
8
bottom plate
6
ByLayer
62
256
370
-1
100
AcDbCircle
10
172.573593129
20
297.426406871
40
1.5
0
LINE
5
17A
100
AcDbEntity
8
bottom plate
6
ByLayer
62
256
370
-1
100
AcDbLine
10
178.124381361
20
295.906127291
11
188.730983079
21
285.299525573
0
LINE
5
17B
100
AcDbEntity
8
bottom plate
6
ByLayer
62
256
370
-1
100
AcDbLine
10
174.093872708
20
291.875618638
11
184.700474426
21
281.26901692
0
LINE
5
17C
100
AcDbEntity
8
bottom plate
6
ByLayer
62
256
370
-1
100
AcDbLine
10
167.517779643
20
306.512729009
11
171.053313549
21
302.977195103
0
LINE
5
17D
100
AcDbEntity
8
bottom plate
6
ByLayer
62
256
370
-1
100
AcDbLine
10
163.487270991
20
302.482220356
11
167.022804896
21
298.94668645
0
LINE
5
17E
100
AcDbEntity
8
bottom plate
6
ByLayer
62
256
370
-1
100
AcDbLine
10
167.022804896
20
298.94668645
11
171.053313549
21
302.977195103
0
LINE
5
17F
100
AcDbEntity
8
bottom plate
6
ByLayer
62
256
370
-1
100
AcDbLine
10
184.700474426
20
281.26901692
11
188.730983079
21
285.299525573
0
LINE
5
180
100
AcDbEntity
8
bottom plate
6
ByLayer
62
256
370
-1
100
AcDbLine
10
178.124381361
20
214.093872709
11
174.093872708
21
218.12438136
0
LINE
5
181
100
AcDbEntity
8
bottom plate
6
ByLayer
62
256
370
-1
100
AcDbLine
10
167.517779643
20
203.487270991
11
163.487270991
21
207.517779643
0
CIRCLE
5
182
100
AcDbEntity
8
bottom plate
6
ByLayer
62
256
370
-1
100
AcDbCircle
10
172.573593129
20
212.573593128
40
1.5
0
LINE
5
183
100
AcDbEntity
8
bottom plate
6
ByLayer
62
256
370
-1
100
AcDbLine
10
174.093872708
20
218.12438136
11
184.700474426
21
228.730983078
0
LINE
5
184
100
AcDbEntity
8
bottom plate
6
ByLayer
62
256
370
-1
100
AcDbLine
10
178.124381361
20
214.093872709
11
188.730983079
21
224.700474426
0
LINE
5
185
100
AcDbEntity
8
bottom plate
6
ByLayer
62
256
370
-1
100
AcDbLine
10
163.487270991
20
207.517779643
11
167.022804896
21
211.053313549
0
LINE
5
186
100
AcDbEntity
8
bottom plate
6
ByLayer
62
256
370
-1
100
AcDbLine
10
167.517779643
20
203.487270991
11
171.053313549
21
207.022804897
0
LINE
5
187
100
AcDbEntity
8
bottom plate
6
ByLayer
62
256
370
-1
100
AcDbLine
10
171.053313549
20
207.022804897
11
167.022804896
21
211.053313549
0
LINE
5
188
100
AcDbEntity
8
bottom plate
6
ByLayer
62
256
370
-1
100
AcDbLine
10
188.730983079
20
224.700474426
11
184.700474426
21
228.730983078
0
LINE
5
189
100
AcDbEntity
8
bottom plate
6
ByLayer
62
256
370
-1
100
AcDbLine
10
255.906127292
20
218.124381361
11
251.875618639
21
214.093872708
0
LINE
5
18A
100
AcDbEntity
8
bottom plate
6
ByLayer
62
256
370
-1
100
AcDbLine
10
266.512729009
20
207.517779643
11
262.482220357
21
203.48727099
0
CIRCLE
5
18B
100
AcDbEntity
8
bottom plate
6
ByLayer
62
256
370
-1
100
AcDbCircle
10
257.426406871
20
212.573593128
40
1.5
0
LINE
5
18C
100
AcDbEntity
8
bottom plate
6
ByLayer
62
256
370
-1
100
AcDbLine
10
251.875618639
20
214.093872708
11
241.269016921
21
224.700474426
0
LINE
5
18D
100
AcDbEntity
8
bottom plate
6
ByLayer
62
256
370
-1
100
AcDbLine
10
255.906127292
20
218.124381361
11
245.299525574
21
228.730983078
0
LINE
5
18E
100
AcDbEntity
8
bottom plate
6
ByLayer
62
256
370
-1
100
AcDbLine
10
262.482220357
20
203.48727099
11
258.946686451
21
207.022804896
0
LINE
5
18F
100
AcDbEntity
8
bottom plate
6
ByLayer
62
256
370
-1
100
AcDbLine
10
266.512729009
20
207.517779643
11
262.977195104
21
211.053313549
0
LINE
5
190
100
AcDbEntity
8
bottom plate
6
ByLayer
62
256
370
-1
100
AcDbLine
10
262.977195104
20
211.053313549
11
258.946686451
21
207.022804896
0
LINE
5
191
100
AcDbEntity
8
bottom plate
6
ByLayer
62
256
370
-1
100
AcDbLine
10
245.299525574
20
228.730983078
11
241.269016921
21
224.700474426
0
CIRCLE
5
192
100
AcDbEntity
8
bottom plate
6
ByLayer
62
256
370
-1
100
AcDbCircle
10
242.930717857
20
215.755573644
40
1.5
0
CIRCLE
5
193
100
AcDbEntity
8
bottom plate
6
ByLayer
62
256
370
-1
100
AcDbCircle
10
254.244426356
20
227.069282143
40
1.5
0
CIRCLE
5
194
100
AcDbEntity
8
bottom plate
6
ByLayer
62
256
370
-1
100
AcDbCircle
10
254.244426356
20
282.930717857
40
1.5
0
CIRCLE
5
195
100
AcDbEntity
8
bottom plate
6
ByLayer
62
256
370
-1
100
AcDbCircle
10
242.930717857
20
294.244426356
40
1.5
0
CIRCLE
5
196
100
AcDbEntity
8
bottom plate
6
ByLayer
62
256
370
-1
100
AcDbCircle
10
187.069282143
20
294.244426356
40
1.5
0
CIRCLE
5
197
100
AcDbEntity
8
bottom plate
6
ByLayer
62
256
370
-1
100
AcDbCircle
10
175.755573644
20
282.930717857
40
1.5
0
CIRCLE
5
198
100
AcDbEntity
8
bottom plate
6
ByLayer
62
256
370
-1
100
AcDbCircle
10
175.755573644
20
227.069282143
40
1.5
0
CIRCLE
5
199
100
AcDbEntity
8
bottom plate
6
ByLayer
62
256
370
-1
100
AcDbCircle
10
187.069282143
20
215.755573644
40
1.5
0
CIRCLE
5
19A
100
AcDbEntity
8
plate mount holes
6
ByLayer
62
256
370
-1
100
AcDbCircle
10
208.069007191
20
305.018790811
40
1.5
0
CIRCLE
5
19B
100
AcDbEntity
8
plate mount holes
6
ByLayer
62
256
370
-1
100
AcDbCircle
10
224.069007191
20
305.018790811
40
1.5
0
LINE
5
19C
100
AcDbEntity
8
plate mounts
6
ByLayer
62
256
370
-1
100
AcDbLine
10
208.069007191
20
308.018790811
11
224.069007191
21
308.018790811
0
LINE
5
19D
100
AcDbEntity
8
plate mounts
6
ByLayer
62
256
370
-1
100
AcDbLine
10
208.069007191
20
302.018790811
11
224.069007191
21
302.018790811
0
ARC
5
19E
100
AcDbEntity
8
plate mounts
6
ByLayer
62
256
370
-1
100
AcDbCircle
10
208.069007191
20
305.018790811
40
3
100
AcDbArc
50
90
51
270
0
ARC
5
19F
100
AcDbEntity
8
plate mounts
6
ByLayer
62
256
370
-1
100
AcDbCircle
10
224.069007191
20
305.018790811
40
3
100
AcDbArc
50
270
51
90
0
CIRCLE
5
1A0
100
AcDbEntity
8
plate mount holes
6
ByLayer
62
256
370
-1
100
AcDbCircle
10
208.069007191
20
297.571951438
40
1.5
0
CIRCLE
5
1A1
100
AcDbEntity
8
plate mount holes
6
ByLayer
62
256
370
-1
100
AcDbCircle
10
224.069007191
20
297.571951438
40
1.5
0
LINE
5
1A2
100
AcDbEntity
8
plate mounts
6
ByLayer
62
256
370
-1
100
AcDbLine
10
208.069007191
20
300.571951438
11
224.069007191
21
300.571951438
0
LINE
5
1A3
100
AcDbEntity
8
plate mounts
6
ByLayer
62
256
370
-1
100
AcDbLine
10
208.069007191
20
294.571951438
11
224.069007191
21
294.571951438
0
ARC
5
1A4
100
AcDbEntity
8
plate mounts
6
ByLayer
62
256
370
-1
100
AcDbCircle
10
208.069007191
20
297.571951438
40
3
100
AcDbArc
50
90
51
270
0
ARC
5
1A5
100
AcDbEntity
8
plate mounts
6
ByLayer
62
256
370
-1
100
AcDbCircle
10
224.069007191
20
297.571951438
40
3
100
AcDbArc
50
270
51
90
0
CIRCLE
5
1A6
100
AcDbEntity
8
plate mount holes
6
ByLayer
62
256
370
-1
100
AcDbCircle
10
221.930992809
20
204.981209189
40
1.5
0
CIRCLE
5
1A7
100
AcDbEntity
8
plate mount holes
6
ByLayer
62
256
370
-1
100
AcDbCircle
10
205.930992809
20
204.981209189
40
1.5
0
LINE
5
1A8
100
AcDbEntity
8
plate mounts
6
ByLayer
62
256
370
-1
100
AcDbLine
10
221.930992809
20
201.981209189
11
205.930992809
21
201.981209189
0
LINE
5
1A9
100
AcDbEntity
8
plate mounts
6
ByLayer
62
256
370
-1
100
AcDbLine
10
221.930992809
20
207.981209189
11
205.930992809
21
207.981209189
0
ARC
5
1AA
100
AcDbEntity
8
plate mounts
6
ByLayer
62
256
370
-1
100
AcDbCircle
10
221.930992809
20
204.981209189
40
3
100
AcDbArc
50
270
51
90
0
ARC
5
1AB
100
AcDbEntity
8
plate mounts
6
ByLayer
62
256
370
-1
100
AcDbCircle
10
205.930992809
20
204.981209189
40
3
100
AcDbArc
50
90
51
270
0
CIRCLE
5
1AC
100
AcDbEntity
8
plate mount holes
6
ByLayer
62
256
370
-1
100
AcDbCircle
10
221.930992809
20
212.428048562
40
1.5
0
CIRCLE
5
1AD
100
AcDbEntity
8
plate mount holes
6
ByLayer
62
256
370
-1
100
AcDbCircle
10
205.930992809
20
212.428048562
40
1.5
0
LINE
5
1AE
100
AcDbEntity
8
plate mounts
6
ByLayer
62
256
370
-1
100
AcDbLine
10
221.930992809
20
209.428048562
11
205.930992809
21
209.428048562
0
LINE
5
1AF
100
AcDbEntity
8
plate mounts
6
ByLayer
62
256
370
-1
100
AcDbLine
10
221.930992809
20
215.428048562
11
205.930992809
21
215.428048562
0
ARC
5
1B0
100
AcDbEntity
8
plate mounts
6
ByLayer
62
256
370
-1
100
AcDbCircle
10
221.930992809
20
212.428048562
40
3
100
AcDbArc
50
270
51
90
0
ARC
5
1B1
100
AcDbEntity
8
plate mounts
6
ByLayer
62
256
370
-1
100
AcDbCircle
10
205.930992809
20
212.428048562
40
3
100
AcDbArc
50
90
51
270
0
LINE
5
1B2
100
AcDbEntity
8
frame
6
ByLayer
62
256
370
-1
100
AcDbLine
10
110
20
40
11
60
21
40
0
LINE
5
1B3
100
AcDbEntity
8
frame
6
ByLayer
62
256
370
-1
100
AcDbLine
10
160
20
15
11
160
21
11.95
0
LINE
5
1B4
100
AcDbEntity
8
frame
6
ByLayer
62
256
370
-1
100
AcDbLine
10
160
20
15
11
155
21
15
0
ARC
5
1B5
100
AcDbEntity
8
frame
6
ByLayer
62
256
370
-1
100
AcDbCircle
10
75.7698101055
20
-16.5772320562
40
58.7338922421
100
AcDbArc
50
105.574784585
51
158.446320489
0
ARC
5
1B6
100
AcDbEntity
8
frame
6
ByLayer
62
256
370
-1
100
AcDbCircle
10
94.2301898945
20
-16.5772320562
40
58.7338922421
100
AcDbArc
50
21.5536795114
51
74.4252154153
0
LINE
5
1B7
100
AcDbEntity
8
frame
6
ByLayer
62
256
370
-1
100
AcDbLine
10
15.2727903843
20
5
11
21.1429563182
21
5
0
LINE
5
1B8
100
AcDbEntity
8
frame
6
ByLayer
62
256
370
-1
100
AcDbLine
10
148.857043682
20
5
11
155
21
5
0
LINE
5
1B9
100
AcDbEntity
8
frame
6
ByLayer
62
256
370
-1
100
AcDbLine
10
350
20
40
11
400
21
40
0
LINE
5
1BA
100
AcDbEntity
8
frame
6
ByLayer
62
256
370
-1
100
AcDbLine
10
305
20
15
11
305
21
10
0
LINE
5
1BB
100
AcDbEntity
8
frame
6
ByLayer
62
256
370
-1
100
AcDbLine
10
305
20
10
11
305
21
5
0
ARC
5
1BC
100
AcDbEntity
8
frame
6
ByLayer
62
256
370
-1
100
AcDbCircle
10
384.230189895
20
-16.5772320562
40
58.7338922421
100
AcDbArc
50
21.5536795114
51
74.4252154153
0
ARC
5
1BD
100
AcDbEntity
8
frame
6
ByLayer
62
256
370
-1
100
AcDbCircle
10
365.769810105
20
-16.5772320562
40
58.7338922421
100
AcDbArc
50
105.574784585
51
158.446320489
0
LINE
5
1BE
100
AcDbEntity
8
frame
6
ByLayer
62
256
370
-1
100
AcDbLine
10
444.727209616
20
5
11
438.857043682
21
5
0
LINE
5
1BF
100
AcDbEntity
8
frame
6
ByLayer
62
256
370
-1
100
AcDbLine
10
311.142956318
20
5
11
305
21
5
0
LINE
5
1C0
100
AcDbEntity
8
frame
6
ByLayer
62
256
370
-1
100
AcDbLine
10
220
20
73.05
11
220
21
70
0
LINE
5
1C1
100
AcDbEntity
8
frame
6
ByLayer
62
256
370
-1
100
AcDbLine
10
240
20
73.05
11
240
21
70
0
LINE
5
1C2
100
AcDbEntity
8
frame
6
ByLayer
62
256
370
-1
100
AcDbLine
10
227.05
20
70
11
227.05
21
62.5
0
LINE
5
1C3
100
AcDbEntity
8
frame
6
ByLayer
62
256
370
-1
100
AcDbLine
10
232.95
20
70
11
232.95
21
62.5
0
LINE
5
1C4
100
AcDbEntity
8
frame
6
ByLayer
62
256
370
-1
100
AcDbLine
10
220
20
70
11
227.05
21
70
0
LINE
5
1C5
100
AcDbEntity
8
frame
6
ByLayer
62
256
370
-1
100
AcDbLine
10
232.95
20
70
11
240
21
70
0
LINE
5
1C6
100
AcDbEntity
8
frame
6
ByLayer
62
256
370
-1
100
AcDbLine
10
227.05
20
62.5
11
232.95
21
62.5
0
LINE
5
1C7
100
AcDbEntity
8
frame
6
ByLayer
62
256
370
-1
100
AcDbLine
10
21
20
5
11
21
21
5
0
LINE
5
1C8
100
AcDbEntity
8
frame
6
ByLayer
62
256
370
-1
100
AcDbLine
10
172.65
20
19
11
172.65
21
23
0
LINE
5
1C9
100
AcDbEntity
8
frame
6
ByLayer
62
256
370
-1
100
AcDbLine
10
167.35
20
19
11
167.35
21
23
0
LINE
5
1CA
100
AcDbEntity
8
frame
6
ByLayer
62
256
370
-1
100
AcDbLine
10
168.55
20
19
11
167.35
21
19
0
LINE
5
1CB
100
AcDbEntity
8
frame
6
ByLayer
62
256
370
-1
100
AcDbLine
10
172.65
20
19
11
171.45
21
19
0
LINE
5
1CC
100
AcDbEntity
8
frame
6
ByLayer
62
256
370
-1
100
AcDbLine
10
172.65
20
23
11
167.35
21
23
0
LINE
5
1CD
100
AcDbEntity
8
frame
6
ByLayer
62
256
370
-1
100
AcDbLine
10
171.45
20
15
11
171.45
21
19
0
LINE
5
1CE
100
AcDbEntity
8
frame
6
ByLayer
62
256
370
-1
100
AcDbLine
10
168.55
20
15
11
168.55
21
19
0
LINE
5
1CF
100
AcDbEntity
8
frame
6
ByLayer
62
256
370
-1
100
AcDbLine
10
165
20
15
11
168.55
21
15
0
LINE
5
1D0
100
AcDbEntity
8
frame
6
ByLayer
62
256
370
-1
100
AcDbLine
10
165
20
11.95
11
165
21
15
0
LINE
5
1D1
100
AcDbEntity
8
frame
6
ByLayer
62
256
370
-1
100
AcDbLine
10
160
20
11.95
11
165
21
11.95
0
LINE
5
1D2
100
AcDbEntity
8
frame
6
ByLayer
62
256
370
-1
100
AcDbLine
10
175
20
15
11
171.45
21
15
0
LINE
5
1D3
100
AcDbEntity
8
frame
6
ByLayer
62
256
370
-1
100
AcDbLine
10
155
20
15
11
155
21
5
0
LINE
5
1D4
100
AcDbEntity
8
frame
6
ByLayer
62
256
370
-1
100
AcDbLine
10
300
20
15
11
300
21
11.95
0
LINE
5
1D5
100
AcDbEntity
8
frame
6
ByLayer
62
256
370
-1
100
AcDbLine
10
300
20
15
11
305
21
15
0
LINE
5
1D6
100
AcDbEntity
8
frame
6
ByLayer
62
256
370
-1
100
AcDbLine
10
287.35
20
19
11
287.35
21
23
0
LINE
5
1D7
100
AcDbEntity
8
frame
6
ByLayer
62
256
370
-1
100
AcDbLine
10
292.65
20
19
11
292.65
21
23
0
LINE
5
1D8
100
AcDbEntity
8
frame
6
ByLayer
62
256
370
-1
100
AcDbLine
10
291.45
20
19
11
292.65
21
19
0
LINE
5
1D9
100
AcDbEntity
8
frame
6
ByLayer
62
256
370
-1
100
AcDbLine
10
287.35
20
19
11
288.55
21
19
0
LINE
5
1DA
100
AcDbEntity
8
frame
6
ByLayer
62
256
370
-1
100
AcDbLine
10
287.35
20
23
11
292.65
21
23
0
LINE
5
1DB
100
AcDbEntity
8
frame
6
ByLayer
62
256
370
-1
100
AcDbLine
10
288.55
20
15
11
288.55
21
19
0
LINE
5
1DC
100
AcDbEntity
8
frame
6
ByLayer
62
256
370
-1
100
AcDbLine
10
291.45
20
15
11
291.45
21
19
0
LINE
5
1DD
100
AcDbEntity
8
frame
6
ByLayer
62
256
370
-1
100
AcDbLine
10
295
20
15
11
291.45
21
15
0
LINE
5
1DE
100
AcDbEntity
8
frame
6
ByLayer
62
256
370
-1
100
AcDbLine
10
295
20
11.95
11
295
21
15
0
LINE
5
1DF
100
AcDbEntity
8
frame
6
ByLayer
62
256
370
-1
100
AcDbLine
10
300
20
11.95
11
295
21
11.95
0
LINE
5
1E0
100
AcDbEntity
8
frame
6
ByLayer
62
256
370
-1
100
AcDbLine
10
285
20
15
11
288.55
21
15
0
LINE
5
1E1
100
AcDbEntity
8
arm support
6
ByLayer
62
256
370
-1
100
AcDbLine
10
27.05
20
49.55
11
32.95
21
49.55
0
LINE
5
1E2
100
AcDbEntity
8
arm support
6
ByLayer
62
256
370
-1
100
AcDbLine
10
32.95
20
49.55
11
32.95
21
55.45
0
LINE
5
1E3
100
AcDbEntity
8
arm support
6
ByLayer
62
256
370
-1
100
AcDbLine
10
32.95
20
55.45
11
27.05
21
55.45
0
LINE
5
1E4
100
AcDbEntity
8
arm support
6
ByLayer
62
256
370
-1
100
AcDbLine
10
27.05
20
55.45
11
27.05
21
49.55
0
LINE
5
1E5
100
AcDbEntity
8
arm support
6
ByLayer
62
256
370
-1
100
AcDbLine
10
97.05
20
49.55
11
102.95
21
49.55
0
LINE
5
1E6
100
AcDbEntity
8
arm support
6
ByLayer
62
256
370
-1
100
AcDbLine
10
102.95
20
49.55
11
102.95
21
55.45
0
LINE
5
1E7
100
AcDbEntity
8
arm support
6
ByLayer
62
256
370
-1
100
AcDbLine
10
102.95
20
55.45
11
97.05
21
55.45
0
LINE
5
1E8
100
AcDbEntity
8
arm support
6
ByLayer
62
256
370
-1
100
AcDbLine
10
97.05
20
55.45
11
97.05
21
49.55
0
LINE
5
1E9
100
AcDbEntity
8
arm support
6
ByLayer
62
256
370
-1
100
AcDbLine
10
167.05
20
49.55
11
172.95
21
49.55
0
LINE
5
1EA
100
AcDbEntity
8
arm support
6
ByLayer
62
256
370
-1
100
AcDbLine
10
172.95
20
49.55
11
172.95
21
55.45
0
LINE
5
1EB
100
AcDbEntity
8
arm support
6
ByLayer
62
256
370
-1
100
AcDbLine
10
172.95
20
55.45
11
167.05
21
55.45
0
LINE
5
1EC
100
AcDbEntity
8
arm support
6
ByLayer
62
256
370
-1
100
AcDbLine
10
167.05
20
55.45
11
167.05
21
49.55
0
LINE
5
1ED
100
AcDbEntity
8
arm support
6
ByLayer
62
256
370
-1
100
AcDbLine
10
432.95
20
49.55
11
427.05
21
49.55
0
LINE
5
1EE
100
AcDbEntity
8
arm support
6
ByLayer
62
256
370
-1
100
AcDbLine
10
427.05
20
49.55
11
427.05
21
55.45
0
LINE
5
1EF
100
AcDbEntity
8
arm support
6
ByLayer
62
256
370
-1
100
AcDbLine
10
427.05
20
55.45
11
432.95
21
55.45
0
LINE
5
1F0
100
AcDbEntity
8
arm support
6
ByLayer
62
256
370
-1
100
AcDbLine
10
432.95
20
55.45
11
432.95
21
49.55
0
LINE
5
1F1
100
AcDbEntity
8
arm support
6
ByLayer
62
256
370
-1
100
AcDbLine
10
362.95
20
49.55
11
357.05
21
49.55
0
LINE
5
1F2
100
AcDbEntity
8
arm support
6
ByLayer
62
256
370
-1
100
AcDbLine
10
357.05
20
49.55
11
357.05
21
55.45
0
LINE
5
1F3
100
AcDbEntity
8
arm support
6
ByLayer
62
256
370
-1
100
AcDbLine
10
357.05
20
55.45
11
362.95
21
55.45
0
LINE
5
1F4
100
AcDbEntity
8
arm support
6
ByLayer
62
256
370
-1
100
AcDbLine
10
362.95
20
55.45
11
362.95
21
49.55
0
LINE
5
1F5
100
AcDbEntity
8
arm support
6
ByLayer
62
256
370
-1
100
AcDbLine
10
292.95
20
49.55
11
287.05
21
49.55
0
LINE
5
1F6
100
AcDbEntity
8
arm support
6
ByLayer
62
256
370
-1
100
AcDbLine
10
287.05
20
49.55
11
287.05
21
55.45
0
LINE
5
1F7
100
AcDbEntity
8
arm support
6
ByLayer
62
256
370
-1
100
AcDbLine
10
287.05
20
55.45
11
292.95
21
55.45
0
LINE
5
1F8
100
AcDbEntity
8
arm support
6
ByLayer
62
256
370
-1
100
AcDbLine
10
292.95
20
55.45
11
292.95
21
49.55
0
LINE
5
1F9
100
AcDbEntity
8
frame
6
ByLayer
62
256
370
-1
100
AcDbLine
10
150
20
70
11
153.55
21
70
0
LINE
5
1FA
100
AcDbEntity
8
frame
6
ByLayer
62
256
370
-1
100
AcDbLine
10
156.45
20
70
11
160
21
70
0
LINE
5
1FB
100
AcDbEntity
8
frame
6
ByLayer
62
256
370
-1
100
AcDbLine
10
152.35
20
66
11
152.35
21
62
0
LINE
5
1FC
100
AcDbEntity
8
frame
6
ByLayer
62
256
370
-1
100
AcDbLine
10
157.65
20
66
11
157.65
21
62
0
LINE
5
1FD
100
AcDbEntity
8
frame
6
ByLayer
62
256
370
-1
100
AcDbLine
10
156.45
20
66
11
157.65
21
66
0
LINE
5
1FE
100
AcDbEntity
8
frame
6
ByLayer
62
256
370
-1
100
AcDbLine
10
152.35
20
66
11
153.55
21
66
0
LINE
5
1FF
100
AcDbEntity
8
frame
6
ByLayer
62
256
370
-1
100
AcDbLine
10
152.35
20
62
11
157.65
21
62
0
LINE
5
200
100
AcDbEntity
8
frame
6
ByLayer
62
256
370
-1
100
AcDbLine
10
153.55
20
70
11
153.55
21
66
0
LINE
5
201
100
AcDbEntity
8
frame
6
ByLayer
62
256
370
-1
100
AcDbLine
10
156.45
20
70
11
156.45
21
66
0
LINE
5
202
100
AcDbEntity
8
frame
6
ByLayer
62
256
370
-1
100
AcDbLine
10
310
20
70
11
306.45
21
70
0
LINE
5
203
100
AcDbEntity
8
frame
6
ByLayer
62
256
370
-1
100
AcDbLine
10
303.55
20
70
11
300
21
70
0
LINE
5
204
100
AcDbEntity
8
frame
6
ByLayer
62
256
370
-1
100
AcDbLine
10
307.65
20
66
11
307.65
21
62
0
LINE
5
205
100
AcDbEntity
8
frame
6
ByLayer
62
256
370
-1
100
AcDbLine
10
302.35
20
66
11
302.35
21
62
0
LINE
5
206
100
AcDbEntity
8
frame
6
ByLayer
62
256
370
-1
100
AcDbLine
10
303.55
20
66
11
302.35
21
66
0
LINE
5
207
100
AcDbEntity
8
frame
6
ByLayer
62
256
370
-1
100
AcDbLine
10
307.65
20
66
11
306.45
21
66
0
LINE
5
208
100
AcDbEntity
8
frame
6
ByLayer
62
256
370
-1
100
AcDbLine
10
307.65
20
62
11
302.35
21
62
0
LINE
5
209
100
AcDbEntity
8
frame
6
ByLayer
62
256
370
-1
100
AcDbLine
10
306.45
20
70
11
306.45
21
66
0
LINE
5
20A
100
AcDbEntity
8
frame
6
ByLayer
62
256
370
-1
100
AcDbLine
10
303.55
20
70
11
303.55
21
66
0
LINE
5
20B
100
AcDbEntity
8
frame
6
ByLayer
62
256
370
-1
100
AcDbLine
10
183
20
55
11
277
21
55
0
LINE
5
20C
100
AcDbEntity
8
frame
6
ByLayer
62
256
370
-1
100
AcDbLine
10
195.530194847
20
67
11
200.830194847
21
67
0
LINE
5
20D
100
AcDbEntity
8
frame
6
ByLayer
62
256
370
-1
100
AcDbLine
10
195.530194847
20
73.05
11
195.530194847
21
67
0
LINE
5
20E
100
AcDbEntity
8
frame
6
ByLayer
62
256
370
-1
100
AcDbLine
10
200.830194847
20
73.05
11
200.830194847
21
67
0
LINE
5
20F
100
AcDbEntity
8
frame
6
ByLayer
62
256
370
-1
100
AcDbLine
10
264.469805153
20
67
11
259.169805153
21
67
0
LINE
5
210
100
AcDbEntity
8
frame
6
ByLayer
62
256
370
-1
100
AcDbLine
10
264.469805153
20
73.05
11
264.469805153
21
67
0
LINE
5
211
100
AcDbEntity
8
frame
6
ByLayer
62
256
370
-1
100
AcDbLine
10
259.169805153
20
73.05
11
259.169805153
21
67
0
LINE
5
212
100
AcDbEntity
8
frame
6
ByLayer
62
256
370
-1
100
AcDbLine
10
172
20
73.05
11
195.530194847
21
73.05
0
LINE
5
213
100
AcDbEntity
8
frame
6
ByLayer
62
256
370
-1
100
AcDbLine
10
163
20
75.8
11
169
21
75.8
0
LINE
5
214
100
AcDbEntity
8
frame
6
ByLayer
62
256
370
-1
100
AcDbLine
10
163
20
72.3
11
169
21
72.3
0
LINE
5
215
100
AcDbEntity
8
frame
6
ByLayer
62
256
370
-1
100
AcDbLine
10
163
20
72.3
11
163
21
75.8
0
LINE
5
216
100
AcDbEntity
8
frame
6
ByLayer
62
256
370
-1
100
AcDbLine
10
169
20
72.3
11
169
21
75.8
0
LINE
5
217
100
AcDbEntity
8
frame
6
ByLayer
62
256
370
-1
100
AcDbLine
10
160
20
70
11
160
21
75.8
0
ARC
5
218
100
AcDbEntity
8
frame
6
ByLayer
62
256
370
-1
100
AcDbCircle
10
163
20
75.8
40
3
100
AcDbArc
50
90
51
180
0
LINE
5
219
100
AcDbEntity
8
frame
6
ByLayer
62
256
370
-1
100
AcDbLine
10
163
20
78.8
11
169
21
78.8
0
LINE
5
21A
100
AcDbEntity
8
frame
6
ByLayer
62
256
370
-1
100
AcDbLine
10
172
20
73.05
11
172
21
75.8
0
ARC
5
21B
100
AcDbEntity
8
frame
6
ByLayer
62
256
370
-1
100
AcDbCircle
10
169
20
75.8
40
3
100
AcDbArc
50
0
51
90
0
LINE
5
21C
100
AcDbEntity
8
frame
6
ByLayer
62
256
370
-1
100
AcDbLine
10
288
20
73.05
11
264.469805153
21
73.05
0
LINE
5
21D
100
AcDbEntity
8
frame
6
ByLayer
62
256
370
-1
100
AcDbLine
10
297
20
75.8
11
291
21
75.8
0
LINE
5
21E
100
AcDbEntity
8
frame
6
ByLayer
62
256
370
-1
100
AcDbLine
10
297
20
72.3
11
291
21
72.3
0
LINE
5
21F
100
AcDbEntity
8
frame
6
ByLayer
62
256
370
-1
100
AcDbLine
10
297
20
72.3
11
297
21
75.8
0
LINE
5
220
100
AcDbEntity
8
frame
6
ByLayer
62
256
370
-1
100
AcDbLine
10
291
20
72.3
11
291
21
75.8
0
LINE
5
221
100
AcDbEntity
8
frame
6
ByLayer
62
256
370
-1
100
AcDbLine
10
300
20
70
11
300
21
75.8
0
ARC
5
222
100
AcDbEntity
8
frame
6
ByLayer
62
256
370
-1
100
AcDbCircle
10
297
20
75.8
40
3
100
AcDbArc
50
0
51
90
0
LINE
5
223
100
AcDbEntity
8
frame
6
ByLayer
62
256
370
-1
100
AcDbLine
10
297
20
78.8
11
291
21
78.8
0
LINE
5
224
100
AcDbEntity
8
frame
6
ByLayer
62
256
370
-1
100
AcDbLine
10
288
20
73.05
11
288
21
75.8
0
ARC
5
225
100
AcDbEntity
8
frame
6
ByLayer
62
256
370
-1
100
AcDbCircle
10
291
20
75.8
40
3
100
AcDbArc
50
90
51
180
0
LINE
5
226
100
AcDbEntity
8
frame
6
ByLayer
62
256
370
-1
100
AcDbLine
10
175
20
5
11
175
21
15
0
LINE
5
227
100
AcDbEntity
8
frame
6
ByLayer
62
256
370
-1
100
AcDbLine
10
285
20
5
11
285
21
15
0
LINE
5
228
100
AcDbEntity
8
frame
6
ByLayer
62
256
370
-1
100
AcDbLine
10
175
20
5
11
190
21
5
0
LINE
5
229
100
AcDbEntity
8
frame
6
ByLayer
62
256
370
-1
100
AcDbLine
10
270
20
5
11
285
21
5
0
LINE
5
22A
100
AcDbEntity
8
frame
6
ByLayer
62
256
370
-1
100
AcDbLine
10
185.5
20
12.7
11
179.5
21
12.7
0
LINE
5
22B
100
AcDbEntity
8
frame
6
ByLayer
62
256
370
-1
100
AcDbLine
10
185.5
20
9.2
11
179.5
21
9.2
0
LINE
5
22C
100
AcDbEntity
8
frame
6
ByLayer
62
256
370
-1
100
AcDbLine
10
179.5
20
9.2
11
179.5
21
12.7
0
LINE
5
22D
100
AcDbEntity
8
frame
6
ByLayer
62
256
370
-1
100
AcDbLine
10
185.5
20
9.2
11
185.5
21
12.7
0
LINE
5
22E
100
AcDbEntity
8
frame
6
ByLayer
62
256
370
-1
100
AcDbLine
10
183
20
55
11
183
21
21.95
0
ARC
5
22F
100
AcDbEntity
8
frame
6
ByLayer
62
256
370
-1
100
AcDbCircle
10
186
20
21.95
40
3
100
AcDbArc
50
180
51
270
0
LINE
5
230
100
AcDbEntity
8
frame
6
ByLayer
62
256
370
-1
100
AcDbLine
10
186
20
18.95
11
187
21
18.95
0
LINE
5
231
100
AcDbEntity
8
frame
6
ByLayer
62
256
370
-1
100
AcDbLine
10
190
20
15.95
11
190
21
5
0
ARC
5
232
100
AcDbEntity
8
frame
6
ByLayer
62
256
370
-1
100
AcDbCircle
10
187
20
15.95
40
3
100
AcDbArc
50
0
51
90
0
LINE
5
233
100
AcDbEntity
8
frame
6
ByLayer
62
256
370
-1
100
AcDbLine
10
270
20
15.95
11
270
21
5
0
ARC
5
234
100
AcDbEntity
8
frame
6
ByLayer
62
256
370
-1
100
AcDbCircle
10
273
20
15.95
40
3
100
AcDbArc
50
90
51
180
0
LINE
5
235
100
AcDbEntity
8
frame
6
ByLayer
62
256
370
-1
100
AcDbLine
10
274
20
18.95
11
273
21
18.95
0
LINE
5
236
100
AcDbEntity
8
frame
6
ByLayer
62
256
370
-1
100
AcDbLine
10
277
20
55
11
277
21
21.95
0
ARC
5
237
100
AcDbEntity
8
frame
6
ByLayer
62
256
370
-1
100
AcDbCircle
10
274
20
21.95
40
3
100
AcDbArc
50
270
51
360
0
LINE
5
238
100
AcDbEntity
8
frame
6
ByLayer
62
256
370
-1
100
AcDbLine
10
274.5
20
12.7
11
280.5
21
12.7
0
LINE
5
239
100
AcDbEntity
8
frame
6
ByLayer
62
256
370
-1
100
AcDbLine
10
274.5
20
9.2
11
280.5
21
9.2
0
LINE
5
23A
100
AcDbEntity
8
frame
6
ByLayer
62
256
370
-1
100
AcDbLine
10
280.5
20
9.2
11
280.5
21
12.7
0
LINE
5
23B
100
AcDbEntity
8
frame
6
ByLayer
62
256
370
-1
100
AcDbLine
10
274.5
20
9.2
11
274.5
21
12.7
0
ARC
5
23C
100
AcDbEntity
8
frame
6
ByLayer
62
256
370
-1
100
AcDbCircle
10
112.5
20
207.5
40
142.521928137
100
AcDbArc
50
268.994913995
51
285.255118703
0
LINE
5
23D
100
AcDbEntity
8
frame
6
ByLayer
62
256
370
-1
100
AcDbLine
10
60
20
65
11
110
21
65
0
ARC
5
23E
100
AcDbEntity
8
frame
6
ByLayer
62
256
370
-1
100
AcDbCircle
10
206.731566074
20
68.570476631
40
201.736631001
100
AcDbArc
50
179.59399371
51
198.367827646
0
LINE
5
23F
100
AcDbEntity
8
frame
6
ByLayer
62
256
370
-1
100
AcDbLine
10
5.00000000023
20
69.999999998
11
5.0000000001
21
75.7
0
LINE
5
240
100
AcDbEntity
8
frame
6
ByLayer
62
256
370
-1
100
AcDbLine
10
5.0000000001
20
75.7
11
1.00000008274e-10
21
75.7
0
LINE
5
241
100
AcDbEntity
8
frame
6
ByLayer
62
256
370
-1
100
AcDbLine
10
1.00000008274e-10
20
75.7
11
7.00000057918e-11
21
77
0
ARC
5
242
100
AcDbEntity
8
frame
6
ByLayer
62
256
370
-1
100
AcDbCircle
10
3.00000000007
20
77
40
3
100
AcDbArc
50
90
51
180.000000001
0
LINE
5
243
100
AcDbEntity
8
frame
6
ByLayer
62
256
370
-1
100
AcDbLine
10
3.00000000007
20
80
11
7.00000000007
21
80
0
LINE
5
244
100
AcDbEntity
8
frame
6
ByLayer
62
256
370
-1
100
AcDbLine
10
10.0000000002
20
69.999999998
11
10.0000000001
21
77
0
ARC
5
245
100
AcDbEntity
8
frame
6
ByLayer
62
256
370
-1
100
AcDbCircle
10
7.00000000007
20
77
40
3
100
AcDbArc
50
1.30384930834e-09
51
90
0
LINE
5
246
100
AcDbEntity
8
frame
6
ByLayer
62
256
370
-1
100
AcDbLine
10
41.35
20
66
11
41.35
21
62
0
LINE
5
247
100
AcDbEntity
8
frame
6
ByLayer
62
256
370
-1
100
AcDbLine
10
46.65
20
66
11
46.65
21
62
0
LINE
5
248
100
AcDbEntity
8
frame
6
ByLayer
62
256
370
-1
100
AcDbLine
10
45.45
20
66
11
46.65
21
66
0
LINE
5
249
100
AcDbEntity
8
frame
6
ByLayer
62
256
370
-1
100
AcDbLine
10
41.35
20
66
11
42.55
21
66
0
LINE
5
24A
100
AcDbEntity
8
frame
6
ByLayer
62
256
370
-1
100
AcDbLine
10
41.35
20
62
11
46.65
21
62
0
LINE
5
24B
100
AcDbEntity
8
frame
6
ByLayer
62
256
370
-1
100
AcDbLine
10
42.55
20
70
11
42.55
21
66
0
LINE
5
24C
100
AcDbEntity
8
frame
6
ByLayer
62
256
370
-1
100
AcDbLine
10
45.45
20
70
11
45.45
21
66
0
LINE
5
24D
100
AcDbEntity
8
frame
6
ByLayer
62
256
370
-1
100
AcDbLine
10
32
20
75.7
11
32
21
69.999999999
0
LINE
5
24E
100
AcDbEntity
8
frame
6
ByLayer
62
256
370
-1
100
AcDbLine
10
41
20
70
11
42.55
21
70
0
LINE
5
24F
100
AcDbEntity
8
frame
6
ByLayer
62
256
370
-1
100
AcDbLine
10
45.45
20
70
11
47
21
70
0
LINE
5
250
100
AcDbEntity
8
frame
6
ByLayer
62
256
370
-1
100
AcDbLine
10
32
20
75.7
11
40
21
75.7
0
LINE
5
251
100
AcDbEntity
8
frame
6
ByLayer
62
256
370
-1
100
AcDbLine
10
41
20
74.7
11
41
21
70
0
ARC
5
252
100
AcDbEntity
8
frame
6
ByLayer
62
256
370
-1
100
AcDbCircle
10
40
20
74.7
40
1
100
AcDbArc
50
0
51
90
0
ARC
5
253
100
AcDbEntity
8
frame
6
ByLayer
62
256
370
-1
100
AcDbCircle
10
65
20
97.4
40
32.7835324515
100
AcDbArc
50
236.697715247
51
261.227262702
0
LINE
5
254
100
AcDbEntity
8
frame
6
ByLayer
62
256
370
-1
100
AcDbLine
10
32
20
70
11
10.0000000002
21
69.999999998
0
ARC
5
255
100
AcDbEntity
8
frame
6
ByLayer
62
256
370
-1
100
AcDbCircle
10
347.5
20
207.5
40
142.521928137
100
AcDbArc
50
254.744881297
51
271.005086005
0
LINE
5
256
100
AcDbEntity
8
frame
6
ByLayer
62
256
370
-1
100
AcDbLine
10
400
20
65
11
350
21
65
0
ARC
5
257
100
AcDbEntity
8
frame
6
ByLayer
62
256
370
-1
100
AcDbCircle
10
253.268433926
20
68.570476631
40
201.736631001
100
AcDbArc
50
341.632172354
51
0.40600629
0
LINE
5
258
100
AcDbEntity
8
frame
6
ByLayer
62
256
370
-1
100
AcDbLine
10
455
20
69.999999998
11
455
21
75.7
0
LINE
5
259
100
AcDbEntity
8
frame
6
ByLayer
62
256
370
-1
100
AcDbLine
10
455
20
75.7
11
460
21
75.7
0
LINE
5
25A
100
AcDbEntity
8
frame
6
ByLayer
62
256
370
-1
100
AcDbLine
10
460
20
75.7
11
460
21
77
0
ARC
5
25B
100
AcDbEntity
8
frame
6
ByLayer
62
256
370
-1
100
AcDbCircle
10
457
20
77
40
3
100
AcDbArc
50
359.999999999
51
90
0
LINE
5
25C
100
AcDbEntity
8
frame
6
ByLayer
62
256
370
-1
100
AcDbLine
10
457
20
80
11
453
21
80
0
LINE
5
25D
100
AcDbEntity
8
frame
6
ByLayer
62
256
370
-1
100
AcDbLine
10
450
20
69.999999998
11
450
21
77
0
ARC
5
25E
100
AcDbEntity
8
frame
6
ByLayer
62
256
370
-1
100
AcDbCircle
10
453
20
77
40
3
100
AcDbArc
50
90
51
179.999999999
0
LINE
5
25F
100
AcDbEntity
8
frame
6
ByLayer
62
256
370
-1
100
AcDbLine
10
418.65
20
66
11
418.65
21
62
0
LINE
5
260
100
AcDbEntity
8
frame
6
ByLayer
62
256
370
-1
100
AcDbLine
10
413.35
20
66
11
413.35
21
62
0
LINE
5
261
100
AcDbEntity
8
frame
6
ByLayer
62
256
370
-1
100
AcDbLine
10
414.55
20
66
11
413.35
21
66
0
LINE
5
262
100
AcDbEntity
8
frame
6
ByLayer
62
256
370
-1
100
AcDbLine
10
418.65
20
66
11
417.45
21
66
0
LINE
5
263
100
AcDbEntity
8
frame
6
ByLayer
62
256
370
-1
100
AcDbLine
10
418.65
20
62
11
413.35
21
62
0
LINE
5
264
100
AcDbEntity
8
frame
6
ByLayer
62
256
370
-1
100
AcDbLine
10
417.45
20
70
11
417.45
21
66
0
LINE
5
265
100
AcDbEntity
8
frame
6
ByLayer
62
256
370
-1
100
AcDbLine
10
414.55
20
70
11
414.55
21
66
0
LINE
5
266
100
AcDbEntity
8
frame
6
ByLayer
62
256
370
-1
100
AcDbLine
10
428
20
75.7
11
428
21
69.999999999
0
LINE
5
267
100
AcDbEntity
8
frame
6
ByLayer
62
256
370
-1
100
AcDbLine
10
419
20
70
11
417.45
21
70
0
LINE
5
268
100
AcDbEntity
8
frame
6
ByLayer
62
256
370
-1
100
AcDbLine
10
414.55
20
70
11
413
21
70
0
LINE
5
269
100
AcDbEntity
8
frame
6
ByLayer
62
256
370
-1
100
AcDbLine
10
428
20
75.7
11
420
21
75.7
0
LINE
5
26A
100
AcDbEntity
8
frame
6
ByLayer
62
256
370
-1
100
AcDbLine
10
419
20
74.7
11
419
21
70
0
ARC
5
26B
100
AcDbEntity
8
frame
6
ByLayer
62
256
370
-1
100
AcDbCircle
10
420
20
74.7
40
1
100
AcDbArc
50
90
51
180
0
ARC
5
26C
100
AcDbEntity
8
frame
6
ByLayer
62
256
370
-1
100
AcDbCircle
10
395
20
97.4
40
32.7835324515
100
AcDbArc
50
278.772737298
51
303.302284753
0
LINE
5
26D
100
AcDbEntity
8
frame
6
ByLayer
62
256
370
-1
100
AcDbLine
10
428
20
70
11
450
21
69.999999998
0
ARC
5
26E
100
AcDbEntity
8
frame
6
ByLayer
62
256
370
-1
100
AcDbCircle
10
112.5
20
277.5
40
142.521928137
100
AcDbArc
50
268.994913995
51
285.255118703
0
LINE
5
26F
100
AcDbEntity
8
frame
6
ByLayer
62
256
370
-1
100
AcDbLine
10
60
20
135
11
110
21
135
0
LINE
5
270
100
AcDbEntity
8
frame
6
ByLayer
62
256
370
-1
100
AcDbLine
10
110
20
110
11
60
21
110
0
LINE
5
271
100
AcDbEntity
8
frame
6
ByLayer
62
256
370
-1
100
AcDbLine
10
220
20
143.05
11
220
21
140
0
LINE
5
272
100
AcDbEntity
8
frame
6
ByLayer
62
256
370
-1
100
AcDbLine
10
155
20
85
11
155
21
80
0
LINE
5
273
100
AcDbEntity
8
frame
6
ByLayer
62
256
370
-1
100
AcDbLine
10
155
20
80
11
155
21
75
0
ARC
5
274
100
AcDbEntity
8
frame
6
ByLayer
62
256
370
-1
100
AcDbCircle
10
75.7698101055
20
53.4227679438
40
58.7338922421
100
AcDbArc
50
105.574784585
51
158.446320489
0
ARC
5
275
100
AcDbEntity
8
frame
6
ByLayer
62
256
370
-1
100
AcDbCircle
10
206.731566074
20
138.570476631
40
201.736631001
100
AcDbArc
50
179.59399371
51
198.367827646
0
ARC
5
276
100
AcDbEntity
8
frame
6
ByLayer
62
256
370
-1
100
AcDbCircle
10
94.2301898945
20
53.4227679438
40
58.7338922421
100
AcDbArc
50
21.5536795114
51
74.4252154153
0
LINE
5
277
100
AcDbEntity
8
frame
6
ByLayer
62
256
370
-1
100
AcDbLine
10
15.2727903843
20
75
11
21.1429563182
21
75
0
LINE
5
278
100
AcDbEntity
8
frame
6
ByLayer
62
256
370
-1
100
AcDbLine
10
148.857043682
20
75
11
155
21
75
0
LINE
5
279
100
AcDbEntity
8
frame
6
ByLayer
62
256
370
-1
100
AcDbLine
10
350
20
110
11
400
21
110
0
LINE
5
27A
100
AcDbEntity
8
frame
6
ByLayer
62
256
370
-1
100
AcDbLine
10
305
20
85
11
305
21
80
0
LINE
5
27B
100
AcDbEntity
8
frame
6
ByLayer
62
256
370
-1
100
AcDbLine
10
305
20
80
11
305
21
75
0
ARC
5
27C
100
AcDbEntity
8
frame
6
ByLayer
62
256
370
-1
100
AcDbCircle
10
384.230189895
20
53.4227679438
40
58.7338922421
100
AcDbArc
50
21.5536795114
51
74.4252154153
0
ARC
5
27D
100
AcDbEntity
8
frame
6
ByLayer
62
256
370
-1
100
AcDbCircle
10
365.769810105
20
53.4227679438
40
58.7338922421
100
AcDbArc
50
105.574784585
51
158.446320489
0
LINE
5
27E
100
AcDbEntity
8
frame
6
ByLayer
62
256
370
-1
100
AcDbLine
10
444.727209616
20
75
11
438.857043682
21
75
0
LINE
5
27F
100
AcDbEntity
8
frame
6
ByLayer
62
256
370
-1
100
AcDbLine
10
311.142956318
20
75
11
305
21
75
0
LINE
5
280
100
AcDbEntity
8
frame
6
ByLayer
62
256
370
-1
100
AcDbLine
10
227.05
20
132.5
11
232.95
21
132.5
0
LINE
5
281
100
AcDbEntity
8
arm support
6
ByLayer
62
256
370
-1
100
AcDbLine
10
27.05
20
119.55
11
32.95
21
119.55
0
LINE
5
282
100
AcDbEntity
8
arm support
6
ByLayer
62
256
370
-1
100
AcDbLine
10
32.95
20
119.55
11
32.95
21
125.45
0
LINE
5
283
100
AcDbEntity
8
arm support
6
ByLayer
62
256
370
-1
100
AcDbLine
10
32.95
20
125.45
11
27.05
21
125.45
0
LINE
5
284
100
AcDbEntity
8
arm support
6
ByLayer
62
256
370
-1
100
AcDbLine
10
27.05
20
125.45
11
27.05
21
119.55
0
LINE
5
285
100
AcDbEntity
8
frame
6
ByLayer
62
256
370
-1
100
AcDbLine
10
150
20
140
11
153.55
21
140
0
LINE
5
286
100
AcDbEntity
8
frame
6
ByLayer
62
256
370
-1
100
AcDbLine
10
156.45
20
140
11
160
21
140
0
LINE
5
287
100
AcDbEntity
8
frame
6
ByLayer
62
256
370
-1
100
AcDbLine
10
152.35
20
136
11
152.35
21
132
0
LINE
5
288
100
AcDbEntity
8
frame
6
ByLayer
62
256
370
-1
100
AcDbLine
10
157.65
20
136
11
157.65
21
132
0
LINE
5
289
100
AcDbEntity
8
frame
6
ByLayer
62
256
370
-1
100
AcDbLine
10
156.45
20
136
11
157.65
21
136
0
LINE
5
28A
100
AcDbEntity
8
frame
6
ByLayer
62
256
370
-1
100
AcDbLine
10
152.35
20
136
11
153.55
21
136
0
LINE
5
28B
100
AcDbEntity
8
frame
6
ByLayer
62
256
370
-1
100
AcDbLine
10
152.35
20
132
11
157.65
21
132
0
LINE
5
28C
100
AcDbEntity
8
frame
6
ByLayer
62
256
370
-1
100
AcDbLine
10
153.55
20
140
11
153.55
21
136
0
LINE
5
28D
100
AcDbEntity
8
frame
6
ByLayer
62
256
370
-1
100
AcDbLine
10
156.45
20
140
11
156.45
21
136
0
LINE
5
28E
100
AcDbEntity
8
frame
6
ByLayer
62
256
370
-1
100
AcDbLine
10
160
20
85
11
160
21
81.95
0
LINE
5
28F
100
AcDbEntity
8
frame
6
ByLayer
62
256
370
-1
100
AcDbLine
10
160
20
85
11
155
21
85
0
LINE
5
290
100
AcDbEntity
8
frame
6
ByLayer
62
256
370
-1
100
AcDbLine
10
172.65
20
89
11
172.65
21
93
0
LINE
5
291
100
AcDbEntity
8
frame
6
ByLayer
62
256
370
-1
100
AcDbLine
10
167.35
20
89
11
167.35
21
93
0
LINE
5
292
100
AcDbEntity
8
frame
6
ByLayer
62
256
370
-1
100
AcDbLine
10
168.55
20
89
11
167.35
21
89
0
LINE
5
293
100
AcDbEntity
8
frame
6
ByLayer
62
256
370
-1
100
AcDbLine
10
172.65
20
89
11
171.45
21
89
0
LINE
5
294
100
AcDbEntity
8
frame
6
ByLayer
62
256
370
-1
100
AcDbLine
10
172.65
20
93
11
167.35
21
93
0
LINE
5
295
100
AcDbEntity
8
frame
6
ByLayer
62
256
370
-1
100
AcDbLine
10
171.45
20
85
11
171.45
21
89
0
LINE
5
296
100
AcDbEntity
8
frame
6
ByLayer
62
256
370
-1
100
AcDbLine
10
168.55
20
85
11
168.55
21
89
0
LINE
5
297
100
AcDbEntity
8
frame
6
ByLayer
62
256
370
-1
100
AcDbLine
10
165
20
85
11
168.55
21
85
0
LINE
5
298
100
AcDbEntity
8
frame
6
ByLayer
62
256
370
-1
100
AcDbLine
10
165
20
81.95
11
165
21
85
0
LINE
5
299
100
AcDbEntity
8
frame
6
ByLayer
62
256
370
-1
100
AcDbLine
10
160
20
81.95
11
165
21
81.95
0
LINE
5
29A
100
AcDbEntity
8
frame
6
ByLayer
62
256
370
-1
100
AcDbLine
10
175
20
85
11
171.45
21
85
0
LINE
5
29B
100
AcDbEntity
8
frame
6
ByLayer
62
256
370
-1
100
AcDbLine
10
300
20
85
11
300
21
81.95
0
LINE
5
29C
100
AcDbEntity
8
frame
6
ByLayer
62
256
370
-1
100
AcDbLine
10
300
20
85
11
305
21
85
0
LINE
5
29D
100
AcDbEntity
8
frame
6
ByLayer
62
256
370
-1
100
AcDbLine
10
287.35
20
89
11
287.35
21
93
0
LINE
5
29E
100
AcDbEntity
8
frame
6
ByLayer
62
256
370
-1
100
AcDbLine
10
292.65
20
89
11
292.65
21
93
0
LINE
5
29F
100
AcDbEntity
8
frame
6
ByLayer
62
256
370
-1
100
AcDbLine
10
291.45
20
89
11
292.65
21
89
0
LINE
5
2A0
100
AcDbEntity
8
frame
6
ByLayer
62
256
370
-1
100
AcDbLine
10
287.35
20
89
11
288.55
21
89
0
LINE
5
2A1
100
AcDbEntity
8
frame
6
ByLayer
62
256
370
-1
100
AcDbLine
10
287.35
20
93
11
292.65
21
93
0
LINE
5
2A2
100
AcDbEntity
8
frame
6
ByLayer
62
256
370
-1
100
AcDbLine
10
288.55
20
85
11
288.55
21
89
0
LINE
5
2A3
100
AcDbEntity
8
frame
6
ByLayer
62
256
370
-1
100
AcDbLine
10
291.45
20
85
11
291.45
21
89
0
LINE
5
2A4
100
AcDbEntity
8
frame
6
ByLayer
62
256
370
-1
100
AcDbLine
10
295
20
85
11
291.45
21
85
0
LINE
5
2A5
100
AcDbEntity
8
frame
6
ByLayer
62
256
370
-1
100
AcDbLine
10
295
20
81.95
11
295
21
85
0
LINE
5
2A6
100
AcDbEntity
8
frame
6
ByLayer
62
256
370
-1
100
AcDbLine
10
300
20
81.95
11
295
21
81.95
0
LINE
5
2A7
100
AcDbEntity
8
frame
6
ByLayer
62
256
370
-1
100
AcDbLine
10
285
20
85
11
288.55
21
85
0
LINE
5
2A8
100
AcDbEntity
8
frame
6
ByLayer
62
256
370
-1
100
AcDbLine
10
310
20
140
11
306.45
21
140
0
LINE
5
2A9
100
AcDbEntity
8
frame
6
ByLayer
62
256
370
-1
100
AcDbLine
10
303.55
20
140
11
300
21
140
0
LINE
5
2AA
100
AcDbEntity
8
frame
6
ByLayer
62
256
370
-1
100
AcDbLine
10
307.65
20
136
11
307.65
21
132
0
LINE
5
2AB
100
AcDbEntity
8
frame
6
ByLayer
62
256
370
-1
100
AcDbLine
10
302.35
20
136
11
302.35
21
132
0
LINE
5
2AC
100
AcDbEntity
8
frame
6
ByLayer
62
256
370
-1
100
AcDbLine
10
303.55
20
136
11
302.35
21
136
0
LINE
5
2AD
100
AcDbEntity
8
frame
6
ByLayer
62
256
370
-1
100
AcDbLine
10
307.65
20
136
11
306.45
21
136
0
LINE
5
2AE
100
AcDbEntity
8
frame
6
ByLayer
62
256
370
-1
100
AcDbLine
10
307.65
20
132
11
302.35
21
132
0
LINE
5
2AF
100
AcDbEntity
8
frame
6
ByLayer
62
256
370
-1
100
AcDbLine
10
306.45
20
140
11
306.45
21
136
0
LINE
5
2B0
100
AcDbEntity
8
frame
6
ByLayer
62
256
370
-1
100
AcDbLine
10
303.55
20
140
11
303.55
21
136
0
LINE
5
2B1
100
AcDbEntity
8
frame
6
ByLayer
62
256
370
-1
100
AcDbLine
10
240
20
143.05
11
240
21
140
0
LINE
5
2B2
100
AcDbEntity
8
arm support
6
ByLayer
62
256
370
-1
100
AcDbLine
10
97.05
20
119.55
11
102.95
21
119.55
0
LINE
5
2B3
100
AcDbEntity
8
arm support
6
ByLayer
62
256
370
-1
100
AcDbLine
10
102.95
20
119.55
11
102.95
21
125.45
0
LINE
5
2B4
100
AcDbEntity
8
arm support
6
ByLayer
62
256
370
-1
100
AcDbLine
10
102.95
20
125.45
11
97.05
21
125.45
0
LINE
5
2B5
100
AcDbEntity
8
arm support
6
ByLayer
62
256
370
-1
100
AcDbLine
10
97.05
20
125.45
11
97.05
21
119.55
0
LINE
5
2B6
100
AcDbEntity
8
arm support
6
ByLayer
62
256
370
-1
100
AcDbLine
10
167.05
20
119.55
11
172.95
21
119.55
0
LINE
5
2B7
100
AcDbEntity
8
arm support
6
ByLayer
62
256
370
-1
100
AcDbLine
10
172.95
20
119.55
11
172.95
21
125.45
0
LINE
5
2B8
100
AcDbEntity
8
arm support
6
ByLayer
62
256
370
-1
100
AcDbLine
10
172.95
20
125.45
11
167.05
21
125.45
0
LINE
5
2B9
100
AcDbEntity
8
arm support
6
ByLayer
62
256
370
-1
100
AcDbLine
10
167.05
20
125.45
11
167.05
21
119.55
0
LINE
5
2BA
100
AcDbEntity
8
arm support
6
ByLayer
62
256
370
-1
100
AcDbLine
10
432.95
20
119.55
11
427.05
21
119.55
0
LINE
5
2BB
100
AcDbEntity
8
arm support
6
ByLayer
62
256
370
-1
100
AcDbLine
10
427.05
20
119.55
11
427.05
21
125.45
0
LINE
5
2BC
100
AcDbEntity
8
arm support
6
ByLayer
62
256
370
-1
100
AcDbLine
10
427.05
20
125.45
11
432.95
21
125.45
0
LINE
5
2BD
100
AcDbEntity
8
arm support
6
ByLayer
62
256
370
-1
100
AcDbLine
10
432.95
20
125.45
11
432.95
21
119.55
0
LINE
5
2BE
100
AcDbEntity
8
arm support
6
ByLayer
62
256
370
-1
100
AcDbLine
10
362.95
20
119.55
11
357.05
21
119.55
0
LINE
5
2BF
100
AcDbEntity
8
arm support
6
ByLayer
62
256
370
-1
100
AcDbLine
10
357.05
20
119.55
11
357.05
21
125.45
0
LINE
5
2C0
100
AcDbEntity
8
arm support
6
ByLayer
62
256
370
-1
100
AcDbLine
10
357.05
20
125.45
11
362.95
21
125.45
0
LINE
5
2C1
100
AcDbEntity
8
arm support
6
ByLayer
62
256
370
-1
100
AcDbLine
10
362.95
20
125.45
11
362.95
21
119.55
0
LINE
5
2C2
100
AcDbEntity
8
arm support
6
ByLayer
62
256
370
-1
100
AcDbLine
10
292.95
20
119.55
11
287.05
21
119.55
0
LINE
5
2C3
100
AcDbEntity
8
arm support
6
ByLayer
62
256
370
-1
100
AcDbLine
10
287.05
20
119.55
11
287.05
21
125.45
0
LINE
5
2C4
100
AcDbEntity
8
arm support
6
ByLayer
62
256
370
-1
100
AcDbLine
10
287.05
20
125.45
11
292.95
21
125.45
0
LINE
5
2C5
100
AcDbEntity
8
arm support
6
ByLayer
62
256
370
-1
100
AcDbLine
10
292.95
20
125.45
11
292.95
21
119.55
0
LINE
5
2C6
100
AcDbEntity
8
frame
6
ByLayer
62
256
370
-1
100
AcDbLine
10
183
20
125
11
227.05
21
125
0
LINE
5
2C7
100
AcDbEntity
8
frame
6
ByLayer
62
256
370
-1
100
AcDbLine
10
232.95
20
125
11
277
21
125
0
LINE
5
2C8
100
AcDbEntity
8
frame
6
ByLayer
62
256
370
-1
100
AcDbLine
10
195.530194847
20
137
11
200.830194847
21
137
0
LINE
5
2C9
100
AcDbEntity
8
frame
6
ByLayer
62
256
370
-1
100
AcDbLine
10
195.530194847
20
143.05
11
195.530194847
21
137
0
LINE
5
2CA
100
AcDbEntity
8
frame
6
ByLayer
62
256
370
-1
100
AcDbLine
10
200.830194847
20
143.05
11
200.830194847
21
137
0
LINE
5
2CB
100
AcDbEntity
8
frame
6
ByLayer
62
256
370
-1
100
AcDbLine
10
264.469805153
20
137
11
259.169805153
21
137
0
LINE
5
2CC
100
AcDbEntity
8
frame
6
ByLayer
62
256
370
-1
100
AcDbLine
10
264.469805153
20
143.05
11
264.469805153
21
137
0
LINE
5
2CD
100
AcDbEntity
8
frame
6
ByLayer
62
256
370
-1
100
AcDbLine
10
259.169805153
20
143.05
11
259.169805153
21
137
0
LINE
5
2CE
100
AcDbEntity
8
frame
6
ByLayer
62
256
370
-1
100
AcDbLine
10
175
20
75
11
175
21
85
0
LINE
5
2CF
100
AcDbEntity
8
frame
6
ByLayer
62
256
370
-1
100
AcDbLine
10
285
20
75
11
285
21
85
0
LINE
5
2D0
100
AcDbEntity
8
frame
6
ByLayer
62
256
370
-1
100
AcDbLine
10
175
20
75
11
190
21
75
0
LINE
5
2D1
100
AcDbEntity
8
frame
6
ByLayer
62
256
370
-1
100
AcDbLine
10
270
20
75
11
285
21
75
0
LINE
5
2D2
100
AcDbEntity
8
frame
6
ByLayer
62
256
370
-1
100
AcDbLine
10
185.5
20
82.7
11
179.5
21
82.7
0
LINE
5
2D3
100
AcDbEntity
8
frame
6
ByLayer
62
256
370
-1
100
AcDbLine
10
185.5
20
79.2
11
179.5
21
79.2
0
LINE
5
2D4
100
AcDbEntity
8
frame
6
ByLayer
62
256
370
-1
100
AcDbLine
10
179.5
20
79.2
11
179.5
21
82.7
0
LINE
5
2D5
100
AcDbEntity
8
frame
6
ByLayer
62
256
370
-1
100
AcDbLine
10
185.5
20
79.2
11
185.5
21
82.7
0
LINE
5
2D6
100
AcDbEntity
8
frame
6
ByLayer
62
256
370
-1
100
AcDbLine
10
172
20
143.05
11
195.530194847
21
143.05
0
LINE
5
2D7
100
AcDbEntity
8
frame
6
ByLayer
62
256
370
-1
100
AcDbLine
10
163
20
145.8
11
169
21
145.8
0
LINE
5
2D8
100
AcDbEntity
8
frame
6
ByLayer
62
256
370
-1
100
AcDbLine
10
163
20
142.3
11
169
21
142.3
0
LINE
5
2D9
100
AcDbEntity
8
frame
6
ByLayer
62
256
370
-1
100
AcDbLine
10
163
20
142.3
11
163
21
145.8
0
LINE
5
2DA
100
AcDbEntity
8
frame
6
ByLayer
62
256
370
-1
100
AcDbLine
10
169
20
142.3
11
169
21
145.8
0
LINE
5
2DB
100
AcDbEntity
8
frame
6
ByLayer
62
256
370
-1
100
AcDbLine
10
160
20
140
11
160
21
145.8
0
ARC
5
2DC
100
AcDbEntity
8
frame
6
ByLayer
62
256
370
-1
100
AcDbCircle
10
163
20
145.8
40
3
100
AcDbArc
50
90
51
180
0
LINE
5
2DD
100
AcDbEntity
8
frame
6
ByLayer
62
256
370
-1
100
AcDbLine
10
163
20
148.8
11
169
21
148.8
0
LINE
5
2DE
100
AcDbEntity
8
frame
6
ByLayer
62
256
370
-1
100
AcDbLine
10
172
20
143.05
11
172
21
145.8
0
ARC
5
2DF
100
AcDbEntity
8
frame
6
ByLayer
62
256
370
-1
100
AcDbCircle
10
169
20
145.8
40
3
100
AcDbArc
50
0
51
90
0
LINE
5
2E0
100
AcDbEntity
8
frame
6
ByLayer
62
256
370
-1
100
AcDbLine
10
183
20
125
11
183
21
91.95
0
ARC
5
2E1
100
AcDbEntity
8
frame
6
ByLayer
62
256
370
-1
100
AcDbCircle
10
186
20
91.95
40
3
100
AcDbArc
50
180
51
270
0
LINE
5
2E2
100
AcDbEntity
8
frame
6
ByLayer
62
256
370
-1
100
AcDbLine
10
186
20
88.95
11
187
21
88.95
0
LINE
5
2E3
100
AcDbEntity
8
frame
6
ByLayer
62
256
370
-1
100
AcDbLine
10
190
20
85.95
11
190
21
75
0
ARC
5
2E4
100
AcDbEntity
8
frame
6
ByLayer
62
256
370
-1
100
AcDbCircle
10
187
20
85.95
40
3
100
AcDbArc
50
0
51
90
0
LINE
5
2E5
100
AcDbEntity
8
frame
6
ByLayer
62
256
370
-1
100
AcDbLine
10
270
20
85.95
11
270
21
75
0
ARC
5
2E6
100
AcDbEntity
8
frame
6
ByLayer
62
256
370
-1
100
AcDbCircle
10
273
20
85.95
40
3
100
AcDbArc
50
90
51
180
0
LINE
5
2E7
100
AcDbEntity
8
frame
6
ByLayer
62
256
370
-1
100
AcDbLine
10
274
20
88.95
11
273
21
88.95
0
LINE
5
2E8
100
AcDbEntity
8
frame
6
ByLayer
62
256
370
-1
100
AcDbLine
10
277
20
125
11
277
21
91.95
0
ARC
5
2E9
100
AcDbEntity
8
frame
6
ByLayer
62
256
370
-1
100
AcDbCircle
10
274
20
91.95
40
3
100
AcDbArc
50
270
51
360
0
LINE
5
2EA
100
AcDbEntity
8
frame
6
ByLayer
62
256
370
-1
100
AcDbLine
10
288
20
143.05
11
264.469805153
21
143.05
0
LINE
5
2EB
100
AcDbEntity
8
frame
6
ByLayer
62
256
370
-1
100
AcDbLine
10
297
20
145.8
11
291
21
145.8
0
LINE
5
2EC
100
AcDbEntity
8
frame
6
ByLayer
62
256
370
-1
100
AcDbLine
10
297
20
142.3
11
291
21
142.3
0
LINE
5
2ED
100
AcDbEntity
8
frame
6
ByLayer
62
256
370
-1
100
AcDbLine
10
297
20
142.3
11
297
21
145.8
0
LINE
5
2EE
100
AcDbEntity
8
frame
6
ByLayer
62
256
370
-1
100
AcDbLine
10
291
20
142.3
11
291
21
145.8
0
LINE
5
2EF
100
AcDbEntity
8
frame
6
ByLayer
62
256
370
-1
100
AcDbLine
10
300
20
140
11
300
21
145.8
0
ARC
5
2F0
100
AcDbEntity
8
frame
6
ByLayer
62
256
370
-1
100
AcDbCircle
10
297
20
145.8
40
3
100
AcDbArc
50
0
51
90
0
LINE
5
2F1
100
AcDbEntity
8
frame
6
ByLayer
62
256
370
-1
100
AcDbLine
10
297
20
148.8
11
291
21
148.8
0
LINE
5
2F2
100
AcDbEntity
8
frame
6
ByLayer
62
256
370
-1
100
AcDbLine
10
288
20
143.05
11
288
21
145.8
0
ARC
5
2F3
100
AcDbEntity
8
frame
6
ByLayer
62
256
370
-1
100
AcDbCircle
10
291
20
145.8
40
3
100
AcDbArc
50
90
51
180
0
LINE
5
2F4
100
AcDbEntity
8
frame
6
ByLayer
62
256
370
-1
100
AcDbLine
10
274.5
20
82.7
11
280.5
21
82.7
0
LINE
5
2F5
100
AcDbEntity
8
frame
6
ByLayer
62
256
370
-1
100
AcDbLine
10
274.5
20
79.2
11
280.5
21
79.2
0
LINE
5
2F6
100
AcDbEntity
8
frame
6
ByLayer
62
256
370
-1
100
AcDbLine
10
280.5
20
79.2
11
280.5
21
82.7
0
LINE
5
2F7
100
AcDbEntity
8
frame
6
ByLayer
62
256
370
-1
100
AcDbLine
10
274.5
20
79.2
11
274.5
21
82.7
0
LINE
5
2F8
100
AcDbEntity
8
plate mounts
6
ByLayer
62
256
370
-1
100
AcDbLine
10
163
20
145.8
11
163
21
145.8
0
LINE
5
2F9
100
AcDbEntity
8
frame
6
ByLayer
62
256
370
-1
100
AcDbLine
10
5.00000000023
20
139.999999998
11
5.0000000001
21
145.7
0
LINE
5
2FA
100
AcDbEntity
8
frame
6
ByLayer
62
256
370
-1
100
AcDbLine
10
5.0000000001
20
145.7
11
1.00000008274e-10
21
145.7
0
LINE
5
2FB
100
AcDbEntity
8
frame
6
ByLayer
62
256
370
-1
100
AcDbLine
10
1.00000008274e-10
20
145.7
11
7.00000057918e-11
21
147
0
ARC
5
2FC
100
AcDbEntity
8
frame
6
ByLayer
62
256
370
-1
100
AcDbCircle
10
3.00000000007
20
147
40
3
100
AcDbArc
50
90
51
180.000000001
0
LINE
5
2FD
100
AcDbEntity
8
frame
6
ByLayer
62
256
370
-1
100
AcDbLine
10
3.00000000007
20
150
11
7.00000000007
21
150
0
LINE
5
2FE
100
AcDbEntity
8
frame
6
ByLayer
62
256
370
-1
100
AcDbLine
10
10.0000000002
20
139.999999998
11
10.0000000001
21
147
0
ARC
5
2FF
100
AcDbEntity
8
frame
6
ByLayer
62
256
370
-1
100
AcDbCircle
10
7.00000000007
20
147
40
3
100
AcDbArc
50
1.30384930834e-09
51
90
0
LINE
5
300
100
AcDbEntity
8
frame
6
ByLayer
62
256
370
-1
100
AcDbLine
10
41.35
20
136
11
41.35
21
132
0
LINE
5
301
100
AcDbEntity
8
frame
6
ByLayer
62
256
370
-1
100
AcDbLine
10
46.65
20
136
11
46.65
21
132
0
LINE
5
302
100
AcDbEntity
8
frame
6
ByLayer
62
256
370
-1
100
AcDbLine
10
45.45
20
136
11
46.65
21
136
0
LINE
5
303
100
AcDbEntity
8
frame
6
ByLayer
62
256
370
-1
100
AcDbLine
10
41.35
20
136
11
42.55
21
136
0
LINE
5
304
100
AcDbEntity
8
frame
6
ByLayer
62
256
370
-1
100
AcDbLine
10
41.35
20
132
11
46.65
21
132
0
LINE
5
305
100
AcDbEntity
8
frame
6
ByLayer
62
256
370
-1
100
AcDbLine
10
42.55
20
140
11
42.55
21
136
0
LINE
5
306
100
AcDbEntity
8
frame
6
ByLayer
62
256
370
-1
100
AcDbLine
10
45.45
20
140
11
45.45
21
136
0
LINE
5
307
100
AcDbEntity
8
frame
6
ByLayer
62
256
370
-1
100
AcDbLine
10
32
20
145.7
11
32
21
139.999999999
0
LINE
5
308
100
AcDbEntity
8
frame
6
ByLayer
62
256
370
-1
100
AcDbLine
10
41
20
140
11
42.55
21
140
0
LINE
5
309
100
AcDbEntity
8
frame
6
ByLayer
62
256
370
-1
100
AcDbLine
10
45.45
20
140
11
47
21
140
0
LINE
5
30A
100
AcDbEntity
8
frame
6
ByLayer
62
256
370
-1
100
AcDbLine
10
32
20
145.7
11
40
21
145.7
0
LINE
5
30B
100
AcDbEntity
8
frame
6
ByLayer
62
256
370
-1
100
AcDbLine
10
41
20
144.7
11
41
21
140
0
ARC
5
30C
100
AcDbEntity
8
frame
6
ByLayer
62
256
370
-1
100
AcDbCircle
10
40
20
144.7
40
1
100
AcDbArc
50
0
51
90
0
ARC
5
30D
100
AcDbEntity
8
frame
6
ByLayer
62
256
370
-1
100
AcDbCircle
10
65
20
167.4
40
32.7835324515
100
AcDbArc
50
236.697715247
51
261.227262702
0
LINE
5
30E
100
AcDbEntity
8
frame
6
ByLayer
62
256
370
-1
100
AcDbLine
10
32
20
140
11
10.0000000002
21
139.999999998
0
ARC
5
30F
100
AcDbEntity
8
frame
6
ByLayer
62
256
370
-1
100
AcDbCircle
10
347.5
20
277.5
40
142.521928137
100
AcDbArc
50
254.744881297
51
271.005086005
0
LINE
5
310
100
AcDbEntity
8
frame
6
ByLayer
62
256
370
-1
100
AcDbLine
10
400
20
135
11
350
21
135
0
ARC
5
311
100
AcDbEntity
8
frame
6
ByLayer
62
256
370
-1
100
AcDbCircle
10
253.268433926
20
138.570476631
40
201.736631001
100
AcDbArc
50
341.632172354
51
0.40600629
0
LINE
5
312
100
AcDbEntity
8
frame
6
ByLayer
62
256
370
-1
100
AcDbLine
10
455
20
139.999999998
11
455
21
145.7
0
LINE
5
313
100
AcDbEntity
8
frame
6
ByLayer
62
256
370
-1
100
AcDbLine
10
455
20
145.7
11
460
21
145.7
0
LINE
5
314
100
AcDbEntity
8
frame
6
ByLayer
62
256
370
-1
100
AcDbLine
10
460
20
145.7
11
460
21
147
0
ARC
5
315
100
AcDbEntity
8
frame
6
ByLayer
62
256
370
-1
100
AcDbCircle
10
457
20
147
40
3
100
AcDbArc
50
359.999999999
51
90
0
LINE
5
316
100
AcDbEntity
8
frame
6
ByLayer
62
256
370
-1
100
AcDbLine
10
457
20
150
11
453
21
150
0
LINE
5
317
100
AcDbEntity
8
frame
6
ByLayer
62
256
370
-1
100
AcDbLine
10
450
20
139.999999998
11
450
21
147
0
ARC
5
318
100
AcDbEntity
8
frame
6
ByLayer
62
256
370
-1
100
AcDbCircle
10
453
20
147
40
3
100
AcDbArc
50
90
51
179.999999999
0
LINE
5
319
100
AcDbEntity
8
frame
6
ByLayer
62
256
370
-1
100
AcDbLine
10
418.65
20
136
11
418.65
21
132
0
LINE
5
31A
100
AcDbEntity
8
frame
6
ByLayer
62
256
370
-1
100
AcDbLine
10
413.35
20
136
11
413.35
21
132
0
LINE
5
31B
100
AcDbEntity
8
frame
6
ByLayer
62
256
370
-1
100
AcDbLine
10
414.55
20
136
11
413.35
21
136
0
LINE
5
31C
100
AcDbEntity
8
frame
6
ByLayer
62
256
370
-1
100
AcDbLine
10
418.65
20
136
11
417.45
21
136
0
LINE
5
31D
100
AcDbEntity
8
frame
6
ByLayer
62
256
370
-1
100
AcDbLine
10
418.65
20
132
11
413.35
21
132
0
LINE
5
31E
100
AcDbEntity
8
frame
6
ByLayer
62
256
370
-1
100
AcDbLine
10
417.45
20
140
11
417.45
21
136
0
LINE
5
31F
100
AcDbEntity
8
frame
6
ByLayer
62
256
370
-1
100
AcDbLine
10
414.55
20
140
11
414.55
21
136
0
LINE
5
320
100
AcDbEntity
8
frame
6
ByLayer
62
256
370
-1
100
AcDbLine
10
428
20
145.7
11
428
21
139.999999999
0
LINE
5
321
100
AcDbEntity
8
frame
6
ByLayer
62
256
370
-1
100
AcDbLine
10
419
20
140
11
417.45
21
140
0
LINE
5
322
100
AcDbEntity
8
frame
6
ByLayer
62
256
370
-1
100
AcDbLine
10
414.55
20
140
11
413
21
140
0
LINE
5
323
100
AcDbEntity
8
frame
6
ByLayer
62
256
370
-1
100
AcDbLine
10
428
20
145.7
11
420
21
145.7
0
LINE
5
324
100
AcDbEntity
8
frame
6
ByLayer
62
256
370
-1
100
AcDbLine
10
419
20
144.7
11
419
21
140
0
ARC
5
325
100
AcDbEntity
8
frame
6
ByLayer
62
256
370
-1
100
AcDbCircle
10
420
20
144.7
40
1
100
AcDbArc
50
90
51
180
0
ARC
5
326
100
AcDbEntity
8
frame
6
ByLayer
62
256
370
-1
100
AcDbCircle
10
395
20
167.4
40
32.7835324515
100
AcDbArc
50
278.772737298
51
303.302284753
0
LINE
5
327
100
AcDbEntity
8
frame
6
ByLayer
62
256
370
-1
100
AcDbLine
10
428
20
140
11
450
21
139.999999998
0
ARC
5
328
100
AcDbEntity
8
motor mounts
6
ByLayer
62
256
370
-1
100
AcDbCircle
10
65
20
95
40
5
100
AcDbArc
50
90
51
180
0
LINE
5
329
100
AcDbEntity
8
motor mounts
6
ByLayer
62
256
370
-1
100
AcDbLine
10
60
20
95
11
60
21
85
0
ARC
5
32A
100
AcDbEntity
8
motor mounts
6
ByLayer
62
256
370
-1
100
AcDbCircle
10
65
20
85
40
5
100
AcDbArc
50
180
51
270
0
ARC
5
32B
100
AcDbEntity
8
motor mounts
6
ByLayer
62
256
370
-1
100
AcDbCircle
10
104
20
96
40
4
100
AcDbArc
50
0
51
90
0
LINE
5
32C
100
AcDbEntity
8
motor mounts
6
ByLayer
62
256
370
-1
100
AcDbLine
10
108
20
84
11
108
21
96
0
ARC
5
32D
100
AcDbEntity
8
motor mounts
6
ByLayer
62
256
370
-1
100
AcDbCircle
10
104
20
84
40
4
100
AcDbArc
50
270
51
0
0
LINE
5
32E
100
AcDbEntity
8
motor mount holes
6
ByLayer
62
256
370
-1
100
AcDbLine
10
65
20
92.85
11
65
21
87.15
0
LINE
5
32F
100
AcDbEntity
8
motor mount holes
6
ByLayer
62
256
370
-1
100
AcDbLine
10
65
20
92.85
11
75
21
92.85
0
LINE
5
330
100
AcDbEntity
8
motor mount holes
6
ByLayer
62
256
370
-1
100
AcDbLine
10
65
20
87.15
11
75
21
87.15
0
LINE
5
331
100
AcDbEntity
8
motor mount holes
6
ByLayer
62
256
370
-1
100
AcDbLine
10
75
20
87.15
11
75
21
92.85
0
LINE
5
332
100
AcDbEntity
8
motor mount holes
6
ByLayer
62
256
370
-1
100
AcDbLine
10
92
20
92.85
11
92
21
87.15
0
CIRCLE
5
333
100
AcDbEntity
8
motor mount holes
6
ByLayer
62
256
370
-1
100
AcDbCircle
10
85
20
90
40
4.5
0
LINE
5
334
100
AcDbEntity
8
motor mount holes
6
ByLayer
62
256
370
-1
100
AcDbLine
10
92
20
87.15
11
101
21
87.15
0
LINE
5
335
100
AcDbEntity
8
motor mount holes
6
ByLayer
62
256
370
-1
100
AcDbLine
10
92
20
92.85
11
101
21
92.85
0
CIRCLE
5
336
100
AcDbEntity
8
motor mount holes
6
ByLayer
62
256
370
-1
100
AcDbCircle
10
104
20
90
40
1.5
0
LINE
5
337
100
AcDbEntity
8
motor mount holes
6
ByLayer
62
256
370
-1
100
AcDbLine
10
101
20
92.85
11
101
21
87.15
0
ARC
5
338
100
AcDbEntity
8
motor mounts
6
ByLayer
62
256
370
-1
100
AcDbCircle
10
85
20
90
40
14
100
AcDbArc
50
45.5846914028
51
134.415308597
0
ARC
5
339
100
AcDbEntity
8
motor mounts
6
ByLayer
62
256
370
-1
100
AcDbCircle
10
85
20
90
40
14
100
AcDbArc
50
225.584691403
51
314.415308597
0
LINE
5
33A
100
AcDbEntity
8
motor mounts
6
ByLayer
62
256
370
-1
100
AcDbLine
10
65
20
100
11
75.2020410289
21
100
0
LINE
5
33B
100
AcDbEntity
8
motor mounts
6
ByLayer
62
256
370
-1
100
AcDbLine
10
75.2020410289
20
80
11
65
21
80
0
LINE
5
33C
100
AcDbEntity
8
motor mounts
6
ByLayer
62
256
370
-1
100
AcDbLine
10
94.7979589711
20
100
11
104
21
100
0
LINE
5
33D
100
AcDbEntity
8
motor mounts
6
ByLayer
62
256
370
-1
100
AcDbLine
10
94.7979589711
20
80
11
104
21
80
0
CIRCLE
5
33E
100
AcDbEntity
8
motor mount holes
6
ByLayer
62
256
370
-1
100
AcDbCircle
10
91.717514421
20
83.282485579
40
1.375
0
CIRCLE
5
33F
100
AcDbEntity
8
motor mount holes
6
ByLayer
62
256
370
-1
100
AcDbCircle
10
90.656854249
20
95.656854249
40
1.375
0
CIRCLE
5
340
100
AcDbEntity
8
motor mount holes
6
ByLayer
62
256
370
-1
100
AcDbCircle
10
78.282485579
20
96.717514421
40
1.375
0
CIRCLE
5
341
100
AcDbEntity
8
motor mount holes
6
ByLayer
62
256
370
-1
100
AcDbCircle
10
79.343145751
20
84.343145751
40
1.375
0
ARC
5
342
100
AcDbEntity
8
motor mounts
6
ByLayer
62
256
370
-1
100
AcDbCircle
10
355
20
95
40
5
100
AcDbArc
50
90
51
180
0
LINE
5
343
100
AcDbEntity
8
motor mounts
6
ByLayer
62
256
370
-1
100
AcDbLine
10
350
20
95
11
350
21
85
0
ARC
5
344
100
AcDbEntity
8
motor mounts
6
ByLayer
62
256
370
-1
100
AcDbCircle
10
355
20
85
40
5
100
AcDbArc
50
180
51
270
0
ARC
5
345
100
AcDbEntity
8
motor mounts
6
ByLayer
62
256
370
-1
100
AcDbCircle
10
394
20
96
40
4
100
AcDbArc
50
0
51
90
0
LINE
5
346
100
AcDbEntity
8
motor mounts
6
ByLayer
62
256
370
-1
100
AcDbLine
10
398
20
84
11
398
21
96
0
ARC
5
347
100
AcDbEntity
8
motor mounts
6
ByLayer
62
256
370
-1
100
AcDbCircle
10
394
20
84
40
4
100
AcDbArc
50
270
51
0
0
LINE
5
348
100
AcDbEntity
8
motor mount holes
6
ByLayer
62
256
370
-1
100
AcDbLine
10
355
20
92.85
11
355
21
87.15
0
LINE
5
349
100
AcDbEntity
8
motor mount holes
6
ByLayer
62
256
370
-1
100
AcDbLine
10
355
20
92.85
11
365
21
92.85
0
LINE
5
34A
100
AcDbEntity
8
motor mount holes
6
ByLayer
62
256
370
-1
100
AcDbLine
10
355
20
87.15
11
365
21
87.15
0
LINE
5
34B
100
AcDbEntity
8
motor mount holes
6
ByLayer
62
256
370
-1
100
AcDbLine
10
365
20
87.15
11
365
21
92.85
0
LINE
5
34C
100
AcDbEntity
8
motor mount holes
6
ByLayer
62
256
370
-1
100
AcDbLine
10
382
20
92.85
11
382
21
87.15
0
CIRCLE
5
34D
100
AcDbEntity
8
motor mount holes
6
ByLayer
62
256
370
-1
100
AcDbCircle
10
375
20
90
40
4.5
0
LINE
5
34E
100
AcDbEntity
8
motor mount holes
6
ByLayer
62
256
370
-1
100
AcDbLine
10
382
20
87.15
11
391
21
87.15
0
LINE
5
34F
100
AcDbEntity
8
motor mount holes
6
ByLayer
62
256
370
-1
100
AcDbLine
10
382
20
92.85
11
391
21
92.85
0
CIRCLE
5
350
100
AcDbEntity
8
motor mount holes
6
ByLayer
62
256
370
-1
100
AcDbCircle
10
394
20
90
40
1.5
0
LINE
5
351
100
AcDbEntity
8
motor mount holes
6
ByLayer
62
256
370
-1
100
AcDbLine
10
391
20
92.85
11
391
21
87.15
0
ARC
5
352
100
AcDbEntity
8
motor mounts
6
ByLayer
62
256
370
-1
100
AcDbCircle
10
375
20
90
40
14
100
AcDbArc
50
45.5846914028
51
134.415308597
0
ARC
5
353
100
AcDbEntity
8
motor mounts
6
ByLayer
62
256
370
-1
100
AcDbCircle
10
375
20
90
40
14
100
AcDbArc
50
225.584691403
51
314.415308597
0
LINE
5
354
100
AcDbEntity
8
motor mounts
6
ByLayer
62
256
370
-1
100
AcDbLine
10
355
20
100
11
365.202041029
21
100
0
LINE
5
355
100
AcDbEntity
8
motor mounts
6
ByLayer
62
256
370
-1
100
AcDbLine
10
365.202041029
20
80
11
355
21
80
0
LINE
5
356
100
AcDbEntity
8
motor mounts
6
ByLayer
62
256
370
-1
100
AcDbLine
10
384.797958971
20
100
11
394
21
100
0
LINE
5
357
100
AcDbEntity
8
motor mounts
6
ByLayer
62
256
370
-1
100
AcDbLine
10
384.797958971
20
80
11
394
21
80
0
CIRCLE
5
358
100
AcDbEntity
8
motor mount holes
6
ByLayer
62
256
370
-1
100
AcDbCircle
10
381.717514421
20
83.282485579
40
1.375
0
CIRCLE
5
359
100
AcDbEntity
8
motor mount holes
6
ByLayer
62
256
370
-1
100
AcDbCircle
10
380.656854249
20
95.656854249
40
1.375
0
CIRCLE
5
35A
100
AcDbEntity
8
motor mount holes
6
ByLayer
62
256
370
-1
100
AcDbCircle
10
368.282485579
20
96.717514421
40
1.375
0
CIRCLE
5
35B
100
AcDbEntity
8
motor mount holes
6
ByLayer
62
256
370
-1
100
AcDbCircle
10
369.343145751
20
84.343145751
40
1.375
0
ARC
5
35C
100
AcDbEntity
8
motor mounts
6
ByLayer
62
256
370
-1
100
AcDbCircle
10
355
20
25
40
5
100
AcDbArc
50
90
51
180
0
LINE
5
35D
100
AcDbEntity
8
motor mounts
6
ByLayer
62
256
370
-1
100
AcDbLine
10
350
20
25
11
350
21
15
0
ARC
5
35E
100
AcDbEntity
8
motor mounts
6
ByLayer
62
256
370
-1
100
AcDbCircle
10
355
20
15
40
5
100
AcDbArc
50
180
51
270
0
ARC
5
35F
100
AcDbEntity
8
motor mounts
6
ByLayer
62
256
370
-1
100
AcDbCircle
10
394
20
26
40
4
100
AcDbArc
50
0
51
90
0
LINE
5
360
100
AcDbEntity
8
motor mounts
6
ByLayer
62
256
370
-1
100
AcDbLine
10
398
20
14
11
398
21
26
0
ARC
5
361
100
AcDbEntity
8
motor mounts
6
ByLayer
62
256
370
-1
100
AcDbCircle
10
394
20
14
40
4
100
AcDbArc
50
270
51
0
0
LINE
5
362
100
AcDbEntity
8
motor mount holes
6
ByLayer
62
256
370
-1
100
AcDbLine
10
355
20
22.85
11
355
21
17.15
0
LINE
5
363
100
AcDbEntity
8
motor mount holes
6
ByLayer
62
256
370
-1
100
AcDbLine
10
355
20
22.85
11
365
21
22.85
0
LINE
5
364
100
AcDbEntity
8
motor mount holes
6
ByLayer
62
256
370
-1
100
AcDbLine
10
355
20
17.15
11
365
21
17.15
0
LINE
5
365
100
AcDbEntity
8
motor mount holes
6
ByLayer
62
256
370
-1
100
AcDbLine
10
365
20
17.15
11
365
21
22.85
0
LINE
5
366
100
AcDbEntity
8
motor mount holes
6
ByLayer
62
256
370
-1
100
AcDbLine
10
382
20
22.85
11
382
21
17.15
0
CIRCLE
5
367
100
AcDbEntity
8
motor mount holes
6
ByLayer
62
256
370
-1
100
AcDbCircle
10
375
20
20
40
4.5
0
LINE
5
368
100
AcDbEntity
8
motor mount holes
6
ByLayer
62
256
370
-1
100
AcDbLine
10
382
20
17.15
11
391
21
17.15
0
LINE
5
369
100
AcDbEntity
8
motor mount holes
6
ByLayer
62
256
370
-1
100
AcDbLine
10
382
20
22.85
11
391
21
22.85
0
CIRCLE
5
36A
100
AcDbEntity
8
motor mount holes
6
ByLayer
62
256
370
-1
100
AcDbCircle
10
394
20
20
40
1.5
0
LINE
5
36B
100
AcDbEntity
8
motor mount holes
6
ByLayer
62
256
370
-1
100
AcDbLine
10
391
20
22.85
11
391
21
17.15
0
ARC
5
36C
100
AcDbEntity
8
motor mounts
6
ByLayer
62
256
370
-1
100
AcDbCircle
10
375
20
20
40
14
100
AcDbArc
50
45.5846914028
51
134.415308597
0
ARC
5
36D
100
AcDbEntity
8
motor mounts
6
ByLayer
62
256
370
-1
100
AcDbCircle
10
375
20
20
40
14
100
AcDbArc
50
225.584691403
51
314.415308597
0
LINE
5
36E
100
AcDbEntity
8
motor mounts
6
ByLayer
62
256
370
-1
100
AcDbLine
10
355
20
30
11
365.202041029
21
30
0
LINE
5
36F
100
AcDbEntity
8
motor mounts
6
ByLayer
62
256
370
-1
100
AcDbLine
10
365.202041029
20
10
11
355
21
10
0
LINE
5
370
100
AcDbEntity
8
motor mounts
6
ByLayer
62
256
370
-1
100
AcDbLine
10
384.797958971
20
30
11
394
21
30
0
LINE
5
371
100
AcDbEntity
8
motor mounts
6
ByLayer
62
256
370
-1
100
AcDbLine
10
384.797958971
20
10
11
394
21
10
0
CIRCLE
5
372
100
AcDbEntity
8
motor mount holes
6
ByLayer
62
256
370
-1
100
AcDbCircle
10
381.717514421
20
13.282485579
40
1.375
0
CIRCLE
5
373
100
AcDbEntity
8
motor mount holes
6
ByLayer
62
256
370
-1
100
AcDbCircle
10
380.656854249
20
25.656854249
40
1.375
0
CIRCLE
5
374
100
AcDbEntity
8
motor mount holes
6
ByLayer
62
256
370
-1
100
AcDbCircle
10
368.282485579
20
26.717514421
40
1.375
0
CIRCLE
5
375
100
AcDbEntity
8
motor mount holes
6
ByLayer
62
256
370
-1
100
AcDbCircle
10
369.343145751
20
14.343145751
40
1.375
0
LINE
5
376
100
AcDbEntity
8
arm support
6
ByLayer
62
256
370
-1
100
AcDbLine
10
632.95
20
70
11
630
21
70
0
LINE
5
377
100
AcDbEntity
8
arm support
6
ByLayer
62
256
370
-1
100
AcDbLine
10
562.95
20
70
11
560
21
70
0
LINE
5
378
100
AcDbEntity
8
arm support
6
ByLayer
62
256
370
-1
100
AcDbLine
10
492.95
20
70
11
490
21
70
0
LINE
5
379
100
AcDbEntity
8
arm support
6
ByLayer
62
256
370
-1
100
AcDbLine
10
492.95
20
70
11
492.95
21
75.7
0
LINE
5
37A
100
AcDbEntity
8
arm support
6
ByLayer
62
256
370
-1
100
AcDbLine
10
490
20
70
11
490
21
75.7
0
LINE
5
37B
100
AcDbEntity
8
arm support
6
ByLayer
62
256
370
-1
100
AcDbLine
10
560
20
70
11
560
21
75.7
0
LINE
5
37C
100
AcDbEntity
8
arm support
6
ByLayer
62
256
370
-1
100
AcDbLine
10
562.95
20
70
11
562.95
21
75.7
0
LINE
5
37D
100
AcDbEntity
8
arm support
6
ByLayer
62
256
370
-1
100
AcDbLine
10
630
20
70
11
630
21
75.7
0
LINE
5
37E
100
AcDbEntity
8
arm support
6
ByLayer
62
256
370
-1
100
AcDbLine
10
632.95
20
70
11
632.95
21
75.7
0
LINE
5
37F
100
AcDbEntity
8
arm support
6
ByLayer
62
256
370
-1
100
AcDbLine
10
487.95
20
75.7
11
490
21
75.7
0
LINE
5
380
100
AcDbEntity
8
arm support
6
ByLayer
62
256
370
-1
100
AcDbLine
10
632.95
20
75.7
11
637.95
21
75.7
0
LINE
5
381
100
AcDbEntity
8
arm support
6
ByLayer
62
256
370
-1
100
AcDbLine
10
487.95
20
76.7
11
487.95
21
75.7
0
ARC
5
382
100
AcDbEntity
8
arm support
6
ByLayer
62
256
370
-1
100
AcDbCircle
10
491.95
20
76.7
40
4
100
AcDbArc
50
90
51
180
0
LINE
5
383
100
AcDbEntity
8
arm support
6
ByLayer
62
256
370
-1
100
AcDbLine
10
637.95
20
76.7
11
637.95
21
75.7
0
LINE
5
384
100
AcDbEntity
8
arm support
6
ByLayer
62
256
370
-1
100
AcDbLine
10
491.95
20
80.7
11
633.95
21
80.7
0
ARC
5
385
100
AcDbEntity
8
arm support
6
ByLayer
62
256
370
-1
100
AcDbCircle
10
633.95
20
76.7
40
4
100
AcDbArc
50
0
51
90
0
LINE
5
386
100
AcDbEntity
8
arm support
6
ByLayer
62
256
370
-1
100
AcDbLine
10
492.95
20
75.7
11
560
21
75.7
0
LINE
5
387
100
AcDbEntity
8
arm support
6
ByLayer
62
256
370
-1
100
AcDbLine
10
562.95
20
75.7
11
630
21
75.7
0
LINE
5
388
100
AcDbEntity
8
arm support
6
ByLayer
62
256
370
-1
100
AcDbLine
10
495.841398525
20
73.2780253612
11
498.791398525
21
73.2780253612
0
LINE
5
389
100
AcDbEntity
8
arm support
6
ByLayer
62
256
370
-1
100
AcDbLine
10
565.841398525
20
73.2780253612
11
568.791398525
21
73.2780253612
0
LINE
5
38A
100
AcDbEntity
8
arm support
6
ByLayer
62
256
370
-1
100
AcDbLine
10
635.841398525
20
73.2780253612
11
638.791398525
21
73.2780253612
0
LINE
5
38B
100
AcDbEntity
8
arm support
6
ByLayer
62
256
370
-1
100
AcDbLine
10
638.791398525
20
73.2780253612
11
638.791398525
21
67.5780253612
0
LINE
5
38C
100
AcDbEntity
8
arm support
6
ByLayer
62
256
370
-1
100
AcDbLine
10
635.841398525
20
73.2780253612
11
635.841398525
21
67.5780253612
0
LINE
5
38D
100
AcDbEntity
8
arm support
6
ByLayer
62
256
370
-1
100
AcDbLine
10
568.791398525
20
73.2780253612
11
568.791398525
21
67.5780253612
0
LINE
5
38E
100
AcDbEntity
8
arm support
6
ByLayer
62
256
370
-1
100
AcDbLine
10
565.841398525
20
73.2780253612
11
565.841398525
21
67.5780253612
0
LINE
5
38F
100
AcDbEntity
8
arm support
6
ByLayer
62
256
370
-1
100
AcDbLine
10
498.791398525
20
73.2780253612
11
498.791398525
21
67.5780253612
0
LINE
5
390
100
AcDbEntity
8
arm support
6
ByLayer
62
256
370
-1
100
AcDbLine
10
495.841398525
20
73.2780253612
11
495.841398525
21
67.5780253612
0
LINE
5
391
100
AcDbEntity
8
arm support
6
ByLayer
62
256
370
-1
100
AcDbLine
10
490.841398525
20
67.5780253612
11
495.841398525
21
67.5780253612
0
LINE
5
392
100
AcDbEntity
8
arm support
6
ByLayer
62
256
370
-1
100
AcDbLine
10
638.791398525
20
67.5780253612
11
640.841398525
21
67.5780253612
0
LINE
5
393
100
AcDbEntity
8
arm support
6
ByLayer
62
256
370
-1
100
AcDbLine
10
490.841398525
20
66.5780253612
11
490.841398525
21
67.5780253612
0
ARC
5
394
100
AcDbEntity
8
arm support
6
ByLayer
62
256
370
-1
100
AcDbCircle
10
494.841398525
20
66.5780253612
40
4
100
AcDbArc
50
180
51
270
0
LINE
5
395
100
AcDbEntity
8
arm support
6
ByLayer
62
256
370
-1
100
AcDbLine
10
494.841398525
20
62.5780253612
11
636.841398525
21
62.5780253612
0
LINE
5
396
100
AcDbEntity
8
arm support
6
ByLayer
62
256
370
-1
100
AcDbLine
10
640.841398525
20
66.5780253612
11
640.841398525
21
67.5780253612
0
ARC
5
397
100
AcDbEntity
8
arm support
6
ByLayer
62
256
370
-1
100
AcDbCircle
10
636.841398525
20
66.5780253612
40
4
100
AcDbArc
50
270
51
0
0
LINE
5
398
100
AcDbEntity
8
arm support
6
ByLayer
62
256
370
-1
100
AcDbLine
10
498.791398525
20
67.5780253612
11
565.841398525
21
67.5780253612
0
LINE
5
399
100
AcDbEntity
8
arm support
6
ByLayer
62
256
370
-1
100
AcDbLine
10
568.791398525
20
67.5780253612
11
635.841398525
21
67.5780253612
0
LINE
5
39A
100
AcDbEntity
8
arm support
6
ByLayer
62
256
370
-1
100
AcDbLine
10
632.95
20
50
11
630
21
50
0
LINE
5
39B
100
AcDbEntity
8
arm support
6
ByLayer
62
256
370
-1
100
AcDbLine
10
562.95
20
50
11
560
21
50
0
LINE
5
39C
100
AcDbEntity
8
arm support
6
ByLayer
62
256
370
-1
100
AcDbLine
10
492.95
20
50
11
490
21
50
0
LINE
5
39D
100
AcDbEntity
8
arm support
6
ByLayer
62
256
370
-1
100
AcDbLine
10
492.95
20
50
11
492.95
21
55.7
0
LINE
5
39E
100
AcDbEntity
8
arm support
6
ByLayer
62
256
370
-1
100
AcDbLine
10
490
20
50
11
490
21
55.7
0
LINE
5
39F
100
AcDbEntity
8
arm support
6
ByLayer
62
256
370
-1
100
AcDbLine
10
560
20
50
11
560
21
55.7
0
LINE
5
3A0
100
AcDbEntity
8
arm support
6
ByLayer
62
256
370
-1
100
AcDbLine
10
562.95
20
50
11
562.95
21
55.7
0
LINE
5
3A1
100
AcDbEntity
8
arm support
6
ByLayer
62
256
370
-1
100
AcDbLine
10
630
20
50
11
630
21
55.7
0
LINE
5
3A2
100
AcDbEntity
8
arm support
6
ByLayer
62
256
370
-1
100
AcDbLine
10
632.95
20
50
11
632.95
21
55.7
0
LINE
5
3A3
100
AcDbEntity
8
arm support
6
ByLayer
62
256
370
-1
100
AcDbLine
10
487.95
20
55.7
11
490
21
55.7
0
LINE
5
3A4
100
AcDbEntity
8
arm support
6
ByLayer
62
256
370
-1
100
AcDbLine
10
632.95
20
55.7
11
637.95
21
55.7
0
LINE
5
3A5
100
AcDbEntity
8
arm support
6
ByLayer
62
256
370
-1
100
AcDbLine
10
487.95
20
56.7
11
487.95
21
55.7
0
ARC
5
3A6
100
AcDbEntity
8
arm support
6
ByLayer
62
256
370
-1
100
AcDbCircle
10
491.95
20
56.7
40
4
100
AcDbArc
50
90
51
180
0
LINE
5
3A7
100
AcDbEntity
8
arm support
6
ByLayer
62
256
370
-1
100
AcDbLine
10
637.95
20
56.7
11
637.95
21
55.7
0
LINE
5
3A8
100
AcDbEntity
8
arm support
6
ByLayer
62
256
370
-1
100
AcDbLine
10
491.95
20
60.7
11
633.95
21
60.7
0
ARC
5
3A9
100
AcDbEntity
8
arm support
6
ByLayer
62
256
370
-1
100
AcDbCircle
10
633.95
20
56.7
40
4
100
AcDbArc
50
0
51
90
0
LINE
5
3AA
100
AcDbEntity
8
arm support
6
ByLayer
62
256
370
-1
100
AcDbLine
10
492.95
20
55.7
11
560
21
55.7
0
LINE
5
3AB
100
AcDbEntity
8
arm support
6
ByLayer
62
256
370
-1
100
AcDbLine
10
562.95
20
55.7
11
630
21
55.7
0
LINE
5
3AC
100
AcDbEntity
8
arm support
6
ByLayer
62
256
370
-1
100
AcDbLine
10
495.841398525
20
53.2780253612
11
498.791398525
21
53.2780253612
0
LINE
5
3AD
100
AcDbEntity
8
arm support
6
ByLayer
62
256
370
-1
100
AcDbLine
10
565.841398525
20
53.2780253612
11
568.791398525
21
53.2780253612
0
LINE
5
3AE
100
AcDbEntity
8
arm support
6
ByLayer
62
256
370
-1
100
AcDbLine
10
635.841398525
20
53.2780253612
11
638.791398525
21
53.2780253612
0
LINE
5
3AF
100
AcDbEntity
8
arm support
6
ByLayer
62
256
370
-1
100
AcDbLine
10
638.791398525
20
53.2780253612
11
638.791398525
21
47.5780253612
0
LINE
5
3B0
100
AcDbEntity
8
arm support
6
ByLayer
62
256
370
-1
100
AcDbLine
10
635.841398525
20
53.2780253612
11
635.841398525
21
47.5780253612
0
LINE
5
3B1
100
AcDbEntity
8
arm support
6
ByLayer
62
256
370
-1
100
AcDbLine
10
568.791398525
20
53.2780253612
11
568.791398525
21
47.5780253612
0
LINE
5
3B2
100
AcDbEntity
8
arm support
6
ByLayer
62
256
370
-1
100
AcDbLine
10
565.841398525
20
53.2780253612
11
565.841398525
21
47.5780253612
0
LINE
5
3B3
100
AcDbEntity
8
arm support
6
ByLayer
62
256
370
-1
100
AcDbLine
10
498.791398525
20
53.2780253612
11
498.791398525
21
47.5780253612
0
LINE
5
3B4
100
AcDbEntity
8
arm support
6
ByLayer
62
256
370
-1
100
AcDbLine
10
495.841398525
20
53.2780253612
11
495.841398525
21
47.5780253612
0
LINE
5
3B5
100
AcDbEntity
8
arm support
6
ByLayer
62
256
370
-1
100
AcDbLine
10
490.841398525
20
47.5780253612
11
495.841398525
21
47.5780253612
0
LINE
5
3B6
100
AcDbEntity
8
arm support
6
ByLayer
62
256
370
-1
100
AcDbLine
10
638.791398525
20
47.5780253612
11
640.841398525
21
47.5780253612
0
LINE
5
3B7
100
AcDbEntity
8
arm support
6
ByLayer
62
256
370
-1
100
AcDbLine
10
490.841398525
20
46.5780253612
11
490.841398525
21
47.5780253612
0
ARC
5
3B8
100
AcDbEntity
8
arm support
6
ByLayer
62
256
370
-1
100
AcDbCircle
10
494.841398525
20
46.5780253612
40
4
100
AcDbArc
50
180
51
270
0
LINE
5
3B9
100
AcDbEntity
8
arm support
6
ByLayer
62
256
370
-1
100
AcDbLine
10
494.841398525
20
42.5780253612
11
636.841398525
21
42.5780253612
0
LINE
5
3BA
100
AcDbEntity
8
arm support
6
ByLayer
62
256
370
-1
100
AcDbLine
10
640.841398525
20
46.5780253612
11
640.841398525
21
47.5780253612
0
ARC
5
3BB
100
AcDbEntity
8
arm support
6
ByLayer
62
256
370
-1
100
AcDbCircle
10
636.841398525
20
46.5780253612
40
4
100
AcDbArc
50
270
51
0
0
LINE
5
3BC
100
AcDbEntity
8
arm support
6
ByLayer
62
256
370
-1
100
AcDbLine
10
498.791398525
20
47.5780253612
11
565.841398525
21
47.5780253612
0
LINE
5
3BD
100
AcDbEntity
8
arm support
6
ByLayer
62
256
370
-1
100
AcDbLine
10
568.791398525
20
47.5780253612
11
635.841398525
21
47.5780253612
0
LINE
5
3BE
100
AcDbEntity
8
arm support
6
ByLayer
62
256
370
-1
100
AcDbLine
10
632.95
20
30
11
630
21
30
0
LINE
5
3BF
100
AcDbEntity
8
arm support
6
ByLayer
62
256
370
-1
100
AcDbLine
10
562.95
20
30
11
560
21
30
0
LINE
5
3C0
100
AcDbEntity
8
arm support
6
ByLayer
62
256
370
-1
100
AcDbLine
10
492.95
20
30
11
490
21
30
0
LINE
5
3C1
100
AcDbEntity
8
arm support
6
ByLayer
62
256
370
-1
100
AcDbLine
10
492.95
20
30
11
492.95
21
35.7
0
LINE
5
3C2
100
AcDbEntity
8
arm support
6
ByLayer
62
256
370
-1
100
AcDbLine
10
490
20
30
11
490
21
35.7
0
LINE
5
3C3
100
AcDbEntity
8
arm support
6
ByLayer
62
256
370
-1
100
AcDbLine
10
560
20
30
11
560
21
35.7
0
LINE
5
3C4
100
AcDbEntity
8
arm support
6
ByLayer
62
256
370
-1
100
AcDbLine
10
562.95
20
30
11
562.95
21
35.7
0
LINE
5
3C5
100
AcDbEntity
8
arm support
6
ByLayer
62
256
370
-1
100
AcDbLine
10
630
20
30
11
630
21
35.7
0
LINE
5
3C6
100
AcDbEntity
8
arm support
6
ByLayer
62
256
370
-1
100
AcDbLine
10
632.95
20
30
11
632.95
21
35.7
0
LINE
5
3C7
100
AcDbEntity
8
arm support
6
ByLayer
62
256
370
-1
100
AcDbLine
10
487.95
20
35.7
11
490
21
35.7
0
LINE
5
3C8
100
AcDbEntity
8
arm support
6
ByLayer
62
256
370
-1
100
AcDbLine
10
632.95
20
35.7
11
637.95
21
35.7
0
LINE
5
3C9
100
AcDbEntity
8
arm support
6
ByLayer
62
256
370
-1
100
AcDbLine
10
487.95
20
36.7
11
487.95
21
35.7
0
ARC
5
3CA
100
AcDbEntity
8
arm support
6
ByLayer
62
256
370
-1
100
AcDbCircle
10
491.95
20
36.7
40
4
100
AcDbArc
50
90
51
180
0
LINE
5
3CB
100
AcDbEntity
8
arm support
6
ByLayer
62
256
370
-1
100
AcDbLine
10
637.95
20
36.7
11
637.95
21
35.7
0
LINE
5
3CC
100
AcDbEntity
8
arm support
6
ByLayer
62
256
370
-1
100
AcDbLine
10
491.95
20
40.7
11
633.95
21
40.7
0
ARC
5
3CD
100
AcDbEntity
8
arm support
6
ByLayer
62
256
370
-1
100
AcDbCircle
10
633.95
20
36.7
40
4
100
AcDbArc
50
0
51
90
0
LINE
5
3CE
100
AcDbEntity
8
arm support
6
ByLayer
62
256
370
-1
100
AcDbLine
10
492.95
20
35.7
11
560
21
35.7
0
LINE
5
3CF
100
AcDbEntity
8
arm support
6
ByLayer
62
256
370
-1
100
AcDbLine
10
562.95
20
35.7
11
630
21
35.7
0
LINE
5
3D0
100
AcDbEntity
8
arm support
6
ByLayer
62
256
370
-1
100
AcDbLine
10
495.841398525
20
33.2780253612
11
498.791398525
21
33.2780253612
0
LINE
5
3D1
100
AcDbEntity
8
arm support
6
ByLayer
62
256
370
-1
100
AcDbLine
10
565.841398525
20
33.2780253612
11
568.791398525
21
33.2780253612
0
LINE
5
3D2
100
AcDbEntity
8
arm support
6
ByLayer
62
256
370
-1
100
AcDbLine
10
635.841398525
20
33.2780253612
11
638.791398525
21
33.2780253612
0
LINE
5
3D3
100
AcDbEntity
8
arm support
6
ByLayer
62
256
370
-1
100
AcDbLine
10
638.791398525
20
33.2780253612
11
638.791398525
21
27.5780253612
0
LINE
5
3D4
100
AcDbEntity
8
arm support
6
ByLayer
62
256
370
-1
100
AcDbLine
10
635.841398525
20
33.2780253612
11
635.841398525
21
27.5780253612
0
LINE
5
3D5
100
AcDbEntity
8
arm support
6
ByLayer
62
256
370
-1
100
AcDbLine
10
568.791398525
20
33.2780253612
11
568.791398525
21
27.5780253612
0
LINE
5
3D6
100
AcDbEntity
8
arm support
6
ByLayer
62
256
370
-1
100
AcDbLine
10
565.841398525
20
33.2780253612
11
565.841398525
21
27.5780253612
0
LINE
5
3D7
100
AcDbEntity
8
arm support
6
ByLayer
62
256
370
-1
100
AcDbLine
10
498.791398525
20
33.2780253612
11
498.791398525
21
27.5780253612
0
LINE
5
3D8
100
AcDbEntity
8
arm support
6
ByLayer
62
256
370
-1
100
AcDbLine
10
495.841398525
20
33.2780253612
11
495.841398525
21
27.5780253612
0
LINE
5
3D9
100
AcDbEntity
8
arm support
6
ByLayer
62
256
370
-1
100
AcDbLine
10
490.841398525
20
27.5780253612
11
495.841398525
21
27.5780253612
0
LINE
5
3DA
100
AcDbEntity
8
arm support
6
ByLayer
62
256
370
-1
100
AcDbLine
10
638.791398525
20
27.5780253612
11
640.841398525
21
27.5780253612
0
LINE
5
3DB
100
AcDbEntity
8
arm support
6
ByLayer
62
256
370
-1
100
AcDbLine
10
490.841398525
20
26.5780253612
11
490.841398525
21
27.5780253612
0
ARC
5
3DC
100
AcDbEntity
8
arm support
6
ByLayer
62
256
370
-1
100
AcDbCircle
10
494.841398525
20
26.5780253612
40
4
100
AcDbArc
50
180
51
270
0
LINE
5
3DD
100
AcDbEntity
8
arm support
6
ByLayer
62
256
370
-1
100
AcDbLine
10
494.841398525
20
22.5780253612
11
636.841398525
21
22.5780253612
0
LINE
5
3DE
100
AcDbEntity
8
arm support
6
ByLayer
62
256
370
-1
100
AcDbLine
10
640.841398525
20
26.5780253612
11
640.841398525
21
27.5780253612
0
ARC
5
3DF
100
AcDbEntity
8
arm support
6
ByLayer
62
256
370
-1
100
AcDbCircle
10
636.841398525
20
26.5780253612
40
4
100
AcDbArc
50
270
51
0
0
LINE
5
3E0
100
AcDbEntity
8
arm support
6
ByLayer
62
256
370
-1
100
AcDbLine
10
498.791398525
20
27.5780253612
11
565.841398525
21
27.5780253612
0
LINE
5
3E1
100
AcDbEntity
8
arm support
6
ByLayer
62
256
370
-1
100
AcDbLine
10
568.791398525
20
27.5780253612
11
635.841398525
21
27.5780253612
0
LINE
5
3E2
100
AcDbEntity
8
arm support
6
ByLayer
62
256
370
-1
100
AcDbLine
10
632.95
20
10
11
630
21
10
0
LINE
5
3E3
100
AcDbEntity
8
arm support
6
ByLayer
62
256
370
-1
100
AcDbLine
10
562.95
20
10
11
560
21
10
0
LINE
5
3E4
100
AcDbEntity
8
arm support
6
ByLayer
62
256
370
-1
100
AcDbLine
10
492.95
20
10
11
490
21
10
0
LINE
5
3E5
100
AcDbEntity
8
arm support
6
ByLayer
62
256
370
-1
100
AcDbLine
10
492.95
20
10
11
492.95
21
15.7
0
LINE
5
3E6
100
AcDbEntity
8
arm support
6
ByLayer
62
256
370
-1
100
AcDbLine
10
490
20
10
11
490
21
15.7
0
LINE
5
3E7
100
AcDbEntity
8
arm support
6
ByLayer
62
256
370
-1
100
AcDbLine
10
560
20
10
11
560
21
15.7
0
LINE
5
3E8
100
AcDbEntity
8
arm support
6
ByLayer
62
256
370
-1
100
AcDbLine
10
562.95
20
10
11
562.95
21
15.7
0
LINE
5
3E9
100
AcDbEntity
8
arm support
6
ByLayer
62
256
370
-1
100
AcDbLine
10
630
20
10
11
630
21
15.7
0
LINE
5
3EA
100
AcDbEntity
8
arm support
6
ByLayer
62
256
370
-1
100
AcDbLine
10
632.95
20
10
11
632.95
21
15.7
0
LINE
5
3EB
100
AcDbEntity
8
arm support
6
ByLayer
62
256
370
-1
100
AcDbLine
10
487.95
20
15.7
11
490
21
15.7
0
LINE
5
3EC
100
AcDbEntity
8
arm support
6
ByLayer
62
256
370
-1
100
AcDbLine
10
632.95
20
15.7
11
637.95
21
15.7
0
LINE
5
3ED
100
AcDbEntity
8
arm support
6
ByLayer
62
256
370
-1
100
AcDbLine
10
487.95
20
16.7
11
487.95
21
15.7
0
ARC
5
3EE
100
AcDbEntity
8
arm support
6
ByLayer
62
256
370
-1
100
AcDbCircle
10
491.95
20
16.7
40
4
100
AcDbArc
50
90
51
180
0
LINE
5
3EF
100
AcDbEntity
8
arm support
6
ByLayer
62
256
370
-1
100
AcDbLine
10
637.95
20
16.7
11
637.95
21
15.7
0
LINE
5
3F0
100
AcDbEntity
8
arm support
6
ByLayer
62
256
370
-1
100
AcDbLine
10
491.95
20
20.7
11
633.95
21
20.7
0
ARC
5
3F1
100
AcDbEntity
8
arm support
6
ByLayer
62
256
370
-1
100
AcDbCircle
10
633.95
20
16.7
40
4
100
AcDbArc
50
0
51
90
0
LINE
5
3F2
100
AcDbEntity
8
arm support
6
ByLayer
62
256
370
-1
100
AcDbLine
10
492.95
20
15.7
11
560
21
15.7
0
LINE
5
3F3
100
AcDbEntity
8
arm support
6
ByLayer
62
256
370
-1
100
AcDbLine
10
562.95
20
15.7
11
630
21
15.7
0
LINE
5
3F4
100
AcDbEntity
8
arm support
6
ByLayer
62
256
370
-1
100
AcDbLine
10
495.841398525
20
13.2780253612
11
498.791398525
21
13.2780253612
0
LINE
5
3F5
100
AcDbEntity
8
arm support
6
ByLayer
62
256
370
-1
100
AcDbLine
10
565.841398525
20
13.2780253612
11
568.791398525
21
13.2780253612
0
LINE
5
3F6
100
AcDbEntity
8
arm support
6
ByLayer
62
256
370
-1
100
AcDbLine
10
635.841398525
20
13.2780253612
11
638.791398525
21
13.2780253612
0
LINE
5
3F7
100
AcDbEntity
8
arm support
6
ByLayer
62
256
370
-1
100
AcDbLine
10
638.791398525
20
13.2780253612
11
638.791398525
21
7.57802536121
0
LINE
5
3F8
100
AcDbEntity
8
arm support
6
ByLayer
62
256
370
-1
100
AcDbLine
10
635.841398525
20
13.2780253612
11
635.841398525
21
7.57802536121
0
LINE
5
3F9
100
AcDbEntity
8
arm support
6
ByLayer
62
256
370
-1
100
AcDbLine
10
568.791398525
20
13.2780253612
11
568.791398525
21
7.57802536121
0
LINE
5
3FA
100
AcDbEntity
8
arm support
6
ByLayer
62
256
370
-1
100
AcDbLine
10
565.841398525
20
13.2780253612
11
565.841398525
21
7.57802536121
0
LINE
5
3FB
100
AcDbEntity
8
arm support
6
ByLayer
62
256
370
-1
100
AcDbLine
10
498.791398525
20
13.2780253612
11
498.791398525
21
7.57802536121
0
LINE
5
3FC
100
AcDbEntity
8
arm support
6
ByLayer
62
256
370
-1
100
AcDbLine
10
495.841398525
20
13.2780253612
11
495.841398525
21
7.57802536121
0
LINE
5
3FD
100
AcDbEntity
8
arm support
6
ByLayer
62
256
370
-1
100
AcDbLine
10
490.841398525
20
7.57802536121
11
495.841398525
21
7.57802536121
0
LINE
5
3FE
100
AcDbEntity
8
arm support
6
ByLayer
62
256
370
-1
100
AcDbLine
10
638.791398525
20
7.57802536121
11
640.841398525
21
7.57802536121
0
LINE
5
3FF
100
AcDbEntity
8
arm support
6
ByLayer
62
256
370
-1
100
AcDbLine
10
490.841398525
20
6.57802536121
11
490.841398525
21
7.57802536121
0
ARC
5
400
100
AcDbEntity
8
arm support
6
ByLayer
62
256
370
-1
100
AcDbCircle
10
494.841398525
20
6.57802536121
40
4
100
AcDbArc
50
180
51
270
0
LINE
5
401
100
AcDbEntity
8
arm support
6
ByLayer
62
256
370
-1
100
AcDbLine
10
494.841398525
20
2.57802536121
11
636.841398525
21
2.57802536121
0
LINE
5
402
100
AcDbEntity
8
arm support
6
ByLayer
62
256
370
-1
100
AcDbLine
10
640.841398525
20
6.57802536121
11
640.841398525
21
7.57802536121
0
ARC
5
403
100
AcDbEntity
8
arm support
6
ByLayer
62
256
370
-1
100
AcDbCircle
10
636.841398525
20
6.57802536121
40
4
100
AcDbArc
50
270
51
0
0
LINE
5
404
100
AcDbEntity
8
arm support
6
ByLayer
62
256
370
-1
100
AcDbLine
10
498.791398525
20
7.57802536121
11
565.841398525
21
7.57802536121
0
LINE
5
405
100
AcDbEntity
8
arm support
6
ByLayer
62
256
370
-1
100
AcDbLine
10
568.791398525
20
7.57802536121
11
635.841398525
21
7.57802536121
0
LINE
5
406
100
AcDbEntity
8
frame
6
ByLayer
62
256
370
-1
100
AcDbLine
10
227.05
20
138.5
11
232.95
21
138.5
0
LINE
5
407
100
AcDbEntity
8
frame
6
ByLayer
62
256
370
-1
100
AcDbLine
10
232.95
20
140
11
232.95
21
138.5
0
LINE
5
408
100
AcDbEntity
8
frame
6
ByLayer
62
256
370
-1
100
AcDbLine
10
227.05
20
140
11
227.05
21
138.5
0
LINE
5
409
100
AcDbEntity
8
frame
6
ByLayer
62
256
370
-1
100
AcDbLine
10
220
20
140
11
227.05
21
140
0
LINE
5
40A
100
AcDbEntity
8
frame
6
ByLayer
62
256
370
-1
100
AcDbLine
10
232.95
20
140
11
240
21
140
0
LINE
5
40B
100
AcDbEntity
8
frame
6
ByLayer
62
256
370
-1
100
AcDbLine
10
227.05
20
125
11
227.05
21
132.5
0
LINE
5
40C
100
AcDbEntity
8
frame
6
ByLayer
62
256
370
-1
100
AcDbLine
10
232.95
20
125
11
232.95
21
132.5
0
CIRCLE
5
40D
100
AcDbEntity
8
top plate
6
ByLayer
62
256
370
-1
100
AcDbCircle
10
59.75
20
270.25
40
1.5
0
CIRCLE
5
40E
100
AcDbEntity
8
top plate
6
ByLayer
62
256
370
-1
100
AcDbCircle
10
90.25
20
270.25
40
1.5
0
CIRCLE
5
40F
100
AcDbEntity
8
top plate
6
ByLayer
62
256
370
-1
100
AcDbCircle
10
90.25
20
239.75
40
1.5
0
CIRCLE
5
410
100
AcDbEntity
8
top plate
6
ByLayer
62
256
370
-1
100
AcDbCircle
10
59.75
20
239.75
40
1.5
0
LINE
5
411
100
AcDbEntity
8
top plate
6
ByLayer
62
256
370
-1
100
AcDbLine
10
86.3609127033
20
270.391421356
11
90.391421356
21
266.360912704
0
LINE
5
412
100
AcDbEntity
8
top plate
6
ByLayer
62
256
370
-1
100
AcDbLine
10
90.1085786436
20
274.139087297
11
94.1390872963
21
270.108578644
0
LINE
5
413
100
AcDbEntity
8
top plate
6
ByLayer
62
256
370
-1
100
AcDbLine
10
86.3609127033
20
270.391421356
11
80.0558134848
21
264.086322138
0
LINE
5
414
100
AcDbEntity
8
top plate
6
ByLayer
62
256
370
-1
100
AcDbLine
10
90.391421356
20
266.360912704
11
84.0863221375
21
260.055813485
0
LINE
5
415
100
AcDbEntity
8
top plate
6
ByLayer
62
256
370
-1
100
AcDbLine
10
93.6109127032
20
277.641421356
11
90.1085786437
21
274.139087297
0
LINE
5
416
100
AcDbEntity
8
top plate
6
ByLayer
62
256
370
-1
100
AcDbLine
10
97.641421356
20
273.610912704
11
94.1390872962
21
270.108578644
0
LINE
5
417
100
AcDbEntity
8
top plate
6
ByLayer
62
256
370
-1
100
AcDbLine
10
69.944186515
20
264.086322138
11
65.913677862
21
260.055813485
0
LINE
5
418
100
AcDbEntity
8
top plate
6
ByLayer
62
256
370
-1
100
AcDbLine
10
52.358578644
20
273.610912703
11
56.389087296
21
277.641421356
0
LINE
5
419
100
AcDbEntity
8
top plate
6
ByLayer
62
256
370
-1
100
AcDbLine
10
59.6085786436
20
266.360912703
11
63.6390872963
21
270.391421356
0
LINE
5
41A
100
AcDbEntity
8
top plate
6
ByLayer
62
256
370
-1
100
AcDbLine
10
55.8609127033
20
270.108578644
11
59.891421356
21
274.139087296
0
LINE
5
41B
100
AcDbEntity
8
top plate
6
ByLayer
62
256
370
-1
100
AcDbLine
10
59.6085786436
20
266.360912703
11
65.913677862
21
260.055813485
0
LINE
5
41C
100
AcDbEntity
8
top plate
6
ByLayer
62
256
370
-1
100
AcDbLine
10
63.6390872963
20
270.391421356
11
69.944186515
21
264.086322138
0
LINE
5
41D
100
AcDbEntity
8
top plate
6
ByLayer
62
256
370
-1
100
AcDbLine
10
52.358578644
20
273.610912703
11
55.8609127034
21
270.108578644
0
LINE
5
41E
100
AcDbEntity
8
top plate
6
ByLayer
62
256
370
-1
100
AcDbLine
10
56.389087296
20
277.641421356
11
59.8914213559
21
274.139087296
0
LINE
5
41F
100
AcDbEntity
8
top plate
6
ByLayer
62
256
370
-1
100
AcDbLine
10
65.9136778625
20
249.944186515
11
69.9441865152
21
245.913677862
0
LINE
5
420
100
AcDbEntity
8
top plate
6
ByLayer
62
256
370
-1
100
AcDbLine
10
56.3890872968
20
232.358578644
11
52.358578644
21
236.389087296
0
LINE
5
421
100
AcDbEntity
8
top plate
6
ByLayer
62
256
370
-1
100
AcDbLine
10
63.6390872967
20
239.608578644
11
59.608578644
21
243.639087296
0
LINE
5
422
100
AcDbEntity
8
top plate
6
ByLayer
62
256
370
-1
100
AcDbLine
10
59.8914213564
20
235.860912703
11
55.8609127037
21
239.891421356
0
LINE
5
423
100
AcDbEntity
8
top plate
6
ByLayer
62
256
370
-1
100
AcDbLine
10
63.6390872967
20
239.608578644
11
69.9441865152
21
245.913677862
0
LINE
5
424
100
AcDbEntity
8
top plate
6
ByLayer
62
256
370
-1
100
AcDbLine
10
59.608578644
20
243.639087296
11
65.9136778625
21
249.944186515
0
LINE
5
425
100
AcDbEntity
8
top plate
6
ByLayer
62
256
370
-1
100
AcDbLine
10
56.3890872968
20
232.358578644
11
59.8914213563
21
235.860912703
0
LINE
5
426
100
AcDbEntity
8
top plate
6
ByLayer
62
256
370
-1
100
AcDbLine
10
52.358578644
20
236.389087296
11
55.8609127038
21
239.891421356
0
LINE
5
427
100
AcDbEntity
8
top plate
6
ByLayer
62
256
370
-1
100
AcDbLine
10
80.055813485
20
245.913677862
11
84.086322138
21
249.944186515
0
LINE
5
428
100
AcDbEntity
8
top plate
6
ByLayer
62
256
370
-1
100
AcDbLine
10
97.641421356
20
236.389087297
11
93.610912704
21
232.358578644
0
LINE
5
429
100
AcDbEntity
8
top plate
6
ByLayer
62
256
370
-1
100
AcDbLine
10
90.3914213564
20
243.639087297
11
86.3609127037
21
239.608578644
0
LINE
5
42A
100
AcDbEntity
8
top plate
6
ByLayer
62
256
370
-1
100
AcDbLine
10
94.1390872967
20
239.891421356
11
90.108578644
21
235.860912704
0
LINE
5
42B
100
AcDbEntity
8
top plate
6
ByLayer
62
256
370
-1
100
AcDbLine
10
90.3914213564
20
243.639087297
11
84.086322138
21
249.944186515
0
LINE
5
42C
100
AcDbEntity
8
top plate
6
ByLayer
62
256
370
-1
100
AcDbLine
10
86.3609127037
20
239.608578644
11
80.055813485
21
245.913677862
0
LINE
5
42D
100
AcDbEntity
8
top plate
6
ByLayer
62
256
370
-1
100
AcDbLine
10
97.641421356
20
236.389087297
11
94.1390872966
21
239.891421356
0
LINE
5
42E
100
AcDbEntity
8
top plate
6
ByLayer
62
256
370
-1
100
AcDbLine
10
93.610912704
20
232.358578644
11
90.1085786441
21
235.860912704
0
LINE
5
42F
100
AcDbEntity
8
frame
6
ByLayer
62
256
370
-1
100
AcDbLine
10
205.783244847
20
143.05
11
205.783244847
21
137
0
LINE
5
430
100
AcDbEntity
8
frame
6
ByLayer
62
256
370
-1
100
AcDbLine
10
211.083244847
20
143.05
11
211.083244847
21
137
0
LINE
5
431
100
AcDbEntity
8
frame
6
ByLayer
62
256
370
-1
100
AcDbLine
10
205.783244847
20
137
11
211.083244847
21
137
0
LINE
5
432
100
AcDbEntity
8
frame
6
ByLayer
62
256
370
-1
100
AcDbLine
10
200.830194847
20
143.05
11
205.783244847
21
143.05
0
LINE
5
433
100
AcDbEntity
8
frame
6
ByLayer
62
256
370
-1
100
AcDbLine
10
211.083244847
20
143.05
11
220
21
143.05
0
LINE
5
434
100
AcDbEntity
8
frame
6
ByLayer
62
256
370
-1
100
AcDbLine
10
254.216755153
20
143.05
11
254.216755153
21
137
0
LINE
5
435
100
AcDbEntity
8
frame
6
ByLayer
62
256
370
-1
100
AcDbLine
10
248.916755153
20
143.05
11
248.916755153
21
137
0
LINE
5
436
100
AcDbEntity
8
frame
6
ByLayer
62
256
370
-1
100
AcDbLine
10
254.216755153
20
137
11
248.916755153
21
137
0
LINE
5
437
100
AcDbEntity
8
frame
6
ByLayer
62
256
370
-1
100
AcDbLine
10
259.169805153
20
143.05
11
254.216755153
21
143.05
0
LINE
5
438
100
AcDbEntity
8
frame
6
ByLayer
62
256
370
-1
100
AcDbLine
10
248.916755153
20
143.05
11
240
21
143.05
0
LINE
5
439
100
AcDbEntity
8
frame
6
ByLayer
62
256
370
-1
100
AcDbLine
10
205.783244847
20
73.05
11
205.783244847
21
67
0
LINE
5
43A
100
AcDbEntity
8
frame
6
ByLayer
62
256
370
-1
100
AcDbLine
10
211.083244847
20
73.05
11
211.083244847
21
67
0
LINE
5
43B
100
AcDbEntity
8
frame
6
ByLayer
62
256
370
-1
100
AcDbLine
10
205.783244847
20
67
11
211.083244847
21
67
0
LINE
5
43C
100
AcDbEntity
8
frame
6
ByLayer
62
256
370
-1
100
AcDbLine
10
200.830194847
20
73.05
11
205.783244847
21
73.05
0
LINE
5
43D
100
AcDbEntity
8
frame
6
ByLayer
62
256
370
-1
100
AcDbLine
10
211.083244847
20
73.05
11
220
21
73.05
0
LINE
5
43E
100
AcDbEntity
8
frame
6
ByLayer
62
256
370
-1
100
AcDbLine
10
254.216755153
20
73.05
11
254.216755153
21
67
0
LINE
5
43F
100
AcDbEntity
8
frame
6
ByLayer
62
256
370
-1
100
AcDbLine
10
248.916755153
20
73.05
11
248.916755153
21
67
0
LINE
5
440
100
AcDbEntity
8
frame
6
ByLayer
62
256
370
-1
100
AcDbLine
10
254.216755153
20
67
11
248.916755153
21
67
0
LINE
5
441
100
AcDbEntity
8
frame
6
ByLayer
62
256
370
-1
100
AcDbLine
10
259.169805153
20
73.05
11
254.216755153
21
73.05
0
LINE
5
442
100
AcDbEntity
8
frame
6
ByLayer
62
256
370
-1
100
AcDbLine
10
248.916755153
20
73.05
11
240
21
73.05
0
CIRCLE
5
443
100
AcDbEntity
8
top plate
6
ByLayer
62
256
370
-1
100
AcDbCircle
10
53.4332431738
20
255
40
1.5
0
CIRCLE
5
444
100
AcDbEntity
8
top plate
6
ByLayer
62
256
370
-1
100
AcDbCircle
10
75
20
233.433243174
40
1.5
0
CIRCLE
5
445
100
AcDbEntity
8
top plate
6
ByLayer
62
256
370
-1
100
AcDbCircle
10
96.5667568262
20
255
40
1.5
0
CIRCLE
5
446
100
AcDbEntity
8
top plate
6
ByLayer
62
256
370
-1
100
AcDbCircle
10
75
20
276.566756826
40
1.5
0
ARC
5
447
100
AcDbEntity
8
motor mounts
6
ByLayer
62
256
370
-1
100
AcDbCircle
10
65
20
25
40
5
100
AcDbArc
50
90
51
180
0
LINE
5
448
100
AcDbEntity
8
motor mounts
6
ByLayer
62
256
370
-1
100
AcDbLine
10
60
20
25
11
60
21
15
0
ARC
5
449
100
AcDbEntity
8
motor mounts
6
ByLayer
62
256
370
-1
100
AcDbCircle
10
65
20
15
40
5
100
AcDbArc
50
180
51
270
0
ARC
5
44A
100
AcDbEntity
8
motor mounts
6
ByLayer
62
256
370
-1
100
AcDbCircle
10
104
20
26
40
4
100
AcDbArc
50
0
51
90
0
LINE
5
44B
100
AcDbEntity
8
motor mounts
6
ByLayer
62
256
370
-1
100
AcDbLine
10
108
20
14
11
108
21
26
0
ARC
5
44C
100
AcDbEntity
8
motor mounts
6
ByLayer
62
256
370
-1
100
AcDbCircle
10
104
20
14
40
4
100
AcDbArc
50
270
51
0
0
LINE
5
44D
100
AcDbEntity
8
motor mount holes
6
ByLayer
62
256
370
-1
100
AcDbLine
10
65
20
22.85
11
65
21
17.15
0
LINE
5
44E
100
AcDbEntity
8
motor mount holes
6
ByLayer
62
256
370
-1
100
AcDbLine
10
65
20
22.85
11
75
21
22.85
0
LINE
5
44F
100
AcDbEntity
8
motor mount holes
6
ByLayer
62
256
370
-1
100
AcDbLine
10
65
20
17.15
11
75
21
17.15
0
LINE
5
450
100
AcDbEntity
8
motor mount holes
6
ByLayer
62
256
370
-1
100
AcDbLine
10
75
20
17.15
11
75
21
22.85
0
LINE
5
451
100
AcDbEntity
8
motor mount holes
6
ByLayer
62
256
370
-1
100
AcDbLine
10
92
20
22.85
11
92
21
17.15
0
CIRCLE
5
452
100
AcDbEntity
8
motor mount holes
6
ByLayer
62
256
370
-1
100
AcDbCircle
10
85
20
20
40
4.5
0
LINE
5
453
100
AcDbEntity
8
motor mount holes
6
ByLayer
62
256
370
-1
100
AcDbLine
10
92
20
17.15
11
101
21
17.15
0
LINE
5
454
100
AcDbEntity
8
motor mount holes
6
ByLayer
62
256
370
-1
100
AcDbLine
10
92
20
22.85
11
101
21
22.85
0
CIRCLE
5
455
100
AcDbEntity
8
motor mount holes
6
ByLayer
62
256
370
-1
100
AcDbCircle
10
104
20
20
40
1.5
0
LINE
5
456
100
AcDbEntity
8
motor mount holes
6
ByLayer
62
256
370
-1
100
AcDbLine
10
101
20
22.85
11
101
21
17.15
0
ARC
5
457
100
AcDbEntity
8
motor mounts
6
ByLayer
62
256
370
-1
100
AcDbCircle
10
85
20
20
40
14
100
AcDbArc
50
45.5846914028
51
134.415308597
0
ARC
5
458
100
AcDbEntity
8
motor mounts
6
ByLayer
62
256
370
-1
100
AcDbCircle
10
85
20
20
40
14
100
AcDbArc
50
225.584691403
51
314.415308597
0
LINE
5
459
100
AcDbEntity
8
motor mounts
6
ByLayer
62
256
370
-1
100
AcDbLine
10
65
20
30
11
75.2020410289
21
30
0
LINE
5
45A
100
AcDbEntity
8
motor mounts
6
ByLayer
62
256
370
-1
100
AcDbLine
10
75.2020410289
20
10
11
65
21
10
0
LINE
5
45B
100
AcDbEntity
8
motor mounts
6
ByLayer
62
256
370
-1
100
AcDbLine
10
94.7979589711
20
30
11
104
21
30
0
LINE
5
45C
100
AcDbEntity
8
motor mounts
6
ByLayer
62
256
370
-1
100
AcDbLine
10
94.7979589711
20
10
11
104
21
10
0
CIRCLE
5
45D
100
AcDbEntity
8
motor mount holes
6
ByLayer
62
256
370
-1
100
AcDbCircle
10
91.717514421
20
13.282485579
40
1.375
0
CIRCLE
5
45E
100
AcDbEntity
8
motor mount holes
6
ByLayer
62
256
370
-1
100
AcDbCircle
10
90.656854249
20
25.656854249
40
1.375
0
CIRCLE
5
45F
100
AcDbEntity
8
motor mount holes
6
ByLayer
62
256
370
-1
100
AcDbCircle
10
78.282485579
20
26.717514421
40
1.375
0
CIRCLE
5
460
100
AcDbEntity
8
motor mount holes
6
ByLayer
62
256
370
-1
100
AcDbCircle
10
79.343145751
20
14.343145751
40
1.375
0
ENDSEC
0
SECTION
2
OBJECTS
0
DICTIONARY
5
C
330
0
100
AcDbDictionary
281
1
3
ACAD_GROUP
350
D
0
DICTIONARY
5
D
330
C
100
AcDbDictionary
281
1
0
ENDSEC
0
EOF
