999
dxfrw 0.5.10
0
SECTION
2
HEADER
9
$ACADVER
1
AC1021
9
$HANDSEED
5
20000
9
$DWGCODEPAGE
3
ANSI_1252
9
$INSBASE
10
0
20
0
30
0
9
$EXTMIN
10
-1.2093059855
20
-165.961940777
30
0
9
$EXTMAX
10
451.209305985
20
340
30
0
9
$LIMMIN
10
0
20
0
9
$LIMMAX
10
420
20
297
9
$ORTHOMODE
70
0
9
$LTSCALE
40
1
9
$TEXTSTYLE
7
STANDARD
9
$CLAYER
8
plate-top
9
$DIMASZ
40
2.5
9
$DIMLFAC
40
1
9
$DIMSCALE
40
1
9
$DIMEXO
40
0.625
9
$DIMEXE
40
1.25
9
$DIMTXT
40
2.5
9
$DIMTSZ
40
0
9
$DIMAUNIT
70
0
9
$DIMADEC
70
2
9
$DIMLUNIT
70
2
9
$DIMSTYLE
2
STANDARD
9
$DIMGAP
40
0.625
9
$DIMTIH
70
0
9
$LUNITS
70
2
9
$LUPREC
70
4
9
$AUNITS
70
0
9
$AUPREC
70
2
9
$SPLINESEGS
70
8
9
$GRIDMODE
70
1
9
$SNAPSTYLE
70
0
9
$GRIDUNIT
10
5
20
5
9
$PINSBASE
10
0
20
0
30
0
9
$PLIMMIN
10
0
20
0
9
$PLIMMAX
10
210
20
297
9
$INSUNITS
70
4
9
$PSVPSCALE
40
1
0
ENDSEC
0
SECTION
2
CLASSES
0
ENDSEC
0
SECTION
2
TABLES
0
TABLE
2
VPORT
5
8
330
0
100
AcDbSymbolTable
70
1
0
VPORT
5
31
330
2
100
AcDbSymbolTableRecord
100
AcDbViewportTableRecord
2
*ACTIVE
70
0
10
0
20
0
11
1
21
1
12
233.303841884
22
139.954397972
13
0
23
0
14
10
24
10
15
5
25
5
16
0
26
0
36
1
17
0
27
0
37
0
40
265.397073722
41
2.03259726604
42
50
43
0
44
0
50
0
51
0
71
0
72
100
73
1
74
3
75
0
76
1
77
0
78
0
281
0
65
1
110
0
120
0
130
0
111
1
121
0
131
0
112
0
122
1
132
0
79
0
146
0
348
10020
60
3
61
5
292
1
282
1
141
0
142
0
63
250
421
3358443
0
ENDTAB
0
TABLE
2
LTYPE
5
5
330
0
100
AcDbSymbolTable
70
4
0
LTYPE
5
14
330
5
100
AcDbSymbolTableRecord
100
AcDbLinetypeTableRecord
2
ByBlock
70
0
3

72
65
73
0
40
0
0
LTYPE
5
15
330
5
100
AcDbSymbolTableRecord
100
AcDbLinetypeTableRecord
2
ByLayer
70
0
3

72
65
73
0
40
0
0
LTYPE
5
16
330
5
100
AcDbSymbolTableRecord
100
AcDbLinetypeTableRecord
2
Continuous
70
0
3
Solid line
72
65
73
0
40
0
0
LTYPE
5
32
330
5
100
AcDbSymbolTableRecord
100
AcDbLinetypeTableRecord
2
DOT
70
0
3
Dot . . . . . . . . . . . . . . . . . . . . . .
72
65
73
2
40
6.35
49
0
74
0
49
-6.35
74
0
0
LTYPE
5
33
330
5
100
AcDbSymbolTableRecord
100
AcDbLinetypeTableRecord
2
DOT2
70
0
3
Dot (.5x) .....................................
72
65
73
2
40
3.175
49
0
74
0
49
-3.175
74
0
0
LTYPE
5
34
330
5
100
AcDbSymbolTableRecord
100
AcDbLinetypeTableRecord
2
DOTX2
70
0
3
Dot (2x) .  .  .  .  .  .  .  .  .  .  .  .  .
72
65
73
2
40
12.7
49
0
74
0
49
-12.7
74
0
0
LTYPE
5
35
330
5
100
AcDbSymbolTableRecord
100
AcDbLinetypeTableRecord
2
DASHED
70
0
3
Dot . . . . . . . . . . . . . . . . . . . . . .
72
65
73
2
40
19.05
49
12.7
74
0
49
-6.35
74
0
0
LTYPE
5
36
330
5
100
AcDbSymbolTableRecord
100
AcDbLinetypeTableRecord
2
DASHED2
70
0
3
Dashed (.5x) _ _ _ _ _ _ _ _ _ _ _ _ _ _ _ _ _
72
65
73
2
40
9.525
49
6.35
74
0
49
-3.175
74
0
0
LTYPE
5
37
330
5
100
AcDbSymbolTableRecord
100
AcDbLinetypeTableRecord
2
DASHEDX2
70
0
3
Dashed (2x) ____  ____  ____  ____  ____  ___
72
65
73
2
40
38.1
49
25.4
74
0
49
-12.7
74
0
0
LTYPE
5
38
330
5
100
AcDbSymbolTableRecord
100
AcDbLinetypeTableRecord
2
DASHDOT
70
0
3
Dash dot __ . __ . __ . __ . __ . __ . __ . __
72
65
73
4
40
25.4
49
12.7
74
0
49
-6.35
74
0
49
0
74
0
49
-6.35
74
0
0
LTYPE
5
39
330
5
100
AcDbSymbolTableRecord
100
AcDbLinetypeTableRecord
2
DASHDOT2
70
0
3
Dash dot (.5x) _._._._._._._._._._._._._._._.
72
65
73
4
40
12.7
49
6.35
74
0
49
-3.175
74
0
49
0
74
0
49
-3.175
74
0
0
LTYPE
5
3A
330
5
100
AcDbSymbolTableRecord
100
AcDbLinetypeTableRecord
2
DASHDOTX2
70
0
3
Dash dot (2x) ____  .  ____  .  ____  .  ___
72
65
73
4
40
50.8
49
25.4
74
0
49
-12.7
74
0
49
0
74
0
49
-12.7
74
0
0
LTYPE
5
3B
330
5
100
AcDbSymbolTableRecord
100
AcDbLinetypeTableRecord
2
DIVIDE
70
0
3
Divide ____ . . ____ . . ____ . . ____ . . ____
72
65
73
6
40
31.75
49
12.7
74
0
49
-6.35
74
0
49
0
74
0
49
-6.35
74
0
49
0
74
0
49
-6.35
74
0
0
LTYPE
5
3C
330
5
100
AcDbSymbolTableRecord
100
AcDbLinetypeTableRecord
2
DIVIDE2
70
0
3
Divide (.5x) __..__..__..__..__..__..__..__.._
72
65
73
6
40
15.875
49
6.35
74
0
49
-3.175
74
0
49
0
74
0
49
-3.175
74
0
49
0
74
0
49
-3.175
74
0
0
LTYPE
5
3D
330
5
100
AcDbSymbolTableRecord
100
AcDbLinetypeTableRecord
2
DIVIDEX2
70
0
3
Divide (2x) ________  .  .  ________  .  .  _
72
65
73
6
40
63.5
49
25.4
74
0
49
-12.7
74
0
49
0
74
0
49
-12.7
74
0
49
0
74
0
49
-12.7
74
0
0
LTYPE
5
3E
330
5
100
AcDbSymbolTableRecord
100
AcDbLinetypeTableRecord
2
BORDER
70
0
3
Border __ __ . __ __ . __ __ . __ __ . __ __ .
72
65
73
6
40
44.45
49
12.7
74
0
49
-6.35
74
0
49
12.7
74
0
49
-6.35
74
0
49
0
74
0
49
-6.35
74
0
0
LTYPE
5
3F
330
5
100
AcDbSymbolTableRecord
100
AcDbLinetypeTableRecord
2
BORDER2
70
0
3
Border (.5x) __.__.__.__.__.__.__.__.__.__.__.
72
65
73
6
40
22.225
49
6.35
74
0
49
-3.175
74
0
49
6.35
74
0
49
-3.175
74
0
49
0
74
0
49
-3.175
74
0
0
LTYPE
5
40
330
5
100
AcDbSymbolTableRecord
100
AcDbLinetypeTableRecord
2
BORDERX2
70
0
3
Border (2x) ____  ____  .  ____  ____  .  ___
72
65
73
6
40
88.9
49
25.4
74
0
49
-12.7
74
0
49
25.4
74
0
49
-12.7
74
0
49
0
74
0
49
-12.7
74
0
0
LTYPE
5
41
330
5
100
AcDbSymbolTableRecord
100
AcDbLinetypeTableRecord
2
CENTER
70
0
3
Center ____ _ ____ _ ____ _ ____ _ ____ _ ____
72
65
73
4
40
50.8
49
31.75
74
0
49
-6.35
74
0
49
6.35
74
0
49
-6.35
74
0
0
LTYPE
5
42
330
5
100
AcDbSymbolTableRecord
100
AcDbLinetypeTableRecord
2
CENTER2
70
0
3
Center (.5x) ___ _ ___ _ ___ _ ___ _ ___ _ ___
72
65
73
4
40
28.575
49
19.05
74
0
49
-3.175
74
0
49
3.175
74
0
49
-3.175
74
0
0
LTYPE
5
43
330
5
100
AcDbSymbolTableRecord
100
AcDbLinetypeTableRecord
2
CENTERX2
70
0
3
Center (2x) ________  __  ________  __  _____
72
65
73
4
40
101.6
49
63.5
74
0
49
-12.7
74
0
49
12.7
74
0
49
-12.7
74
0
0
ENDTAB
0
TABLE
2
LAYER
5
2
330
0
100
AcDbSymbolTable
70
1
0
LAYER
5
10
330
2
100
AcDbSymbolTableRecord
100
AcDbLayerTableRecord
2
0
70
1
62
7
6
CONTINUOUS
370
0
390
F
0
LAYER
5
44
330
2
100
AcDbSymbolTableRecord
100
AcDbLayerTableRecord
2
plate-bottom
70
0
62
136
420
32896
6
CONTINUOUS
370
-3
390
F
0
LAYER
5
45
330
2
100
AcDbSymbolTableRecord
100
AcDbLayerTableRecord
2
mount hole
70
0
62
3
6
CONTINUOUS
370
0
390
F
0
LAYER
5
46
330
2
100
AcDbSymbolTableRecord
100
AcDbLayerTableRecord
2
mounts
70
0
62
96
420
32768
6
CONTINUOUS
370
0
390
F
0
LAYER
5
47
330
2
100
AcDbSymbolTableRecord
100
AcDbLayerTableRecord
2
frame
70
0
62
7
6
CONTINUOUS
370
0
390
F
0
LAYER
5
48
330
2
100
AcDbSymbolTableRecord
100
AcDbLayerTableRecord
2
heavy
70
0
62
6
6
CONTINUOUS
370
0
390
F
0
LAYER
5
49
330
2
100
AcDbSymbolTableRecord
100
AcDbLayerTableRecord
2
mark
70
0
62
253
420
10526884
6
CONTINUOUS
370
0
390
F
0
LAYER
5
4A
330
2
100
AcDbSymbolTableRecord
100
AcDbLayerTableRecord
2
plate-top
70
0
62
136
420
32896
6
CONTINUOUS
370
0
390
F
0
ENDTAB
0
TABLE
2
STYLE
5
3
330
0
100
AcDbSymbolTable
70
3
0
STYLE
5
4B
330
2
100
AcDbSymbolTableRecord
100
AcDbTextStyleTableRecord
2
Standard
70
0
40
0
41
1
50
0
71
0
42
1
3
txt
4

0
ENDTAB
0
TABLE
2
VIEW
5
6
330
0
100
AcDbSymbolTable
70
0
0
ENDTAB
0
TABLE
2
UCS
5
7
330
0
100
AcDbSymbolTable
70
0
0
ENDTAB
0
TABLE
2
APPID
5
9
330
0
100
AcDbSymbolTable
70
1
0
APPID
5
12
330
9
100
AcDbSymbolTableRecord
100
AcDbRegAppTableRecord
2
ACAD
70
0
0
ENDTAB
0
TABLE
2
DIMSTYLE
5
A
330
0
100
AcDbSymbolTable
70
1
100
AcDbDimStyleTable
71
1
0
DIMSTYLE
105
4C
330
A
100
AcDbSymbolTableRecord
100
AcDbDimStyleTableRecord
2
Standard
70
0
40
1
41
2.5
42
0.625
43
0.38
44
1.25
45
0
46
0
47
0
48
0
140
2.5
141
0.09
142
0
143
25.4
144
1
145
0
146
1
147
0.625
148
0
71
0
72
0
73
0
74
1
75
0
76
0
77
0
78
0
79
0
170
0
171
2
172
0
173
0
174
0
175
0
176
0
177
0
178
0
179
0
271
4
272
4
273
2
274
2
275
0
276
0
277
2
278
46
279
0
280
0
281
0
282
0
283
1
284
0
285
0
286
0
288
0
289
3
340
Standard
341

371
-2
372
-2
0
ENDTAB
0
TABLE
2
BLOCK_RECORD
5
1
330
0
100
AcDbSymbolTable
70
2
0
BLOCK_RECORD
5
1F
330
1
100
AcDbSymbolTableRecord
100
AcDbBlockTableRecord
2
*Model_Space
70
0
280
1
281
0
0
BLOCK_RECORD
5
1E
330
1
100
AcDbSymbolTableRecord
100
AcDbBlockTableRecord
2
*Paper_Space
70
0
280
1
281
0
0
ENDTAB
0
ENDSEC
0
SECTION
2
BLOCKS
0
BLOCK
5
20
330
1F
100
AcDbEntity
8
0
100
AcDbBlockBegin
2
*Model_Space
70
0
10
0
20
0
30
0
3
*Model_Space
1

0
ENDBLK
5
21
330
1F
100
AcDbEntity
8
0
100
AcDbBlockEnd
0
BLOCK
5
1C
330
1B
100
AcDbEntity
8
0
100
AcDbBlockBegin
2
*Paper_Space
70
0
10
0
20
0
30
0
3
*Paper_Space
1

0
ENDBLK
5
1D
330
1F
100
AcDbEntity
8
0
100
AcDbBlockEnd
0
ENDSEC
0
SECTION
2
ENTITIES
0
LINE
5
4D
100
AcDbEntity
8
frame
6
ByLayer
62
256
370
-1
100
AcDbLine
10
5
20
70
11
0
21
70
0
ARC
5
4E
100
AcDbEntity
8
frame
6
ByLayer
62
256
370
-1
100
AcDbCircle
10
52.5
20
142.5
40
77.5403120964
100
AcDbArc
50
249.227745318
51
271.847610266
0
LINE
5
4F
100
AcDbEntity
8
frame
6
ByLayer
62
256
370
-1
100
AcDbLine
10
20
20
70
11
25
21
70
0
LINE
5
50
100
AcDbEntity
8
frame
6
ByLayer
62
256
370
-1
100
AcDbLine
10
55
20
65
11
105
21
65
0
LINE
5
51
100
AcDbEntity
8
frame
6
ByLayer
62
256
370
-1
100
AcDbLine
10
105
20
40
11
55
21
40
0
LINE
5
52
100
AcDbEntity
8
frame
6
ByLayer
62
256
370
-1
100
AcDbLine
10
5
20
70
11
5
21
76
0
LINE
5
53
100
AcDbEntity
8
frame
6
ByLayer
62
256
370
-1
100
AcDbLine
10
20
20
76
11
20
21
70
0
LINE
5
54
100
AcDbEntity
8
frame
6
ByLayer
62
256
370
-1
100
AcDbLine
10
155
20
15
11
155
21
11.95
0
LINE
5
55
100
AcDbEntity
8
frame
6
ByLayer
62
256
370
-1
100
AcDbLine
10
155
20
15
11
150
21
15
0
ARC
5
56
100
AcDbEntity
8
frame
6
ByLayer
62
256
370
-1
100
AcDbCircle
10
70.7698101055
20
-16.5772320562
40
58.7338922421
100
AcDbArc
50
105.574784585
51
158.446320489
0
ARC
5
57
100
AcDbEntity
8
frame
6
ByLayer
62
256
370
-1
100
AcDbCircle
10
201.731566074
20
68.5704766313
40
201.736631001
100
AcDbArc
50
179.59399371
51
198.367827646
0
ARC
5
58
100
AcDbEntity
8
frame
6
ByLayer
62
256
370
-1
100
AcDbCircle
10
89.2301898945
20
-16.5772320562
40
58.7338922421
100
AcDbArc
50
21.5536795114
51
74.4252154153
0
LINE
5
59
100
AcDbEntity
8
frame
6
ByLayer
62
256
370
-1
100
AcDbLine
10
10.2727903843
20
5
11
16.1429563182
21
5
0
LINE
5
5A
100
AcDbEntity
8
frame
6
ByLayer
62
256
370
-1
100
AcDbLine
10
143.857043682
20
5
11
150
21
5
0
LINE
5
5B
100
AcDbEntity
8
frame
6
ByLayer
62
256
370
-1
100
AcDbLine
10
445
20
70
11
450
21
70
0
ARC
5
5C
100
AcDbEntity
8
frame
6
ByLayer
62
256
370
-1
100
AcDbCircle
10
397.5
20
142.5
40
77.5403120964
100
AcDbArc
50
268.152389734
51
290.772254682
0
LINE
5
5D
100
AcDbEntity
8
frame
6
ByLayer
62
256
370
-1
100
AcDbLine
10
430
20
70
11
425
21
70
0
ARC
5
5E
100
AcDbEntity
8
frame
6
ByLayer
62
256
370
-1
100
AcDbCircle
10
342.5
20
207.5
40
142.521928137
100
AcDbArc
50
254.744881297
51
271.005086005
0
LINE
5
5F
100
AcDbEntity
8
frame
6
ByLayer
62
256
370
-1
100
AcDbLine
10
395
20
65
11
345
21
65
0
LINE
5
60
100
AcDbEntity
8
frame
6
ByLayer
62
256
370
-1
100
AcDbLine
10
345
20
40
11
395
21
40
0
LINE
5
61
100
AcDbEntity
8
frame
6
ByLayer
62
256
370
-1
100
AcDbLine
10
445
20
70
11
445
21
76
0
LINE
5
62
100
AcDbEntity
8
frame
6
ByLayer
62
256
370
-1
100
AcDbLine
10
430
20
76
11
430
21
70
0
LINE
5
63
100
AcDbEntity
8
frame
6
ByLayer
62
256
370
-1
100
AcDbLine
10
300
20
15
11
300
21
10
0
LINE
5
64
100
AcDbEntity
8
frame
6
ByLayer
62
256
370
-1
100
AcDbLine
10
300
20
10
11
300
21
5
0
ARC
5
65
100
AcDbEntity
8
frame
6
ByLayer
62
256
370
-1
100
AcDbCircle
10
379.230189895
20
-16.5772320562
40
58.7338922421
100
AcDbArc
50
21.5536795114
51
74.4252154153
0
ARC
5
66
100
AcDbEntity
8
frame
6
ByLayer
62
256
370
-1
100
AcDbCircle
10
248.268433926
20
68.5704766313
40
201.736631001
100
AcDbArc
50
341.632172354
51
0.406006290483
0
ARC
5
67
100
AcDbEntity
8
frame
6
ByLayer
62
256
370
-1
100
AcDbCircle
10
360.769810105
20
-16.5772320562
40
58.7338922421
100
AcDbArc
50
105.574784585
51
158.446320489
0
LINE
5
68
100
AcDbEntity
8
frame
6
ByLayer
62
256
370
-1
100
AcDbLine
10
439.727209616
20
5
11
433.857043682
21
5
0
LINE
5
69
100
AcDbEntity
8
frame
6
ByLayer
62
256
370
-1
100
AcDbLine
10
306.142956318
20
5
11
300
21
5
0
LINE
5
6A
100
AcDbEntity
8
frame
6
ByLayer
62
256
370
-1
100
AcDbLine
10
215
20
73.05
11
215
21
70
0
LINE
5
6B
100
AcDbEntity
8
frame
6
ByLayer
62
256
370
-1
100
AcDbLine
10
235
20
73.05
11
235
21
70
0
LINE
5
6C
100
AcDbEntity
8
frame
6
ByLayer
62
256
370
-1
100
AcDbLine
10
222.05
20
70
11
222.05
21
62.5
0
LINE
5
6D
100
AcDbEntity
8
frame
6
ByLayer
62
256
370
-1
100
AcDbLine
10
227.95
20
70
11
227.95
21
62.5
0
LINE
5
6E
100
AcDbEntity
8
frame
6
ByLayer
62
256
370
-1
100
AcDbLine
10
215
20
70
11
222.05
21
70
0
LINE
5
6F
100
AcDbEntity
8
frame
6
ByLayer
62
256
370
-1
100
AcDbLine
10
227.95
20
70
11
235
21
70
0
LINE
5
70
100
AcDbEntity
8
frame
6
ByLayer
62
256
370
-1
100
AcDbLine
10
222.05
20
62.5
11
227.95
21
62.5
0
ARC
5
71
100
AcDbEntity
8
frame
6
ByLayer
62
256
370
-1
100
AcDbCircle
10
107.5
20
207.5
40
142.521928137
100
AcDbArc
50
268.994913995
51
285.255118703
0
LINE
5
72
100
AcDbEntity
8
frame
6
ByLayer
62
256
370
-1
100
AcDbLine
10
0
20
24
11
0
21
24
0
LINE
5
73
100
AcDbEntity
8
frame
6
ByLayer
62
256
370
-1
100
AcDbLine
10
16
20
24
11
16
21
24
0
LINE
5
74
100
AcDbEntity
8
frame
6
ByLayer
62
256
370
-1
100
AcDbLine
10
16
20
5
11
16
21
5
0
LINE
5
75
100
AcDbEntity
8
frame
6
ByLayer
62
256
370
-1
100
AcDbLine
10
167.65
20
19
11
167.65
21
23
0
LINE
5
76
100
AcDbEntity
8
frame
6
ByLayer
62
256
370
-1
100
AcDbLine
10
162.35
20
19
11
162.35
21
23
0
LINE
5
77
100
AcDbEntity
8
frame
6
ByLayer
62
256
370
-1
100
AcDbLine
10
163.55
20
19
11
162.35
21
19
0
LINE
5
78
100
AcDbEntity
8
frame
6
ByLayer
62
256
370
-1
100
AcDbLine
10
167.65
20
19
11
166.45
21
19
0
LINE
5
79
100
AcDbEntity
8
frame
6
ByLayer
62
256
370
-1
100
AcDbLine
10
167.65
20
23
11
162.35
21
23
0
LINE
5
7A
100
AcDbEntity
8
frame
6
ByLayer
62
256
370
-1
100
AcDbLine
10
166.45
20
15
11
166.45
21
19
0
LINE
5
7B
100
AcDbEntity
8
frame
6
ByLayer
62
256
370
-1
100
AcDbLine
10
163.55
20
15
11
163.55
21
19
0
LINE
5
7C
100
AcDbEntity
8
frame
6
ByLayer
62
256
370
-1
100
AcDbLine
10
160
20
15
11
163.55
21
15
0
LINE
5
7D
100
AcDbEntity
8
frame
6
ByLayer
62
256
370
-1
100
AcDbLine
10
160
20
11.95
11
160
21
15
0
LINE
5
7E
100
AcDbEntity
8
frame
6
ByLayer
62
256
370
-1
100
AcDbLine
10
170
20
11.95
11
170
21
15
0
LINE
5
7F
100
AcDbEntity
8
frame
6
ByLayer
62
256
370
-1
100
AcDbLine
10
155
20
11.95
11
160
21
11.95
0
LINE
5
80
100
AcDbEntity
8
frame
6
ByLayer
62
256
370
-1
100
AcDbLine
10
170
20
11.95
11
185
21
11.95
0
LINE
5
81
100
AcDbEntity
8
frame
6
ByLayer
62
256
370
-1
100
AcDbLine
10
170
20
15
11
166.45
21
15
0
LINE
5
82
100
AcDbEntity
8
frame
6
ByLayer
62
256
370
-1
100
AcDbLine
10
150
20
15
11
150
21
5
0
LINE
5
83
100
AcDbEntity
8
frame
6
ByLayer
62
256
370
-1
100
AcDbLine
10
295
20
15
11
295
21
11.95
0
LINE
5
84
100
AcDbEntity
8
frame
6
ByLayer
62
256
370
-1
100
AcDbLine
10
295
20
15
11
300
21
15
0
LINE
5
85
100
AcDbEntity
8
frame
6
ByLayer
62
256
370
-1
100
AcDbLine
10
282.35
20
19
11
282.35
21
23
0
LINE
5
86
100
AcDbEntity
8
frame
6
ByLayer
62
256
370
-1
100
AcDbLine
10
287.65
20
19
11
287.65
21
23
0
LINE
5
87
100
AcDbEntity
8
frame
6
ByLayer
62
256
370
-1
100
AcDbLine
10
286.45
20
19
11
287.65
21
19
0
LINE
5
88
100
AcDbEntity
8
frame
6
ByLayer
62
256
370
-1
100
AcDbLine
10
282.35
20
19
11
283.55
21
19
0
LINE
5
89
100
AcDbEntity
8
frame
6
ByLayer
62
256
370
-1
100
AcDbLine
10
282.35
20
23
11
287.65
21
23
0
LINE
5
8A
100
AcDbEntity
8
frame
6
ByLayer
62
256
370
-1
100
AcDbLine
10
283.55
20
15
11
283.55
21
19
0
LINE
5
8B
100
AcDbEntity
8
frame
6
ByLayer
62
256
370
-1
100
AcDbLine
10
286.45
20
15
11
286.45
21
19
0
LINE
5
8C
100
AcDbEntity
8
frame
6
ByLayer
62
256
370
-1
100
AcDbLine
10
290
20
15
11
286.45
21
15
0
LINE
5
8D
100
AcDbEntity
8
frame
6
ByLayer
62
256
370
-1
100
AcDbLine
10
290
20
11.95
11
290
21
15
0
LINE
5
8E
100
AcDbEntity
8
frame
6
ByLayer
62
256
370
-1
100
AcDbLine
10
280
20
11.95
11
280
21
15
0
LINE
5
8F
100
AcDbEntity
8
frame
6
ByLayer
62
256
370
-1
100
AcDbLine
10
295
20
11.95
11
290
21
11.95
0
LINE
5
90
100
AcDbEntity
8
frame
6
ByLayer
62
256
370
-1
100
AcDbLine
10
280
20
11.95
11
265
21
11.95
0
LINE
5
91
100
AcDbEntity
8
frame
6
ByLayer
62
256
370
-1
100
AcDbLine
10
280
20
15
11
283.55
21
15
0
LINE
5
92
100
AcDbEntity
8
heavy
6
ByLayer
62
256
370
-1
100
AcDbLine
10
22.05
20
49.55
11
27.95
21
49.55
0
LINE
5
93
100
AcDbEntity
8
heavy
6
ByLayer
62
256
370
-1
100
AcDbLine
10
27.95
20
49.55
11
27.95
21
55.45
0
LINE
5
94
100
AcDbEntity
8
heavy
6
ByLayer
62
256
370
-1
100
AcDbLine
10
27.95
20
55.45
11
22.05
21
55.45
0
LINE
5
95
100
AcDbEntity
8
heavy
6
ByLayer
62
256
370
-1
100
AcDbLine
10
22.05
20
55.45
11
22.05
21
49.55
0
LINE
5
96
100
AcDbEntity
8
heavy
6
ByLayer
62
256
370
-1
100
AcDbLine
10
8.5
20
65
11
16.5
21
65
0
LINE
5
97
100
AcDbEntity
8
heavy
6
ByLayer
62
256
370
-1
100
AcDbLine
10
8.5
20
59.1
11
16.5
21
59.1
0
LINE
5
98
100
AcDbEntity
8
heavy
6
ByLayer
62
256
370
-1
100
AcDbLine
10
8.5
20
65
11
8.5
21
59.1
0
LINE
5
99
100
AcDbEntity
8
heavy
6
ByLayer
62
256
370
-1
100
AcDbLine
10
16.5
20
65
11
16.5
21
59.1
0
LINE
5
9A
100
AcDbEntity
8
heavy
6
ByLayer
62
256
370
-1
100
AcDbLine
10
57.05
20
49.55
11
62.95
21
49.55
0
LINE
5
9B
100
AcDbEntity
8
heavy
6
ByLayer
62
256
370
-1
100
AcDbLine
10
62.95
20
49.55
11
62.95
21
55.45
0
LINE
5
9C
100
AcDbEntity
8
heavy
6
ByLayer
62
256
370
-1
100
AcDbLine
10
62.95
20
55.45
11
57.05
21
55.45
0
LINE
5
9D
100
AcDbEntity
8
heavy
6
ByLayer
62
256
370
-1
100
AcDbLine
10
57.05
20
55.45
11
57.05
21
49.55
0
LINE
5
9E
100
AcDbEntity
8
heavy
6
ByLayer
62
256
370
-1
100
AcDbLine
10
92.05
20
49.55
11
97.95
21
49.55
0
LINE
5
9F
100
AcDbEntity
8
heavy
6
ByLayer
62
256
370
-1
100
AcDbLine
10
97.95
20
49.55
11
97.95
21
55.45
0
LINE
5
A0
100
AcDbEntity
8
heavy
6
ByLayer
62
256
370
-1
100
AcDbLine
10
97.95
20
55.45
11
92.05
21
55.45
0
LINE
5
A1
100
AcDbEntity
8
heavy
6
ByLayer
62
256
370
-1
100
AcDbLine
10
92.05
20
55.45
11
92.05
21
49.55
0
LINE
5
A2
100
AcDbEntity
8
heavy
6
ByLayer
62
256
370
-1
100
AcDbLine
10
127.05
20
49.55
11
132.95
21
49.55
0
LINE
5
A3
100
AcDbEntity
8
heavy
6
ByLayer
62
256
370
-1
100
AcDbLine
10
132.95
20
49.55
11
132.95
21
55.45
0
LINE
5
A4
100
AcDbEntity
8
heavy
6
ByLayer
62
256
370
-1
100
AcDbLine
10
132.95
20
55.45
11
127.05
21
55.45
0
LINE
5
A5
100
AcDbEntity
8
heavy
6
ByLayer
62
256
370
-1
100
AcDbLine
10
127.05
20
55.45
11
127.05
21
49.55
0
LINE
5
A6
100
AcDbEntity
8
heavy
6
ByLayer
62
256
370
-1
100
AcDbLine
10
162.05
20
49.55
11
167.95
21
49.55
0
LINE
5
A7
100
AcDbEntity
8
heavy
6
ByLayer
62
256
370
-1
100
AcDbLine
10
167.95
20
49.55
11
167.95
21
55.45
0
LINE
5
A8
100
AcDbEntity
8
heavy
6
ByLayer
62
256
370
-1
100
AcDbLine
10
167.95
20
55.45
11
162.05
21
55.45
0
LINE
5
A9
100
AcDbEntity
8
heavy
6
ByLayer
62
256
370
-1
100
AcDbLine
10
162.05
20
55.45
11
162.05
21
49.55
0
LINE
5
AA
100
AcDbEntity
8
heavy
6
ByLayer
62
256
370
-1
100
AcDbLine
10
427.95
20
49.55
11
422.05
21
49.55
0
LINE
5
AB
100
AcDbEntity
8
heavy
6
ByLayer
62
256
370
-1
100
AcDbLine
10
422.05
20
49.55
11
422.05
21
55.45
0
LINE
5
AC
100
AcDbEntity
8
heavy
6
ByLayer
62
256
370
-1
100
AcDbLine
10
422.05
20
55.45
11
427.95
21
55.45
0
LINE
5
AD
100
AcDbEntity
8
heavy
6
ByLayer
62
256
370
-1
100
AcDbLine
10
427.95
20
55.45
11
427.95
21
49.55
0
LINE
5
AE
100
AcDbEntity
8
heavy
6
ByLayer
62
256
370
-1
100
AcDbLine
10
441.5
20
65
11
433.5
21
65
0
LINE
5
AF
100
AcDbEntity
8
heavy
6
ByLayer
62
256
370
-1
100
AcDbLine
10
441.5
20
59.1
11
433.5
21
59.1
0
LINE
5
B0
100
AcDbEntity
8
heavy
6
ByLayer
62
256
370
-1
100
AcDbLine
10
441.5
20
65
11
441.5
21
59.1
0
LINE
5
B1
100
AcDbEntity
8
heavy
6
ByLayer
62
256
370
-1
100
AcDbLine
10
433.5
20
65
11
433.5
21
59.1
0
LINE
5
B2
100
AcDbEntity
8
heavy
6
ByLayer
62
256
370
-1
100
AcDbLine
10
392.95
20
49.55
11
387.05
21
49.55
0
LINE
5
B3
100
AcDbEntity
8
heavy
6
ByLayer
62
256
370
-1
100
AcDbLine
10
387.05
20
49.55
11
387.05
21
55.45
0
LINE
5
B4
100
AcDbEntity
8
heavy
6
ByLayer
62
256
370
-1
100
AcDbLine
10
387.05
20
55.45
11
392.95
21
55.45
0
LINE
5
B5
100
AcDbEntity
8
heavy
6
ByLayer
62
256
370
-1
100
AcDbLine
10
392.95
20
55.45
11
392.95
21
49.55
0
LINE
5
B6
100
AcDbEntity
8
heavy
6
ByLayer
62
256
370
-1
100
AcDbLine
10
357.95
20
49.55
11
352.05
21
49.55
0
LINE
5
B7
100
AcDbEntity
8
heavy
6
ByLayer
62
256
370
-1
100
AcDbLine
10
352.05
20
49.55
11
352.05
21
55.45
0
LINE
5
B8
100
AcDbEntity
8
heavy
6
ByLayer
62
256
370
-1
100
AcDbLine
10
352.05
20
55.45
11
357.95
21
55.45
0
LINE
5
B9
100
AcDbEntity
8
heavy
6
ByLayer
62
256
370
-1
100
AcDbLine
10
357.95
20
55.45
11
357.95
21
49.55
0
LINE
5
BA
100
AcDbEntity
8
heavy
6
ByLayer
62
256
370
-1
100
AcDbLine
10
322.95
20
49.55
11
317.05
21
49.55
0
LINE
5
BB
100
AcDbEntity
8
heavy
6
ByLayer
62
256
370
-1
100
AcDbLine
10
317.05
20
49.55
11
317.05
21
55.45
0
LINE
5
BC
100
AcDbEntity
8
heavy
6
ByLayer
62
256
370
-1
100
AcDbLine
10
317.05
20
55.45
11
322.95
21
55.45
0
LINE
5
BD
100
AcDbEntity
8
heavy
6
ByLayer
62
256
370
-1
100
AcDbLine
10
322.95
20
55.45
11
322.95
21
49.55
0
LINE
5
BE
100
AcDbEntity
8
heavy
6
ByLayer
62
256
370
-1
100
AcDbLine
10
287.95
20
49.55
11
282.05
21
49.55
0
LINE
5
BF
100
AcDbEntity
8
heavy
6
ByLayer
62
256
370
-1
100
AcDbLine
10
282.05
20
49.55
11
282.05
21
55.45
0
LINE
5
C0
100
AcDbEntity
8
heavy
6
ByLayer
62
256
370
-1
100
AcDbLine
10
282.05
20
55.45
11
287.95
21
55.45
0
LINE
5
C1
100
AcDbEntity
8
heavy
6
ByLayer
62
256
370
-1
100
AcDbLine
10
287.95
20
55.45
11
287.95
21
49.55
0
LINE
5
C2
100
AcDbEntity
8
frame
6
ByLayer
62
256
370
-1
100
AcDbLine
10
155
20
70
11
155
21
73.05
0
LINE
5
C3
100
AcDbEntity
8
frame
6
ByLayer
62
256
370
-1
100
AcDbLine
10
145
20
70
11
148.55
21
70
0
LINE
5
C4
100
AcDbEntity
8
frame
6
ByLayer
62
256
370
-1
100
AcDbLine
10
151.45
20
70
11
155
21
70
0
LINE
5
C5
100
AcDbEntity
8
frame
6
ByLayer
62
256
370
-1
100
AcDbLine
10
147.35
20
66
11
147.35
21
62
0
LINE
5
C6
100
AcDbEntity
8
frame
6
ByLayer
62
256
370
-1
100
AcDbLine
10
152.65
20
66
11
152.65
21
62
0
LINE
5
C7
100
AcDbEntity
8
frame
6
ByLayer
62
256
370
-1
100
AcDbLine
10
151.45
20
66
11
152.65
21
66
0
LINE
5
C8
100
AcDbEntity
8
frame
6
ByLayer
62
256
370
-1
100
AcDbLine
10
147.35
20
66
11
148.55
21
66
0
LINE
5
C9
100
AcDbEntity
8
frame
6
ByLayer
62
256
370
-1
100
AcDbLine
10
147.35
20
62
11
152.65
21
62
0
LINE
5
CA
100
AcDbEntity
8
frame
6
ByLayer
62
256
370
-1
100
AcDbLine
10
148.55
20
70
11
148.55
21
66
0
LINE
5
CB
100
AcDbEntity
8
frame
6
ByLayer
62
256
370
-1
100
AcDbLine
10
151.45
20
70
11
151.45
21
66
0
LINE
5
CC
100
AcDbEntity
8
frame
6
ByLayer
62
256
370
-1
100
AcDbLine
10
295
20
70
11
295
21
73.05
0
LINE
5
CD
100
AcDbEntity
8
frame
6
ByLayer
62
256
370
-1
100
AcDbLine
10
305
20
70
11
301.45
21
70
0
LINE
5
CE
100
AcDbEntity
8
frame
6
ByLayer
62
256
370
-1
100
AcDbLine
10
298.55
20
70
11
295
21
70
0
LINE
5
CF
100
AcDbEntity
8
frame
6
ByLayer
62
256
370
-1
100
AcDbLine
10
302.65
20
66
11
302.65
21
62
0
LINE
5
D0
100
AcDbEntity
8
frame
6
ByLayer
62
256
370
-1
100
AcDbLine
10
297.35
20
66
11
297.35
21
62
0
LINE
5
D1
100
AcDbEntity
8
frame
6
ByLayer
62
256
370
-1
100
AcDbLine
10
298.55
20
66
11
297.35
21
66
0
LINE
5
D2
100
AcDbEntity
8
frame
6
ByLayer
62
256
370
-1
100
AcDbLine
10
302.65
20
66
11
301.45
21
66
0
LINE
5
D3
100
AcDbEntity
8
frame
6
ByLayer
62
256
370
-1
100
AcDbLine
10
302.65
20
62
11
297.35
21
62
0
LINE
5
D4
100
AcDbEntity
8
frame
6
ByLayer
62
256
370
-1
100
AcDbLine
10
301.45
20
70
11
301.45
21
66
0
LINE
5
D5
100
AcDbEntity
8
frame
6
ByLayer
62
256
370
-1
100
AcDbLine
10
298.55
20
70
11
298.55
21
66
0
LINE
5
D6
100
AcDbEntity
8
heavy
6
ByLayer
62
256
370
-1
100
AcDbLine
10
25.8413985246
20
8.27802536121
11
28.7913985246
21
8.27802536121
0
LINE
5
D7
100
AcDbEntity
8
heavy
6
ByLayer
62
256
370
-1
100
AcDbLine
10
60.8413985246
20
8.27802536121
11
63.7913985246
21
8.27802536121
0
LINE
5
D8
100
AcDbEntity
8
heavy
6
ByLayer
62
256
370
-1
100
AcDbLine
10
95.8413985246
20
8.27802536121
11
98.7913985246
21
8.27802536121
0
LINE
5
D9
100
AcDbEntity
8
heavy
6
ByLayer
62
256
370
-1
100
AcDbLine
10
130.841398525
20
8.27802536121
11
133.791398525
21
8.27802536121
0
LINE
5
DA
100
AcDbEntity
8
heavy
6
ByLayer
62
256
370
-1
100
AcDbLine
10
165.841398525
20
8.27802536121
11
168.791398525
21
8.27802536121
0
LINE
5
DB
100
AcDbEntity
8
heavy
6
ByLayer
62
256
370
-1
100
AcDbLine
10
168.791398525
20
8.27802536121
11
168.791398525
21
2.57802536121
0
LINE
5
DC
100
AcDbEntity
8
heavy
6
ByLayer
62
256
370
-1
100
AcDbLine
10
165.841398525
20
8.27802536121
11
165.841398525
21
2.57802536121
0
LINE
5
DD
100
AcDbEntity
8
heavy
6
ByLayer
62
256
370
-1
100
AcDbLine
10
133.791398525
20
8.27802536121
11
133.791398525
21
2.57802536121
0
LINE
5
DE
100
AcDbEntity
8
heavy
6
ByLayer
62
256
370
-1
100
AcDbLine
10
130.841398525
20
8.27802536121
11
130.841398525
21
2.57802536121
0
LINE
5
DF
100
AcDbEntity
8
heavy
6
ByLayer
62
256
370
-1
100
AcDbLine
10
98.7913985246
20
8.27802536121
11
98.7913985246
21
2.57802536121
0
LINE
5
E0
100
AcDbEntity
8
heavy
6
ByLayer
62
256
370
-1
100
AcDbLine
10
95.8413985246
20
8.27802536121
11
95.8413985246
21
2.57802536121
0
LINE
5
E1
100
AcDbEntity
8
heavy
6
ByLayer
62
256
370
-1
100
AcDbLine
10
63.7913985246
20
8.27802536121
11
63.7913985246
21
2.57802536121
0
LINE
5
E2
100
AcDbEntity
8
heavy
6
ByLayer
62
256
370
-1
100
AcDbLine
10
60.8413985246
20
8.27802536121
11
60.8413985246
21
2.57802536121
0
LINE
5
E3
100
AcDbEntity
8
heavy
6
ByLayer
62
256
370
-1
100
AcDbLine
10
28.7913985246
20
8.27802536121
11
28.7913985246
21
2.57802536121
0
LINE
5
E4
100
AcDbEntity
8
heavy
6
ByLayer
62
256
370
-1
100
AcDbLine
10
25.8413985246
20
8.27802536121
11
25.8413985246
21
2.57802536121
0
LINE
5
E5
100
AcDbEntity
8
heavy
6
ByLayer
62
256
370
-1
100
AcDbLine
10
20.8413985246
20
2.57802536121
11
25.8413985246
21
2.57802536121
0
LINE
5
E6
100
AcDbEntity
8
heavy
6
ByLayer
62
256
370
-1
100
AcDbLine
10
28.7913985246
20
2.57802536121
11
60.8413985246
21
2.57802536121
0
LINE
5
E7
100
AcDbEntity
8
heavy
6
ByLayer
62
256
370
-1
100
AcDbLine
10
63.7913985246
20
2.57802536121
11
95.8413985246
21
2.57802536121
0
LINE
5
E8
100
AcDbEntity
8
heavy
6
ByLayer
62
256
370
-1
100
AcDbLine
10
98.7913985246
20
2.57802536121
11
130.841398525
21
2.57802536121
0
LINE
5
E9
100
AcDbEntity
8
heavy
6
ByLayer
62
256
370
-1
100
AcDbLine
10
133.791398525
20
2.57802536121
11
165.841398525
21
2.57802536121
0
LINE
5
EA
100
AcDbEntity
8
heavy
6
ByLayer
62
256
370
-1
100
AcDbLine
10
168.791398525
20
2.57802536121
11
170.841398525
21
2.57802536121
0
LINE
5
EB
100
AcDbEntity
8
heavy
6
ByLayer
62
256
370
-1
100
AcDbLine
10
20.8413985246
20
1.57802536121
11
20.8413985246
21
2.57802536121
0
ARC
5
EC
100
AcDbEntity
8
heavy
6
ByLayer
62
256
370
-1
100
AcDbCircle
10
24.8413985246
20
1.57802536121
40
4
100
AcDbArc
50
180
51
270
0
LINE
5
ED
100
AcDbEntity
8
heavy
6
ByLayer
62
256
370
-1
100
AcDbLine
10
24.8413985246
20
-2.42197463879
11
166.841398525
21
-2.42197463879
0
LINE
5
EE
100
AcDbEntity
8
heavy
6
ByLayer
62
256
370
-1
100
AcDbLine
10
170.841398525
20
1.57802536121
11
170.841398525
21
2.57802536121
0
ARC
5
EF
100
AcDbEntity
8
heavy
6
ByLayer
62
256
370
-1
100
AcDbCircle
10
166.841398525
20
1.57802536121
40
4
100
AcDbArc
50
270
51
0
0
LINE
5
F0
100
AcDbEntity
8
heavy
6
ByLayer
62
256
370
-1
100
AcDbLine
10
143.790694015
20
72.2297880709
11
140.840694015
21
72.2297880709
0
LINE
5
F1
100
AcDbEntity
8
heavy
6
ByLayer
62
256
370
-1
100
AcDbLine
10
108.790694015
20
72.2297880709
11
105.840694015
21
72.2297880709
0
LINE
5
F2
100
AcDbEntity
8
heavy
6
ByLayer
62
256
370
-1
100
AcDbLine
10
73.7906940145
20
72.2297880709
11
70.8406940145
21
72.2297880709
0
LINE
5
F3
100
AcDbEntity
8
heavy
6
ByLayer
62
256
370
-1
100
AcDbLine
10
38.7906940145
20
72.2297880709
11
35.8406940145
21
72.2297880709
0
LINE
5
F4
100
AcDbEntity
8
heavy
6
ByLayer
62
256
370
-1
100
AcDbLine
10
3.7906940145
20
72.2297880709
11
0.840694014503
21
72.2297880709
0
LINE
5
F5
100
AcDbEntity
8
heavy
6
ByLayer
62
256
370
-1
100
AcDbLine
10
3.7906940145
20
72.2297880709
11
3.7906940145
21
77.9297880709
0
LINE
5
F6
100
AcDbEntity
8
heavy
6
ByLayer
62
256
370
-1
100
AcDbLine
10
0.840694014503
20
72.2297880709
11
0.840694014503
21
77.9297880709
0
LINE
5
F7
100
AcDbEntity
8
heavy
6
ByLayer
62
256
370
-1
100
AcDbLine
10
35.8406940145
20
72.2297880709
11
35.8406940145
21
77.9297880709
0
LINE
5
F8
100
AcDbEntity
8
heavy
6
ByLayer
62
256
370
-1
100
AcDbLine
10
38.7906940145
20
72.2297880709
11
38.7906940145
21
77.9297880709
0
LINE
5
F9
100
AcDbEntity
8
heavy
6
ByLayer
62
256
370
-1
100
AcDbLine
10
70.8406940145
20
72.2297880709
11
70.8406940145
21
77.9297880709
0
LINE
5
FA
100
AcDbEntity
8
heavy
6
ByLayer
62
256
370
-1
100
AcDbLine
10
73.7906940145
20
72.2297880709
11
73.7906940145
21
77.9297880709
0
LINE
5
FB
100
AcDbEntity
8
heavy
6
ByLayer
62
256
370
-1
100
AcDbLine
10
105.840694015
20
72.2297880709
11
105.840694015
21
77.9297880709
0
LINE
5
FC
100
AcDbEntity
8
heavy
6
ByLayer
62
256
370
-1
100
AcDbLine
10
108.790694015
20
72.2297880709
11
108.790694015
21
77.9297880709
0
LINE
5
FD
100
AcDbEntity
8
heavy
6
ByLayer
62
256
370
-1
100
AcDbLine
10
140.840694015
20
72.2297880709
11
140.840694015
21
77.9297880709
0
LINE
5
FE
100
AcDbEntity
8
heavy
6
ByLayer
62
256
370
-1
100
AcDbLine
10
143.790694015
20
72.2297880709
11
143.790694015
21
77.9297880709
0
LINE
5
FF
100
AcDbEntity
8
heavy
6
ByLayer
62
256
370
-1
100
AcDbLine
10
-1.2093059855
20
77.9297880709
11
0.840694014503
21
77.9297880709
0
LINE
5
100
100
AcDbEntity
8
heavy
6
ByLayer
62
256
370
-1
100
AcDbLine
10
3.7906940145
20
77.9297880709
11
35.8406940145
21
77.9297880709
0
LINE
5
101
100
AcDbEntity
8
heavy
6
ByLayer
62
256
370
-1
100
AcDbLine
10
38.7906940145
20
77.9297880709
11
70.8406940145
21
77.9297880709
0
LINE
5
102
100
AcDbEntity
8
heavy
6
ByLayer
62
256
370
-1
100
AcDbLine
10
73.7906940145
20
77.9297880709
11
105.840694015
21
77.9297880709
0
LINE
5
103
100
AcDbEntity
8
heavy
6
ByLayer
62
256
370
-1
100
AcDbLine
10
108.790694015
20
77.9297880709
11
140.840694015
21
77.9297880709
0
LINE
5
104
100
AcDbEntity
8
heavy
6
ByLayer
62
256
370
-1
100
AcDbLine
10
143.790694015
20
77.9297880709
11
148.790694015
21
77.9297880709
0
LINE
5
105
100
AcDbEntity
8
heavy
6
ByLayer
62
256
370
-1
100
AcDbLine
10
-1.2093059855
20
78.9297880709
11
-1.2093059855
21
77.9297880709
0
ARC
5
106
100
AcDbEntity
8
heavy
6
ByLayer
62
256
370
-1
100
AcDbCircle
10
2.7906940145
20
78.9297880709
40
4
100
AcDbArc
50
90
51
180
0
LINE
5
107
100
AcDbEntity
8
heavy
6
ByLayer
62
256
370
-1
100
AcDbLine
10
148.790694015
20
78.9297880709
11
148.790694015
21
77.9297880709
0
LINE
5
108
100
AcDbEntity
8
heavy
6
ByLayer
62
256
370
-1
100
AcDbLine
10
2.7906940145
20
82.9297880709
11
144.790694015
21
82.9297880709
0
ARC
5
109
100
AcDbEntity
8
heavy
6
ByLayer
62
256
370
-1
100
AcDbCircle
10
144.790694015
20
78.9297880709
40
4
100
AcDbArc
50
0
51
90
0
CIRCLE
5
10A
100
AcDbEntity
8
mounts
6
ByLayer
62
256
370
-1
100
AcDbCircle
10
210.040269645
20
31.3008461178
40
22.5
0
CIRCLE
5
10B
100
AcDbEntity
8
mount hole
6
ByLayer
62
256
370
-1
100
AcDbCircle
10
191.540269645
20
31.3008461178
40
1.5
0
CIRCLE
5
10C
100
AcDbEntity
8
mount hole
6
ByLayer
62
256
370
-1
100
AcDbCircle
10
228.540269645
20
31.3008461178
40
1.5
0
LINE
5
10D
100
AcDbEntity
8
mark
6
ByLayer
62
256
370
-1
100
AcDbLine
10
222.414638316
20
43.6752147886
11
221.893693783
21
46.6296380476
0
LINE
5
10E
100
AcDbEntity
8
mark
6
ByLayer
62
256
370
-1
100
AcDbLine
10
222.414638316
20
43.6752147886
11
219.460215057
21
44.1961593216
0
ARC
5
10F
100
AcDbEntity
8
mark
6
ByLayer
62
256
370
-1
100
AcDbCircle
10
210.040269645
20
31.3008461178
40
17.5
100
AcDbArc
50
45
51
135
0
LINE
5
110
100
AcDbEntity
8
heavy
6
ByLayer
62
256
370
-1
100
AcDbLine
10
190.35358123
20
9.61965018565
11
193.30358123
21
9.61965018565
0
LINE
5
111
100
AcDbEntity
8
heavy
6
ByLayer
62
256
370
-1
100
AcDbLine
10
225.35358123
20
9.61965018565
11
228.30358123
21
9.61965018565
0
LINE
5
112
100
AcDbEntity
8
heavy
6
ByLayer
62
256
370
-1
100
AcDbLine
10
260.35358123
20
9.61965018565
11
263.30358123
21
9.61965018565
0
LINE
5
113
100
AcDbEntity
8
heavy
6
ByLayer
62
256
370
-1
100
AcDbLine
10
295.353581231
20
9.61965018565
11
298.303581231
21
9.61965018565
0
LINE
5
114
100
AcDbEntity
8
heavy
6
ByLayer
62
256
370
-1
100
AcDbLine
10
330.353581231
20
9.61965018565
11
333.303581231
21
9.61965018565
0
LINE
5
115
100
AcDbEntity
8
heavy
6
ByLayer
62
256
370
-1
100
AcDbLine
10
333.303581231
20
9.61965018565
11
333.303581231
21
3.91965018565
0
LINE
5
116
100
AcDbEntity
8
heavy
6
ByLayer
62
256
370
-1
100
AcDbLine
10
330.353581231
20
9.61965018565
11
330.353581231
21
3.91965018565
0
LINE
5
117
100
AcDbEntity
8
heavy
6
ByLayer
62
256
370
-1
100
AcDbLine
10
298.303581231
20
9.61965018565
11
298.303581231
21
3.91965018565
0
LINE
5
118
100
AcDbEntity
8
heavy
6
ByLayer
62
256
370
-1
100
AcDbLine
10
295.353581231
20
9.61965018565
11
295.353581231
21
3.91965018565
0
LINE
5
119
100
AcDbEntity
8
heavy
6
ByLayer
62
256
370
-1
100
AcDbLine
10
263.30358123
20
9.61965018565
11
263.30358123
21
3.91965018565
0
LINE
5
11A
100
AcDbEntity
8
heavy
6
ByLayer
62
256
370
-1
100
AcDbLine
10
260.35358123
20
9.61965018565
11
260.35358123
21
3.91965018565
0
LINE
5
11B
100
AcDbEntity
8
heavy
6
ByLayer
62
256
370
-1
100
AcDbLine
10
228.30358123
20
9.61965018565
11
228.30358123
21
3.91965018565
0
LINE
5
11C
100
AcDbEntity
8
heavy
6
ByLayer
62
256
370
-1
100
AcDbLine
10
225.35358123
20
9.61965018565
11
225.35358123
21
3.91965018565
0
LINE
5
11D
100
AcDbEntity
8
heavy
6
ByLayer
62
256
370
-1
100
AcDbLine
10
193.30358123
20
9.61965018565
11
193.30358123
21
3.91965018565
0
LINE
5
11E
100
AcDbEntity
8
heavy
6
ByLayer
62
256
370
-1
100
AcDbLine
10
190.35358123
20
9.61965018565
11
190.35358123
21
3.91965018565
0
LINE
5
11F
100
AcDbEntity
8
heavy
6
ByLayer
62
256
370
-1
100
AcDbLine
10
185.35358123
20
3.91965018565
11
190.35358123
21
3.91965018565
0
LINE
5
120
100
AcDbEntity
8
heavy
6
ByLayer
62
256
370
-1
100
AcDbLine
10
193.30358123
20
3.91965018565
11
225.35358123
21
3.91965018565
0
LINE
5
121
100
AcDbEntity
8
heavy
6
ByLayer
62
256
370
-1
100
AcDbLine
10
228.30358123
20
3.91965018565
11
260.35358123
21
3.91965018565
0
LINE
5
122
100
AcDbEntity
8
heavy
6
ByLayer
62
256
370
-1
100
AcDbLine
10
263.30358123
20
3.91965018565
11
295.353581231
21
3.91965018565
0
LINE
5
123
100
AcDbEntity
8
heavy
6
ByLayer
62
256
370
-1
100
AcDbLine
10
298.303581231
20
3.91965018565
11
330.353581231
21
3.91965018565
0
LINE
5
124
100
AcDbEntity
8
heavy
6
ByLayer
62
256
370
-1
100
AcDbLine
10
333.303581231
20
3.91965018565
11
335.353581231
21
3.91965018565
0
LINE
5
125
100
AcDbEntity
8
heavy
6
ByLayer
62
256
370
-1
100
AcDbLine
10
185.35358123
20
2.91965018565
11
185.35358123
21
3.91965018565
0
ARC
5
126
100
AcDbEntity
8
heavy
6
ByLayer
62
256
370
-1
100
AcDbCircle
10
189.35358123
20
2.91965018565
40
4
100
AcDbArc
50
180
51
270
0
LINE
5
127
100
AcDbEntity
8
heavy
6
ByLayer
62
256
370
-1
100
AcDbLine
10
189.35358123
20
-1.08034981435
11
331.353581231
21
-1.08034981435
0
LINE
5
128
100
AcDbEntity
8
heavy
6
ByLayer
62
256
370
-1
100
AcDbLine
10
335.353581231
20
2.91965018565
11
335.353581231
21
3.91965018565
0
ARC
5
129
100
AcDbEntity
8
heavy
6
ByLayer
62
256
370
-1
100
AcDbCircle
10
331.353581231
20
2.91965018565
40
4
100
AcDbArc
50
270
51
0
0
CIRCLE
5
12A
100
AcDbEntity
8
mounts
6
ByLayer
62
256
370
-1
100
AcDbCircle
10
370
20
16.1382403531
40
22.5
0
CIRCLE
5
12B
100
AcDbEntity
8
mount hole
6
ByLayer
62
256
370
-1
100
AcDbCircle
10
351.5
20
16.1382403531
40
1.5
0
CIRCLE
5
12C
100
AcDbEntity
8
mount hole
6
ByLayer
62
256
370
-1
100
AcDbCircle
10
388.5
20
16.1382403531
40
1.5
0
LINE
5
12D
100
AcDbEntity
8
mark
6
ByLayer
62
256
370
-1
100
AcDbLine
10
357.625631329
20
28.5126090239
11
358.146575862
21
31.4670322829
0
LINE
5
12E
100
AcDbEntity
8
mark
6
ByLayer
62
256
370
-1
100
AcDbLine
10
357.625631329
20
28.5126090239
11
360.580054588
21
29.0335535569
0
ARC
5
12F
100
AcDbEntity
8
mark
6
ByLayer
62
256
370
-1
100
AcDbCircle
10
370
20
16.1382403531
40
17.5
100
AcDbArc
50
45
51
135
0
LINE
5
130
100
AcDbEntity
8
heavy
6
ByLayer
62
256
370
-1
100
AcDbLine
10
306.209305985
20
72.2297880709
11
309.159305985
21
72.2297880709
0
LINE
5
131
100
AcDbEntity
8
heavy
6
ByLayer
62
256
370
-1
100
AcDbLine
10
341.209305985
20
72.2297880709
11
344.159305985
21
72.2297880709
0
LINE
5
132
100
AcDbEntity
8
heavy
6
ByLayer
62
256
370
-1
100
AcDbLine
10
376.209305985
20
72.2297880709
11
379.159305985
21
72.2297880709
0
LINE
5
133
100
AcDbEntity
8
heavy
6
ByLayer
62
256
370
-1
100
AcDbLine
10
411.209305985
20
72.2297880709
11
414.159305985
21
72.2297880709
0
LINE
5
134
100
AcDbEntity
8
heavy
6
ByLayer
62
256
370
-1
100
AcDbLine
10
446.209305985
20
72.2297880709
11
449.159305985
21
72.2297880709
0
LINE
5
135
100
AcDbEntity
8
heavy
6
ByLayer
62
256
370
-1
100
AcDbLine
10
446.209305985
20
72.2297880709
11
446.209305985
21
77.9297880709
0
LINE
5
136
100
AcDbEntity
8
heavy
6
ByLayer
62
256
370
-1
100
AcDbLine
10
449.159305985
20
72.2297880709
11
449.159305985
21
77.9297880709
0
LINE
5
137
100
AcDbEntity
8
heavy
6
ByLayer
62
256
370
-1
100
AcDbLine
10
414.159305985
20
72.2297880709
11
414.159305985
21
77.9297880709
0
LINE
5
138
100
AcDbEntity
8
heavy
6
ByLayer
62
256
370
-1
100
AcDbLine
10
411.209305985
20
72.2297880709
11
411.209305985
21
77.9297880709
0
LINE
5
139
100
AcDbEntity
8
heavy
6
ByLayer
62
256
370
-1
100
AcDbLine
10
379.159305985
20
72.2297880709
11
379.159305985
21
77.9297880709
0
LINE
5
13A
100
AcDbEntity
8
heavy
6
ByLayer
62
256
370
-1
100
AcDbLine
10
376.209305985
20
72.2297880709
11
376.209305985
21
77.9297880709
0
LINE
5
13B
100
AcDbEntity
8
heavy
6
ByLayer
62
256
370
-1
100
AcDbLine
10
344.159305985
20
72.2297880709
11
344.159305985
21
77.9297880709
0
LINE
5
13C
100
AcDbEntity
8
heavy
6
ByLayer
62
256
370
-1
100
AcDbLine
10
341.209305985
20
72.2297880709
11
341.209305985
21
77.9297880709
0
LINE
5
13D
100
AcDbEntity
8
heavy
6
ByLayer
62
256
370
-1
100
AcDbLine
10
309.159305985
20
72.2297880709
11
309.159305985
21
77.9297880709
0
LINE
5
13E
100
AcDbEntity
8
heavy
6
ByLayer
62
256
370
-1
100
AcDbLine
10
306.209305985
20
72.2297880709
11
306.209305985
21
77.9297880709
0
LINE
5
13F
100
AcDbEntity
8
heavy
6
ByLayer
62
256
370
-1
100
AcDbLine
10
451.209305985
20
77.9297880709
11
449.159305985
21
77.9297880709
0
LINE
5
140
100
AcDbEntity
8
heavy
6
ByLayer
62
256
370
-1
100
AcDbLine
10
446.209305985
20
77.9297880709
11
414.159305985
21
77.9297880709
0
LINE
5
141
100
AcDbEntity
8
heavy
6
ByLayer
62
256
370
-1
100
AcDbLine
10
411.209305985
20
77.9297880709
11
379.159305985
21
77.9297880709
0
LINE
5
142
100
AcDbEntity
8
heavy
6
ByLayer
62
256
370
-1
100
AcDbLine
10
376.209305985
20
77.9297880709
11
344.159305985
21
77.9297880709
0
LINE
5
143
100
AcDbEntity
8
heavy
6
ByLayer
62
256
370
-1
100
AcDbLine
10
341.209305985
20
77.9297880709
11
309.159305985
21
77.9297880709
0
LINE
5
144
100
AcDbEntity
8
heavy
6
ByLayer
62
256
370
-1
100
AcDbLine
10
306.209305985
20
77.9297880709
11
301.209305985
21
77.9297880709
0
LINE
5
145
100
AcDbEntity
8
heavy
6
ByLayer
62
256
370
-1
100
AcDbLine
10
451.209305985
20
78.9297880709
11
451.209305985
21
77.9297880709
0
ARC
5
146
100
AcDbEntity
8
heavy
6
ByLayer
62
256
370
-1
100
AcDbCircle
10
447.209305985
20
78.9297880709
40
4
100
AcDbArc
50
0
51
90
0
LINE
5
147
100
AcDbEntity
8
heavy
6
ByLayer
62
256
370
-1
100
AcDbLine
10
301.209305985
20
78.9297880709
11
301.209305985
21
77.9297880709
0
LINE
5
148
100
AcDbEntity
8
heavy
6
ByLayer
62
256
370
-1
100
AcDbLine
10
447.209305985
20
82.9297880709
11
305.209305985
21
82.9297880709
0
ARC
5
149
100
AcDbEntity
8
heavy
6
ByLayer
62
256
370
-1
100
AcDbCircle
10
305.209305985
20
78.9297880709
40
4
100
AcDbArc
50
90
51
180
0
CIRCLE
5
14A
100
AcDbEntity
8
mount hole
6
ByLayer
62
256
370
-1
100
AcDbCircle
10
66.5
20
15
40
1.5
0
CIRCLE
5
14B
100
AcDbEntity
8
mount hole
6
ByLayer
62
256
370
-1
100
AcDbCircle
10
103.5
20
15
40
1.5
0
LINE
5
14C
100
AcDbEntity
8
mounts
6
ByLayer
62
256
370
-1
100
AcDbLine
10
66.5
20
19
11
103.5
21
19
0
LINE
5
14D
100
AcDbEntity
8
mounts
6
ByLayer
62
256
370
-1
100
AcDbLine
10
66.5
20
11
11
103.5
21
11
0
ARC
5
14E
100
AcDbEntity
8
mounts
6
ByLayer
62
256
370
-1
100
AcDbCircle
10
66.5
20
15
40
4
100
AcDbArc
50
90
51
270
0
ARC
5
14F
100
AcDbEntity
8
mounts
6
ByLayer
62
256
370
-1
100
AcDbCircle
10
103.5
20
15
40
4
100
AcDbArc
50
270
51
90
0
CIRCLE
5
150
100
AcDbEntity
8
mount hole
6
ByLayer
62
256
370
-1
100
AcDbCircle
10
66.5
20
25
40
1.5
0
CIRCLE
5
151
100
AcDbEntity
8
mount hole
6
ByLayer
62
256
370
-1
100
AcDbCircle
10
103.5
20
25
40
1.5
0
LINE
5
152
100
AcDbEntity
8
mounts
6
ByLayer
62
256
370
-1
100
AcDbLine
10
66.5
20
29
11
103.5
21
29
0
LINE
5
153
100
AcDbEntity
8
mounts
6
ByLayer
62
256
370
-1
100
AcDbLine
10
66.5
20
21
11
103.5
21
21
0
ARC
5
154
100
AcDbEntity
8
mounts
6
ByLayer
62
256
370
-1
100
AcDbCircle
10
66.5
20
25
40
4
100
AcDbArc
50
90
51
270
0
ARC
5
155
100
AcDbEntity
8
mounts
6
ByLayer
62
256
370
-1
100
AcDbCircle
10
103.5
20
25
40
4
100
AcDbArc
50
270
51
90
0
LINE
5
156
100
AcDbEntity
8
frame
6
ByLayer
62
256
370
-1
100
AcDbLine
10
5
20
160
11
0
21
160
0
ARC
5
157
100
AcDbEntity
8
frame
6
ByLayer
62
256
370
-1
100
AcDbCircle
10
52.5
20
232.5
40
77.5403120964
100
AcDbArc
50
249.227745318
51
271.847610266
0
LINE
5
158
100
AcDbEntity
8
frame
6
ByLayer
62
256
370
-1
100
AcDbLine
10
20
20
160
11
25
21
160
0
ARC
5
159
100
AcDbEntity
8
frame
6
ByLayer
62
256
370
-1
100
AcDbCircle
10
107.5
20
297.5
40
142.521928137
100
AcDbArc
50
268.994913995
51
285.255118703
0
LINE
5
15A
100
AcDbEntity
8
frame
6
ByLayer
62
256
370
-1
100
AcDbLine
10
55
20
155
11
105
21
155
0
LINE
5
15B
100
AcDbEntity
8
frame
6
ByLayer
62
256
370
-1
100
AcDbLine
10
105
20
130
11
55
21
130
0
LINE
5
15C
100
AcDbEntity
8
frame
6
ByLayer
62
256
370
-1
100
AcDbLine
10
215
20
163.05
11
215
21
160
0
LINE
5
15D
100
AcDbEntity
8
frame
6
ByLayer
62
256
370
-1
100
AcDbLine
10
215
20
160
11
221.95
21
160
0
LINE
5
15E
100
AcDbEntity
8
frame
6
ByLayer
62
256
370
-1
100
AcDbLine
10
5
20
160
11
5
21
166
0
LINE
5
15F
100
AcDbEntity
8
frame
6
ByLayer
62
256
370
-1
100
AcDbLine
10
20
20
166
11
20
21
160
0
LINE
5
160
100
AcDbEntity
8
frame
6
ByLayer
62
256
370
-1
100
AcDbLine
10
150
20
105
11
150
21
100
0
LINE
5
161
100
AcDbEntity
8
frame
6
ByLayer
62
256
370
-1
100
AcDbLine
10
150
20
100
11
150
21
95
0
ARC
5
162
100
AcDbEntity
8
frame
6
ByLayer
62
256
370
-1
100
AcDbCircle
10
70.7698101055
20
73.4227679438
40
58.7338922421
100
AcDbArc
50
105.574784585
51
158.446320489
0
ARC
5
163
100
AcDbEntity
8
frame
6
ByLayer
62
256
370
-1
100
AcDbCircle
10
201.731566074
20
158.570476631
40
201.736631001
100
AcDbArc
50
179.59399371
51
198.367827646
0
ARC
5
164
100
AcDbEntity
8
frame
6
ByLayer
62
256
370
-1
100
AcDbCircle
10
89.2301898945
20
73.4227679438
40
58.7338922421
100
AcDbArc
50
21.5536795114
51
74.4252154153
0
LINE
5
165
100
AcDbEntity
8
frame
6
ByLayer
62
256
370
-1
100
AcDbLine
10
10.2727903843
20
95
11
16.1429563182
21
95
0
LINE
5
166
100
AcDbEntity
8
frame
6
ByLayer
62
256
370
-1
100
AcDbLine
10
143.857043682
20
95
11
150
21
95
0
LINE
5
167
100
AcDbEntity
8
frame
6
ByLayer
62
256
370
-1
100
AcDbLine
10
445
20
160
11
450
21
160
0
ARC
5
168
100
AcDbEntity
8
frame
6
ByLayer
62
256
370
-1
100
AcDbCircle
10
397.5
20
232.5
40
77.5403120964
100
AcDbArc
50
268.152389734
51
290.772254682
0
LINE
5
169
100
AcDbEntity
8
frame
6
ByLayer
62
256
370
-1
100
AcDbLine
10
430
20
160
11
425
21
160
0
ARC
5
16A
100
AcDbEntity
8
frame
6
ByLayer
62
256
370
-1
100
AcDbCircle
10
342.5
20
297.5
40
142.521928137
100
AcDbArc
50
254.744881297
51
271.005086005
0
LINE
5
16B
100
AcDbEntity
8
frame
6
ByLayer
62
256
370
-1
100
AcDbLine
10
345
20
130
11
395
21
130
0
LINE
5
16C
100
AcDbEntity
8
frame
6
ByLayer
62
256
370
-1
100
AcDbLine
10
235
20
160
11
228.05
21
160
0
LINE
5
16D
100
AcDbEntity
8
frame
6
ByLayer
62
256
370
-1
100
AcDbLine
10
445
20
160
11
445
21
166
0
LINE
5
16E
100
AcDbEntity
8
frame
6
ByLayer
62
256
370
-1
100
AcDbLine
10
430
20
166
11
430
21
160
0
LINE
5
16F
100
AcDbEntity
8
frame
6
ByLayer
62
256
370
-1
100
AcDbLine
10
300
20
105
11
300
21
100
0
LINE
5
170
100
AcDbEntity
8
frame
6
ByLayer
62
256
370
-1
100
AcDbLine
10
300
20
100
11
300
21
95
0
ARC
5
171
100
AcDbEntity
8
frame
6
ByLayer
62
256
370
-1
100
AcDbCircle
10
379.230189895
20
73.4227679438
40
58.7338922421
100
AcDbArc
50
21.5536795114
51
74.4252154153
0
ARC
5
172
100
AcDbEntity
8
frame
6
ByLayer
62
256
370
-1
100
AcDbCircle
10
248.268433926
20
158.570476631
40
201.736631001
100
AcDbArc
50
341.632172354
51
0.406006290483
0
ARC
5
173
100
AcDbEntity
8
frame
6
ByLayer
62
256
370
-1
100
AcDbCircle
10
360.769810105
20
73.4227679438
40
58.7338922421
100
AcDbArc
50
105.574784585
51
158.446320489
0
LINE
5
174
100
AcDbEntity
8
frame
6
ByLayer
62
256
370
-1
100
AcDbLine
10
439.727209616
20
95
11
433.857043682
21
95
0
LINE
5
175
100
AcDbEntity
8
frame
6
ByLayer
62
256
370
-1
100
AcDbLine
10
306.142956318
20
95
11
300
21
95
0
LINE
5
176
100
AcDbEntity
8
frame
6
ByLayer
62
256
370
-1
100
AcDbLine
10
221.95
20
160
11
228.05
21
160
0
LINE
5
177
100
AcDbEntity
8
frame
6
ByLayer
62
256
370
-1
100
AcDbLine
10
222.05
20
152.5
11
222.05
21
145
0
LINE
5
178
100
AcDbEntity
8
frame
6
ByLayer
62
256
370
-1
100
AcDbLine
10
227.95
20
152.5
11
227.95
21
145
0
LINE
5
179
100
AcDbEntity
8
frame
6
ByLayer
62
256
370
-1
100
AcDbLine
10
222.05
20
152.5
11
227.95
21
152.5
0
LINE
5
17A
100
AcDbEntity
8
heavy
6
ByLayer
62
256
370
-1
100
AcDbLine
10
22.05
20
139.55
11
27.95
21
139.55
0
LINE
5
17B
100
AcDbEntity
8
heavy
6
ByLayer
62
256
370
-1
100
AcDbLine
10
27.95
20
139.55
11
27.95
21
145.45
0
LINE
5
17C
100
AcDbEntity
8
heavy
6
ByLayer
62
256
370
-1
100
AcDbLine
10
27.95
20
145.45
11
22.05
21
145.45
0
LINE
5
17D
100
AcDbEntity
8
heavy
6
ByLayer
62
256
370
-1
100
AcDbLine
10
22.05
20
145.45
11
22.05
21
139.55
0
LINE
5
17E
100
AcDbEntity
8
frame
6
ByLayer
62
256
370
-1
100
AcDbLine
10
395
20
155
11
345
21
155
0
LINE
5
17F
100
AcDbEntity
8
frame
6
ByLayer
62
256
370
-1
100
AcDbLine
10
155
20
160
11
155
21
163.05
0
LINE
5
180
100
AcDbEntity
8
frame
6
ByLayer
62
256
370
-1
100
AcDbLine
10
145
20
160
11
148.55
21
160
0
LINE
5
181
100
AcDbEntity
8
frame
6
ByLayer
62
256
370
-1
100
AcDbLine
10
151.45
20
160
11
155
21
160
0
LINE
5
182
100
AcDbEntity
8
frame
6
ByLayer
62
256
370
-1
100
AcDbLine
10
147.35
20
156
11
147.35
21
152
0
LINE
5
183
100
AcDbEntity
8
frame
6
ByLayer
62
256
370
-1
100
AcDbLine
10
152.65
20
156
11
152.65
21
152
0
LINE
5
184
100
AcDbEntity
8
frame
6
ByLayer
62
256
370
-1
100
AcDbLine
10
151.45
20
156
11
152.65
21
156
0
LINE
5
185
100
AcDbEntity
8
frame
6
ByLayer
62
256
370
-1
100
AcDbLine
10
147.35
20
156
11
148.55
21
156
0
LINE
5
186
100
AcDbEntity
8
frame
6
ByLayer
62
256
370
-1
100
AcDbLine
10
147.35
20
152
11
152.65
21
152
0
LINE
5
187
100
AcDbEntity
8
frame
6
ByLayer
62
256
370
-1
100
AcDbLine
10
148.55
20
160
11
148.55
21
156
0
LINE
5
188
100
AcDbEntity
8
frame
6
ByLayer
62
256
370
-1
100
AcDbLine
10
151.45
20
160
11
151.45
21
156
0
LINE
5
189
100
AcDbEntity
8
frame
6
ByLayer
62
256
370
-1
100
AcDbLine
10
155
20
105
11
155
21
101.95
0
LINE
5
18A
100
AcDbEntity
8
frame
6
ByLayer
62
256
370
-1
100
AcDbLine
10
155
20
105
11
150
21
105
0
LINE
5
18B
100
AcDbEntity
8
frame
6
ByLayer
62
256
370
-1
100
AcDbLine
10
167.65
20
109
11
167.65
21
113
0
LINE
5
18C
100
AcDbEntity
8
frame
6
ByLayer
62
256
370
-1
100
AcDbLine
10
162.35
20
109
11
162.35
21
113
0
LINE
5
18D
100
AcDbEntity
8
frame
6
ByLayer
62
256
370
-1
100
AcDbLine
10
163.55
20
109
11
162.35
21
109
0
LINE
5
18E
100
AcDbEntity
8
frame
6
ByLayer
62
256
370
-1
100
AcDbLine
10
167.65
20
109
11
166.45
21
109
0
LINE
5
18F
100
AcDbEntity
8
frame
6
ByLayer
62
256
370
-1
100
AcDbLine
10
167.65
20
113
11
162.35
21
113
0
LINE
5
190
100
AcDbEntity
8
frame
6
ByLayer
62
256
370
-1
100
AcDbLine
10
166.45
20
105
11
166.45
21
109
0
LINE
5
191
100
AcDbEntity
8
frame
6
ByLayer
62
256
370
-1
100
AcDbLine
10
163.55
20
105
11
163.55
21
109
0
LINE
5
192
100
AcDbEntity
8
frame
6
ByLayer
62
256
370
-1
100
AcDbLine
10
160
20
105
11
163.55
21
105
0
LINE
5
193
100
AcDbEntity
8
frame
6
ByLayer
62
256
370
-1
100
AcDbLine
10
160
20
101.95
11
160
21
105
0
LINE
5
194
100
AcDbEntity
8
frame
6
ByLayer
62
256
370
-1
100
AcDbLine
10
170
20
101.95
11
170
21
105
0
LINE
5
195
100
AcDbEntity
8
frame
6
ByLayer
62
256
370
-1
100
AcDbLine
10
155
20
101.95
11
160
21
101.95
0
LINE
5
196
100
AcDbEntity
8
frame
6
ByLayer
62
256
370
-1
100
AcDbLine
10
170
20
101.95
11
185
21
101.95
0
LINE
5
197
100
AcDbEntity
8
frame
6
ByLayer
62
256
370
-1
100
AcDbLine
10
170
20
105
11
166.45
21
105
0
LINE
5
198
100
AcDbEntity
8
frame
6
ByLayer
62
256
370
-1
100
AcDbLine
10
295
20
105
11
295
21
101.95
0
LINE
5
199
100
AcDbEntity
8
frame
6
ByLayer
62
256
370
-1
100
AcDbLine
10
295
20
105
11
300
21
105
0
LINE
5
19A
100
AcDbEntity
8
frame
6
ByLayer
62
256
370
-1
100
AcDbLine
10
282.35
20
109
11
282.35
21
113
0
LINE
5
19B
100
AcDbEntity
8
frame
6
ByLayer
62
256
370
-1
100
AcDbLine
10
287.65
20
109
11
287.65
21
113
0
LINE
5
19C
100
AcDbEntity
8
frame
6
ByLayer
62
256
370
-1
100
AcDbLine
10
286.45
20
109
11
287.65
21
109
0
LINE
5
19D
100
AcDbEntity
8
frame
6
ByLayer
62
256
370
-1
100
AcDbLine
10
282.35
20
109
11
283.55
21
109
0
LINE
5
19E
100
AcDbEntity
8
frame
6
ByLayer
62
256
370
-1
100
AcDbLine
10
282.35
20
113
11
287.65
21
113
0
LINE
5
19F
100
AcDbEntity
8
frame
6
ByLayer
62
256
370
-1
100
AcDbLine
10
283.55
20
105
11
283.55
21
109
0
LINE
5
1A0
100
AcDbEntity
8
frame
6
ByLayer
62
256
370
-1
100
AcDbLine
10
286.45
20
105
11
286.45
21
109
0
LINE
5
1A1
100
AcDbEntity
8
frame
6
ByLayer
62
256
370
-1
100
AcDbLine
10
290
20
105
11
286.45
21
105
0
LINE
5
1A2
100
AcDbEntity
8
frame
6
ByLayer
62
256
370
-1
100
AcDbLine
10
290
20
101.95
11
290
21
105
0
LINE
5
1A3
100
AcDbEntity
8
frame
6
ByLayer
62
256
370
-1
100
AcDbLine
10
280
20
101.95
11
280
21
105
0
LINE
5
1A4
100
AcDbEntity
8
frame
6
ByLayer
62
256
370
-1
100
AcDbLine
10
295
20
101.95
11
290
21
101.95
0
LINE
5
1A5
100
AcDbEntity
8
frame
6
ByLayer
62
256
370
-1
100
AcDbLine
10
280
20
101.95
11
265
21
101.95
0
LINE
5
1A6
100
AcDbEntity
8
frame
6
ByLayer
62
256
370
-1
100
AcDbLine
10
280
20
105
11
283.55
21
105
0
LINE
5
1A7
100
AcDbEntity
8
frame
6
ByLayer
62
256
370
-1
100
AcDbLine
10
295
20
160
11
295
21
163.05
0
LINE
5
1A8
100
AcDbEntity
8
frame
6
ByLayer
62
256
370
-1
100
AcDbLine
10
305
20
160
11
301.45
21
160
0
LINE
5
1A9
100
AcDbEntity
8
frame
6
ByLayer
62
256
370
-1
100
AcDbLine
10
298.55
20
160
11
295
21
160
0
LINE
5
1AA
100
AcDbEntity
8
frame
6
ByLayer
62
256
370
-1
100
AcDbLine
10
302.65
20
156
11
302.65
21
152
0
LINE
5
1AB
100
AcDbEntity
8
frame
6
ByLayer
62
256
370
-1
100
AcDbLine
10
297.35
20
156
11
297.35
21
152
0
LINE
5
1AC
100
AcDbEntity
8
frame
6
ByLayer
62
256
370
-1
100
AcDbLine
10
298.55
20
156
11
297.35
21
156
0
LINE
5
1AD
100
AcDbEntity
8
frame
6
ByLayer
62
256
370
-1
100
AcDbLine
10
302.65
20
156
11
301.45
21
156
0
LINE
5
1AE
100
AcDbEntity
8
frame
6
ByLayer
62
256
370
-1
100
AcDbLine
10
302.65
20
152
11
297.35
21
152
0
LINE
5
1AF
100
AcDbEntity
8
frame
6
ByLayer
62
256
370
-1
100
AcDbLine
10
301.45
20
160
11
301.45
21
156
0
LINE
5
1B0
100
AcDbEntity
8
frame
6
ByLayer
62
256
370
-1
100
AcDbLine
10
298.55
20
160
11
298.55
21
156
0
LINE
5
1B1
100
AcDbEntity
8
frame
6
ByLayer
62
256
370
-1
100
AcDbLine
10
235
20
163.05
11
235
21
160
0
LINE
5
1B2
100
AcDbEntity
8
heavy
6
ByLayer
62
256
370
-1
100
AcDbLine
10
8.5
20
155
11
16.5
21
155
0
LINE
5
1B3
100
AcDbEntity
8
heavy
6
ByLayer
62
256
370
-1
100
AcDbLine
10
8.5
20
149.1
11
16.5
21
149.1
0
LINE
5
1B4
100
AcDbEntity
8
heavy
6
ByLayer
62
256
370
-1
100
AcDbLine
10
8.5
20
155
11
8.5
21
149.1
0
LINE
5
1B5
100
AcDbEntity
8
heavy
6
ByLayer
62
256
370
-1
100
AcDbLine
10
16.5
20
155
11
16.5
21
149.1
0
LINE
5
1B6
100
AcDbEntity
8
heavy
6
ByLayer
62
256
370
-1
100
AcDbLine
10
57.05
20
139.55
11
62.95
21
139.55
0
LINE
5
1B7
100
AcDbEntity
8
heavy
6
ByLayer
62
256
370
-1
100
AcDbLine
10
62.95
20
139.55
11
62.95
21
145.45
0
LINE
5
1B8
100
AcDbEntity
8
heavy
6
ByLayer
62
256
370
-1
100
AcDbLine
10
62.95
20
145.45
11
57.05
21
145.45
0
LINE
5
1B9
100
AcDbEntity
8
heavy
6
ByLayer
62
256
370
-1
100
AcDbLine
10
57.05
20
145.45
11
57.05
21
139.55
0
LINE
5
1BA
100
AcDbEntity
8
heavy
6
ByLayer
62
256
370
-1
100
AcDbLine
10
92.05
20
139.55
11
97.95
21
139.55
0
LINE
5
1BB
100
AcDbEntity
8
heavy
6
ByLayer
62
256
370
-1
100
AcDbLine
10
97.95
20
139.55
11
97.95
21
145.45
0
LINE
5
1BC
100
AcDbEntity
8
heavy
6
ByLayer
62
256
370
-1
100
AcDbLine
10
97.95
20
145.45
11
92.05
21
145.45
0
LINE
5
1BD
100
AcDbEntity
8
heavy
6
ByLayer
62
256
370
-1
100
AcDbLine
10
92.05
20
145.45
11
92.05
21
139.55
0
LINE
5
1BE
100
AcDbEntity
8
heavy
6
ByLayer
62
256
370
-1
100
AcDbLine
10
127.05
20
139.55
11
132.95
21
139.55
0
LINE
5
1BF
100
AcDbEntity
8
heavy
6
ByLayer
62
256
370
-1
100
AcDbLine
10
132.95
20
139.55
11
132.95
21
145.45
0
LINE
5
1C0
100
AcDbEntity
8
heavy
6
ByLayer
62
256
370
-1
100
AcDbLine
10
132.95
20
145.45
11
127.05
21
145.45
0
LINE
5
1C1
100
AcDbEntity
8
heavy
6
ByLayer
62
256
370
-1
100
AcDbLine
10
127.05
20
145.45
11
127.05
21
139.55
0
LINE
5
1C2
100
AcDbEntity
8
heavy
6
ByLayer
62
256
370
-1
100
AcDbLine
10
162.05
20
139.55
11
167.95
21
139.55
0
LINE
5
1C3
100
AcDbEntity
8
heavy
6
ByLayer
62
256
370
-1
100
AcDbLine
10
167.95
20
139.55
11
167.95
21
145.45
0
LINE
5
1C4
100
AcDbEntity
8
heavy
6
ByLayer
62
256
370
-1
100
AcDbLine
10
167.95
20
145.45
11
162.05
21
145.45
0
LINE
5
1C5
100
AcDbEntity
8
heavy
6
ByLayer
62
256
370
-1
100
AcDbLine
10
162.05
20
145.45
11
162.05
21
139.55
0
LINE
5
1C6
100
AcDbEntity
8
heavy
6
ByLayer
62
256
370
-1
100
AcDbLine
10
427.95
20
139.55
11
422.05
21
139.55
0
LINE
5
1C7
100
AcDbEntity
8
heavy
6
ByLayer
62
256
370
-1
100
AcDbLine
10
422.05
20
139.55
11
422.05
21
145.45
0
LINE
5
1C8
100
AcDbEntity
8
heavy
6
ByLayer
62
256
370
-1
100
AcDbLine
10
422.05
20
145.45
11
427.95
21
145.45
0
LINE
5
1C9
100
AcDbEntity
8
heavy
6
ByLayer
62
256
370
-1
100
AcDbLine
10
427.95
20
145.45
11
427.95
21
139.55
0
LINE
5
1CA
100
AcDbEntity
8
heavy
6
ByLayer
62
256
370
-1
100
AcDbLine
10
441.5
20
155
11
433.5
21
155
0
LINE
5
1CB
100
AcDbEntity
8
heavy
6
ByLayer
62
256
370
-1
100
AcDbLine
10
441.5
20
149.1
11
433.5
21
149.1
0
LINE
5
1CC
100
AcDbEntity
8
heavy
6
ByLayer
62
256
370
-1
100
AcDbLine
10
441.5
20
155
11
441.5
21
149.1
0
LINE
5
1CD
100
AcDbEntity
8
heavy
6
ByLayer
62
256
370
-1
100
AcDbLine
10
433.5
20
155
11
433.5
21
149.1
0
LINE
5
1CE
100
AcDbEntity
8
heavy
6
ByLayer
62
256
370
-1
100
AcDbLine
10
392.95
20
139.55
11
387.05
21
139.55
0
LINE
5
1CF
100
AcDbEntity
8
heavy
6
ByLayer
62
256
370
-1
100
AcDbLine
10
387.05
20
139.55
11
387.05
21
145.45
0
LINE
5
1D0
100
AcDbEntity
8
heavy
6
ByLayer
62
256
370
-1
100
AcDbLine
10
387.05
20
145.45
11
392.95
21
145.45
0
LINE
5
1D1
100
AcDbEntity
8
heavy
6
ByLayer
62
256
370
-1
100
AcDbLine
10
392.95
20
145.45
11
392.95
21
139.55
0
LINE
5
1D2
100
AcDbEntity
8
heavy
6
ByLayer
62
256
370
-1
100
AcDbLine
10
357.95
20
139.55
11
352.05
21
139.55
0
LINE
5
1D3
100
AcDbEntity
8
heavy
6
ByLayer
62
256
370
-1
100
AcDbLine
10
352.05
20
139.55
11
352.05
21
145.45
0
LINE
5
1D4
100
AcDbEntity
8
heavy
6
ByLayer
62
256
370
-1
100
AcDbLine
10
352.05
20
145.45
11
357.95
21
145.45
0
LINE
5
1D5
100
AcDbEntity
8
heavy
6
ByLayer
62
256
370
-1
100
AcDbLine
10
357.95
20
145.45
11
357.95
21
139.55
0
LINE
5
1D6
100
AcDbEntity
8
heavy
6
ByLayer
62
256
370
-1
100
AcDbLine
10
322.95
20
139.55
11
317.05
21
139.55
0
LINE
5
1D7
100
AcDbEntity
8
heavy
6
ByLayer
62
256
370
-1
100
AcDbLine
10
317.05
20
139.55
11
317.05
21
145.45
0
LINE
5
1D8
100
AcDbEntity
8
heavy
6
ByLayer
62
256
370
-1
100
AcDbLine
10
317.05
20
145.45
11
322.95
21
145.45
0
LINE
5
1D9
100
AcDbEntity
8
heavy
6
ByLayer
62
256
370
-1
100
AcDbLine
10
322.95
20
145.45
11
322.95
21
139.55
0
LINE
5
1DA
100
AcDbEntity
8
heavy
6
ByLayer
62
256
370
-1
100
AcDbLine
10
287.95
20
139.55
11
282.05
21
139.55
0
LINE
5
1DB
100
AcDbEntity
8
heavy
6
ByLayer
62
256
370
-1
100
AcDbLine
10
282.05
20
139.55
11
282.05
21
145.45
0
LINE
5
1DC
100
AcDbEntity
8
heavy
6
ByLayer
62
256
370
-1
100
AcDbLine
10
282.05
20
145.45
11
287.95
21
145.45
0
LINE
5
1DD
100
AcDbEntity
8
heavy
6
ByLayer
62
256
370
-1
100
AcDbLine
10
287.95
20
145.45
11
287.95
21
139.55
0
CIRCLE
5
1DE
100
AcDbEntity
8
mount hole
6
ByLayer
62
256
370
-1
100
AcDbCircle
10
203.322755224
20
128.018360539
40
1.375
0
CIRCLE
5
1DF
100
AcDbEntity
8
mount hole
6
ByLayer
62
256
370
-1
100
AcDbCircle
10
204.383415396
20
115.643991869
40
1.375
0
CIRCLE
5
1E0
100
AcDbEntity
8
mount hole
6
ByLayer
62
256
370
-1
100
AcDbCircle
10
216.757784066
20
114.583331697
40
1.375
0
CIRCLE
5
1E1
100
AcDbEntity
8
mount hole
6
ByLayer
62
256
370
-1
100
AcDbCircle
10
215.697123894
20
126.957700367
40
1.375
0
LINE
5
1E2
100
AcDbEntity
8
mount hole
6
ByLayer
62
256
370
-1
100
AcDbLine
10
207.090269645
20
113.800846118
11
212.990269645
21
113.800846118
0
LINE
5
1E3
100
AcDbEntity
8
mount hole
6
ByLayer
62
256
370
-1
100
AcDbLine
10
212.990269645
20
128.800846118
11
207.090269645
21
128.800846118
0
CIRCLE
5
1E4
100
AcDbEntity
8
mounts
6
ByLayer
62
256
370
-1
100
AcDbCircle
10
210.040269645
20
121.300846118
40
22.5
0
CIRCLE
5
1E5
100
AcDbEntity
8
mount hole
6
ByLayer
62
256
370
-1
100
AcDbCircle
10
191.540269645
20
121.300846118
40
1.5
0
CIRCLE
5
1E6
100
AcDbEntity
8
mount hole
6
ByLayer
62
256
370
-1
100
AcDbCircle
10
228.540269645
20
121.300846118
40
1.5
0
LINE
5
1E7
100
AcDbEntity
8
mark
6
ByLayer
62
256
370
-1
100
AcDbLine
10
222.414638316
20
133.675214789
11
221.893693783
21
136.629638048
0
LINE
5
1E8
100
AcDbEntity
8
mark
6
ByLayer
62
256
370
-1
100
AcDbLine
10
222.414638316
20
133.675214789
11
219.460215057
21
134.196159322
0
ARC
5
1E9
100
AcDbEntity
8
mark
6
ByLayer
62
256
370
-1
100
AcDbCircle
10
210.040269645
20
121.300846118
40
17.5
100
AcDbArc
50
45
51
135
0
CIRCLE
5
1EA
100
AcDbEntity
8
mount hole
6
ByLayer
62
256
370
-1
100
AcDbCircle
10
363.282485579
20
99.4207259321
40
1.375
0
CIRCLE
5
1EB
100
AcDbEntity
8
mount hole
6
ByLayer
62
256
370
-1
100
AcDbCircle
10
364.34314575
20
111.795094602
40
1.375
0
CIRCLE
5
1EC
100
AcDbEntity
8
mount hole
6
ByLayer
62
256
370
-1
100
AcDbCircle
10
376.717514421
20
112.855754774
40
1.375
0
CIRCLE
5
1ED
100
AcDbEntity
8
mount hole
6
ByLayer
62
256
370
-1
100
AcDbCircle
10
375.656854249
20
100.481386104
40
1.375
0
CIRCLE
5
1EE
100
AcDbEntity
8
mounts
6
ByLayer
62
256
370
-1
100
AcDbCircle
10
370
20
106.138240353
40
22.5
0
CIRCLE
5
1EF
100
AcDbEntity
8
mount hole
6
ByLayer
62
256
370
-1
100
AcDbCircle
10
351.5
20
106.138240353
40
1.5
0
CIRCLE
5
1F0
100
AcDbEntity
8
mount hole
6
ByLayer
62
256
370
-1
100
AcDbCircle
10
388.5
20
106.138240353
40
1.5
0
LINE
5
1F1
100
AcDbEntity
8
mark
6
ByLayer
62
256
370
-1
100
AcDbLine
10
357.625631329
20
118.512609024
11
358.146575862
21
121.467032283
0
LINE
5
1F2
100
AcDbEntity
8
mark
6
ByLayer
62
256
370
-1
100
AcDbLine
10
357.625631329
20
118.512609024
11
360.580054588
21
119.033553557
0
ARC
5
1F3
100
AcDbEntity
8
mark
6
ByLayer
62
256
370
-1
100
AcDbCircle
10
370
20
106.138240353
40
17.5
100
AcDbArc
50
45
51
135
0
LINE
5
1F4
100
AcDbEntity
8
heavy
6
ByLayer
62
256
370
-1
100
AcDbLine
10
25.8413985246
20
98.2780253612
11
28.7913985246
21
98.2780253612
0
LINE
5
1F5
100
AcDbEntity
8
heavy
6
ByLayer
62
256
370
-1
100
AcDbLine
10
60.8413985246
20
98.2780253612
11
63.7913985246
21
98.2780253612
0
LINE
5
1F6
100
AcDbEntity
8
heavy
6
ByLayer
62
256
370
-1
100
AcDbLine
10
95.8413985246
20
98.2780253612
11
98.7913985246
21
98.2780253612
0
LINE
5
1F7
100
AcDbEntity
8
heavy
6
ByLayer
62
256
370
-1
100
AcDbLine
10
130.841398525
20
98.2780253612
11
133.791398525
21
98.2780253612
0
LINE
5
1F8
100
AcDbEntity
8
heavy
6
ByLayer
62
256
370
-1
100
AcDbLine
10
165.841398525
20
98.2780253612
11
168.791398525
21
98.2780253612
0
LINE
5
1F9
100
AcDbEntity
8
heavy
6
ByLayer
62
256
370
-1
100
AcDbLine
10
168.791398525
20
98.2780253612
11
168.791398525
21
92.5780253612
0
LINE
5
1FA
100
AcDbEntity
8
heavy
6
ByLayer
62
256
370
-1
100
AcDbLine
10
165.841398525
20
98.2780253612
11
165.841398525
21
92.5780253612
0
LINE
5
1FB
100
AcDbEntity
8
heavy
6
ByLayer
62
256
370
-1
100
AcDbLine
10
133.791398525
20
98.2780253612
11
133.791398525
21
92.5780253612
0
LINE
5
1FC
100
AcDbEntity
8
heavy
6
ByLayer
62
256
370
-1
100
AcDbLine
10
130.841398525
20
98.2780253612
11
130.841398525
21
92.5780253612
0
LINE
5
1FD
100
AcDbEntity
8
heavy
6
ByLayer
62
256
370
-1
100
AcDbLine
10
98.7913985246
20
98.2780253612
11
98.7913985246
21
92.5780253612
0
LINE
5
1FE
100
AcDbEntity
8
heavy
6
ByLayer
62
256
370
-1
100
AcDbLine
10
95.8413985246
20
98.2780253612
11
95.8413985246
21
92.5780253612
0
LINE
5
1FF
100
AcDbEntity
8
heavy
6
ByLayer
62
256
370
-1
100
AcDbLine
10
63.7913985246
20
98.2780253612
11
63.7913985246
21
92.5780253612
0
LINE
5
200
100
AcDbEntity
8
heavy
6
ByLayer
62
256
370
-1
100
AcDbLine
10
60.8413985246
20
98.2780253612
11
60.8413985246
21
92.5780253612
0
LINE
5
201
100
AcDbEntity
8
heavy
6
ByLayer
62
256
370
-1
100
AcDbLine
10
28.7913985246
20
98.2780253612
11
28.7913985246
21
92.5780253612
0
LINE
5
202
100
AcDbEntity
8
heavy
6
ByLayer
62
256
370
-1
100
AcDbLine
10
25.8413985246
20
98.2780253612
11
25.8413985246
21
92.5780253612
0
LINE
5
203
100
AcDbEntity
8
heavy
6
ByLayer
62
256
370
-1
100
AcDbLine
10
20.8413985246
20
92.5780253612
11
25.8413985246
21
92.5780253612
0
LINE
5
204
100
AcDbEntity
8
heavy
6
ByLayer
62
256
370
-1
100
AcDbLine
10
28.7913985246
20
92.5780253612
11
60.8413985246
21
92.5780253612
0
LINE
5
205
100
AcDbEntity
8
heavy
6
ByLayer
62
256
370
-1
100
AcDbLine
10
63.7913985246
20
92.5780253612
11
95.8413985246
21
92.5780253612
0
LINE
5
206
100
AcDbEntity
8
heavy
6
ByLayer
62
256
370
-1
100
AcDbLine
10
98.7913985246
20
92.5780253612
11
130.841398525
21
92.5780253612
0
LINE
5
207
100
AcDbEntity
8
heavy
6
ByLayer
62
256
370
-1
100
AcDbLine
10
133.791398525
20
92.5780253612
11
165.841398525
21
92.5780253612
0
LINE
5
208
100
AcDbEntity
8
heavy
6
ByLayer
62
256
370
-1
100
AcDbLine
10
168.791398525
20
92.5780253612
11
170.841398525
21
92.5780253612
0
LINE
5
209
100
AcDbEntity
8
heavy
6
ByLayer
62
256
370
-1
100
AcDbLine
10
20.8413985246
20
91.5780253612
11
20.8413985246
21
92.5780253612
0
ARC
5
20A
100
AcDbEntity
8
heavy
6
ByLayer
62
256
370
-1
100
AcDbCircle
10
24.8413985246
20
91.5780253612
40
4
100
AcDbArc
50
180
51
270
0
LINE
5
20B
100
AcDbEntity
8
heavy
6
ByLayer
62
256
370
-1
100
AcDbLine
10
24.8413985246
20
87.5780253612
11
166.841398525
21
87.5780253612
0
LINE
5
20C
100
AcDbEntity
8
heavy
6
ByLayer
62
256
370
-1
100
AcDbLine
10
170.841398525
20
91.5780253612
11
170.841398525
21
92.5780253612
0
ARC
5
20D
100
AcDbEntity
8
heavy
6
ByLayer
62
256
370
-1
100
AcDbCircle
10
166.841398525
20
91.5780253612
40
4
100
AcDbArc
50
270
51
0
0
LINE
5
20E
100
AcDbEntity
8
heavy
6
ByLayer
62
256
370
-1
100
AcDbLine
10
143.790694015
20
162.229788071
11
140.840694015
21
162.229788071
0
LINE
5
20F
100
AcDbEntity
8
heavy
6
ByLayer
62
256
370
-1
100
AcDbLine
10
108.790694015
20
162.229788071
11
105.840694015
21
162.229788071
0
LINE
5
210
100
AcDbEntity
8
heavy
6
ByLayer
62
256
370
-1
100
AcDbLine
10
73.7906940145
20
162.229788071
11
70.8406940145
21
162.229788071
0
LINE
5
211
100
AcDbEntity
8
heavy
6
ByLayer
62
256
370
-1
100
AcDbLine
10
38.7906940145
20
162.229788071
11
35.8406940145
21
162.229788071
0
LINE
5
212
100
AcDbEntity
8
heavy
6
ByLayer
62
256
370
-1
100
AcDbLine
10
3.7906940145
20
162.229788071
11
0.840694014503
21
162.229788071
0
LINE
5
213
100
AcDbEntity
8
heavy
6
ByLayer
62
256
370
-1
100
AcDbLine
10
3.7906940145
20
162.229788071
11
3.7906940145
21
167.929788071
0
LINE
5
214
100
AcDbEntity
8
heavy
6
ByLayer
62
256
370
-1
100
AcDbLine
10
0.840694014503
20
162.229788071
11
0.840694014503
21
167.929788071
0
LINE
5
215
100
AcDbEntity
8
heavy
6
ByLayer
62
256
370
-1
100
AcDbLine
10
35.8406940145
20
162.229788071
11
35.8406940145
21
167.929788071
0
LINE
5
216
100
AcDbEntity
8
heavy
6
ByLayer
62
256
370
-1
100
AcDbLine
10
38.7906940145
20
162.229788071
11
38.7906940145
21
167.929788071
0
LINE
5
217
100
AcDbEntity
8
heavy
6
ByLayer
62
256
370
-1
100
AcDbLine
10
70.8406940145
20
162.229788071
11
70.8406940145
21
167.929788071
0
LINE
5
218
100
AcDbEntity
8
heavy
6
ByLayer
62
256
370
-1
100
AcDbLine
10
73.7906940145
20
162.229788071
11
73.7906940145
21
167.929788071
0
LINE
5
219
100
AcDbEntity
8
heavy
6
ByLayer
62
256
370
-1
100
AcDbLine
10
105.840694015
20
162.229788071
11
105.840694015
21
167.929788071
0
LINE
5
21A
100
AcDbEntity
8
heavy
6
ByLayer
62
256
370
-1
100
AcDbLine
10
108.790694015
20
162.229788071
11
108.790694015
21
167.929788071
0
LINE
5
21B
100
AcDbEntity
8
heavy
6
ByLayer
62
256
370
-1
100
AcDbLine
10
140.840694015
20
162.229788071
11
140.840694015
21
167.929788071
0
LINE
5
21C
100
AcDbEntity
8
heavy
6
ByLayer
62
256
370
-1
100
AcDbLine
10
143.790694015
20
162.229788071
11
143.790694015
21
167.929788071
0
LINE
5
21D
100
AcDbEntity
8
heavy
6
ByLayer
62
256
370
-1
100
AcDbLine
10
-1.2093059855
20
167.929788071
11
0.840694014503
21
167.929788071
0
LINE
5
21E
100
AcDbEntity
8
heavy
6
ByLayer
62
256
370
-1
100
AcDbLine
10
3.7906940145
20
167.929788071
11
35.8406940145
21
167.929788071
0
LINE
5
21F
100
AcDbEntity
8
heavy
6
ByLayer
62
256
370
-1
100
AcDbLine
10
38.7906940145
20
167.929788071
11
70.8406940145
21
167.929788071
0
LINE
5
220
100
AcDbEntity
8
heavy
6
ByLayer
62
256
370
-1
100
AcDbLine
10
73.7906940145
20
167.929788071
11
105.840694015
21
167.929788071
0
LINE
5
221
100
AcDbEntity
8
heavy
6
ByLayer
62
256
370
-1
100
AcDbLine
10
108.790694015
20
167.929788071
11
140.840694015
21
167.929788071
0
LINE
5
222
100
AcDbEntity
8
heavy
6
ByLayer
62
256
370
-1
100
AcDbLine
10
143.790694015
20
167.929788071
11
148.790694015
21
167.929788071
0
LINE
5
223
100
AcDbEntity
8
heavy
6
ByLayer
62
256
370
-1
100
AcDbLine
10
-1.2093059855
20
168.929788071
11
-1.2093059855
21
167.929788071
0
ARC
5
224
100
AcDbEntity
8
heavy
6
ByLayer
62
256
370
-1
100
AcDbCircle
10
2.7906940145
20
168.929788071
40
4
100
AcDbArc
50
90
51
180
0
LINE
5
225
100
AcDbEntity
8
heavy
6
ByLayer
62
256
370
-1
100
AcDbLine
10
148.790694015
20
168.929788071
11
148.790694015
21
167.929788071
0
LINE
5
226
100
AcDbEntity
8
heavy
6
ByLayer
62
256
370
-1
100
AcDbLine
10
2.7906940145
20
172.929788071
11
144.790694015
21
172.929788071
0
ARC
5
227
100
AcDbEntity
8
heavy
6
ByLayer
62
256
370
-1
100
AcDbCircle
10
144.790694015
20
168.929788071
40
4
100
AcDbArc
50
0
51
90
0
LINE
5
228
100
AcDbEntity
8
heavy
6
ByLayer
62
256
370
-1
100
AcDbLine
10
190.35358123
20
99.6196501856
11
193.30358123
21
99.6196501856
0
LINE
5
229
100
AcDbEntity
8
heavy
6
ByLayer
62
256
370
-1
100
AcDbLine
10
225.35358123
20
99.6196501856
11
228.30358123
21
99.6196501856
0
LINE
5
22A
100
AcDbEntity
8
heavy
6
ByLayer
62
256
370
-1
100
AcDbLine
10
260.35358123
20
99.6196501856
11
263.30358123
21
99.6196501856
0
LINE
5
22B
100
AcDbEntity
8
heavy
6
ByLayer
62
256
370
-1
100
AcDbLine
10
295.353581231
20
99.6196501856
11
298.303581231
21
99.6196501856
0
LINE
5
22C
100
AcDbEntity
8
heavy
6
ByLayer
62
256
370
-1
100
AcDbLine
10
330.353581231
20
99.6196501856
11
333.303581231
21
99.6196501856
0
LINE
5
22D
100
AcDbEntity
8
heavy
6
ByLayer
62
256
370
-1
100
AcDbLine
10
333.303581231
20
99.6196501856
11
333.303581231
21
93.9196501856
0
LINE
5
22E
100
AcDbEntity
8
heavy
6
ByLayer
62
256
370
-1
100
AcDbLine
10
330.353581231
20
99.6196501856
11
330.353581231
21
93.9196501856
0
LINE
5
22F
100
AcDbEntity
8
heavy
6
ByLayer
62
256
370
-1
100
AcDbLine
10
298.303581231
20
99.6196501856
11
298.303581231
21
93.9196501856
0
LINE
5
230
100
AcDbEntity
8
heavy
6
ByLayer
62
256
370
-1
100
AcDbLine
10
295.353581231
20
99.6196501856
11
295.353581231
21
93.9196501856
0
LINE
5
231
100
AcDbEntity
8
heavy
6
ByLayer
62
256
370
-1
100
AcDbLine
10
263.30358123
20
99.6196501856
11
263.30358123
21
93.9196501856
0
LINE
5
232
100
AcDbEntity
8
heavy
6
ByLayer
62
256
370
-1
100
AcDbLine
10
260.35358123
20
99.6196501856
11
260.35358123
21
93.9196501856
0
LINE
5
233
100
AcDbEntity
8
heavy
6
ByLayer
62
256
370
-1
100
AcDbLine
10
228.30358123
20
99.6196501856
11
228.30358123
21
93.9196501856
0
LINE
5
234
100
AcDbEntity
8
heavy
6
ByLayer
62
256
370
-1
100
AcDbLine
10
225.35358123
20
99.6196501856
11
225.35358123
21
93.9196501856
0
LINE
5
235
100
AcDbEntity
8
heavy
6
ByLayer
62
256
370
-1
100
AcDbLine
10
193.30358123
20
99.6196501856
11
193.30358123
21
93.9196501856
0
LINE
5
236
100
AcDbEntity
8
heavy
6
ByLayer
62
256
370
-1
100
AcDbLine
10
190.35358123
20
99.6196501856
11
190.35358123
21
93.9196501856
0
LINE
5
237
100
AcDbEntity
8
heavy
6
ByLayer
62
256
370
-1
100
AcDbLine
10
185.35358123
20
93.9196501856
11
190.35358123
21
93.9196501856
0
LINE
5
238
100
AcDbEntity
8
heavy
6
ByLayer
62
256
370
-1
100
AcDbLine
10
193.30358123
20
93.9196501856
11
225.35358123
21
93.9196501856
0
LINE
5
239
100
AcDbEntity
8
heavy
6
ByLayer
62
256
370
-1
100
AcDbLine
10
228.30358123
20
93.9196501856
11
260.35358123
21
93.9196501856
0
LINE
5
23A
100
AcDbEntity
8
heavy
6
ByLayer
62
256
370
-1
100
AcDbLine
10
263.30358123
20
93.9196501856
11
295.353581231
21
93.9196501856
0
LINE
5
23B
100
AcDbEntity
8
heavy
6
ByLayer
62
256
370
-1
100
AcDbLine
10
298.303581231
20
93.9196501856
11
330.353581231
21
93.9196501856
0
LINE
5
23C
100
AcDbEntity
8
heavy
6
ByLayer
62
256
370
-1
100
AcDbLine
10
333.303581231
20
93.9196501856
11
335.353581231
21
93.9196501856
0
LINE
5
23D
100
AcDbEntity
8
heavy
6
ByLayer
62
256
370
-1
100
AcDbLine
10
185.35358123
20
92.9196501856
11
185.35358123
21
93.9196501856
0
ARC
5
23E
100
AcDbEntity
8
heavy
6
ByLayer
62
256
370
-1
100
AcDbCircle
10
189.35358123
20
92.9196501856
40
4
100
AcDbArc
50
180
51
270
0
LINE
5
23F
100
AcDbEntity
8
heavy
6
ByLayer
62
256
370
-1
100
AcDbLine
10
189.35358123
20
88.9196501856
11
331.353581231
21
88.9196501856
0
LINE
5
240
100
AcDbEntity
8
heavy
6
ByLayer
62
256
370
-1
100
AcDbLine
10
335.353581231
20
92.9196501856
11
335.353581231
21
93.9196501856
0
ARC
5
241
100
AcDbEntity
8
heavy
6
ByLayer
62
256
370
-1
100
AcDbCircle
10
331.353581231
20
92.9196501856
40
4
100
AcDbArc
50
270
51
0
0
LINE
5
242
100
AcDbEntity
8
heavy
6
ByLayer
62
256
370
-1
100
AcDbLine
10
306.209305985
20
162.229788071
11
309.159305985
21
162.229788071
0
LINE
5
243
100
AcDbEntity
8
heavy
6
ByLayer
62
256
370
-1
100
AcDbLine
10
341.209305985
20
162.229788071
11
344.159305985
21
162.229788071
0
LINE
5
244
100
AcDbEntity
8
heavy
6
ByLayer
62
256
370
-1
100
AcDbLine
10
376.209305985
20
162.229788071
11
379.159305985
21
162.229788071
0
LINE
5
245
100
AcDbEntity
8
heavy
6
ByLayer
62
256
370
-1
100
AcDbLine
10
411.209305985
20
162.229788071
11
414.159305985
21
162.229788071
0
LINE
5
246
100
AcDbEntity
8
heavy
6
ByLayer
62
256
370
-1
100
AcDbLine
10
446.209305985
20
162.229788071
11
449.159305985
21
162.229788071
0
LINE
5
247
100
AcDbEntity
8
heavy
6
ByLayer
62
256
370
-1
100
AcDbLine
10
446.209305985
20
162.229788071
11
446.209305985
21
167.929788071
0
LINE
5
248
100
AcDbEntity
8
heavy
6
ByLayer
62
256
370
-1
100
AcDbLine
10
449.159305985
20
162.229788071
11
449.159305985
21
167.929788071
0
LINE
5
249
100
AcDbEntity
8
heavy
6
ByLayer
62
256
370
-1
100
AcDbLine
10
414.159305985
20
162.229788071
11
414.159305985
21
167.929788071
0
LINE
5
24A
100
AcDbEntity
8
heavy
6
ByLayer
62
256
370
-1
100
AcDbLine
10
411.209305985
20
162.229788071
11
411.209305985
21
167.929788071
0
LINE
5
24B
100
AcDbEntity
8
heavy
6
ByLayer
62
256
370
-1
100
AcDbLine
10
379.159305985
20
162.229788071
11
379.159305985
21
167.929788071
0
LINE
5
24C
100
AcDbEntity
8
heavy
6
ByLayer
62
256
370
-1
100
AcDbLine
10
376.209305985
20
162.229788071
11
376.209305985
21
167.929788071
0
LINE
5
24D
100
AcDbEntity
8
heavy
6
ByLayer
62
256
370
-1
100
AcDbLine
10
344.159305985
20
162.229788071
11
344.159305985
21
167.929788071
0
LINE
5
24E
100
AcDbEntity
8
heavy
6
ByLayer
62
256
370
-1
100
AcDbLine
10
341.209305985
20
162.229788071
11
341.209305985
21
167.929788071
0
LINE
5
24F
100
AcDbEntity
8
heavy
6
ByLayer
62
256
370
-1
100
AcDbLine
10
309.159305985
20
162.229788071
11
309.159305985
21
167.929788071
0
LINE
5
250
100
AcDbEntity
8
heavy
6
ByLayer
62
256
370
-1
100
AcDbLine
10
306.209305985
20
162.229788071
11
306.209305985
21
167.929788071
0
LINE
5
251
100
AcDbEntity
8
heavy
6
ByLayer
62
256
370
-1
100
AcDbLine
10
451.209305985
20
167.929788071
11
449.159305985
21
167.929788071
0
LINE
5
252
100
AcDbEntity
8
heavy
6
ByLayer
62
256
370
-1
100
AcDbLine
10
446.209305985
20
167.929788071
11
414.159305985
21
167.929788071
0
LINE
5
253
100
AcDbEntity
8
heavy
6
ByLayer
62
256
370
-1
100
AcDbLine
10
411.209305985
20
167.929788071
11
379.159305985
21
167.929788071
0
LINE
5
254
100
AcDbEntity
8
heavy
6
ByLayer
62
256
370
-1
100
AcDbLine
10
376.209305985
20
167.929788071
11
344.159305985
21
167.929788071
0
LINE
5
255
100
AcDbEntity
8
heavy
6
ByLayer
62
256
370
-1
100
AcDbLine
10
341.209305985
20
167.929788071
11
309.159305985
21
167.929788071
0
LINE
5
256
100
AcDbEntity
8
heavy
6
ByLayer
62
256
370
-1
100
AcDbLine
10
306.209305985
20
167.929788071
11
301.209305985
21
167.929788071
0
LINE
5
257
100
AcDbEntity
8
heavy
6
ByLayer
62
256
370
-1
100
AcDbLine
10
451.209305985
20
168.929788071
11
451.209305985
21
167.929788071
0
ARC
5
258
100
AcDbEntity
8
heavy
6
ByLayer
62
256
370
-1
100
AcDbCircle
10
447.209305985
20
168.929788071
40
4
100
AcDbArc
50
0
51
90
0
LINE
5
259
100
AcDbEntity
8
heavy
6
ByLayer
62
256
370
-1
100
AcDbLine
10
301.209305985
20
168.929788071
11
301.209305985
21
167.929788071
0
LINE
5
25A
100
AcDbEntity
8
heavy
6
ByLayer
62
256
370
-1
100
AcDbLine
10
447.209305985
20
172.929788071
11
305.209305985
21
172.929788071
0
ARC
5
25B
100
AcDbEntity
8
heavy
6
ByLayer
62
256
370
-1
100
AcDbCircle
10
305.209305985
20
168.929788071
40
4
100
AcDbArc
50
90
51
180
0
CIRCLE
5
25C
100
AcDbEntity
8
mount hole
6
ByLayer
62
256
370
-1
100
AcDbCircle
10
66.5
20
105
40
1.5
0
CIRCLE
5
25D
100
AcDbEntity
8
mount hole
6
ByLayer
62
256
370
-1
100
AcDbCircle
10
103.5
20
105
40
1.5
0
LINE
5
25E
100
AcDbEntity
8
mounts
6
ByLayer
62
256
370
-1
100
AcDbLine
10
66.5
20
109
11
103.5
21
109
0
LINE
5
25F
100
AcDbEntity
8
mounts
6
ByLayer
62
256
370
-1
100
AcDbLine
10
66.5
20
101
11
103.5
21
101
0
ARC
5
260
100
AcDbEntity
8
mounts
6
ByLayer
62
256
370
-1
100
AcDbCircle
10
66.5
20
105
40
4
100
AcDbArc
50
90
51
270
0
ARC
5
261
100
AcDbEntity
8
mounts
6
ByLayer
62
256
370
-1
100
AcDbCircle
10
103.5
20
105
40
4
100
AcDbArc
50
270
51
90
0
CIRCLE
5
262
100
AcDbEntity
8
mount hole
6
ByLayer
62
256
370
-1
100
AcDbCircle
10
66.5
20
115
40
1.5
0
CIRCLE
5
263
100
AcDbEntity
8
mount hole
6
ByLayer
62
256
370
-1
100
AcDbCircle
10
103.5
20
115
40
1.5
0
LINE
5
264
100
AcDbEntity
8
mounts
6
ByLayer
62
256
370
-1
100
AcDbLine
10
66.5
20
119
11
103.5
21
119
0
LINE
5
265
100
AcDbEntity
8
mounts
6
ByLayer
62
256
370
-1
100
AcDbLine
10
66.5
20
111
11
103.5
21
111
0
ARC
5
266
100
AcDbEntity
8
mounts
6
ByLayer
62
256
370
-1
100
AcDbCircle
10
66.5
20
115
40
4
100
AcDbArc
50
90
51
270
0
ARC
5
267
100
AcDbEntity
8
mounts
6
ByLayer
62
256
370
-1
100
AcDbCircle
10
103.5
20
115
40
4
100
AcDbArc
50
270
51
90
0
LINE
5
268
100
AcDbEntity
8
mount hole
6
ByLayer
62
256
370
-1
100
AcDbLine
10
213.790269645
20
117.550846118
11
213.790269645
21
125.050846118
0
LINE
5
269
100
AcDbEntity
8
mount hole
6
ByLayer
62
256
370
-1
100
AcDbLine
10
206.290269645
20
125.050846118
11
206.290269645
21
117.550846118
0
LINE
5
26A
100
AcDbEntity
8
mount hole
6
ByLayer
62
256
370
-1
100
AcDbLine
10
207.090269645
20
125.050846118
11
207.090269645
21
128.800846118
0
LINE
5
26B
100
AcDbEntity
8
mount hole
6
ByLayer
62
256
370
-1
100
AcDbLine
10
212.990269645
20
125.050846118
11
212.990269645
21
128.800846118
0
LINE
5
26C
100
AcDbEntity
8
mount hole
6
ByLayer
62
256
370
-1
100
AcDbLine
10
207.090269645
20
125.050846118
11
206.290269645
21
125.050846118
0
LINE
5
26D
100
AcDbEntity
8
mount hole
6
ByLayer
62
256
370
-1
100
AcDbLine
10
212.990269645
20
125.050846118
11
213.790269645
21
125.050846118
0
LINE
5
26E
100
AcDbEntity
8
mount hole
6
ByLayer
62
256
370
-1
100
AcDbLine
10
207.090269645
20
117.550846118
11
207.090269645
21
113.800846118
0
LINE
5
26F
100
AcDbEntity
8
mount hole
6
ByLayer
62
256
370
-1
100
AcDbLine
10
212.990269645
20
117.550846118
11
212.990269645
21
113.800846118
0
LINE
5
270
100
AcDbEntity
8
mount hole
6
ByLayer
62
256
370
-1
100
AcDbLine
10
207.090269645
20
117.550846118
11
206.290269645
21
117.550846118
0
LINE
5
271
100
AcDbEntity
8
mount hole
6
ByLayer
62
256
370
-1
100
AcDbLine
10
212.990269645
20
117.550846118
11
213.790269645
21
117.550846118
0
LINE
5
272
100
AcDbEntity
8
mount hole
6
ByLayer
62
256
370
-1
100
AcDbLine
10
367.05
20
98.638240353
11
372.95
21
98.638240353
0
LINE
5
273
100
AcDbEntity
8
mount hole
6
ByLayer
62
256
370
-1
100
AcDbLine
10
372.95
20
113.638240353
11
367.05
21
113.638240353
0
LINE
5
274
100
AcDbEntity
8
mount hole
6
ByLayer
62
256
370
-1
100
AcDbLine
10
373.75
20
102.388240353
11
373.75
21
109.888240353
0
LINE
5
275
100
AcDbEntity
8
mount hole
6
ByLayer
62
256
370
-1
100
AcDbLine
10
366.25
20
109.888240353
11
366.25
21
102.388240353
0
LINE
5
276
100
AcDbEntity
8
mount hole
6
ByLayer
62
256
370
-1
100
AcDbLine
10
367.05
20
109.888240353
11
367.05
21
113.638240353
0
LINE
5
277
100
AcDbEntity
8
mount hole
6
ByLayer
62
256
370
-1
100
AcDbLine
10
372.95
20
109.888240353
11
372.95
21
113.638240353
0
LINE
5
278
100
AcDbEntity
8
mount hole
6
ByLayer
62
256
370
-1
100
AcDbLine
10
367.05
20
109.888240353
11
366.25
21
109.888240353
0
LINE
5
279
100
AcDbEntity
8
mount hole
6
ByLayer
62
256
370
-1
100
AcDbLine
10
372.95
20
109.888240353
11
373.75
21
109.888240353
0
LINE
5
27A
100
AcDbEntity
8
mount hole
6
ByLayer
62
256
370
-1
100
AcDbLine
10
367.05
20
102.388240353
11
367.05
21
98.638240353
0
LINE
5
27B
100
AcDbEntity
8
mount hole
6
ByLayer
62
256
370
-1
100
AcDbLine
10
372.95
20
102.388240353
11
372.95
21
98.638240353
0
LINE
5
27C
100
AcDbEntity
8
mount hole
6
ByLayer
62
256
370
-1
100
AcDbLine
10
367.05
20
102.388240353
11
366.25
21
102.388240353
0
LINE
5
27D
100
AcDbEntity
8
mount hole
6
ByLayer
62
256
370
-1
100
AcDbLine
10
372.95
20
102.388240353
11
373.75
21
102.388240353
0
CIRCLE
5
27E
100
AcDbEntity
8
mount hole
6
ByLayer
62
256
370
-1
100
AcDbCircle
10
203.322755224
20
38.0183605388
40
1.375
0
CIRCLE
5
27F
100
AcDbEntity
8
mount hole
6
ByLayer
62
256
370
-1
100
AcDbCircle
10
204.383415396
20
25.6439918688
40
1.375
0
CIRCLE
5
280
100
AcDbEntity
8
mount hole
6
ByLayer
62
256
370
-1
100
AcDbCircle
10
216.757784066
20
24.5833316968
40
1.375
0
CIRCLE
5
281
100
AcDbEntity
8
mount hole
6
ByLayer
62
256
370
-1
100
AcDbCircle
10
215.697123894
20
36.9577003668
40
1.375
0
LINE
5
282
100
AcDbEntity
8
mount hole
6
ByLayer
62
256
370
-1
100
AcDbLine
10
207.090269645
20
23.8008461178
11
212.990269645
21
23.8008461178
0
LINE
5
283
100
AcDbEntity
8
mount hole
6
ByLayer
62
256
370
-1
100
AcDbLine
10
212.990269645
20
38.8008461178
11
207.090269645
21
38.8008461178
0
CIRCLE
5
284
100
AcDbEntity
8
mount hole
6
ByLayer
62
256
370
-1
100
AcDbCircle
10
363.282485579
20
9.4207259319
40
1.375
0
CIRCLE
5
285
100
AcDbEntity
8
mount hole
6
ByLayer
62
256
370
-1
100
AcDbCircle
10
364.34314575
20
21.7950946018
40
1.375
0
CIRCLE
5
286
100
AcDbEntity
8
mount hole
6
ByLayer
62
256
370
-1
100
AcDbCircle
10
376.717514421
20
22.8557547738
40
1.375
0
CIRCLE
5
287
100
AcDbEntity
8
mount hole
6
ByLayer
62
256
370
-1
100
AcDbCircle
10
375.656854249
20
10.4813861038
40
1.375
0
LINE
5
288
100
AcDbEntity
8
mount hole
6
ByLayer
62
256
370
-1
100
AcDbLine
10
213.790269645
20
27.5508461178
11
213.790269645
21
35.0508461178
0
LINE
5
289
100
AcDbEntity
8
mount hole
6
ByLayer
62
256
370
-1
100
AcDbLine
10
206.290269645
20
35.0508461178
11
206.290269645
21
27.5508461178
0
LINE
5
28A
100
AcDbEntity
8
mount hole
6
ByLayer
62
256
370
-1
100
AcDbLine
10
207.090269645
20
35.0508461178
11
207.090269645
21
38.8008461178
0
LINE
5
28B
100
AcDbEntity
8
mount hole
6
ByLayer
62
256
370
-1
100
AcDbLine
10
212.990269645
20
35.0508461178
11
212.990269645
21
38.8008461178
0
LINE
5
28C
100
AcDbEntity
8
mount hole
6
ByLayer
62
256
370
-1
100
AcDbLine
10
207.090269645
20
35.0508461178
11
206.290269645
21
35.0508461178
0
LINE
5
28D
100
AcDbEntity
8
mount hole
6
ByLayer
62
256
370
-1
100
AcDbLine
10
212.990269645
20
35.0508461178
11
213.790269645
21
35.0508461178
0
LINE
5
28E
100
AcDbEntity
8
mount hole
6
ByLayer
62
256
370
-1
100
AcDbLine
10
207.090269645
20
27.5508461178
11
207.090269645
21
23.8008461178
0
LINE
5
28F
100
AcDbEntity
8
mount hole
6
ByLayer
62
256
370
-1
100
AcDbLine
10
212.990269645
20
27.5508461178
11
212.990269645
21
23.8008461178
0
LINE
5
290
100
AcDbEntity
8
mount hole
6
ByLayer
62
256
370
-1
100
AcDbLine
10
207.090269645
20
27.5508461178
11
206.290269645
21
27.5508461178
0
LINE
5
291
100
AcDbEntity
8
mount hole
6
ByLayer
62
256
370
-1
100
AcDbLine
10
212.990269645
20
27.5508461178
11
213.790269645
21
27.5508461178
0
LINE
5
292
100
AcDbEntity
8
mount hole
6
ByLayer
62
256
370
-1
100
AcDbLine
10
367.05
20
8.6382403528
11
372.95
21
8.6382403528
0
LINE
5
293
100
AcDbEntity
8
mount hole
6
ByLayer
62
256
370
-1
100
AcDbLine
10
372.95
20
23.6382403528
11
367.05
21
23.6382403528
0
LINE
5
294
100
AcDbEntity
8
mount hole
6
ByLayer
62
256
370
-1
100
AcDbLine
10
373.75
20
12.3882403528
11
373.75
21
19.8882403528
0
LINE
5
295
100
AcDbEntity
8
mount hole
6
ByLayer
62
256
370
-1
100
AcDbLine
10
366.25
20
19.8882403528
11
366.25
21
12.3882403528
0
LINE
5
296
100
AcDbEntity
8
mount hole
6
ByLayer
62
256
370
-1
100
AcDbLine
10
367.05
20
19.8882403528
11
367.05
21
23.6382403528
0
LINE
5
297
100
AcDbEntity
8
mount hole
6
ByLayer
62
256
370
-1
100
AcDbLine
10
372.95
20
19.8882403528
11
372.95
21
23.6382403528
0
LINE
5
298
100
AcDbEntity
8
mount hole
6
ByLayer
62
256
370
-1
100
AcDbLine
10
367.05
20
19.8882403528
11
366.25
21
19.8882403528
0
LINE
5
299
100
AcDbEntity
8
mount hole
6
ByLayer
62
256
370
-1
100
AcDbLine
10
372.95
20
19.8882403528
11
373.75
21
19.8882403528
0
LINE
5
29A
100
AcDbEntity
8
mount hole
6
ByLayer
62
256
370
-1
100
AcDbLine
10
367.05
20
12.3882403528
11
367.05
21
8.6382403528
0
LINE
5
29B
100
AcDbEntity
8
mount hole
6
ByLayer
62
256
370
-1
100
AcDbLine
10
372.95
20
12.3882403528
11
372.95
21
8.6382403528
0
LINE
5
29C
100
AcDbEntity
8
mount hole
6
ByLayer
62
256
370
-1
100
AcDbLine
10
367.05
20
12.3882403528
11
366.25
21
12.3882403528
0
LINE
5
29D
100
AcDbEntity
8
mount hole
6
ByLayer
62
256
370
-1
100
AcDbLine
10
372.95
20
12.3882403528
11
373.75
21
12.3882403528
0
LINE
5
29E
100
AcDbEntity
8
frame
6
ByLayer
62
256
370
-1
100
AcDbLine
10
8.5
20
166
11
8.5
21
163.5
0
LINE
5
29F
100
AcDbEntity
8
frame
6
ByLayer
62
256
370
-1
100
AcDbLine
10
16.5
20
166
11
16.5
21
163.5
0
LINE
5
2A0
100
AcDbEntity
8
frame
6
ByLayer
62
256
370
-1
100
AcDbLine
10
5
20
166
11
8.5
21
166
0
LINE
5
2A1
100
AcDbEntity
8
frame
6
ByLayer
62
256
370
-1
100
AcDbLine
10
8.5
20
163.5
11
16.5
21
163.5
0
LINE
5
2A2
100
AcDbEntity
8
frame
6
ByLayer
62
256
370
-1
100
AcDbLine
10
16.5
20
166
11
20
21
166
0
LINE
5
2A3
100
AcDbEntity
8
frame
6
ByLayer
62
256
370
-1
100
AcDbLine
10
8.49999999977
20
76.000000002
11
8.49999999977
21
73.500000002
0
LINE
5
2A4
100
AcDbEntity
8
frame
6
ByLayer
62
256
370
-1
100
AcDbLine
10
16.4999999998
20
76.000000002
11
16.4999999998
21
73.500000002
0
LINE
5
2A5
100
AcDbEntity
8
frame
6
ByLayer
62
256
370
-1
100
AcDbLine
10
4.99999999977
20
76.000000002
11
8.49999999977
21
76.000000002
0
LINE
5
2A6
100
AcDbEntity
8
frame
6
ByLayer
62
256
370
-1
100
AcDbLine
10
8.49999999977
20
73.500000002
11
16.4999999998
21
73.500000002
0
LINE
5
2A7
100
AcDbEntity
8
frame
6
ByLayer
62
256
370
-1
100
AcDbLine
10
16.4999999998
20
76.000000002
11
19.9999999998
21
76.000000002
0
LINE
5
2A8
100
AcDbEntity
8
frame
6
ByLayer
62
256
370
-1
100
AcDbLine
10
441.5
20
166
11
441.5
21
163.5
0
LINE
5
2A9
100
AcDbEntity
8
frame
6
ByLayer
62
256
370
-1
100
AcDbLine
10
433.5
20
166
11
433.5
21
163.5
0
LINE
5
2AA
100
AcDbEntity
8
frame
6
ByLayer
62
256
370
-1
100
AcDbLine
10
445
20
166
11
441.5
21
166
0
LINE
5
2AB
100
AcDbEntity
8
frame
6
ByLayer
62
256
370
-1
100
AcDbLine
10
441.5
20
163.5
11
433.5
21
163.5
0
LINE
5
2AC
100
AcDbEntity
8
frame
6
ByLayer
62
256
370
-1
100
AcDbLine
10
433.5
20
166
11
430
21
166
0
LINE
5
2AD
100
AcDbEntity
8
frame
6
ByLayer
62
256
370
-1
100
AcDbLine
10
441.5
20
76.000000002
11
441.5
21
73.500000002
0
LINE
5
2AE
100
AcDbEntity
8
frame
6
ByLayer
62
256
370
-1
100
AcDbLine
10
433.5
20
76.000000002
11
433.5
21
73.500000002
0
LINE
5
2AF
100
AcDbEntity
8
frame
6
ByLayer
62
256
370
-1
100
AcDbLine
10
445
20
76.000000002
11
441.5
21
76.000000002
0
LINE
5
2B0
100
AcDbEntity
8
frame
6
ByLayer
62
256
370
-1
100
AcDbLine
10
441.5
20
73.500000002
11
433.5
21
73.500000002
0
LINE
5
2B1
100
AcDbEntity
8
frame
6
ByLayer
62
256
370
-1
100
AcDbLine
10
433.5
20
76.000000002
11
430
21
76.000000002
0
LINE
5
2B2
100
AcDbEntity
8
frame
6
ByLayer
62
256
370
-1
100
AcDbLine
10
185
20
108.95
11
185
21
101.95
0
LINE
5
2B3
100
AcDbEntity
8
frame
6
ByLayer
62
256
370
-1
100
AcDbLine
10
265
20
108.95
11
265
21
101.95
0
LINE
5
2B4
100
AcDbEntity
8
frame
6
ByLayer
62
256
370
-1
100
AcDbLine
10
178
20
108.95
11
185
21
108.95
0
LINE
5
2B5
100
AcDbEntity
8
frame
6
ByLayer
62
256
370
-1
100
AcDbLine
10
178
20
145
11
178
21
108.95
0
LINE
5
2B6
100
AcDbEntity
8
frame
6
ByLayer
62
256
370
-1
100
AcDbLine
10
272
20
108.95
11
265
21
108.95
0
LINE
5
2B7
100
AcDbEntity
8
frame
6
ByLayer
62
256
370
-1
100
AcDbLine
10
272
20
145
11
272
21
108.95
0
LINE
5
2B8
100
AcDbEntity
8
frame
6
ByLayer
62
256
370
-1
100
AcDbLine
10
178
20
145
11
222.05
21
145
0
LINE
5
2B9
100
AcDbEntity
8
frame
6
ByLayer
62
256
370
-1
100
AcDbLine
10
227.95
20
145
11
272
21
145
0
LINE
5
2BA
100
AcDbEntity
8
frame
6
ByLayer
62
256
370
-1
100
AcDbLine
10
185
20
18.95
11
185
21
11.95
0
LINE
5
2BB
100
AcDbEntity
8
frame
6
ByLayer
62
256
370
-1
100
AcDbLine
10
265
20
18.95
11
265
21
11.95
0
LINE
5
2BC
100
AcDbEntity
8
frame
6
ByLayer
62
256
370
-1
100
AcDbLine
10
178
20
18.95
11
185
21
18.95
0
LINE
5
2BD
100
AcDbEntity
8
frame
6
ByLayer
62
256
370
-1
100
AcDbLine
10
178
20
55
11
178
21
18.95
0
LINE
5
2BE
100
AcDbEntity
8
frame
6
ByLayer
62
256
370
-1
100
AcDbLine
10
272
20
18.95
11
265
21
18.95
0
LINE
5
2BF
100
AcDbEntity
8
frame
6
ByLayer
62
256
370
-1
100
AcDbLine
10
272
20
55
11
272
21
18.95
0
LINE
5
2C0
100
AcDbEntity
8
frame
6
ByLayer
62
256
370
-1
100
AcDbLine
10
178
20
55
11
272
21
55
0
ARC
5
2C1
100
AcDbEntity
8
plate-bottom
6
ByLayer
62
256
370
-1
100
AcDbCircle
10
252.074639149
20
-97.3761543393
40
1
100
AcDbArc
50
315
51
45
0
LINE
5
2C2
100
AcDbEntity
8
plate-bottom
6
ByLayer
62
256
370
-1
100
AcDbLine
10
252.78174593
20
-96.6690475581
11
252.78174593
21
-96.6690475581
0
ARC
5
2C3
100
AcDbEntity
8
plate-bottom
6
ByLayer
62
256
370
-1
100
AcDbCircle
10
252.074639149
20
-97.3761543393
40
1
100
AcDbArc
50
45
51
135
0
ARC
5
2C4
100
AcDbEntity
8
plate-bottom
6
ByLayer
62
256
370
-1
100
AcDbCircle
10
242.175144212
20
-97.3761543391
40
1
100
AcDbArc
50
315
51
45
0
LINE
5
2C5
100
AcDbEntity
8
plate-bottom
6
ByLayer
62
256
370
-1
100
AcDbLine
10
242.882250994
20
-96.6690475584
11
242.882250994
21
-96.6690475584
0
ARC
5
2C6
100
AcDbEntity
8
plate-bottom
6
ByLayer
62
256
370
-1
100
AcDbCircle
10
242.175144212
20
-97.3761543391
40
1
100
AcDbArc
50
45
51
135
0
LINE
5
2C7
100
AcDbEntity
8
plate-bottom
6
ByLayer
62
256
370
-1
100
AcDbLine
10
233.08326112
20
-117.78174593
11
252.781745931
21
-98.0832611213
0
ARC
5
2C8
100
AcDbEntity
8
plate-bottom
6
ByLayer
62
256
370
-1
100
AcDbCircle
10
232.376154339
20
-117.074639149
40
1
100
AcDbArc
50
225
51
315
0
LINE
5
2C9
100
AcDbEntity
8
plate-bottom
6
ByLayer
62
256
370
-1
100
AcDbLine
10
231.669047558
20
-117.78174593
11
231.669047558
21
-117.78174593
0
LINE
5
2CA
100
AcDbEntity
8
plate-bottom
6
ByLayer
62
256
370
-1
100
AcDbLine
10
231.669047558
20
-116.367532368
11
251.367532368
21
-96.6690475583
0
ARC
5
2CB
100
AcDbEntity
8
plate-bottom
6
ByLayer
62
256
370
-1
100
AcDbCircle
10
232.376154339
20
-117.074639149
40
1
100
AcDbArc
50
135
51
225
0
LINE
5
2CC
100
AcDbEntity
8
plate-bottom
6
ByLayer
62
256
370
-1
100
AcDbLine
10
233.083261121
20
-107.882250994
11
242.882250994
21
-98.0832611211
0
ARC
5
2CD
100
AcDbEntity
8
plate-bottom
6
ByLayer
62
256
370
-1
100
AcDbCircle
10
232.37615434
20
-107.175144213
40
1
100
AcDbArc
50
225
51
315
0
LINE
5
2CE
100
AcDbEntity
8
plate-bottom
6
ByLayer
62
256
370
-1
100
AcDbLine
10
231.669047558
20
-107.882250994
11
231.669047558
21
-107.882250994
0
LINE
5
2CF
100
AcDbEntity
8
plate-bottom
6
ByLayer
62
256
370
-1
100
AcDbLine
10
231.669047558
20
-106.468037431
11
241.468037431
21
-96.6690475581
0
ARC
5
2D0
100
AcDbEntity
8
plate-bottom
6
ByLayer
62
256
370
-1
100
AcDbCircle
10
232.37615434
20
-107.175144213
40
1
100
AcDbArc
50
135
51
225
0
LINE
5
2D1
100
AcDbEntity
8
plate-bottom
6
ByLayer
62
256
370
-1
100
AcDbLine
10
238.08326112
20
-122.78174593
11
257.781745931
21
-103.083261121
0
LINE
5
2D2
100
AcDbEntity
8
plate-bottom
6
ByLayer
62
256
370
-1
100
AcDbLine
10
236.669047558
20
-121.367532368
11
256.367532368
21
-101.669047558
0
ARC
5
2D3
100
AcDbEntity
8
plate-bottom
6
ByLayer
62
256
370
-1
100
AcDbCircle
10
262.074639149
20
-97.3761543392
40
1
100
AcDbArc
50
315
51
45
0
ARC
5
2D4
100
AcDbEntity
8
plate-bottom
6
ByLayer
62
256
370
-1
100
AcDbCircle
10
262.074639149
20
-97.3761543392
40
1
100
AcDbArc
50
45
51
135
0
LINE
5
2D5
100
AcDbEntity
8
plate-bottom
6
ByLayer
62
256
370
-1
100
AcDbLine
10
257.781745931
20
-103.083261121
11
262.781745931
21
-98.0832611212
0
LINE
5
2D6
100
AcDbEntity
8
plate-bottom
6
ByLayer
62
256
370
-1
100
AcDbLine
10
256.367532368
20
-101.669047558
11
261.367532368
21
-96.6690475582
0
ARC
5
2D7
100
AcDbEntity
8
plate-bottom
6
ByLayer
62
256
370
-1
100
AcDbCircle
10
232.376154339
20
-127.074639149
40
1
100
AcDbArc
50
225
51
315
0
ARC
5
2D8
100
AcDbEntity
8
plate-bottom
6
ByLayer
62
256
370
-1
100
AcDbCircle
10
232.376154339
20
-127.074639149
40
1
100
AcDbArc
50
135
51
225
0
LINE
5
2D9
100
AcDbEntity
8
plate-bottom
6
ByLayer
62
256
370
-1
100
AcDbLine
10
238.08326112
20
-122.78174593
11
233.08326112
21
-127.78174593
0
LINE
5
2DA
100
AcDbEntity
8
plate-bottom
6
ByLayer
62
256
370
-1
100
AcDbLine
10
236.669047558
20
-121.367532368
11
231.669047558
21
-126.367532368
0
ARC
5
2DB
100
AcDbEntity
8
plate-bottom
6
ByLayer
62
256
370
-1
100
AcDbCircle
10
232.376154339
20
-74.7487373411
40
1
100
AcDbArc
50
45
51
135
0
LINE
5
2DC
100
AcDbEntity
8
plate-bottom
6
ByLayer
62
256
370
-1
100
AcDbLine
10
231.669047558
20
-74.0416305601
11
231.669047558
21
-74.0416305601
0
ARC
5
2DD
100
AcDbEntity
8
plate-bottom
6
ByLayer
62
256
370
-1
100
AcDbCircle
10
232.376154339
20
-74.7487373411
40
1
100
AcDbArc
50
135
51
225
0
LINE
5
2DE
100
AcDbEntity
8
plate-bottom
6
ByLayer
62
256
370
-1
100
AcDbLine
10
242.882250994
20
-83.8406204335
11
233.08326112
21
-74.0416305599
0
ARC
5
2DF
100
AcDbEntity
8
plate-bottom
6
ByLayer
62
256
370
-1
100
AcDbCircle
10
242.175144213
20
-84.5477272151
40
1
100
AcDbArc
50
315
51
45
0
LINE
5
2E0
100
AcDbEntity
8
plate-bottom
6
ByLayer
62
256
370
-1
100
AcDbLine
10
242.882250994
20
-85.2548339961
11
242.882250994
21
-85.2548339961
0
LINE
5
2E1
100
AcDbEntity
8
plate-bottom
6
ByLayer
62
256
370
-1
100
AcDbLine
10
241.468037432
20
-85.2548339963
11
231.669047558
21
-75.4558441228
0
ARC
5
2E2
100
AcDbEntity
8
plate-bottom
6
ByLayer
62
256
370
-1
100
AcDbCircle
10
242.175144213
20
-84.5477272151
40
1
100
AcDbArc
50
225
51
315
0
LINE
5
2E3
100
AcDbEntity
8
plate-bottom
6
ByLayer
62
256
370
-1
100
AcDbLine
10
257.78174593
20
-78.840620433
11
238.083261121
21
-59.1421356241
0
LINE
5
2E4
100
AcDbEntity
8
plate-bottom
6
ByLayer
62
256
370
-1
100
AcDbLine
10
256.367532368
20
-80.254833996
11
236.669047558
21
-60.5563491859
0
ARC
5
2E5
100
AcDbEntity
8
plate-bottom
6
ByLayer
62
256
370
-1
100
AcDbCircle
10
232.376154339
20
-54.8492424055
40
1
100
AcDbArc
50
45
51
135
0
ARC
5
2E6
100
AcDbEntity
8
plate-bottom
6
ByLayer
62
256
370
-1
100
AcDbCircle
10
232.376154339
20
-54.8492424055
40
1
100
AcDbArc
50
135
51
225
0
LINE
5
2E7
100
AcDbEntity
8
plate-bottom
6
ByLayer
62
256
370
-1
100
AcDbLine
10
238.083261121
20
-59.1421356241
11
233.083261121
21
-54.1421356241
0
LINE
5
2E8
100
AcDbEntity
8
plate-bottom
6
ByLayer
62
256
370
-1
100
AcDbLine
10
236.669047558
20
-60.5563491859
11
231.669047558
21
-55.5563491859
0
ARC
5
2E9
100
AcDbEntity
8
plate-bottom
6
ByLayer
62
256
370
-1
100
AcDbCircle
10
262.07463915
20
-84.5477272152
40
1
100
AcDbArc
50
315
51
45
0
ARC
5
2EA
100
AcDbEntity
8
plate-bottom
6
ByLayer
62
256
370
-1
100
AcDbCircle
10
262.07463915
20
-84.5477272152
40
1
100
AcDbArc
50
225
51
315
0
LINE
5
2EB
100
AcDbEntity
8
plate-bottom
6
ByLayer
62
256
370
-1
100
AcDbLine
10
257.78174593
20
-78.840620433
11
262.78174593
21
-83.840620433
0
LINE
5
2EC
100
AcDbEntity
8
plate-bottom
6
ByLayer
62
256
370
-1
100
AcDbLine
10
256.367532368
20
-80.254833996
11
261.367532368
21
-85.2548339959
0
ARC
5
2ED
100
AcDbEntity
8
plate-bottom
6
ByLayer
62
256
370
-1
100
AcDbCircle
10
209.748737341
20
-84.5477272154
40
1
100
AcDbArc
50
135
51
225
0
LINE
5
2EE
100
AcDbEntity
8
plate-bottom
6
ByLayer
62
256
370
-1
100
AcDbLine
10
209.04163056
20
-85.2548339958
11
209.04163056
21
-85.2548339958
0
ARC
5
2EF
100
AcDbEntity
8
plate-bottom
6
ByLayer
62
256
370
-1
100
AcDbCircle
10
209.748737341
20
-84.5477272154
40
1
100
AcDbArc
50
225
51
315
0
LINE
5
2F0
100
AcDbEntity
8
plate-bottom
6
ByLayer
62
256
370
-1
100
AcDbLine
10
218.840620433
20
-74.0416305601
11
209.04163056
21
-83.8406204331
0
ARC
5
2F1
100
AcDbEntity
8
plate-bottom
6
ByLayer
62
256
370
-1
100
AcDbCircle
10
219.547727215
20
-74.7487373409
40
1
100
AcDbArc
50
45
51
135
0
LINE
5
2F2
100
AcDbEntity
8
plate-bottom
6
ByLayer
62
256
370
-1
100
AcDbLine
10
220.254833996
20
-74.0416305604
11
220.254833996
21
-74.0416305604
0
LINE
5
2F3
100
AcDbEntity
8
plate-bottom
6
ByLayer
62
256
370
-1
100
AcDbLine
10
220.254833996
20
-75.4558441231
11
210.455844123
21
-85.2548339961
0
ARC
5
2F4
100
AcDbEntity
8
plate-bottom
6
ByLayer
62
256
370
-1
100
AcDbCircle
10
219.547727215
20
-74.7487373409
40
1
100
AcDbArc
50
315
51
45
0
LINE
5
2F5
100
AcDbEntity
8
plate-bottom
6
ByLayer
62
256
370
-1
100
AcDbLine
10
213.840620433
20
-59.1421356238
11
194.142135624
21
-78.8406204334
0
LINE
5
2F6
100
AcDbEntity
8
plate-bottom
6
ByLayer
62
256
370
-1
100
AcDbLine
10
215.254833996
20
-60.5563491863
11
195.556349186
21
-80.254833996
0
ARC
5
2F7
100
AcDbEntity
8
plate-bottom
6
ByLayer
62
256
370
-1
100
AcDbCircle
10
189.849242405
20
-84.547727215
40
1
100
AcDbArc
50
135
51
225
0
ARC
5
2F8
100
AcDbEntity
8
plate-bottom
6
ByLayer
62
256
370
-1
100
AcDbCircle
10
189.849242405
20
-84.547727215
40
1
100
AcDbArc
50
225
51
315
0
LINE
5
2F9
100
AcDbEntity
8
plate-bottom
6
ByLayer
62
256
370
-1
100
AcDbLine
10
194.142135624
20
-78.8406204334
11
189.142135624
21
-83.8406204328
0
LINE
5
2FA
100
AcDbEntity
8
plate-bottom
6
ByLayer
62
256
370
-1
100
AcDbLine
10
195.556349186
20
-80.254833996
11
190.556349186
21
-85.254833996
0
ARC
5
2FB
100
AcDbEntity
8
plate-bottom
6
ByLayer
62
256
370
-1
100
AcDbCircle
10
219.547727215
20
-54.8492424052
40
1
100
AcDbArc
50
45
51
135
0
ARC
5
2FC
100
AcDbEntity
8
plate-bottom
6
ByLayer
62
256
370
-1
100
AcDbCircle
10
219.547727215
20
-54.8492424052
40
1
100
AcDbArc
50
315
51
45
0
LINE
5
2FD
100
AcDbEntity
8
plate-bottom
6
ByLayer
62
256
370
-1
100
AcDbLine
10
213.840620433
20
-59.1421356238
11
218.840620433
21
-54.1421356244
0
LINE
5
2FE
100
AcDbEntity
8
plate-bottom
6
ByLayer
62
256
370
-1
100
AcDbLine
10
215.254833996
20
-60.5563491863
11
220.254833996
21
-55.5563491862
0
ARC
5
2FF
100
AcDbEntity
8
plate-bottom
6
ByLayer
62
256
370
-1
100
AcDbCircle
10
219.547727215
20
-107.175144213
40
1
100
AcDbArc
50
225
51
315
0
LINE
5
300
100
AcDbEntity
8
plate-bottom
6
ByLayer
62
256
370
-1
100
AcDbLine
10
220.254833996
20
-107.882250994
11
220.254833996
21
-107.882250994
0
ARC
5
301
100
AcDbEntity
8
plate-bottom
6
ByLayer
62
256
370
-1
100
AcDbCircle
10
219.547727215
20
-107.175144213
40
1
100
AcDbArc
50
315
51
45
0
LINE
5
302
100
AcDbEntity
8
plate-bottom
6
ByLayer
62
256
370
-1
100
AcDbLine
10
209.04163056
20
-98.0832611208
11
218.840620434
21
-107.882250994
0
ARC
5
303
100
AcDbEntity
8
plate-bottom
6
ByLayer
62
256
370
-1
100
AcDbCircle
10
209.748737341
20
-97.3761543391
40
1
100
AcDbArc
50
135
51
225
0
LINE
5
304
100
AcDbEntity
8
plate-bottom
6
ByLayer
62
256
370
-1
100
AcDbLine
10
209.04163056
20
-96.6690475581
11
209.04163056
21
-96.6690475581
0
LINE
5
305
100
AcDbEntity
8
plate-bottom
6
ByLayer
62
256
370
-1
100
AcDbLine
10
210.455844122
20
-96.6690475579
11
220.254833996
21
-106.468037431
0
ARC
5
306
100
AcDbEntity
8
plate-bottom
6
ByLayer
62
256
370
-1
100
AcDbCircle
10
209.748737341
20
-97.3761543391
40
1
100
AcDbArc
50
45
51
135
0
LINE
5
307
100
AcDbEntity
8
plate-bottom
6
ByLayer
62
256
370
-1
100
AcDbLine
10
194.142135624
20
-103.083261121
11
213.840620433
21
-122.78174593
0
LINE
5
308
100
AcDbEntity
8
plate-bottom
6
ByLayer
62
256
370
-1
100
AcDbLine
10
195.556349186
20
-101.669047558
11
215.254833996
21
-121.367532368
0
ARC
5
309
100
AcDbEntity
8
plate-bottom
6
ByLayer
62
256
370
-1
100
AcDbCircle
10
219.547727214
20
-127.074639149
40
1
100
AcDbArc
50
225
51
315
0
ARC
5
30A
100
AcDbEntity
8
plate-bottom
6
ByLayer
62
256
370
-1
100
AcDbCircle
10
219.547727214
20
-127.074639149
40
1
100
AcDbArc
50
315
51
45
0
LINE
5
30B
100
AcDbEntity
8
plate-bottom
6
ByLayer
62
256
370
-1
100
AcDbLine
10
213.840620433
20
-122.78174593
11
218.840620433
21
-127.78174593
0
LINE
5
30C
100
AcDbEntity
8
plate-bottom
6
ByLayer
62
256
370
-1
100
AcDbLine
10
215.254833996
20
-121.367532368
11
220.254833996
21
-126.367532368
0
ARC
5
30D
100
AcDbEntity
8
plate-bottom
6
ByLayer
62
256
370
-1
100
AcDbCircle
10
189.849242405
20
-97.3761543388
40
1
100
AcDbArc
50
135
51
225
0
ARC
5
30E
100
AcDbEntity
8
plate-bottom
6
ByLayer
62
256
370
-1
100
AcDbCircle
10
189.849242405
20
-97.3761543388
40
1
100
AcDbArc
50
45
51
135
0
LINE
5
30F
100
AcDbEntity
8
plate-bottom
6
ByLayer
62
256
370
-1
100
AcDbLine
10
194.142135624
20
-103.083261121
11
189.142135624
21
-98.0832611212
0
LINE
5
310
100
AcDbEntity
8
plate-bottom
6
ByLayer
62
256
370
-1
100
AcDbLine
10
195.556349186
20
-101.669047558
11
190.556349186
21
-96.6690475583
0
ARC
5
311
100
AcDbEntity
8
plate-bottom
6
ByLayer
62
256
370
-1
100
AcDbCircle
10
283.133513652
20
-110.961940777
40
2
100
AcDbArc
50
315
51
45
0
LINE
5
312
100
AcDbEntity
8
plate-bottom
6
ByLayer
62
256
370
-1
100
AcDbLine
10
284.547727214
20
-112.37615434
11
247.37615434
21
-149.547727214
0
ARC
5
313
100
AcDbEntity
8
plate-bottom
6
ByLayer
62
256
370
-1
100
AcDbCircle
10
245.961940777
20
-148.133513652
40
2
100
AcDbArc
50
225
51
315
0
LINE
5
314
100
AcDbEntity
8
plate-bottom
6
ByLayer
62
256
370
-1
100
AcDbLine
10
244.547727215
20
-149.547727214
11
241.547727215
21
-146.547727214
0
ARC
5
315
100
AcDbEntity
8
plate-bottom
6
ByLayer
62
256
370
-1
100
AcDbCircle
10
242.961940777
20
-145.133513652
40
2
100
AcDbArc
50
180
51
225
0
LINE
5
316
100
AcDbEntity
8
plate-bottom
6
ByLayer
62
256
370
-1
100
AcDbLine
10
240.961940777
20
-126.790367902
11
240.961940777
21
-145.133513652
0
ARC
5
317
100
AcDbEntity
8
plate-bottom
6
ByLayer
62
256
370
-1
100
AcDbCircle
10
242.961940777
20
-126.790367902
40
2
100
AcDbArc
50
135
51
180
0
LINE
5
318
100
AcDbEntity
8
plate-bottom
6
ByLayer
62
256
370
-1
100
AcDbLine
10
281.547727214
20
-106.547727215
11
284.547727214
21
-109.547727215
0
ARC
5
319
100
AcDbEntity
8
plate-bottom
6
ByLayer
62
256
370
-1
100
AcDbCircle
10
280.133513652
20
-107.961940777
40
2
100
AcDbArc
50
45
51
90
0
LINE
5
31A
100
AcDbEntity
8
plate-bottom
6
ByLayer
62
256
370
-1
100
AcDbLine
10
280.133513652
20
-105.961940777
11
261.790367902
21
-105.961940777
0
LINE
5
31B
100
AcDbEntity
8
plate-bottom
6
ByLayer
62
256
370
-1
100
AcDbLine
10
260.376154339
20
-106.547727215
11
241.547727215
21
-125.376154339
0
ARC
5
31C
100
AcDbEntity
8
plate-bottom
6
ByLayer
62
256
370
-1
100
AcDbCircle
10
261.790367902
20
-107.961940777
40
2
100
AcDbArc
50
90
51
135
0
ARC
5
31D
100
AcDbEntity
8
plate-bottom
6
ByLayer
62
256
370
-1
100
AcDbCircle
10
296.961940777
20
-104.305086527
40
4
100
AcDbArc
50
315
51
360
0
LINE
5
31E
100
AcDbEntity
8
plate-bottom
6
ByLayer
62
256
370
-1
100
AcDbLine
10
300.961940777
20
-104.305086528
11
300.961940777
21
-77.618795026
0
ARC
5
31F
100
AcDbEntity
8
plate-bottom
6
ByLayer
62
256
370
-1
100
AcDbCircle
10
296.961940777
20
-77.6187950262
40
4
100
AcDbArc
50
360
51
45
0
LINE
5
320
100
AcDbEntity
8
plate-bottom
6
ByLayer
62
256
370
-1
100
AcDbLine
10
242.133513652
20
-17.1335136519
11
299.790367902
21
-74.790367902
0
ARC
5
321
100
AcDbEntity
8
plate-bottom
6
ByLayer
62
256
370
-1
100
AcDbCircle
10
239.305086527
20
-19.9619407773
40
4
100
AcDbArc
50
45
51
90
0
LINE
5
322
100
AcDbEntity
8
plate-bottom
6
ByLayer
62
256
370
-1
100
AcDbLine
10
239.305086528
20
-15.961940777
11
212.618795026
21
-15.961940777
0
ARC
5
323
100
AcDbEntity
8
plate-bottom
6
ByLayer
62
256
370
-1
100
AcDbCircle
10
212.618795027
20
-19.9619407773
40
4
100
AcDbArc
50
90
51
135
0
LINE
5
324
100
AcDbEntity
8
plate-bottom
6
ByLayer
62
256
370
-1
100
AcDbLine
10
152.133513652
20
-74.7903679018
11
209.790367902
21
-17.1335136519
0
ARC
5
325
100
AcDbEntity
8
plate-bottom
6
ByLayer
62
256
370
-1
100
AcDbCircle
10
154.961940777
20
-77.6187950272
40
4
100
AcDbArc
50
135
51
180
0
LINE
5
326
100
AcDbEntity
8
plate-bottom
6
ByLayer
62
256
370
-1
100
AcDbLine
10
150.961940777
20
-77.6187950258
11
150.961940777
21
-104.305086528
0
ARC
5
327
100
AcDbEntity
8
plate-bottom
6
ByLayer
62
256
370
-1
100
AcDbCircle
10
154.961940777
20
-104.305086527
40
4
100
AcDbArc
50
180
51
225
0
LINE
5
328
100
AcDbEntity
8
plate-bottom
6
ByLayer
62
256
370
-1
100
AcDbLine
10
209.790367902
20
-164.790367902
11
152.133513652
21
-107.133513652
0
ARC
5
329
100
AcDbEntity
8
plate-bottom
6
ByLayer
62
256
370
-1
100
AcDbCircle
10
212.618795026
20
-161.961940777
40
4
100
AcDbArc
50
225
51
270
0
LINE
5
32A
100
AcDbEntity
8
plate-bottom
6
ByLayer
62
256
370
-1
100
AcDbLine
10
212.618795026
20
-165.961940777
11
239.305086528
21
-165.961940777
0
LINE
5
32B
100
AcDbEntity
8
plate-bottom
6
ByLayer
62
256
370
-1
100
AcDbLine
10
299.790367902
20
-107.133513652
11
242.133513652
21
-164.790367902
0
ARC
5
32C
100
AcDbEntity
8
plate-bottom
6
ByLayer
62
256
370
-1
100
AcDbCircle
10
239.305086527
20
-161.961940777
40
4
100
AcDbArc
50
270
51
315
0
ARC
5
32D
100
AcDbEntity
8
plate-bottom
6
ByLayer
62
256
370
-1
100
AcDbCircle
10
245.961940777
20
-33.7903679019
40
2
100
AcDbArc
50
45
51
135
0
LINE
5
32E
100
AcDbEntity
8
plate-bottom
6
ByLayer
62
256
370
-1
100
AcDbLine
10
247.37615434
20
-32.37615434
11
284.547727215
21
-69.5477272151
0
ARC
5
32F
100
AcDbEntity
8
plate-bottom
6
ByLayer
62
256
370
-1
100
AcDbCircle
10
283.133513652
20
-70.9619407769
40
2
100
AcDbArc
50
315
51
45
0
LINE
5
330
100
AcDbEntity
8
plate-bottom
6
ByLayer
62
256
370
-1
100
AcDbLine
10
284.547727215
20
-72.3761543395
11
281.547727215
21
-75.3761543394
0
ARC
5
331
100
AcDbEntity
8
plate-bottom
6
ByLayer
62
256
370
-1
100
AcDbCircle
10
280.133513652
20
-73.9619407769
40
2
100
AcDbArc
50
270
51
315
0
LINE
5
332
100
AcDbEntity
8
plate-bottom
6
ByLayer
62
256
370
-1
100
AcDbLine
10
261.790367902
20
-75.9619407772
11
280.133513652
21
-75.9619407773
0
ARC
5
333
100
AcDbEntity
8
plate-bottom
6
ByLayer
62
256
370
-1
100
AcDbCircle
10
261.790367902
20
-73.9619407768
40
2
100
AcDbArc
50
225
51
270
0
LINE
5
334
100
AcDbEntity
8
plate-bottom
6
ByLayer
62
256
370
-1
100
AcDbLine
10
241.547727215
20
-35.3761543398
11
244.547727215
21
-32.3761543399
0
ARC
5
335
100
AcDbEntity
8
plate-bottom
6
ByLayer
62
256
370
-1
100
AcDbCircle
10
242.961940777
20
-36.7903679018
40
2
100
AcDbArc
50
135
51
180
0
LINE
5
336
100
AcDbEntity
8
plate-bottom
6
ByLayer
62
256
370
-1
100
AcDbLine
10
240.961940777
20
-36.7903679023
11
240.961940777
21
-55.1335136522
0
LINE
5
337
100
AcDbEntity
8
plate-bottom
6
ByLayer
62
256
370
-1
100
AcDbLine
10
241.547727214
20
-56.5477272148
11
260.376154339
21
-75.3761543399
0
ARC
5
338
100
AcDbEntity
8
plate-bottom
6
ByLayer
62
256
370
-1
100
AcDbCircle
10
242.961940777
20
-55.1335136517
40
2
100
AcDbArc
50
180
51
225
0
ARC
5
339
100
AcDbEntity
8
plate-bottom
6
ByLayer
62
256
370
-1
100
AcDbCircle
10
168.790367902
20
-70.9619407766
40
2
100
AcDbArc
50
135
51
225
0
LINE
5
33A
100
AcDbEntity
8
plate-bottom
6
ByLayer
62
256
370
-1
100
AcDbLine
10
167.37615434
20
-69.5477272142
11
204.547727214
21
-32.3761543396
0
ARC
5
33B
100
AcDbEntity
8
plate-bottom
6
ByLayer
62
256
370
-1
100
AcDbCircle
10
205.961940777
20
-33.790367902
40
2
100
AcDbArc
50
45
51
135
0
LINE
5
33C
100
AcDbEntity
8
plate-bottom
6
ByLayer
62
256
370
-1
100
AcDbLine
10
207.376154339
20
-32.3761543396
11
210.376154339
21
-35.3761543395
0
ARC
5
33D
100
AcDbEntity
8
plate-bottom
6
ByLayer
62
256
370
-1
100
AcDbCircle
10
208.961940777
20
-36.7903679019
40
2
100
AcDbArc
50
360
51
45
0
LINE
5
33E
100
AcDbEntity
8
plate-bottom
6
ByLayer
62
256
370
-1
100
AcDbLine
10
210.961940777
20
-55.1335136517
11
210.961940777
21
-36.7903679019
0
ARC
5
33F
100
AcDbEntity
8
plate-bottom
6
ByLayer
62
256
370
-1
100
AcDbCircle
10
208.961940777
20
-55.1335136525
40
2
100
AcDbArc
50
315
51
360
0
LINE
5
340
100
AcDbEntity
8
plate-bottom
6
ByLayer
62
256
370
-1
100
AcDbLine
10
170.37615434
20
-75.3761543389
11
167.37615434
21
-72.376154339
0
ARC
5
341
100
AcDbEntity
8
plate-bottom
6
ByLayer
62
256
370
-1
100
AcDbCircle
10
171.790367902
20
-73.9619407765
40
2
100
AcDbArc
50
225
51
270
0
LINE
5
342
100
AcDbEntity
8
plate-bottom
6
ByLayer
62
256
370
-1
100
AcDbLine
10
171.790367902
20
-75.9619407774
11
190.133513652
21
-75.9619407774
0
LINE
5
343
100
AcDbEntity
8
plate-bottom
6
ByLayer
62
256
370
-1
100
AcDbLine
10
191.547727216
20
-75.3761543403
11
210.37615434
21
-56.5477272155
0
ARC
5
344
100
AcDbEntity
8
plate-bottom
6
ByLayer
62
256
370
-1
100
AcDbCircle
10
190.133513652
20
-73.9619407772
40
2
100
AcDbArc
50
270
51
315
0
ARC
5
345
100
AcDbEntity
8
plate-bottom
6
ByLayer
62
256
370
-1
100
AcDbCircle
10
205.961940777
20
-148.133513652
40
2
100
AcDbArc
50
225
51
315
0
LINE
5
346
100
AcDbEntity
8
plate-bottom
6
ByLayer
62
256
370
-1
100
AcDbLine
10
204.547727215
20
-149.547727215
11
167.37615434
21
-112.37615434
0
ARC
5
347
100
AcDbEntity
8
plate-bottom
6
ByLayer
62
256
370
-1
100
AcDbCircle
10
168.790367902
20
-110.961940777
40
2
100
AcDbArc
50
135
51
225
0
LINE
5
348
100
AcDbEntity
8
plate-bottom
6
ByLayer
62
256
370
-1
100
AcDbLine
10
167.37615434
20
-109.547727215
11
170.37615434
21
-106.547727215
0
ARC
5
349
100
AcDbEntity
8
plate-bottom
6
ByLayer
62
256
370
-1
100
AcDbCircle
10
171.790367902
20
-107.961940777
40
2
100
AcDbArc
50
90
51
135
0
LINE
5
34A
100
AcDbEntity
8
plate-bottom
6
ByLayer
62
256
370
-1
100
AcDbLine
10
190.133513652
20
-105.961940777
11
171.790367902
21
-105.961940777
0
ARC
5
34B
100
AcDbEntity
8
plate-bottom
6
ByLayer
62
256
370
-1
100
AcDbCircle
10
190.133513652
20
-107.961940777
40
2
100
AcDbArc
50
45
51
90
0
LINE
5
34C
100
AcDbEntity
8
plate-bottom
6
ByLayer
62
256
370
-1
100
AcDbLine
10
210.376154339
20
-146.547727215
11
207.376154339
21
-149.547727215
0
ARC
5
34D
100
AcDbEntity
8
plate-bottom
6
ByLayer
62
256
370
-1
100
AcDbCircle
10
208.961940777
20
-145.133513652
40
2
100
AcDbArc
50
315
51
360
0
LINE
5
34E
100
AcDbEntity
8
plate-bottom
6
ByLayer
62
256
370
-1
100
AcDbLine
10
210.961940777
20
-145.133513652
11
210.961940777
21
-126.790367902
0
LINE
5
34F
100
AcDbEntity
8
plate-bottom
6
ByLayer
62
256
370
-1
100
AcDbLine
10
210.37615434
20
-125.376154339
11
191.547727215
21
-106.547727214
0
ARC
5
350
100
AcDbEntity
8
plate-bottom
6
ByLayer
62
256
370
-1
100
AcDbCircle
10
208.961940777
20
-126.790367902
40
2
100
AcDbArc
50
360
51
45
0
ARC
5
351
100
AcDbEntity
8
plate-bottom
6
ByLayer
62
256
370
-1
100
AcDbCircle
10
232.376154339
20
-64.8492424048
40
1
100
AcDbArc
50
45
51
135
0
LINE
5
352
100
AcDbEntity
8
plate-bottom
6
ByLayer
62
256
370
-1
100
AcDbLine
10
231.669047558
20
-64.1421356238
11
231.669047558
21
-64.1421356238
0
ARC
5
353
100
AcDbEntity
8
plate-bottom
6
ByLayer
62
256
370
-1
100
AcDbCircle
10
232.376154339
20
-64.8492424048
40
1
100
AcDbArc
50
135
51
225
0
LINE
5
354
100
AcDbEntity
8
plate-bottom
6
ByLayer
62
256
370
-1
100
AcDbLine
10
252.78174593
20
-83.8406204344
11
233.083261121
21
-64.1421356229
0
ARC
5
355
100
AcDbEntity
8
plate-bottom
6
ByLayer
62
256
370
-1
100
AcDbCircle
10
252.074639149
20
-84.5477272149
40
1
100
AcDbArc
50
315
51
45
0
LINE
5
356
100
AcDbEntity
8
plate-bottom
6
ByLayer
62
256
370
-1
100
AcDbLine
10
252.78174593
20
-85.2548339958
11
252.78174593
21
-85.2548339958
0
LINE
5
357
100
AcDbEntity
8
plate-bottom
6
ByLayer
62
256
370
-1
100
AcDbLine
10
251.367532368
20
-85.254833996
11
231.669047558
21
-65.556349186
0
ARC
5
358
100
AcDbEntity
8
plate-bottom
6
ByLayer
62
256
370
-1
100
AcDbCircle
10
252.074639149
20
-84.5477272149
40
1
100
AcDbArc
50
225
51
315
0
ARC
5
359
100
AcDbEntity
8
plate-bottom
6
ByLayer
62
256
370
-1
100
AcDbCircle
10
199.849242405
20
-84.5477272149
40
1
100
AcDbArc
50
135
51
225
0
LINE
5
35A
100
AcDbEntity
8
plate-bottom
6
ByLayer
62
256
370
-1
100
AcDbLine
10
199.142135624
20
-85.2548339961
11
199.142135624
21
-85.2548339961
0
ARC
5
35B
100
AcDbEntity
8
plate-bottom
6
ByLayer
62
256
370
-1
100
AcDbCircle
10
199.849242405
20
-84.5477272149
40
1
100
AcDbArc
50
225
51
315
0
LINE
5
35C
100
AcDbEntity
8
plate-bottom
6
ByLayer
62
256
370
-1
100
AcDbLine
10
218.840620434
20
-64.1421356243
11
199.142135623
21
-83.840620433
0
ARC
5
35D
100
AcDbEntity
8
plate-bottom
6
ByLayer
62
256
370
-1
100
AcDbCircle
10
219.547727215
20
-64.8492424053
40
1
100
AcDbArc
50
45
51
135
0
LINE
5
35E
100
AcDbEntity
8
plate-bottom
6
ByLayer
62
256
370
-1
100
AcDbLine
10
220.254833996
20
-64.1421356241
11
220.254833996
21
-64.1421356241
0
LINE
5
35F
100
AcDbEntity
8
plate-bottom
6
ByLayer
62
256
370
-1
100
AcDbLine
10
220.254833996
20
-65.5563491863
11
200.556349186
21
-85.2548339959
0
ARC
5
360
100
AcDbEntity
8
plate-bottom
6
ByLayer
62
256
370
-1
100
AcDbCircle
10
219.547727215
20
-64.8492424053
40
1
100
AcDbArc
50
315
51
45
0
ARC
5
361
100
AcDbEntity
8
plate-bottom
6
ByLayer
62
256
370
-1
100
AcDbCircle
10
219.547727215
20
-117.074639149
40
1
100
AcDbArc
50
225
51
315
0
LINE
5
362
100
AcDbEntity
8
plate-bottom
6
ByLayer
62
256
370
-1
100
AcDbLine
10
220.254833996
20
-117.78174593
11
220.254833996
21
-117.78174593
0
ARC
5
363
100
AcDbEntity
8
plate-bottom
6
ByLayer
62
256
370
-1
100
AcDbCircle
10
219.547727215
20
-117.074639149
40
1
100
AcDbArc
50
315
51
45
0
LINE
5
364
100
AcDbEntity
8
plate-bottom
6
ByLayer
62
256
370
-1
100
AcDbLine
10
199.142135624
20
-98.0832611199
11
218.840620433
21
-117.781745931
0
ARC
5
365
100
AcDbEntity
8
plate-bottom
6
ByLayer
62
256
370
-1
100
AcDbCircle
10
199.849242405
20
-97.3761543394
40
1
100
AcDbArc
50
135
51
225
0
LINE
5
366
100
AcDbEntity
8
plate-bottom
6
ByLayer
62
256
370
-1
100
AcDbLine
10
199.142135624
20
-96.6690475584
11
199.142135624
21
-96.6690475584
0
LINE
5
367
100
AcDbEntity
8
plate-bottom
6
ByLayer
62
256
370
-1
100
AcDbLine
10
200.556349186
20
-96.6690475582
11
220.254833996
21
-116.367532368
0
ARC
5
368
100
AcDbEntity
8
plate-bottom
6
ByLayer
62
256
370
-1
100
AcDbCircle
10
199.849242405
20
-97.3761543394
40
1
100
AcDbArc
50
45
51
135
0
LINE
5
369
100
AcDbEntity
8
plate-bottom
6
ByLayer
62
256
370
-1
100
AcDbLine
10
228.811940777
20
-145.961940777
11
223.111940777
21
-145.961940777
0
LINE
5
36A
100
AcDbEntity
8
plate-bottom
6
ByLayer
62
256
370
-1
100
AcDbLine
10
228.811940777
20
-160.961940777
11
223.111940777
21
-160.961940777
0
CIRCLE
5
36B
100
AcDbEntity
8
plate-bottom
6
ByLayer
62
256
370
-1
100
AcDbCircle
10
225.961940777
20
-150.961940777
40
1.5
0
LINE
5
36C
100
AcDbEntity
8
plate-bottom
6
ByLayer
62
256
370
-1
100
AcDbLine
10
223.111940777
20
-145.961940777
11
223.111940777
21
-130.961940777
0
LINE
5
36D
100
AcDbEntity
8
plate-bottom
6
ByLayer
62
256
370
-1
100
AcDbLine
10
228.811940777
20
-145.961940777
11
228.811940777
21
-130.961940777
0
LINE
5
36E
100
AcDbEntity
8
plate-bottom
6
ByLayer
62
256
370
-1
100
AcDbLine
10
223.111940777
20
-160.961940777
11
223.111940777
21
-155.961940777
0
LINE
5
36F
100
AcDbEntity
8
plate-bottom
6
ByLayer
62
256
370
-1
100
AcDbLine
10
228.811940777
20
-160.961940777
11
228.811940777
21
-155.961940777
0
LINE
5
370
100
AcDbEntity
8
plate-bottom
6
ByLayer
62
256
370
-1
100
AcDbLine
10
228.811940777
20
-155.961940777
11
223.111940777
21
-155.961940777
0
LINE
5
371
100
AcDbEntity
8
plate-bottom
6
ByLayer
62
256
370
-1
100
AcDbLine
10
228.811940777
20
-130.961940777
11
223.111940777
21
-130.961940777
0
LINE
5
372
100
AcDbEntity
8
plate-bottom
6
ByLayer
62
256
370
-1
100
AcDbLine
10
280.961940777
20
-88.1119407769
11
280.961940777
21
-93.811940777
0
LINE
5
373
100
AcDbEntity
8
plate-bottom
6
ByLayer
62
256
370
-1
100
AcDbLine
10
295.961940777
20
-88.1119407774
11
295.961940777
21
-93.8119407769
0
CIRCLE
5
374
100
AcDbEntity
8
plate-bottom
6
ByLayer
62
256
370
-1
100
AcDbCircle
10
285.961940777
20
-90.9619407773
40
1.5
0
LINE
5
375
100
AcDbEntity
8
plate-bottom
6
ByLayer
62
256
370
-1
100
AcDbLine
10
280.961940777
20
-93.811940777
11
265.961940777
21
-93.8119407771
0
LINE
5
376
100
AcDbEntity
8
plate-bottom
6
ByLayer
62
256
370
-1
100
AcDbLine
10
280.961940777
20
-88.1119407769
11
265.961940777
21
-88.111940777
0
LINE
5
377
100
AcDbEntity
8
plate-bottom
6
ByLayer
62
256
370
-1
100
AcDbLine
10
295.961940777
20
-93.8119407769
11
290.961940777
21
-93.8119407769
0
LINE
5
378
100
AcDbEntity
8
plate-bottom
6
ByLayer
62
256
370
-1
100
AcDbLine
10
295.961940777
20
-88.1119407774
11
290.961940777
21
-88.1119407767
0
LINE
5
379
100
AcDbEntity
8
plate-bottom
6
ByLayer
62
256
370
-1
100
AcDbLine
10
290.961940777
20
-88.1119407767
11
290.961940777
21
-93.8119407769
0
LINE
5
37A
100
AcDbEntity
8
plate-bottom
6
ByLayer
62
256
370
-1
100
AcDbLine
10
265.961940777
20
-88.111940777
11
265.961940777
21
-93.8119407771
0
LINE
5
37B
100
AcDbEntity
8
plate-bottom
6
ByLayer
62
256
370
-1
100
AcDbLine
10
223.111940778
20
-35.9619407773
11
228.811940777
21
-35.9619407766
0
LINE
5
37C
100
AcDbEntity
8
plate-bottom
6
ByLayer
62
256
370
-1
100
AcDbLine
10
223.111940778
20
-20.9619407771
11
228.811940777
21
-20.9619407778
0
CIRCLE
5
37D
100
AcDbEntity
8
plate-bottom
6
ByLayer
62
256
370
-1
100
AcDbCircle
10
225.961940777
20
-30.9619407772
40
1.5
0
LINE
5
37E
100
AcDbEntity
8
plate-bottom
6
ByLayer
62
256
370
-1
100
AcDbLine
10
228.811940777
20
-35.9619407766
11
228.811940777
21
-50.961940777
0
LINE
5
37F
100
AcDbEntity
8
plate-bottom
6
ByLayer
62
256
370
-1
100
AcDbLine
10
223.111940778
20
-35.9619407773
11
223.111940777
21
-50.9619407772
0
LINE
5
380
100
AcDbEntity
8
plate-bottom
6
ByLayer
62
256
370
-1
100
AcDbLine
10
228.811940777
20
-20.9619407778
11
228.811940778
21
-25.9619407772
0
LINE
5
381
100
AcDbEntity
8
plate-bottom
6
ByLayer
62
256
370
-1
100
AcDbLine
10
223.111940778
20
-20.9619407771
11
223.111940778
21
-25.9619407772
0
LINE
5
382
100
AcDbEntity
8
plate-bottom
6
ByLayer
62
256
370
-1
100
AcDbLine
10
223.111940778
20
-25.9619407772
11
228.811940778
21
-25.9619407772
0
LINE
5
383
100
AcDbEntity
8
plate-bottom
6
ByLayer
62
256
370
-1
100
AcDbLine
10
223.111940777
20
-50.9619407772
11
228.811940777
21
-50.961940777
0
LINE
5
384
100
AcDbEntity
8
plate-bottom
6
ByLayer
62
256
370
-1
100
AcDbLine
10
170.961940777
20
-93.8119407771
11
170.961940777
21
-88.1119407775
0
LINE
5
385
100
AcDbEntity
8
plate-bottom
6
ByLayer
62
256
370
-1
100
AcDbLine
10
155.961940778
20
-93.8119407771
11
155.961940777
21
-88.1119407775
0
CIRCLE
5
386
100
AcDbEntity
8
plate-bottom
6
ByLayer
62
256
370
-1
100
AcDbCircle
10
165.961940777
20
-90.961940777
40
1.5
0
LINE
5
387
100
AcDbEntity
8
plate-bottom
6
ByLayer
62
256
370
-1
100
AcDbLine
10
170.961940777
20
-88.1119407775
11
185.961940777
21
-88.1119407771
0
LINE
5
388
100
AcDbEntity
8
plate-bottom
6
ByLayer
62
256
370
-1
100
AcDbLine
10
170.961940777
20
-93.8119407771
11
185.961940777
21
-93.8119407772
0
LINE
5
389
100
AcDbEntity
8
plate-bottom
6
ByLayer
62
256
370
-1
100
AcDbLine
10
155.961940777
20
-88.1119407775
11
160.961940777
21
-88.1119407775
0
LINE
5
38A
100
AcDbEntity
8
plate-bottom
6
ByLayer
62
256
370
-1
100
AcDbLine
10
155.961940778
20
-93.8119407771
11
160.961940777
21
-93.8119407779
0
LINE
5
38B
100
AcDbEntity
8
plate-bottom
6
ByLayer
62
256
370
-1
100
AcDbLine
10
160.961940777
20
-93.8119407779
11
160.961940777
21
-88.1119407775
0
LINE
5
38C
100
AcDbEntity
8
plate-bottom
6
ByLayer
62
256
370
-1
100
AcDbLine
10
185.961940777
20
-93.8119407772
11
185.961940777
21
-88.1119407771
0
LINE
5
38D
100
AcDbEntity
8
plate-bottom
6
ByLayer
62
256
370
-1
100
AcDbLine
10
145
20
280.000000001
11
145
21
240
0
LINE
5
38E
100
AcDbEntity
8
plate-bottom
6
ByLayer
62
256
370
-1
100
AcDbLine
10
145
20
280.000000001
11
204.999999999
21
340
0
LINE
5
38F
100
AcDbEntity
8
plate-bottom
6
ByLayer
62
256
370
-1
100
AcDbLine
10
245
20
340
11
204.999999999
21
340
0
LINE
5
390
100
AcDbEntity
8
plate-bottom
6
ByLayer
62
256
370
-1
100
AcDbLine
10
305
20
240
11
305
21
280
0
LINE
5
391
100
AcDbEntity
8
plate-bottom
6
ByLayer
62
256
370
-1
100
AcDbLine
10
245
20
340
11
305
21
280
0
ARC
5
392
100
AcDbEntity
8
plate-bottom
6
ByLayer
62
256
370
-1
100
AcDbCircle
10
284.34314575
20
285
40
4
100
AcDbArc
50
315
51
45
0
LINE
5
393
100
AcDbEntity
8
plate-bottom
6
ByLayer
62
256
370
-1
100
AcDbLine
10
287.171572875
20
282.171572876
11
286.171572875
21
281.171572875
0
ARC
5
394
100
AcDbEntity
8
plate-bottom
6
ByLayer
62
256
370
-1
100
AcDbCircle
10
283.34314575
20
284
40
4
100
AcDbArc
50
270
51
315
0
LINE
5
395
100
AcDbEntity
8
plate-bottom
6
ByLayer
62
256
370
-1
100
AcDbLine
10
266.656854249
20
280
11
283.343145751
21
280
0
ARC
5
396
100
AcDbEntity
8
plate-bottom
6
ByLayer
62
256
370
-1
100
AcDbCircle
10
266.656854249
20
284
40
4
100
AcDbArc
50
225
51
270
0
LINE
5
397
100
AcDbEntity
8
plate-bottom
6
ByLayer
62
256
370
-1
100
AcDbLine
10
246.171572875
20
298.828427124
11
263.828427124
21
281.171572875
0
ARC
5
398
100
AcDbEntity
8
plate-bottom
6
ByLayer
62
256
370
-1
100
AcDbCircle
10
249
20
301.656854249
40
4
100
AcDbArc
50
180
51
225
0
LINE
5
399
100
AcDbEntity
8
plate-bottom
6
ByLayer
62
256
370
-1
100
AcDbLine
10
245
20
318.343145751
11
245
21
301.656854249
0
ARC
5
39A
100
AcDbEntity
8
plate-bottom
6
ByLayer
62
256
370
-1
100
AcDbCircle
10
249
20
318.34314575
40
4
100
AcDbArc
50
135
51
180
0
LINE
5
39B
100
AcDbEntity
8
plate-bottom
6
ByLayer
62
256
370
-1
100
AcDbLine
10
246.171572875
20
321.171572875
11
247.171572876
21
322.171572875
0
LINE
5
39C
100
AcDbEntity
8
plate-bottom
6
ByLayer
62
256
370
-1
100
AcDbLine
10
287.171572875
20
287.828427125
11
252.828427125
21
322.171572875
0
ARC
5
39D
100
AcDbEntity
8
plate-bottom
6
ByLayer
62
256
370
-1
100
AcDbCircle
10
250
20
319.34314575
40
4
100
AcDbArc
50
45
51
135
0
ARC
5
39E
100
AcDbEntity
8
plate-bottom
6
ByLayer
62
256
370
-1
100
AcDbCircle
10
165.65685425
20
285
40
4
100
AcDbArc
50
135
51
225
0
LINE
5
39F
100
AcDbEntity
8
plate-bottom
6
ByLayer
62
256
370
-1
100
AcDbLine
10
162.828427125
20
282.171572876
11
163.828427125
21
281.171572875
0
ARC
5
3A0
100
AcDbEntity
8
plate-bottom
6
ByLayer
62
256
370
-1
100
AcDbCircle
10
166.65685425
20
284
40
4
100
AcDbArc
50
225
51
270
0
LINE
5
3A1
100
AcDbEntity
8
plate-bottom
6
ByLayer
62
256
370
-1
100
AcDbLine
10
183.343145751
20
280
11
166.656854248
21
280
0
ARC
5
3A2
100
AcDbEntity
8
plate-bottom
6
ByLayer
62
256
370
-1
100
AcDbCircle
10
183.343145751
20
284
40
4
100
AcDbArc
50
270
51
315
0
LINE
5
3A3
100
AcDbEntity
8
plate-bottom
6
ByLayer
62
256
370
-1
100
AcDbLine
10
203.828427125
20
298.828427124
11
186.171572876
21
281.171572875
0
ARC
5
3A4
100
AcDbEntity
8
plate-bottom
6
ByLayer
62
256
370
-1
100
AcDbCircle
10
201
20
301.656854249
40
4
100
AcDbArc
50
315
51
360
0
LINE
5
3A5
100
AcDbEntity
8
plate-bottom
6
ByLayer
62
256
370
-1
100
AcDbLine
10
205
20
318.343145752
11
205
21
301.656854249
0
ARC
5
3A6
100
AcDbEntity
8
plate-bottom
6
ByLayer
62
256
370
-1
100
AcDbCircle
10
201
20
318.34314575
40
4
100
AcDbArc
50
360
51
45
0
LINE
5
3A7
100
AcDbEntity
8
plate-bottom
6
ByLayer
62
256
370
-1
100
AcDbLine
10
203.828427125
20
321.171572875
11
202.828427124
21
322.171572875
0
LINE
5
3A8
100
AcDbEntity
8
plate-bottom
6
ByLayer
62
256
370
-1
100
AcDbLine
10
162.828427125
20
287.828427125
11
197.171572875
21
322.171572875
0
ARC
5
3A9
100
AcDbEntity
8
plate-bottom
6
ByLayer
62
256
370
-1
100
AcDbCircle
10
200
20
319.34314575
40
4
100
AcDbArc
50
45
51
135
0
LINE
5
3AA
100
AcDbEntity
8
plate-bottom
6
ByLayer
62
256
370
-1
100
AcDbLine
10
145
20
240
11
205
21
180
0
LINE
5
3AB
100
AcDbEntity
8
plate-bottom
6
ByLayer
62
256
370
-1
100
AcDbLine
10
245
20
180
11
205
21
180
0
LINE
5
3AC
100
AcDbEntity
8
plate-bottom
6
ByLayer
62
256
370
-1
100
AcDbLine
10
245
20
180
11
305
21
240
0
ARC
5
3AD
100
AcDbEntity
8
plate-bottom
6
ByLayer
62
256
370
-1
100
AcDbCircle
10
284.34314575
20
235
40
4
100
AcDbArc
50
315
51
45
0
LINE
5
3AE
100
AcDbEntity
8
plate-bottom
6
ByLayer
62
256
370
-1
100
AcDbLine
10
287.171572875
20
237.828427124
11
286.171572875
21
238.828427125
0
ARC
5
3AF
100
AcDbEntity
8
plate-bottom
6
ByLayer
62
256
370
-1
100
AcDbCircle
10
283.34314575
20
236
40
4
100
AcDbArc
50
45
51
90
0
LINE
5
3B0
100
AcDbEntity
8
plate-bottom
6
ByLayer
62
256
370
-1
100
AcDbLine
10
266.656854249
20
240
11
283.343145751
21
240
0
ARC
5
3B1
100
AcDbEntity
8
plate-bottom
6
ByLayer
62
256
370
-1
100
AcDbCircle
10
266.656854249
20
236
40
4
100
AcDbArc
50
90
51
135
0
LINE
5
3B2
100
AcDbEntity
8
plate-bottom
6
ByLayer
62
256
370
-1
100
AcDbLine
10
246.171572875
20
221.171572876
11
263.828427124
21
238.828427125
0
ARC
5
3B3
100
AcDbEntity
8
plate-bottom
6
ByLayer
62
256
370
-1
100
AcDbCircle
10
249
20
218.343145751
40
4
100
AcDbArc
50
135
51
180
0
LINE
5
3B4
100
AcDbEntity
8
plate-bottom
6
ByLayer
62
256
370
-1
100
AcDbLine
10
245
20
201.656854249
11
245
21
218.343145751
0
ARC
5
3B5
100
AcDbEntity
8
plate-bottom
6
ByLayer
62
256
370
-1
100
AcDbCircle
10
249
20
201.65685425
40
4
100
AcDbArc
50
180
51
225
0
LINE
5
3B6
100
AcDbEntity
8
plate-bottom
6
ByLayer
62
256
370
-1
100
AcDbLine
10
246.171572875
20
198.828427125
11
247.171572876
21
197.828427125
0
LINE
5
3B7
100
AcDbEntity
8
plate-bottom
6
ByLayer
62
256
370
-1
100
AcDbLine
10
287.171572875
20
232.171572875
11
252.828427125
21
197.828427125
0
ARC
5
3B8
100
AcDbEntity
8
plate-bottom
6
ByLayer
62
256
370
-1
100
AcDbCircle
10
250
20
200.65685425
40
4
100
AcDbArc
50
225
51
315
0
ARC
5
3B9
100
AcDbEntity
8
plate-bottom
6
ByLayer
62
256
370
-1
100
AcDbCircle
10
165.65685425
20
235
40
4
100
AcDbArc
50
135
51
225
0
LINE
5
3BA
100
AcDbEntity
8
plate-bottom
6
ByLayer
62
256
370
-1
100
AcDbLine
10
162.828427125
20
237.828427124
11
163.828427125
21
238.828427125
0
ARC
5
3BB
100
AcDbEntity
8
plate-bottom
6
ByLayer
62
256
370
-1
100
AcDbCircle
10
166.65685425
20
236
40
4
100
AcDbArc
50
90
51
135
0
LINE
5
3BC
100
AcDbEntity
8
plate-bottom
6
ByLayer
62
256
370
-1
100
AcDbLine
10
183.343145751
20
240
11
166.656854249
21
240
0
ARC
5
3BD
100
AcDbEntity
8
plate-bottom
6
ByLayer
62
256
370
-1
100
AcDbCircle
10
183.343145751
20
236
40
4
100
AcDbArc
50
45
51
90
0
LINE
5
3BE
100
AcDbEntity
8
plate-bottom
6
ByLayer
62
256
370
-1
100
AcDbLine
10
203.828427125
20
221.171572876
11
186.171572876
21
238.828427125
0
ARC
5
3BF
100
AcDbEntity
8
plate-bottom
6
ByLayer
62
256
370
-1
100
AcDbCircle
10
201
20
218.343145751
40
4
100
AcDbArc
50
360
51
45
0
LINE
5
3C0
100
AcDbEntity
8
plate-bottom
6
ByLayer
62
256
370
-1
100
AcDbLine
10
205
20
201.656854249
11
205
21
218.343145751
0
ARC
5
3C1
100
AcDbEntity
8
plate-bottom
6
ByLayer
62
256
370
-1
100
AcDbCircle
10
201
20
201.65685425
40
4
100
AcDbArc
50
315
51
360
0
LINE
5
3C2
100
AcDbEntity
8
plate-bottom
6
ByLayer
62
256
370
-1
100
AcDbLine
10
203.828427125
20
198.828427125
11
202.828427124
21
197.828427125
0
LINE
5
3C3
100
AcDbEntity
8
plate-bottom
6
ByLayer
62
256
370
-1
100
AcDbLine
10
162.828427125
20
232.171572875
11
197.171572875
21
197.828427125
0
ARC
5
3C4
100
AcDbEntity
8
plate-bottom
6
ByLayer
62
256
370
-1
100
AcDbCircle
10
200
20
200.65685425
40
4
100
AcDbArc
50
225
51
315
0
CIRCLE
5
3C5
100
AcDbEntity
8
plate-bottom
6
ByLayer
62
256
370
-1
100
AcDbCircle
10
225
20
185
40
1.5
0
CIRCLE
5
3C6
100
AcDbEntity
8
plate-bottom
6
ByLayer
62
256
370
-1
100
AcDbCircle
10
300
20
260
40
1.5
0
CIRCLE
5
3C7
100
AcDbEntity
8
plate-bottom
6
ByLayer
62
256
370
-1
100
AcDbCircle
10
225
20
335
40
1.5
0
LINE
5
3C8
100
AcDbEntity
8
plate-bottom
6
ByLayer
62
256
370
-1
100
AcDbLine
10
215.000000001
20
262.85
11
215.000000001
21
257.15
0
LINE
5
3C9
100
AcDbEntity
8
plate-bottom
6
ByLayer
62
256
370
-1
100
AcDbLine
10
155.000000001
20
257.15
11
155
21
262.85
0
CIRCLE
5
3CA
100
AcDbEntity
8
plate-bottom
6
ByLayer
62
256
370
-1
100
AcDbCircle
10
150
20
260
40
1.5
0
CIRCLE
5
3CB
100
AcDbEntity
8
plate-bottom
6
ByLayer
62
256
370
-1
100
AcDbCircle
10
202.5
20
237.5
40
1.5
0
CIRCLE
5
3CC
100
AcDbEntity
8
plate-bottom
6
ByLayer
62
256
370
-1
100
AcDbCircle
10
247.5
20
237.5
40
1.5
0
CIRCLE
5
3CD
100
AcDbEntity
8
plate-bottom
6
ByLayer
62
256
370
-1
100
AcDbCircle
10
247.5
20
282.5
40
1.5
0
CIRCLE
5
3CE
100
AcDbEntity
8
plate-bottom
6
ByLayer
62
256
370
-1
100
AcDbCircle
10
202.5
20
282.5
40
1.5
0
CIRCLE
5
3CF
100
AcDbEntity
8
plate-bottom
6
ByLayer
62
256
370
-1
100
AcDbCircle
10
193.180194847
20
260
40
1.5
0
LINE
5
3D0
100
AcDbEntity
8
plate-bottom
6
ByLayer
62
256
370
-1
100
AcDbLine
10
155
20
262.85
11
190.530194847
21
262.85
0
LINE
5
3D1
100
AcDbEntity
8
plate-bottom
6
ByLayer
62
256
370
-1
100
AcDbLine
10
155.000000001
20
257.15
11
190.530194847
21
257.15
0
LINE
5
3D2
100
AcDbEntity
8
plate-bottom
6
ByLayer
62
256
370
-1
100
AcDbLine
10
195.830194847
20
257.15
11
215.000000001
21
257.15
0
LINE
5
3D3
100
AcDbEntity
8
plate-bottom
6
ByLayer
62
256
370
-1
100
AcDbLine
10
195.830194847
20
262.85
11
215.000000001
21
262.85
0
LINE
5
3D4
100
AcDbEntity
8
plate-top
6
ByLayer
62
256
370
-1
100
AcDbLine
10
195.830194847
20
257.15
11
195.830194847
21
262.85
0
LINE
5
3D5
100
AcDbEntity
8
plate-top
6
ByLayer
62
256
370
-1
100
AcDbLine
10
190.530194847
20
257.15
11
190.530194847
21
262.85
0
LINE
5
3D6
100
AcDbEntity
8
plate-bottom
6
ByLayer
62
256
370
-1
100
AcDbLine
10
222.15
20
250.000000001
11
227.85
21
250.000000001
0
LINE
5
3D7
100
AcDbEntity
8
plate-bottom
6
ByLayer
62
256
370
-1
100
AcDbLine
10
227.85
20
190.000000001
11
222.15
21
190
0
CIRCLE
5
3D8
100
AcDbEntity
8
plate-bottom
6
ByLayer
62
256
370
-1
100
AcDbCircle
10
225
20
228.180194847
40
1.5
0
LINE
5
3D9
100
AcDbEntity
8
plate-bottom
6
ByLayer
62
256
370
-1
100
AcDbLine
10
222.15
20
190
11
222.15
21
225.530194847
0
LINE
5
3DA
100
AcDbEntity
8
plate-bottom
6
ByLayer
62
256
370
-1
100
AcDbLine
10
227.85
20
190.000000001
11
227.85
21
225.530194847
0
LINE
5
3DB
100
AcDbEntity
8
plate-bottom
6
ByLayer
62
256
370
-1
100
AcDbLine
10
227.85
20
230.830194847
11
227.85
21
250.000000001
0
LINE
5
3DC
100
AcDbEntity
8
plate-bottom
6
ByLayer
62
256
370
-1
100
AcDbLine
10
222.15
20
230.830194847
11
222.15
21
250.000000001
0
LINE
5
3DD
100
AcDbEntity
8
plate-top
6
ByLayer
62
256
370
-1
100
AcDbLine
10
227.85
20
230.830194847
11
222.15
21
230.830194847
0
LINE
5
3DE
100
AcDbEntity
8
plate-top
6
ByLayer
62
256
370
-1
100
AcDbLine
10
227.85
20
225.530194847
11
222.15
21
225.530194847
0
LINE
5
3DF
100
AcDbEntity
8
plate-bottom
6
ByLayer
62
256
370
-1
100
AcDbLine
10
234.999999999
20
257.15
11
234.999999999
21
262.85
0
LINE
5
3E0
100
AcDbEntity
8
plate-bottom
6
ByLayer
62
256
370
-1
100
AcDbLine
10
294.999999999
20
262.85
11
295
21
257.15
0
CIRCLE
5
3E1
100
AcDbEntity
8
plate-bottom
6
ByLayer
62
256
370
-1
100
AcDbCircle
10
256.819805153
20
260
40
1.5
0
LINE
5
3E2
100
AcDbEntity
8
plate-bottom
6
ByLayer
62
256
370
-1
100
AcDbLine
10
295
20
257.15
11
259.469805153
21
257.15
0
LINE
5
3E3
100
AcDbEntity
8
plate-bottom
6
ByLayer
62
256
370
-1
100
AcDbLine
10
294.999999999
20
262.85
11
259.469805153
21
262.85
0
LINE
5
3E4
100
AcDbEntity
8
plate-bottom
6
ByLayer
62
256
370
-1
100
AcDbLine
10
254.169805153
20
262.85
11
234.999999999
21
262.85
0
LINE
5
3E5
100
AcDbEntity
8
plate-bottom
6
ByLayer
62
256
370
-1
100
AcDbLine
10
254.169805153
20
257.15
11
234.999999999
21
257.15
0
LINE
5
3E6
100
AcDbEntity
8
plate-top
6
ByLayer
62
256
370
-1
100
AcDbLine
10
254.169805153
20
262.85
11
254.169805153
21
257.15
0
LINE
5
3E7
100
AcDbEntity
8
plate-top
6
ByLayer
62
256
370
-1
100
AcDbLine
10
259.469805153
20
262.85
11
259.469805153
21
257.15
0
LINE
5
3E8
100
AcDbEntity
8
plate-bottom
6
ByLayer
62
256
370
-1
100
AcDbLine
10
227.85
20
269.999999999
11
222.15
21
269.999999999
0
LINE
5
3E9
100
AcDbEntity
8
plate-bottom
6
ByLayer
62
256
370
-1
100
AcDbLine
10
222.15
20
329.999999999
11
227.85
21
330
0
CIRCLE
5
3EA
100
AcDbEntity
8
plate-bottom
6
ByLayer
62
256
370
-1
100
AcDbCircle
10
225
20
291.819805153
40
1.5
0
LINE
5
3EB
100
AcDbEntity
8
plate-bottom
6
ByLayer
62
256
370
-1
100
AcDbLine
10
227.85
20
330
11
227.85
21
294.469805153
0
LINE
5
3EC
100
AcDbEntity
8
plate-bottom
6
ByLayer
62
256
370
-1
100
AcDbLine
10
222.15
20
329.999999999
11
222.15
21
294.469805153
0
LINE
5
3ED
100
AcDbEntity
8
plate-bottom
6
ByLayer
62
256
370
-1
100
AcDbLine
10
222.15
20
289.169805153
11
222.15
21
269.999999999
0
LINE
5
3EE
100
AcDbEntity
8
plate-bottom
6
ByLayer
62
256
370
-1
100
AcDbLine
10
227.85
20
289.169805153
11
227.85
21
269.999999999
0
LINE
5
3EF
100
AcDbEntity
8
plate-top
6
ByLayer
62
256
370
-1
100
AcDbLine
10
222.15
20
289.169805153
11
227.85
21
289.169805153
0
LINE
5
3F0
100
AcDbEntity
8
plate-top
6
ByLayer
62
256
370
-1
100
AcDbLine
10
222.15
20
294.469805153
11
227.85
21
294.469805153
0
LINE
5
3F1
100
AcDbEntity
8
frame
6
ByLayer
62
256
370
-1
100
AcDbLine
10
155
20
163.05
11
190.530194847
21
163.05
0
LINE
5
3F2
100
AcDbEntity
8
frame
6
ByLayer
62
256
370
-1
100
AcDbLine
10
195.830194847
20
163.05
11
215
21
163.05
0
LINE
5
3F3
100
AcDbEntity
8
frame
6
ByLayer
62
256
370
-1
100
AcDbLine
10
190.530194847
20
157
11
195.830194847
21
157
0
LINE
5
3F4
100
AcDbEntity
8
frame
6
ByLayer
62
256
370
-1
100
AcDbLine
10
190.530194847
20
163.05
11
190.530194847
21
157
0
LINE
5
3F5
100
AcDbEntity
8
frame
6
ByLayer
62
256
370
-1
100
AcDbLine
10
195.830194847
20
163.05
11
195.830194847
21
157
0
LINE
5
3F6
100
AcDbEntity
8
frame
6
ByLayer
62
256
370
-1
100
AcDbLine
10
295
20
163.05
11
259.469805153
21
163.05
0
LINE
5
3F7
100
AcDbEntity
8
frame
6
ByLayer
62
256
370
-1
100
AcDbLine
10
254.169805153
20
163.05
11
235
21
163.05
0
LINE
5
3F8
100
AcDbEntity
8
frame
6
ByLayer
62
256
370
-1
100
AcDbLine
10
259.469805153
20
157
11
254.169805153
21
157
0
LINE
5
3F9
100
AcDbEntity
8
frame
6
ByLayer
62
256
370
-1
100
AcDbLine
10
259.469805153
20
163.05
11
259.469805153
21
157
0
LINE
5
3FA
100
AcDbEntity
8
frame
6
ByLayer
62
256
370
-1
100
AcDbLine
10
254.169805153
20
163.05
11
254.169805153
21
157
0
LINE
5
3FB
100
AcDbEntity
8
frame
6
ByLayer
62
256
370
-1
100
AcDbLine
10
155
20
73.05
11
190.530194847
21
73.05
0
LINE
5
3FC
100
AcDbEntity
8
frame
6
ByLayer
62
256
370
-1
100
AcDbLine
10
195.830194847
20
73.05
11
215
21
73.05
0
LINE
5
3FD
100
AcDbEntity
8
frame
6
ByLayer
62
256
370
-1
100
AcDbLine
10
190.530194847
20
67
11
195.830194847
21
67
0
LINE
5
3FE
100
AcDbEntity
8
frame
6
ByLayer
62
256
370
-1
100
AcDbLine
10
190.530194847
20
73.05
11
190.530194847
21
67
0
LINE
5
3FF
100
AcDbEntity
8
frame
6
ByLayer
62
256
370
-1
100
AcDbLine
10
195.830194847
20
73.05
11
195.830194847
21
67
0
LINE
5
400
100
AcDbEntity
8
frame
6
ByLayer
62
256
370
-1
100
AcDbLine
10
295
20
73.05
11
259.469805153
21
73.05
0
LINE
5
401
100
AcDbEntity
8
frame
6
ByLayer
62
256
370
-1
100
AcDbLine
10
254.169805153
20
73.05
11
235
21
73.05
0
LINE
5
402
100
AcDbEntity
8
frame
6
ByLayer
62
256
370
-1
100
AcDbLine
10
259.469805153
20
67
11
254.169805153
21
67
0
LINE
5
403
100
AcDbEntity
8
frame
6
ByLayer
62
256
370
-1
100
AcDbLine
10
259.469805153
20
73.05
11
259.469805153
21
67
0
LINE
5
404
100
AcDbEntity
8
frame
6
ByLayer
62
256
370
-1
100
AcDbLine
10
254.169805153
20
73.05
11
254.169805153
21
67
0
ENDSEC
0
SECTION
2
OBJECTS
0
DICTIONARY
5
C
330
0
100
AcDbDictionary
281
1
3
ACAD_GROUP
350
D
0
DICTIONARY
5
D
330
C
100
AcDbDictionary
281
1
0
ENDSEC
0
EOF
