999
dxfrw 0.5.10
0
SECTION
2
HEADER
9
$ACADVER
1
AC1021
9
$HANDSEED
5
20000
9
$DWGCODEPAGE
3
ANSI_1252
9
$INSBASE
10
0
20
0
30
0
9
$EXTMIN
10
9.39999999994
20
6.0931724188
30
0
9
$EXTMAX
10
228.508604327
20
149.85
30
0
9
$LIMMIN
10
0
20
0
9
$LIMMAX
10
420
20
297
9
$ORTHOMODE
70
0
9
$LTSCALE
40
1
9
$TEXTSTYLE
7
STANDARD
9
$CLAYER
8
gps mount plate
9
$DIMASZ
40
2.5
9
$DIMLFAC
40
1
9
$DIMSCALE
40
1
9
$DIMEXO
40
0.625
9
$DIMEXE
40
1.25
9
$DIMTXT
40
2.5
9
$DIMTSZ
40
0
9
$DIMAUNIT
70
0
9
$DIMADEC
70
0
9
$DIMLUNIT
70
2
9
$DIMSTYLE
2
STANDARD
9
$DIMGAP
40
0.625
9
$DIMTIH
70
0
9
$LUNITS
70
2
9
$LUPREC
70
4
9
$AUNITS
70
0
9
$AUPREC
70
2
9
$SPLINESEGS
70
8
9
$GRIDMODE
70
1
9
$SNAPSTYLE
70
0
9
$PINSBASE
10
0
20
0
30
0
9
$PLIMMIN
10
0
20
0
9
$PLIMMAX
10
210
20
297
9
$INSUNITS
70
4
9
$PSVPSCALE
40
1
0
ENDSEC
0
SECTION
2
CLASSES
0
ENDSEC
0
SECTION
2
TABLES
0
TABLE
2
VPORT
5
8
330
0
100
AcDbSymbolTable
70
1
0
VPORT
5
31
330
2
100
AcDbSymbolTableRecord
100
AcDbViewportTableRecord
2
*ACTIVE
70
0
10
0
20
0
11
1
21
1
12
134.631198244
22
76.0469111421
13
0
23
0
14
10
24
10
15
10
25
10
16
0
26
0
36
1
17
0
27
0
37
0
40
148.263311204
41
2.0273556231
42
50
43
0
44
0
50
0
51
0
71
0
72
100
73
1
74
3
75
0
76
1
77
0
78
0
281
0
65
1
110
0
120
0
130
0
111
1
121
0
131
0
112
0
122
1
132
0
79
0
146
0
348
10020
60
7
61
5
292
1
282
1
141
0
142
0
63
250
421
3358443
0
ENDTAB
0
TABLE
2
LTYPE
5
5
330
0
100
AcDbSymbolTable
70
4
0
LTYPE
5
14
330
5
100
AcDbSymbolTableRecord
100
AcDbLinetypeTableRecord
2
ByBlock
70
0
3

72
65
73
0
40
0
0
LTYPE
5
15
330
5
100
AcDbSymbolTableRecord
100
AcDbLinetypeTableRecord
2
ByLayer
70
0
3

72
65
73
0
40
0
0
LTYPE
5
16
330
5
100
AcDbSymbolTableRecord
100
AcDbLinetypeTableRecord
2
Continuous
70
0
3
Solid line
72
65
73
0
40
0
0
LTYPE
5
32
330
5
100
AcDbSymbolTableRecord
100
AcDbLinetypeTableRecord
2
DOT
70
0
3
Dot . . . . . . . . . . . . . . . . . . . . . .
72
65
73
2
40
6.35
49
0
74
0
49
-6.35
74
0
0
LTYPE
5
33
330
5
100
AcDbSymbolTableRecord
100
AcDbLinetypeTableRecord
2
DOT2
70
0
3
Dot (.5x) .....................................
72
65
73
2
40
3.175
49
0
74
0
49
-3.175
74
0
0
LTYPE
5
34
330
5
100
AcDbSymbolTableRecord
100
AcDbLinetypeTableRecord
2
DOTX2
70
0
3
Dot (2x) .  .  .  .  .  .  .  .  .  .  .  .  .
72
65
73
2
40
12.7
49
0
74
0
49
-12.7
74
0
0
LTYPE
5
35
330
5
100
AcDbSymbolTableRecord
100
AcDbLinetypeTableRecord
2
DASHED
70
0
3
Dot . . . . . . . . . . . . . . . . . . . . . .
72
65
73
2
40
19.05
49
12.7
74
0
49
-6.35
74
0
0
LTYPE
5
36
330
5
100
AcDbSymbolTableRecord
100
AcDbLinetypeTableRecord
2
DASHED2
70
0
3
Dashed (.5x) _ _ _ _ _ _ _ _ _ _ _ _ _ _ _ _ _
72
65
73
2
40
9.525
49
6.35
74
0
49
-3.175
74
0
0
LTYPE
5
37
330
5
100
AcDbSymbolTableRecord
100
AcDbLinetypeTableRecord
2
DASHEDX2
70
0
3
Dashed (2x) ____  ____  ____  ____  ____  ___
72
65
73
2
40
38.1
49
25.4
74
0
49
-12.7
74
0
0
LTYPE
5
38
330
5
100
AcDbSymbolTableRecord
100
AcDbLinetypeTableRecord
2
DASHDOT
70
0
3
Dash dot __ . __ . __ . __ . __ . __ . __ . __
72
65
73
4
40
25.4
49
12.7
74
0
49
-6.35
74
0
49
0
74
0
49
-6.35
74
0
0
LTYPE
5
39
330
5
100
AcDbSymbolTableRecord
100
AcDbLinetypeTableRecord
2
DASHDOT2
70
0
3
Dash dot (.5x) _._._._._._._._._._._._._._._.
72
65
73
4
40
12.7
49
6.35
74
0
49
-3.175
74
0
49
0
74
0
49
-3.175
74
0
0
LTYPE
5
3A
330
5
100
AcDbSymbolTableRecord
100
AcDbLinetypeTableRecord
2
DASHDOTX2
70
0
3
Dash dot (2x) ____  .  ____  .  ____  .  ___
72
65
73
4
40
50.8
49
25.4
74
0
49
-12.7
74
0
49
0
74
0
49
-12.7
74
0
0
LTYPE
5
3B
330
5
100
AcDbSymbolTableRecord
100
AcDbLinetypeTableRecord
2
DIVIDE
70
0
3
Divide ____ . . ____ . . ____ . . ____ . . ____
72
65
73
6
40
31.75
49
12.7
74
0
49
-6.35
74
0
49
0
74
0
49
-6.35
74
0
49
0
74
0
49
-6.35
74
0
0
LTYPE
5
3C
330
5
100
AcDbSymbolTableRecord
100
AcDbLinetypeTableRecord
2
DIVIDE2
70
0
3
Divide (.5x) __..__..__..__..__..__..__..__.._
72
65
73
6
40
15.875
49
6.35
74
0
49
-3.175
74
0
49
0
74
0
49
-3.175
74
0
49
0
74
0
49
-3.175
74
0
0
LTYPE
5
3D
330
5
100
AcDbSymbolTableRecord
100
AcDbLinetypeTableRecord
2
DIVIDEX2
70
0
3
Divide (2x) ________  .  .  ________  .  .  _
72
65
73
6
40
63.5
49
25.4
74
0
49
-12.7
74
0
49
0
74
0
49
-12.7
74
0
49
0
74
0
49
-12.7
74
0
0
LTYPE
5
3E
330
5
100
AcDbSymbolTableRecord
100
AcDbLinetypeTableRecord
2
BORDER
70
0
3
Border __ __ . __ __ . __ __ . __ __ . __ __ .
72
65
73
6
40
44.45
49
12.7
74
0
49
-6.35
74
0
49
12.7
74
0
49
-6.35
74
0
49
0
74
0
49
-6.35
74
0
0
LTYPE
5
3F
330
5
100
AcDbSymbolTableRecord
100
AcDbLinetypeTableRecord
2
BORDER2
70
0
3
Border (.5x) __.__.__.__.__.__.__.__.__.__.__.
72
65
73
6
40
22.225
49
6.35
74
0
49
-3.175
74
0
49
6.35
74
0
49
-3.175
74
0
49
0
74
0
49
-3.175
74
0
0
LTYPE
5
40
330
5
100
AcDbSymbolTableRecord
100
AcDbLinetypeTableRecord
2
BORDERX2
70
0
3
Border (2x) ____  ____  .  ____  ____  .  ___
72
65
73
6
40
88.9
49
25.4
74
0
49
-12.7
74
0
49
25.4
74
0
49
-12.7
74
0
49
0
74
0
49
-12.7
74
0
0
LTYPE
5
41
330
5
100
AcDbSymbolTableRecord
100
AcDbLinetypeTableRecord
2
CENTER
70
0
3
Center ____ _ ____ _ ____ _ ____ _ ____ _ ____
72
65
73
4
40
50.8
49
31.75
74
0
49
-6.35
74
0
49
6.35
74
0
49
-6.35
74
0
0
LTYPE
5
42
330
5
100
AcDbSymbolTableRecord
100
AcDbLinetypeTableRecord
2
CENTER2
70
0
3
Center (.5x) ___ _ ___ _ ___ _ ___ _ ___ _ ___
72
65
73
4
40
28.575
49
19.05
74
0
49
-3.175
74
0
49
3.175
74
0
49
-3.175
74
0
0
LTYPE
5
43
330
5
100
AcDbSymbolTableRecord
100
AcDbLinetypeTableRecord
2
CENTERX2
70
0
3
Center (2x) ________  __  ________  __  _____
72
65
73
4
40
101.6
49
63.5
74
0
49
-12.7
74
0
49
12.7
74
0
49
-12.7
74
0
0
ENDTAB
0
TABLE
2
LAYER
5
2
330
0
100
AcDbSymbolTable
70
1
0
LAYER
5
10
330
2
100
AcDbSymbolTableRecord
100
AcDbLayerTableRecord
2
0
70
0
62
7
6
CONTINUOUS
370
0
390
F
0
LAYER
5
44
330
2
100
AcDbSymbolTableRecord
100
AcDbLayerTableRecord
2
gps mount
70
0
62
136
420
32896
6
CONTINUOUS
370
0
390
F
0
LAYER
5
45
330
2
100
AcDbSymbolTableRecord
100
AcDbLayerTableRecord
2
gps mount plate
70
0
62
56
420
8421376
6
CONTINUOUS
370
0
390
F
0
ENDTAB
0
TABLE
2
STYLE
5
3
330
0
100
AcDbSymbolTable
70
3
0
STYLE
5
46
330
2
100
AcDbSymbolTableRecord
100
AcDbTextStyleTableRecord
2
Standard
70
0
40
0
41
1
50
0
71
0
42
1
3
txt
4

0
ENDTAB
0
TABLE
2
VIEW
5
6
330
0
100
AcDbSymbolTable
70
0
0
ENDTAB
0
TABLE
2
UCS
5
7
330
0
100
AcDbSymbolTable
70
0
0
ENDTAB
0
TABLE
2
APPID
5
9
330
0
100
AcDbSymbolTable
70
1
0
APPID
5
12
330
9
100
AcDbSymbolTableRecord
100
AcDbRegAppTableRecord
2
ACAD
70
0
0
ENDTAB
0
TABLE
2
DIMSTYLE
5
A
330
0
100
AcDbSymbolTable
70
1
100
AcDbDimStyleTable
71
1
0
DIMSTYLE
105
47
330
A
100
AcDbSymbolTableRecord
100
AcDbDimStyleTableRecord
2
Standard
70
0
40
1
41
2.5
42
0.625
43
0.38
44
1.25
45
0
46
0
47
0
48
0
140
2.5
141
0.09
142
0
143
25.4
144
1
145
0
146
1
147
0.625
148
0
71
0
72
0
73
0
74
1
75
0
76
0
77
0
78
0
79
0
170
0
171
2
172
0
173
0
174
0
175
0
176
0
177
0
178
0
179
0
271
4
272
4
273
2
274
2
275
0
276
0
277
2
278
46
279
0
280
0
281
0
282
0
283
1
284
0
285
0
286
0
288
0
289
3
340
Standard
341

371
-2
372
-2
0
ENDTAB
0
TABLE
2
BLOCK_RECORD
5
1
330
0
100
AcDbSymbolTable
70
2
0
BLOCK_RECORD
5
1F
330
1
100
AcDbSymbolTableRecord
100
AcDbBlockTableRecord
2
*Model_Space
70
0
280
1
281
0
0
BLOCK_RECORD
5
1E
330
1
100
AcDbSymbolTableRecord
100
AcDbBlockTableRecord
2
*Paper_Space
70
0
280
1
281
0
0
ENDTAB
0
ENDSEC
0
SECTION
2
BLOCKS
0
BLOCK
5
20
330
1F
100
AcDbEntity
8
0
100
AcDbBlockBegin
2
*Model_Space
70
0
10
0
20
0
30
0
3
*Model_Space
1

0
ENDBLK
5
21
330
1F
100
AcDbEntity
8
0
100
AcDbBlockEnd
0
BLOCK
5
1C
330
1B
100
AcDbEntity
8
0
100
AcDbBlockBegin
2
*Paper_Space
70
0
10
0
20
0
30
0
3
*Paper_Space
1

0
ENDBLK
5
1D
330
1F
100
AcDbEntity
8
0
100
AcDbBlockEnd
0
ENDSEC
0
SECTION
2
ENTITIES
0
ARC
5
48
100
AcDbEntity
8
gps mount
6
ByLayer
62
256
370
-1
100
AcDbCircle
10
136.440277778
20
76.0381944444
40
14.3721334535
100
AcDbArc
50
9.86284224374
51
76.2759828739
0
ARC
5
49
100
AcDbEntity
8
gps mount
6
ByLayer
62
256
370
-1
100
AcDbCircle
10
80
20
90
40
59.85
100
AcDbArc
50
360
51
180
0
LINE
5
4A
100
AcDbEntity
8
gps mount
6
ByLayer
62
256
370
-1
100
AcDbLine
10
78.5
20
146.35
11
81.5
21
146.35
0
ARC
5
4B
100
AcDbEntity
8
gps mount
6
ByLayer
62
256
370
-1
100
AcDbCircle
10
140.639646143
20
77.6795767844
40
10.1551648537
100
AcDbArc
50
308.499438655
51
348.759190138
0
LINE
5
4C
100
AcDbEntity
8
gps mount
6
ByLayer
62
256
370
-1
100
AcDbLine
10
143.6
20
78.5
11
143.6
21
75.7
0
LINE
5
4D
100
AcDbEntity
8
gps mount
6
ByLayer
62
256
370
-1
100
AcDbLine
10
143.6
20
78.5
11
150.6
21
78.5
0
LINE
5
4E
100
AcDbEntity
8
gps mount
6
ByLayer
62
256
370
-1
100
AcDbLine
10
143.6
20
75.7
11
150.6
21
75.7
0
ARC
5
4F
100
AcDbEntity
8
gps mount
6
ByLayer
62
256
370
-1
100
AcDbCircle
10
23.5597222222
20
76.0381944444
40
14.3721334535
100
AcDbArc
50
103.724017126
51
170.137157756
0
ARC
5
50
100
AcDbEntity
8
gps mount
6
ByLayer
62
256
370
-1
100
AcDbCircle
10
19.3603538572
20
77.6795767844
40
10.1551648537
100
AcDbArc
50
191.240809862
51
231.500561345
0
LINE
5
51
100
AcDbEntity
8
gps mount
6
ByLayer
62
256
370
-1
100
AcDbLine
10
16.4
20
78.5
11
16.4
21
75.7
0
LINE
5
52
100
AcDbEntity
8
gps mount
6
ByLayer
62
256
370
-1
100
AcDbLine
10
16.4
20
78.5
11
9.4
21
78.5
0
LINE
5
53
100
AcDbEntity
8
gps mount
6
ByLayer
62
256
370
-1
100
AcDbLine
10
16.4
20
75.7
11
9.4
21
75.7
0
LINE
5
54
100
AcDbEntity
8
gps mount
6
ByLayer
62
256
370
-1
100
AcDbLine
10
21.15
20
69.732
11
13.0386929629
21
69.732
0
LINE
5
55
100
AcDbEntity
8
gps mount
6
ByLayer
62
256
370
-1
100
AcDbLine
10
27.15
20
90
11
27.15
21
75.732
0
ARC
5
56
100
AcDbEntity
8
gps mount
6
ByLayer
62
256
370
-1
100
AcDbCircle
10
21.15
20
75.732
40
6
100
AcDbArc
50
270
51
360
0
LINE
5
57
100
AcDbEntity
8
gps mount
6
ByLayer
62
256
370
-1
100
AcDbLine
10
138.85
20
69.732
11
146.961307037
21
69.732
0
LINE
5
58
100
AcDbEntity
8
gps mount
6
ByLayer
62
256
370
-1
100
AcDbLine
10
132.85
20
90
11
132.85
21
75.732
0
ARC
5
59
100
AcDbEntity
8
gps mount
6
ByLayer
62
256
370
-1
100
AcDbCircle
10
138.85
20
75.732
40
6
100
AcDbArc
50
180
51
270
0
LINE
5
5A
100
AcDbEntity
8
gps mount
6
ByLayer
62
256
370
-1
100
AcDbLine
10
78.5
20
142.85
11
78.5
21
146.35
0
LINE
5
5B
100
AcDbEntity
8
gps mount
6
ByLayer
62
256
370
-1
100
AcDbLine
10
81.5
20
142.85
11
81.5
21
146.35
0
LINE
5
5C
100
AcDbEntity
8
gps mount
6
ByLayer
62
256
370
-1
100
AcDbLine
10
54.1
20
121.5
11
54.1
21
118.5
0
LINE
5
5D
100
AcDbEntity
8
gps mount
6
ByLayer
62
256
370
-1
100
AcDbLine
10
62
20
121.5
11
62
21
113.5
0
LINE
5
5E
100
AcDbEntity
8
gps mount
6
ByLayer
62
256
370
-1
100
AcDbLine
10
46.8
20
121.5
11
46.8
21
118.5
0
LINE
5
5F
100
AcDbEntity
8
gps mount
6
ByLayer
62
256
370
-1
100
AcDbLine
10
46.8
20
118.5
11
54.1
21
118.5
0
LINE
5
60
100
AcDbEntity
8
gps mount
6
ByLayer
62
256
370
-1
100
AcDbLine
10
32.662145169
20
113.5
11
62
21
113.5
0
LINE
5
61
100
AcDbEntity
8
gps mount
6
ByLayer
62
256
370
-1
100
AcDbLine
10
37.5633118634
20
121.5
11
46.8
21
121.5
0
LINE
5
62
100
AcDbEntity
8
gps mount
6
ByLayer
62
256
370
-1
100
AcDbLine
10
54.1
20
121.5
11
62
21
121.5
0
ARC
5
63
100
AcDbEntity
8
gps mount
6
ByLayer
62
256
370
-1
100
AcDbCircle
10
80
20
90
40
52.85
100
AcDbArc
50
153.598752393
51
180
0
LINE
5
64
100
AcDbEntity
8
gps mount
6
ByLayer
62
256
370
-1
100
AcDbLine
10
105.9
20
121.5
11
105.9
21
118.5
0
LINE
5
65
100
AcDbEntity
8
gps mount
6
ByLayer
62
256
370
-1
100
AcDbLine
10
98
20
121.5
11
98
21
113.5
0
LINE
5
66
100
AcDbEntity
8
gps mount
6
ByLayer
62
256
370
-1
100
AcDbLine
10
113.2
20
121.5
11
113.2
21
118.5
0
LINE
5
67
100
AcDbEntity
8
gps mount
6
ByLayer
62
256
370
-1
100
AcDbLine
10
113.2
20
118.5
11
105.9
21
118.5
0
LINE
5
68
100
AcDbEntity
8
gps mount
6
ByLayer
62
256
370
-1
100
AcDbLine
10
127.337854831
20
113.5
11
98
21
113.5
0
LINE
5
69
100
AcDbEntity
8
gps mount
6
ByLayer
62
256
370
-1
100
AcDbLine
10
122.436688137
20
121.5
11
113.2
21
121.5
0
LINE
5
6A
100
AcDbEntity
8
gps mount
6
ByLayer
62
256
370
-1
100
AcDbLine
10
105.9
20
121.5
11
98
21
121.5
0
ARC
5
6B
100
AcDbEntity
8
gps mount
6
ByLayer
62
256
370
-1
100
AcDbCircle
10
80
20
90
40
52.85
100
AcDbArc
50
5.08888749034e-14
51
26.4012476068
0
ARC
5
6C
100
AcDbEntity
8
gps mount
6
ByLayer
62
256
370
-1
100
AcDbCircle
10
80
20
90
40
52.85
100
AcDbArc
50
91.6263994723
51
143.414157109
0
ARC
5
6D
100
AcDbEntity
8
gps mount
6
ByLayer
62
256
370
-1
100
AcDbCircle
10
80
20
90
40
52.85
100
AcDbArc
50
36.5858428907
51
88.3736005277
0
ARC
5
6E
100
AcDbEntity
8
gps mount
6
ByLayer
62
256
370
-1
100
AcDbCircle
10
23.5597222222
20
26.0381944444
40
14.3721334535
100
AcDbArc
50
103.724017126
51
170.137157756
0
LINE
5
6F
100
AcDbEntity
8
gps mount
6
ByLayer
62
256
370
-1
100
AcDbLine
10
81.5
20
96.35
11
78.5
21
96.35
0
ARC
5
70
100
AcDbEntity
8
gps mount
6
ByLayer
62
256
370
-1
100
AcDbCircle
10
19.3603538572
20
27.6795767844
40
10.1551648537
100
AcDbArc
50
191.240809862
51
231.500561345
0
LINE
5
71
100
AcDbEntity
8
gps mount
6
ByLayer
62
256
370
-1
100
AcDbLine
10
16.4
20
28.5
11
16.4
21
25.7
0
LINE
5
72
100
AcDbEntity
8
gps mount
6
ByLayer
62
256
370
-1
100
AcDbLine
10
16.4
20
28.5
11
9.4
21
28.5
0
LINE
5
73
100
AcDbEntity
8
gps mount
6
ByLayer
62
256
370
-1
100
AcDbLine
10
16.4
20
25.7
11
9.4
21
25.7
0
ARC
5
74
100
AcDbEntity
8
gps mount
6
ByLayer
62
256
370
-1
100
AcDbCircle
10
136.440277778
20
26.0381944444
40
14.3721334535
100
AcDbArc
50
9.86284224374
51
76.2759828739
0
ARC
5
75
100
AcDbEntity
8
gps mount
6
ByLayer
62
256
370
-1
100
AcDbCircle
10
140.639646143
20
27.6795767844
40
10.1551648537
100
AcDbArc
50
308.499438655
51
348.759190138
0
LINE
5
76
100
AcDbEntity
8
gps mount
6
ByLayer
62
256
370
-1
100
AcDbLine
10
143.6
20
28.5
11
143.6
21
25.7
0
LINE
5
77
100
AcDbEntity
8
gps mount
6
ByLayer
62
256
370
-1
100
AcDbLine
10
143.6
20
28.5
11
150.6
21
28.5
0
LINE
5
78
100
AcDbEntity
8
gps mount
6
ByLayer
62
256
370
-1
100
AcDbLine
10
143.6
20
25.7
11
150.6
21
25.7
0
LINE
5
79
100
AcDbEntity
8
gps mount
6
ByLayer
62
256
370
-1
100
AcDbLine
10
138.85
20
19.732
11
146.961307037
21
19.732
0
LINE
5
7A
100
AcDbEntity
8
gps mount
6
ByLayer
62
256
370
-1
100
AcDbLine
10
132.85
20
40
11
132.85
21
25.732
0
ARC
5
7B
100
AcDbEntity
8
gps mount
6
ByLayer
62
256
370
-1
100
AcDbCircle
10
138.85
20
25.732
40
6
100
AcDbArc
50
180
51
270
0
LINE
5
7C
100
AcDbEntity
8
gps mount
6
ByLayer
62
256
370
-1
100
AcDbLine
10
21.15
20
19.732
11
13.0386929629
21
19.732
0
LINE
5
7D
100
AcDbEntity
8
gps mount
6
ByLayer
62
256
370
-1
100
AcDbLine
10
27.15
20
40
11
27.15
21
25.732
0
ARC
5
7E
100
AcDbEntity
8
gps mount
6
ByLayer
62
256
370
-1
100
AcDbCircle
10
21.15
20
25.732
40
6
100
AcDbArc
50
270
51
0
0
LINE
5
7F
100
AcDbEntity
8
gps mount
6
ByLayer
62
256
370
-1
100
AcDbLine
10
78.5
20
96.35
11
78.5
21
99.85
0
LINE
5
80
100
AcDbEntity
8
gps mount
6
ByLayer
62
256
370
-1
100
AcDbLine
10
81.5
20
96.35
11
81.5
21
99.85
0
ARC
5
81
100
AcDbEntity
8
gps mount
6
ByLayer
62
256
370
-1
100
AcDbCircle
10
80
20
40
40
59.85
100
AcDbArc
50
91.4361348239
51
180
0
ARC
5
82
100
AcDbEntity
8
gps mount
6
ByLayer
62
256
370
-1
100
AcDbCircle
10
80
20
40
40
59.85
100
AcDbArc
50
360
51
88.5638651761
0
LINE
5
83
100
AcDbEntity
8
gps mount
6
ByLayer
62
256
370
-1
100
AcDbLine
10
54.1
20
71.5
11
54.1
21
68.5
0
LINE
5
84
100
AcDbEntity
8
gps mount
6
ByLayer
62
256
370
-1
100
AcDbLine
10
62
20
71.5
11
62
21
63.5
0
LINE
5
85
100
AcDbEntity
8
gps mount
6
ByLayer
62
256
370
-1
100
AcDbLine
10
46.8
20
71.5
11
46.8
21
68.5
0
LINE
5
86
100
AcDbEntity
8
gps mount
6
ByLayer
62
256
370
-1
100
AcDbLine
10
46.8
20
68.5
11
54.1
21
68.5
0
LINE
5
87
100
AcDbEntity
8
gps mount
6
ByLayer
62
256
370
-1
100
AcDbLine
10
32.662145169
20
63.5
11
62
21
63.5
0
LINE
5
88
100
AcDbEntity
8
gps mount
6
ByLayer
62
256
370
-1
100
AcDbLine
10
37.5633118634
20
71.5
11
46.8
21
71.5
0
LINE
5
89
100
AcDbEntity
8
gps mount
6
ByLayer
62
256
370
-1
100
AcDbLine
10
54.1
20
71.5
11
62
21
71.5
0
ARC
5
8A
100
AcDbEntity
8
gps mount
6
ByLayer
62
256
370
-1
100
AcDbCircle
10
80
20
40
40
52.85
100
AcDbArc
50
153.598752393
51
180
0
ARC
5
8B
100
AcDbEntity
8
gps mount
6
ByLayer
62
256
370
-1
100
AcDbCircle
10
80
20
40
40
52.85
100
AcDbArc
50
90
51
143.414157109
0
LINE
5
8C
100
AcDbEntity
8
gps mount
6
ByLayer
62
256
370
-1
100
AcDbLine
10
105.9
20
71.5
11
105.9
21
68.5
0
LINE
5
8D
100
AcDbEntity
8
gps mount
6
ByLayer
62
256
370
-1
100
AcDbLine
10
98
20
71.5
11
98
21
63.5
0
LINE
5
8E
100
AcDbEntity
8
gps mount
6
ByLayer
62
256
370
-1
100
AcDbLine
10
113.2
20
71.5
11
113.2
21
68.5
0
LINE
5
8F
100
AcDbEntity
8
gps mount
6
ByLayer
62
256
370
-1
100
AcDbLine
10
113.2
20
68.5
11
105.9
21
68.5
0
LINE
5
90
100
AcDbEntity
8
gps mount
6
ByLayer
62
256
370
-1
100
AcDbLine
10
127.337854831
20
63.5
11
98
21
63.5
0
LINE
5
91
100
AcDbEntity
8
gps mount
6
ByLayer
62
256
370
-1
100
AcDbLine
10
122.436688137
20
71.5
11
113.2
21
71.5
0
LINE
5
92
100
AcDbEntity
8
gps mount
6
ByLayer
62
256
370
-1
100
AcDbLine
10
105.9
20
71.5
11
98
21
71.5
0
ARC
5
93
100
AcDbEntity
8
gps mount
6
ByLayer
62
256
370
-1
100
AcDbCircle
10
80
20
40
40
52.85
100
AcDbArc
50
5.08888749034e-14
51
26.4012476068
0
ARC
5
94
100
AcDbEntity
8
gps mount
6
ByLayer
62
256
370
-1
100
AcDbCircle
10
80
20
40
40
52.85
100
AcDbArc
50
36.5858428907
51
90
0
LINE
5
95
100
AcDbEntity
8
gps mount plate
6
ByLayer
62
256
370
-1
100
AcDbLine
10
82.1213203436
20
6.76598128423
11
113.234018716
21
37.8786796564
0
LINE
5
96
100
AcDbEntity
8
gps mount plate
6
ByLayer
62
256
370
-1
100
AcDbLine
10
113.234018716
20
42.1213203436
11
82.1213203436
21
73.2340187158
0
LINE
5
97
100
AcDbEntity
8
gps mount plate
6
ByLayer
62
256
370
-1
100
AcDbLine
10
46.7659812842
20
37.8786796564
11
77.8786796564
21
6.76598128423
0
LINE
5
98
100
AcDbEntity
8
gps mount plate
6
ByLayer
62
256
370
-1
100
AcDbLine
10
78.55
20
13.7659812842
11
81.45
21
13.7659812842
0
LINE
5
99
100
AcDbEntity
8
gps mount plate
6
ByLayer
62
256
370
-1
100
AcDbLine
10
78.55
20
22.5659812842
11
81.45
21
22.5659812842
0
LINE
5
9A
100
AcDbEntity
8
gps mount plate
6
ByLayer
62
256
370
-1
100
AcDbLine
10
78.55
20
13.7659812842
11
78.55
21
22.5659812842
0
LINE
5
9B
100
AcDbEntity
8
gps mount plate
6
ByLayer
62
256
370
-1
100
AcDbLine
10
81.45
20
13.7659812842
11
81.45
21
22.5659812842
0
LINE
5
9C
100
AcDbEntity
8
gps mount plate
6
ByLayer
62
256
370
-1
100
AcDbLine
10
106.234018716
20
38.55
11
106.234018716
21
41.45
0
LINE
5
9D
100
AcDbEntity
8
gps mount plate
6
ByLayer
62
256
370
-1
100
AcDbLine
10
97.4340187158
20
38.55
11
97.4340187158
21
41.45
0
LINE
5
9E
100
AcDbEntity
8
gps mount plate
6
ByLayer
62
256
370
-1
100
AcDbLine
10
106.234018716
20
38.55
11
97.4340187158
21
38.55
0
LINE
5
9F
100
AcDbEntity
8
gps mount plate
6
ByLayer
62
256
370
-1
100
AcDbLine
10
106.234018716
20
41.45
11
97.4340187158
21
41.45
0
LINE
5
A0
100
AcDbEntity
8
gps mount plate
6
ByLayer
62
256
370
-1
100
AcDbLine
10
81.45
20
66.2340187158
11
78.55
21
66.2340187158
0
LINE
5
A1
100
AcDbEntity
8
gps mount plate
6
ByLayer
62
256
370
-1
100
AcDbLine
10
81.45
20
57.4340187158
11
78.55
21
57.4340187158
0
LINE
5
A2
100
AcDbEntity
8
gps mount plate
6
ByLayer
62
256
370
-1
100
AcDbLine
10
81.45
20
66.2340187158
11
81.45
21
57.4340187158
0
LINE
5
A3
100
AcDbEntity
8
gps mount plate
6
ByLayer
62
256
370
-1
100
AcDbLine
10
78.55
20
66.2340187158
11
78.55
21
57.4340187158
0
LINE
5
A4
100
AcDbEntity
8
gps mount plate
6
ByLayer
62
256
370
-1
100
AcDbLine
10
54.05
20
41.45
11
61.95
21
41.45
0
LINE
5
A5
100
AcDbEntity
8
gps mount plate
6
ByLayer
62
256
370
-1
100
AcDbLine
10
54.05
20
38.55
11
61.95
21
38.55
0
LINE
5
A6
100
AcDbEntity
8
gps mount plate
6
ByLayer
62
256
370
-1
100
AcDbLine
10
54.05
20
41.45
11
54.05
21
38.55
0
LINE
5
A7
100
AcDbEntity
8
gps mount plate
6
ByLayer
62
256
370
-1
100
AcDbLine
10
61.95
20
41.45
11
61.95
21
38.55
0
LINE
5
A8
100
AcDbEntity
8
gps mount plate
6
ByLayer
62
256
370
-1
100
AcDbLine
10
82.1213203436
20
73.2340187158
11
77.8786796564
21
73.2340187158
0
LINE
5
A9
100
AcDbEntity
8
gps mount plate
6
ByLayer
62
256
370
-1
100
AcDbLine
10
46.7659812842
20
42.1213203436
11
46.7659812842
21
37.8786796564
0
LINE
5
AA
100
AcDbEntity
8
gps mount plate
6
ByLayer
62
256
370
-1
100
AcDbLine
10
77.8786796564
20
6.76598128423
11
82.1213203436
21
6.76598128423
0
LINE
5
AB
100
AcDbEntity
8
gps mount plate
6
ByLayer
62
256
370
-1
100
AcDbLine
10
113.234018716
20
37.8786796564
11
113.234018716
21
42.1213203436
0
LINE
5
AC
100
AcDbEntity
8
gps mount plate
6
ByLayer
62
256
370
-1
100
AcDbLine
10
197.395905955
20
6.0931724188
11
228.508604327
21
37.205870791
0
LINE
5
AD
100
AcDbEntity
8
gps mount plate
6
ByLayer
62
256
370
-1
100
AcDbLine
10
228.508604327
20
41.4485114782
11
197.395905955
21
72.5612098504
0
LINE
5
AE
100
AcDbEntity
8
gps mount plate
6
ByLayer
62
256
370
-1
100
AcDbLine
10
162.040566895
20
37.205870791
11
193.153265268
21
6.0931724188
0
LINE
5
AF
100
AcDbEntity
8
gps mount plate
6
ByLayer
62
256
370
-1
100
AcDbLine
10
193.824585611
20
13.0931724188
11
196.724585611
21
13.0931724188
0
LINE
5
B0
100
AcDbEntity
8
gps mount plate
6
ByLayer
62
256
370
-1
100
AcDbLine
10
193.824585611
20
21.8931724188
11
196.724585611
21
21.8931724188
0
LINE
5
B1
100
AcDbEntity
8
gps mount plate
6
ByLayer
62
256
370
-1
100
AcDbLine
10
193.824585611
20
13.0931724188
11
193.824585611
21
21.8931724188
0
LINE
5
B2
100
AcDbEntity
8
gps mount plate
6
ByLayer
62
256
370
-1
100
AcDbLine
10
196.724585611
20
13.0931724188
11
196.724585611
21
21.8931724188
0
LINE
5
B3
100
AcDbEntity
8
gps mount plate
6
ByLayer
62
256
370
-1
100
AcDbLine
10
221.508604327
20
37.8771911346
11
221.508604327
21
40.7771911346
0
LINE
5
B4
100
AcDbEntity
8
gps mount plate
6
ByLayer
62
256
370
-1
100
AcDbLine
10
212.708604327
20
37.8771911346
11
212.708604327
21
40.7771911346
0
LINE
5
B5
100
AcDbEntity
8
gps mount plate
6
ByLayer
62
256
370
-1
100
AcDbLine
10
221.508604327
20
37.8771911346
11
212.708604327
21
37.8771911346
0
LINE
5
B6
100
AcDbEntity
8
gps mount plate
6
ByLayer
62
256
370
-1
100
AcDbLine
10
221.508604327
20
40.7771911346
11
212.708604327
21
40.7771911346
0
LINE
5
B7
100
AcDbEntity
8
gps mount plate
6
ByLayer
62
256
370
-1
100
AcDbLine
10
196.724585611
20
65.5612098504
11
193.824585611
21
65.5612098504
0
LINE
5
B8
100
AcDbEntity
8
gps mount plate
6
ByLayer
62
256
370
-1
100
AcDbLine
10
196.724585611
20
56.7612098504
11
193.824585611
21
56.7612098504
0
LINE
5
B9
100
AcDbEntity
8
gps mount plate
6
ByLayer
62
256
370
-1
100
AcDbLine
10
196.724585611
20
65.5612098504
11
196.724585611
21
56.7612098504
0
LINE
5
BA
100
AcDbEntity
8
gps mount plate
6
ByLayer
62
256
370
-1
100
AcDbLine
10
193.824585611
20
65.5612098504
11
193.824585611
21
56.7612098504
0
LINE
5
BB
100
AcDbEntity
8
gps mount plate
6
ByLayer
62
256
370
-1
100
AcDbLine
10
169.324585611
20
40.7771911346
11
177.224585611
21
40.7771911346
0
LINE
5
BC
100
AcDbEntity
8
gps mount plate
6
ByLayer
62
256
370
-1
100
AcDbLine
10
169.324585611
20
37.8771911346
11
177.224585611
21
37.8771911346
0
LINE
5
BD
100
AcDbEntity
8
gps mount plate
6
ByLayer
62
256
370
-1
100
AcDbLine
10
169.324585611
20
40.7771911346
11
169.324585611
21
37.8771911346
0
LINE
5
BE
100
AcDbEntity
8
gps mount plate
6
ByLayer
62
256
370
-1
100
AcDbLine
10
177.224585611
20
40.7771911346
11
177.224585611
21
37.8771911346
0
LINE
5
BF
100
AcDbEntity
8
gps mount plate
6
ByLayer
62
256
370
-1
100
AcDbLine
10
180.146692749
20
36.0703076856
11
182.975119874
21
33.2418805609
0
LINE
5
C0
100
AcDbEntity
8
gps mount plate
6
ByLayer
62
256
370
-1
100
AcDbLine
10
181.914459702
20
32.1812203891
11
182.975119874
21
33.2418805609
0
LINE
5
C1
100
AcDbEntity
8
gps mount plate
6
ByLayer
62
256
370
-1
100
AcDbLine
10
179.086032577
20
35.0096475138
11
181.914459702
21
32.1812203891
0
LINE
5
C2
100
AcDbEntity
8
gps mount plate
6
ByLayer
62
256
370
-1
100
AcDbLine
10
179.086032577
20
35.0096475138
11
180.146692749
21
36.0703076856
0
LINE
5
C3
100
AcDbEntity
8
gps mount plate
6
ByLayer
62
256
370
-1
100
AcDbLine
10
199.592129232
20
55.5157441682
11
202.420556357
21
52.6873170435
0
LINE
5
C4
100
AcDbEntity
8
gps mount plate
6
ByLayer
62
256
370
-1
100
AcDbLine
10
201.359896185
20
51.6266568717
11
202.420556357
21
52.6873170435
0
LINE
5
C5
100
AcDbEntity
8
gps mount plate
6
ByLayer
62
256
370
-1
100
AcDbLine
10
198.53146906
20
54.4550839965
11
201.359896185
21
51.6266568717
0
LINE
5
C6
100
AcDbEntity
8
gps mount plate
6
ByLayer
62
256
370
-1
100
AcDbLine
10
198.53146906
20
54.4550839965
11
199.592129232
21
55.5157441682
0
LINE
5
C7
100
AcDbEntity
8
gps mount plate
6
ByLayer
62
256
370
-1
100
AcDbLine
10
169.818741489
20
49.2266860713
11
162.040566895
21
41.4485114782
0
LINE
5
C8
100
AcDbEntity
8
gps mount plate
6
ByLayer
62
256
370
-1
100
AcDbLine
10
176.8898093
20
42.1556182595
11
169.818741489
21
49.2266860713
0
LINE
5
C9
100
AcDbEntity
8
gps mount plate
6
ByLayer
62
256
370
-1
100
AcDbLine
10
192.446158486
20
57.7119674456
11
176.8898093
21
42.1556182595
0
LINE
5
CA
100
AcDbEntity
8
gps mount plate
6
ByLayer
62
256
370
-1
100
AcDbLine
10
185.375090675
20
64.7830352574
11
193.153265268
21
72.5612098504
0
LINE
5
CB
100
AcDbEntity
8
gps mount plate
6
ByLayer
62
256
370
-1
100
AcDbLine
10
192.446158486
20
57.7119674456
11
185.375090675
21
64.7830352574
0
LINE
5
CC
100
AcDbEntity
8
gps mount plate
6
ByLayer
62
256
370
-1
100
AcDbLine
10
197.395905955
20
72.5612098504
11
193.153265268
21
72.5612098504
0
LINE
5
CD
100
AcDbEntity
8
gps mount plate
6
ByLayer
62
256
370
-1
100
AcDbLine
10
162.040566895
20
41.4485114782
11
162.040566895
21
37.205870791
0
LINE
5
CE
100
AcDbEntity
8
gps mount plate
6
ByLayer
62
256
370
-1
100
AcDbLine
10
193.153265268
20
6.0931724188
11
197.395905955
21
6.0931724188
0
LINE
5
CF
100
AcDbEntity
8
gps mount plate
6
ByLayer
62
256
370
-1
100
AcDbLine
10
228.508604327
20
37.205870791
11
228.508604327
21
41.4485114782
0
LINE
5
D0
100
AcDbEntity
8
gps mount plate
6
ByLayer
62
256
370
-1
100
AcDbLine
10
77.8786796564
20
73.2340187158
11
46.7659812842
21
42.1213203436
0
ENDSEC
0
SECTION
2
OBJECTS
0
DICTIONARY
5
C
330
0
100
AcDbDictionary
281
1
3
ACAD_GROUP
350
D
0
DICTIONARY
5
D
330
C
100
AcDbDictionary
281
1
0
ENDSEC
0
EOF
