999
dxfrw 0.5.10
0
SECTION
2
HEADER
9
$ACADVER
1
AC1021
9
$HANDSEED
5
20000
9
$DWGCODEPAGE
3
ANSI_1252
9
$INSBASE
10
0
20
0
30
0
9
$EXTMIN
10
0
20
36.2
30
0
9
$EXTMAX
10
245
20
276
30
0
9
$LIMMIN
10
0
20
0
9
$LIMMAX
10
420
20
297
9
$ORTHOMODE
70
0
9
$LTSCALE
40
1
9
$TEXTSTYLE
7
STANDARD
9
$CLAYER
8
top plate
9
$DIMASZ
40
2.5
9
$DIMLFAC
40
1
9
$DIMSCALE
40
1
9
$DIMEXO
40
0.625
9
$DIMEXE
40
1.25
9
$DIMTXT
40
2.5
9
$DIMTSZ
40
0
9
$DIMAUNIT
70
0
9
$DIMADEC
70
2
9
$DIMLUNIT
70
2
9
$DIMSTYLE
2
STANDARD
9
$DIMGAP
40
0.625
9
$DIMTIH
70
0
9
$LUNITS
70
2
9
$LUPREC
70
4
9
$AUNITS
70
0
9
$AUPREC
70
2
9
$SPLINESEGS
70
8
9
$GRIDMODE
70
1
9
$SNAPSTYLE
70
0
9
$GRIDUNIT
10
5
20
5
9
$PINSBASE
10
0
20
0
30
0
9
$PLIMMIN
10
0
20
0
9
$PLIMMAX
10
210
20
297
9
$INSUNITS
70
4
9
$PSVPSCALE
40
1
0
ENDSEC
0
SECTION
2
CLASSES
0
ENDSEC
0
SECTION
2
TABLES
0
TABLE
2
VPORT
5
8
330
0
100
AcDbSymbolTable
70
1
0
VPORT
5
31
330
2
100
AcDbSymbolTableRecord
100
AcDbViewportTableRecord
2
*ACTIVE
70
0
10
0
20
0
11
1
21
1
12
186.239655172
22
139.820689655
13
0
23
0
14
10
24
10
15
5
25
5
16
0
26
0
36
1
17
0
27
0
37
0
40
247.317241379
41
2.01975683891
42
50
43
0
44
0
50
0
51
0
71
0
72
100
73
1
74
3
75
0
76
1
77
0
78
0
281
0
65
1
110
0
120
0
130
0
111
1
121
0
131
0
112
0
122
1
132
0
79
0
146
0
348
10020
60
3
61
5
292
1
282
1
141
0
142
0
63
250
421
3358443
0
ENDTAB
0
TABLE
2
LTYPE
5
5
330
0
100
AcDbSymbolTable
70
4
0
LTYPE
5
14
330
5
100
AcDbSymbolTableRecord
100
AcDbLinetypeTableRecord
2
ByBlock
70
0
3

72
65
73
0
40
0
0
LTYPE
5
15
330
5
100
AcDbSymbolTableRecord
100
AcDbLinetypeTableRecord
2
ByLayer
70
0
3

72
65
73
0
40
0
0
LTYPE
5
16
330
5
100
AcDbSymbolTableRecord
100
AcDbLinetypeTableRecord
2
Continuous
70
0
3
Solid line
72
65
73
0
40
0
0
LTYPE
5
32
330
5
100
AcDbSymbolTableRecord
100
AcDbLinetypeTableRecord
2
DOT
70
0
3
Dot . . . . . . . . . . . . . . . . . . . . . .
72
65
73
2
40
6.35
49
0
74
0
49
-6.35
74
0
0
LTYPE
5
33
330
5
100
AcDbSymbolTableRecord
100
AcDbLinetypeTableRecord
2
DOT2
70
0
3
Dot (.5x) .....................................
72
65
73
2
40
3.175
49
0
74
0
49
-3.175
74
0
0
LTYPE
5
34
330
5
100
AcDbSymbolTableRecord
100
AcDbLinetypeTableRecord
2
DOTX2
70
0
3
Dot (2x) .  .  .  .  .  .  .  .  .  .  .  .  .
72
65
73
2
40
12.7
49
0
74
0
49
-12.7
74
0
0
LTYPE
5
35
330
5
100
AcDbSymbolTableRecord
100
AcDbLinetypeTableRecord
2
DASHED
70
0
3
Dot . . . . . . . . . . . . . . . . . . . . . .
72
65
73
2
40
19.05
49
12.7
74
0
49
-6.35
74
0
0
LTYPE
5
36
330
5
100
AcDbSymbolTableRecord
100
AcDbLinetypeTableRecord
2
DASHED2
70
0
3
Dashed (.5x) _ _ _ _ _ _ _ _ _ _ _ _ _ _ _ _ _
72
65
73
2
40
9.525
49
6.35
74
0
49
-3.175
74
0
0
LTYPE
5
37
330
5
100
AcDbSymbolTableRecord
100
AcDbLinetypeTableRecord
2
DASHEDX2
70
0
3
Dashed (2x) ____  ____  ____  ____  ____  ___
72
65
73
2
40
38.1
49
25.4
74
0
49
-12.7
74
0
0
LTYPE
5
38
330
5
100
AcDbSymbolTableRecord
100
AcDbLinetypeTableRecord
2
DASHDOT
70
0
3
Dash dot __ . __ . __ . __ . __ . __ . __ . __
72
65
73
4
40
25.4
49
12.7
74
0
49
-6.35
74
0
49
0
74
0
49
-6.35
74
0
0
LTYPE
5
39
330
5
100
AcDbSymbolTableRecord
100
AcDbLinetypeTableRecord
2
DASHDOT2
70
0
3
Dash dot (.5x) _._._._._._._._._._._._._._._.
72
65
73
4
40
12.7
49
6.35
74
0
49
-3.175
74
0
49
0
74
0
49
-3.175
74
0
0
LTYPE
5
3A
330
5
100
AcDbSymbolTableRecord
100
AcDbLinetypeTableRecord
2
DASHDOTX2
70
0
3
Dash dot (2x) ____  .  ____  .  ____  .  ___
72
65
73
4
40
50.8
49
25.4
74
0
49
-12.7
74
0
49
0
74
0
49
-12.7
74
0
0
LTYPE
5
3B
330
5
100
AcDbSymbolTableRecord
100
AcDbLinetypeTableRecord
2
DIVIDE
70
0
3
Divide ____ . . ____ . . ____ . . ____ . . ____
72
65
73
6
40
31.75
49
12.7
74
0
49
-6.35
74
0
49
0
74
0
49
-6.35
74
0
49
0
74
0
49
-6.35
74
0
0
LTYPE
5
3C
330
5
100
AcDbSymbolTableRecord
100
AcDbLinetypeTableRecord
2
DIVIDE2
70
0
3
Divide (.5x) __..__..__..__..__..__..__..__.._
72
65
73
6
40
15.875
49
6.35
74
0
49
-3.175
74
0
49
0
74
0
49
-3.175
74
0
49
0
74
0
49
-3.175
74
0
0
LTYPE
5
3D
330
5
100
AcDbSymbolTableRecord
100
AcDbLinetypeTableRecord
2
DIVIDEX2
70
0
3
Divide (2x) ________  .  .  ________  .  .  _
72
65
73
6
40
63.5
49
25.4
74
0
49
-12.7
74
0
49
0
74
0
49
-12.7
74
0
49
0
74
0
49
-12.7
74
0
0
LTYPE
5
3E
330
5
100
AcDbSymbolTableRecord
100
AcDbLinetypeTableRecord
2
BORDER
70
0
3
Border __ __ . __ __ . __ __ . __ __ . __ __ .
72
65
73
6
40
44.45
49
12.7
74
0
49
-6.35
74
0
49
12.7
74
0
49
-6.35
74
0
49
0
74
0
49
-6.35
74
0
0
LTYPE
5
3F
330
5
100
AcDbSymbolTableRecord
100
AcDbLinetypeTableRecord
2
BORDER2
70
0
3
Border (.5x) __.__.__.__.__.__.__.__.__.__.__.
72
65
73
6
40
22.225
49
6.35
74
0
49
-3.175
74
0
49
6.35
74
0
49
-3.175
74
0
49
0
74
0
49
-3.175
74
0
0
LTYPE
5
40
330
5
100
AcDbSymbolTableRecord
100
AcDbLinetypeTableRecord
2
BORDERX2
70
0
3
Border (2x) ____  ____  .  ____  ____  .  ___
72
65
73
6
40
88.9
49
25.4
74
0
49
-12.7
74
0
49
25.4
74
0
49
-12.7
74
0
49
0
74
0
49
-12.7
74
0
0
LTYPE
5
41
330
5
100
AcDbSymbolTableRecord
100
AcDbLinetypeTableRecord
2
CENTER
70
0
3
Center ____ _ ____ _ ____ _ ____ _ ____ _ ____
72
65
73
4
40
50.8
49
31.75
74
0
49
-6.35
74
0
49
6.35
74
0
49
-6.35
74
0
0
LTYPE
5
42
330
5
100
AcDbSymbolTableRecord
100
AcDbLinetypeTableRecord
2
CENTER2
70
0
3
Center (.5x) ___ _ ___ _ ___ _ ___ _ ___ _ ___
72
65
73
4
40
28.575
49
19.05
74
0
49
-3.175
74
0
49
3.175
74
0
49
-3.175
74
0
0
LTYPE
5
43
330
5
100
AcDbSymbolTableRecord
100
AcDbLinetypeTableRecord
2
CENTERX2
70
0
3
Center (2x) ________  __  ________  __  _____
72
65
73
4
40
101.6
49
63.5
74
0
49
-12.7
74
0
49
12.7
74
0
49
-12.7
74
0
0
ENDTAB
0
TABLE
2
LAYER
5
2
330
0
100
AcDbSymbolTable
70
1
0
LAYER
5
10
330
2
100
AcDbSymbolTableRecord
100
AcDbLayerTableRecord
2
0
70
0
62
7
6
CONTINUOUS
370
0
390
F
0
LAYER
5
44
330
2
100
AcDbSymbolTableRecord
100
AcDbLayerTableRecord
2
frame
70
0
62
7
6
CONTINUOUS
370
0
390
F
0
LAYER
5
45
330
2
100
AcDbSymbolTableRecord
100
AcDbLayerTableRecord
2
bottom plate
70
0
62
136
420
32896
6
CONTINUOUS
370
-3
390
F
0
LAYER
5
46
330
2
100
AcDbSymbolTableRecord
100
AcDbLayerTableRecord
2
top plate
70
0
62
136
420
32896
6
CONTINUOUS
370
0
390
F
0
LAYER
5
47
330
2
100
AcDbSymbolTableRecord
100
AcDbLayerTableRecord
2
plate mount holes
70
0
62
2
6
CONTINUOUS
370
0
390
F
0
LAYER
5
48
330
2
100
AcDbSymbolTableRecord
100
AcDbLayerTableRecord
2
plate mounts
70
0
62
56
420
8421376
6
CONTINUOUS
370
0
390
F
0
ENDTAB
0
TABLE
2
STYLE
5
3
330
0
100
AcDbSymbolTable
70
3
0
STYLE
5
49
330
2
100
AcDbSymbolTableRecord
100
AcDbTextStyleTableRecord
2
Standard
70
0
40
0
41
1
50
0
71
0
42
1
3
txt
4

0
ENDTAB
0
TABLE
2
VIEW
5
6
330
0
100
AcDbSymbolTable
70
0
0
ENDTAB
0
TABLE
2
UCS
5
7
330
0
100
AcDbSymbolTable
70
0
0
ENDTAB
0
TABLE
2
APPID
5
9
330
0
100
AcDbSymbolTable
70
1
0
APPID
5
12
330
9
100
AcDbSymbolTableRecord
100
AcDbRegAppTableRecord
2
ACAD
70
0
0
ENDTAB
0
TABLE
2
DIMSTYLE
5
A
330
0
100
AcDbSymbolTable
70
1
100
AcDbDimStyleTable
71
1
0
DIMSTYLE
105
4A
330
A
100
AcDbSymbolTableRecord
100
AcDbDimStyleTableRecord
2
Standard
70
0
40
1
41
2.5
42
0.625
43
0.38
44
1.25
45
0
46
0
47
0
48
0
140
2.5
141
0.09
142
0
143
25.4
144
1
145
0
146
1
147
0.625
148
0
71
0
72
0
73
0
74
1
75
0
76
0
77
0
78
0
79
0
170
0
171
2
172
0
173
0
174
0
175
0
176
0
177
0
178
0
179
0
271
4
272
4
273
2
274
2
275
0
276
0
277
2
278
46
279
0
280
0
281
0
282
0
283
1
284
0
285
0
286
0
288
0
289
3
340
Standard
341

371
-2
372
-2
0
ENDTAB
0
TABLE
2
BLOCK_RECORD
5
1
330
0
100
AcDbSymbolTable
70
2
0
BLOCK_RECORD
5
1F
330
1
100
AcDbSymbolTableRecord
100
AcDbBlockTableRecord
2
*Model_Space
70
0
280
1
281
0
0
BLOCK_RECORD
5
1E
330
1
100
AcDbSymbolTableRecord
100
AcDbBlockTableRecord
2
*Paper_Space
70
0
280
1
281
0
0
ENDTAB
0
ENDSEC
0
SECTION
2
BLOCKS
0
BLOCK
5
20
330
1F
100
AcDbEntity
8
0
100
AcDbBlockBegin
2
*Model_Space
70
0
10
0
20
0
30
0
3
*Model_Space
1

0
ENDBLK
5
21
330
1F
100
AcDbEntity
8
0
100
AcDbBlockEnd
0
BLOCK
5
1C
330
1B
100
AcDbEntity
8
0
100
AcDbBlockBegin
2
*Paper_Space
70
0
10
0
20
0
30
0
3
*Paper_Space
1

0
ENDBLK
5
1D
330
1F
100
AcDbEntity
8
0
100
AcDbBlockEnd
0
ENDSEC
0
SECTION
2
ENTITIES
0
CIRCLE
5
4B
100
AcDbEntity
8
top plate
6
ByLayer
62
256
370
-1
100
AcDbCircle
10
85.5
20
172.5
40
1.5
0
CIRCLE
5
4C
100
AcDbEntity
8
top plate
6
ByLayer
62
256
370
-1
100
AcDbCircle
10
92.75
20
179.75
40
1.5
0
CIRCLE
5
4D
100
AcDbEntity
8
top plate
6
ByLayer
62
256
370
-1
100
AcDbCircle
10
92.75
20
210.25
40
1.5
0
CIRCLE
5
4E
100
AcDbEntity
8
top plate
6
ByLayer
62
256
370
-1
100
AcDbCircle
10
85.5
20
217.5
40
1.5
0
CIRCLE
5
4F
100
AcDbEntity
8
top plate
6
ByLayer
62
256
370
-1
100
AcDbCircle
10
130.5
20
217.5
40
1.5
0
CIRCLE
5
50
100
AcDbEntity
8
top plate
6
ByLayer
62
256
370
-1
100
AcDbCircle
10
123.25
20
210.25
40
1.5
0
CIRCLE
5
51
100
AcDbEntity
8
top plate
6
ByLayer
62
256
370
-1
100
AcDbCircle
10
123.25
20
179.75
40
1.5
0
CIRCLE
5
52
100
AcDbEntity
8
top plate
6
ByLayer
62
256
370
-1
100
AcDbCircle
10
130.5
20
172.5
40
1.5
0
ARC
5
53
100
AcDbEntity
8
top plate
6
ByLayer
62
256
370
-1
100
AcDbCircle
10
139.138315834
20
70.223368333
40
104.522585788
100
AcDbArc
50
108.232701473
51
153.278845338
0
ARC
5
54
100
AcDbEntity
8
top plate
6
ByLayer
62
256
370
-1
100
AcDbCircle
10
107.999977032
20
164.749300221
40
5
100
AcDbArc
50
71.767399967
51
108.232701473
0
ARC
5
55
100
AcDbEntity
8
top plate
6
ByLayer
62
256
370
-1
100
AcDbCircle
10
-16.776631667
20
226.138315834
40
104.522585788
100
AcDbArc
50
296.721154662
51
341.767323645
0
ARC
5
56
100
AcDbEntity
8
top plate
6
ByLayer
62
256
370
-1
100
AcDbCircle
10
38
20
125
40
11
100
AcDbArc
50
135
51
315
0
ARC
5
57
100
AcDbEntity
8
top plate
6
ByLayer
62
256
370
-1
100
AcDbCircle
10
232.776631667
20
226.138315834
40
104.522585788
100
AcDbArc
50
198.232701473
51
243.278845338
0
ARC
5
58
100
AcDbEntity
8
top plate
6
ByLayer
62
256
370
-1
100
AcDbCircle
10
76.861684166
20
70.223368333
40
104.522585788
100
AcDbArc
50
26.721154662
51
71.767323645
0
ARC
5
59
100
AcDbEntity
8
top plate
6
ByLayer
62
256
370
-1
100
AcDbCircle
10
178
20
125
40
11
100
AcDbArc
50
225
51
45
0
ARC
5
5A
100
AcDbEntity
8
top plate
6
ByLayer
62
256
370
-1
100
AcDbCircle
10
76.861684166
20
319.776631667
40
104.522585788
100
AcDbArc
50
288.232701473
51
333.278845338
0
ARC
5
5B
100
AcDbEntity
8
top plate
6
ByLayer
62
256
370
-1
100
AcDbCircle
10
232.776631667
20
163.861684166
40
104.522585788
100
AcDbArc
50
116.721154662
51
161.767323645
0
ARC
5
5C
100
AcDbEntity
8
top plate
6
ByLayer
62
256
370
-1
100
AcDbCircle
10
178
20
265
40
11
100
AcDbArc
50
315
51
135
0
ARC
5
5D
100
AcDbEntity
8
top plate
6
ByLayer
62
256
370
-1
100
AcDbCircle
10
-16.776631667
20
163.861684166
40
104.522585788
100
AcDbArc
50
18.232701473
51
63.278845338
0
ARC
5
5E
100
AcDbEntity
8
top plate
6
ByLayer
62
256
370
-1
100
AcDbCircle
10
139.138315834
20
319.776631667
40
104.522585788
100
AcDbArc
50
206.721154662
51
251.767323645
0
ARC
5
5F
100
AcDbEntity
8
top plate
6
ByLayer
62
256
370
-1
100
AcDbCircle
10
38
20
265
40
11
100
AcDbArc
50
45
51
225
0
ARC
5
60
100
AcDbEntity
8
top plate
6
ByLayer
62
256
370
-1
100
AcDbCircle
10
138.250699779
20
194.999977032
40
5
100
AcDbArc
50
161.767399967
51
198.232701473
0
ARC
5
61
100
AcDbEntity
8
top plate
6
ByLayer
62
256
370
-1
100
AcDbCircle
10
108.000022968
20
225.250699779
40
5
100
AcDbArc
50
251.767399967
51
288.232701473
0
ARC
5
62
100
AcDbEntity
8
top plate
6
ByLayer
62
256
370
-1
100
AcDbCircle
10
77.749300221
20
195.000022968
40
5
100
AcDbArc
50
341.767399967
51
18.232701473
0
LINE
5
63
100
AcDbEntity
8
top plate
6
ByLayer
62
256
370
-1
100
AcDbLine
10
39.7641956155
20
124.642875272
11
84.6868308456
21
169.565510502
0
LINE
5
64
100
AcDbEntity
8
top plate
6
ByLayer
62
256
370
-1
100
AcDbLine
10
37.6428752719
20
126.764195615
11
82.5655105021
21
171.686830846
0
LINE
5
65
100
AcDbEntity
8
top plate
6
ByLayer
62
256
370
-1
100
AcDbLine
10
86.3131764424
20
175.434496786
11
89.8154763296
21
178.936796673
0
LINE
5
66
100
AcDbEntity
8
top plate
6
ByLayer
62
256
370
-1
100
AcDbLine
10
88.4344967859
20
173.313176442
11
91.9367966731
21
176.81547633
0
LINE
5
67
100
AcDbEntity
8
top plate
6
ByLayer
62
256
370
-1
100
AcDbLine
10
37.6428752719
20
126.764195615
11
39.7641956155
21
124.642875272
0
LINE
5
68
100
AcDbEntity
8
top plate
6
ByLayer
62
256
370
-1
100
AcDbLine
10
82.5655105021
20
171.686830846
11
84.6868308456
21
169.565510502
0
LINE
5
69
100
AcDbEntity
8
top plate
6
ByLayer
62
256
370
-1
100
AcDbLine
10
86.3131764424
20
175.434496786
11
88.4344967859
21
173.313176442
0
LINE
5
6A
100
AcDbEntity
8
top plate
6
ByLayer
62
256
370
-1
100
AcDbLine
10
89.8154763296
20
178.936796673
11
91.9367966731
21
176.81547633
0
LINE
5
6B
100
AcDbEntity
8
top plate
6
ByLayer
62
256
370
-1
100
AcDbLine
10
178.357124728
20
126.764195615
11
133.434489498
21
171.686830846
0
LINE
5
6C
100
AcDbEntity
8
top plate
6
ByLayer
62
256
370
-1
100
AcDbLine
10
176.235804385
20
124.642875272
11
131.313169154
21
169.565510502
0
LINE
5
6D
100
AcDbEntity
8
top plate
6
ByLayer
62
256
370
-1
100
AcDbLine
10
127.565503214
20
173.313176442
11
124.063203327
21
176.81547633
0
LINE
5
6E
100
AcDbEntity
8
top plate
6
ByLayer
62
256
370
-1
100
AcDbLine
10
129.686823558
20
175.434496786
11
126.18452367
21
178.936796673
0
LINE
5
6F
100
AcDbEntity
8
top plate
6
ByLayer
62
256
370
-1
100
AcDbLine
10
176.235804385
20
124.642875272
11
178.357124728
21
126.764195615
0
LINE
5
70
100
AcDbEntity
8
top plate
6
ByLayer
62
256
370
-1
100
AcDbLine
10
131.313169154
20
169.565510502
11
133.434489498
21
171.686830846
0
LINE
5
71
100
AcDbEntity
8
top plate
6
ByLayer
62
256
370
-1
100
AcDbLine
10
127.565503214
20
173.313176442
11
129.686823558
21
175.434496786
0
LINE
5
72
100
AcDbEntity
8
top plate
6
ByLayer
62
256
370
-1
100
AcDbLine
10
124.063203327
20
176.81547633
11
126.18452367
21
178.936796673
0
LINE
5
73
100
AcDbEntity
8
top plate
6
ByLayer
62
256
370
-1
100
AcDbLine
10
176.235804385
20
265.357124728
11
131.313169154
21
220.434489498
0
LINE
5
74
100
AcDbEntity
8
top plate
6
ByLayer
62
256
370
-1
100
AcDbLine
10
178.357124728
20
263.235804385
11
133.434489498
21
218.313169154
0
LINE
5
75
100
AcDbEntity
8
top plate
6
ByLayer
62
256
370
-1
100
AcDbLine
10
129.686823558
20
214.565503214
11
126.18452367
21
211.063203327
0
LINE
5
76
100
AcDbEntity
8
top plate
6
ByLayer
62
256
370
-1
100
AcDbLine
10
127.565503214
20
216.686823558
11
124.063203327
21
213.18452367
0
LINE
5
77
100
AcDbEntity
8
top plate
6
ByLayer
62
256
370
-1
100
AcDbLine
10
178.357124728
20
263.235804385
11
176.235804385
21
265.357124728
0
LINE
5
78
100
AcDbEntity
8
top plate
6
ByLayer
62
256
370
-1
100
AcDbLine
10
133.434489498
20
218.313169154
11
131.313169154
21
220.434489498
0
LINE
5
79
100
AcDbEntity
8
top plate
6
ByLayer
62
256
370
-1
100
AcDbLine
10
129.686823558
20
214.565503214
11
127.565503214
21
216.686823558
0
LINE
5
7A
100
AcDbEntity
8
top plate
6
ByLayer
62
256
370
-1
100
AcDbLine
10
126.18452367
20
211.063203327
11
124.063203327
21
213.18452367
0
LINE
5
7B
100
AcDbEntity
8
top plate
6
ByLayer
62
256
370
-1
100
AcDbLine
10
37.6428752719
20
263.235804385
11
82.5655105021
21
218.313169154
0
LINE
5
7C
100
AcDbEntity
8
top plate
6
ByLayer
62
256
370
-1
100
AcDbLine
10
39.7641956155
20
265.357124728
11
84.6868308456
21
220.434489498
0
LINE
5
7D
100
AcDbEntity
8
top plate
6
ByLayer
62
256
370
-1
100
AcDbLine
10
88.4344967859
20
216.686823558
11
91.9367966731
21
213.18452367
0
LINE
5
7E
100
AcDbEntity
8
top plate
6
ByLayer
62
256
370
-1
100
AcDbLine
10
86.3131764424
20
214.565503214
11
89.8154763296
21
211.063203327
0
LINE
5
7F
100
AcDbEntity
8
top plate
6
ByLayer
62
256
370
-1
100
AcDbLine
10
39.7641956155
20
265.357124728
11
37.6428752719
21
263.235804385
0
LINE
5
80
100
AcDbEntity
8
top plate
6
ByLayer
62
256
370
-1
100
AcDbLine
10
84.6868308456
20
220.434489498
11
82.5655105021
21
218.313169154
0
LINE
5
81
100
AcDbEntity
8
top plate
6
ByLayer
62
256
370
-1
100
AcDbLine
10
88.4344967859
20
216.686823558
11
86.3131764424
21
214.565503214
0
LINE
5
82
100
AcDbEntity
8
top plate
6
ByLayer
62
256
370
-1
100
AcDbLine
10
91.9367966731
20
213.18452367
11
89.8154763296
21
211.063203327
0
CIRCLE
5
83
100
AcDbEntity
8
plate mount holes
6
ByLayer
62
256
370
-1
100
AcDbCircle
10
46.7654487314
20
222.198322707
40
1.5
0
CIRCLE
5
84
100
AcDbEntity
8
plate mount holes
6
ByLayer
62
256
370
-1
100
AcDbCircle
10
62.7654487314
20
222.198322707
40
1.5
0
LINE
5
85
100
AcDbEntity
8
plate mounts
6
ByLayer
62
256
370
-1
100
AcDbLine
10
46.7654487314
20
225.198322707
11
62.7654487314
21
225.198322707
0
LINE
5
86
100
AcDbEntity
8
plate mounts
6
ByLayer
62
256
370
-1
100
AcDbLine
10
46.7654487314
20
219.198322707
11
62.7654487314
21
219.198322707
0
ARC
5
87
100
AcDbEntity
8
plate mounts
6
ByLayer
62
256
370
-1
100
AcDbCircle
10
46.7654487314
20
222.198322707
40
3
100
AcDbArc
50
90
51
270
0
ARC
5
88
100
AcDbEntity
8
plate mounts
6
ByLayer
62
256
370
-1
100
AcDbCircle
10
62.7654487314
20
222.198322707
40
3
100
AcDbArc
50
270
51
90
0
CIRCLE
5
89
100
AcDbEntity
8
plate mount holes
6
ByLayer
62
256
370
-1
100
AcDbCircle
10
46.7654487314
20
214.751483334
40
1.5
0
CIRCLE
5
8A
100
AcDbEntity
8
plate mount holes
6
ByLayer
62
256
370
-1
100
AcDbCircle
10
62.7654487314
20
214.751483334
40
1.5
0
LINE
5
8B
100
AcDbEntity
8
plate mounts
6
ByLayer
62
256
370
-1
100
AcDbLine
10
46.7654487314
20
217.751483334
11
62.7654487314
21
217.751483334
0
LINE
5
8C
100
AcDbEntity
8
plate mounts
6
ByLayer
62
256
370
-1
100
AcDbLine
10
46.7654487314
20
211.751483334
11
62.7654487314
21
211.751483334
0
ARC
5
8D
100
AcDbEntity
8
plate mounts
6
ByLayer
62
256
370
-1
100
AcDbCircle
10
46.7654487314
20
214.751483334
40
3
100
AcDbArc
50
90
51
270
0
ARC
5
8E
100
AcDbEntity
8
plate mounts
6
ByLayer
62
256
370
-1
100
AcDbCircle
10
62.7654487314
20
214.751483334
40
3
100
AcDbArc
50
270
51
90
0
CIRCLE
5
8F
100
AcDbEntity
8
plate mount holes
6
ByLayer
62
256
370
-1
100
AcDbCircle
10
46.7654487314
20
206.577864828
40
1.5
0
CIRCLE
5
90
100
AcDbEntity
8
plate mount holes
6
ByLayer
62
256
370
-1
100
AcDbCircle
10
62.7654487314
20
206.577864828
40
1.5
0
LINE
5
91
100
AcDbEntity
8
plate mounts
6
ByLayer
62
256
370
-1
100
AcDbLine
10
46.7654487314
20
209.577864828
11
62.7654487314
21
209.577864828
0
LINE
5
92
100
AcDbEntity
8
plate mounts
6
ByLayer
62
256
370
-1
100
AcDbLine
10
46.7654487314
20
203.577864828
11
62.7654487314
21
203.577864828
0
ARC
5
93
100
AcDbEntity
8
plate mounts
6
ByLayer
62
256
370
-1
100
AcDbCircle
10
46.7654487314
20
206.577864828
40
3
100
AcDbArc
50
90
51
270
0
ARC
5
94
100
AcDbEntity
8
plate mounts
6
ByLayer
62
256
370
-1
100
AcDbCircle
10
62.7654487314
20
206.577864828
40
3
100
AcDbArc
50
270
51
90
0
CIRCLE
5
95
100
AcDbEntity
8
plate mount holes
6
ByLayer
62
256
370
-1
100
AcDbCircle
10
46.7654487314
20
199.131025455
40
1.5
0
CIRCLE
5
96
100
AcDbEntity
8
plate mount holes
6
ByLayer
62
256
370
-1
100
AcDbCircle
10
62.7654487314
20
199.131025455
40
1.5
0
LINE
5
97
100
AcDbEntity
8
plate mounts
6
ByLayer
62
256
370
-1
100
AcDbLine
10
46.7654487314
20
202.131025455
11
62.7654487314
21
202.131025455
0
LINE
5
98
100
AcDbEntity
8
plate mounts
6
ByLayer
62
256
370
-1
100
AcDbLine
10
46.7654487314
20
196.131025455
11
62.7654487314
21
196.131025455
0
ARC
5
99
100
AcDbEntity
8
plate mounts
6
ByLayer
62
256
370
-1
100
AcDbCircle
10
46.7654487314
20
199.131025455
40
3
100
AcDbArc
50
90
51
270
0
ARC
5
9A
100
AcDbEntity
8
plate mounts
6
ByLayer
62
256
370
-1
100
AcDbCircle
10
62.7654487314
20
199.131025455
40
3
100
AcDbArc
50
270
51
90
0
CIRCLE
5
9B
100
AcDbEntity
8
plate mount holes
6
ByLayer
62
256
370
-1
100
AcDbCircle
10
46.7654487314
20
190.957406948
40
1.5
0
CIRCLE
5
9C
100
AcDbEntity
8
plate mount holes
6
ByLayer
62
256
370
-1
100
AcDbCircle
10
62.7654487314
20
190.957406948
40
1.5
0
LINE
5
9D
100
AcDbEntity
8
plate mounts
6
ByLayer
62
256
370
-1
100
AcDbLine
10
46.7654487314
20
193.957406948
11
62.7654487314
21
193.957406948
0
LINE
5
9E
100
AcDbEntity
8
plate mounts
6
ByLayer
62
256
370
-1
100
AcDbLine
10
46.7654487314
20
187.957406948
11
62.7654487314
21
187.957406948
0
ARC
5
9F
100
AcDbEntity
8
plate mounts
6
ByLayer
62
256
370
-1
100
AcDbCircle
10
46.7654487314
20
190.957406948
40
3
100
AcDbArc
50
90
51
270
0
ARC
5
A0
100
AcDbEntity
8
plate mounts
6
ByLayer
62
256
370
-1
100
AcDbCircle
10
62.7654487314
20
190.957406948
40
3
100
AcDbArc
50
270
51
90
0
CIRCLE
5
A1
100
AcDbEntity
8
plate mount holes
6
ByLayer
62
256
370
-1
100
AcDbCircle
10
46.7654487314
20
183.510567575
40
1.5
0
CIRCLE
5
A2
100
AcDbEntity
8
plate mount holes
6
ByLayer
62
256
370
-1
100
AcDbCircle
10
62.7654487314
20
183.510567575
40
1.5
0
LINE
5
A3
100
AcDbEntity
8
plate mounts
6
ByLayer
62
256
370
-1
100
AcDbLine
10
46.7654487314
20
186.510567575
11
62.7654487314
21
186.510567575
0
LINE
5
A4
100
AcDbEntity
8
plate mounts
6
ByLayer
62
256
370
-1
100
AcDbLine
10
46.7654487314
20
180.510567575
11
62.7654487314
21
180.510567575
0
ARC
5
A5
100
AcDbEntity
8
plate mounts
6
ByLayer
62
256
370
-1
100
AcDbCircle
10
46.7654487314
20
183.510567575
40
3
100
AcDbArc
50
90
51
270
0
ARC
5
A6
100
AcDbEntity
8
plate mounts
6
ByLayer
62
256
370
-1
100
AcDbCircle
10
62.7654487314
20
183.510567575
40
3
100
AcDbArc
50
270
51
90
0
CIRCLE
5
A7
100
AcDbEntity
8
plate mount holes
6
ByLayer
62
256
370
-1
100
AcDbCircle
10
46.7654487314
20
175.336949069
40
1.5
0
CIRCLE
5
A8
100
AcDbEntity
8
plate mount holes
6
ByLayer
62
256
370
-1
100
AcDbCircle
10
62.7654487314
20
175.336949069
40
1.5
0
LINE
5
A9
100
AcDbEntity
8
plate mounts
6
ByLayer
62
256
370
-1
100
AcDbLine
10
46.7654487314
20
178.336949069
11
62.7654487314
21
178.336949069
0
LINE
5
AA
100
AcDbEntity
8
plate mounts
6
ByLayer
62
256
370
-1
100
AcDbLine
10
46.7654487314
20
172.336949069
11
62.7654487314
21
172.336949069
0
ARC
5
AB
100
AcDbEntity
8
plate mounts
6
ByLayer
62
256
370
-1
100
AcDbCircle
10
46.7654487314
20
175.336949069
40
3
100
AcDbArc
50
90
51
270
0
ARC
5
AC
100
AcDbEntity
8
plate mounts
6
ByLayer
62
256
370
-1
100
AcDbCircle
10
62.7654487314
20
175.336949069
40
3
100
AcDbArc
50
270
51
90
0
CIRCLE
5
AD
100
AcDbEntity
8
plate mount holes
6
ByLayer
62
256
370
-1
100
AcDbCircle
10
46.7654487314
20
167.890109696
40
1.5
0
CIRCLE
5
AE
100
AcDbEntity
8
plate mount holes
6
ByLayer
62
256
370
-1
100
AcDbCircle
10
62.7654487314
20
167.890109696
40
1.5
0
LINE
5
AF
100
AcDbEntity
8
plate mounts
6
ByLayer
62
256
370
-1
100
AcDbLine
10
46.7654487314
20
170.890109696
11
62.7654487314
21
170.890109696
0
LINE
5
B0
100
AcDbEntity
8
plate mounts
6
ByLayer
62
256
370
-1
100
AcDbLine
10
46.7654487314
20
164.890109696
11
62.7654487314
21
164.890109696
0
ARC
5
B1
100
AcDbEntity
8
plate mounts
6
ByLayer
62
256
370
-1
100
AcDbCircle
10
46.7654487314
20
167.890109696
40
3
100
AcDbArc
50
90
51
270
0
ARC
5
B2
100
AcDbEntity
8
plate mounts
6
ByLayer
62
256
370
-1
100
AcDbCircle
10
62.7654487314
20
167.890109696
40
3
100
AcDbArc
50
270
51
90
0
LINE
5
B3
100
AcDbEntity
8
frame
6
ByLayer
62
256
370
-1
100
AcDbLine
10
79.5
20
67.7
11
73.5
21
67.7
0
LINE
5
B4
100
AcDbEntity
8
frame
6
ByLayer
62
256
370
-1
100
AcDbLine
10
79.5
20
64.2
11
73.5
21
64.2
0
LINE
5
B5
100
AcDbEntity
8
frame
6
ByLayer
62
256
370
-1
100
AcDbLine
10
73.5
20
64.2
11
73.5
21
67.7
0
LINE
5
B6
100
AcDbEntity
8
frame
6
ByLayer
62
256
370
-1
100
AcDbLine
10
79.5
20
64.2
11
79.5
21
67.7
0
LINE
5
B7
100
AcDbEntity
8
frame
6
ByLayer
62
256
370
-1
100
AcDbLine
10
70
20
63
11
70
21
70
0
ARC
5
B8
100
AcDbEntity
8
frame
6
ByLayer
62
256
370
-1
100
AcDbCircle
10
73
20
63
40
3
100
AcDbArc
50
180
51
270
0
LINE
5
B9
100
AcDbEntity
8
frame
6
ByLayer
62
256
370
-1
100
AcDbLine
10
73
20
60
11
80
21
60
0
LINE
5
BA
100
AcDbEntity
8
frame
6
ByLayer
62
256
370
-1
100
AcDbLine
10
83
20
70
11
83
21
63
0
ARC
5
BB
100
AcDbEntity
8
frame
6
ByLayer
62
256
370
-1
100
AcDbCircle
10
80
20
63
40
3
100
AcDbArc
50
270
51
0
0
LINE
5
BC
100
AcDbEntity
8
frame
6
ByLayer
62
256
370
-1
100
AcDbLine
10
63
20
70
11
70
21
70
0
LINE
5
BD
100
AcDbEntity
8
frame
6
ByLayer
62
256
370
-1
100
AcDbLine
10
62
20
70
11
70
21
70
0
ARC
5
BE
100
AcDbEntity
8
frame
6
ByLayer
62
256
370
-1
100
AcDbCircle
10
39.4050269796
20
70.6810053959
40
22.6052333353
100
AcDbArc
50
358.2736458
51
66.2330867746
0
LINE
5
BF
100
AcDbEntity
8
frame
6
ByLayer
62
256
370
-1
100
AcDbLine
10
83
20
88
11
106.5
21
88
0
ARC
5
C0
100
AcDbEntity
8
frame
6
ByLayer
62
256
370
-1
100
AcDbCircle
10
79.411797088
20
102.075947645
40
79.4389267008
100
AcDbArc
50
181.497459566
51
215.331108904
0
ARC
5
C1
100
AcDbEntity
8
frame
6
ByLayer
62
256
370
-1
100
AcDbCircle
10
180.393797676
20
100.177006255
40
165.474800811
100
AcDbArc
50
183.051170239
51
195.435126337
0
LINE
5
C2
100
AcDbEntity
8
frame
6
ByLayer
62
256
370
-1
100
AcDbLine
10
48.5153172385
20
91.3691465773
11
15.1535746328
21
91.3691465773
0
LINE
5
C3
100
AcDbEntity
8
frame
6
ByLayer
62
256
370
-1
100
AcDbLine
10
14.6036363636
20
56.1363636364
11
20.8872727273
21
56.1363636364
0
LINE
5
C4
100
AcDbEntity
8
frame
6
ByLayer
62
256
370
-1
100
AcDbLine
10
83
20
88
11
83
21
63.000004555
0
LINE
5
C5
100
AcDbEntity
8
frame
6
ByLayer
62
256
370
-1
100
AcDbLine
10
136.5
20
67.7
11
142.5
21
67.7
0
LINE
5
C6
100
AcDbEntity
8
frame
6
ByLayer
62
256
370
-1
100
AcDbLine
10
136.5
20
64.2
11
142.5
21
64.2
0
LINE
5
C7
100
AcDbEntity
8
frame
6
ByLayer
62
256
370
-1
100
AcDbLine
10
142.5
20
64.2
11
142.5
21
67.7
0
LINE
5
C8
100
AcDbEntity
8
frame
6
ByLayer
62
256
370
-1
100
AcDbLine
10
136.5
20
64.2
11
136.5
21
67.7
0
LINE
5
C9
100
AcDbEntity
8
frame
6
ByLayer
62
256
370
-1
100
AcDbLine
10
146
20
63
11
146
21
70
0
ARC
5
CA
100
AcDbEntity
8
frame
6
ByLayer
62
256
370
-1
100
AcDbCircle
10
143
20
63
40
3
100
AcDbArc
50
270
51
0
0
LINE
5
CB
100
AcDbEntity
8
frame
6
ByLayer
62
256
370
-1
100
AcDbLine
10
143
20
60
11
136
21
60
0
LINE
5
CC
100
AcDbEntity
8
frame
6
ByLayer
62
256
370
-1
100
AcDbLine
10
133
20
70
11
133
21
63
0
ARC
5
CD
100
AcDbEntity
8
frame
6
ByLayer
62
256
370
-1
100
AcDbCircle
10
136
20
63
40
3
100
AcDbArc
50
180
51
270
0
LINE
5
CE
100
AcDbEntity
8
frame
6
ByLayer
62
256
370
-1
100
AcDbLine
10
153
20
70
11
146
21
70
0
LINE
5
CF
100
AcDbEntity
8
frame
6
ByLayer
62
256
370
-1
100
AcDbLine
10
154
20
70
11
146
21
70
0
ARC
5
D0
100
AcDbEntity
8
frame
6
ByLayer
62
256
370
-1
100
AcDbCircle
10
176.59497302
20
70.6810053959
40
22.6052333353
100
AcDbArc
50
113.766913225
51
181.7263542
0
ARC
5
D1
100
AcDbEntity
8
frame
6
ByLayer
62
256
370
-1
100
AcDbCircle
10
136.588202912
20
102.075947645
40
79.4389267008
100
AcDbArc
50
324.668891096
51
358.502540434
0
ARC
5
D2
100
AcDbEntity
8
frame
6
ByLayer
62
256
370
-1
100
AcDbCircle
10
35.6062023238
20
100.177006255
40
165.474800811
100
AcDbArc
50
344.564873663
51
356.948829761
0
LINE
5
D3
100
AcDbEntity
8
frame
6
ByLayer
62
256
370
-1
100
AcDbLine
10
167.484682761
20
91.3691465773
11
200.846425367
21
91.3691465773
0
LINE
5
D4
100
AcDbEntity
8
frame
6
ByLayer
62
256
370
-1
100
AcDbLine
10
133
20
88
11
133
21
63.000004555
0
LINE
5
D5
100
AcDbEntity
8
frame
6
ByLayer
62
256
370
-1
100
AcDbLine
10
109.5
20
88
11
133
21
88
0
LINE
5
D6
100
AcDbEntity
8
frame
6
ByLayer
62
256
370
-1
100
AcDbLine
10
195.112727273
20
56.1363636364
11
201.396363636
21
56.1363636364
0
LINE
5
D7
100
AcDbEntity
8
frame
6
ByLayer
62
256
370
-1
100
AcDbLine
10
73.5302
20
97
11
78.8302
21
97
0
LINE
5
D8
100
AcDbEntity
8
frame
6
ByLayer
62
256
370
-1
100
AcDbLine
10
83.7832
20
97
11
89.0832
21
97
0
LINE
5
D9
100
AcDbEntity
8
frame
6
ByLayer
62
256
370
-1
100
AcDbLine
10
83.7832
20
103
11
78.8302
21
103
0
LINE
5
DA
100
AcDbEntity
8
frame
6
ByLayer
62
256
370
-1
100
AcDbLine
10
51
20
105.8
11
57
21
105.8
0
LINE
5
DB
100
AcDbEntity
8
frame
6
ByLayer
62
256
370
-1
100
AcDbLine
10
51
20
102.3
11
57
21
102.3
0
LINE
5
DC
100
AcDbEntity
8
frame
6
ByLayer
62
256
370
-1
100
AcDbLine
10
51
20
102.3
11
51
21
105.8
0
LINE
5
DD
100
AcDbEntity
8
frame
6
ByLayer
62
256
370
-1
100
AcDbLine
10
57
20
102.3
11
57
21
105.8
0
ARC
5
DE
100
AcDbEntity
8
frame
6
ByLayer
62
256
370
-1
100
AcDbCircle
10
51
20
105.8
40
3
100
AcDbArc
50
90
51
180
0
LINE
5
DF
100
AcDbEntity
8
frame
6
ByLayer
62
256
370
-1
100
AcDbLine
10
51
20
108.8
11
57
21
108.8
0
ARC
5
E0
100
AcDbEntity
8
frame
6
ByLayer
62
256
370
-1
100
AcDbCircle
10
57
20
105.8
40
3
100
AcDbArc
50
0
51
90
0
LINE
5
E1
100
AcDbEntity
8
frame
6
ByLayer
62
256
370
-1
100
AcDbLine
10
60
20
103
11
60
21
105.8
0
LINE
5
E2
100
AcDbEntity
8
frame
6
ByLayer
62
256
370
-1
100
AcDbLine
10
60
20
103
11
73.5302
21
103
0
LINE
5
E3
100
AcDbEntity
8
frame
6
ByLayer
62
256
370
-1
100
AcDbLine
10
48
20
103
11
48
21
105.8
0
LINE
5
E4
100
AcDbEntity
8
frame
6
ByLayer
62
256
370
-1
100
AcDbLine
10
10
20
103
11
48
21
103
0
LINE
5
E5
100
AcDbEntity
8
frame
6
ByLayer
62
256
370
-1
100
AcDbLine
10
0
20
100
11
10
21
100
0
LINE
5
E6
100
AcDbEntity
8
frame
6
ByLayer
62
256
370
-1
100
AcDbLine
10
10
20
103
11
10
21
100
0
LINE
5
E7
100
AcDbEntity
8
frame
6
ByLayer
62
256
370
-1
100
AcDbLine
10
73.5302
20
103
11
73.5302
21
97
0
LINE
5
E8
100
AcDbEntity
8
frame
6
ByLayer
62
256
370
-1
100
AcDbLine
10
78.8302
20
103
11
78.8302
21
97
0
LINE
5
E9
100
AcDbEntity
8
frame
6
ByLayer
62
256
370
-1
100
AcDbLine
10
83.7832
20
103
11
83.7832
21
97
0
LINE
5
EA
100
AcDbEntity
8
frame
6
ByLayer
62
256
370
-1
100
AcDbLine
10
89.0832
20
99.7
11
89.0832
21
97
0
LINE
5
EB
100
AcDbEntity
8
frame
6
ByLayer
62
256
370
-1
100
AcDbLine
10
106.5
20
93.85
11
106.5
21
88
0
LINE
5
EC
100
AcDbEntity
8
frame
6
ByLayer
62
256
370
-1
100
AcDbLine
10
109.5
20
93.85
11
109.5
21
88
0
LINE
5
ED
100
AcDbEntity
8
frame
6
ByLayer
62
256
370
-1
100
AcDbLine
10
106.5
20
93.85
11
109.5
21
93.85
0
LINE
5
EE
100
AcDbEntity
8
frame
6
ByLayer
62
256
370
-1
100
AcDbLine
10
142.4698
20
97
11
137.1698
21
97
0
LINE
5
EF
100
AcDbEntity
8
frame
6
ByLayer
62
256
370
-1
100
AcDbLine
10
132.2168
20
97
11
126.9168
21
97
0
LINE
5
F0
100
AcDbEntity
8
frame
6
ByLayer
62
256
370
-1
100
AcDbLine
10
132.2168
20
103
11
137.1698
21
103
0
LINE
5
F1
100
AcDbEntity
8
frame
6
ByLayer
62
256
370
-1
100
AcDbLine
10
165
20
105.8
11
159
21
105.8
0
LINE
5
F2
100
AcDbEntity
8
frame
6
ByLayer
62
256
370
-1
100
AcDbLine
10
165
20
102.3
11
159
21
102.3
0
LINE
5
F3
100
AcDbEntity
8
frame
6
ByLayer
62
256
370
-1
100
AcDbLine
10
165
20
102.3
11
165
21
105.8
0
LINE
5
F4
100
AcDbEntity
8
frame
6
ByLayer
62
256
370
-1
100
AcDbLine
10
159
20
102.3
11
159
21
105.8
0
ARC
5
F5
100
AcDbEntity
8
frame
6
ByLayer
62
256
370
-1
100
AcDbCircle
10
165
20
105.8
40
3
100
AcDbArc
50
360
51
90
0
LINE
5
F6
100
AcDbEntity
8
frame
6
ByLayer
62
256
370
-1
100
AcDbLine
10
165
20
108.8
11
159
21
108.8
0
ARC
5
F7
100
AcDbEntity
8
frame
6
ByLayer
62
256
370
-1
100
AcDbCircle
10
159
20
105.8
40
3
100
AcDbArc
50
90
51
180
0
LINE
5
F8
100
AcDbEntity
8
frame
6
ByLayer
62
256
370
-1
100
AcDbLine
10
156
20
103
11
156
21
105.8
0
LINE
5
F9
100
AcDbEntity
8
frame
6
ByLayer
62
256
370
-1
100
AcDbLine
10
156
20
103
11
142.4698
21
103
0
LINE
5
FA
100
AcDbEntity
8
frame
6
ByLayer
62
256
370
-1
100
AcDbLine
10
168
20
103
11
168
21
105.8
0
LINE
5
FB
100
AcDbEntity
8
frame
6
ByLayer
62
256
370
-1
100
AcDbLine
10
206
20
103
11
168
21
103
0
LINE
5
FC
100
AcDbEntity
8
frame
6
ByLayer
62
256
370
-1
100
AcDbLine
10
216
20
100
11
206
21
100
0
LINE
5
FD
100
AcDbEntity
8
frame
6
ByLayer
62
256
370
-1
100
AcDbLine
10
206
20
103
11
206
21
100
0
LINE
5
FE
100
AcDbEntity
8
frame
6
ByLayer
62
256
370
-1
100
AcDbLine
10
142.4698
20
103
11
142.4698
21
97
0
LINE
5
FF
100
AcDbEntity
8
frame
6
ByLayer
62
256
370
-1
100
AcDbLine
10
137.1698
20
103
11
137.1698
21
97
0
LINE
5
100
100
AcDbEntity
8
frame
6
ByLayer
62
256
370
-1
100
AcDbLine
10
132.2168
20
103
11
132.2168
21
97
0
LINE
5
101
100
AcDbEntity
8
frame
6
ByLayer
62
256
370
-1
100
AcDbLine
10
126.9168
20
99.7
11
126.9168
21
97
0
LINE
5
102
100
AcDbEntity
8
frame
6
ByLayer
62
256
370
-1
100
AcDbLine
10
89.0832
20
99.7
11
126.9168
21
99.7
0
LINE
5
103
100
AcDbEntity
8
frame
6
ByLayer
62
256
370
-1
100
AcDbLine
10
165.5
20
77.3
11
171.5
21
77.3
0
LINE
5
104
100
AcDbEntity
8
frame
6
ByLayer
62
256
370
-1
100
AcDbLine
10
165.5
20
80.8
11
171.5
21
80.8
0
LINE
5
105
100
AcDbEntity
8
frame
6
ByLayer
62
256
370
-1
100
AcDbLine
10
171.5
20
80.8
11
171.5
21
77.3
0
LINE
5
106
100
AcDbEntity
8
frame
6
ByLayer
62
256
370
-1
100
AcDbLine
10
165.5
20
80.8
11
165.5
21
77.3
0
LINE
5
107
100
AcDbEntity
8
frame
6
ByLayer
62
256
370
-1
100
AcDbLine
10
175
20
82
11
175
21
75
0
ARC
5
108
100
AcDbEntity
8
frame
6
ByLayer
62
256
370
-1
100
AcDbCircle
10
172
20
82
40
3
100
AcDbArc
50
360
51
90
0
LINE
5
109
100
AcDbEntity
8
frame
6
ByLayer
62
256
370
-1
100
AcDbLine
10
172
20
85
11
165
21
85
0
LINE
5
10A
100
AcDbEntity
8
frame
6
ByLayer
62
256
370
-1
100
AcDbLine
10
162
20
75
11
162
21
82
0
ARC
5
10B
100
AcDbEntity
8
frame
6
ByLayer
62
256
370
-1
100
AcDbCircle
10
165
20
82
40
3
100
AcDbArc
50
90
51
180
0
LINE
5
10C
100
AcDbEntity
8
frame
6
ByLayer
62
256
370
-1
100
AcDbLine
10
182
20
75
11
175
21
75
0
LINE
5
10D
100
AcDbEntity
8
frame
6
ByLayer
62
256
370
-1
100
AcDbLine
10
183
20
75
11
175
21
75
0
ARC
5
10E
100
AcDbEntity
8
frame
6
ByLayer
62
256
370
-1
100
AcDbCircle
10
205.59497302
20
74.3189946041
40
22.6052333353
100
AcDbArc
50
178.2736458
51
246.233086775
0
ARC
5
10F
100
AcDbEntity
8
frame
6
ByLayer
62
256
370
-1
100
AcDbCircle
10
165.588202912
20
42.9240523549
40
79.4389267008
100
AcDbArc
50
1.49745956593
51
35.3311089037
0
ARC
5
110
100
AcDbEntity
8
frame
6
ByLayer
62
256
370
-1
100
AcDbCircle
10
64.6062023238
20
44.8229937451
40
165.474800811
100
AcDbArc
50
3.05117023893
51
15.4351263371
0
LINE
5
111
100
AcDbEntity
8
frame
6
ByLayer
62
256
370
-1
100
AcDbLine
10
196.484682761
20
53.6308534227
11
229.846425367
21
53.6308534227
0
LINE
5
112
100
AcDbEntity
8
frame
6
ByLayer
62
256
370
-1
100
AcDbLine
10
230.396363636
20
88.8636363636
11
224.112727273
21
88.8636363636
0
LINE
5
113
100
AcDbEntity
8
frame
6
ByLayer
62
256
370
-1
100
AcDbLine
10
162
20
57
11
162
21
81.999995445
0
LINE
5
114
100
AcDbEntity
8
frame
6
ByLayer
62
256
370
-1
100
AcDbLine
10
108.5
20
77.3
11
102.5
21
77.3
0
LINE
5
115
100
AcDbEntity
8
frame
6
ByLayer
62
256
370
-1
100
AcDbLine
10
108.5
20
80.8
11
102.5
21
80.8
0
LINE
5
116
100
AcDbEntity
8
frame
6
ByLayer
62
256
370
-1
100
AcDbLine
10
102.5
20
80.8
11
102.5
21
77.3
0
LINE
5
117
100
AcDbEntity
8
frame
6
ByLayer
62
256
370
-1
100
AcDbLine
10
108.5
20
80.8
11
108.5
21
77.3
0
LINE
5
118
100
AcDbEntity
8
frame
6
ByLayer
62
256
370
-1
100
AcDbLine
10
99
20
82
11
99
21
75
0
ARC
5
119
100
AcDbEntity
8
frame
6
ByLayer
62
256
370
-1
100
AcDbCircle
10
102
20
82
40
3
100
AcDbArc
50
90
51
180
0
LINE
5
11A
100
AcDbEntity
8
frame
6
ByLayer
62
256
370
-1
100
AcDbLine
10
102
20
85
11
109
21
85
0
LINE
5
11B
100
AcDbEntity
8
frame
6
ByLayer
62
256
370
-1
100
AcDbLine
10
112
20
75
11
112
21
82
0
ARC
5
11C
100
AcDbEntity
8
frame
6
ByLayer
62
256
370
-1
100
AcDbCircle
10
109
20
82
40
3
100
AcDbArc
50
360
51
90
0
LINE
5
11D
100
AcDbEntity
8
frame
6
ByLayer
62
256
370
-1
100
AcDbLine
10
92
20
75
11
99
21
75
0
LINE
5
11E
100
AcDbEntity
8
frame
6
ByLayer
62
256
370
-1
100
AcDbLine
10
91
20
75
11
99
21
75
0
ARC
5
11F
100
AcDbEntity
8
frame
6
ByLayer
62
256
370
-1
100
AcDbCircle
10
68.4050269796
20
74.3189946041
40
22.6052333353
100
AcDbArc
50
293.766913225
51
1.72635419969
0
ARC
5
120
100
AcDbEntity
8
frame
6
ByLayer
62
256
370
-1
100
AcDbCircle
10
108.411797088
20
42.9240523549
40
79.4389267008
100
AcDbArc
50
144.668891096
51
178.502540434
0
ARC
5
121
100
AcDbEntity
8
frame
6
ByLayer
62
256
370
-1
100
AcDbCircle
10
209.393797676
20
44.8229937451
40
165.474800811
100
AcDbArc
50
164.564873663
51
176.948829761
0
LINE
5
122
100
AcDbEntity
8
frame
6
ByLayer
62
256
370
-1
100
AcDbLine
10
77.5153172385
20
53.6308534227
11
44.1535746328
21
53.6308534227
0
LINE
5
123
100
AcDbEntity
8
frame
6
ByLayer
62
256
370
-1
100
AcDbLine
10
112
20
57
11
112
21
81.999995445
0
LINE
5
124
100
AcDbEntity
8
frame
6
ByLayer
62
256
370
-1
100
AcDbLine
10
49.8872727273
20
88.8636363636
11
43.6036363636
21
88.8636363636
0
LINE
5
125
100
AcDbEntity
8
frame
6
ByLayer
62
256
370
-1
100
AcDbLine
10
171.4698
20
48
11
166.1698
21
48
0
LINE
5
126
100
AcDbEntity
8
frame
6
ByLayer
62
256
370
-1
100
AcDbLine
10
161.2168
20
48
11
155.9168
21
48
0
LINE
5
127
100
AcDbEntity
8
frame
6
ByLayer
62
256
370
-1
100
AcDbLine
10
161.2168
20
42
11
166.1698
21
42
0
LINE
5
128
100
AcDbEntity
8
frame
6
ByLayer
62
256
370
-1
100
AcDbLine
10
194
20
39.2
11
188
21
39.2
0
LINE
5
129
100
AcDbEntity
8
frame
6
ByLayer
62
256
370
-1
100
AcDbLine
10
194
20
42.7
11
188
21
42.7
0
LINE
5
12A
100
AcDbEntity
8
frame
6
ByLayer
62
256
370
-1
100
AcDbLine
10
194
20
42.7
11
194
21
39.2
0
LINE
5
12B
100
AcDbEntity
8
frame
6
ByLayer
62
256
370
-1
100
AcDbLine
10
188
20
42.7
11
188
21
39.2
0
ARC
5
12C
100
AcDbEntity
8
frame
6
ByLayer
62
256
370
-1
100
AcDbCircle
10
194
20
39.2
40
3
100
AcDbArc
50
270
51
360
0
LINE
5
12D
100
AcDbEntity
8
frame
6
ByLayer
62
256
370
-1
100
AcDbLine
10
194
20
36.2
11
188
21
36.2
0
ARC
5
12E
100
AcDbEntity
8
frame
6
ByLayer
62
256
370
-1
100
AcDbCircle
10
188
20
39.2
40
3
100
AcDbArc
50
180
51
270
0
LINE
5
12F
100
AcDbEntity
8
frame
6
ByLayer
62
256
370
-1
100
AcDbLine
10
185
20
42
11
185
21
39.2
0
LINE
5
130
100
AcDbEntity
8
frame
6
ByLayer
62
256
370
-1
100
AcDbLine
10
185
20
42
11
171.4698
21
42
0
LINE
5
131
100
AcDbEntity
8
frame
6
ByLayer
62
256
370
-1
100
AcDbLine
10
197
20
42
11
197
21
39.2
0
LINE
5
132
100
AcDbEntity
8
frame
6
ByLayer
62
256
370
-1
100
AcDbLine
10
235
20
42
11
197
21
42
0
LINE
5
133
100
AcDbEntity
8
frame
6
ByLayer
62
256
370
-1
100
AcDbLine
10
245
20
45
11
235
21
45
0
LINE
5
134
100
AcDbEntity
8
frame
6
ByLayer
62
256
370
-1
100
AcDbLine
10
235
20
42
11
235
21
45
0
LINE
5
135
100
AcDbEntity
8
frame
6
ByLayer
62
256
370
-1
100
AcDbLine
10
171.4698
20
42
11
171.4698
21
48
0
LINE
5
136
100
AcDbEntity
8
frame
6
ByLayer
62
256
370
-1
100
AcDbLine
10
166.1698
20
42
11
166.1698
21
48
0
LINE
5
137
100
AcDbEntity
8
frame
6
ByLayer
62
256
370
-1
100
AcDbLine
10
161.2168
20
42
11
161.2168
21
48
0
LINE
5
138
100
AcDbEntity
8
frame
6
ByLayer
62
256
370
-1
100
AcDbLine
10
155.9168
20
45.3
11
155.9168
21
48
0
LINE
5
139
100
AcDbEntity
8
frame
6
ByLayer
62
256
370
-1
100
AcDbLine
10
138.5
20
51.15
11
135.5
21
51.15
0
LINE
5
13A
100
AcDbEntity
8
frame
6
ByLayer
62
256
370
-1
100
AcDbLine
10
102.5302
20
48
11
107.8302
21
48
0
LINE
5
13B
100
AcDbEntity
8
frame
6
ByLayer
62
256
370
-1
100
AcDbLine
10
112.7832
20
48
11
118.0832
21
48
0
LINE
5
13C
100
AcDbEntity
8
frame
6
ByLayer
62
256
370
-1
100
AcDbLine
10
112.7832
20
42
11
107.8302
21
42
0
LINE
5
13D
100
AcDbEntity
8
frame
6
ByLayer
62
256
370
-1
100
AcDbLine
10
80
20
39.2
11
86
21
39.2
0
LINE
5
13E
100
AcDbEntity
8
frame
6
ByLayer
62
256
370
-1
100
AcDbLine
10
80
20
42.7
11
86
21
42.7
0
LINE
5
13F
100
AcDbEntity
8
frame
6
ByLayer
62
256
370
-1
100
AcDbLine
10
80
20
42.7
11
80
21
39.2
0
LINE
5
140
100
AcDbEntity
8
frame
6
ByLayer
62
256
370
-1
100
AcDbLine
10
86
20
42.7
11
86
21
39.2
0
ARC
5
141
100
AcDbEntity
8
frame
6
ByLayer
62
256
370
-1
100
AcDbCircle
10
80
20
39.2
40
3
100
AcDbArc
50
180
51
270
0
LINE
5
142
100
AcDbEntity
8
frame
6
ByLayer
62
256
370
-1
100
AcDbLine
10
80
20
36.2
11
86
21
36.2
0
ARC
5
143
100
AcDbEntity
8
frame
6
ByLayer
62
256
370
-1
100
AcDbCircle
10
86
20
39.2
40
3
100
AcDbArc
50
270
51
360
0
LINE
5
144
100
AcDbEntity
8
frame
6
ByLayer
62
256
370
-1
100
AcDbLine
10
89
20
42
11
89
21
39.2
0
LINE
5
145
100
AcDbEntity
8
frame
6
ByLayer
62
256
370
-1
100
AcDbLine
10
89
20
42
11
102.5302
21
42
0
LINE
5
146
100
AcDbEntity
8
frame
6
ByLayer
62
256
370
-1
100
AcDbLine
10
77
20
42
11
77
21
39.2
0
LINE
5
147
100
AcDbEntity
8
frame
6
ByLayer
62
256
370
-1
100
AcDbLine
10
39
20
42
11
77
21
42
0
LINE
5
148
100
AcDbEntity
8
frame
6
ByLayer
62
256
370
-1
100
AcDbLine
10
29
20
45
11
39
21
45
0
LINE
5
149
100
AcDbEntity
8
frame
6
ByLayer
62
256
370
-1
100
AcDbLine
10
39
20
42
11
39
21
45
0
LINE
5
14A
100
AcDbEntity
8
frame
6
ByLayer
62
256
370
-1
100
AcDbLine
10
102.5302
20
42
11
102.5302
21
48
0
LINE
5
14B
100
AcDbEntity
8
frame
6
ByLayer
62
256
370
-1
100
AcDbLine
10
107.8302
20
42
11
107.8302
21
48
0
LINE
5
14C
100
AcDbEntity
8
frame
6
ByLayer
62
256
370
-1
100
AcDbLine
10
112.7832
20
42
11
112.7832
21
48
0
LINE
5
14D
100
AcDbEntity
8
frame
6
ByLayer
62
256
370
-1
100
AcDbLine
10
118.0832
20
45.3
11
118.0832
21
48
0
LINE
5
14E
100
AcDbEntity
8
frame
6
ByLayer
62
256
370
-1
100
AcDbLine
10
138.5
20
45.3
11
138.5
21
51.15
0
LINE
5
14F
100
AcDbEntity
8
frame
6
ByLayer
62
256
370
-1
100
AcDbLine
10
135.5
20
45.3
11
135.5
21
51.15
0
LINE
5
150
100
AcDbEntity
8
frame
6
ByLayer
62
256
370
-1
100
AcDbLine
10
162
20
57
11
112
21
57
0
LINE
5
151
100
AcDbEntity
8
frame
6
ByLayer
62
256
370
-1
100
AcDbLine
10
155.9168
20
45.3
11
138.5
21
45.3
0
LINE
5
152
100
AcDbEntity
8
frame
6
ByLayer
62
256
370
-1
100
AcDbLine
10
135.5
20
45.3
11
118.0832
21
45.3
0
ENDSEC
0
SECTION
2
OBJECTS
0
DICTIONARY
5
C
330
0
100
AcDbDictionary
281
1
3
ACAD_GROUP
350
D
0
DICTIONARY
5
D
330
C
100
AcDbDictionary
281
1
0
ENDSEC
0
EOF
