999
dxfrw 0.5.10
0
SECTION
2
HEADER
9
$ACADVER
1
AC1021
9
$HANDSEED
5
20000
9
$DWGCODEPAGE
3
ANSI_1252
9
$INSBASE
10
0
20
0
30
0
9
$EXTMIN
10
4
20
-1.7314505385e-10
30
0
9
$EXTMAX
10
266
20
220
30
0
9
$LIMMIN
10
0
20
0
9
$LIMMAX
10
420
20
297
9
$ORTHOMODE
70
0
9
$LTSCALE
40
1
9
$TEXTSTYLE
7
STANDARD
9
$CLAYER
8
top plate
9
$DIMASZ
40
2.5
9
$DIMLFAC
40
1
9
$DIMSCALE
40
1
9
$DIMEXO
40
0.625
9
$DIMEXE
40
1.25
9
$DIMTXT
40
2.5
9
$DIMTSZ
40
0
9
$DIMAUNIT
70
0
9
$DIMADEC
70
2
9
$DIMLUNIT
70
2
9
$DIMSTYLE
2
STANDARD
9
$DIMGAP
40
0.625
9
$DIMTIH
70
0
9
$LUNITS
70
2
9
$LUPREC
70
4
9
$AUNITS
70
0
9
$AUPREC
70
2
9
$SPLINESEGS
70
8
9
$GRIDMODE
70
1
9
$SNAPSTYLE
70
0
9
$GRIDUNIT
10
5
20
5
9
$PINSBASE
10
0
20
0
30
0
9
$PLIMMIN
10
0
20
0
9
$PLIMMAX
10
210
20
297
9
$INSUNITS
70
4
9
$PSVPSCALE
40
1
0
ENDSEC
0
SECTION
2
CLASSES
0
ENDSEC
0
SECTION
2
TABLES
0
TABLE
2
VPORT
5
8
330
0
100
AcDbSymbolTable
70
1
0
VPORT
5
31
330
2
100
AcDbSymbolTableRecord
100
AcDbViewportTableRecord
2
*ACTIVE
70
0
10
0
20
0
11
1
21
1
12
253.90625
22
158.943965517
13
0
23
0
14
10
24
10
15
5
25
5
16
0
26
0
36
1
17
0
27
0
37
0
40
443.157327587
41
2.0273556231
42
50
43
0
44
0
50
0
51
0
71
0
72
100
73
1
74
3
75
0
76
1
77
0
78
0
281
0
65
1
110
0
120
0
130
0
111
1
121
0
131
0
112
0
122
1
132
0
79
0
146
0
348
10020
60
3
61
5
292
1
282
1
141
0
142
0
63
250
421
3358443
0
ENDTAB
0
TABLE
2
LTYPE
5
5
330
0
100
AcDbSymbolTable
70
4
0
LTYPE
5
14
330
5
100
AcDbSymbolTableRecord
100
AcDbLinetypeTableRecord
2
ByBlock
70
0
3

72
65
73
0
40
0
0
LTYPE
5
15
330
5
100
AcDbSymbolTableRecord
100
AcDbLinetypeTableRecord
2
ByLayer
70
0
3

72
65
73
0
40
0
0
LTYPE
5
16
330
5
100
AcDbSymbolTableRecord
100
AcDbLinetypeTableRecord
2
Continuous
70
0
3
Solid line
72
65
73
0
40
0
0
LTYPE
5
32
330
5
100
AcDbSymbolTableRecord
100
AcDbLinetypeTableRecord
2
DOT
70
0
3
Dot . . . . . . . . . . . . . . . . . . . . . .
72
65
73
2
40
6.35
49
0
74
0
49
-6.35
74
0
0
LTYPE
5
33
330
5
100
AcDbSymbolTableRecord
100
AcDbLinetypeTableRecord
2
DOT2
70
0
3
Dot (.5x) .....................................
72
65
73
2
40
3.175
49
0
74
0
49
-3.175
74
0
0
LTYPE
5
34
330
5
100
AcDbSymbolTableRecord
100
AcDbLinetypeTableRecord
2
DOTX2
70
0
3
Dot (2x) .  .  .  .  .  .  .  .  .  .  .  .  .
72
65
73
2
40
12.7
49
0
74
0
49
-12.7
74
0
0
LTYPE
5
35
330
5
100
AcDbSymbolTableRecord
100
AcDbLinetypeTableRecord
2
DASHED
70
0
3
Dot . . . . . . . . . . . . . . . . . . . . . .
72
65
73
2
40
19.05
49
12.7
74
0
49
-6.35
74
0
0
LTYPE
5
36
330
5
100
AcDbSymbolTableRecord
100
AcDbLinetypeTableRecord
2
DASHED2
70
0
3
Dashed (.5x) _ _ _ _ _ _ _ _ _ _ _ _ _ _ _ _ _
72
65
73
2
40
9.525
49
6.35
74
0
49
-3.175
74
0
0
LTYPE
5
37
330
5
100
AcDbSymbolTableRecord
100
AcDbLinetypeTableRecord
2
DASHEDX2
70
0
3
Dashed (2x) ____  ____  ____  ____  ____  ___
72
65
73
2
40
38.1
49
25.4
74
0
49
-12.7
74
0
0
LTYPE
5
38
330
5
100
AcDbSymbolTableRecord
100
AcDbLinetypeTableRecord
2
DASHDOT
70
0
3
Dash dot __ . __ . __ . __ . __ . __ . __ . __
72
65
73
4
40
25.4
49
12.7
74
0
49
-6.35
74
0
49
0
74
0
49
-6.35
74
0
0
LTYPE
5
39
330
5
100
AcDbSymbolTableRecord
100
AcDbLinetypeTableRecord
2
DASHDOT2
70
0
3
Dash dot (.5x) _._._._._._._._._._._._._._._.
72
65
73
4
40
12.7
49
6.35
74
0
49
-3.175
74
0
49
0
74
0
49
-3.175
74
0
0
LTYPE
5
3A
330
5
100
AcDbSymbolTableRecord
100
AcDbLinetypeTableRecord
2
DASHDOTX2
70
0
3
Dash dot (2x) ____  .  ____  .  ____  .  ___
72
65
73
4
40
50.8
49
25.4
74
0
49
-12.7
74
0
49
0
74
0
49
-12.7
74
0
0
LTYPE
5
3B
330
5
100
AcDbSymbolTableRecord
100
AcDbLinetypeTableRecord
2
DIVIDE
70
0
3
Divide ____ . . ____ . . ____ . . ____ . . ____
72
65
73
6
40
31.75
49
12.7
74
0
49
-6.35
74
0
49
0
74
0
49
-6.35
74
0
49
0
74
0
49
-6.35
74
0
0
LTYPE
5
3C
330
5
100
AcDbSymbolTableRecord
100
AcDbLinetypeTableRecord
2
DIVIDE2
70
0
3
Divide (.5x) __..__..__..__..__..__..__..__.._
72
65
73
6
40
15.875
49
6.35
74
0
49
-3.175
74
0
49
0
74
0
49
-3.175
74
0
49
0
74
0
49
-3.175
74
0
0
LTYPE
5
3D
330
5
100
AcDbSymbolTableRecord
100
AcDbLinetypeTableRecord
2
DIVIDEX2
70
0
3
Divide (2x) ________  .  .  ________  .  .  _
72
65
73
6
40
63.5
49
25.4
74
0
49
-12.7
74
0
49
0
74
0
49
-12.7
74
0
49
0
74
0
49
-12.7
74
0
0
LTYPE
5
3E
330
5
100
AcDbSymbolTableRecord
100
AcDbLinetypeTableRecord
2
BORDER
70
0
3
Border __ __ . __ __ . __ __ . __ __ . __ __ .
72
65
73
6
40
44.45
49
12.7
74
0
49
-6.35
74
0
49
12.7
74
0
49
-6.35
74
0
49
0
74
0
49
-6.35
74
0
0
LTYPE
5
3F
330
5
100
AcDbSymbolTableRecord
100
AcDbLinetypeTableRecord
2
BORDER2
70
0
3
Border (.5x) __.__.__.__.__.__.__.__.__.__.__.
72
65
73
6
40
22.225
49
6.35
74
0
49
-3.175
74
0
49
6.35
74
0
49
-3.175
74
0
49
0
74
0
49
-3.175
74
0
0
LTYPE
5
40
330
5
100
AcDbSymbolTableRecord
100
AcDbLinetypeTableRecord
2
BORDERX2
70
0
3
Border (2x) ____  ____  .  ____  ____  .  ___
72
65
73
6
40
88.9
49
25.4
74
0
49
-12.7
74
0
49
25.4
74
0
49
-12.7
74
0
49
0
74
0
49
-12.7
74
0
0
LTYPE
5
41
330
5
100
AcDbSymbolTableRecord
100
AcDbLinetypeTableRecord
2
CENTER
70
0
3
Center ____ _ ____ _ ____ _ ____ _ ____ _ ____
72
65
73
4
40
50.8
49
31.75
74
0
49
-6.35
74
0
49
6.35
74
0
49
-6.35
74
0
0
LTYPE
5
42
330
5
100
AcDbSymbolTableRecord
100
AcDbLinetypeTableRecord
2
CENTER2
70
0
3
Center (.5x) ___ _ ___ _ ___ _ ___ _ ___ _ ___
72
65
73
4
40
28.575
49
19.05
74
0
49
-3.175
74
0
49
3.175
74
0
49
-3.175
74
0
0
LTYPE
5
43
330
5
100
AcDbSymbolTableRecord
100
AcDbLinetypeTableRecord
2
CENTERX2
70
0
3
Center (2x) ________  __  ________  __  _____
72
65
73
4
40
101.6
49
63.5
74
0
49
-12.7
74
0
49
12.7
74
0
49
-12.7
74
0
0
ENDTAB
0
TABLE
2
LAYER
5
2
330
0
100
AcDbSymbolTable
70
1
0
LAYER
5
10
330
2
100
AcDbSymbolTableRecord
100
AcDbLayerTableRecord
2
0
70
0
62
7
6
CONTINUOUS
370
0
390
F
0
LAYER
5
44
330
2
100
AcDbSymbolTableRecord
100
AcDbLayerTableRecord
2
frame
70
0
62
7
6
CONTINUOUS
370
0
390
F
0
LAYER
5
45
330
2
100
AcDbSymbolTableRecord
100
AcDbLayerTableRecord
2
bottom plate
70
0
62
136
420
32896
6
CONTINUOUS
370
-3
390
F
0
LAYER
5
46
330
2
100
AcDbSymbolTableRecord
100
AcDbLayerTableRecord
2
top plate
70
0
62
136
420
32896
6
CONTINUOUS
370
0
390
F
0
ENDTAB
0
TABLE
2
STYLE
5
3
330
0
100
AcDbSymbolTable
70
3
0
STYLE
5
47
330
2
100
AcDbSymbolTableRecord
100
AcDbTextStyleTableRecord
2
Standard
70
0
40
0
41
1
50
0
71
0
42
1
3
txt
4

0
ENDTAB
0
TABLE
2
VIEW
5
6
330
0
100
AcDbSymbolTable
70
0
0
ENDTAB
0
TABLE
2
UCS
5
7
330
0
100
AcDbSymbolTable
70
0
0
ENDTAB
0
TABLE
2
APPID
5
9
330
0
100
AcDbSymbolTable
70
1
0
APPID
5
12
330
9
100
AcDbSymbolTableRecord
100
AcDbRegAppTableRecord
2
ACAD
70
0
0
ENDTAB
0
TABLE
2
DIMSTYLE
5
A
330
0
100
AcDbSymbolTable
70
1
100
AcDbDimStyleTable
71
1
0
DIMSTYLE
105
48
330
A
100
AcDbSymbolTableRecord
100
AcDbDimStyleTableRecord
2
Standard
70
0
40
1
41
2.5
42
0.625
43
0.38
44
1.25
45
0
46
0
47
0
48
0
140
2.5
141
0.09
142
0
143
25.4
144
1
145
0
146
1
147
0.625
148
0
71
0
72
0
73
0
74
1
75
0
76
0
77
0
78
0
79
0
170
0
171
2
172
0
173
0
174
0
175
0
176
0
177
0
178
0
179
0
271
4
272
4
273
2
274
2
275
0
276
0
277
2
278
46
279
0
280
0
281
0
282
0
283
1
284
0
285
0
286
0
288
0
289
3
340
Standard
341

371
-2
372
-2
0
ENDTAB
0
TABLE
2
BLOCK_RECORD
5
1
330
0
100
AcDbSymbolTable
70
2
0
BLOCK_RECORD
5
1F
330
1
100
AcDbSymbolTableRecord
100
AcDbBlockTableRecord
2
*Model_Space
70
0
280
1
281
0
0
BLOCK_RECORD
5
1E
330
1
100
AcDbSymbolTableRecord
100
AcDbBlockTableRecord
2
*Paper_Space
70
0
280
1
281
0
0
ENDTAB
0
ENDSEC
0
SECTION
2
BLOCKS
0
BLOCK
5
20
330
1F
100
AcDbEntity
8
0
100
AcDbBlockBegin
2
*Model_Space
70
0
10
0
20
0
30
0
3
*Model_Space
1

0
ENDBLK
5
21
330
1F
100
AcDbEntity
8
0
100
AcDbBlockEnd
0
BLOCK
5
1C
330
1B
100
AcDbEntity
8
0
100
AcDbBlockBegin
2
*Paper_Space
70
0
10
0
20
0
30
0
3
*Paper_Space
1

0
ENDBLK
5
1D
330
1F
100
AcDbEntity
8
0
100
AcDbBlockEnd
0
ENDSEC
0
SECTION
2
ENTITIES
0
LINE
5
49
100
AcDbEntity
8
frame
6
ByLayer
62
256
370
-1
100
AcDbLine
10
45.3499999999
20
86.000000001
11
45.3499999999
21
82.000000001
0
LINE
5
4A
100
AcDbEntity
8
frame
6
ByLayer
62
256
370
-1
100
AcDbLine
10
50.6499999999
20
86.000000001
11
50.6499999999
21
82.000000001
0
LINE
5
4B
100
AcDbEntity
8
frame
6
ByLayer
62
256
370
-1
100
AcDbLine
10
49.4499999999
20
86.000000001
11
50.6499999999
21
86.000000001
0
LINE
5
4C
100
AcDbEntity
8
frame
6
ByLayer
62
256
370
-1
100
AcDbLine
10
45.3499999999
20
86.000000001
11
46.5499999999
21
86.000000001
0
LINE
5
4D
100
AcDbEntity
8
frame
6
ByLayer
62
256
370
-1
100
AcDbLine
10
45.3499999999
20
82.000000001
11
50.6499999999
21
82.000000001
0
LINE
5
4E
100
AcDbEntity
8
frame
6
ByLayer
62
256
370
-1
100
AcDbLine
10
46.5499999999
20
90.000000001
11
46.5499999999
21
86.000000001
0
LINE
5
4F
100
AcDbEntity
8
frame
6
ByLayer
62
256
370
-1
100
AcDbLine
10
49.4499999999
20
90.000000001
11
49.4499999999
21
86.000000001
0
LINE
5
50
100
AcDbEntity
8
frame
6
ByLayer
62
256
370
-1
100
AcDbLine
10
44.9999999999
20
90.000000001
11
46.5499999999
21
90.000000001
0
LINE
5
51
100
AcDbEntity
8
frame
6
ByLayer
62
256
370
-1
100
AcDbLine
10
49.4499999999
20
90.000000001
11
50.9999999999
21
90.000000001
0
LINE
5
52
100
AcDbEntity
8
frame
6
ByLayer
62
256
370
-1
100
AcDbLine
10
35.9999999999
20
90.000000001
11
14.0000000001
21
89.999999999
0
ARC
5
53
100
AcDbEntity
8
frame
6
ByLayer
62
256
370
-1
100
AcDbCircle
10
41.1990521384
20
194.175355441
40
104.635382448
100
AcDbArc
50
275.374638444
51
291.766230322
0
LINE
5
54
100
AcDbEntity
8
frame
6
ByLayer
62
256
370
-1
100
AcDbLine
10
86
20
102.8
11
92
21
102.8
0
LINE
5
55
100
AcDbEntity
8
frame
6
ByLayer
62
256
370
-1
100
AcDbLine
10
86
20
99.3
11
92
21
99.3
0
LINE
5
56
100
AcDbEntity
8
frame
6
ByLayer
62
256
370
-1
100
AcDbLine
10
86
20
99.3
11
86
21
102.8
0
LINE
5
57
100
AcDbEntity
8
frame
6
ByLayer
62
256
370
-1
100
AcDbLine
10
92
20
99.3
11
92
21
102.8
0
LINE
5
58
100
AcDbEntity
8
frame
6
ByLayer
62
256
370
-1
100
AcDbLine
10
83
20
97
11
83
21
102.8
0
ARC
5
59
100
AcDbEntity
8
frame
6
ByLayer
62
256
370
-1
100
AcDbCircle
10
86
20
102.8
40
3
100
AcDbArc
50
90
51
180
0
LINE
5
5A
100
AcDbEntity
8
frame
6
ByLayer
62
256
370
-1
100
AcDbLine
10
86
20
105.8
11
92
21
105.8
0
ARC
5
5B
100
AcDbEntity
8
frame
6
ByLayer
62
256
370
-1
100
AcDbCircle
10
92
20
102.8
40
3
100
AcDbArc
50
0
51
90
0
LINE
5
5C
100
AcDbEntity
8
frame
6
ByLayer
62
256
370
-1
100
AcDbLine
10
95
20
100
11
95
21
102.8
0
LINE
5
5D
100
AcDbEntity
8
frame
6
ByLayer
62
256
370
-1
100
AcDbLine
10
100.530194847
20
94
11
105.830194847
21
94
0
LINE
5
5E
100
AcDbEntity
8
frame
6
ByLayer
62
256
370
-1
100
AcDbLine
10
100.530194847
20
100
11
100.530194847
21
94
0
LINE
5
5F
100
AcDbEntity
8
frame
6
ByLayer
62
256
370
-1
100
AcDbLine
10
105.830194847
20
100
11
105.830194847
21
94
0
LINE
5
60
100
AcDbEntity
8
frame
6
ByLayer
62
256
370
-1
100
AcDbLine
10
125
20
100
11
125
21
97
0
LINE
5
61
100
AcDbEntity
8
frame
6
ByLayer
62
256
370
-1
100
AcDbLine
10
95
20
100
11
100.530194847
21
100
0
LINE
5
62
100
AcDbEntity
8
frame
6
ByLayer
62
256
370
-1
100
AcDbLine
10
105.830194847
20
100
11
125
21
100
0
LINE
5
63
100
AcDbEntity
8
frame
6
ByLayer
62
256
370
-1
100
AcDbLine
10
80
20
97
11
83
21
97
0
LINE
5
64
100
AcDbEntity
8
frame
6
ByLayer
62
256
370
-1
100
AcDbLine
10
35.9999999996
20
93.050000001
11
43.9999999996
21
93.050000001
0
ARC
5
65
100
AcDbEntity
8
frame
6
ByLayer
62
256
370
-1
100
AcDbCircle
10
43.9999999996
20
92.050000001
40
1
100
AcDbArc
50
0
51
90
0
LINE
5
66
100
AcDbEntity
8
frame
6
ByLayer
62
256
370
-1
100
AcDbLine
10
35.9999999999
20
93.050000001
11
35.9999999999
21
90
0
LINE
5
67
100
AcDbEntity
8
frame
6
ByLayer
62
256
370
-1
100
AcDbLine
10
44.9999999999
20
92.049976447
11
44.9999999999
21
90.000000001
0
LINE
5
68
100
AcDbEntity
8
frame
6
ByLayer
62
256
370
-1
100
AcDbLine
10
4
20
93.0678035098
11
4
21
94.3678035098
0
ARC
5
69
100
AcDbEntity
8
frame
6
ByLayer
62
256
370
-1
100
AcDbCircle
10
7
20
94.3678035098
40
3
100
AcDbArc
50
90
51
180.000000001
0
LINE
5
6A
100
AcDbEntity
8
frame
6
ByLayer
62
256
370
-1
100
AcDbLine
10
7
20
97.3678035098
11
11
21
97.3678035098
0
ARC
5
6B
100
AcDbEntity
8
frame
6
ByLayer
62
256
370
-1
100
AcDbCircle
10
11
20
94.3678035098
40
3
100
AcDbArc
50
1.30384930834e-09
51
90
0
LINE
5
6C
100
AcDbEntity
8
frame
6
ByLayer
62
256
370
-1
100
AcDbLine
10
9.0000000001
20
89.999999999
11
9
21
93.050000001
0
LINE
5
6D
100
AcDbEntity
8
frame
6
ByLayer
62
256
370
-1
100
AcDbLine
10
14
20
94.3678035099
11
14.0000000001
21
89.999999999
0
LINE
5
6E
100
AcDbEntity
8
frame
6
ByLayer
62
256
370
-1
100
AcDbLine
10
9
20
93.050000001
11
4
21
93.050000001
0
LINE
5
6F
100
AcDbEntity
8
frame
6
ByLayer
62
256
370
-1
100
AcDbLine
10
133.5
20
91
11
136.5
21
91
0
LINE
5
70
100
AcDbEntity
8
frame
6
ByLayer
62
256
370
-1
100
AcDbLine
10
125
20
97
11
133.5
21
97
0
LINE
5
71
100
AcDbEntity
8
frame
6
ByLayer
62
256
370
-1
100
AcDbLine
10
133.5
20
91
11
133.5
21
97
0
LINE
5
72
100
AcDbEntity
8
frame
6
ByLayer
62
256
370
-1
100
AcDbLine
10
100.5
20
62.7
11
94.5
21
62.7
0
LINE
5
73
100
AcDbEntity
8
frame
6
ByLayer
62
256
370
-1
100
AcDbLine
10
100.5
20
59.2
11
94.5
21
59.2
0
LINE
5
74
100
AcDbEntity
8
frame
6
ByLayer
62
256
370
-1
100
AcDbLine
10
94.5
20
59.2
11
94.5
21
62.7
0
LINE
5
75
100
AcDbEntity
8
frame
6
ByLayer
62
256
370
-1
100
AcDbLine
10
100.5
20
59.2
11
100.5
21
62.7
0
LINE
5
76
100
AcDbEntity
8
frame
6
ByLayer
62
256
370
-1
100
AcDbLine
10
104
20
65
11
108
21
65
0
LINE
5
77
100
AcDbEntity
8
frame
6
ByLayer
62
256
370
-1
100
AcDbLine
10
108
20
85
11
108
21
65
0
LINE
5
78
100
AcDbEntity
8
frame
6
ByLayer
62
256
370
-1
100
AcDbLine
10
20
20
55
11
14.25
21
55
0
ARC
5
79
100
AcDbEntity
8
frame
6
ByLayer
62
256
370
-1
100
AcDbCircle
10
131.053571427
20
90.4142857137
40
122.054274529
100
AcDbArc
50
180.194477978
51
196.867053242
0
ARC
5
7A
100
AcDbEntity
8
frame
6
ByLayer
62
256
370
-1
100
AcDbCircle
10
56.875
20
41.25
40
39.3551537286
100
AcDbArc
50
130.892727213
51
159.550452389
0
LINE
5
7B
100
AcDbEntity
8
frame
6
ByLayer
62
256
370
-1
100
AcDbLine
10
87
20
65
11
91
21
65
0
LINE
5
7C
100
AcDbEntity
8
frame
6
ByLayer
62
256
370
-1
100
AcDbLine
10
31.1113507049
20
71
11
83.075916036
21
71
0
ARC
5
7D
100
AcDbEntity
8
frame
6
ByLayer
62
256
370
-1
100
AcDbCircle
10
72.5
20
59.8
40
15.404220201
100
AcDbArc
50
19.7288839883
51
46.6416114058
0
LINE
5
7E
100
AcDbEntity
8
frame
6
ByLayer
62
256
370
-1
100
AcDbLine
10
91
20
58
11
91
21
65
0
ARC
5
7F
100
AcDbEntity
8
frame
6
ByLayer
62
256
370
-1
100
AcDbCircle
10
94
20
58
40
3
100
AcDbArc
50
180
51
270
0
LINE
5
80
100
AcDbEntity
8
frame
6
ByLayer
62
256
370
-1
100
AcDbLine
10
94
20
55
11
101
21
55
0
LINE
5
81
100
AcDbEntity
8
frame
6
ByLayer
62
256
370
-1
100
AcDbLine
10
104
20
65
11
104
21
58
0
ARC
5
82
100
AcDbEntity
8
frame
6
ByLayer
62
256
370
-1
100
AcDbCircle
10
101
20
58
40
3
100
AcDbArc
50
270
51
0
0
LINE
5
83
100
AcDbEntity
8
frame
6
ByLayer
62
256
370
-1
100
AcDbLine
10
224.65
20
86.000000001
11
224.65
21
82.000000001
0
LINE
5
84
100
AcDbEntity
8
frame
6
ByLayer
62
256
370
-1
100
AcDbLine
10
219.35
20
86.000000001
11
219.35
21
82.000000001
0
LINE
5
85
100
AcDbEntity
8
frame
6
ByLayer
62
256
370
-1
100
AcDbLine
10
220.55
20
86.000000001
11
219.35
21
86.000000001
0
LINE
5
86
100
AcDbEntity
8
frame
6
ByLayer
62
256
370
-1
100
AcDbLine
10
224.65
20
86.000000001
11
223.45
21
86.000000001
0
LINE
5
87
100
AcDbEntity
8
frame
6
ByLayer
62
256
370
-1
100
AcDbLine
10
224.65
20
82.000000001
11
219.35
21
82.000000001
0
LINE
5
88
100
AcDbEntity
8
frame
6
ByLayer
62
256
370
-1
100
AcDbLine
10
223.45
20
90.000000001
11
223.45
21
86.000000001
0
LINE
5
89
100
AcDbEntity
8
frame
6
ByLayer
62
256
370
-1
100
AcDbLine
10
220.55
20
90.000000001
11
220.55
21
86.000000001
0
LINE
5
8A
100
AcDbEntity
8
frame
6
ByLayer
62
256
370
-1
100
AcDbLine
10
225
20
90.000000001
11
223.45
21
90.000000001
0
LINE
5
8B
100
AcDbEntity
8
frame
6
ByLayer
62
256
370
-1
100
AcDbLine
10
220.55
20
90.000000001
11
219
21
90.000000001
0
LINE
5
8C
100
AcDbEntity
8
frame
6
ByLayer
62
256
370
-1
100
AcDbLine
10
234
20
90.000000001
11
256
21
89.999999999
0
ARC
5
8D
100
AcDbEntity
8
frame
6
ByLayer
62
256
370
-1
100
AcDbCircle
10
228.800947862
20
194.175355441
40
104.635382448
100
AcDbArc
50
248.233769678
51
264.625361556
0
LINE
5
8E
100
AcDbEntity
8
frame
6
ByLayer
62
256
370
-1
100
AcDbLine
10
184
20
102.8
11
178
21
102.8
0
LINE
5
8F
100
AcDbEntity
8
frame
6
ByLayer
62
256
370
-1
100
AcDbLine
10
184
20
99.3
11
178
21
99.3
0
LINE
5
90
100
AcDbEntity
8
frame
6
ByLayer
62
256
370
-1
100
AcDbLine
10
184
20
99.3
11
184
21
102.8
0
LINE
5
91
100
AcDbEntity
8
frame
6
ByLayer
62
256
370
-1
100
AcDbLine
10
178
20
99.3
11
178
21
102.8
0
LINE
5
92
100
AcDbEntity
8
frame
6
ByLayer
62
256
370
-1
100
AcDbLine
10
187
20
97
11
187
21
102.8
0
ARC
5
93
100
AcDbEntity
8
frame
6
ByLayer
62
256
370
-1
100
AcDbCircle
10
184
20
102.8
40
3
100
AcDbArc
50
0
51
90
0
LINE
5
94
100
AcDbEntity
8
frame
6
ByLayer
62
256
370
-1
100
AcDbLine
10
184
20
105.8
11
178
21
105.8
0
ARC
5
95
100
AcDbEntity
8
frame
6
ByLayer
62
256
370
-1
100
AcDbCircle
10
178
20
102.8
40
3
100
AcDbArc
50
90
51
180
0
LINE
5
96
100
AcDbEntity
8
frame
6
ByLayer
62
256
370
-1
100
AcDbLine
10
175
20
100
11
175
21
102.8
0
LINE
5
97
100
AcDbEntity
8
frame
6
ByLayer
62
256
370
-1
100
AcDbLine
10
169.469805153
20
94
11
164.169805153
21
94
0
LINE
5
98
100
AcDbEntity
8
frame
6
ByLayer
62
256
370
-1
100
AcDbLine
10
169.469805153
20
100
11
169.469805153
21
94
0
LINE
5
99
100
AcDbEntity
8
frame
6
ByLayer
62
256
370
-1
100
AcDbLine
10
164.169805153
20
100
11
164.169805153
21
94
0
LINE
5
9A
100
AcDbEntity
8
frame
6
ByLayer
62
256
370
-1
100
AcDbLine
10
145
20
100
11
145
21
97
0
LINE
5
9B
100
AcDbEntity
8
frame
6
ByLayer
62
256
370
-1
100
AcDbLine
10
175
20
100
11
169.469805153
21
100
0
LINE
5
9C
100
AcDbEntity
8
frame
6
ByLayer
62
256
370
-1
100
AcDbLine
10
164.169805153
20
100
11
145
21
100
0
LINE
5
9D
100
AcDbEntity
8
frame
6
ByLayer
62
256
370
-1
100
AcDbLine
10
190
20
97
11
187
21
97
0
LINE
5
9E
100
AcDbEntity
8
frame
6
ByLayer
62
256
370
-1
100
AcDbLine
10
234
20
93.050000001
11
226
21
93.050000001
0
ARC
5
9F
100
AcDbEntity
8
frame
6
ByLayer
62
256
370
-1
100
AcDbCircle
10
226
20
92.050000001
40
1
100
AcDbArc
50
90
51
180
0
LINE
5
A0
100
AcDbEntity
8
frame
6
ByLayer
62
256
370
-1
100
AcDbLine
10
234
20
93.050000001
11
234
21
90
0
LINE
5
A1
100
AcDbEntity
8
frame
6
ByLayer
62
256
370
-1
100
AcDbLine
10
225
20
92.049976447
11
225
21
90.000000001
0
LINE
5
A2
100
AcDbEntity
8
frame
6
ByLayer
62
256
370
-1
100
AcDbLine
10
266
20
93.0678035098
11
266
21
94.3678035098
0
ARC
5
A3
100
AcDbEntity
8
frame
6
ByLayer
62
256
370
-1
100
AcDbCircle
10
263
20
94.3678035098
40
3
100
AcDbArc
50
359.999999999
51
90
0
LINE
5
A4
100
AcDbEntity
8
frame
6
ByLayer
62
256
370
-1
100
AcDbLine
10
263
20
97.3678035098
11
259
21
97.3678035098
0
ARC
5
A5
100
AcDbEntity
8
frame
6
ByLayer
62
256
370
-1
100
AcDbCircle
10
259
20
94.3678035098
40
3
100
AcDbArc
50
90
51
179.999999999
0
LINE
5
A6
100
AcDbEntity
8
frame
6
ByLayer
62
256
370
-1
100
AcDbLine
10
261
20
89.999999999
11
261
21
93.050000001
0
LINE
5
A7
100
AcDbEntity
8
frame
6
ByLayer
62
256
370
-1
100
AcDbLine
10
256
20
94.3678035099
11
256
21
89.999999999
0
LINE
5
A8
100
AcDbEntity
8
frame
6
ByLayer
62
256
370
-1
100
AcDbLine
10
261
20
93.050000001
11
266
21
93.050000001
0
LINE
5
A9
100
AcDbEntity
8
frame
6
ByLayer
62
256
370
-1
100
AcDbLine
10
145
20
97
11
136.5
21
97
0
LINE
5
AA
100
AcDbEntity
8
frame
6
ByLayer
62
256
370
-1
100
AcDbLine
10
136.5
20
91
11
136.5
21
97
0
LINE
5
AB
100
AcDbEntity
8
frame
6
ByLayer
62
256
370
-1
100
AcDbLine
10
169.5
20
62.7
11
175.5
21
62.7
0
LINE
5
AC
100
AcDbEntity
8
frame
6
ByLayer
62
256
370
-1
100
AcDbLine
10
169.5
20
59.2
11
175.5
21
59.2
0
LINE
5
AD
100
AcDbEntity
8
frame
6
ByLayer
62
256
370
-1
100
AcDbLine
10
175.5
20
59.2
11
175.5
21
62.7
0
LINE
5
AE
100
AcDbEntity
8
frame
6
ByLayer
62
256
370
-1
100
AcDbLine
10
169.5
20
59.2
11
169.5
21
62.7
0
LINE
5
AF
100
AcDbEntity
8
frame
6
ByLayer
62
256
370
-1
100
AcDbLine
10
166
20
65
11
162
21
65
0
LINE
5
B0
100
AcDbEntity
8
frame
6
ByLayer
62
256
370
-1
100
AcDbLine
10
162
20
85
11
162
21
65
0
LINE
5
B1
100
AcDbEntity
8
frame
6
ByLayer
62
256
370
-1
100
AcDbLine
10
250
20
55
11
255.75
21
55
0
ARC
5
B2
100
AcDbEntity
8
frame
6
ByLayer
62
256
370
-1
100
AcDbCircle
10
138.946428573
20
90.4142857137
40
122.054274529
100
AcDbArc
50
343.132946758
51
359.805522022
0
ARC
5
B3
100
AcDbEntity
8
frame
6
ByLayer
62
256
370
-1
100
AcDbCircle
10
213.125
20
41.25
40
39.3551537286
100
AcDbArc
50
20.4495476108
51
49.1072727867
0
LINE
5
B4
100
AcDbEntity
8
frame
6
ByLayer
62
256
370
-1
100
AcDbLine
10
183
20
65
11
179
21
65
0
LINE
5
B5
100
AcDbEntity
8
frame
6
ByLayer
62
256
370
-1
100
AcDbLine
10
238.888649295
20
71
11
186.924083964
21
71
0
ARC
5
B6
100
AcDbEntity
8
frame
6
ByLayer
62
256
370
-1
100
AcDbCircle
10
197.5
20
59.8
40
15.404220201
100
AcDbArc
50
133.358388594
51
160.271116012
0
LINE
5
B7
100
AcDbEntity
8
frame
6
ByLayer
62
256
370
-1
100
AcDbLine
10
179
20
58
11
179
21
65
0
ARC
5
B8
100
AcDbEntity
8
frame
6
ByLayer
62
256
370
-1
100
AcDbCircle
10
176
20
58
40
3
100
AcDbArc
50
270
51
0
0
LINE
5
B9
100
AcDbEntity
8
frame
6
ByLayer
62
256
370
-1
100
AcDbLine
10
176
20
55
11
169
21
55
0
LINE
5
BA
100
AcDbEntity
8
frame
6
ByLayer
62
256
370
-1
100
AcDbLine
10
166
20
65
11
166
21
58
0
ARC
5
BB
100
AcDbEntity
8
frame
6
ByLayer
62
256
370
-1
100
AcDbCircle
10
169
20
58
40
3
100
AcDbArc
50
180
51
270
0
LINE
5
BC
100
AcDbEntity
8
frame
6
ByLayer
62
256
370
-1
100
AcDbLine
10
108
20
85
11
162
21
85
0
LINE
5
BD
100
AcDbEntity
8
bottom plate
6
ByLayer
62
256
370
-1
100
AcDbLine
10
151
20
166.5
11
164
21
166.5
0
LINE
5
BE
100
AcDbEntity
8
bottom plate
6
ByLayer
62
256
370
-1
100
AcDbLine
10
151
20
163.5
11
164
21
163.5
0
LINE
5
BF
100
AcDbEntity
8
bottom plate
6
ByLayer
62
256
370
-1
100
AcDbLine
10
164
20
163.5
11
164
21
166.5
0
LINE
5
C0
100
AcDbEntity
8
bottom plate
6
ByLayer
62
256
370
-1
100
AcDbLine
10
151
20
163.5
11
151
21
166.5
0
LINE
5
C1
100
AcDbEntity
8
bottom plate
6
ByLayer
62
256
370
-1
100
AcDbLine
10
193.5
20
121
11
193.5
21
134
0
LINE
5
C2
100
AcDbEntity
8
bottom plate
6
ByLayer
62
256
370
-1
100
AcDbLine
10
196.5
20
121
11
196.5
21
134
0
LINE
5
C3
100
AcDbEntity
8
bottom plate
6
ByLayer
62
256
370
-1
100
AcDbLine
10
196.5
20
134
11
193.5
21
134
0
LINE
5
C4
100
AcDbEntity
8
bottom plate
6
ByLayer
62
256
370
-1
100
AcDbLine
10
196.5
20
121
11
193.5
21
121
0
LINE
5
C5
100
AcDbEntity
8
bottom plate
6
ByLayer
62
256
370
-1
100
AcDbLine
10
239
20
163.5
11
226
21
163.5
0
LINE
5
C6
100
AcDbEntity
8
bottom plate
6
ByLayer
62
256
370
-1
100
AcDbLine
10
239
20
166.5
11
226
21
166.5
0
LINE
5
C7
100
AcDbEntity
8
bottom plate
6
ByLayer
62
256
370
-1
100
AcDbLine
10
226
20
166.5
11
226
21
163.5
0
LINE
5
C8
100
AcDbEntity
8
bottom plate
6
ByLayer
62
256
370
-1
100
AcDbLine
10
239
20
166.5
11
239
21
163.5
0
LINE
5
C9
100
AcDbEntity
8
bottom plate
6
ByLayer
62
256
370
-1
100
AcDbLine
10
196.5
20
209
11
196.5
21
196
0
LINE
5
CA
100
AcDbEntity
8
bottom plate
6
ByLayer
62
256
370
-1
100
AcDbLine
10
193.5
20
209
11
193.5
21
196
0
LINE
5
CB
100
AcDbEntity
8
bottom plate
6
ByLayer
62
256
370
-1
100
AcDbLine
10
193.5
20
196
11
196.5
21
196
0
LINE
5
CC
100
AcDbEntity
8
bottom plate
6
ByLayer
62
256
370
-1
100
AcDbLine
10
193.5
20
209
11
196.5
21
209
0
ARC
5
CD
100
AcDbEntity
8
bottom plate
6
ByLayer
62
256
370
-1
100
AcDbCircle
10
189.485281374
20
207
40
6
100
AcDbArc
50
90
51
135
0
LINE
5
CE
100
AcDbEntity
8
bottom plate
6
ByLayer
62
256
370
-1
100
AcDbLine
10
200.514718626
20
213
11
189.485281374
21
213
0
ARC
5
CF
100
AcDbEntity
8
bottom plate
6
ByLayer
62
256
370
-1
100
AcDbCircle
10
200.514718626
20
207
40
6
100
AcDbArc
50
45
51
90
0
ARC
5
D0
100
AcDbEntity
8
bottom plate
6
ByLayer
62
256
370
-1
100
AcDbCircle
10
153
20
159.485281374
40
6
100
AcDbArc
50
180
51
225
0
LINE
5
D1
100
AcDbEntity
8
bottom plate
6
ByLayer
62
256
370
-1
100
AcDbLine
10
147
20
170.514718626
11
147
21
159.485281374
0
LINE
5
D2
100
AcDbEntity
8
bottom plate
6
ByLayer
62
256
370
-1
100
AcDbLine
10
148.757359313
20
174.757359313
11
185.242640687
21
211.242640687
0
ARC
5
D3
100
AcDbEntity
8
bottom plate
6
ByLayer
62
256
370
-1
100
AcDbCircle
10
153
20
170.514718626
40
6
100
AcDbArc
50
135
51
180
0
LINE
5
D4
100
AcDbEntity
8
bottom plate
6
ByLayer
62
256
370
-1
100
AcDbLine
10
185.242640687
20
118.757359313
11
148.757359313
21
155.242640687
0
ARC
5
D5
100
AcDbEntity
8
bottom plate
6
ByLayer
62
256
370
-1
100
AcDbCircle
10
189.485281374
20
123
40
6
100
AcDbArc
50
225
51
270
0
LINE
5
D6
100
AcDbEntity
8
bottom plate
6
ByLayer
62
256
370
-1
100
AcDbLine
10
189.485281374
20
117
11
200.514718626
21
117
0
ARC
5
D7
100
AcDbEntity
8
bottom plate
6
ByLayer
62
256
370
-1
100
AcDbCircle
10
200.514718626
20
123
40
6
100
AcDbArc
50
270
51
315
0
LINE
5
D8
100
AcDbEntity
8
bottom plate
6
ByLayer
62
256
370
-1
100
AcDbLine
10
204.757359313
20
211.242640687
11
241.242640687
21
174.757359313
0
ARC
5
D9
100
AcDbEntity
8
bottom plate
6
ByLayer
62
256
370
-1
100
AcDbCircle
10
237
20
170.514718626
40
6
100
AcDbArc
50
0
51
45
0
LINE
5
DA
100
AcDbEntity
8
bottom plate
6
ByLayer
62
256
370
-1
100
AcDbLine
10
243
20
159.485281374
11
243
21
170.514718626
0
LINE
5
DB
100
AcDbEntity
8
bottom plate
6
ByLayer
62
256
370
-1
100
AcDbLine
10
241.242640687
20
155.242640687
11
204.757359313
21
118.757359313
0
ARC
5
DC
100
AcDbEntity
8
bottom plate
6
ByLayer
62
256
370
-1
100
AcDbCircle
10
237
20
159.485281374
40
6
100
AcDbArc
50
315
51
0
0
ARC
5
DD
100
AcDbEntity
8
bottom plate
6
ByLayer
62
256
370
-1
100
AcDbCircle
10
188.585786438
20
148.786796564
40
1
100
AcDbArc
50
225
51
315
0
LINE
5
DE
100
AcDbEntity
8
bottom plate
6
ByLayer
62
256
370
-1
100
AcDbLine
10
189.292893219
20
148.079689783
11
189.292893219
21
148.079689783
0
ARC
5
DF
100
AcDbEntity
8
bottom plate
6
ByLayer
62
256
370
-1
100
AcDbCircle
10
188.585786438
20
148.786796564
40
1
100
AcDbArc
50
315
51
45
0
LINE
5
E0
100
AcDbEntity
8
bottom plate
6
ByLayer
62
256
370
-1
100
AcDbLine
10
178.079689783
20
157.878679656
11
187.878679657
21
148.079689783
0
ARC
5
E1
100
AcDbEntity
8
bottom plate
6
ByLayer
62
256
370
-1
100
AcDbCircle
10
178.786796564
20
158.585786437
40
1
100
AcDbArc
50
135
51
225
0
LINE
5
E2
100
AcDbEntity
8
bottom plate
6
ByLayer
62
256
370
-1
100
AcDbLine
10
178.079689783
20
159.292893219
11
178.079689783
21
159.292893219
0
LINE
5
E3
100
AcDbEntity
8
bottom plate
6
ByLayer
62
256
370
-1
100
AcDbLine
10
179.493903346
20
159.292893219
11
189.292893219
21
149.493903345
0
ARC
5
E4
100
AcDbEntity
8
bottom plate
6
ByLayer
62
256
370
-1
100
AcDbCircle
10
178.786796564
20
158.585786437
40
1
100
AcDbArc
50
45
51
135
0
ARC
5
E5
100
AcDbEntity
8
bottom plate
6
ByLayer
62
256
370
-1
100
AcDbCircle
10
188.585786438
20
128.887301628
40
1
100
AcDbArc
50
225
51
315
0
ARC
5
E6
100
AcDbEntity
8
bottom plate
6
ByLayer
62
256
370
-1
100
AcDbCircle
10
188.585786438
20
128.887301628
40
1
100
AcDbArc
50
315
51
45
0
ARC
5
E7
100
AcDbEntity
8
bottom plate
6
ByLayer
62
256
370
-1
100
AcDbCircle
10
158.887301628
20
158.585786437
40
1
100
AcDbArc
50
135
51
225
0
ARC
5
E8
100
AcDbEntity
8
bottom plate
6
ByLayer
62
256
370
-1
100
AcDbCircle
10
158.887301628
20
158.585786437
40
1
100
AcDbArc
50
45
51
135
0
ARC
5
E9
100
AcDbEntity
8
bottom plate
6
ByLayer
62
256
370
-1
100
AcDbCircle
10
188.585786438
20
138.887301627
40
1
100
AcDbArc
50
225
51
315
0
LINE
5
EA
100
AcDbEntity
8
bottom plate
6
ByLayer
62
256
370
-1
100
AcDbLine
10
189.292893219
20
138.180194846
11
189.292893219
21
138.180194846
0
ARC
5
EB
100
AcDbEntity
8
bottom plate
6
ByLayer
62
256
370
-1
100
AcDbCircle
10
188.585786438
20
138.887301627
40
1
100
AcDbArc
50
315
51
45
0
LINE
5
EC
100
AcDbEntity
8
bottom plate
6
ByLayer
62
256
370
-1
100
AcDbLine
10
168.180194847
20
157.878679657
11
187.878679656
21
138.180194845
0
ARC
5
ED
100
AcDbEntity
8
bottom plate
6
ByLayer
62
256
370
-1
100
AcDbCircle
10
168.887301628
20
158.585786437
40
1
100
AcDbArc
50
135
51
225
0
LINE
5
EE
100
AcDbEntity
8
bottom plate
6
ByLayer
62
256
370
-1
100
AcDbLine
10
168.180194847
20
159.292893218
11
168.180194847
21
159.292893218
0
LINE
5
EF
100
AcDbEntity
8
bottom plate
6
ByLayer
62
256
370
-1
100
AcDbLine
10
169.594408409
20
159.292893219
11
189.292893219
21
139.594408408
0
ARC
5
F0
100
AcDbEntity
8
bottom plate
6
ByLayer
62
256
370
-1
100
AcDbCircle
10
168.887301628
20
158.585786437
40
1
100
AcDbArc
50
45
51
135
0
LINE
5
F1
100
AcDbEntity
8
bottom plate
6
ByLayer
62
256
370
-1
100
AcDbLine
10
158.180195672
20
157.87867883
11
187.878679656
21
128.180194847
0
LINE
5
F2
100
AcDbEntity
8
bottom plate
6
ByLayer
62
256
370
-1
100
AcDbLine
10
159.594408496
20
159.292893131
11
189.292893219
21
129.594408408
0
ARC
5
F3
100
AcDbEntity
8
bottom plate
6
ByLayer
62
256
370
-1
100
AcDbCircle
10
211.213203436
20
158.585786438
40
1
100
AcDbArc
50
315
51
45
0
LINE
5
F4
100
AcDbEntity
8
bottom plate
6
ByLayer
62
256
370
-1
100
AcDbLine
10
211.920310217
20
159.292893219
11
211.920310217
21
159.292893219
0
ARC
5
F5
100
AcDbEntity
8
bottom plate
6
ByLayer
62
256
370
-1
100
AcDbCircle
10
211.213203436
20
158.585786438
40
1
100
AcDbArc
50
45
51
135
0
LINE
5
F6
100
AcDbEntity
8
bottom plate
6
ByLayer
62
256
370
-1
100
AcDbLine
10
202.121320344
20
148.079689783
11
211.920310217
21
157.878679657
0
ARC
5
F7
100
AcDbEntity
8
bottom plate
6
ByLayer
62
256
370
-1
100
AcDbCircle
10
201.414213562
20
148.786796565
40
1
100
AcDbArc
50
225
51
315
0
LINE
5
F8
100
AcDbEntity
8
bottom plate
6
ByLayer
62
256
370
-1
100
AcDbLine
10
200.707106781
20
148.079689783
11
200.707106781
21
148.079689783
0
LINE
5
F9
100
AcDbEntity
8
bottom plate
6
ByLayer
62
256
370
-1
100
AcDbLine
10
200.707106781
20
149.493903346
11
210.506096655
21
159.292893219
0
ARC
5
FA
100
AcDbEntity
8
bottom plate
6
ByLayer
62
256
370
-1
100
AcDbCircle
10
201.414213562
20
148.786796565
40
1
100
AcDbArc
50
135
51
225
0
ARC
5
FB
100
AcDbEntity
8
bottom plate
6
ByLayer
62
256
370
-1
100
AcDbCircle
10
231.112698372
20
158.585786438
40
1
100
AcDbArc
50
315
51
45
0
ARC
5
FC
100
AcDbEntity
8
bottom plate
6
ByLayer
62
256
370
-1
100
AcDbCircle
10
231.112698372
20
158.585786438
40
1
100
AcDbArc
50
45
51
135
0
ARC
5
FD
100
AcDbEntity
8
bottom plate
6
ByLayer
62
256
370
-1
100
AcDbCircle
10
201.414213562
20
128.887301628
40
1
100
AcDbArc
50
225
51
315
0
ARC
5
FE
100
AcDbEntity
8
bottom plate
6
ByLayer
62
256
370
-1
100
AcDbCircle
10
201.414213562
20
128.887301628
40
1
100
AcDbArc
50
135
51
225
0
ARC
5
FF
100
AcDbEntity
8
bottom plate
6
ByLayer
62
256
370
-1
100
AcDbCircle
10
221.112698373
20
158.585786438
40
1
100
AcDbArc
50
315
51
45
0
LINE
5
100
100
AcDbEntity
8
bottom plate
6
ByLayer
62
256
370
-1
100
AcDbLine
10
221.819805154
20
159.292893219
11
221.819805154
21
159.292893219
0
ARC
5
101
100
AcDbEntity
8
bottom plate
6
ByLayer
62
256
370
-1
100
AcDbCircle
10
221.112698373
20
158.585786438
40
1
100
AcDbArc
50
45
51
135
0
LINE
5
102
100
AcDbEntity
8
bottom plate
6
ByLayer
62
256
370
-1
100
AcDbLine
10
202.121320343
20
138.180194847
11
221.819805155
21
157.878679656
0
ARC
5
103
100
AcDbEntity
8
bottom plate
6
ByLayer
62
256
370
-1
100
AcDbCircle
10
201.414213562
20
138.887301628
40
1
100
AcDbArc
50
225
51
315
0
LINE
5
104
100
AcDbEntity
8
bottom plate
6
ByLayer
62
256
370
-1
100
AcDbLine
10
200.707106782
20
138.180194847
11
200.707106782
21
138.180194847
0
LINE
5
105
100
AcDbEntity
8
bottom plate
6
ByLayer
62
256
370
-1
100
AcDbLine
10
200.707106781
20
139.594408409
11
220.405591592
21
159.292893219
0
ARC
5
106
100
AcDbEntity
8
bottom plate
6
ByLayer
62
256
370
-1
100
AcDbCircle
10
201.414213562
20
138.887301628
40
1
100
AcDbArc
50
135
51
225
0
LINE
5
107
100
AcDbEntity
8
bottom plate
6
ByLayer
62
256
370
-1
100
AcDbLine
10
202.12132117
20
128.180195672
11
231.819805153
21
157.878679656
0
LINE
5
108
100
AcDbEntity
8
bottom plate
6
ByLayer
62
256
370
-1
100
AcDbLine
10
200.707106869
20
129.594408496
11
230.405591592
21
159.292893219
0
ARC
5
109
100
AcDbEntity
8
bottom plate
6
ByLayer
62
256
370
-1
100
AcDbCircle
10
201.414213562
20
181.213203436
40
1
100
AcDbArc
50
45
51
135
0
LINE
5
10A
100
AcDbEntity
8
bottom plate
6
ByLayer
62
256
370
-1
100
AcDbLine
10
200.707106781
20
181.920310217
11
200.707106781
21
181.920310217
0
ARC
5
10B
100
AcDbEntity
8
bottom plate
6
ByLayer
62
256
370
-1
100
AcDbCircle
10
201.414213562
20
181.213203436
40
1
100
AcDbArc
50
135
51
225
0
LINE
5
10C
100
AcDbEntity
8
bottom plate
6
ByLayer
62
256
370
-1
100
AcDbLine
10
211.920310217
20
172.121320344
11
202.121320343
21
181.920310217
0
ARC
5
10D
100
AcDbEntity
8
bottom plate
6
ByLayer
62
256
370
-1
100
AcDbCircle
10
211.213203436
20
171.414213562
40
1
100
AcDbArc
50
315
51
45
0
LINE
5
10E
100
AcDbEntity
8
bottom plate
6
ByLayer
62
256
370
-1
100
AcDbLine
10
211.920310217
20
170.707106781
11
211.920310217
21
170.707106781
0
LINE
5
10F
100
AcDbEntity
8
bottom plate
6
ByLayer
62
256
370
-1
100
AcDbLine
10
210.506096654
20
170.707106781
11
200.707106781
21
180.506096655
0
ARC
5
110
100
AcDbEntity
8
bottom plate
6
ByLayer
62
256
370
-1
100
AcDbCircle
10
211.213203436
20
171.414213562
40
1
100
AcDbArc
50
225
51
315
0
ARC
5
111
100
AcDbEntity
8
bottom plate
6
ByLayer
62
256
370
-1
100
AcDbCircle
10
201.414213562
20
201.112698372
40
1
100
AcDbArc
50
45
51
135
0
ARC
5
112
100
AcDbEntity
8
bottom plate
6
ByLayer
62
256
370
-1
100
AcDbCircle
10
201.414213562
20
201.112698372
40
1
100
AcDbArc
50
135
51
225
0
ARC
5
113
100
AcDbEntity
8
bottom plate
6
ByLayer
62
256
370
-1
100
AcDbCircle
10
231.112698372
20
171.414213562
40
1
100
AcDbArc
50
315
51
45
0
ARC
5
114
100
AcDbEntity
8
bottom plate
6
ByLayer
62
256
370
-1
100
AcDbCircle
10
231.112698372
20
171.414213562
40
1
100
AcDbArc
50
225
51
315
0
ARC
5
115
100
AcDbEntity
8
bottom plate
6
ByLayer
62
256
370
-1
100
AcDbCircle
10
201.414213562
20
191.112698373
40
1
100
AcDbArc
50
45
51
135
0
LINE
5
116
100
AcDbEntity
8
bottom plate
6
ByLayer
62
256
370
-1
100
AcDbLine
10
200.707106781
20
191.819805154
11
200.707106781
21
191.819805154
0
ARC
5
117
100
AcDbEntity
8
bottom plate
6
ByLayer
62
256
370
-1
100
AcDbCircle
10
201.414213562
20
191.112698373
40
1
100
AcDbArc
50
135
51
225
0
LINE
5
118
100
AcDbEntity
8
bottom plate
6
ByLayer
62
256
370
-1
100
AcDbLine
10
221.819805153
20
172.121320343
11
202.121320344
21
191.819805155
0
ARC
5
119
100
AcDbEntity
8
bottom plate
6
ByLayer
62
256
370
-1
100
AcDbCircle
10
221.112698372
20
171.414213562
40
1
100
AcDbArc
50
315
51
45
0
LINE
5
11A
100
AcDbEntity
8
bottom plate
6
ByLayer
62
256
370
-1
100
AcDbLine
10
221.819805153
20
170.707106782
11
221.819805153
21
170.707106782
0
LINE
5
11B
100
AcDbEntity
8
bottom plate
6
ByLayer
62
256
370
-1
100
AcDbLine
10
220.405591591
20
170.707106781
11
200.707106781
21
190.405591592
0
ARC
5
11C
100
AcDbEntity
8
bottom plate
6
ByLayer
62
256
370
-1
100
AcDbCircle
10
221.112698372
20
171.414213562
40
1
100
AcDbArc
50
225
51
315
0
LINE
5
11D
100
AcDbEntity
8
bottom plate
6
ByLayer
62
256
370
-1
100
AcDbLine
10
231.819804328
20
172.12132117
11
202.121320344
21
201.819805153
0
LINE
5
11E
100
AcDbEntity
8
bottom plate
6
ByLayer
62
256
370
-1
100
AcDbLine
10
230.405591504
20
170.707106869
11
200.707106781
21
200.405591592
0
ARC
5
11F
100
AcDbEntity
8
bottom plate
6
ByLayer
62
256
370
-1
100
AcDbCircle
10
178.786796564
20
171.414213562
40
1
100
AcDbArc
50
135
51
225
0
LINE
5
120
100
AcDbEntity
8
bottom plate
6
ByLayer
62
256
370
-1
100
AcDbLine
10
178.079689783
20
170.707106781
11
178.079689783
21
170.707106781
0
ARC
5
121
100
AcDbEntity
8
bottom plate
6
ByLayer
62
256
370
-1
100
AcDbCircle
10
178.786796564
20
171.414213562
40
1
100
AcDbArc
50
225
51
315
0
LINE
5
122
100
AcDbEntity
8
bottom plate
6
ByLayer
62
256
370
-1
100
AcDbLine
10
187.878679656
20
181.920310217
11
178.079689783
21
172.121320343
0
ARC
5
123
100
AcDbEntity
8
bottom plate
6
ByLayer
62
256
370
-1
100
AcDbCircle
10
188.585786438
20
181.213203435
40
1
100
AcDbArc
50
45
51
135
0
LINE
5
124
100
AcDbEntity
8
bottom plate
6
ByLayer
62
256
370
-1
100
AcDbLine
10
189.292893219
20
181.920310217
11
189.292893219
21
181.920310217
0
LINE
5
125
100
AcDbEntity
8
bottom plate
6
ByLayer
62
256
370
-1
100
AcDbLine
10
189.292893219
20
180.506096654
11
179.493903345
21
170.707106781
0
ARC
5
126
100
AcDbEntity
8
bottom plate
6
ByLayer
62
256
370
-1
100
AcDbCircle
10
188.585786438
20
181.213203435
40
1
100
AcDbArc
50
315
51
45
0
ARC
5
127
100
AcDbEntity
8
bottom plate
6
ByLayer
62
256
370
-1
100
AcDbCircle
10
158.887301628
20
171.414213562
40
1
100
AcDbArc
50
135
51
225
0
ARC
5
128
100
AcDbEntity
8
bottom plate
6
ByLayer
62
256
370
-1
100
AcDbCircle
10
158.887301628
20
171.414213562
40
1
100
AcDbArc
50
225
51
315
0
ARC
5
129
100
AcDbEntity
8
bottom plate
6
ByLayer
62
256
370
-1
100
AcDbCircle
10
188.585786438
20
201.112698372
40
1
100
AcDbArc
50
45
51
135
0
ARC
5
12A
100
AcDbEntity
8
bottom plate
6
ByLayer
62
256
370
-1
100
AcDbCircle
10
188.585786438
20
201.112698372
40
1
100
AcDbArc
50
315
51
45
0
ARC
5
12B
100
AcDbEntity
8
bottom plate
6
ByLayer
62
256
370
-1
100
AcDbCircle
10
168.887301627
20
171.414213562
40
1
100
AcDbArc
50
135
51
225
0
LINE
5
12C
100
AcDbEntity
8
bottom plate
6
ByLayer
62
256
370
-1
100
AcDbLine
10
168.180194846
20
170.707106781
11
168.180194846
21
170.707106781
0
ARC
5
12D
100
AcDbEntity
8
bottom plate
6
ByLayer
62
256
370
-1
100
AcDbCircle
10
168.887301627
20
171.414213562
40
1
100
AcDbArc
50
225
51
315
0
LINE
5
12E
100
AcDbEntity
8
bottom plate
6
ByLayer
62
256
370
-1
100
AcDbLine
10
187.878679657
20
191.819805153
11
168.180194845
21
172.121320344
0
ARC
5
12F
100
AcDbEntity
8
bottom plate
6
ByLayer
62
256
370
-1
100
AcDbCircle
10
188.585786438
20
191.112698372
40
1
100
AcDbArc
50
45
51
135
0
LINE
5
130
100
AcDbEntity
8
bottom plate
6
ByLayer
62
256
370
-1
100
AcDbLine
10
189.292893218
20
191.819805153
11
189.292893218
21
191.819805153
0
LINE
5
131
100
AcDbEntity
8
bottom plate
6
ByLayer
62
256
370
-1
100
AcDbLine
10
189.292893219
20
190.405591591
11
169.594408408
21
170.707106781
0
ARC
5
132
100
AcDbEntity
8
bottom plate
6
ByLayer
62
256
370
-1
100
AcDbCircle
10
188.585786438
20
191.112698372
40
1
100
AcDbArc
50
315
51
45
0
LINE
5
133
100
AcDbEntity
8
bottom plate
6
ByLayer
62
256
370
-1
100
AcDbLine
10
187.87867883
20
201.819804328
11
158.180194847
21
172.121320344
0
LINE
5
134
100
AcDbEntity
8
bottom plate
6
ByLayer
62
256
370
-1
100
AcDbLine
10
189.292893131
20
200.405591504
11
159.594408408
21
170.707106781
0
CIRCLE
5
135
100
AcDbEntity
8
top plate
6
ByLayer
62
256
370
-1
100
AcDbCircle
10
60
20
196.819805153
40
1.5
0
CIRCLE
5
136
100
AcDbEntity
8
top plate
6
ByLayer
62
256
370
-1
100
AcDbCircle
10
91.819805153
20
165
40
1.5
0
CIRCLE
5
137
100
AcDbEntity
8
top plate
6
ByLayer
62
256
370
-1
100
AcDbCircle
10
60
20
133.180194847
40
1.5
0
CIRCLE
5
138
100
AcDbEntity
8
top plate
6
ByLayer
62
256
370
-1
100
AcDbCircle
10
28.1801948466
20
165
40
1.5
0
LINE
5
139
100
AcDbEntity
8
top plate
6
ByLayer
62
256
370
-1
100
AcDbLine
10
8
20
163.5
11
8
21
166.5
0
LINE
5
13A
100
AcDbEntity
8
top plate
6
ByLayer
62
256
370
-1
100
AcDbLine
10
8
20
166.5
11
25.530194847
21
166.5
0
LINE
5
13B
100
AcDbEntity
8
top plate
6
ByLayer
62
256
370
-1
100
AcDbLine
10
8
20
163.5
11
25.530194847
21
163.5
0
LINE
5
13C
100
AcDbEntity
8
top plate
6
ByLayer
62
256
370
-1
100
AcDbLine
10
25.530194847
20
163.5
11
25.530194847
21
166.5
0
LINE
5
13D
100
AcDbEntity
8
top plate
6
ByLayer
62
256
370
-1
100
AcDbLine
10
50
20
163.5
11
50
21
166.5
0
LINE
5
13E
100
AcDbEntity
8
top plate
6
ByLayer
62
256
370
-1
100
AcDbLine
10
30.830194847
20
163.5
11
30.830194847
21
166.5
0
LINE
5
13F
100
AcDbEntity
8
top plate
6
ByLayer
62
256
370
-1
100
AcDbLine
10
30.830194847
20
166.5
11
50
21
166.5
0
LINE
5
140
100
AcDbEntity
8
top plate
6
ByLayer
62
256
370
-1
100
AcDbLine
10
30.830194847
20
163.5
11
50
21
163.5
0
ARC
5
141
100
AcDbEntity
8
top plate
6
ByLayer
62
256
370
-1
100
AcDbCircle
10
18.0883117545
20
174
40
3
100
AcDbArc
50
135
51
270
0
ARC
5
142
100
AcDbEntity
8
top plate
6
ByLayer
62
256
370
-1
100
AcDbCircle
10
51
20
206.911688245
40
3
100
AcDbArc
50
0
51
135
0
ARC
5
143
100
AcDbEntity
8
top plate
6
ByLayer
62
256
370
-1
100
AcDbCircle
10
8
20
172.39696962
40
3
100
AcDbArc
50
135
51
180
0
LINE
5
144
100
AcDbEntity
8
top plate
6
ByLayer
62
256
370
-1
100
AcDbLine
10
50.4817100367
20
219.121320344
11
5.8786796564
21
174.518289963
0
ARC
5
145
100
AcDbEntity
8
top plate
6
ByLayer
62
256
370
-1
100
AcDbCircle
10
52.6030303802
20
217
40
3
100
AcDbArc
50
90
51
135
0
LINE
5
146
100
AcDbEntity
8
top plate
6
ByLayer
62
256
370
-1
100
AcDbLine
10
52.6030303802
20
220
11
67.39696962
21
220
0
ARC
5
147
100
AcDbEntity
8
top plate
6
ByLayer
62
256
370
-1
100
AcDbCircle
10
67.39696962
20
217
40
3
100
AcDbArc
50
45
51
90
0
LINE
5
148
100
AcDbEntity
8
top plate
6
ByLayer
62
256
370
-1
100
AcDbLine
10
69.5182899635
20
219.121320344
11
114.121320344
21
174.518289963
0
ARC
5
149
100
AcDbEntity
8
top plate
6
ByLayer
62
256
370
-1
100
AcDbCircle
10
112
20
172.39696962
40
3
100
AcDbArc
50
0
51
45
0
LINE
5
14A
100
AcDbEntity
8
top plate
6
ByLayer
62
256
370
-1
100
AcDbLine
10
115
20
172.39696962
11
115
21
157.60303038
0
ARC
5
14B
100
AcDbEntity
8
top plate
6
ByLayer
62
256
370
-1
100
AcDbCircle
10
112
20
157.60303038
40
3
100
AcDbArc
50
315
51
0
0
LINE
5
14C
100
AcDbEntity
8
top plate
6
ByLayer
62
256
370
-1
100
AcDbLine
10
5
20
157.60303038
11
5
21
172.39696962
0
ARC
5
14D
100
AcDbEntity
8
top plate
6
ByLayer
62
256
370
-1
100
AcDbCircle
10
8
20
157.60303038
40
3
100
AcDbArc
50
180
51
225
0
LINE
5
14E
100
AcDbEntity
8
top plate
6
ByLayer
62
256
370
-1
100
AcDbLine
10
5.8786796564
20
155.481710037
11
50.4817100368
21
110.878679656
0
ARC
5
14F
100
AcDbEntity
8
top plate
6
ByLayer
62
256
370
-1
100
AcDbCircle
10
52.6030303804
20
113
40
3
100
AcDbArc
50
225
51
270
0
LINE
5
150
100
AcDbEntity
8
top plate
6
ByLayer
62
256
370
-1
100
AcDbLine
10
67.3969696197
20
110
11
52.6030303804
21
110
0
LINE
5
151
100
AcDbEntity
8
top plate
6
ByLayer
62
256
370
-1
100
AcDbLine
10
69.5182899633
20
110.878679656
11
114.121320344
21
155.481710037
0
ARC
5
152
100
AcDbEntity
8
top plate
6
ByLayer
62
256
370
-1
100
AcDbCircle
10
67.3969696197
20
113
40
3
100
AcDbArc
50
270
51
315
0
LINE
5
153
100
AcDbEntity
8
top plate
6
ByLayer
62
256
370
-1
100
AcDbLine
10
61.5
20
113
11
58.5
21
113
0
LINE
5
154
100
AcDbEntity
8
top plate
6
ByLayer
62
256
370
-1
100
AcDbLine
10
58.5
20
113
11
58.5
21
130.530194847
0
LINE
5
155
100
AcDbEntity
8
top plate
6
ByLayer
62
256
370
-1
100
AcDbLine
10
61.5
20
113
11
61.5
21
130.530194847
0
LINE
5
156
100
AcDbEntity
8
top plate
6
ByLayer
62
256
370
-1
100
AcDbLine
10
61.5
20
130.530194847
11
58.5
21
130.530194847
0
LINE
5
157
100
AcDbEntity
8
top plate
6
ByLayer
62
256
370
-1
100
AcDbLine
10
61.5
20
155
11
58.5
21
155
0
LINE
5
158
100
AcDbEntity
8
top plate
6
ByLayer
62
256
370
-1
100
AcDbLine
10
61.5
20
135.830194847
11
58.5
21
135.830194847
0
LINE
5
159
100
AcDbEntity
8
top plate
6
ByLayer
62
256
370
-1
100
AcDbLine
10
58.5
20
135.830194847
11
58.5
21
155
0
LINE
5
15A
100
AcDbEntity
8
top plate
6
ByLayer
62
256
370
-1
100
AcDbLine
10
61.5
20
135.830194847
11
61.5
21
155
0
LINE
5
15B
100
AcDbEntity
8
top plate
6
ByLayer
62
256
370
-1
100
AcDbLine
10
112
20
166.5
11
112
21
163.5
0
LINE
5
15C
100
AcDbEntity
8
top plate
6
ByLayer
62
256
370
-1
100
AcDbLine
10
112
20
163.5
11
94.469805153
21
163.5
0
LINE
5
15D
100
AcDbEntity
8
top plate
6
ByLayer
62
256
370
-1
100
AcDbLine
10
112
20
166.5
11
94.469805153
21
166.5
0
LINE
5
15E
100
AcDbEntity
8
top plate
6
ByLayer
62
256
370
-1
100
AcDbLine
10
94.469805153
20
166.5
11
94.469805153
21
163.5
0
LINE
5
15F
100
AcDbEntity
8
top plate
6
ByLayer
62
256
370
-1
100
AcDbLine
10
70
20
166.5
11
70
21
163.5
0
LINE
5
160
100
AcDbEntity
8
top plate
6
ByLayer
62
256
370
-1
100
AcDbLine
10
89.169805153
20
166.5
11
89.169805153
21
163.5
0
LINE
5
161
100
AcDbEntity
8
top plate
6
ByLayer
62
256
370
-1
100
AcDbLine
10
89.169805153
20
163.5
11
70
21
163.5
0
LINE
5
162
100
AcDbEntity
8
top plate
6
ByLayer
62
256
370
-1
100
AcDbLine
10
89.169805153
20
166.5
11
70
21
166.5
0
LINE
5
163
100
AcDbEntity
8
top plate
6
ByLayer
62
256
370
-1
100
AcDbLine
10
58.5
20
217
11
61.5
21
217
0
LINE
5
164
100
AcDbEntity
8
top plate
6
ByLayer
62
256
370
-1
100
AcDbLine
10
61.5
20
217
11
61.5
21
199.469805153
0
LINE
5
165
100
AcDbEntity
8
top plate
6
ByLayer
62
256
370
-1
100
AcDbLine
10
58.5
20
217
11
58.5
21
199.469805153
0
LINE
5
166
100
AcDbEntity
8
top plate
6
ByLayer
62
256
370
-1
100
AcDbLine
10
58.5
20
199.469805153
11
61.5
21
199.469805153
0
LINE
5
167
100
AcDbEntity
8
top plate
6
ByLayer
62
256
370
-1
100
AcDbLine
10
58.5
20
175
11
61.5
21
175
0
LINE
5
168
100
AcDbEntity
8
top plate
6
ByLayer
62
256
370
-1
100
AcDbLine
10
58.5
20
194.169805153
11
61.5
21
194.169805153
0
LINE
5
169
100
AcDbEntity
8
top plate
6
ByLayer
62
256
370
-1
100
AcDbLine
10
61.5
20
194.169805153
11
61.5
21
175
0
LINE
5
16A
100
AcDbEntity
8
top plate
6
ByLayer
62
256
370
-1
100
AcDbLine
10
58.5
20
194.169805153
11
58.5
21
175
0
LINE
5
16B
100
AcDbEntity
8
frame
6
ByLayer
62
256
370
-1
100
AcDbLine
10
45.3499999999
20
31.000000001
11
45.3499999999
21
27.000000001
0
LINE
5
16C
100
AcDbEntity
8
frame
6
ByLayer
62
256
370
-1
100
AcDbLine
10
50.6499999999
20
31.000000001
11
50.6499999999
21
27.000000001
0
LINE
5
16D
100
AcDbEntity
8
frame
6
ByLayer
62
256
370
-1
100
AcDbLine
10
49.4499999999
20
31.000000001
11
50.6499999999
21
31.000000001
0
LINE
5
16E
100
AcDbEntity
8
frame
6
ByLayer
62
256
370
-1
100
AcDbLine
10
45.3499999999
20
31.000000001
11
46.5499999999
21
31.000000001
0
LINE
5
16F
100
AcDbEntity
8
frame
6
ByLayer
62
256
370
-1
100
AcDbLine
10
45.3499999999
20
27.000000001
11
50.6499999999
21
27.000000001
0
LINE
5
170
100
AcDbEntity
8
frame
6
ByLayer
62
256
370
-1
100
AcDbLine
10
46.5499999999
20
35.000000001
11
46.5499999999
21
31.000000001
0
LINE
5
171
100
AcDbEntity
8
frame
6
ByLayer
62
256
370
-1
100
AcDbLine
10
49.4499999999
20
35.000000001
11
49.4499999999
21
31.000000001
0
LINE
5
172
100
AcDbEntity
8
frame
6
ByLayer
62
256
370
-1
100
AcDbLine
10
44.9999999999
20
35.000000001
11
46.5499999999
21
35.000000001
0
LINE
5
173
100
AcDbEntity
8
frame
6
ByLayer
62
256
370
-1
100
AcDbLine
10
49.4499999999
20
35.000000001
11
50.9999999999
21
35.000000001
0
LINE
5
174
100
AcDbEntity
8
frame
6
ByLayer
62
256
370
-1
100
AcDbLine
10
35.9999999999
20
35.000000001
11
14.0000000001
21
34.999999999
0
ARC
5
175
100
AcDbEntity
8
frame
6
ByLayer
62
256
370
-1
100
AcDbCircle
10
41.1990521384
20
139.175355442
40
104.635382448
100
AcDbArc
50
275.374638444
51
291.766230322
0
LINE
5
176
100
AcDbEntity
8
frame
6
ByLayer
62
256
370
-1
100
AcDbLine
10
86
20
47.8
11
92
21
47.8
0
LINE
5
177
100
AcDbEntity
8
frame
6
ByLayer
62
256
370
-1
100
AcDbLine
10
86
20
44.3
11
92
21
44.3
0
LINE
5
178
100
AcDbEntity
8
frame
6
ByLayer
62
256
370
-1
100
AcDbLine
10
86
20
44.3
11
86
21
47.8
0
LINE
5
179
100
AcDbEntity
8
frame
6
ByLayer
62
256
370
-1
100
AcDbLine
10
92
20
44.3
11
92
21
47.8
0
LINE
5
17A
100
AcDbEntity
8
frame
6
ByLayer
62
256
370
-1
100
AcDbLine
10
83
20
42
11
83
21
47.8
0
ARC
5
17B
100
AcDbEntity
8
frame
6
ByLayer
62
256
370
-1
100
AcDbCircle
10
86
20
47.8
40
3
100
AcDbArc
50
90
51
180
0
LINE
5
17C
100
AcDbEntity
8
frame
6
ByLayer
62
256
370
-1
100
AcDbLine
10
86
20
50.8
11
92
21
50.8
0
ARC
5
17D
100
AcDbEntity
8
frame
6
ByLayer
62
256
370
-1
100
AcDbCircle
10
92
20
47.8
40
3
100
AcDbArc
50
0
51
90
0
LINE
5
17E
100
AcDbEntity
8
frame
6
ByLayer
62
256
370
-1
100
AcDbLine
10
95
20
45
11
95
21
47.8
0
LINE
5
17F
100
AcDbEntity
8
frame
6
ByLayer
62
256
370
-1
100
AcDbLine
10
100.530194847
20
39
11
105.830194847
21
39
0
LINE
5
180
100
AcDbEntity
8
frame
6
ByLayer
62
256
370
-1
100
AcDbLine
10
100.530194847
20
45
11
100.530194847
21
39
0
LINE
5
181
100
AcDbEntity
8
frame
6
ByLayer
62
256
370
-1
100
AcDbLine
10
105.830194847
20
45
11
105.830194847
21
39
0
LINE
5
182
100
AcDbEntity
8
frame
6
ByLayer
62
256
370
-1
100
AcDbLine
10
125
20
45
11
125
21
42
0
LINE
5
183
100
AcDbEntity
8
frame
6
ByLayer
62
256
370
-1
100
AcDbLine
10
95
20
45
11
100.530194847
21
45
0
LINE
5
184
100
AcDbEntity
8
frame
6
ByLayer
62
256
370
-1
100
AcDbLine
10
105.830194847
20
45
11
125
21
45
0
LINE
5
185
100
AcDbEntity
8
frame
6
ByLayer
62
256
370
-1
100
AcDbLine
10
80
20
42
11
83
21
42
0
LINE
5
186
100
AcDbEntity
8
frame
6
ByLayer
62
256
370
-1
100
AcDbLine
10
35.9999999996
20
38.050000001
11
43.9999999996
21
38.050000001
0
ARC
5
187
100
AcDbEntity
8
frame
6
ByLayer
62
256
370
-1
100
AcDbCircle
10
43.9999999996
20
37.050000001
40
1
100
AcDbArc
50
0
51
90
0
LINE
5
188
100
AcDbEntity
8
frame
6
ByLayer
62
256
370
-1
100
AcDbLine
10
35.9999999999
20
38.050000001
11
35.9999999999
21
35
0
LINE
5
189
100
AcDbEntity
8
frame
6
ByLayer
62
256
370
-1
100
AcDbLine
10
44.9999999999
20
37.049976447
11
44.9999999999
21
35.000000001
0
LINE
5
18A
100
AcDbEntity
8
frame
6
ByLayer
62
256
370
-1
100
AcDbLine
10
4
20
38.06780351
11
4
21
39.36780351
0
ARC
5
18B
100
AcDbEntity
8
frame
6
ByLayer
62
256
370
-1
100
AcDbCircle
10
7
20
39.36780351
40
3
100
AcDbArc
50
90
51
180.000000001
0
LINE
5
18C
100
AcDbEntity
8
frame
6
ByLayer
62
256
370
-1
100
AcDbLine
10
7
20
42.36780351
11
11
21
42.36780351
0
ARC
5
18D
100
AcDbEntity
8
frame
6
ByLayer
62
256
370
-1
100
AcDbCircle
10
11
20
39.36780351
40
3
100
AcDbArc
50
1.30384930834e-09
51
90
0
LINE
5
18E
100
AcDbEntity
8
frame
6
ByLayer
62
256
370
-1
100
AcDbLine
10
9.0000000001
20
34.999999999
11
9
21
38.050000001
0
LINE
5
18F
100
AcDbEntity
8
frame
6
ByLayer
62
256
370
-1
100
AcDbLine
10
14
20
39.36780351
11
14.0000000001
21
34.999999999
0
LINE
5
190
100
AcDbEntity
8
frame
6
ByLayer
62
256
370
-1
100
AcDbLine
10
9
20
38.050000001
11
4
21
38.050000001
0
LINE
5
191
100
AcDbEntity
8
frame
6
ByLayer
62
256
370
-1
100
AcDbLine
10
133.5
20
36
11
136.5
21
36
0
LINE
5
192
100
AcDbEntity
8
frame
6
ByLayer
62
256
370
-1
100
AcDbLine
10
100.5
20
7.7
11
94.5
21
7.7
0
LINE
5
193
100
AcDbEntity
8
frame
6
ByLayer
62
256
370
-1
100
AcDbLine
10
100.5
20
4.2
11
94.5
21
4.2
0
LINE
5
194
100
AcDbEntity
8
frame
6
ByLayer
62
256
370
-1
100
AcDbLine
10
94.5
20
4.2
11
94.5
21
7.7
0
LINE
5
195
100
AcDbEntity
8
frame
6
ByLayer
62
256
370
-1
100
AcDbLine
10
100.5
20
4.2
11
100.5
21
7.7
0
LINE
5
196
100
AcDbEntity
8
frame
6
ByLayer
62
256
370
-1
100
AcDbLine
10
104
20
10
11
108
21
10
0
LINE
5
197
100
AcDbEntity
8
frame
6
ByLayer
62
256
370
-1
100
AcDbLine
10
108
20
30
11
108
21
10
0
LINE
5
198
100
AcDbEntity
8
frame
6
ByLayer
62
256
370
-1
100
AcDbLine
10
20
20
0
11
14.25
21
0
0
ARC
5
199
100
AcDbEntity
8
frame
6
ByLayer
62
256
370
-1
100
AcDbCircle
10
131.053571427
20
35.414285714
40
122.054274529
100
AcDbArc
50
180.194477978
51
196.867053242
0
ARC
5
19A
100
AcDbEntity
8
frame
6
ByLayer
62
256
370
-1
100
AcDbCircle
10
56.875
20
-13.75
40
39.3551537286
100
AcDbArc
50
130.892727213
51
159.550452389
0
LINE
5
19B
100
AcDbEntity
8
frame
6
ByLayer
62
256
370
-1
100
AcDbLine
10
87
20
10
11
91
21
10
0
LINE
5
19C
100
AcDbEntity
8
frame
6
ByLayer
62
256
370
-1
100
AcDbLine
10
31.1113507049
20
16
11
83.075916036
21
16
0
ARC
5
19D
100
AcDbEntity
8
frame
6
ByLayer
62
256
370
-1
100
AcDbCircle
10
72.5
20
4.8
40
15.404220201
100
AcDbArc
50
19.7288839883
51
46.6416114058
0
LINE
5
19E
100
AcDbEntity
8
frame
6
ByLayer
62
256
370
-1
100
AcDbLine
10
91
20
3
11
91
21
10
0
ARC
5
19F
100
AcDbEntity
8
frame
6
ByLayer
62
256
370
-1
100
AcDbCircle
10
94
20
3
40
3
100
AcDbArc
50
180
51
270
0
LINE
5
1A0
100
AcDbEntity
8
frame
6
ByLayer
62
256
370
-1
100
AcDbLine
10
94
20
0
11
101
21
0
0
LINE
5
1A1
100
AcDbEntity
8
frame
6
ByLayer
62
256
370
-1
100
AcDbLine
10
104
20
10
11
104
21
3
0
ARC
5
1A2
100
AcDbEntity
8
frame
6
ByLayer
62
256
370
-1
100
AcDbCircle
10
101
20
3
40
3
100
AcDbArc
50
270
51
0
0
LINE
5
1A3
100
AcDbEntity
8
frame
6
ByLayer
62
256
370
-1
100
AcDbLine
10
224.65
20
31.000000001
11
224.65
21
27.000000001
0
LINE
5
1A4
100
AcDbEntity
8
frame
6
ByLayer
62
256
370
-1
100
AcDbLine
10
219.35
20
31.000000001
11
219.35
21
27.000000001
0
LINE
5
1A5
100
AcDbEntity
8
frame
6
ByLayer
62
256
370
-1
100
AcDbLine
10
220.55
20
31.000000001
11
219.35
21
31.000000001
0
LINE
5
1A6
100
AcDbEntity
8
frame
6
ByLayer
62
256
370
-1
100
AcDbLine
10
224.65
20
31.000000001
11
223.45
21
31.000000001
0
LINE
5
1A7
100
AcDbEntity
8
frame
6
ByLayer
62
256
370
-1
100
AcDbLine
10
224.65
20
27.000000001
11
219.35
21
27.000000001
0
LINE
5
1A8
100
AcDbEntity
8
frame
6
ByLayer
62
256
370
-1
100
AcDbLine
10
223.45
20
35.000000001
11
223.45
21
31.000000001
0
LINE
5
1A9
100
AcDbEntity
8
frame
6
ByLayer
62
256
370
-1
100
AcDbLine
10
220.55
20
35.000000001
11
220.55
21
31.000000001
0
LINE
5
1AA
100
AcDbEntity
8
frame
6
ByLayer
62
256
370
-1
100
AcDbLine
10
225
20
35.000000001
11
223.45
21
35.000000001
0
LINE
5
1AB
100
AcDbEntity
8
frame
6
ByLayer
62
256
370
-1
100
AcDbLine
10
220.55
20
35.000000001
11
219
21
35.000000001
0
LINE
5
1AC
100
AcDbEntity
8
frame
6
ByLayer
62
256
370
-1
100
AcDbLine
10
234
20
35.000000001
11
256
21
34.999999999
0
ARC
5
1AD
100
AcDbEntity
8
frame
6
ByLayer
62
256
370
-1
100
AcDbCircle
10
228.800947862
20
139.175355442
40
104.635382448
100
AcDbArc
50
248.233769678
51
264.625361556
0
LINE
5
1AE
100
AcDbEntity
8
frame
6
ByLayer
62
256
370
-1
100
AcDbLine
10
184
20
47.8
11
178
21
47.8
0
LINE
5
1AF
100
AcDbEntity
8
frame
6
ByLayer
62
256
370
-1
100
AcDbLine
10
184
20
44.3
11
178
21
44.3
0
LINE
5
1B0
100
AcDbEntity
8
frame
6
ByLayer
62
256
370
-1
100
AcDbLine
10
184
20
44.3
11
184
21
47.8
0
LINE
5
1B1
100
AcDbEntity
8
frame
6
ByLayer
62
256
370
-1
100
AcDbLine
10
178
20
44.3
11
178
21
47.8
0
LINE
5
1B2
100
AcDbEntity
8
frame
6
ByLayer
62
256
370
-1
100
AcDbLine
10
187
20
42
11
187
21
47.8
0
ARC
5
1B3
100
AcDbEntity
8
frame
6
ByLayer
62
256
370
-1
100
AcDbCircle
10
184
20
47.8
40
3
100
AcDbArc
50
0
51
90
0
LINE
5
1B4
100
AcDbEntity
8
frame
6
ByLayer
62
256
370
-1
100
AcDbLine
10
184
20
50.8
11
178
21
50.8
0
ARC
5
1B5
100
AcDbEntity
8
frame
6
ByLayer
62
256
370
-1
100
AcDbCircle
10
178
20
47.8
40
3
100
AcDbArc
50
90
51
180
0
LINE
5
1B6
100
AcDbEntity
8
frame
6
ByLayer
62
256
370
-1
100
AcDbLine
10
175
20
45
11
175
21
47.8
0
LINE
5
1B7
100
AcDbEntity
8
frame
6
ByLayer
62
256
370
-1
100
AcDbLine
10
169.469805153
20
39
11
164.169805153
21
39
0
LINE
5
1B8
100
AcDbEntity
8
frame
6
ByLayer
62
256
370
-1
100
AcDbLine
10
169.469805153
20
45
11
169.469805153
21
39
0
LINE
5
1B9
100
AcDbEntity
8
frame
6
ByLayer
62
256
370
-1
100
AcDbLine
10
164.169805153
20
45
11
164.169805153
21
39
0
LINE
5
1BA
100
AcDbEntity
8
frame
6
ByLayer
62
256
370
-1
100
AcDbLine
10
145
20
45
11
145
21
42
0
LINE
5
1BB
100
AcDbEntity
8
frame
6
ByLayer
62
256
370
-1
100
AcDbLine
10
175
20
45
11
169.469805153
21
45
0
LINE
5
1BC
100
AcDbEntity
8
frame
6
ByLayer
62
256
370
-1
100
AcDbLine
10
164.169805153
20
45
11
145
21
45
0
LINE
5
1BD
100
AcDbEntity
8
frame
6
ByLayer
62
256
370
-1
100
AcDbLine
10
190
20
42
11
187
21
42
0
LINE
5
1BE
100
AcDbEntity
8
frame
6
ByLayer
62
256
370
-1
100
AcDbLine
10
234
20
38.050000001
11
226
21
38.050000001
0
ARC
5
1BF
100
AcDbEntity
8
frame
6
ByLayer
62
256
370
-1
100
AcDbCircle
10
226
20
37.050000001
40
1
100
AcDbArc
50
90
51
180
0
LINE
5
1C0
100
AcDbEntity
8
frame
6
ByLayer
62
256
370
-1
100
AcDbLine
10
234
20
38.050000001
11
234
21
35
0
LINE
5
1C1
100
AcDbEntity
8
frame
6
ByLayer
62
256
370
-1
100
AcDbLine
10
225
20
37.049976447
11
225
21
35.000000001
0
LINE
5
1C2
100
AcDbEntity
8
frame
6
ByLayer
62
256
370
-1
100
AcDbLine
10
266
20
38.06780351
11
266
21
39.36780351
0
ARC
5
1C3
100
AcDbEntity
8
frame
6
ByLayer
62
256
370
-1
100
AcDbCircle
10
263
20
39.36780351
40
3
100
AcDbArc
50
359.999999999
51
90
0
LINE
5
1C4
100
AcDbEntity
8
frame
6
ByLayer
62
256
370
-1
100
AcDbLine
10
263
20
42.36780351
11
259
21
42.36780351
0
ARC
5
1C5
100
AcDbEntity
8
frame
6
ByLayer
62
256
370
-1
100
AcDbCircle
10
259
20
39.36780351
40
3
100
AcDbArc
50
90
51
179.999999999
0
LINE
5
1C6
100
AcDbEntity
8
frame
6
ByLayer
62
256
370
-1
100
AcDbLine
10
261
20
34.999999999
11
261
21
38.050000001
0
LINE
5
1C7
100
AcDbEntity
8
frame
6
ByLayer
62
256
370
-1
100
AcDbLine
10
256
20
39.36780351
11
256
21
34.999999999
0
LINE
5
1C8
100
AcDbEntity
8
frame
6
ByLayer
62
256
370
-1
100
AcDbLine
10
261
20
38.050000001
11
266
21
38.050000001
0
LINE
5
1C9
100
AcDbEntity
8
frame
6
ByLayer
62
256
370
-1
100
AcDbLine
10
169.5
20
7.7
11
175.5
21
7.7
0
LINE
5
1CA
100
AcDbEntity
8
frame
6
ByLayer
62
256
370
-1
100
AcDbLine
10
169.5
20
4.2
11
175.5
21
4.2
0
LINE
5
1CB
100
AcDbEntity
8
frame
6
ByLayer
62
256
370
-1
100
AcDbLine
10
175.5
20
4.2
11
175.5
21
7.7
0
LINE
5
1CC
100
AcDbEntity
8
frame
6
ByLayer
62
256
370
-1
100
AcDbLine
10
169.5
20
4.2
11
169.5
21
7.7
0
LINE
5
1CD
100
AcDbEntity
8
frame
6
ByLayer
62
256
370
-1
100
AcDbLine
10
166
20
10
11
162
21
10
0
LINE
5
1CE
100
AcDbEntity
8
frame
6
ByLayer
62
256
370
-1
100
AcDbLine
10
162
20
30
11
162
21
10
0
LINE
5
1CF
100
AcDbEntity
8
frame
6
ByLayer
62
256
370
-1
100
AcDbLine
10
250
20
0
11
255.75
21
0
0
ARC
5
1D0
100
AcDbEntity
8
frame
6
ByLayer
62
256
370
-1
100
AcDbCircle
10
138.946428573
20
35.414285714
40
122.054274529
100
AcDbArc
50
343.132946758
51
359.805522022
0
ARC
5
1D1
100
AcDbEntity
8
frame
6
ByLayer
62
256
370
-1
100
AcDbCircle
10
213.125
20
-13.75
40
39.3551537286
100
AcDbArc
50
20.4495476108
51
49.1072727867
0
LINE
5
1D2
100
AcDbEntity
8
frame
6
ByLayer
62
256
370
-1
100
AcDbLine
10
183
20
10
11
179
21
10
0
LINE
5
1D3
100
AcDbEntity
8
frame
6
ByLayer
62
256
370
-1
100
AcDbLine
10
238.888649295
20
16
11
186.924083964
21
16
0
ARC
5
1D4
100
AcDbEntity
8
frame
6
ByLayer
62
256
370
-1
100
AcDbCircle
10
197.5
20
4.8
40
15.404220201
100
AcDbArc
50
133.358388594
51
160.271116012
0
LINE
5
1D5
100
AcDbEntity
8
frame
6
ByLayer
62
256
370
-1
100
AcDbLine
10
179
20
3
11
179
21
10
0
ARC
5
1D6
100
AcDbEntity
8
frame
6
ByLayer
62
256
370
-1
100
AcDbCircle
10
176
20
3
40
3
100
AcDbArc
50
270
51
0
0
LINE
5
1D7
100
AcDbEntity
8
frame
6
ByLayer
62
256
370
-1
100
AcDbLine
10
176
20
0
11
169
21
0
0
LINE
5
1D8
100
AcDbEntity
8
frame
6
ByLayer
62
256
370
-1
100
AcDbLine
10
166
20
10
11
166
21
3
0
ARC
5
1D9
100
AcDbEntity
8
frame
6
ByLayer
62
256
370
-1
100
AcDbCircle
10
169
20
3
40
3
100
AcDbArc
50
180
51
270
0
LINE
5
1DA
100
AcDbEntity
8
frame
6
ByLayer
62
256
370
-1
100
AcDbLine
10
125
20
42
11
145
21
42
0
LINE
5
1DB
100
AcDbEntity
8
frame
6
ByLayer
62
256
370
-1
100
AcDbLine
10
108
20
30
11
133.5
21
30
0
LINE
5
1DC
100
AcDbEntity
8
frame
6
ByLayer
62
256
370
-1
100
AcDbLine
10
136.5
20
30
11
162
21
30
0
LINE
5
1DD
100
AcDbEntity
8
frame
6
ByLayer
62
256
370
-1
100
AcDbLine
10
133.5
20
30
11
133.5
21
36
0
LINE
5
1DE
100
AcDbEntity
8
frame
6
ByLayer
62
256
370
-1
100
AcDbLine
10
136.5
20
30
11
136.5
21
36
0
LINE
5
1DF
100
AcDbEntity
8
top plate
6
ByLayer
62
256
370
-1
100
AcDbLine
10
28.1801948465
20
188.334523779
11
15.9669914109
21
176.121320344
0
LINE
5
1E0
100
AcDbEntity
8
top plate
6
ByLayer
62
256
370
-1
100
AcDbLine
10
18.0883117545
20
171
11
45.5147186257
21
171
0
LINE
5
1E1
100
AcDbEntity
8
top plate
6
ByLayer
62
256
370
-1
100
AcDbLine
10
36.6654762208
20
196.819805153
11
48.8786796564
21
209.033008589
0
LINE
5
1E2
100
AcDbEntity
8
top plate
6
ByLayer
62
256
370
-1
100
AcDbLine
10
36.6654762208
20
196.819805153
11
54
21
179.485281374
0
LINE
5
1E3
100
AcDbEntity
8
top plate
6
ByLayer
62
256
370
-1
100
AcDbLine
10
54
20
206.911688245
11
54
21
179.485281374
0
LINE
5
1E4
100
AcDbEntity
8
top plate
6
ByLayer
62
256
370
-1
100
AcDbLine
10
28.1801948465
20
188.334523779
11
45.5147186257
21
171
0
ARC
5
1E5
100
AcDbEntity
8
top plate
6
ByLayer
62
256
370
-1
100
AcDbCircle
10
51
20
123.088311754
40
3
100
AcDbArc
50
225
51
360
0
ARC
5
1E6
100
AcDbEntity
8
top plate
6
ByLayer
62
256
370
-1
100
AcDbCircle
10
18.0883117545
20
156
40
3
100
AcDbArc
50
90
51
225
0
LINE
5
1E7
100
AcDbEntity
8
top plate
6
ByLayer
62
256
370
-1
100
AcDbLine
10
36.6654762208
20
133.180194847
11
48.8786796564
21
120.966991411
0
LINE
5
1E8
100
AcDbEntity
8
top plate
6
ByLayer
62
256
370
-1
100
AcDbLine
10
54
20
123.088311754
11
54
21
150.514718626
0
LINE
5
1E9
100
AcDbEntity
8
top plate
6
ByLayer
62
256
370
-1
100
AcDbLine
10
28.1801948465
20
141.665476221
11
15.9669914109
21
153.878679656
0
LINE
5
1EA
100
AcDbEntity
8
top plate
6
ByLayer
62
256
370
-1
100
AcDbLine
10
28.1801948465
20
141.665476221
11
45.5147186258
21
159
0
LINE
5
1EB
100
AcDbEntity
8
top plate
6
ByLayer
62
256
370
-1
100
AcDbLine
10
18.0883117545
20
159
11
45.5147186258
21
159
0
LINE
5
1EC
100
AcDbEntity
8
top plate
6
ByLayer
62
256
370
-1
100
AcDbLine
10
36.6654762208
20
133.180194847
11
54
21
150.514718626
0
ARC
5
1ED
100
AcDbEntity
8
top plate
6
ByLayer
62
256
370
-1
100
AcDbCircle
10
101.911688246
20
156
40
3
100
AcDbArc
50
315
51
90
0
ARC
5
1EE
100
AcDbEntity
8
top plate
6
ByLayer
62
256
370
-1
100
AcDbCircle
10
69
20
123.088311755
40
3
100
AcDbArc
50
180
51
315
0
LINE
5
1EF
100
AcDbEntity
8
top plate
6
ByLayer
62
256
370
-1
100
AcDbLine
10
91.8198051535
20
141.665476221
11
104.033008589
21
153.878679656
0
LINE
5
1F0
100
AcDbEntity
8
top plate
6
ByLayer
62
256
370
-1
100
AcDbLine
10
101.911688246
20
159
11
74.4852813743
21
159
0
LINE
5
1F1
100
AcDbEntity
8
top plate
6
ByLayer
62
256
370
-1
100
AcDbLine
10
83.3345237792
20
133.180194847
11
71.1213203436
21
120.966991411
0
LINE
5
1F2
100
AcDbEntity
8
top plate
6
ByLayer
62
256
370
-1
100
AcDbLine
10
83.3345237792
20
133.180194847
11
66
21
150.514718626
0
LINE
5
1F3
100
AcDbEntity
8
top plate
6
ByLayer
62
256
370
-1
100
AcDbLine
10
66
20
123.088311755
11
66
21
150.514718626
0
LINE
5
1F4
100
AcDbEntity
8
top plate
6
ByLayer
62
256
370
-1
100
AcDbLine
10
91.8198051535
20
141.665476221
11
74.4852813743
21
159
0
ARC
5
1F5
100
AcDbEntity
8
top plate
6
ByLayer
62
256
370
-1
100
AcDbCircle
10
69
20
206.911688245
40
3
100
AcDbArc
50
45
51
180
0
ARC
5
1F6
100
AcDbEntity
8
top plate
6
ByLayer
62
256
370
-1
100
AcDbCircle
10
101.911688245
20
174
40
3
100
AcDbArc
50
270
51
45
0
LINE
5
1F7
100
AcDbEntity
8
top plate
6
ByLayer
62
256
370
-1
100
AcDbLine
10
83.3345237792
20
196.819805153
11
71.1213203436
21
209.033008589
0
LINE
5
1F8
100
AcDbEntity
8
top plate
6
ByLayer
62
256
370
-1
100
AcDbLine
10
66
20
206.911688245
11
66
21
179.485281374
0
LINE
5
1F9
100
AcDbEntity
8
top plate
6
ByLayer
62
256
370
-1
100
AcDbLine
10
91.8198051535
20
188.334523779
11
104.033008589
21
176.121320344
0
LINE
5
1FA
100
AcDbEntity
8
top plate
6
ByLayer
62
256
370
-1
100
AcDbLine
10
91.8198051535
20
188.334523779
11
74.4852813742
21
171
0
LINE
5
1FB
100
AcDbEntity
8
top plate
6
ByLayer
62
256
370
-1
100
AcDbLine
10
101.911688245
20
171
11
74.4852813742
21
171
0
LINE
5
1FC
100
AcDbEntity
8
top plate
6
ByLayer
62
256
370
-1
100
AcDbLine
10
83.3345237792
20
196.819805153
11
66
21
179.485281374
0
ENDSEC
0
SECTION
2
OBJECTS
0
DICTIONARY
5
C
330
0
100
AcDbDictionary
281
1
3
ACAD_GROUP
350
D
0
DICTIONARY
5
D
330
C
100
AcDbDictionary
281
1
0
ENDSEC
0
EOF
